<?xml version="1.0" encoding="UTF-8"?>
<!-- 2020-10-26 15:32:49 Generated by QCAD 3.24.2 SVG Exporter PG -->
<svg width="210.25mm" height="210.25mm" viewBox="-105.125 -105.125 210.25 210.25" version="1.1" xmlns="http://www.w3.org/2000/svg" style="stroke-linecap:round;stroke-linejoin:round;fill:none">
    <g transform="scale(1,-1)">
        <!-- Schraffur -->
        <path d="M100,-85.5 L100,85.5 A14.5,14.5 0 0 1 85.5,100 L-85.5,100 A14.5,14.5 0 0 1 -100,85.5 L-100,-85.5 A14.5,14.5 0 0 1 -85.5,-100 L85.5,-100 A14.5,14.5 0 0 1 100,-85.5M-85.5,95 A9.5,9.5 0 0 1 -95,85.5 L-95,-85.5 A9.5,9.5 0 0 1 -85.5,-95 L85.5,-95 A9.5,9.5 0 0 1 95,-85.5 L95,85.5 A9.5,9.5 0 0 1 85.5,95 Z" style="fill:#000000;fill-rule:evenodd;"/>
        <!-- Linie -->
        <line x1="-0.496" y1="6.3198" x2="-9.5856" y2="6.3198" style="stroke:#000000;stroke-width:0.25;"/>
        <!-- Linie -->
        <line x1="-9.5856" y1="6.3198" x2="-9.5856" y2="10.7269" style="stroke:#000000;stroke-width:0.25;"/>
        <!-- Linie -->
        <line x1="-9.5856" y1="10.7269" x2="4.8903" y2="10.7269" style="stroke:#000000;stroke-width:0.25;"/>
        <!-- Linie -->
        <line x1="4.8903" y1="10.7269" x2="4.8903" y2="-15.5624" style="stroke:#000000;stroke-width:0.25;"/>
        <!-- Linie -->
        <line x1="4.8903" y1="-15.5624" x2="14.0411" y2="-15.5624" style="stroke:#000000;stroke-width:0.25;"/>
        <!-- Linie -->
        <line x1="14.0411" y1="-15.5624" x2="14.0411" y2="-20" style="stroke:#000000;stroke-width:0.25;"/>
        <!-- Linie -->
        <line x1="14.0411" y1="-20" x2="-10.5955" y2="-20" style="stroke:#000000;stroke-width:0.25;"/>
        <!-- Linie -->
        <line x1="-10.5955" y1="-20" x2="-10.5955" y2="-15.5624" style="stroke:#000000;stroke-width:0.25;"/>
        <!-- Linie -->
        <line x1="-10.5955" y1="-15.5624" x2="-0.496" y2="-15.5624" style="stroke:#000000;stroke-width:0.25;"/>
        <!-- Linie -->
        <line x1="-0.496" y1="-15.5624" x2="-0.496" y2="6.3198" style="stroke:#000000;stroke-width:0.25;"/>
        <!-- Linie -->
        <line x1="-26.4413" y1="-6.4116" x2="-33.2048" y2="14.9809" style="stroke:#000000;stroke-width:0.25;"/>
        <!-- Linie -->
        <line x1="-33.2048" y1="14.9809" x2="-39.9684" y2="-6.4116" style="stroke:#000000;stroke-width:0.25;"/>
        <!-- Linie -->
        <line x1="-39.9684" y1="-6.4116" x2="-26.4413" y2="-6.4116" style="stroke:#000000;stroke-width:0.25;"/>
        <!-- Linie -->
        <line x1="24.7453" y1="10.7269" x2="29.6114" y2="10.7269" style="stroke:#000000;stroke-width:0.25;"/>
        <!-- Linie -->
        <line x1="29.6114" y1="10.7269" x2="29.7644" y2="5.065" style="stroke:#000000;stroke-width:0.25;"/>
        <!-- Kreisbogen -->
        <path d="M29.7644,5.065 A27.4572,27.4572 0 0,0 32.6978,8.0867" style="stroke:#000000;stroke-width:0.25;"/>
        <!-- Kreisbogen -->
        <path d="M32.6978,8.0867 A13.7908,13.7908 0 0,0 35.1355,9.8087" style="stroke:#000000;stroke-width:0.25;"/>
        <!-- Kreisbogen -->
        <path d="M35.1355,9.8087 A10.9059,10.9059 0 0,0 40.476,11.2777" style="stroke:#000000;stroke-width:0.25;"/>
        <!-- Kreisbogen -->
        <path d="M40.476,11.2777 A13.0406,13.0406 0 0,0 42.6969,11.0872" style="stroke:#000000;stroke-width:0.25;"/>
        <!-- Kreisbogen -->
        <path d="M42.6969,11.0872 A8.9471,8.9471 0 0,0 44.4741,10.5867" style="stroke:#000000;stroke-width:0.25;"/>
        <!-- Kreisbogen -->
        <path d="M44.4741,10.5867 A7.859,7.859 0 0,0 46.2527,9.5971" style="stroke:#000000;stroke-width:0.25;"/>
        <!-- Kreisbogen -->
        <path d="M46.2527,9.5971 A7.8247,7.8247 0 0,0 47.7139,8.1867" style="stroke:#000000;stroke-width:0.25;"/>
        <!-- Kreisbogen -->
        <path d="M47.7139,8.1867 A8.3485,8.3485 0 0,0 48.8284,6.3421" style="stroke:#000000;stroke-width:0.25;"/>
        <!-- Kreisbogen -->
        <path d="M48.8284,6.3421 A12.7171,12.7171 0 0,0 49.638,3.8083" style="stroke:#000000;stroke-width:0.25;"/>
        <!-- Kreisbogen -->
        <path d="M49.638,3.8083 A16.4108,16.4108 0 0,0 49.9351,1.6883" style="stroke:#000000;stroke-width:0.25;"/>
        <!-- Kreisbogen -->
        <path d="M49.9351,1.6883 A25.788,25.788 0 0,0 49.9939,-0.9946" style="stroke:#000000;stroke-width:0.25;"/>
        <!-- Linie -->
        <line x1="49.9939" y1="-0.9946" x2="44.6076" y2="-0.9946" style="stroke:#000000;stroke-width:0.25;"/>
        <!-- Kreisbogen -->
        <path d="M44.6076,-0.9946 A21.9575,21.9575 0 0,1 44.5799,0.7143" style="stroke:#000000;stroke-width:0.25;"/>
        <!-- Kreisbogen -->
        <path d="M44.5799,0.7143 A13.2164,13.2164 0 0,1 44.4404,2.033" style="stroke:#000000;stroke-width:0.25;"/>
        <!-- Kreisbogen -->
        <path d="M44.4404,2.033 A9.494,9.494 0 0,1 44.0026,3.7539" style="stroke:#000000;stroke-width:0.25;"/>
        <!-- Kreisbogen -->
        <path d="M44.0026,3.7539 A4.7141,4.7141 0 0,1 43.4293,4.8661" style="stroke:#000000;stroke-width:0.25;"/>
        <!-- Kreisbogen -->
        <path d="M43.4293,4.8661 A4.4375,4.4375 0 0,1 42.6823,5.6926" style="stroke:#000000;stroke-width:0.25;"/>
        <!-- Kreisbogen -->
        <path d="M42.6823,5.6926 A3.864,3.864 0 0,1 41.81,6.2581" style="stroke:#000000;stroke-width:0.25;"/>
        <!-- Kreisbogen -->
        <path d="M41.81,6.2581 A4.1484,4.1484 0 0,1 40.8729,6.5695" style="stroke:#000000;stroke-width:0.25;"/>
        <!-- Kreisbogen -->
        <path d="M40.8729,6.5695 A5.8037,5.8037 0 0,1 39.7108,6.6871" style="stroke:#000000;stroke-width:0.25;"/>
        <!-- Kreisbogen -->
        <path d="M39.7108,6.6871 A6.4637,6.4637 0 0,1 37.5532,6.3045" style="stroke:#000000;stroke-width:0.25;"/>
        <!-- Kreisbogen -->
        <path d="M37.5532,6.3045 A8.7172,8.7172 0 0,1 35.3191,5.0803" style="stroke:#000000;stroke-width:0.25;"/>
        <!-- Kreisbogen -->
        <path d="M35.3191,5.0803 A20.0138,20.0138 0 0,1 32.8861,2.9227" style="stroke:#000000;stroke-width:0.25;"/>
        <!-- Kreisbogen -->
        <path d="M32.8861,2.9227 A39.8359,39.8359 0 0,1 30.1317,-0.2601" style="stroke:#000000;stroke-width:0.25;"/>
        <!-- Linie -->
        <line x1="30.1317" y1="-0.2601" x2="30.1317" y2="-20" style="stroke:#000000;stroke-width:0.25;"/>
        <!-- Linie -->
        <line x1="30.1317" y1="-20" x2="24.7453" y2="-20" style="stroke:#000000;stroke-width:0.25;"/>
        <!-- Linie -->
        <line x1="24.7453" y1="-20" x2="24.7453" y2="10.7269" style="stroke:#000000;stroke-width:0.25;"/>
        <!-- Kreisbogen -->
        <path d="M1.3708,23.6113 A4.2242,4.2242 0 0,0 3.0235,23.29" style="stroke:#000000;stroke-width:0.25;"/>
        <!-- Kreisbogen -->
        <path d="M3.0235,23.29 A3.9977,3.9977 0 0,0 4.3548,22.3871" style="stroke:#000000;stroke-width:0.25;"/>
        <!-- Kreisbogen -->
        <path d="M4.3548,22.3871 A4.3457,4.3457 0 0,0 5.2423,21.0559" style="stroke:#000000;stroke-width:0.25;"/>
        <!-- Kreisbogen -->
        <path d="M5.2423,21.0559 A4.1129,4.1129 0 0,0 5.5636,19.4185" style="stroke:#000000;stroke-width:0.25;"/>
        <!-- Kreisbogen -->
        <path d="M5.5636,19.4185 A4.1461,4.1461 0 0,0 5.2423,17.7965" style="stroke:#000000;stroke-width:0.25;"/>
        <!-- Kreisbogen -->
        <path d="M5.2423,17.7965 A4.2953,4.2953 0 0,0 4.3548,16.4499" style="stroke:#000000;stroke-width:0.25;"/>
        <!-- Kreisbogen -->
        <path d="M4.3548,16.4499 A3.9977,3.9977 0 0,0 3.0235,15.5471" style="stroke:#000000;stroke-width:0.25;"/>
        <!-- Kreisbogen -->
        <path d="M3.0235,15.5471 A4.2242,4.2242 0 0,0 1.3708,15.2257" style="stroke:#000000;stroke-width:0.25;"/>
        <!-- Kreisbogen -->
        <path d="M1.3708,15.2257 A4.2242,4.2242 0 0,0 -0.2818,15.5471" style="stroke:#000000;stroke-width:0.25;"/>
        <!-- Kreisbogen -->
        <path d="M-0.2818,15.5471 A3.9977,3.9977 0 0,0 -1.6131,16.4499" style="stroke:#000000;stroke-width:0.25;"/>
        <!-- Kreisbogen -->
        <path d="M-1.6131,16.4499 A4.2953,4.2953 0 0,0 -2.5006,17.7965" style="stroke:#000000;stroke-width:0.25;"/>
        <!-- Kreisbogen -->
        <path d="M-2.5006,17.7965 A4.1461,4.1461 0 0,0 -2.822,19.4185" style="stroke:#000000;stroke-width:0.25;"/>
        <!-- Kreisbogen -->
        <path d="M-2.822,19.4185 A4.1129,4.1129 0 0,0 -2.5006,21.0559" style="stroke:#000000;stroke-width:0.25;"/>
        <!-- Kreisbogen -->
        <path d="M-2.5006,21.0559 A4.3457,4.3457 0 0,0 -1.6131,22.3871" style="stroke:#000000;stroke-width:0.25;"/>
        <!-- Kreisbogen -->
        <path d="M-1.6131,22.3871 A3.9977,3.9977 0 0,0 -0.2818,23.29" style="stroke:#000000;stroke-width:0.25;"/>
        <!-- Kreisbogen -->
        <path d="M-0.2818,23.29 A4.2242,4.2242 0 0,0 1.3708,23.6113" style="stroke:#000000;stroke-width:0.25;"/>
        <!-- Linie -->
        <line x1="-16.1582" y1="-20" x2="-22.0954" y2="-20" style="stroke:#000000;stroke-width:0.25;"/>
        <!-- Linie -->
        <line x1="-22.0954" y1="-20" x2="-24.8804" y2="-11.2777" style="stroke:#000000;stroke-width:0.25;"/>
        <!-- Linie -->
        <line x1="-24.8804" y1="-11.2777" x2="-41.5292" y2="-11.2777" style="stroke:#000000;stroke-width:0.25;"/>
        <!-- Linie -->
        <line x1="-41.5292" y1="-11.2777" x2="-44.3449" y2="-20" style="stroke:#000000;stroke-width:0.25;"/>
        <!-- Linie -->
        <line x1="-44.3449" y1="-20" x2="-50.0067" y2="-20" style="stroke:#000000;stroke-width:0.25;"/>
        <!-- Linie -->
        <line x1="-50.0067" y1="-20" x2="-36.7243" y2="20" style="stroke:#000000;stroke-width:0.25;"/>
        <!-- Linie -->
        <line x1="-36.7243" y1="20" x2="-29.2569" y2="20" style="stroke:#000000;stroke-width:0.25;"/>
        <!-- Linie -->
        <line x1="-29.2569" y1="20" x2="-16.1582" y2="-20" style="stroke:#000000;stroke-width:0.25;"/>
        <!-- Schraffur -->
        <path d="M49.9351,1.6883 A25.788,25.788 0 0 0 49.9939,-0.9946 L44.6076,-0.9946 A21.9575,21.9575 0 0 1 44.5799,0.7143 A13.2164,13.2164 0 0 1 44.4404,2.033 A9.49404,9.49404 0 0 1 44.0026,3.7539 A4.71415,4.71415 0 0 1 43.4293,4.8661 A4.4375,4.4375 0 0 1 42.6823,5.6926 A3.86404,3.86404 0 0 1 41.81,6.2581 A4.14839,4.14839 0 0 1 40.8729,6.5695 A5.80374,5.80374 0 0 1 39.7108,6.6871 A6.4637,6.4637 0 0 1 37.5532,6.3045 A8.71721,8.71721 0 0 1 35.3191,5.0803 A20.0138,20.0138 0 0 1 32.8861,2.9227 A39.8359,39.8359 0 0 1 30.1317,-0.2601 L30.1317,-20 L24.7453,-20 L24.7453,10.7269 L29.6114,10.7269 L29.7644,5.065 A27.4572,27.4572 0 0 0 32.6978,8.0867 A13.7908,13.7908 0 0 0 35.1355,9.8087 A10.9059,10.9059 0 0 0 40.476,11.2777 A13.0406,13.0406 0 0 0 42.6969,11.0872 A8.94706,8.94706 0 0 0 44.4741,10.5867 A7.85902,7.85902 0 0 0 46.2527,9.5971 A7.82471,7.82471 0 0 0 47.7139,8.1867 A8.34851,8.34851 0 0 0 48.8284,6.3421 A12.7171,12.7171 0 0 0 49.638,3.8083 A16.4108,16.4108 0 0 0 49.9351,1.6883M-39.9684,-6.4116 L-26.4413,-6.4116 L-33.2048,14.9809 ZM-41.5292,-11.2777 L-44.3449,-20 L-50.0067,-20 L-36.7243,20 L-29.2569,20 L-16.1582,-20 L-22.0954,-20 L-24.8804,-11.2777 ZM14.0411,-15.5624 L14.0411,-20 L-10.5955,-20 L-10.5955,-15.5624 L-0.496,-15.5624 L-0.496,6.3198 L-9.5856,6.3198 L-9.5856,10.7269 L4.8903,10.7269 L4.8903,-15.5624 ZM-2.5006,17.7965 A4.14608,4.14608 0 0 0 -2.822,19.4185 A4.11292,4.11292 0 0 0 -2.5006,21.0559 A4.34574,4.34574 0 0 0 -1.6131,22.3871 A3.99767,3.99767 0 0 0 -0.2818,23.29 A4.22416,4.22416 0 0 0 1.3708,23.6113 A4.22416,4.22416 0 0 0 3.0235,23.29 A3.99767,3.99767 0 0 0 4.3548,22.3871 A4.34574,4.34574 0 0 0 5.2423,21.0559 A4.11292,4.11292 0 0 0 5.5636,19.4185 A4.14608,4.14608 0 0 0 5.2423,17.7965 A4.29533,4.29533 0 0 0 4.3548,16.4499 A3.99767,3.99767 0 0 0 3.0235,15.5471 A4.22416,4.22416 0 0 0 1.3708,15.2257 A4.22416,4.22416 0 0 0 -0.2818,15.5471 A3.99767,3.99767 0 0 0 -1.6131,16.4499 A4.29533,4.29533 0 0 0 -2.5006,17.7965" style="fill:#000000;fill-rule:evenodd;"/>
    </g>
</svg>
