<?xml version="1.0" encoding="UTF-8" standalone="no"?>
<!-- 2020-10-26 19:11:47 Generated by QCAD 3.24.2 SVG Exporter PG -->

<svg
   xmlns:dc="http://purl.org/dc/elements/1.1/"
   xmlns:cc="http://creativecommons.org/ns#"
   xmlns:rdf="http://www.w3.org/1999/02/22-rdf-syntax-ns#"
   xmlns:svg="http://www.w3.org/2000/svg"
   xmlns="http://www.w3.org/2000/svg"
   xmlns:sodipodi="http://sodipodi.sourceforge.net/DTD/sodipodi-0.dtd"
   xmlns:inkscape="http://www.inkscape.org/namespaces/inkscape"
   width="212mm"
   height="212mm"
   viewBox="-106 -106 212 212"
   version="1.1"
   style="stroke-linecap:round;stroke-linejoin:round;fill:none"
   id="svg46"
   sodipodi:docname="Center_Z.svg"
   inkscape:version="0.92.5 (2060ec1f9f, 2020-04-08)">
  <metadata
     id="metadata52">
    <rdf:RDF>
      <cc:Work
         rdf:about="">
        <dc:format>image/svg+xml</dc:format>
        <dc:type
           rdf:resource="http://purl.org/dc/dcmitype/StillImage" />
      </cc:Work>
    </rdf:RDF>
  </metadata>
  <defs
     id="defs50" />
  <sodipodi:namedview
     pagecolor="#ffffff"
     bordercolor="#666666"
     borderopacity="1"
     objecttolerance="10"
     gridtolerance="10"
     guidetolerance="10"
     inkscape:pageopacity="0"
     inkscape:pageshadow="2"
     inkscape:window-width="1486"
     inkscape:window-height="900"
     id="namedview48"
     showgrid="false"
     inkscape:zoom="0.58907233"
     inkscape:cx="498.94124"
     inkscape:cy="496.34636"
     inkscape:window-x="0"
     inkscape:window-y="0"
     inkscape:window-maximized="0"
     inkscape:current-layer="g44" />
  <g
     transform="scale(1,-1)"
     id="g44">
    <!-- Schraffur -->
    <path
       d="M100,-85.5 L100,85.5 A14.5,14.5 0 0 1 85.5,100 L-85.5,100 A14.5,14.5 0 0 1 -100,85.5 L-100,-85.5 A14.5,14.5 0 0 1 -85.5,-100 L85.5,-100 A14.5,14.5 0 0 1 100,-85.5M-85.5,95 A9.5,9.5 0 0 1 -95,85.5 L-95,-85.5 A9.5,9.5 0 0 1 -85.5,-95 L85.5,-95 A9.5,9.5 0 0 1 95,-85.5 L95,85.5 A9.5,9.5 0 0 1 85.5,95 Z"
       style="fill:#000000;fill-rule:evenodd;"
       id="path2" />
    <!-- Linie -->
    <!-- Linie -->
    <!-- Linie -->
    <!-- Linie -->
    <!-- Linie -->
    <!-- Linie -->
    <!-- Linie -->
    <!-- Linie -->
    <!-- Linie -->
    <!-- Linie -->
    <!-- Linie -->
    <!-- Linie -->
    <!-- Linie -->
    <!-- Linie -->
    <!-- Linie -->
    <!-- Linie -->
    <!-- Linie -->
    <!-- Linie -->
    <!-- Linie -->
    <!-- Linie -->
    <g
       aria-label="Center"
       transform="matrix(1.0000001,0,0,-1.0000001,-2.3084376,-0.90353119)"
       style="font-style:normal;font-weight:normal;font-size:31.74999809px;line-height:1.25;font-family:sans-serif;letter-spacing:0px;word-spacing:0px;fill:#000000;fill-opacity:1;stroke:none;stroke-width:0.26458332;stroke-linecap:round;stroke-linejoin:round"
       id="text2107" />
    <line
       x1="-42.404133"
       y1="-24.879423"
       x2="-42.404133"
       y2="2.9545097"
       style="fill:none;stroke:#000000;stroke-width:0.46389878;stroke-linecap:round;stroke-linejoin:round"
       id="line5444" />
    <line
       x1="13.263723"
       y1="-24.879423"
       x2="13.263723"
       y2="2.9545097"
       style="fill:none;stroke:#000000;stroke-width:0.46389878;stroke-linecap:round;stroke-linejoin:round"
       id="line5446" />
    <line
       x1="13.263723"
       y1="2.9545097"
       x2="40.779217"
       y2="30.543137"
       style="fill:none;stroke:#000000;stroke-width:0.34440055;stroke-linecap:round;stroke-linejoin:round"
       id="line5448" />
    <path
       d="m -1.0742329,24.016898 a 2.7833928,2.7833928 0 1 1 1.85559597,0"
       style="fill:none;stroke:#000000;stroke-width:0.46389878;stroke-linecap:round;stroke-linejoin:round"
       id="path5450"
       inkscape:connector-curvature="0" />
    <line
       x1="-1.074234"
       y1="24.016886"
       x2="-1.074234"
       y2="49.226631"
       style="fill:none;stroke:#000000;stroke-width:0.46389878;stroke-linecap:round;stroke-linejoin:round"
       id="line5452" />
    <line
       x1="0.78136104"
       y1="49.226631"
       x2="0.78136104"
       y2="24.016886"
       style="fill:none;stroke:#000000;stroke-width:0.46389878;stroke-linecap:round;stroke-linejoin:round"
       id="line5454" />
    <line
       x1="-1.074234"
       y1="49.226631"
       x2="-4.7854171"
       y2="67.782593"
       style="fill:none;stroke:#000000;stroke-width:0.46389878;stroke-linecap:round;stroke-linejoin:round"
       id="line5456" />
    <line
       x1="4.4925508"
       y1="67.782593"
       x2="0.78136104"
       y2="49.226631"
       style="fill:none;stroke:#000000;stroke-width:0.46389878;stroke-linecap:round;stroke-linejoin:round"
       id="line5458" />
    <line
       x1="-4.7854171"
       y1="67.782593"
       x2="-4.7854171"
       y2="86.338547"
       style="fill:none;stroke:#000000;stroke-width:0.46389878;stroke-linecap:round;stroke-linejoin:round"
       id="line5460" />
    <line
       x1="-4.7854171"
       y1="86.338547"
       x2="4.4925508"
       y2="86.338547"
       style="fill:none;stroke:#000000;stroke-width:0.46389878;stroke-linecap:round;stroke-linejoin:round"
       id="line5462" />
    <line
       x1="4.4925508"
       y1="86.338547"
       x2="4.4925508"
       y2="67.782593"
       style="fill:none;stroke:#000000;stroke-width:0.46389878;stroke-linecap:round;stroke-linejoin:round"
       id="line5464" />
    <line
       x1="-83.319611"
       y1="-28.609848"
       x2="-83.319611"
       y2="-33.248848"
       style="fill:none;stroke:#000000;stroke-width:0.46389878;stroke-linecap:round;stroke-linejoin:round"
       id="line5466" />
    <line
       x1="-83.319611"
       y1="-33.248848"
       x2="46.572056"
       y2="-33.248848"
       style="fill:none;stroke:#000000;stroke-width:0.46389878;stroke-linecap:round;stroke-linejoin:round"
       id="line5468" />
    <line
       x1="46.572056"
       y1="-33.248848"
       x2="46.572056"
       y2="-28.609848"
       style="fill:none;stroke:#000000;stroke-width:0.46389878;stroke-linecap:round;stroke-linejoin:round"
       id="line5470" />
    <line
       x1="46.572056"
       y1="-33.248848"
       x2="83.68396"
       y2="3.8630679"
       style="fill:none;stroke:#000000;stroke-width:0.46389878;stroke-linecap:round;stroke-linejoin:round"
       id="line5472" />
    <path
       d="m -1.0742329,24.016898 a 2.7833928,2.7833928 0 1 1 1.85559597,0 V 49.226642 L 4.4925533,67.782593 V 86.338544 H -4.7854231 V 67.782593 l 3.7111902,-18.555951 z"
       style="fill:#000000;fill-rule:evenodd;stroke-width:0.92779756;stroke-linecap:round;stroke-linejoin:round"
       id="path5474"
       inkscape:connector-curvature="0" />
    <line
       x1="-42.404133"
       y1="2.9545097"
       x2="13.263723"
       y2="2.9545097"
       style="fill:none;stroke:#000000;stroke-width:0.46389878;stroke-linecap:round;stroke-linejoin:round"
       id="line5476" />
    <line
       x1="13.263723"
       y1="-24.879423"
       x2="-42.404133"
       y2="-24.879423"
       style="fill:none;stroke:#000000;stroke-width:0.56815761;stroke-linecap:round;stroke-linejoin:round"
       id="line5478" />
    <line
       x1="46.572056"
       y1="-28.609848"
       x2="83.68396"
       y2="8.5020561"
       style="fill:none;stroke:#000000;stroke-width:0.46389878;stroke-linecap:round;stroke-linejoin:round"
       id="line5482" />
    <line
       x1="83.68396"
       y1="8.5020561"
       x2="83.68396"
       y2="3.8630679"
       style="fill:none;stroke:#000000;stroke-width:0.46389878;stroke-linecap:round;stroke-linejoin:round"
       id="line5484" />
    <line
       x1="-83.319611"
       y1="-28.609848"
       x2="-46.207703"
       y2="8.5020561"
       style="fill:none;stroke:#000000;stroke-width:0.46389878;stroke-linecap:round;stroke-linejoin:round"
       id="line5486" />
    <line
       x1="-46.207703"
       y1="8.5020561"
       x2="-36.929726"
       y2="8.5020561"
       style="fill:none;stroke:#000000;stroke-width:0.46389878;stroke-linecap:round;stroke-linejoin:round"
       id="line5488" />
    <line
       x1="41.110657"
       y1="8.5020561"
       x2="83.68396"
       y2="8.5020561"
       style="fill:none;stroke:#000000;stroke-width:0.49686146;stroke-linecap:round;stroke-linejoin:round"
       id="line5490" />
    <line
       x1="13.263723"
       y1="-24.879423"
       x2="40.779217"
       y2="2.7092104"
       style="fill:none;stroke:#000000;stroke-width:0.34440055;stroke-linecap:round;stroke-linejoin:round"
       id="line5492" />
    <line
       x1="40.779217"
       y1="30.543137"
       x2="40.779217"
       y2="2.7092104"
       style="fill:none;stroke:#000000;stroke-width:0.46389878;stroke-linecap:round;stroke-linejoin:round"
       id="line5494" />
    <line
       x1="40.779217"
       y1="30.543137"
       x2="-14.888641"
       y2="30.543137"
       style="fill:none;stroke:#000000;stroke-width:0.46389878;stroke-linecap:round;stroke-linejoin:round"
       id="line5496" />
    <line
       x1="-42.404133"
       y1="2.9545097"
       x2="-14.888641"
       y2="30.543137"
       style="fill:none;stroke:#000000;stroke-width:0.34440055;stroke-linecap:round;stroke-linejoin:round"
       id="line5498" />
    <path
       inkscape:connector-curvature="0"
       d="m -71.438699,-84.630726 q 0,-0.405695 -0.04271,-0.704628 -0.04271,-0.277581 -0.149467,-0.469754 -0.08541,-0.19217 -0.234877,-0.277582 -0.128114,-0.08541 -0.320286,-0.08541 h -16.313229 q -0.555166,0 -0.8968,0.341639 -0.341643,0.341638 -0.341643,1.088974 v 0.790037 q 0,0.277582 0.02134,0.512459 0.04268,0.234875 0.149469,0.491104 0.106761,0.277581 0.298936,0.597869 0.192165,0.341636 0.469753,0.790037 l 12.747378,19.943143 h -12.597917 q -0.213523,0 -0.362992,0.08541 -0.149458,0.08541 -0.25622,0.256227 -0.08545,0.192172 -0.12812,0.469752 -0.04268,0.298936 -0.04268,0.683279 0,0.427049 0.04268,0.725982 0.04268,0.298933 0.12812,0.491104 0.106762,0.192171 0.25622,0.277582 0.149469,0.08541 0.362992,0.08541 h 15.373732 q 0.576515,0 0.8968,-0.341637 0.341639,-0.320287 0.341639,-1.003566 v -0.832743 q 0,-0.341637 -0.04271,-0.619218 -0.04271,-0.256229 -0.149467,-0.53381 -0.106762,-0.277582 -0.298934,-0.597868 -0.170818,-0.320285 -0.469753,-0.747335 l -12.683323,-19.857733 h 13.494715 q 0.36299,0 0.555162,-0.36299 0.192172,-0.362992 0.192172,-1.195735 z"
       style="font-style:normal;font-variant:normal;font-weight:normal;font-stretch:normal;font-size:47.13282013px;line-height:1.25;font-family:Calibri;-inkscape-font-specification:Calibri;letter-spacing:0px;word-spacing:0px;fill:#000000;fill-opacity:1;stroke:none;stroke-width:1.09324288;stroke-linecap:round;stroke-linejoin:round"
       id="path7542" />
    <path
       inkscape:connector-curvature="0"
       d="m -40.306894,-73.869113 q 0,-0.405698 -0.06406,-0.704631 -0.06405,-0.277581 -0.170819,-0.469752 -0.106761,-0.192171 -0.25623,-0.277582 -0.149465,-0.08541 -0.320285,-0.08541 h -7.003586 v -7.772272 q 0,-0.17082 -0.08541,-0.298936 -0.08541,-0.106761 -0.277581,-0.192171 -0.17082,-0.08541 -0.469753,-0.149465 -0.298933,-0.04271 -0.747334,-0.04271 -0.427049,0 -0.747334,0.04271 -0.298935,0.06405 -0.491104,0.149465 -0.17082,0.08541 -0.256229,0.192171 -0.08541,0.128116 -0.08541,0.298936 v 7.772272 h -7.003587 q -0.192172,0 -0.341639,0.08541 -0.128114,0.08541 -0.234876,0.277582 -0.106761,0.192171 -0.170819,0.469752 -0.06405,0.298933 -0.06405,0.704631 0,0.384342 0.06405,0.661923 0.06406,0.298933 0.170819,0.491104 0.106762,0.192172 0.234876,0.277582 0.149467,0.08541 0.320287,0.08541 h 7.024939 v 7.772272 q 0,0.17082 0.08541,0.298933 0.08541,0.149468 0.256229,0.234877 0.192169,0.106762 0.491104,0.149468 0.320285,0.06406 0.747334,0.06406 0.448401,0 0.747334,-0.06406 0.298933,-0.04271 0.469753,-0.149468 0.192171,-0.08541 0.277581,-0.234877 0.08541,-0.128113 0.08541,-0.298933 v -7.772272 h 7.024939 q 0.170819,0 0.298932,-0.08541 0.149469,-0.08541 0.25623,-0.277582 0.128113,-0.192171 0.170819,-0.491104 0.06406,-0.277581 0.06406,-0.661923 z"
       style="font-style:normal;font-variant:normal;font-weight:normal;font-stretch:normal;font-size:47.13282013px;line-height:1.25;font-family:Calibri;-inkscape-font-specification:Calibri;letter-spacing:0px;word-spacing:0px;fill:#000000;fill-opacity:1;stroke:none;stroke-width:1.09324288;stroke-linecap:round;stroke-linejoin:round"
       id="path7544" />
    <path
       inkscape:connector-curvature="0"
       d="m -6.7836239,-82.260609 q 0,-0.341639 -0.02136,-0.597866 -0.02136,-0.256229 -0.08541,-0.448401 -0.04271,-0.192171 -0.128114,-0.341639 -0.08541,-0.149468 -0.298932,-0.362991 -0.213526,-0.213523 -0.896802,-0.661924 -0.683278,-0.427049 -1.708193,-0.854095 -1.0035621,-0.405697 -2.3274111,-0.683279 -1.302498,-0.298932 -2.861221,-0.298932 -2.690405,0 -4.868347,0.896801 -2.156594,0.896799 -3.693968,2.647698 -1.516019,1.750897 -2.348763,4.313185 -0.811391,2.583638 -0.811391,5.935966 0,3.437736 0.875447,6.12814 0.896801,2.690403 2.498232,4.54806 1.60143,1.879013 3.822079,2.861225 2.242003,0.982208 4.953757,0.982208 1.195734,0 2.327411,-0.234877 1.131679,-0.213524 2.092536,-0.555163 0.9608591,-0.341636 1.7081931,-0.790037 0.747333,-0.448401 1.024915,-0.747334 0.298933,-0.277581 0.384343,-0.427048 0.08541,-0.149468 0.128115,-0.362992 0.06406,-0.192171 0.08541,-0.469752 0.04271,-0.277581 0.04271,-0.661924 0,-0.427049 -0.04271,-0.725982 -0.04271,-0.298933 -0.128115,-0.512459 -0.08541,-0.192171 -0.213524,-0.298933 -0.106761,-0.08541 -0.277581,-0.08541 -0.298933,0 -0.832744,0.405695 -0.53381,0.427049 -1.387905,0.918153 -0.8327471,0.512459 -2.0498321,0.918154 -1.195735,0.427048 -2.882574,0.427048 -1.836307,0 -3.352328,-0.747333 -1.494668,-0.725982 -2.562288,-2.156594 -1.067619,-1.430612 -1.665485,-3.501794 -0.576517,-2.049829 -0.576517,-4.697528 0,-2.626346 0.555163,-4.654824 0.576517,-2.007126 1.622783,-3.37368 1.067621,-1.3452 2.604992,-2.04983 1.537373,-0.683275 3.480442,-0.683275 1.644135,0 2.861221,0.405694 1.238441,0.405697 2.0925361,0.896802 0.875449,0.512456 1.430612,0.918153 0.555162,0.405694 0.875447,0.405694 0.149468,0 0.256229,-0.06405 0.106762,-0.06405 0.17082,-0.256229 0.06406,-0.170819 0.08541,-0.491107 0.04271,-0.320284 0.04271,-0.811392 z"
       style="font-style:normal;font-variant:normal;font-weight:normal;font-stretch:normal;font-size:47.13282013px;line-height:1.25;font-family:Calibri;-inkscape-font-specification:Calibri;letter-spacing:0px;word-spacing:0px;fill:#000000;fill-opacity:1;stroke:none;stroke-width:1.09324288;stroke-linecap:round;stroke-linejoin:round"
       id="path7546" />
    <path
       inkscape:connector-curvature="0"
       d="m 14.07767,-75.192965 q 0,-0.832742 -0.427049,-1.195734 -0.405695,-0.341639 -0.939505,-0.341639 H 0.11319857 q 0,-1.601429 0.320285,-2.882573 0.3202878,-1.281144 1.06762133,-2.199297 0.7473335,-0.918153 1.9430678,-1.409258 1.1957344,-0.491105 2.9252799,-0.491105 1.3665541,0 2.4341726,0.213524 1.0676213,0.234875 1.8363058,0.512456 0.79004,0.277581 1.281145,0.491107 0.512459,0.234875 0.768688,0.234875 0.149465,0 0.256227,-0.08541 0.128116,-0.06406 0.192174,-0.213526 0.06405,-0.149466 0.08541,-0.427047 0.04271,-0.256229 0.04271,-0.640572 0,-0.277581 -0.02136,-0.491106 -0.02136,-0.192172 -0.06405,-0.362989 -0.02136,-0.149468 -0.106765,-0.277581 -0.06405,-0.128116 -0.192171,-0.256229 -0.106762,-0.106762 -0.683275,-0.384343 -0.576517,-0.25623 -1.49467,-0.512459 -0.9181543,-0.25623 -2.13524,-0.448401 -1.1957346,-0.213523 -2.5622885,-0.213523 -2.3701146,0 -4.163718,0.661924 -1.77224823,0.661924 -2.989334,1.96442 -1.2170885,1.302496 -1.8363062,3.266918 -0.6192204,1.964421 -0.6192204,4.569415 0,2.476879 0.6405718,4.441299 0.6405719,1.985774 1.8363062,3.352328 1.21708577,1.387904 2.9252789,2.113888 1.7081913,0.747331 3.8220787,0.747331 2.2633559,0 3.8434332,-0.725979 1.6014313,-0.725982 2.6263463,-1.964423 1.024915,-1.217086 1.494667,-2.882573 0.491104,-1.644136 0.491104,-3.523146 z m -3.5445,1.04627 q 0.06405,2.775812 -1.2384384,4.355889 -1.2811436,1.580077 -3.8220808,1.580077 -1.302496,0 -2.284707,-0.491104 -0.982211,-0.491105 -1.6441352,-1.302496 -0.66192423,-0.811393 -1.02491483,-1.900365 -0.3629915,-1.067621 -0.4056952,-2.242001 z"
       style="font-style:normal;font-variant:normal;font-weight:normal;font-stretch:normal;font-size:47.13282013px;line-height:1.25;font-family:Calibri;-inkscape-font-specification:Calibri;letter-spacing:0px;word-spacing:0px;fill:#000000;fill-opacity:1;stroke:none;stroke-width:1.09324288;stroke-linecap:round;stroke-linejoin:round"
       id="path7548" />
    <path
       inkscape:connector-curvature="0"
       d="m 36.006579,-85.63429 q 0,-0.170818 -0.08545,-0.298932 -0.08545,-0.106762 -0.277579,-0.192171 -0.192174,-0.08541 -0.533808,-0.128114 -0.341643,-0.04271 -0.854103,-0.04271 -0.533808,0 -0.875442,0.04271 -0.341642,0.04271 -0.533808,0.128114 -0.192175,0.08541 -0.277588,0.192171 -0.08545,0.128114 -0.08545,0.298932 v 11.252718 q 0,1.644135 -0.25623,2.647697 -0.25622,1.003564 -0.747322,1.729546 -0.491111,0.725979 -1.28114,1.110324 -0.76869,0.384343 -1.793609,0.384343 -1.323846,0 -2.647693,-0.939505 -1.323856,-0.939505 -2.775812,-2.754463 v -13.43066 q 0,-0.170818 -0.08545,-0.298932 -0.08545,-0.106762 -0.277587,-0.192171 -0.192166,-0.08541 -0.533809,-0.128114 -0.341633,-0.04271 -0.875451,-0.04271 -0.51245,0 -0.854091,0.04271 -0.34164,0.04271 -0.555163,0.128114 -0.192171,0.08541 -0.277581,0.192171 -0.06406,0.128114 -0.06406,0.298932 v 19.217164 q 0,0.17082 0.06406,0.277581 0.06405,0.128113 0.25623,0.213524 0.192171,0.106761 0.491103,0.128113 0.298932,0.04271 0.790043,0.04271 0.469753,0 0.76868,-0.04271 0.320285,-0.02136 0.491112,-0.128113 0.170816,-0.08541 0.234871,-0.213524 0.08545,-0.106761 0.08545,-0.277581 v -2.540937 q 1.622782,1.814955 3.224217,2.647699 1.622783,0.854095 3.266914,0.854095 1.921719,0 3.224217,-0.661924 1.323847,-0.640572 2.135234,-1.729545 0.811396,-1.088973 1.153029,-2.562288 0.362992,-1.451962 0.362992,-3.501794 z"
       style="font-style:normal;font-variant:normal;font-weight:normal;font-stretch:normal;font-size:47.13282013px;line-height:1.25;font-family:Calibri;-inkscape-font-specification:Calibri;letter-spacing:0px;word-spacing:0px;fill:#000000;fill-opacity:1;stroke:none;stroke-width:1.09324288;stroke-linecap:round;stroke-linejoin:round"
       id="path7550" />
    <path
       inkscape:connector-curvature="0"
       d="m 51.999526,-84.225029 q 0,-0.619221 -0.08545,-0.982211 -0.08545,-0.362992 -0.25623,-0.533811 -0.170816,-0.170819 -0.51245,-0.320285 -0.341643,-0.149468 -0.790047,-0.234877 -0.427047,-0.106762 -0.918149,-0.17082 -0.491102,-0.06405 -0.982213,-0.06405 -1.494663,0 -2.562289,0.384343 -1.067617,0.405694 -1.750893,1.195735 -0.683277,0.811389 -1.003562,2.028478 -0.298936,1.238438 -0.298936,2.903924 v 11.231363 h -2.690409 q -0.320276,0 -0.51245,0.341637 -0.192175,0.341638 -0.192175,1.110327 0,0.405694 0.04268,0.683276 0.06402,0.277581 0.149468,0.4484 0.08545,0.192171 0.213523,0.256229 0.149468,0.08541 0.320285,0.08541 h 2.669051 v 4.569415 q 0,0.149468 0.06402,0.277582 0.08545,0.128113 0.277579,0.213523 0.213523,0.106762 0.555166,0.149467 0.341643,0.04271 0.854093,0.04271 0.533809,0 0.875451,-0.04271 0.341643,-0.04271 0.533809,-0.149467 0.192174,-0.08541 0.277587,-0.213523 0.08545,-0.128114 0.08545,-0.277582 v -4.569415 h 4.932403 q 0.170817,0 0.298927,-0.08541 0.12812,-0.06406 0.213524,-0.256229 0.106761,-0.170819 0.149468,-0.4484 0.04268,-0.277582 0.04268,-0.683276 0,-0.768689 -0.192166,-1.110327 -0.192174,-0.341637 -0.512459,-0.341637 h -4.932413 v -10.718907 q 0,-1.985771 0.576514,-3.010686 0.597873,-1.003565 2.113894,-1.003565 0.491102,0 0.875442,0.08541 0.38435,0.106761 0.683277,0.213522 0.298936,0.106765 0.512459,0.192172 0.213524,0.106762 0.38435,0.106762 0.106762,0 0.192165,-0.06405 0.106762,-0.04271 0.149469,-0.192174 0.06402,-0.149466 0.106761,-0.405694 0.04268,-0.25623 0.04268,-0.640572 z"
       style="font-style:normal;font-variant:normal;font-weight:normal;font-stretch:normal;font-size:47.13282013px;line-height:1.25;font-family:Calibri;-inkscape-font-specification:Calibri;letter-spacing:0px;word-spacing:0px;fill:#000000;fill-opacity:1;stroke:none;stroke-width:1.09324288;stroke-linecap:round;stroke-linejoin:round"
       id="path7552" />
    <path
       inkscape:connector-curvature="0"
       d="m 72.668666,-75.192965 q 0,-0.832742 -0.427046,-1.195734 -0.405698,-0.341639 -0.939516,-0.341639 H 58.704191 q 0,-1.601429 0.320285,-2.882573 0.320285,-1.281144 1.067625,-2.199297 0.747332,-0.918153 1.943068,-1.409258 1.195727,-0.491105 2.925272,-0.491105 1.366562,0 2.434179,0.213524 1.067616,0.234875 1.836306,0.512456 0.790038,0.277581 1.28114,0.491107 0.51246,0.234875 0.76869,0.234875 0.149468,0 0.256229,-0.08541 0.128111,-0.06406 0.192175,-0.213526 0.06402,-0.149466 0.08545,-0.427047 0.04268,-0.256229 0.04268,-0.640572 0,-0.277581 -0.02134,-0.491106 -0.02134,-0.192172 -0.06402,-0.362989 -0.02134,-0.149468 -0.106762,-0.277581 -0.06402,-0.128116 -0.192175,-0.256229 -0.106761,-0.106762 -0.683276,-0.384343 -0.576515,-0.25623 -1.494673,-0.512459 -0.918148,-0.25623 -2.135233,-0.448401 -1.195736,-0.213523 -2.562289,-0.213523 -2.370124,0 -4.163724,0.661924 -1.772242,0.661924 -2.989336,1.96442 -1.217085,1.302496 -1.836306,3.266918 -0.619221,1.964421 -0.619221,4.569415 0,2.476879 0.640579,4.441299 0.64057,1.985774 1.836306,3.352328 1.217085,1.387904 2.925272,2.113888 1.708195,0.747331 3.82208,0.747331 2.263353,0 3.843439,-0.725979 1.601425,-0.725982 2.626344,-1.964423 1.024919,-1.217086 1.494673,-2.882573 0.491101,-1.644136 0.491101,-3.523146 z m -3.544502,1.04627 q 0.06402,2.775812 -1.238442,4.355889 -1.28114,1.580077 -3.822072,1.580077 -1.302498,0 -2.28471,-0.491104 -0.982213,-0.491105 -1.644132,-1.302496 -0.661928,-0.811393 -1.024919,-1.900365 -0.362992,-1.067621 -0.405698,-2.242001 z"
       style="font-style:normal;font-variant:normal;font-weight:normal;font-stretch:normal;font-size:47.13282013px;line-height:1.25;font-family:Calibri;-inkscape-font-specification:Calibri;letter-spacing:0px;word-spacing:0px;fill:#000000;fill-opacity:1;stroke:none;stroke-width:1.09324288;stroke-linecap:round;stroke-linejoin:round"
       id="path7554" />
    <path
       inkscape:connector-curvature="0"
       d="m 89.280826,-67.676918 q 0,-0.469753 -0.02134,-0.79004 -0.02134,-0.320285 -0.08545,-0.512456 -0.06402,-0.17082 -0.170817,-0.277582 -0.08545,-0.08541 -0.25623,-0.08541 -0.170817,0 -0.427047,0.08541 -0.234881,0.106762 -0.555166,0.192171 -0.298927,0.106762 -0.683277,0.192172 -0.38434,0.08541 -0.832744,0.08541 -0.533809,0 -1.046259,-0.213523 -0.51246,-0.213523 -1.088975,-0.70463 -0.555166,-0.491104 -1.174387,-1.302496 -0.619221,-0.811392 -1.366553,-1.985772 v -12.640622 q 0,-0.17082 -0.08545,-0.298934 -0.08545,-0.106762 -0.277579,-0.192171 -0.192174,-0.08541 -0.533808,-0.128116 -0.341643,-0.04271 -0.875451,-0.04271 -0.51246,0 -0.854094,0.04271 -0.341643,0.04271 -0.555166,0.128116 -0.192175,0.08541 -0.277578,0.192171 -0.06402,0.128114 -0.06402,0.298934 v 19.217158 q 0,0.170819 0.06402,0.277581 0.06402,0.128113 0.25623,0.213523 0.192165,0.106762 0.491101,0.128114 0.298937,0.04271 0.790039,0.04271 0.469753,0 0.768689,-0.04271 0.320285,-0.02136 0.491102,-0.128114 0.170826,-0.08541 0.234881,-0.213523 0.08545,-0.106762 0.08545,-0.277581 v -2.797166 q 0.790029,1.153031 1.473315,1.879013 0.704625,0.725979 1.323846,1.131676 0.619222,0.427049 1.217085,0.576514 0.619222,0.17082 1.238434,0.17082 0.277587,0 0.619221,-0.04271 0.362992,-0.02136 0.747341,-0.106761 0.38434,-0.08541 0.683277,-0.192172 0.320285,-0.106762 0.448395,-0.213526 0.128119,-0.106761 0.170817,-0.213523 0.04268,-0.08541 0.06402,-0.234877 0.04268,-0.149466 0.04268,-0.448401 0.02134,-0.277582 0.02134,-0.768686 z"
       style="font-style:normal;font-variant:normal;font-weight:normal;font-stretch:normal;font-size:47.13282013px;line-height:1.25;font-family:Calibri;-inkscape-font-specification:Calibri;letter-spacing:0px;word-spacing:0px;fill:#000000;fill-opacity:1;stroke:none;stroke-width:1.09324288;stroke-linecap:round;stroke-linejoin:round"
       id="path7556" />
    <line
       x1="-83.321007"
       y1="-28.765022"
       x2="46.159679"
       y2="-28.765022"
       style="fill:none;fill-opacity:1;stroke:#000000;stroke-width:0.86650121;stroke-linecap:round;stroke-linejoin:round;stroke-opacity:1"
       id="line5490-2" />
  </g>
</svg>
