<?xml version="1.0" encoding="UTF-8"?>
<!-- 2020-10-26 15:35:42 Generated by QCAD 3.24.2 SVG Exporter PG -->
<svg width="210.25mm" height="210.25mm" viewBox="-105.125 -105.125 210.25 210.25" version="1.1" xmlns="http://www.w3.org/2000/svg" style="stroke-linecap:round;stroke-linejoin:round;fill:none">
    <g transform="scale(1,-1)">
        <!-- Schraffur -->
        <path d="M100,-85.5 L100,85.5 A14.5,14.5 0 0 1 85.5,100 L-85.5,100 A14.5,14.5 0 0 1 -100,85.5 L-100,-85.5 A14.5,14.5 0 0 1 -85.5,-100 L85.5,-100 A14.5,14.5 0 0 1 100,-85.5M-85.5,95 A9.5,9.5 0 0 1 -95,85.5 L-95,-85.5 A9.5,9.5 0 0 1 -85.5,-95 L85.5,-95 A9.5,9.5 0 0 1 95,-85.5 L95,85.5 A9.5,9.5 0 0 1 85.5,95 Z" style="fill:#000000;fill-rule:evenodd;"/>
        <!-- Kreisbogen -->
        <path d="M-26.3467,-4.9426 A33.7434,33.7434 0 0,1 -26.2621,-7.3316" style="stroke:#000000;stroke-width:0.25;"/>
        <!-- Kreisbogen -->
        <path d="M-26.2621,-7.3316 A21.1266,21.1266 0 0,1 -26.0438,-9.2104" style="stroke:#000000;stroke-width:0.25;"/>
        <!-- Kreisbogen -->
        <path d="M-26.0438,-9.2104 A15.6797,15.6797 0 0,1 -25.4545,-11.6222" style="stroke:#000000;stroke-width:0.25;"/>
        <!-- Kreisbogen -->
        <path d="M-25.4545,-11.6222 A8.1664,8.1664 0 0,1 -24.7094,-13.2517" style="stroke:#000000;stroke-width:0.25;"/>
        <!-- Kreisbogen -->
        <path d="M-24.7094,-13.2517 A6.89,6.89 0 0,1 -23.7816,-14.4716" style="stroke:#000000;stroke-width:0.25;"/>
        <!-- Kreisbogen -->
        <path d="M-23.7816,-14.4716 A4.8883,4.8883 0 0,1 -22.7751,-15.28" style="stroke:#000000;stroke-width:0.25;"/>
        <!-- Kreisbogen -->
        <path d="M-22.7751,-15.28 A4.6608,4.6608 0 0,1 -21.5475,-15.8001" style="stroke:#000000;stroke-width:0.25;"/>
        <!-- Kreisbogen -->
        <path d="M-21.5475,-15.8001 A5.7969,5.7969 0 0,1 -20.0728,-15.9908" style="stroke:#000000;stroke-width:0.25;"/>
        <!-- Kreisbogen -->
        <path d="M-20.0728,-15.9908 A4.6692,4.6692 0 0,1 -18.9948,-15.8647" style="stroke:#000000;stroke-width:0.25;"/>
        <!-- Kreisbogen -->
        <path d="M-18.9948,-15.8647 A6.4101,6.4101 0 0,1 -17.7926,-15.4497" style="stroke:#000000;stroke-width:0.25;"/>
        <!-- Kreisbogen -->
        <path d="M-17.7926,-15.4497 A7.9028,7.9028 0 0,1 -16.8595,-14.9412" style="stroke:#000000;stroke-width:0.25;"/>
        <!-- Kreisbogen -->
        <path d="M-16.8595,-14.9412 A11.8008,11.8008 0 0,1 -15.8035,-14.1852" style="stroke:#000000;stroke-width:0.25;"/>
        <!-- Kreisbogen -->
        <path d="M-15.8035,-14.1852 A16.7318,16.7318 0 0,1 -13.7344,-12.2108" style="stroke:#000000;stroke-width:0.25;"/>
        <!-- Kreisbogen -->
        <path d="M-13.7344,-12.2108 A37.8573,37.8573 0 0,1 -11.0751,-8.8294" style="stroke:#000000;stroke-width:0.25;"/>
        <!-- Linie -->
        <line x1="-11.0751" y1="-8.8294" x2="-11.0751" y2="5.4323" style="stroke:#000000;stroke-width:0.25;"/>
        <!-- Kreisbogen -->
        <path d="M-11.0751,5.4323 A12.9487,12.9487 0 0,1 -13.9826,6.3657" style="stroke:#000000;stroke-width:0.25;"/>
        <!-- Kreisbogen -->
        <path d="M-13.9826,6.3657 A15.8947,15.8947 0 0,1 -17.1348,6.6871" style="stroke:#000000;stroke-width:0.25;"/>
        <!-- Kreisbogen -->
        <path d="M-17.1348,6.6871 A11.9882,11.9882 0 0,1 -19.1786,6.5116" style="stroke:#000000;stroke-width:0.25;"/>
        <!-- Kreisbogen -->
        <path d="M-19.1786,6.5116 A8.5995,8.5995 0 0,1 -20.8518,6.044" style="stroke:#000000;stroke-width:0.25;"/>
        <!-- Kreisbogen -->
        <path d="M-20.8518,6.044 A7.7508,7.7508 0 0,1 -22.5075,5.1494" style="stroke:#000000;stroke-width:0.25;"/>
        <!-- Kreisbogen -->
        <path d="M-22.5075,5.1494 A7.9015,7.9015 0 0,1 -23.9137,3.8715" style="stroke:#000000;stroke-width:0.25;"/>
        <!-- Kreisbogen -->
        <path d="M-23.9137,3.8715 A7.5296,7.5296 0 0,1 -25.0286,2.1562" style="stroke:#000000;stroke-width:0.25;"/>
        <!-- Kreisbogen -->
        <path d="M-25.0286,2.1562 A12.2488,12.2488 0 0,1 -25.8825,-0.3094" style="stroke:#000000;stroke-width:0.25;"/>
        <!-- Kreisbogen -->
        <path d="M-25.8825,-0.3094 A16.2174,16.2174 0 0,1 -26.2165,-2.3372" style="stroke:#000000;stroke-width:0.25;"/>
        <!-- Kreisbogen -->
        <path d="M-26.2165,-2.3372 A26.1319,26.1319 0 0,1 -26.3467,-4.9426" style="stroke:#000000;stroke-width:0.25;"/>
        <!-- Kreisbogen -->
        <path d="M-31.7943,-5.2793 A25.4304,25.4304 0 0,0 -31.4986,-1.4124" style="stroke:#000000;stroke-width:0.25;"/>
        <!-- Kreisbogen -->
        <path d="M-31.4986,-1.4124 A17.2199,17.2199 0 0,0 -30.7232,1.6832" style="stroke:#000000;stroke-width:0.25;"/>
        <!-- Kreisbogen -->
        <path d="M-30.7232,1.6832 A14.3121,14.3121 0 0,0 -27.678,6.8248" style="stroke:#000000;stroke-width:0.25;"/>
        <!-- Kreisbogen -->
        <path d="M-27.678,6.8248 A12.8867,12.8867 0 0,0 -22.9344,10.0077" style="stroke:#000000;stroke-width:0.25;"/>
        <!-- Kreisbogen -->
        <path d="M-22.9344,10.0077 A16.7589,16.7589 0 0,0 -16.7676,11.0941" style="stroke:#000000;stroke-width:0.25;"/>
        <!-- Kreisbogen -->
        <path d="M-16.7676,11.0941 A22.5778,22.5778 0 0,0 -13.8754,10.9105" style="stroke:#000000;stroke-width:0.25;"/>
        <!-- Kreisbogen -->
        <path d="M-13.8754,10.9105 A18.6951,18.6951 0 0,0 -11.0751,10.329" style="stroke:#000000;stroke-width:0.25;"/>
        <!-- Linie -->
        <line x1="-11.0751" y1="10.329" x2="-11.0751" y2="23.2441" style="stroke:#000000;stroke-width:0.25;"/>
        <!-- Linie -->
        <line x1="-11.0751" y1="23.2441" x2="-5.7194" y2="23.2441" style="stroke:#000000;stroke-width:0.25;"/>
        <!-- Linie -->
        <line x1="-5.7194" y1="23.2441" x2="-5.7194" y2="-20" style="stroke:#000000;stroke-width:0.25;"/>
        <!-- Linie -->
        <line x1="-5.7194" y1="-20" x2="-10.4936" y2="-20" style="stroke:#000000;stroke-width:0.25;"/>
        <!-- Linie -->
        <line x1="-10.4936" y1="-20" x2="-10.6773" y2="-14.1852" style="stroke:#000000;stroke-width:0.25;"/>
        <!-- Kreisbogen -->
        <path d="M-10.6773,-14.1852 A20.9357,20.9357 0 0,0 -13.163,-17.1614" style="stroke:#000000;stroke-width:0.25;"/>
        <!-- Kreisbogen -->
        <path d="M-13.163,-17.1614 A12.3438,12.3438 0 0,0 -15.5128,-18.9901" style="stroke:#000000;stroke-width:0.25;"/>
        <!-- Kreisbogen -->
        <path d="M-15.5128,-18.9901 A10.7508,10.7508 0 0,0 -21.144,-20.5509" style="stroke:#000000;stroke-width:0.25;"/>
        <!-- Kreisbogen -->
        <path d="M-21.144,-20.5509 A9.4709,9.4709 0 0,0 -25.7806,-19.4491" style="stroke:#000000;stroke-width:0.25;"/>
        <!-- Kreisbogen -->
        <path d="M-25.7806,-19.4491 A9.4176,9.4176 0 0,0 -29.1164,-16.3428" style="stroke:#000000;stroke-width:0.25;"/>
        <!-- Kreisbogen -->
        <path d="M-29.1164,-16.3428 A14.9097,14.9097 0 0,0 -31.121,-11.5226" style="stroke:#000000;stroke-width:0.25;"/>
        <!-- Kreisbogen -->
        <path d="M-31.121,-11.5226 A26.8663,26.8663 0 0,0 -31.7943,-5.2793" style="stroke:#000000;stroke-width:0.25;"/>
        <!-- Kreisbogen -->
        <path d="M16.5533,23.6113 A4.2242,4.2242 0 0,0 18.206,23.29" style="stroke:#000000;stroke-width:0.25;"/>
        <!-- Kreisbogen -->
        <path d="M18.206,23.29 A3.9977,3.9977 0 0,0 19.5373,22.3871" style="stroke:#000000;stroke-width:0.25;"/>
        <!-- Kreisbogen -->
        <path d="M19.5373,22.3871 A4.3457,4.3457 0 0,0 20.4248,21.0559" style="stroke:#000000;stroke-width:0.25;"/>
        <!-- Kreisbogen -->
        <path d="M20.4248,21.0559 A4.1129,4.1129 0 0,0 20.7461,19.4185" style="stroke:#000000;stroke-width:0.25;"/>
        <!-- Kreisbogen -->
        <path d="M20.7461,19.4185 A4.1461,4.1461 0 0,0 20.4248,17.7965" style="stroke:#000000;stroke-width:0.25;"/>
        <!-- Kreisbogen -->
        <path d="M20.4248,17.7965 A4.2953,4.2953 0 0,0 19.5373,16.4499" style="stroke:#000000;stroke-width:0.25;"/>
        <!-- Kreisbogen -->
        <path d="M19.5373,16.4499 A3.9977,3.9977 0 0,0 18.206,15.5471" style="stroke:#000000;stroke-width:0.25;"/>
        <!-- Kreisbogen -->
        <path d="M18.206,15.5471 A4.2242,4.2242 0 0,0 16.5533,15.2257" style="stroke:#000000;stroke-width:0.25;"/>
        <!-- Kreisbogen -->
        <path d="M16.5533,15.2257 A4.2242,4.2242 0 0,0 14.9007,15.5471" style="stroke:#000000;stroke-width:0.25;"/>
        <!-- Kreisbogen -->
        <path d="M14.9007,15.5471 A3.9977,3.9977 0 0,0 13.5694,16.4499" style="stroke:#000000;stroke-width:0.25;"/>
        <!-- Kreisbogen -->
        <path d="M13.5694,16.4499 A4.2953,4.2953 0 0,0 12.6819,17.7965" style="stroke:#000000;stroke-width:0.25;"/>
        <!-- Kreisbogen -->
        <path d="M12.6819,17.7965 A4.1461,4.1461 0 0,0 12.3605,19.4185" style="stroke:#000000;stroke-width:0.25;"/>
        <!-- Kreisbogen -->
        <path d="M12.3605,19.4185 A4.1129,4.1129 0 0,0 12.6819,21.0559" style="stroke:#000000;stroke-width:0.25;"/>
        <!-- Kreisbogen -->
        <path d="M12.6819,21.0559 A4.3457,4.3457 0 0,0 13.5694,22.3871" style="stroke:#000000;stroke-width:0.25;"/>
        <!-- Kreisbogen -->
        <path d="M13.5694,22.3871 A3.9977,3.9977 0 0,0 14.9007,23.29" style="stroke:#000000;stroke-width:0.25;"/>
        <!-- Kreisbogen -->
        <path d="M14.9007,23.29 A4.2242,4.2242 0 0,0 16.5533,23.6113" style="stroke:#000000;stroke-width:0.25;"/>
        <!-- Linie -->
        <line x1="14.6865" y1="6.3198" x2="5.5969" y2="6.3198" style="stroke:#000000;stroke-width:0.25;"/>
        <!-- Linie -->
        <line x1="5.5969" y1="6.3198" x2="5.5969" y2="10.7269" style="stroke:#000000;stroke-width:0.25;"/>
        <!-- Linie -->
        <line x1="5.5969" y1="10.7269" x2="20.0728" y2="10.7269" style="stroke:#000000;stroke-width:0.25;"/>
        <!-- Linie -->
        <line x1="20.0728" y1="10.7269" x2="20.0728" y2="-15.5624" style="stroke:#000000;stroke-width:0.25;"/>
        <!-- Linie -->
        <line x1="20.0728" y1="-15.5624" x2="29.2236" y2="-15.5624" style="stroke:#000000;stroke-width:0.25;"/>
        <!-- Linie -->
        <line x1="29.2236" y1="-15.5624" x2="29.2236" y2="-20" style="stroke:#000000;stroke-width:0.25;"/>
        <!-- Linie -->
        <line x1="29.2236" y1="-20" x2="4.587" y2="-20" style="stroke:#000000;stroke-width:0.25;"/>
        <!-- Linie -->
        <line x1="4.587" y1="-20" x2="4.587" y2="-15.5624" style="stroke:#000000;stroke-width:0.25;"/>
        <!-- Linie -->
        <line x1="4.587" y1="-15.5624" x2="14.6865" y2="-15.5624" style="stroke:#000000;stroke-width:0.25;"/>
        <!-- Linie -->
        <line x1="14.6865" y1="-15.5624" x2="14.6865" y2="6.3198" style="stroke:#000000;stroke-width:0.25;"/>
        <!-- Kreisbogen -->
        <path d="M63.432,-19.5715 A25.9368,25.9368 0 0,0 59.6982,-20.2295" style="stroke:#000000;stroke-width:0.25;"/>
        <!-- Kreisbogen -->
        <path d="M59.6982,-20.2295 A38.1482,38.1482 0 0,0 55.7809,-20.4285" style="stroke:#000000;stroke-width:0.25;"/>
        <!-- Kreisbogen -->
        <path d="M55.7809,-20.4285 A22.6585,22.6585 0 0,0 53.2208,-20.2834" style="stroke:#000000;stroke-width:0.25;"/>
        <!-- Kreisbogen -->
        <path d="M53.2208,-20.2834 A14.4537,14.4537 0 0,0 51.2074,-19.9084" style="stroke:#000000;stroke-width:0.25;"/>
        <!-- Kreisbogen -->
        <path d="M51.2074,-19.9084 A11.3264,11.3264 0 0,0 48.8648,-19.0105" style="stroke:#000000;stroke-width:0.25;"/>
        <!-- Kreisbogen -->
        <path d="M48.8648,-19.0105 A7.8754,7.8754 0 0,0 47.1504,-17.8118" style="stroke:#000000;stroke-width:0.25;"/>
        <!-- Kreisbogen -->
        <path d="M47.1504,-17.8118 A7.4076,7.4076 0 0,0 45.8438,-16.2224" style="stroke:#000000;stroke-width:0.25;"/>
        <!-- Kreisbogen -->
        <path d="M45.8438,-16.2224 A9.3904,9.3904 0 0,0 44.8885,-14.1119" style="stroke:#000000;stroke-width:0.25;"/>
        <!-- Kreisbogen -->
        <path d="M44.8885,-14.1119 A11.6647,11.6647 0 0,0 44.4672,-12.2077" style="stroke:#000000;stroke-width:0.25;"/>
        <!-- Kreisbogen -->
        <path d="M44.4672,-12.2077 A18.1842,18.1842 0 0,0 44.3042,-9.7781" style="stroke:#000000;stroke-width:0.25;"/>
        <!-- Linie -->
        <line x1="44.3042" y1="-9.7781" x2="44.3042" y2="6.2586" style="stroke:#000000;stroke-width:0.25;"/>
        <!-- Linie -->
        <line x1="44.3042" y1="6.2586" x2="35.7044" y2="6.2586" style="stroke:#000000;stroke-width:0.25;"/>
        <!-- Linie -->
        <line x1="35.7044" y1="6.2586" x2="35.7044" y2="10.7269" style="stroke:#000000;stroke-width:0.25;"/>
        <!-- Linie -->
        <line x1="35.7044" y1="10.7269" x2="44.3042" y2="10.7269" style="stroke:#000000;stroke-width:0.25;"/>
        <!-- Linie -->
        <line x1="44.3042" y1="10.7269" x2="44.3042" y2="19.1737" style="stroke:#000000;stroke-width:0.25;"/>
        <!-- Linie -->
        <line x1="44.3042" y1="19.1737" x2="49.6294" y2="20.5509" style="stroke:#000000;stroke-width:0.25;"/>
        <!-- Linie -->
        <line x1="49.6294" y1="20.5509" x2="49.6294" y2="10.7269" style="stroke:#000000;stroke-width:0.25;"/>
        <!-- Linie -->
        <line x1="49.6294" y1="10.7269" x2="63.432" y2="10.7269" style="stroke:#000000;stroke-width:0.25;"/>
        <!-- Linie -->
        <line x1="63.432" y1="10.7269" x2="63.432" y2="6.2586" style="stroke:#000000;stroke-width:0.25;"/>
        <!-- Linie -->
        <line x1="63.432" y1="6.2586" x2="49.6294" y2="6.2586" style="stroke:#000000;stroke-width:0.25;"/>
        <!-- Linie -->
        <line x1="49.6294" y1="6.2586" x2="49.6294" y2="-9.3497" style="stroke:#000000;stroke-width:0.25;"/>
        <!-- Kreisbogen -->
        <path d="M49.6294,-9.3497 A10.976,10.976 0 0,1 49.7311,-10.8405" style="stroke:#000000;stroke-width:0.25;"/>
        <!-- Kreisbogen -->
        <path d="M49.7311,-10.8405 A7.1361,7.1361 0 0,1 49.9949,-12.0161" style="stroke:#000000;stroke-width:0.25;"/>
        <!-- Kreisbogen -->
        <path d="M49.9949,-12.0161 A5.8159,5.8159 0 0,1 50.5824,-13.3058" style="stroke:#000000;stroke-width:0.25;"/>
        <!-- Kreisbogen -->
        <path d="M50.5824,-13.3058 A4.7021,4.7021 0 0,1 51.3891,-14.2923" style="stroke:#000000;stroke-width:0.25;"/>
        <!-- Kreisbogen -->
        <path d="M51.3891,-14.2923 A5.0203,5.0203 0 0,1 52.4367,-15.0414" style="stroke:#000000;stroke-width:0.25;"/>
        <!-- Kreisbogen -->
        <path d="M52.4367,-15.0414 A6.7172,6.7172 0 0,1 53.8195,-15.5953" style="stroke:#000000;stroke-width:0.25;"/>
        <!-- Kreisbogen -->
        <path d="M53.8195,-15.5953 A8.3457,8.3457 0 0,1 55.0404,-15.8368" style="stroke:#000000;stroke-width:0.25;"/>
        <!-- Kreisbogen -->
        <path d="M55.0404,-15.8368 A12.7626,12.7626 0 0,1 56.5766,-15.9296" style="stroke:#000000;stroke-width:0.25;"/>
        <!-- Kreisbogen -->
        <path d="M56.5766,-15.9296 A24.7673,24.7673 0 0,1 59.7901,-15.7001" style="stroke:#000000;stroke-width:0.25;"/>
        <!-- Kreisbogen -->
        <path d="M59.7901,-15.7001 A30.5537,30.5537 0 0,1 63.432,-14.9809" style="stroke:#000000;stroke-width:0.25;"/>
        <!-- Linie -->
        <line x1="63.432" y1="-14.9809" x2="63.432" y2="-19.5715" style="stroke:#000000;stroke-width:0.25;"/>
        <!-- Linie -->
        <line x1="-40.6929" y1="-20" x2="-63.432" y2="-20" style="stroke:#000000;stroke-width:0.25;"/>
        <!-- Linie -->
        <line x1="-63.432" y1="-20" x2="-63.432" y2="20" style="stroke:#000000;stroke-width:0.25;"/>
        <!-- Linie -->
        <line x1="-63.432" y1="20" x2="-40.6929" y2="20" style="stroke:#000000;stroke-width:0.25;"/>
        <!-- Linie -->
        <line x1="-40.6929" y1="20" x2="-40.6929" y2="15.4093" style="stroke:#000000;stroke-width:0.25;"/>
        <!-- Linie -->
        <line x1="-40.6929" y1="15.4093" x2="-57.9844" y2="15.4093" style="stroke:#000000;stroke-width:0.25;"/>
        <!-- Linie -->
        <line x1="-57.9844" y1="15.4093" x2="-57.9844" y2="3.0145" style="stroke:#000000;stroke-width:0.25;"/>
        <!-- Linie -->
        <line x1="-57.9844" y1="3.0145" x2="-41.3662" y2="3.0145" style="stroke:#000000;stroke-width:0.25;"/>
        <!-- Linie -->
        <line x1="-41.3662" y1="3.0145" x2="-41.3662" y2="-1.5761" style="stroke:#000000;stroke-width:0.25;"/>
        <!-- Linie -->
        <line x1="-41.3662" y1="-1.5761" x2="-57.9844" y2="-1.5761" style="stroke:#000000;stroke-width:0.25;"/>
        <!-- Linie -->
        <line x1="-57.9844" y1="-1.5761" x2="-57.9844" y2="-15.3481" style="stroke:#000000;stroke-width:0.25;"/>
        <!-- Linie -->
        <line x1="-57.9844" y1="-15.3481" x2="-40.6929" y2="-15.3481" style="stroke:#000000;stroke-width:0.25;"/>
        <!-- Linie -->
        <line x1="-40.6929" y1="-15.3481" x2="-40.6929" y2="-20" style="stroke:#000000;stroke-width:0.25;"/>
        <!-- Schraffur -->
        <path d="M55.7809,-20.4285 A22.6585,22.6585 0 0 0 53.2208,-20.2834 A14.4537,14.4537 0 0 0 51.2074,-19.9084 A11.3264,11.3264 0 0 0 48.8648,-19.0105 A7.87537,7.87537 0 0 0 47.1504,-17.8118 A7.4076,7.4076 0 0 0 45.8438,-16.2224 A9.39042,9.39042 0 0 0 44.8885,-14.1119 A11.6647,11.6647 0 0 0 44.4672,-12.2077 A18.1842,18.1842 0 0 0 44.3042,-9.7781 L44.3042,6.2586 L35.7044,6.2586 L35.7044,10.7269 L44.3042,10.7269 L44.3042,19.1737 L49.6294,20.5509 L49.6294,10.7269 L63.432,10.7269 L63.432,6.2586 L49.6294,6.2586 L49.6294,-9.3497 A10.976,10.976 0 0 1 49.7311,-10.8405 A7.13609,7.13609 0 0 1 49.9949,-12.0161 A5.81591,5.81591 0 0 1 50.5824,-13.3058 A4.70211,4.70211 0 0 1 51.3891,-14.2923 A5.02034,5.02034 0 0 1 52.4367,-15.0414 A6.71715,6.71715 0 0 1 53.8195,-15.5953 A8.34574,8.34574 0 0 1 55.0404,-15.8368 A12.7626,12.7626 0 0 1 56.5766,-15.9296 A24.7673,24.7673 0 0 1 59.7901,-15.7001 A30.5537,30.5537 0 0 1 63.432,-14.9809 L63.432,-19.5715 A25.9368,25.9368 0 0 0 59.6982,-20.2295 A38.1482,38.1482 0 0 0 55.7809,-20.4285M14.6865,6.3198 L5.5969,6.3198 L5.5969,10.7269 L20.0728,10.7269 L20.0728,-15.5624 L29.2236,-15.5624 L29.2236,-20 L4.587,-20 L4.587,-15.5624 L14.6865,-15.5624 ZM14.9007,23.29 A4.22416,4.22416 0 0 0 16.5533,23.6113 A4.22416,4.22416 0 0 0 18.206,23.29 A3.99767,3.99767 0 0 0 19.5373,22.3871 A4.34574,4.34574 0 0 0 20.4248,21.0559 A4.11292,4.11292 0 0 0 20.7461,19.4185 A4.14608,4.14608 0 0 0 20.4248,17.7965 A4.29533,4.29533 0 0 0 19.5373,16.4499 A3.99767,3.99767 0 0 0 18.206,15.5471 A4.22416,4.22416 0 0 0 16.5533,15.2257 A4.22416,4.22416 0 0 0 14.9007,15.5471 A3.99767,3.99767 0 0 0 13.5694,16.4499 A4.29533,4.29533 0 0 0 12.6819,17.7965 A4.14608,4.14608 0 0 0 12.3605,19.4185 A4.11292,4.11292 0 0 0 12.6819,21.0559 A4.34574,4.34574 0 0 0 13.5694,22.3871 A3.99767,3.99767 0 0 0 14.9007,23.29M-31.121,-11.5226 A26.8663,26.8663 0 0 0 -31.7943,-5.2793 A25.4304,25.4304 0 0 0 -31.4986,-1.4124 A17.2199,17.2199 0 0 0 -30.7232,1.6832 A14.3121,14.3121 0 0 0 -27.678,6.8248 A12.8867,12.8867 0 0 0 -22.9344,10.0077 A16.7589,16.7589 0 0 0 -16.7676,11.0941 A22.5778,22.5778 0 0 0 -13.8754,10.9105 A18.6951,18.6951 0 0 0 -11.0751,10.329 L-11.0751,23.2441 L-5.7194,23.2441 L-5.7194,-20 L-10.4936,-20 L-10.6773,-14.1852 A20.9357,20.9357 0 0 0 -13.163,-17.1614 A12.3438,12.3438 0 0 0 -15.5128,-18.9901 A10.7508,10.7508 0 0 0 -21.144,-20.5509 A9.47088,9.47088 0 0 0 -25.7806,-19.4491 A9.41762,9.41762 0 0 0 -29.1164,-16.3428 A14.9097,14.9097 0 0 0 -31.121,-11.5226M-22.5075,5.1494 A7.90148,7.90148 0 0 1 -23.9137,3.8715 A7.52963,7.52963 0 0 1 -25.0286,2.1562 A12.2488,12.2488 0 0 1 -25.8825,-0.3094 A16.2174,16.2174 0 0 1 -26.2165,-2.3372 A26.1319,26.1319 0 0 1 -26.3467,-4.9426 A33.7434,33.7434 0 0 1 -26.2621,-7.3316 A21.1266,21.1266 0 0 1 -26.0438,-9.2104 A15.6797,15.6797 0 0 1 -25.4545,-11.6222 A8.1664,8.1664 0 0 1 -24.7094,-13.2517 A6.89003,6.89003 0 0 1 -23.7816,-14.4716 A4.88825,4.88825 0 0 1 -22.7751,-15.28 A4.66084,4.66084 0 0 1 -21.5475,-15.8001 A5.79689,5.79689 0 0 1 -20.0728,-15.9908 A4.66922,4.66922 0 0 1 -18.9948,-15.8647 A6.41006,6.41006 0 0 1 -17.7926,-15.4497 A7.90279,7.90279 0 0 1 -16.8595,-14.9412 A11.8008,11.8008 0 0 1 -15.8035,-14.1852 A16.7318,16.7318 0 0 1 -13.7344,-12.2108 A37.8573,37.8573 0 0 1 -11.0751,-8.8294 L-11.0751,5.4323 A12.9487,12.9487 0 0 1 -13.9826,6.3657 A15.8947,15.8947 0 0 1 -17.1348,6.6871 A11.9882,11.9882 0 0 1 -19.1786,6.5116 A8.5995,8.5995 0 0 1 -20.8518,6.044 A7.75078,7.75078 0 0 1 -22.5075,5.1494M-57.9844,3.0145 L-41.3662,3.0145 L-41.3662,-1.5761 L-57.9844,-1.5761 L-57.9844,-15.3481 L-40.6929,-15.3481 L-40.6929,-20 L-63.432,-20 L-63.432,20 L-40.6929,20 L-40.6929,15.4093 L-57.9844,15.4093 Z" style="fill:#000000;fill-rule:evenodd;"/>
    </g>
</svg>
