<?xml version="1.0" encoding="UTF-8" standalone="no"?>
<!-- 2020-10-27 00:01:39 Generated by QCAD 3.24.2 SVG Exporter PG -->

<svg
   xmlns:dc="http://purl.org/dc/elements/1.1/"
   xmlns:cc="http://creativecommons.org/ns#"
   xmlns:rdf="http://www.w3.org/1999/02/22-rdf-syntax-ns#"
   xmlns:svg="http://www.w3.org/2000/svg"
   xmlns="http://www.w3.org/2000/svg"
   xmlns:sodipodi="http://sodipodi.sourceforge.net/DTD/sodipodi-0.dtd"
   xmlns:inkscape="http://www.inkscape.org/namespaces/inkscape"
   width="210.25mm"
   height="210.25mm"
   viewBox="-105.125 -105.125 210.25 210.25"
   version="1.1"
   style="stroke-linecap:round;stroke-linejoin:round;fill:none"
   id="svg48"
   sodipodi:docname="estop.svg"
   inkscape:version="0.92.5 (2060ec1f9f, 2020-04-08)">
  <metadata
     id="metadata54">
    <rdf:RDF>
      <cc:Work
         rdf:about="">
        <dc:format>image/svg+xml</dc:format>
        <dc:type
           rdf:resource="http://purl.org/dc/dcmitype/StillImage" />
        <dc:title></dc:title>
      </cc:Work>
    </rdf:RDF>
  </metadata>
  <defs
     id="defs52" />
  <sodipodi:namedview
     pagecolor="#ffffff"
     bordercolor="#666666"
     borderopacity="1"
     objecttolerance="10"
     gridtolerance="10"
     guidetolerance="10"
     inkscape:pageopacity="0"
     inkscape:pageshadow="2"
     inkscape:window-width="1079"
     inkscape:window-height="738"
     id="namedview50"
     showgrid="false"
     inkscape:zoom="0.29698771"
     inkscape:cx="397.32283"
     inkscape:cy="397.32283"
     inkscape:window-x="549"
     inkscape:window-y="384"
     inkscape:window-maximized="0"
     inkscape:current-layer="g46" />
  <g
     transform="scale(1,-1)"
     id="g46">
    <!-- Schraffur -->
    <path
       d="M100,-85.5 L100,85.5 A14.5,14.5 0 0 1 85.5,100 L-85.5,100 A14.5,14.5 0 0 1 -100,85.5 L-100,-85.5 A14.5,14.5 0 0 1 -85.5,-100 L85.5,-100 A14.5,14.5 0 0 1 100,-85.5M-85.5,95 A9.5,9.5 0 0 1 -95,85.5 L-95,-85.5 A9.5,9.5 0 0 1 -85.5,-95 L85.5,-95 A9.5,9.5 0 0 1 95,-85.5 L95,85.5 A9.5,9.5 0 0 1 85.5,95 Z"
       style="fill:#fffff0;fill-rule:evenodd;fill-opacity:1"
       id="path2" />
    <!-- Linie -->
    <line
       x1="9.8995"
       y1="0"
       x2="41.3657"
       y2="31.4663"
       style="stroke:#800000;stroke-width:0.25;"
       id="line4" />
    <!-- Kreisbogen -->
    <path
       d="M41.3657,31.4663 A3.5,3.5 0 0,1 41.3657,36.416"
       style="stroke:#800000;stroke-width:0.25;"
       id="path6" />
    <!-- Linie -->
    <line
       x1="41.3657"
       y1="36.416"
       x2="36.416"
       y2="41.3657"
       style="stroke:#800000;stroke-width:0.25;"
       id="line8" />
    <!-- Kreisbogen -->
    <path
       d="M36.416,41.3657 A3.5,3.5 0 0,1 31.4663,41.3657"
       style="stroke:#800000;stroke-width:0.25;"
       id="path10" />
    <!-- Linie -->
    <line
       x1="31.4663"
       y1="41.3657"
       x2="0"
       y2="9.8995"
       style="stroke:#800000;stroke-width:0.25;"
       id="line12" />
    <!-- Linie -->
    <line
       x1="-9.8995"
       y1="0"
       x2="-41.3657"
       y2="-31.4663"
       style="stroke:#800000;stroke-width:0.25;"
       id="line14" />
    <!-- Kreisbogen -->
    <path
       d="M-41.3657,-31.4663 A3.5,3.5 0 0,1 -41.3657,-36.416"
       style="stroke:#800000;stroke-width:0.25;"
       id="path16" />
    <!-- Linie -->
    <line
       x1="-41.3657"
       y1="-36.416"
       x2="-36.416"
       y2="-41.3657"
       style="stroke:#800000;stroke-width:0.25;"
       id="line18" />
    <!-- Kreisbogen -->
    <path
       d="M-36.416,-41.3657 A3.5,3.5 0 0,1 -31.4663,-41.3657"
       style="stroke:#800000;stroke-width:0.25;"
       id="path20" />
    <!-- Linie -->
    <line
       x1="-31.4663"
       y1="-41.3657"
       x2="0"
       y2="-9.8995"
       style="stroke:#800000;stroke-width:0.25;"
       id="line22" />
    <!-- Linie -->
    <line
       x1="0"
       y1="9.8995"
       x2="-31.4663"
       y2="41.3657"
       style="stroke:#800000;stroke-width:0.25;"
       id="line24" />
    <!-- Kreisbogen -->
    <path
       d="M-31.4663,41.3657 A3.5,3.5 0 0,1 -36.416,41.3657"
       style="stroke:#800000;stroke-width:0.25;"
       id="path26" />
    <!-- Linie -->
    <line
       x1="-36.416"
       y1="41.3657"
       x2="-41.3657"
       y2="36.416"
       style="stroke:#800000;stroke-width:0.25;"
       id="line28" />
    <!-- Kreisbogen -->
    <path
       d="M-41.3657,36.416 A3.5,3.5 0 0,1 -41.3657,31.4663"
       style="stroke:#800000;stroke-width:0.25;"
       id="path30" />
    <!-- Linie -->
    <line
       x1="-41.3657"
       y1="31.4663"
       x2="-9.8995"
       y2="0"
       style="stroke:#800000;stroke-width:0.25;"
       id="line32" />
    <!-- Linie -->
    <line
       x1="0"
       y1="-9.8995"
       x2="31.4663"
       y2="-41.3657"
       style="stroke:#800000;stroke-width:0.25;"
       id="line34" />
    <!-- Kreisbogen -->
    <path
       d="M31.4663,-41.3657 A3.5,3.5 0 0,1 36.416,-41.3657"
       style="stroke:#800000;stroke-width:0.25;"
       id="path36" />
    <!-- Linie -->
    <line
       x1="36.416"
       y1="-41.3657"
       x2="41.3657"
       y2="-36.416"
       style="stroke:#800000;stroke-width:0.25;"
       id="line38" />
    <!-- Kreisbogen -->
    <path
       d="M41.3657,-36.416 A3.5,3.5 0 0,1 41.3657,-31.4663"
       style="stroke:#800000;stroke-width:0.25;"
       id="path40" />
    <!-- Linie -->
    <line
       x1="41.3657"
       y1="-31.4663"
       x2="9.8995"
       y2="0"
       style="stroke:#800000;stroke-width:0.25;"
       id="line42" />
    <!-- Schraffur -->
    <path
       d="M-9.8995,0 L-41.3657,-31.4663 A3.5,3.5 0 0 1 -41.3657,-36.416 L-36.416,-41.3657 A3.5,3.5 0 0 1 -31.4663,-41.3657 L0,-9.8995 L31.4663,-41.3657 A3.5,3.5 0 0 1 36.416,-41.3657 L41.3657,-36.416 A3.5,3.5 0 0 1 41.3657,-31.4663 L9.8995,0 L41.3657,31.4663 A3.5,3.5 0 0 1 41.3657,36.416 L36.416,41.3657 A3.5,3.5 0 0 1 31.4663,41.3657 L0,9.8995 L-31.4663,41.3657 A3.5,3.5 0 0 1 -36.416,41.3657 L-41.3657,36.416 A3.5,3.5 0 0 1 -41.3657,31.4663 ZM49.4975,49.4975 A70,70 0 0 1 -49.4975,-49.4975 A70,70 0 0 1 49.4975,49.4975"
       style="fill:#ff0000;fill-rule:evenodd;"
       id="path44" />
  </g>
</svg>
