<?xml version="1.0" encoding="UTF-8" standalone="no"?>
<!-- 2020-10-26 15:35:09 Generated by QCAD 3.24.2 SVG Exporter PG -->

<svg
   xmlns:dc="http://purl.org/dc/elements/1.1/"
   xmlns:cc="http://creativecommons.org/ns#"
   xmlns:rdf="http://www.w3.org/1999/02/22-rdf-syntax-ns#"
   xmlns:svg="http://www.w3.org/2000/svg"
   xmlns="http://www.w3.org/2000/svg"
   xmlns:sodipodi="http://sodipodi.sourceforge.net/DTD/sodipodi-0.dtd"
   xmlns:inkscape="http://www.inkscape.org/namespaces/inkscape"
   width="210.25mm"
   height="210.25mm"
   viewBox="-105.125 -105.125 210.25 210.25"
   version="1.1"
   style="stroke-linecap:round;stroke-linejoin:round;fill:none"
   id="svg194"
   sodipodi:docname="flood.svg"
   inkscape:version="0.92.5 (2060ec1f9f, 2020-04-08)">
  <metadata
     id="metadata200">
    <rdf:RDF>
      <cc:Work
         rdf:about="">
        <dc:format>image/svg+xml</dc:format>
        <dc:type
           rdf:resource="http://purl.org/dc/dcmitype/StillImage" />
        <dc:title></dc:title>
      </cc:Work>
    </rdf:RDF>
  </metadata>
  <defs
     id="defs198" />
  <sodipodi:namedview
     pagecolor="#ffffff"
     bordercolor="#666666"
     borderopacity="1"
     objecttolerance="10"
     gridtolerance="10"
     guidetolerance="10"
     inkscape:pageopacity="0"
     inkscape:pageshadow="2"
     inkscape:window-width="989"
     inkscape:window-height="622"
     id="namedview196"
     showgrid="false"
     inkscape:zoom="0.29698771"
     inkscape:cx="397.32283"
     inkscape:cy="397.32283"
     inkscape:window-x="0"
     inkscape:window-y="0"
     inkscape:window-maximized="0"
     inkscape:current-layer="text4712" />
  <g
     transform="scale(1,-1)"
     id="g192">
    <!-- Schraffur -->
    <path
       d="M100,-85.5 L100,85.5 A14.5,14.5 0 0 1 85.5,100 L-85.5,100 A14.5,14.5 0 0 1 -100,85.5 L-100,-85.5 A14.5,14.5 0 0 1 -85.5,-100 L85.5,-100 A14.5,14.5 0 0 1 100,-85.5M-85.5,95 A9.5,9.5 0 0 1 -95,85.5 L-95,-85.5 A9.5,9.5 0 0 1 -85.5,-95 L85.5,-95 A9.5,9.5 0 0 1 95,-85.5 L95,85.5 A9.5,9.5 0 0 1 85.5,95 Z"
       style="fill:#000000;fill-rule:evenodd;"
       id="path2" />
    <!-- Kreisbogen -->
    <!-- Kreisbogen -->
    <!-- Kreisbogen -->
    <!-- Kreisbogen -->
    <!-- Kreisbogen -->
    <!-- Kreisbogen -->
    <!-- Kreisbogen -->
    <!-- Kreisbogen -->
    <!-- Kreisbogen -->
    <!-- Linie -->
    <!-- Kreisbogen -->
    <!-- Kreisbogen -->
    <!-- Kreisbogen -->
    <!-- Kreisbogen -->
    <!-- Kreisbogen -->
    <!-- Kreisbogen -->
    <!-- Kreisbogen -->
    <!-- Kreisbogen -->
    <!-- Kreisbogen -->
    <!-- Kreisbogen -->
    <!-- Kreisbogen -->
    <!-- Kreisbogen -->
    <!-- Kreisbogen -->
    <!-- Kreisbogen -->
    <!-- Kreisbogen -->
    <!-- Kreisbogen -->
    <!-- Kreisbogen -->
    <!-- Kreisbogen -->
    <!-- Kreisbogen -->
    <!-- Kreisbogen -->
    <!-- Kreisbogen -->
    <!-- Kreisbogen -->
    <!-- Kreisbogen -->
    <!-- Kreisbogen -->
    <!-- Kreisbogen -->
    <!-- Linie -->
    <!-- Kreisbogen -->
    <!-- Kreisbogen -->
    <!-- Kreisbogen -->
    <!-- Kreisbogen -->
    <!-- Kreisbogen -->
    <!-- Kreisbogen -->
    <!-- Kreisbogen -->
    <!-- Kreisbogen -->
    <!-- Kreisbogen -->
    <!-- Kreisbogen -->
    <!-- Kreisbogen -->
    <!-- Kreisbogen -->
    <!-- Kreisbogen -->
    <!-- Kreisbogen -->
    <!-- Kreisbogen -->
    <!-- Kreisbogen -->
    <!-- Kreisbogen -->
    <!-- Kreisbogen -->
    <!-- Kreisbogen -->
    <!-- Linie -->
    <!-- Linie -->
    <!-- Linie -->
    <!-- Linie -->
    <!-- Linie -->
    <!-- Linie -->
    <!-- Linie -->
    <!-- Linie -->
    <!-- Linie -->
    <!-- Linie -->
    <!-- Linie -->
    <!-- Linie -->
    <!-- Linie -->
    <!-- Linie -->
    <!-- Linie -->
    <!-- Linie -->
    <!-- Linie -->
    <!-- Linie -->
    <!-- Linie -->
    <!-- Linie -->
    <!-- Linie -->
    <!-- Linie -->
    <!-- Linie -->
    <!-- Linie -->
    <!-- Linie -->
    <!-- Linie -->
    <!-- Linie -->
    <!-- Linie -->
    <!-- Linie -->
    <!-- Linie -->
    <!-- Linie -->
    <!-- Linie -->
    <!-- Linie -->
    <!-- Linie -->
    <!-- Linie -->
    <!-- Linie -->
    <!-- Linie -->
    <!-- Linie -->
    <!-- Schraffur -->
    <g
       aria-label="Flood"
       transform="scale(1,-1)"
       style="font-style:normal;font-weight:normal;font-size:59.97222137px;line-height:1.25;font-family:sans-serif;letter-spacing:0px;word-spacing:0px;fill:#000000;fill-opacity:1;stroke:none;stroke-width:0.26458332"
       id="text4712">
      <path
         d="m -57.625196,-16.46057 h -20.059069 v 8.1114773 h 18.594903 V 0.08450089 H -77.684265 V 18.708687 h -11.186224 v -43.602851 h 31.245293 z"
         style="font-style:normal;font-variant:normal;font-weight:bold;font-stretch:normal;font-family:sans-serif;-inkscape-font-specification:'sans-serif Bold';stroke-width:0.26458332"
         id="path4714" />
      <path
         d="m -39.908793,18.708687 h -10.541992 v -45.564832 h 10.541992 z"
         style="font-style:normal;font-variant:normal;font-weight:bold;font-stretch:normal;font-family:sans-serif;-inkscape-font-specification:'sans-serif Bold';stroke-width:0.26458332"
         id="path4716" />
      <path
         d="m 3.6647745,2.2807492 q 0,8.1114768 -4.7438965,12.7968068 -4.7146131,4.656047 -13.26534,4.656047 -8.550727,0 -13.294623,-4.656047 -4.714613,-4.68533 -4.714613,-12.7968068 0,-8.1700438 4.743896,-12.8260902 4.77318,-4.656047 13.26534,-4.656047 8.6092936,0 13.2946233,4.68533 4.7146132,4.68533 4.7146132,12.7968072 z M -9.3077324,10.275093 q 1.0249159,-1.2591822 1.5227322,-3.0161809 0.5270996,-1.7862819 0.5270996,-4.9195962 0,-2.89904785 -0.5270996,-4.8610297 -0.5270996,-1.9619819 -1.4641656,-3.1333143 -0.9370662,-1.2006158 -2.2548152,-1.6984321 -1.317749,-0.4978162 -2.840481,-0.4978162 -1.522732,0 -2.723348,0.4099663 -1.171332,0.4099664 -2.254815,1.6398654 -0.966349,1.1420492 -1.552015,3.1333143 -0.556383,1.9912652 -0.556383,5.0074463 0,2.6940646 0.497816,4.6853298 0.497816,1.9619818 1.464166,3.1625973 0.937066,1.142049 2.225531,1.669149 1.317749,0.5271 2.986898,0.5271 1.434882,0 2.723348,-0.468533 1.317749,-0.497817 2.2255316,-1.639866 z"
         style="font-style:normal;font-variant:normal;font-weight:bold;font-stretch:normal;font-family:sans-serif;-inkscape-font-specification:'sans-serif Bold';stroke-width:0.26458332"
         id="path4718" />
      <path
         d="m 44.895674,2.2807492 q 0,8.1114768 -4.743896,12.7968068 -4.714613,4.656047 -13.26534,4.656047 -8.550727,0 -13.294623,-4.656047 -4.7146135,-4.68533 -4.7146135,-12.7968068 0,-8.1700438 4.7438965,-12.8260902 4.77318,-4.656047 13.26534,-4.656047 8.609293,0 13.294623,4.68533 4.714613,4.68533 4.714613,12.7968072 z M 31.923167,10.275093 q 1.024916,-1.2591822 1.522733,-3.0161809 0.527099,-1.7862819 0.527099,-4.9195962 0,-2.89904785 -0.527099,-4.8610297 -0.5271,-1.9619819 -1.464166,-3.1333143 -0.937066,-1.2006158 -2.254815,-1.6984321 -1.317749,-0.4978162 -2.840481,-0.4978162 -1.522732,0 -2.723348,0.4099663 -1.171333,0.4099664 -2.254815,1.6398654 -0.966349,1.1420492 -1.552016,3.1333143 -0.556382,1.9912652 -0.556382,5.0074463 0,2.6940646 0.497816,4.6853298 0.497816,1.9619818 1.464165,3.1625973 0.937066,1.142049 2.225532,1.669149 1.317749,0.5271 2.986898,0.5271 1.434882,0 2.723348,-0.468533 1.317749,-0.497817 2.225531,-1.639866 z"
         style="font-style:normal;font-variant:normal;font-weight:bold;font-stretch:normal;font-family:sans-serif;-inkscape-font-specification:'sans-serif Bold';stroke-width:0.26458332"
         id="path4720" />
      <path
         d="M 84.48672,18.708687 H 73.944728 v -3.426148 q -2.723348,2.225532 -5.095296,3.279731 -2.371948,1.054199 -5.475979,1.054199 -6.003079,0 -9.604926,-4.626763 -3.601848,-4.626763 -3.601848,-12.4746903 0,-4.1875135 1.200616,-7.4086777 1.229899,-3.2504476 3.338298,-5.563829 1.991265,-2.196248 4.831746,-3.396864 2.840481,-1.229899 5.680962,-1.229899 2.957615,0 4.831747,0.644233 1.903415,0.614949 3.89468,1.581298 V -26.856145 H 84.48672 Z M 73.944728,9.6308604 V -6.5042441 q -1.112766,-0.468533 -2.342665,-0.6735162 -1.229899,-0.2049832 -2.254815,-0.2049832 -4.15823,0 -6.237345,2.6062147 -2.079115,2.5769314 -2.079115,7.1744113 0,4.8317463 1.669149,7.0279947 1.669148,2.1669648 5.358845,2.1669648 1.434883,0 3.045465,-0.527099 1.610582,-0.556383 2.840481,-1.4348826 z"
         style="font-style:normal;font-variant:normal;font-weight:bold;font-stretch:normal;font-family:sans-serif;-inkscape-font-specification:'sans-serif Bold';stroke-width:0.26458332"
         id="path4722" />
    </g>
  </g>
</svg>
