<?xml version="1.0" encoding="UTF-8"?>
<!-- 2020-10-26 18:17:07 Generated by QCAD 3.24.2 SVG Exporter PG -->
<svg width="210.25mm" height="210.25mm" viewBox="-105.125 -105.125 210.25 210.25" version="1.1" xmlns="http://www.w3.org/2000/svg" style="stroke-linecap:round;stroke-linejoin:round;fill:none">
    <g transform="scale(1,-1)">
        <!-- Schraffur -->
        <path d="M100,-85.5 L100,85.5 A14.5,14.5 0 0 1 85.5,100 L-85.5,100 A14.5,14.5 0 0 1 -100,85.5 L-100,-85.5 A14.5,14.5 0 0 1 -85.5,-100 L85.5,-100 A14.5,14.5 0 0 1 100,-85.5M-85.5,95 A9.5,9.5 0 0 1 -95,85.5 L-95,-85.5 A9.5,9.5 0 0 1 -85.5,-95 L85.5,-95 A9.5,9.5 0 0 1 95,-85.5 L95,85.5 A9.5,9.5 0 0 1 85.5,95 Z" style="fill:#000000;fill-rule:evenodd;"/>
        <!-- Kreisbogen -->
        <path d="M12.4101,-7.2073 A11.4734,11.4734 0 0,0 11.1247,-12.6243" style="stroke:#000000;stroke-width:0.25;"/>
        <!-- Kreisbogen -->
        <path d="M11.1247,-12.6243 A12.933,12.933 0 0,0 7.5899,-16.8324" style="stroke:#000000;stroke-width:0.25;"/>
        <!-- Kreisbogen -->
        <path d="M7.5899,-16.8324 A16.8713,16.8713 0 0,0 2.28,-19.5715" style="stroke:#000000;stroke-width:0.25;"/>
        <!-- Kreisbogen -->
        <path d="M2.28,-19.5715 A21.5758,21.5758 0 0,0 -4.3305,-20.5509" style="stroke:#000000;stroke-width:0.25;"/>
        <!-- Kreisbogen -->
        <path d="M-4.3305,-20.5509 A42.9272,42.9272 0 0,0 -6.2433,-20.505" style="stroke:#000000;stroke-width:0.25;"/>
        <!-- Kreisbogen -->
        <path d="M-6.2433,-20.505 A66.0545,66.0545 0 0,0 -8.2785,-20.3826" style="stroke:#000000;stroke-width:0.25;"/>
        <!-- Kreisbogen -->
        <path d="M-8.2785,-20.3826 A102.4834,102.4834 0 0,0 -10.2525,-20.2142" style="stroke:#000000;stroke-width:0.25;"/>
        <!-- Kreisbogen -->
        <path d="M-10.2525,-20.2142 A27.605,27.605 0 0,0 -11.9816,-20" style="stroke:#000000;stroke-width:0.25;"/>
        <!-- Linie -->
        <line x1="-11.9816" y1="-20" x2="-11.9816" y2="-15.1645" style="stroke:#000000;stroke-width:0.25;"/>
        <!-- Kreisbogen -->
        <path d="M-11.9816,-15.1645 A25.7098,25.7098 0 0,1 -8.202,-15.746" style="stroke:#000000;stroke-width:0.25;"/>
        <!-- Kreisbogen -->
        <path d="M-8.202,-15.746 A49.9717,49.9717 0 0,1 -3.9021,-15.9296" style="stroke:#000000;stroke-width:0.25;"/>
        <!-- Kreisbogen -->
        <path d="M-3.9021,-15.9296 A15.4722,15.4722 0 0,1 0.505,-15.3481" style="stroke:#000000;stroke-width:0.25;"/>
        <!-- Kreisbogen -->
        <path d="M0.505,-15.3481 A9.8464,9.8464 0 0,1 3.8409,-13.6802" style="stroke:#000000;stroke-width:0.25;"/>
        <!-- Kreisbogen -->
        <path d="M3.8409,-13.6802 A7.318,7.318 0 0,1 5.9526,-11.0482" style="stroke:#000000;stroke-width:0.25;"/>
        <!-- Kreisbogen -->
        <path d="M5.9526,-11.0482 A7.9927,7.9927 0 0,1 6.6871,-7.5746" style="stroke:#000000;stroke-width:0.25;"/>
        <!-- Kreisbogen -->
        <path d="M6.6871,-7.5746 A9.0425,9.0425 0 0,1 6.5184,-5.8362" style="stroke:#000000;stroke-width:0.25;"/>
        <!-- Kreisbogen -->
        <path d="M6.5184,-5.8362 A5.9853,5.9853 0 0,1 6.0816,-4.484" style="stroke:#000000;stroke-width:0.25;"/>
        <!-- Kreisbogen -->
        <path d="M6.0816,-4.484 A5.298,5.298 0 0,1 5.2364,-3.1882" style="stroke:#000000;stroke-width:0.25;"/>
        <!-- Kreisbogen -->
        <path d="M5.2364,-3.1882 A5.7559,5.7559 0 0,1 4.0092,-2.1423" style="stroke:#000000;stroke-width:0.25;"/>
        <!-- Kreisbogen -->
        <path d="M4.0092,-2.1423 A8.2058,8.2058 0 0,1 2.4431,-1.3691" style="stroke:#000000;stroke-width:0.25;"/>
        <!-- Kreisbogen -->
        <path d="M2.4431,-1.3691 A13.4855,13.4855 0 0,1 0.2846,-0.7743" style="stroke:#000000;stroke-width:0.25;"/>
        <!-- Kreisbogen -->
        <path d="M0.2846,-0.7743 A17.3563,17.3563 0 0,1 -1.4824,-0.5354" style="stroke:#000000;stroke-width:0.25;"/>
        <!-- Kreisbogen -->
        <path d="M-1.4824,-0.5354 A26.5999,26.5999 0 0,1 -3.6878,-0.4438" style="stroke:#000000;stroke-width:0.25;"/>
        <!-- Linie -->
        <line x1="-3.6878" y1="-0.4438" x2="-11.2777" y2="-0.4438" style="stroke:#000000;stroke-width:0.25;"/>
        <!-- Linie -->
        <line x1="-11.2777" y1="-0.4438" x2="-11.2777" y2="20" style="stroke:#000000;stroke-width:0.25;"/>
        <!-- Linie -->
        <line x1="-11.2777" y1="20" x2="10.2678" y2="20" style="stroke:#000000;stroke-width:0.25;"/>
        <!-- Linie -->
        <line x1="10.2678" y1="20" x2="10.2678" y2="15.3481" style="stroke:#000000;stroke-width:0.25;"/>
        <!-- Linie -->
        <line x1="10.2678" y1="15.3481" x2="-6.2586" y2="15.3481" style="stroke:#000000;stroke-width:0.25;"/>
        <!-- Linie -->
        <line x1="-6.2586" y1="15.3481" x2="-6.2586" y2="4.1163" style="stroke:#000000;stroke-width:0.25;"/>
        <!-- Linie -->
        <line x1="-6.2586" y1="4.1163" x2="-2.7697" y2="4.1163" style="stroke:#000000;stroke-width:0.25;"/>
        <!-- Kreisbogen -->
        <path d="M-2.7697,4.1163 A29.7874,29.7874 0 0,0 2.8309,3.596" style="stroke:#000000;stroke-width:0.25;"/>
        <!-- Kreisbogen -->
        <path d="M2.8309,3.596 A14.3813,14.3813 0 0,0 7.6817,1.7751" style="stroke:#000000;stroke-width:0.25;"/>
        <!-- Kreisbogen -->
        <path d="M7.6817,1.7751 A10.0243,10.0243 0 0,0 11.1094,-1.7138" style="stroke:#000000;stroke-width:0.25;"/>
        <!-- Kreisbogen -->
        <path d="M11.1094,-1.7138 A7.9182,7.9182 0 0,0 11.6962,-2.9248" style="stroke:#000000;stroke-width:0.25;"/>
        <!-- Kreisbogen -->
        <path d="M11.6962,-2.9248 A9.9391,9.9391 0 0,0 12.1276,-4.3692" style="stroke:#000000;stroke-width:0.25;"/>
        <!-- Kreisbogen -->
        <path d="M12.1276,-4.3692 A11.4908,11.4908 0 0,0 12.334,-5.6752" style="stroke:#000000;stroke-width:0.25;"/>
        <!-- Kreisbogen -->
        <path d="M12.334,-5.6752 A15.4696,15.4696 0 0,0 12.4101,-7.2073" style="stroke:#000000;stroke-width:0.25;"/>
        <!-- Kreisbogen -->
        <path d="M-21.0944,13.1446 A22.6495,22.6495 0 0,1 -25.6851,14.9962" style="stroke:#000000;stroke-width:0.25;"/>
        <!-- Kreisbogen -->
        <path d="M-25.6851,14.9962 A19.068,19.068 0 0,1 -30.8266,15.6542" style="stroke:#000000;stroke-width:0.25;"/>
        <!-- Kreisbogen -->
        <path d="M-30.8266,15.6542 A15.8872,15.8872 0 0,1 -33.9424,15.3457" style="stroke:#000000;stroke-width:0.25;"/>
        <!-- Kreisbogen -->
        <path d="M-33.9424,15.3457 A11.6059,11.6059 0 0,1 -36.4884,14.5218" style="stroke:#000000;stroke-width:0.25;"/>
        <!-- Kreisbogen -->
        <path d="M-36.4884,14.5218 A11.5372,11.5372 0 0,1 -40.666,11.3236" style="stroke:#000000;stroke-width:0.25;"/>
        <!-- Kreisbogen -->
        <path d="M-40.666,11.3236 A14.5023,14.5023 0 0,1 -43.2673,6.3504" style="stroke:#000000;stroke-width:0.25;"/>
        <!-- Kreisbogen -->
        <path d="M-43.2673,6.3504 A21.6009,21.6009 0 0,1 -44.1702,-0.0765" style="stroke:#000000;stroke-width:0.25;"/>
        <!-- Kreisbogen -->
        <path d="M-44.1702,-0.0765 A26.9294,26.9294 0 0,1 -43.4357,-6.6565" style="stroke:#000000;stroke-width:0.25;"/>
        <!-- Kreisbogen -->
        <path d="M-43.4357,-6.6565 A13.2638,13.2638 0 0,1 -41.1403,-11.5838" style="stroke:#000000;stroke-width:0.25;"/>
        <!-- Kreisbogen -->
        <path d="M-41.1403,-11.5838 A10.0905,10.0905 0 0,1 -37.1464,-14.6748" style="stroke:#000000;stroke-width:0.25;"/>
        <!-- Kreisbogen -->
        <path d="M-37.1464,-14.6748 A11.2359,11.2359 0 0,1 -34.6495,-15.4423" style="stroke:#000000;stroke-width:0.25;"/>
        <!-- Kreisbogen -->
        <path d="M-34.6495,-15.4423 A18.4458,18.4458 0 0,1 -31.3163,-15.746" style="stroke:#000000;stroke-width:0.25;"/>
        <!-- Kreisbogen -->
        <path d="M-31.3163,-15.746 A13.9138,13.9138 0 0,1 -30.0615,-15.6848" style="stroke:#000000;stroke-width:0.25;"/>
        <!-- Kreisbogen -->
        <path d="M-30.0615,-15.6848 A20.2204,20.2204 0 0,1 -28.7149,-15.5164" style="stroke:#000000;stroke-width:0.25;"/>
        <!-- Kreisbogen -->
        <path d="M-28.7149,-15.5164 A16.2896,16.2896 0 0,1 -27.4142,-15.2563" style="stroke:#000000;stroke-width:0.25;"/>
        <!-- Kreisbogen -->
        <path d="M-27.4142,-15.2563 A9.8388,9.8388 0 0,1 -26.2972,-14.9197" style="stroke:#000000;stroke-width:0.25;"/>
        <!-- Linie -->
        <line x1="-26.2972" y1="-14.9197" x2="-26.2972" y2="-2.1882" style="stroke:#000000;stroke-width:0.25;"/>
        <!-- Linie -->
        <line x1="-26.2972" y1="-2.1882" x2="-34.4686" y2="-2.1882" style="stroke:#000000;stroke-width:0.25;"/>
        <!-- Linie -->
        <line x1="-34.4686" y1="-2.1882" x2="-34.4686" y2="2.3106" style="stroke:#000000;stroke-width:0.25;"/>
        <!-- Linie -->
        <line x1="-34.4686" y1="2.3106" x2="-20.9108" y2="2.3106" style="stroke:#000000;stroke-width:0.25;"/>
        <!-- Linie -->
        <line x1="-20.9108" y1="2.3106" x2="-20.9108" y2="-18.1331" style="stroke:#000000;stroke-width:0.25;"/>
        <!-- Kreisbogen -->
        <path d="M-20.9108,-18.1331 A24.6355,24.6355 0 0,0 -23.5581,-19.1737" style="stroke:#000000;stroke-width:0.25;"/>
        <!-- Kreisbogen -->
        <path d="M-23.5581,-19.1737 A26.5569,26.5569 0 0,0 -26.4043,-19.9388" style="stroke:#000000;stroke-width:0.25;"/>
        <!-- Kreisbogen -->
        <path d="M-26.4043,-19.9388 A28.8448,28.8448 0 0,0 -29.2964,-20.3979" style="stroke:#000000;stroke-width:0.25;"/>
        <!-- Kreisbogen -->
        <path d="M-29.2964,-20.3979 A26.3363,26.3363 0 0,0 -32.0814,-20.5509" style="stroke:#000000;stroke-width:0.25;"/>
        <!-- Kreisbogen -->
        <path d="M-32.0814,-20.5509 A23.5517,23.5517 0 0,0 -36.1168,-20.2026" style="stroke:#000000;stroke-width:0.25;"/>
        <!-- Kreisbogen -->
        <path d="M-36.1168,-20.2026 A17.4255,17.4255 0 0,0 -39.4724,-19.2655" style="stroke:#000000;stroke-width:0.25;"/>
        <!-- Kreisbogen -->
        <path d="M-39.4724,-19.2655 A14.7563,14.7563 0 0,0 -45.073,-15.4552" style="stroke:#000000;stroke-width:0.25;"/>
        <!-- Kreisbogen -->
        <path d="M-45.073,-15.4552 A14.829,14.829 0 0,0 -47.0471,-12.7334" style="stroke:#000000;stroke-width:0.25;"/>
        <!-- Kreisbogen -->
        <path d="M-47.0471,-12.7334 A19.9498,19.9498 0 0,0 -48.6231,-9.166" style="stroke:#000000;stroke-width:0.25;"/>
        <!-- Kreisbogen -->
        <path d="M-48.6231,-9.166 A22.2013,22.2013 0 0,0 -49.516,-5.3461" style="stroke:#000000;stroke-width:0.25;"/>
        <!-- Kreisbogen -->
        <path d="M-49.516,-5.3461 A34.8444,34.8444 0 0,0 -49.8626,-0.4438" style="stroke:#000000;stroke-width:0.25;"/>
        <!-- Kreisbogen -->
        <path d="M-49.8626,-0.4438 A31.5526,31.5526 0 0,0 -49.4856,4.419" style="stroke:#000000;stroke-width:0.25;"/>
        <!-- Kreisbogen -->
        <path d="M-49.4856,4.419 A22.1966,22.1966 0 0,0 -48.4854,8.3856" style="stroke:#000000;stroke-width:0.25;"/>
        <!-- Kreisbogen -->
        <path d="M-48.4854,8.3856 A21.4324,21.4324 0 0,0 -46.769,12.0836" style="stroke:#000000;stroke-width:0.25;"/>
        <!-- Kreisbogen -->
        <path d="M-46.769,12.0836 A16.9282,16.9282 0 0,0 -44.6139,14.9962" style="stroke:#000000;stroke-width:0.25;"/>
        <!-- Kreisbogen -->
        <path d="M-44.6139,14.9962 A16.4621,16.4621 0 0,0 -38.6155,19.1278" style="stroke:#000000;stroke-width:0.25;"/>
        <!-- Kreisbogen -->
        <path d="M-38.6155,19.1278 A20.3542,20.3542 0 0,0 -30.8878,20.5509" style="stroke:#000000;stroke-width:0.25;"/>
        <!-- Kreisbogen -->
        <path d="M-30.8878,20.5509 A26.7503,26.7503 0 0,0 -25.7616,20.0765" style="stroke:#000000;stroke-width:0.25;"/>
        <!-- Kreisbogen -->
        <path d="M-25.7616,20.0765 A20.1416,20.1416 0 0,0 -21.0944,18.5616" style="stroke:#000000;stroke-width:0.25;"/>
        <!-- Linie -->
        <line x1="-21.0944" y1="18.5616" x2="-21.0944" y2="13.1446" style="stroke:#000000;stroke-width:0.25;"/>
        <!-- Linie -->
        <line x1="37.5902" y1="14.8585" x2="23.6652" y2="-6.4728" style="stroke:#000000;stroke-width:0.25;"/>
        <!-- Linie -->
        <line x1="23.6652" y1="-6.4728" x2="37.5902" y2="-6.4728" style="stroke:#000000;stroke-width:0.25;"/>
        <!-- Linie -->
        <line x1="37.5902" y1="-6.4728" x2="37.5902" y2="14.8585" style="stroke:#000000;stroke-width:0.25;"/>
        <!-- Linie -->
        <line x1="49.8626" y1="-11.1553" x2="43.0378" y2="-11.1553" style="stroke:#000000;stroke-width:0.25;"/>
        <!-- Linie -->
        <line x1="43.0378" y1="-11.1553" x2="43.0378" y2="-20" style="stroke:#000000;stroke-width:0.25;"/>
        <!-- Linie -->
        <line x1="43.0378" y1="-20" x2="37.5902" y2="-20" style="stroke:#000000;stroke-width:0.25;"/>
        <!-- Linie -->
        <line x1="37.5902" y1="-20" x2="37.5902" y2="-11.1553" style="stroke:#000000;stroke-width:0.25;"/>
        <!-- Linie -->
        <line x1="37.5902" y1="-11.1553" x2="18.34" y2="-11.1553" style="stroke:#000000;stroke-width:0.25;"/>
        <!-- Linie -->
        <line x1="18.34" y1="-11.1553" x2="18.34" y2="-6.4728" style="stroke:#000000;stroke-width:0.25;"/>
        <!-- Linie -->
        <line x1="18.34" y1="-6.4728" x2="35.3867" y2="20" style="stroke:#000000;stroke-width:0.25;"/>
        <!-- Linie -->
        <line x1="35.3867" y1="20" x2="43.0378" y2="20" style="stroke:#000000;stroke-width:0.25;"/>
        <!-- Linie -->
        <line x1="43.0378" y1="20" x2="43.0378" y2="-6.4728" style="stroke:#000000;stroke-width:0.25;"/>
        <!-- Linie -->
        <line x1="43.0378" y1="-6.4728" x2="49.8626" y2="-6.4728" style="stroke:#000000;stroke-width:0.25;"/>
        <!-- Linie -->
        <line x1="49.8626" y1="-6.4728" x2="49.8626" y2="-11.1553" style="stroke:#000000;stroke-width:0.25;"/>
        <!-- Schraffur -->
        <path d="M49.8626,-6.4728 L49.8626,-11.1553 L43.0378,-11.1553 L43.0378,-20 L37.5902,-20 L37.5902,-11.1553 L18.34,-11.1553 L18.34,-6.4728 L35.3867,20 L43.0378,20 L43.0378,-6.4728 ZM37.5902,-6.4728 L37.5902,14.8585 L23.6652,-6.4728 ZM-21.0944,18.5616 L-21.0944,13.1446 A22.6495,22.6495 0 0 1 -25.6851,14.9962 A19.068,19.068 0 0 1 -30.8266,15.6542 A15.8872,15.8872 0 0 1 -33.9424,15.3457 A11.6059,11.6059 0 0 1 -36.4884,14.5218 A11.5372,11.5372 0 0 1 -40.666,11.3236 A14.5023,14.5023 0 0 1 -43.2673,6.3504 A21.6009,21.6009 0 0 1 -44.1702,-0.0765 A26.9294,26.9294 0 0 1 -43.4357,-6.6565 A13.2638,13.2638 0 0 1 -41.1403,-11.5838 A10.0905,10.0905 0 0 1 -37.1464,-14.6748 A11.2359,11.2359 0 0 1 -34.6495,-15.4423 A18.4458,18.4458 0 0 1 -31.3163,-15.746 A13.9138,13.9138 0 0 1 -30.0615,-15.6848 A20.2204,20.2204 0 0 1 -28.7149,-15.5164 A16.2896,16.2896 0 0 1 -27.4142,-15.2563 A9.83877,9.83877 0 0 1 -26.2972,-14.9197 L-26.2972,-2.1882 L-34.4686,-2.1882 L-34.4686,2.3106 L-20.9108,2.3106 L-20.9108,-18.1331 A24.6355,24.6355 0 0 0 -23.5581,-19.1737 A26.5569,26.5569 0 0 0 -26.4043,-19.9388 A28.8448,28.8448 0 0 0 -29.2964,-20.3979 A26.3363,26.3363 0 0 0 -32.0814,-20.5509 A23.5517,23.5517 0 0 0 -36.1168,-20.2026 A17.4255,17.4255 0 0 0 -39.4724,-19.2655 A14.7563,14.7563 0 0 0 -45.073,-15.4552 A14.829,14.829 0 0 0 -47.0471,-12.7334 A19.9498,19.9498 0 0 0 -48.6231,-9.166 A22.2013,22.2013 0 0 0 -49.516,-5.3461 A34.8444,34.8444 0 0 0 -49.8626,-0.4438 A31.5526,31.5526 0 0 0 -49.4856,4.419 A22.1966,22.1966 0 0 0 -48.4854,8.3856 A21.4324,21.4324 0 0 0 -46.769,12.0836 A16.9282,16.9282 0 0 0 -44.6139,14.9962 A16.4621,16.4621 0 0 0 -38.6155,19.1278 A20.3542,20.3542 0 0 0 -30.8878,20.5509 A26.7503,26.7503 0 0 0 -25.7616,20.0765 A20.1416,20.1416 0 0 0 -21.0944,18.5616M12.334,-5.6752 A15.4696,15.4696 0 0 0 12.4101,-7.2073 A11.4734,11.4734 0 0 0 11.1247,-12.6243 A12.933,12.933 0 0 0 7.5899,-16.8324 A16.8713,16.8713 0 0 0 2.28,-19.5715 A21.5758,21.5758 0 0 0 -4.3305,-20.5509 A42.9272,42.9272 0 0 0 -6.2433,-20.505 A66.0545,66.0545 0 0 0 -8.2785,-20.3826 A102.483,102.483 0 0 0 -10.2525,-20.2142 A27.605,27.605 0 0 0 -11.9816,-20 L-11.9816,-15.1645 A25.7098,25.7098 0 0 1 -8.202,-15.746 A49.9717,49.9717 0 0 1 -3.9021,-15.9296 A15.4722,15.4722 0 0 1 0.505,-15.3481 A9.84638,9.84638 0 0 1 3.8409,-13.6802 A7.31803,7.31803 0 0 1 5.9526,-11.0482 A7.99269,7.99269 0 0 1 6.6871,-7.5746 A9.04251,9.04251 0 0 1 6.5184,-5.8362 A5.98533,5.98533 0 0 1 6.0816,-4.484 A5.29797,5.29797 0 0 1 5.2364,-3.1882 A5.75588,5.75588 0 0 1 4.0092,-2.1423 A8.20584,8.20584 0 0 1 2.4431,-1.3691 A13.4855,13.4855 0 0 1 0.2846,-0.7743 A17.3563,17.3563 0 0 1 -1.4824,-0.5354 A26.5999,26.5999 0 0 1 -3.6878,-0.4438 L-11.2777,-0.4438 L-11.2777,20 L10.2678,20 L10.2678,15.3481 L-6.2586,15.3481 L-6.2586,4.1163 L-2.7697,4.1163 A29.7874,29.7874 0 0 0 2.8309,3.596 A14.3813,14.3813 0 0 0 7.6817,1.7751 A10.0243,10.0243 0 0 0 11.1094,-1.7138 A7.91817,7.91817 0 0 0 11.6962,-2.9248 A9.9391,9.9391 0 0 0 12.1276,-4.3692 A11.4908,11.4908 0 0 0 12.334,-5.6752" style="fill:#000000;fill-rule:evenodd;"/>
    </g>
</svg>
