<?xml version="1.0" encoding="UTF-8"?>
<!-- 2020-10-26 18:17:50 Generated by QCAD 3.24.2 SVG Exporter PG -->
<svg width="210.25mm" height="210.25mm" viewBox="-105.125 -105.125 210.25 210.25" version="1.1" xmlns="http://www.w3.org/2000/svg" style="stroke-linecap:round;stroke-linejoin:round;fill:none">
    <g transform="scale(1,-1)">
        <!-- Schraffur -->
        <path d="M100,-85.5 L100,85.5 A14.5,14.5 0 0 1 85.5,100 L-85.5,100 A14.5,14.5 0 0 1 -100,85.5 L-100,-85.5 A14.5,14.5 0 0 1 -85.5,-100 L85.5,-100 A14.5,14.5 0 0 1 100,-85.5M-85.5,95 A9.5,9.5 0 0 1 -95,85.5 L-95,-85.5 A9.5,9.5 0 0 1 -85.5,-95 L85.5,-95 A9.5,9.5 0 0 1 95,-85.5 L95,85.5 A9.5,9.5 0 0 1 85.5,95 Z" style="fill:#000000;fill-rule:evenodd;"/>
        <!-- Kreisbogen -->
        <path d="M48.363,-7.2073 A11.4734,11.4734 0 0,0 47.0776,-12.6243" style="stroke:#000000;stroke-width:0.25;"/>
        <!-- Kreisbogen -->
        <path d="M47.0776,-12.6243 A12.933,12.933 0 0,0 43.5428,-16.8324" style="stroke:#000000;stroke-width:0.25;"/>
        <!-- Kreisbogen -->
        <path d="M43.5428,-16.8324 A16.8713,16.8713 0 0,0 38.2329,-19.5715" style="stroke:#000000;stroke-width:0.25;"/>
        <!-- Kreisbogen -->
        <path d="M38.2329,-19.5715 A21.5758,21.5758 0 0,0 31.6223,-20.5509" style="stroke:#000000;stroke-width:0.25;"/>
        <!-- Kreisbogen -->
        <path d="M31.6223,-20.5509 A42.9272,42.9272 0 0,0 29.7096,-20.505" style="stroke:#000000;stroke-width:0.25;"/>
        <!-- Kreisbogen -->
        <path d="M29.7096,-20.505 A66.0545,66.0545 0 0,0 27.6744,-20.3826" style="stroke:#000000;stroke-width:0.25;"/>
        <!-- Kreisbogen -->
        <path d="M27.6744,-20.3826 A102.4834,102.4834 0 0,0 25.7004,-20.2142" style="stroke:#000000;stroke-width:0.25;"/>
        <!-- Kreisbogen -->
        <path d="M25.7004,-20.2142 A27.605,27.605 0 0,0 23.9712,-20" style="stroke:#000000;stroke-width:0.25;"/>
        <!-- Linie -->
        <line x1="23.9712" y1="-20" x2="23.9712" y2="-15.1645" style="stroke:#000000;stroke-width:0.25;"/>
        <!-- Kreisbogen -->
        <path d="M23.9712,-15.1645 A25.7098,25.7098 0 0,1 27.7509,-15.746" style="stroke:#000000;stroke-width:0.25;"/>
        <!-- Kreisbogen -->
        <path d="M27.7509,-15.746 A49.9717,49.9717 0 0,1 32.0508,-15.9296" style="stroke:#000000;stroke-width:0.25;"/>
        <!-- Kreisbogen -->
        <path d="M32.0508,-15.9296 A15.4722,15.4722 0 0,1 36.4578,-15.3481" style="stroke:#000000;stroke-width:0.25;"/>
        <!-- Kreisbogen -->
        <path d="M36.4578,-15.3481 A9.8464,9.8464 0 0,1 39.7937,-13.6802" style="stroke:#000000;stroke-width:0.25;"/>
        <!-- Kreisbogen -->
        <path d="M39.7937,-13.6802 A7.318,7.318 0 0,1 41.9054,-11.0482" style="stroke:#000000;stroke-width:0.25;"/>
        <!-- Kreisbogen -->
        <path d="M41.9054,-11.0482 A7.9927,7.9927 0 0,1 42.6399,-7.5746" style="stroke:#000000;stroke-width:0.25;"/>
        <!-- Kreisbogen -->
        <path d="M42.6399,-7.5746 A9.0425,9.0425 0 0,1 42.4713,-5.8362" style="stroke:#000000;stroke-width:0.25;"/>
        <!-- Kreisbogen -->
        <path d="M42.4713,-5.8362 A5.9853,5.9853 0 0,1 42.0345,-4.484" style="stroke:#000000;stroke-width:0.25;"/>
        <!-- Kreisbogen -->
        <path d="M42.0345,-4.484 A5.298,5.298 0 0,1 41.1893,-3.1882" style="stroke:#000000;stroke-width:0.25;"/>
        <!-- Kreisbogen -->
        <path d="M41.1893,-3.1882 A5.7559,5.7559 0 0,1 39.9621,-2.1423" style="stroke:#000000;stroke-width:0.25;"/>
        <!-- Kreisbogen -->
        <path d="M39.9621,-2.1423 A8.2058,8.2058 0 0,1 38.396,-1.3691" style="stroke:#000000;stroke-width:0.25;"/>
        <!-- Kreisbogen -->
        <path d="M38.396,-1.3691 A13.4855,13.4855 0 0,1 36.2375,-0.7743" style="stroke:#000000;stroke-width:0.25;"/>
        <!-- Kreisbogen -->
        <path d="M36.2375,-0.7743 A17.3563,17.3563 0 0,1 34.4705,-0.5354" style="stroke:#000000;stroke-width:0.25;"/>
        <!-- Kreisbogen -->
        <path d="M34.4705,-0.5354 A26.5999,26.5999 0 0,1 32.265,-0.4438" style="stroke:#000000;stroke-width:0.25;"/>
        <!-- Linie -->
        <line x1="32.265" y1="-0.4438" x2="24.6751" y2="-0.4438" style="stroke:#000000;stroke-width:0.25;"/>
        <!-- Linie -->
        <line x1="24.6751" y1="-0.4438" x2="24.6751" y2="20" style="stroke:#000000;stroke-width:0.25;"/>
        <!-- Linie -->
        <line x1="24.6751" y1="20" x2="46.2207" y2="20" style="stroke:#000000;stroke-width:0.25;"/>
        <!-- Linie -->
        <line x1="46.2207" y1="20" x2="46.2207" y2="15.3481" style="stroke:#000000;stroke-width:0.25;"/>
        <!-- Linie -->
        <line x1="46.2207" y1="15.3481" x2="29.6943" y2="15.3481" style="stroke:#000000;stroke-width:0.25;"/>
        <!-- Linie -->
        <line x1="29.6943" y1="15.3481" x2="29.6943" y2="4.1163" style="stroke:#000000;stroke-width:0.25;"/>
        <!-- Linie -->
        <line x1="29.6943" y1="4.1163" x2="33.1832" y2="4.1163" style="stroke:#000000;stroke-width:0.25;"/>
        <!-- Kreisbogen -->
        <path d="M33.1832,4.1163 A29.7874,29.7874 0 0,0 38.7838,3.596" style="stroke:#000000;stroke-width:0.25;"/>
        <!-- Kreisbogen -->
        <path d="M38.7838,3.596 A14.3813,14.3813 0 0,0 43.6346,1.7751" style="stroke:#000000;stroke-width:0.25;"/>
        <!-- Kreisbogen -->
        <path d="M43.6346,1.7751 A10.0243,10.0243 0 0,0 47.0623,-1.7138" style="stroke:#000000;stroke-width:0.25;"/>
        <!-- Kreisbogen -->
        <path d="M47.0623,-1.7138 A7.9182,7.9182 0 0,0 47.649,-2.9248" style="stroke:#000000;stroke-width:0.25;"/>
        <!-- Kreisbogen -->
        <path d="M47.649,-2.9248 A9.9391,9.9391 0 0,0 48.0805,-4.3692" style="stroke:#000000;stroke-width:0.25;"/>
        <!-- Kreisbogen -->
        <path d="M48.0805,-4.3692 A11.4908,11.4908 0 0,0 48.2869,-5.6752" style="stroke:#000000;stroke-width:0.25;"/>
        <!-- Kreisbogen -->
        <path d="M48.2869,-5.6752 A15.4696,15.4696 0 0,0 48.363,-7.2073" style="stroke:#000000;stroke-width:0.25;"/>
        <!-- Kreisbogen -->
        <path d="M13.9097,-7.2073 A11.4734,11.4734 0 0,0 12.6243,-12.6243" style="stroke:#000000;stroke-width:0.25;"/>
        <!-- Kreisbogen -->
        <path d="M12.6243,-12.6243 A12.933,12.933 0 0,0 9.0895,-16.8324" style="stroke:#000000;stroke-width:0.25;"/>
        <!-- Kreisbogen -->
        <path d="M9.0895,-16.8324 A16.8713,16.8713 0 0,0 3.7796,-19.5715" style="stroke:#000000;stroke-width:0.25;"/>
        <!-- Kreisbogen -->
        <path d="M3.7796,-19.5715 A21.5758,21.5758 0 0,0 -2.8309,-20.5509" style="stroke:#000000;stroke-width:0.25;"/>
        <!-- Kreisbogen -->
        <path d="M-2.8309,-20.5509 A42.9272,42.9272 0 0,0 -4.7437,-20.505" style="stroke:#000000;stroke-width:0.25;"/>
        <!-- Kreisbogen -->
        <path d="M-4.7437,-20.505 A66.0545,66.0545 0 0,0 -6.7789,-20.3826" style="stroke:#000000;stroke-width:0.25;"/>
        <!-- Kreisbogen -->
        <path d="M-6.7789,-20.3826 A102.4834,102.4834 0 0,0 -8.7529,-20.2142" style="stroke:#000000;stroke-width:0.25;"/>
        <!-- Kreisbogen -->
        <path d="M-8.7529,-20.2142 A27.605,27.605 0 0,0 -10.482,-20" style="stroke:#000000;stroke-width:0.25;"/>
        <!-- Linie -->
        <line x1="-10.482" y1="-20" x2="-10.482" y2="-15.1645" style="stroke:#000000;stroke-width:0.25;"/>
        <!-- Kreisbogen -->
        <path d="M-10.482,-15.1645 A25.7098,25.7098 0 0,1 -6.7024,-15.746" style="stroke:#000000;stroke-width:0.25;"/>
        <!-- Kreisbogen -->
        <path d="M-6.7024,-15.746 A49.9717,49.9717 0 0,1 -2.4024,-15.9296" style="stroke:#000000;stroke-width:0.25;"/>
        <!-- Kreisbogen -->
        <path d="M-2.4024,-15.9296 A15.4722,15.4722 0 0,1 2.0046,-15.3481" style="stroke:#000000;stroke-width:0.25;"/>
        <!-- Kreisbogen -->
        <path d="M2.0046,-15.3481 A9.8464,9.8464 0 0,1 5.3405,-13.6802" style="stroke:#000000;stroke-width:0.25;"/>
        <!-- Kreisbogen -->
        <path d="M5.3405,-13.6802 A7.318,7.318 0 0,1 7.4522,-11.0482" style="stroke:#000000;stroke-width:0.25;"/>
        <!-- Kreisbogen -->
        <path d="M7.4522,-11.0482 A7.9927,7.9927 0 0,1 8.1867,-7.5746" style="stroke:#000000;stroke-width:0.25;"/>
        <!-- Kreisbogen -->
        <path d="M8.1867,-7.5746 A9.0425,9.0425 0 0,1 8.018,-5.8362" style="stroke:#000000;stroke-width:0.25;"/>
        <!-- Kreisbogen -->
        <path d="M8.018,-5.8362 A5.9853,5.9853 0 0,1 7.5812,-4.484" style="stroke:#000000;stroke-width:0.25;"/>
        <!-- Kreisbogen -->
        <path d="M7.5812,-4.484 A5.298,5.298 0 0,1 6.7361,-3.1882" style="stroke:#000000;stroke-width:0.25;"/>
        <!-- Kreisbogen -->
        <path d="M6.7361,-3.1882 A5.7559,5.7559 0 0,1 5.5088,-2.1423" style="stroke:#000000;stroke-width:0.25;"/>
        <!-- Kreisbogen -->
        <path d="M5.5088,-2.1423 A8.2058,8.2058 0 0,1 3.9428,-1.3691" style="stroke:#000000;stroke-width:0.25;"/>
        <!-- Kreisbogen -->
        <path d="M3.9428,-1.3691 A13.4855,13.4855 0 0,1 1.7842,-0.7743" style="stroke:#000000;stroke-width:0.25;"/>
        <!-- Kreisbogen -->
        <path d="M1.7842,-0.7743 A17.3563,17.3563 0 0,1 0.0173,-0.5354" style="stroke:#000000;stroke-width:0.25;"/>
        <!-- Kreisbogen -->
        <path d="M0.0173,-0.5354 A26.5999,26.5999 0 0,1 -2.1882,-0.4438" style="stroke:#000000;stroke-width:0.25;"/>
        <!-- Linie -->
        <line x1="-2.1882" y1="-0.4438" x2="-9.7781" y2="-0.4438" style="stroke:#000000;stroke-width:0.25;"/>
        <!-- Linie -->
        <line x1="-9.7781" y1="-0.4438" x2="-9.7781" y2="20" style="stroke:#000000;stroke-width:0.25;"/>
        <!-- Linie -->
        <line x1="-9.7781" y1="20" x2="11.7674" y2="20" style="stroke:#000000;stroke-width:0.25;"/>
        <!-- Linie -->
        <line x1="11.7674" y1="20" x2="11.7674" y2="15.3481" style="stroke:#000000;stroke-width:0.25;"/>
        <!-- Linie -->
        <line x1="11.7674" y1="15.3481" x2="-4.759" y2="15.3481" style="stroke:#000000;stroke-width:0.25;"/>
        <!-- Linie -->
        <line x1="-4.759" y1="15.3481" x2="-4.759" y2="4.1163" style="stroke:#000000;stroke-width:0.25;"/>
        <!-- Linie -->
        <line x1="-4.759" y1="4.1163" x2="-1.2701" y2="4.1163" style="stroke:#000000;stroke-width:0.25;"/>
        <!-- Kreisbogen -->
        <path d="M-1.2701,4.1163 A29.7874,29.7874 0 0,0 4.3305,3.596" style="stroke:#000000;stroke-width:0.25;"/>
        <!-- Kreisbogen -->
        <path d="M4.3305,3.596 A14.3813,14.3813 0 0,0 9.1813,1.7751" style="stroke:#000000;stroke-width:0.25;"/>
        <!-- Kreisbogen -->
        <path d="M9.1813,1.7751 A10.0243,10.0243 0 0,0 12.609,-1.7138" style="stroke:#000000;stroke-width:0.25;"/>
        <!-- Kreisbogen -->
        <path d="M12.609,-1.7138 A7.9182,7.9182 0 0,0 13.1958,-2.9248" style="stroke:#000000;stroke-width:0.25;"/>
        <!-- Kreisbogen -->
        <path d="M13.1958,-2.9248 A9.9391,9.9391 0 0,0 13.6272,-4.3692" style="stroke:#000000;stroke-width:0.25;"/>
        <!-- Kreisbogen -->
        <path d="M13.6272,-4.3692 A11.4908,11.4908 0 0,0 13.8337,-5.6752" style="stroke:#000000;stroke-width:0.25;"/>
        <!-- Kreisbogen -->
        <path d="M13.8337,-5.6752 A15.4696,15.4696 0 0,0 13.9097,-7.2073" style="stroke:#000000;stroke-width:0.25;"/>
        <!-- Kreisbogen -->
        <path d="M-19.5948,13.1446 A22.6495,22.6495 0 0,1 -24.1855,14.9962" style="stroke:#000000;stroke-width:0.25;"/>
        <!-- Kreisbogen -->
        <path d="M-24.1855,14.9962 A19.068,19.068 0 0,1 -29.327,15.6542" style="stroke:#000000;stroke-width:0.25;"/>
        <!-- Kreisbogen -->
        <path d="M-29.327,15.6542 A15.8872,15.8872 0 0,1 -32.4427,15.3457" style="stroke:#000000;stroke-width:0.25;"/>
        <!-- Kreisbogen -->
        <path d="M-32.4427,15.3457 A11.6059,11.6059 0 0,1 -34.9888,14.5218" style="stroke:#000000;stroke-width:0.25;"/>
        <!-- Kreisbogen -->
        <path d="M-34.9888,14.5218 A11.5372,11.5372 0 0,1 -39.1663,11.3236" style="stroke:#000000;stroke-width:0.25;"/>
        <!-- Kreisbogen -->
        <path d="M-39.1663,11.3236 A14.5023,14.5023 0 0,1 -41.7677,6.3504" style="stroke:#000000;stroke-width:0.25;"/>
        <!-- Kreisbogen -->
        <path d="M-41.7677,6.3504 A21.6009,21.6009 0 0,1 -42.6705,-0.0765" style="stroke:#000000;stroke-width:0.25;"/>
        <!-- Kreisbogen -->
        <path d="M-42.6705,-0.0765 A26.9294,26.9294 0 0,1 -41.936,-6.6565" style="stroke:#000000;stroke-width:0.25;"/>
        <!-- Kreisbogen -->
        <path d="M-41.936,-6.6565 A13.2638,13.2638 0 0,1 -39.6407,-11.5838" style="stroke:#000000;stroke-width:0.25;"/>
        <!-- Kreisbogen -->
        <path d="M-39.6407,-11.5838 A10.0905,10.0905 0 0,1 -35.6468,-14.6748" style="stroke:#000000;stroke-width:0.25;"/>
        <!-- Kreisbogen -->
        <path d="M-35.6468,-14.6748 A11.2359,11.2359 0 0,1 -33.1499,-15.4423" style="stroke:#000000;stroke-width:0.25;"/>
        <!-- Kreisbogen -->
        <path d="M-33.1499,-15.4423 A18.4458,18.4458 0 0,1 -29.8167,-15.746" style="stroke:#000000;stroke-width:0.25;"/>
        <!-- Kreisbogen -->
        <path d="M-29.8167,-15.746 A13.9138,13.9138 0 0,1 -28.5619,-15.6848" style="stroke:#000000;stroke-width:0.25;"/>
        <!-- Kreisbogen -->
        <path d="M-28.5619,-15.6848 A20.2204,20.2204 0 0,1 -27.2153,-15.5164" style="stroke:#000000;stroke-width:0.25;"/>
        <!-- Kreisbogen -->
        <path d="M-27.2153,-15.5164 A16.2896,16.2896 0 0,1 -25.9146,-15.2563" style="stroke:#000000;stroke-width:0.25;"/>
        <!-- Kreisbogen -->
        <path d="M-25.9146,-15.2563 A9.8388,9.8388 0 0,1 -24.7976,-14.9197" style="stroke:#000000;stroke-width:0.25;"/>
        <!-- Linie -->
        <line x1="-24.7976" y1="-14.9197" x2="-24.7976" y2="-2.1882" style="stroke:#000000;stroke-width:0.25;"/>
        <!-- Linie -->
        <line x1="-24.7976" y1="-2.1882" x2="-32.9689" y2="-2.1882" style="stroke:#000000;stroke-width:0.25;"/>
        <!-- Linie -->
        <line x1="-32.9689" y1="-2.1882" x2="-32.9689" y2="2.3106" style="stroke:#000000;stroke-width:0.25;"/>
        <!-- Linie -->
        <line x1="-32.9689" y1="2.3106" x2="-19.4112" y2="2.3106" style="stroke:#000000;stroke-width:0.25;"/>
        <!-- Linie -->
        <line x1="-19.4112" y1="2.3106" x2="-19.4112" y2="-18.1331" style="stroke:#000000;stroke-width:0.25;"/>
        <!-- Kreisbogen -->
        <path d="M-19.4112,-18.1331 A24.6355,24.6355 0 0,0 -22.0585,-19.1737" style="stroke:#000000;stroke-width:0.25;"/>
        <!-- Kreisbogen -->
        <path d="M-22.0585,-19.1737 A26.5569,26.5569 0 0,0 -24.9047,-19.9388" style="stroke:#000000;stroke-width:0.25;"/>
        <!-- Kreisbogen -->
        <path d="M-24.9047,-19.9388 A28.8448,28.8448 0 0,0 -27.7968,-20.3979" style="stroke:#000000;stroke-width:0.25;"/>
        <!-- Kreisbogen -->
        <path d="M-27.7968,-20.3979 A26.3363,26.3363 0 0,0 -30.5818,-20.5509" style="stroke:#000000;stroke-width:0.25;"/>
        <!-- Kreisbogen -->
        <path d="M-30.5818,-20.5509 A23.5517,23.5517 0 0,0 -34.6172,-20.2026" style="stroke:#000000;stroke-width:0.25;"/>
        <!-- Kreisbogen -->
        <path d="M-34.6172,-20.2026 A17.4255,17.4255 0 0,0 -37.9728,-19.2655" style="stroke:#000000;stroke-width:0.25;"/>
        <!-- Kreisbogen -->
        <path d="M-37.9728,-19.2655 A14.7563,14.7563 0 0,0 -43.5734,-15.4552" style="stroke:#000000;stroke-width:0.25;"/>
        <!-- Kreisbogen -->
        <path d="M-43.5734,-15.4552 A14.829,14.829 0 0,0 -45.5475,-12.7334" style="stroke:#000000;stroke-width:0.25;"/>
        <!-- Kreisbogen -->
        <path d="M-45.5475,-12.7334 A19.9498,19.9498 0 0,0 -47.1235,-9.166" style="stroke:#000000;stroke-width:0.25;"/>
        <!-- Kreisbogen -->
        <path d="M-47.1235,-9.166 A22.2013,22.2013 0 0,0 -48.0164,-5.3461" style="stroke:#000000;stroke-width:0.25;"/>
        <!-- Kreisbogen -->
        <path d="M-48.0164,-5.3461 A34.8444,34.8444 0 0,0 -48.363,-0.4438" style="stroke:#000000;stroke-width:0.25;"/>
        <!-- Kreisbogen -->
        <path d="M-48.363,-0.4438 A31.5526,31.5526 0 0,0 -47.986,4.419" style="stroke:#000000;stroke-width:0.25;"/>
        <!-- Kreisbogen -->
        <path d="M-47.986,4.419 A22.1966,22.1966 0 0,0 -46.9858,8.3856" style="stroke:#000000;stroke-width:0.25;"/>
        <!-- Kreisbogen -->
        <path d="M-46.9858,8.3856 A21.4324,21.4324 0 0,0 -45.2694,12.0836" style="stroke:#000000;stroke-width:0.25;"/>
        <!-- Kreisbogen -->
        <path d="M-45.2694,12.0836 A16.9282,16.9282 0 0,0 -43.1143,14.9962" style="stroke:#000000;stroke-width:0.25;"/>
        <!-- Kreisbogen -->
        <path d="M-43.1143,14.9962 A16.4621,16.4621 0 0,0 -37.1158,19.1278" style="stroke:#000000;stroke-width:0.25;"/>
        <!-- Kreisbogen -->
        <path d="M-37.1158,19.1278 A20.3542,20.3542 0 0,0 -29.3882,20.5509" style="stroke:#000000;stroke-width:0.25;"/>
        <!-- Kreisbogen -->
        <path d="M-29.3882,20.5509 A26.7503,26.7503 0 0,0 -24.262,20.0765" style="stroke:#000000;stroke-width:0.25;"/>
        <!-- Kreisbogen -->
        <path d="M-24.262,20.0765 A20.1416,20.1416 0 0,0 -19.5948,18.5616" style="stroke:#000000;stroke-width:0.25;"/>
        <!-- Linie -->
        <line x1="-19.5948" y1="18.5616" x2="-19.5948" y2="13.1446" style="stroke:#000000;stroke-width:0.25;"/>
        <!-- Schraffur -->
        <path d="M24.6751,20 L46.2207,20 L46.2207,15.3481 L29.6943,15.3481 L29.6943,4.1163 L33.1832,4.1163 A29.7874,29.7874 0 0 0 38.7838,3.596 A14.3813,14.3813 0 0 0 43.6346,1.7751 A10.0243,10.0243 0 0 0 47.0623,-1.7138 A7.91817,7.91817 0 0 0 47.649,-2.9248 A9.9391,9.9391 0 0 0 48.0805,-4.3692 A11.4908,11.4908 0 0 0 48.2869,-5.6752 A15.4696,15.4696 0 0 0 48.363,-7.2073 A11.4734,11.4734 0 0 0 47.0776,-12.6243 A12.933,12.933 0 0 0 43.5428,-16.8324 A16.8713,16.8713 0 0 0 38.2329,-19.5715 A21.5758,21.5758 0 0 0 31.6223,-20.5509 A42.9272,42.9272 0 0 0 29.7096,-20.505 A66.0545,66.0545 0 0 0 27.6744,-20.3826 A102.483,102.483 0 0 0 25.7004,-20.2142 A27.605,27.605 0 0 0 23.9712,-20 L23.9712,-15.1645 A25.7098,25.7098 0 0 1 27.7509,-15.746 A49.9717,49.9717 0 0 1 32.0508,-15.9296 A15.4722,15.4722 0 0 1 36.4578,-15.3481 A9.84638,9.84638 0 0 1 39.7937,-13.6802 A7.31803,7.31803 0 0 1 41.9054,-11.0482 A7.99269,7.99269 0 0 1 42.6399,-7.5746 A9.04251,9.04251 0 0 1 42.4713,-5.8362 A5.98533,5.98533 0 0 1 42.0345,-4.484 A5.29797,5.29797 0 0 1 41.1893,-3.1882 A5.75588,5.75588 0 0 1 39.9621,-2.1423 A8.20584,8.20584 0 0 1 38.396,-1.3691 A13.4855,13.4855 0 0 1 36.2375,-0.7743 A17.3563,17.3563 0 0 1 34.4705,-0.5354 A26.5999,26.5999 0 0 1 32.265,-0.4438 L24.6751,-0.4438 ZM-19.5948,18.5616 L-19.5948,13.1446 A22.6495,22.6495 0 0 1 -24.1855,14.9962 A19.068,19.068 0 0 1 -29.327,15.6542 A15.8872,15.8872 0 0 1 -32.4427,15.3457 A11.6059,11.6059 0 0 1 -34.9888,14.5218 A11.5372,11.5372 0 0 1 -39.1663,11.3236 A14.5023,14.5023 0 0 1 -41.7677,6.3504 A21.6009,21.6009 0 0 1 -42.6705,-0.0765 A26.9294,26.9294 0 0 1 -41.936,-6.6565 A13.2638,13.2638 0 0 1 -39.6407,-11.5838 A10.0905,10.0905 0 0 1 -35.6468,-14.6748 A11.2359,11.2359 0 0 1 -33.1499,-15.4423 A18.4458,18.4458 0 0 1 -29.8167,-15.746 A13.9138,13.9138 0 0 1 -28.5619,-15.6848 A20.2204,20.2204 0 0 1 -27.2153,-15.5164 A16.2896,16.2896 0 0 1 -25.9146,-15.2563 A9.83877,9.83877 0 0 1 -24.7976,-14.9197 L-24.7976,-2.1882 L-32.9689,-2.1882 L-32.9689,2.3106 L-19.4112,2.3106 L-19.4112,-18.1331 A24.6355,24.6355 0 0 0 -22.0585,-19.1737 A26.5569,26.5569 0 0 0 -24.9047,-19.9388 A28.8448,28.8448 0 0 0 -27.7968,-20.3979 A26.3363,26.3363 0 0 0 -30.5818,-20.5509 A23.5517,23.5517 0 0 0 -34.6172,-20.2026 A17.4255,17.4255 0 0 0 -37.9728,-19.2655 A14.7563,14.7563 0 0 0 -43.5734,-15.4552 A14.829,14.829 0 0 0 -45.5475,-12.7334 A19.9498,19.9498 0 0 0 -47.1235,-9.166 A22.2013,22.2013 0 0 0 -48.0164,-5.3461 A34.8444,34.8444 0 0 0 -48.363,-0.4438 A31.5526,31.5526 0 0 0 -47.986,4.419 A22.1966,22.1966 0 0 0 -46.9858,8.3856 A21.4324,21.4324 0 0 0 -45.2694,12.0836 A16.9282,16.9282 0 0 0 -43.1143,14.9962 A16.4621,16.4621 0 0 0 -37.1158,19.1278 A20.3542,20.3542 0 0 0 -29.3882,20.5509 A26.7503,26.7503 0 0 0 -24.262,20.0765 A20.1416,20.1416 0 0 0 -19.5948,18.5616M13.8337,-5.6752 A15.4696,15.4696 0 0 0 13.9097,-7.2073 A11.4734,11.4734 0 0 0 12.6243,-12.6243 A12.933,12.933 0 0 0 9.0895,-16.8324 A16.8713,16.8713 0 0 0 3.7796,-19.5715 A21.5758,21.5758 0 0 0 -2.8309,-20.5509 A42.9272,42.9272 0 0 0 -4.7437,-20.505 A66.0545,66.0545 0 0 0 -6.7789,-20.3826 A102.483,102.483 0 0 0 -8.7529,-20.2142 A27.605,27.605 0 0 0 -10.482,-20 L-10.482,-15.1645 A25.7098,25.7098 0 0 1 -6.7024,-15.746 A49.9717,49.9717 0 0 1 -2.4024,-15.9296 A15.4722,15.4722 0 0 1 2.0046,-15.3481 A9.84638,9.84638 0 0 1 5.3405,-13.6802 A7.31803,7.31803 0 0 1 7.4522,-11.0482 A7.99269,7.99269 0 0 1 8.1867,-7.5746 A9.04251,9.04251 0 0 1 8.018,-5.8362 A5.98533,5.98533 0 0 1 7.5812,-4.484 A5.29797,5.29797 0 0 1 6.7361,-3.1882 A5.75588,5.75588 0 0 1 5.5088,-2.1423 A8.20584,8.20584 0 0 1 3.9428,-1.3691 A13.4855,13.4855 0 0 1 1.7842,-0.7743 A17.3563,17.3563 0 0 1 0.0173,-0.5354 A26.5999,26.5999 0 0 1 -2.1882,-0.4438 L-9.7781,-0.4438 L-9.7781,20 L11.7674,20 L11.7674,15.3481 L-4.759,15.3481 L-4.759,4.1163 L-1.2701,4.1163 A29.7874,29.7874 0 0 0 4.3305,3.596 A14.3813,14.3813 0 0 0 9.1813,1.7751 A10.0243,10.0243 0 0 0 12.609,-1.7138 A7.91817,7.91817 0 0 0 13.1958,-2.9248 A9.9391,9.9391 0 0 0 13.6272,-4.3692 A11.4908,11.4908 0 0 0 13.8337,-5.6752" style="fill:#000000;fill-rule:evenodd;"/>
    </g>
</svg>
