<?xml version="1.0" encoding="UTF-8"?>
<!-- 2020-10-26 14:47:46 Generated by QCAD 3.24.2 SVG Exporter PG -->
<svg width="212mm" height="212mm" viewBox="-106 -106 212 212" version="1.1" xmlns="http://www.w3.org/2000/svg" style="stroke-linecap:round;stroke-linejoin:round;fill:none">
    <g transform="scale(1,-1)">
        <!-- Schraffur -->
        <path d="M100,-85.5 L100,85.5 A14.5,14.5 0 0 1 85.5,100 L-85.5,100 A14.5,14.5 0 0 1 -100,85.5 L-100,-85.5 A14.5,14.5 0 0 1 -85.5,-100 L85.5,-100 A14.5,14.5 0 0 1 100,-85.5M-85.5,95 A9.5,9.5 0 0 1 -95,85.5 L-95,-85.5 A9.5,9.5 0 0 1 -85.5,-95 L85.5,-95 A9.5,9.5 0 0 1 95,-85.5 L95,85.5 A9.5,9.5 0 0 1 85.5,95 Z" style="fill:#000000;fill-rule:evenodd;"/>
        <!-- Kreisbogen -->
        <path d="M-0.429,4.4893 A1.6,1.6 0 1,1 0.371,4.4893" style="stroke:#000000;stroke-width:2;"/>
        <!-- Linie -->
        <line x1="-0.429" y1="4.4893" x2="-0.429" y2="18.9401" style="stroke:#000000;stroke-width:2;"/>
        <!-- Linie -->
        <line x1="-0.429" y1="18.9401" x2="-2.429" y2="34.9401" style="stroke:#000000;stroke-width:2;"/>
        <!-- Linie -->
        <line x1="-2.429" y1="34.9401" x2="-2.429" y2="50.9401" style="stroke:#000000;stroke-width:2;"/>
        <!-- Linie -->
        <line x1="-2.429" y1="50.9401" x2="2.371" y2="50.9401" style="stroke:#000000;stroke-width:2;"/>
        <!-- Linie -->
        <line x1="2.371" y1="50.9401" x2="2.371" y2="34.9401" style="stroke:#000000;stroke-width:2;"/>
        <!-- Linie -->
        <line x1="2.371" y1="34.9401" x2="0.371" y2="18.9401" style="stroke:#000000;stroke-width:2;"/>
        <!-- Linie -->
        <line x1="0.371" y1="18.9401" x2="0.371" y2="4.4893" style="stroke:#000000;stroke-width:2;"/>
        <!-- Schraffur -->
        <path d="M-2.429,50.9401 L2.371,50.9401 L2.371,34.9401 L0.371,18.9401 L0.371,4.4893 A1.6,1.6 0 1 0 -0.429,4.4893 L-0.429,18.9401 L-2.429,34.9401 Z" style="fill:#000000;fill-rule:evenodd;"/>
        <!-- Linie -->
        <line x1="80" y1="-36" x2="40" y2="44" style="stroke:#000000;stroke-width:2;"/>
        <!-- Linie -->
        <line x1="-40" y1="44" x2="-80" y2="-36" style="stroke:#000000;stroke-width:2;"/>
        <!-- Linie -->
        <line x1="-80" y1="-36" x2="-80" y2="-44" style="stroke:#000000;stroke-width:2;"/>
        <!-- Linie -->
        <line x1="-80" y1="-44" x2="80" y2="-44" style="stroke:#000000;stroke-width:2;"/>
        <!-- Linie -->
        <line x1="80" y1="-44" x2="80" y2="-36" style="stroke:#000000;stroke-width:2;"/>
        <!-- Linie -->
        <line x1="-40" y1="44" x2="40" y2="44" style="stroke:#000000;stroke-width:2;"/>
        <!-- Linie -->
        <line x1="-80" y1="-36" x2="80" y2="-36" style="stroke:#000000;stroke-width:2;"/>
        <!-- Kreisbogen -->
        <path d="M32,4 A8.1617,8.1617 0 0,1 31.5689,6.6174" style="stroke:#000000;stroke-width:2;"/>
        <!-- Kreisbogen -->
        <path d="M31.5689,6.6174 A8.7627,8.7627 0 0,1 31.0313,7.9071" style="stroke:#000000;stroke-width:2;"/>
        <!-- Kreisbogen -->
        <path d="M31.0313,7.9071 A10.2322,10.2322 0 0,1 30.3377,9.0898" style="stroke:#000000;stroke-width:2;"/>
        <!-- Kreisbogen -->
        <path d="M30.3377,9.0898 A11.965,11.965 0 0,1 29.401,10.3163" style="stroke:#000000;stroke-width:2;"/>
        <!-- Kreisbogen -->
        <path d="M29.401,10.3163 A14.3822,14.3822 0 0,1 28.049,11.7015" style="stroke:#000000;stroke-width:2;"/>
        <!-- Kreisbogen -->
        <path d="M28.049,11.7015 A18.0472,18.0472 0 0,1 25.8795,13.4108" style="stroke:#000000;stroke-width:2;"/>
        <!-- Kreisbogen -->
        <path d="M25.8795,13.4108 A24.3991,24.3991 0 0,1 21.6197,15.796" style="stroke:#000000;stroke-width:2;"/>
        <!-- Kreisbogen -->
        <path d="M21.6197,15.796 A57.6941,57.6941 0 0,1 0,20" style="stroke:#000000;stroke-width:2;"/>
        <!-- Kreisbogen -->
        <path d="M0,20 A57.6941,57.6941 0 0,1 -21.6197,15.796" style="stroke:#000000;stroke-width:2;"/>
        <!-- Kreisbogen -->
        <path d="M-21.6197,15.796 A24.3991,24.3991 0 0,1 -25.8795,13.4108" style="stroke:#000000;stroke-width:2;"/>
        <!-- Kreisbogen -->
        <path d="M-25.8795,13.4108 A18.0472,18.0472 0 0,1 -28.049,11.7015" style="stroke:#000000;stroke-width:2;"/>
        <!-- Kreisbogen -->
        <path d="M-28.049,11.7015 A14.3822,14.3822 0 0,1 -29.401,10.3163" style="stroke:#000000;stroke-width:2;"/>
        <!-- Kreisbogen -->
        <path d="M-29.401,10.3163 A11.965,11.965 0 0,1 -30.3377,9.0898" style="stroke:#000000;stroke-width:2;"/>
        <!-- Kreisbogen -->
        <path d="M-30.3377,9.0898 A10.2322,10.2322 0 0,1 -31.0313,7.9071" style="stroke:#000000;stroke-width:2;"/>
        <!-- Kreisbogen -->
        <path d="M-31.0313,7.9071 A8.7627,8.7627 0 0,1 -31.5689,6.6174" style="stroke:#000000;stroke-width:2;"/>
        <!-- Kreisbogen -->
        <path d="M-31.5689,6.6174 A8.1617,8.1617 0 0,1 -32,4" style="stroke:#000000;stroke-width:2;"/>
        <!-- Kreisbogen -->
        <path d="M-32,4 A8.1617,8.1617 0 0,1 -31.5689,1.3826" style="stroke:#000000;stroke-width:2;"/>
        <!-- Kreisbogen -->
        <path d="M-31.5689,1.3826 A8.7627,8.7627 0 0,1 -31.0313,0.0929" style="stroke:#000000;stroke-width:2;"/>
        <!-- Kreisbogen -->
        <path d="M-31.0313,0.0929 A10.2322,10.2322 0 0,1 -30.3377,-1.0898" style="stroke:#000000;stroke-width:2;"/>
        <!-- Kreisbogen -->
        <path d="M-30.3377,-1.0898 A11.965,11.965 0 0,1 -29.401,-2.3163" style="stroke:#000000;stroke-width:2;"/>
        <!-- Kreisbogen -->
        <path d="M-29.401,-2.3163 A14.3822,14.3822 0 0,1 -28.049,-3.7015" style="stroke:#000000;stroke-width:2;"/>
        <!-- Kreisbogen -->
        <path d="M-28.049,-3.7015 A18.0472,18.0472 0 0,1 -25.8795,-5.4108" style="stroke:#000000;stroke-width:2;"/>
        <!-- Kreisbogen -->
        <path d="M-25.8795,-5.4108 A24.3991,24.3991 0 0,1 -21.6197,-7.796" style="stroke:#000000;stroke-width:2;"/>
        <!-- Kreisbogen -->
        <path d="M-21.6197,-7.796 A57.6941,57.6941 0 0,1 0,-12" style="stroke:#000000;stroke-width:2;"/>
        <!-- Kreisbogen -->
        <path d="M0,-12 A57.6941,57.6941 0 0,1 21.6197,-7.796" style="stroke:#000000;stroke-width:2;"/>
        <!-- Kreisbogen -->
        <path d="M21.6197,-7.796 A24.3991,24.3991 0 0,1 25.8795,-5.4108" style="stroke:#000000;stroke-width:2;"/>
        <!-- Kreisbogen -->
        <path d="M25.8795,-5.4108 A18.0472,18.0472 0 0,1 28.049,-3.7015" style="stroke:#000000;stroke-width:2;"/>
        <!-- Kreisbogen -->
        <path d="M28.049,-3.7015 A14.3822,14.3822 0 0,1 29.401,-2.3163" style="stroke:#000000;stroke-width:2;"/>
        <!-- Kreisbogen -->
        <path d="M29.401,-2.3163 A11.965,11.965 0 0,1 30.3377,-1.0898" style="stroke:#000000;stroke-width:2;"/>
        <!-- Kreisbogen -->
        <path d="M30.3377,-1.0898 A10.2322,10.2322 0 0,1 31.0313,0.0929" style="stroke:#000000;stroke-width:2;"/>
        <!-- Kreisbogen -->
        <path d="M31.0313,0.0929 A8.7627,8.7627 0 0,1 31.5689,1.3826" style="stroke:#000000;stroke-width:2;"/>
        <!-- Kreisbogen -->
        <path d="M31.5689,1.3826 A8.1617,8.1617 0 0,1 32,4" style="stroke:#000000;stroke-width:2;"/>
        <!-- Kreisbogen -->
        <path d="M30.9838,-0.0001 A10.232,10.232 0 0,1 30.3375,1.0899" style="stroke:#000000;stroke-width:2;"/>
        <!-- Kreisbogen -->
        <path d="M30.3375,1.0899 A11.965,11.965 0 0,1 29.4008,2.3164" style="stroke:#000000;stroke-width:2;"/>
        <!-- Kreisbogen -->
        <path d="M29.4008,2.3164 A14.3822,14.3822 0 0,1 28.0489,3.7016" style="stroke:#000000;stroke-width:2;"/>
        <!-- Kreisbogen -->
        <path d="M28.0489,3.7016 A18.0472,18.0472 0 0,1 25.8793,5.4109" style="stroke:#000000;stroke-width:2;"/>
        <!-- Kreisbogen -->
        <path d="M25.8793,5.4109 A24.3991,24.3991 0 0,1 21.6196,7.7962" style="stroke:#000000;stroke-width:2;"/>
        <!-- Kreisbogen -->
        <path d="M21.6196,7.7962 A57.6941,57.6941 0 0,1 -0.0002,12.0001" style="stroke:#000000;stroke-width:2;"/>
        <!-- Kreisbogen -->
        <path d="M-0.0002,12.0001 A57.6941,57.6941 0 0,1 -21.6199,7.7962" style="stroke:#000000;stroke-width:2;"/>
        <!-- Kreisbogen -->
        <path d="M-21.6199,7.7962 A24.3991,24.3991 0 0,1 -25.8797,5.4109" style="stroke:#000000;stroke-width:2;"/>
        <!-- Kreisbogen -->
        <path d="M-25.8797,5.4109 A18.0472,18.0472 0 0,1 -28.0492,3.7016" style="stroke:#000000;stroke-width:2;"/>
        <!-- Kreisbogen -->
        <path d="M-28.0492,3.7016 A14.3822,14.3822 0 0,1 -29.4012,2.3164" style="stroke:#000000;stroke-width:2;"/>
        <!-- Kreisbogen -->
        <path d="M-29.4012,2.3164 A11.965,11.965 0 0,1 -30.3379,1.0899" style="stroke:#000000;stroke-width:2;"/>
        <!-- Kreisbogen -->
        <path d="M-30.3379,1.0899 A10.232,10.232 0 0,1 -30.984,0.0002" style="stroke:#000000;stroke-width:2;"/>
    </g>
</svg>
