  0
SECTION
  2
HEADER
  9
$ACADVER
  1
AC1027
  9
$ACADMAINTVER
 70
   105
  9
$DWGCODEPAGE
  3
ANSI_1252
  9
$LASTSAVEDBY
  1
admin
  9
$REQUIREDVERSIONS
160
                 0
  9
$INSBASE
 10
0.0
 20
0.0
 30
0.0
  9
$EXTMIN
 10
-100.0
 20
-100.0
 30
0.0
  9
$EXTMAX
 10
100.0
 20
100.0
 30
0.0
  9
$LIMMIN
 10
0.0
 20
0.0
  9
$LIMMAX
 10
12.0
 20
9.0
  9
$ORTHOMODE
 70
     0
  9
$REGENMODE
 70
     1
  9
$FILLMODE
 70
     1
  9
$QTEXTMODE
 70
     0
  9
$MIRRTEXT
 70
     1
  9
$LTSCALE
 40
1.0
  9
$ATTMODE
 70
     1
  9
$TEXTSIZE
 40
0.2
  9
$TRACEWID
 40
0.05
  9
$TEXTSTYLE
  7
Standard
  9
$CLAYER
  8
0
  9
$CELTYPE
  6
ByLayer
  9
$CECOLOR
 62
   256
  9
$CELTSCALE
 40
1.0
  9
$DISPSILH
 70
     0
  9
$DIMSCALE
 40
1.0
  9
$DIMASZ
 40
2.5
  9
$DIMEXO
 40
0.625
  9
$DIMDLI
 40
5.0
  9
$DIMRND
 40
0.0
  9
$DIMDLE
 40
0.0
  9
$DIMEXE
 40
1.25
  9
$DIMTP
 40
0.0
  9
$DIMTM
 40
0.0
  9
$DIMTXT
 40
2.5
  9
$DIMCEN
 40
0.09
  9
$DIMTSZ
 40
0.0
  9
$DIMTOL
 70
     0
  9
$DIMLIM
 70
     0
  9
$DIMTIH
 70
     1
  9
$DIMTOH
 70
     1
  9
$DIMSE1
 70
     0
  9
$DIMSE2
 70
     0
  9
$DIMTAD
 70
     0
  9
$DIMZIN
 70
     8
  9
$DIMBLK
  1

  9
$DIMASO
 70
     1
  9
$DIMSHO
 70
     1
  9
$DIMPOST
  1

  9
$DIMAPOST
  1

  9
$DIMALT
 70
     0
  9
$DIMALTD
 70
     2
  9
$DIMALTF
 40
25.4
  9
$DIMLFAC
 40
1.0
  9
$DIMTOFL
 70
     0
  9
$DIMTVP
 40
0.0
  9
$DIMTIX
 70
     0
  9
$DIMSOXD
 70
     0
  9
$DIMSAH
 70
     0
  9
$DIMBLK1
  1

  9
$DIMBLK2
  1

  9
$DIMSTYLE
  2
Standard
  9
$DIMCLRD
 70
   178
  9
$DIMCLRE
 70
   178
  9
$DIMCLRT
 70
   178
  9
$DIMTFAC
 40
1.0
  9
$DIMGAP
 40
0.625
  9
$DIMJUST
 70
     0
  9
$DIMSD1
 70
     0
  9
$DIMSD2
 70
     0
  9
$DIMTOLJ
 70
     1
  9
$DIMTZIN
 70
     0
  9
$DIMALTZ
 70
     0
  9
$DIMALTTZ
 70
     0
  9
$DIMUPT
 70
     0
  9
$DIMDEC
 70
     4
  9
$DIMTDEC
 70
     4
  9
$DIMALTU
 70
     2
  9
$DIMALTTD
 70
     2
  9
$DIMTXSTY
  7
Standard
  9
$DIMAUNIT
 70
     0
  9
$DIMADEC
 70
     0
  9
$DIMALTRND
 40
0.0
  9
$DIMAZIN
 70
     2
  9
$DIMDSEP
 70
    46
  9
$DIMATFIT
 70
     3
  9
$DIMFRAC
 70
     0
  9
$DIMLDRBLK
  1

  9
$DIMLUNIT
 70
     2
  9
$DIMLWD
 70
    -2
  9
$DIMLWE
 70
    -2
  9
$DIMTMOVE
 70
     0
  9
$DIMFXL
 40
1.0
  9
$DIMFXLON
 70
     0
  9
$DIMJOGANG
 40
0.7853981633974483
  9
$DIMTFILL
 70
     0
  9
$DIMTFILLCLR
 70
     0
  9
$DIMARCSYM
 70
     0
  9
$DIMLTYPE
  6

  9
$DIMLTEX1
  6

  9
$DIMLTEX2
  6

  9
$DIMTXTDIRECTION
 70
     0
  9
$LUNITS
 70
     2
  9
$LUPREC
 70
     4
  9
$SKETCHINC
 40
0.1
  9
$FILLETRAD
 40
0.5
  9
$AUNITS
 70
     0
  9
$AUPREC
 70
     0
  9
$MENU
  1
.
  9
$ELEVATION
 40
0.0
  9
$PELEVATION
 40
0.0
  9
$THICKNESS
 40
0.0
  9
$LIMCHECK
 70
     0
  9
$CHAMFERA
 40
0.0
  9
$CHAMFERB
 40
0.0
  9
$CHAMFERC
 40
0.0
  9
$CHAMFERD
 40
0.0
  9
$SKPOLY
 70
     0
  9
$TDCREATE
 40
2459149.647096898
  9
$TDUCREATE
 40
2459149.605430231
  9
$TDUPDATE
 40
2459149.647096933
  9
$TDUUPDATE
 40
2459149.605430266
  9
$TDINDWG
 40
0.0000000116
  9
$TDUSRTIMER
 40
0.0000000116
  9
$USRTIMER
 70
     1
  9
$ANGBASE
 50
0.0
  9
$ANGDIR
 70
     0
  9
$PDMODE
 70
     0
  9
$PDSIZE
 40
0.0
  9
$PLINEWID
 40
0.0
  9
$SPLFRAME
 70
     0
  9
$SPLINETYPE
 70
     6
  9
$SPLINESEGS
 70
     8
  9
$HANDSEED
  5
109A
  9
$SURFTAB1
 70
     6
  9
$SURFTAB2
 70
     6
  9
$SURFTYPE
 70
     6
  9
$SURFU
 70
     6
  9
$SURFV
 70
     6
  9
$UCSBASE
  2

  9
$UCSNAME
  2

  9
$UCSORG
 10
0.0
 20
0.0
 30
0.0
  9
$UCSXDIR
 10
1.0
 20
0.0
 30
0.0
  9
$UCSYDIR
 10
0.0
 20
1.0
 30
0.0
  9
$UCSORTHOREF
  2

  9
$UCSORTHOVIEW
 70
     0
  9
$UCSORGTOP
 10
0.0
 20
0.0
 30
0.0
  9
$UCSORGBOTTOM
 10
0.0
 20
0.0
 30
0.0
  9
$UCSORGLEFT
 10
0.0
 20
0.0
 30
0.0
  9
$UCSORGRIGHT
 10
0.0
 20
0.0
 30
0.0
  9
$UCSORGFRONT
 10
0.0
 20
0.0
 30
0.0
  9
$UCSORGBACK
 10
0.0
 20
0.0
 30
0.0
  9
$PUCSBASE
  2

  9
$PUCSNAME
  2

  9
$PUCSORG
 10
0.0
 20
0.0
 30
0.0
  9
$PUCSXDIR
 10
1.0
 20
0.0
 30
0.0
  9
$PUCSYDIR
 10
0.0
 20
1.0
 30
0.0
  9
$PUCSORTHOREF
  2

  9
$PUCSORTHOVIEW
 70
     0
  9
$PUCSORGTOP
 10
0.0
 20
0.0
 30
0.0
  9
$PUCSORGBOTTOM
 10
0.0
 20
0.0
 30
0.0
  9
$PUCSORGLEFT
 10
0.0
 20
0.0
 30
0.0
  9
$PUCSORGRIGHT
 10
0.0
 20
0.0
 30
0.0
  9
$PUCSORGFRONT
 10
0.0
 20
0.0
 30
0.0
  9
$PUCSORGBACK
 10
0.0
 20
0.0
 30
0.0
  9
$USERI1
 70
     0
  9
$USERI2
 70
     0
  9
$USERI3
 70
     0
  9
$USERI4
 70
     0
  9
$USERI5
 70
     0
  9
$USERR1
 40
0.0
  9
$USERR2
 40
0.0
  9
$USERR3
 40
0.0
  9
$USERR4
 40
0.0
  9
$USERR5
 40
0.0
  9
$WORLDVIEW
 70
     1
  9
$SHADEDGE
 70
     3
  9
$SHADEDIF
 70
    70
  9
$TILEMODE
 70
     1
  9
$MAXACTVP
 70
    64
  9
$PINSBASE
 10
0.0
 20
0.0
 30
0.0
  9
$PLIMCHECK
 70
     0
  9
$PEXTMIN
 10
0.0
 20
0.0
 30
0.0
  9
$PEXTMAX
 10
0.0
 20
0.0
 30
0.0
  9
$PLIMMIN
 10
-20.0
 20
-7.5
  9
$PLIMMAX
 10
277.0
 20
202.5
  9
$UNITMODE
 70
     0
  9
$VISRETAIN
 70
     1
  9
$PLINEGEN
 70
     0
  9
$PSLTSCALE
 70
     1
  9
$TREEDEPTH
 70
  3020
  9
$CMLSTYLE
  2
Standard
  9
$CMLJUST
 70
     0
  9
$CMLSCALE
 40
1.0
  9
$PROXYGRAPHICS
 70
     1
  9
$MEASUREMENT
 70
     1
  9
$CELWEIGHT
370
    -1
  9
$ENDCAPS
280
     0
  9
$JOINSTYLE
280
     0
  9
$LWDISPLAY
290
     0
  9
$INSUNITS
 70
     4
  9
$HYPERLINKBASE
  1

  9
$STYLESHEET
  1

  9
$XEDIT
290
     1
  9
$CEPSNTYPE
380
     0
  9
$PSTYLEMODE
290
     1
  9
$FINGERPRINTGUID
  2
{235f0dca-6da0-ca40-bb71-5fcfe6a01798}
  9
$VERSIONGUID
  2
{FAEB1C32-E019-11D5-929B-00C0DF256EC4}
  9
$EXTNAMES
290
     1
  9
$PSVPSCALE
 40
0.0
  9
$OLESTARTUP
290
     0
  9
$SORTENTS
280
   127
  9
$INDEXCTL
280
     0
  9
$HIDETEXT
280
     1
  9
$XCLIPFRAME
280
     2
  9
$HALOGAP
280
     0
  9
$OBSCOLOR
 70
   257
  9
$OBSLTYPE
280
     0
  9
$INTERSECTIONDISPLAY
280
     0
  9
$INTERSECTIONCOLOR
 70
   257
  9
$DIMASSOC
280
     2
  9
$PROJECTNAME
  1

  9
$CAMERADISPLAY
290
     0
  9
$LENSLENGTH
 40
50.0
  9
$CAMERAHEIGHT
 40
0.0
  9
$STEPSPERSEC
 40
2.0
  9
$STEPSIZE
 40
6.0
  9
$3DDWFPREC
 40
2.0
  9
$PSOLWIDTH
 40
0.25
  9
$PSOLHEIGHT
 40
4.0
  9
$LOFTANG1
 40
1.570796326794897
  9
$LOFTANG2
 40
1.570796326794897
  9
$LOFTMAG1
 40
0.0
  9
$LOFTMAG2
 40
0.0
  9
$LOFTPARAM
 70
     7
  9
$LOFTNORMALS
280
     1
  9
$LATITUDE
 40
37.795
  9
$LONGITUDE
 40
-122.394
  9
$NORTHDIRECTION
 40
0.0
  9
$TIMEZONE
 70
 -8000
  9
$LIGHTGLYPHDISPLAY
280
     1
  9
$TILEMODELIGHTSYNCH
280
     1
  9
$CMATERIAL
347
FE8
  9
$SOLIDHIST
280
     0
  9
$SHOWHIST
280
     1
  9
$DWFFRAME
280
     2
  9
$DGNFRAME
280
     2
  9
$REALWORLDSCALE
290
     1
  9
$INTERFERECOLOR
 62
   256
  9
$CSHADOW
280
     0
  9
$SHADOWPLANELOCATION
 40
0.0
  0
ENDSEC
  0
SECTION
  2
CLASSES
  0
CLASS
  1
ACDBDICTIONARYWDFLT
  2
AcDbDictionaryWithDefault
  3
ObjectDBX Classes
 90
        0
 91
        3
280
     0
281
     0
  0
CLASS
  1
VISUALSTYLE
  2
AcDbVisualStyle
  3
ObjectDBX Classes
 90
     4095
 91
        3
280
     0
281
     0
  0
CLASS
  1
MATERIAL
  2
AcDbMaterial
  3
ObjectDBX Classes
 90
     1153
 91
        3
280
     0
281
     0
  0
CLASS
  1
SCALE
  2
AcDbScale
  3
ObjectDBX Classes
 90
     1153
 91
        3
280
     0
281
     0
  0
CLASS
  1
TABLESTYLE
  2
AcDbTableStyle
  3
ObjectDBX Classes
 90
     4095
 91
        3
280
     0
281
     0
  0
CLASS
  1
MLEADERSTYLE
  2
AcDbMLeaderStyle
  3
ACDB_MLEADERSTYLE_CLASS
 90
     4095
 91
        3
280
     0
281
     0
  0
CLASS
  1
SUN
  2
AcDbSun
  3
SCENEOE
 90
     1153
 91
        3
280
     0
281
     0
  0
CLASS
  1
DICTIONARYVAR
  2
AcDbDictionaryVar
  3
ObjectDBX Classes
 90
        0
 91
        3
280
     0
281
     0
  0
CLASS
  1
CELLSTYLEMAP
  2
AcDbCellStyleMap
  3
ObjectDBX Classes
 90
     1152
 91
        3
280
     0
281
     0
  0
ENDSEC
  0
SECTION
  2
TABLES
  0
TABLE
  2
VPORT
  5
FAD
330
0
100
AcDbSymbolTable
 70
     1
  0
VPORT
  5
FCD
330
FAD
100
AcDbSymbolTableRecord
100
AcDbViewportTableRecord
  2
*Active
 70
     0
 10
0.0
 20
0.0
 11
1.0
 21
1.0
 12
-59.92152655663449
 22
184.8590897313915
 13
0.0
 23
0.0
 14
0.5
 24
0.5
 15
0.5
 25
0.5
 16
0.0
 26
0.0
 36
1.0
 17
0.0
 27
0.0
 37
0.0
 40
875.8708231456308
 41
1.725766362883181
 42
50.0
 43
0.0
 44
0.0
 50
0.0
 51
0.0
 71
     0
 72
   100
 73
     1
 74
     3
 75
     0
 76
     0
 77
     0
 78
     0
281
     0
 65
     1
110
0.0
120
0.0
130
0.0
111
1.0
121
0.0
131
0.0
112
0.0
122
1.0
132
0.0
 79
     0
146
0.0
348
FD3
 60
     3
 61
     5
292
     1
282
     1
141
0.0
142
0.0
 63
   250
361
1011
  0
ENDTAB
  0
TABLE
  2
LTYPE
  5
FAA
330
0
100
AcDbSymbolTable
 70
    52
  0
LTYPE
  5
FB8
330
FAA
100
AcDbSymbolTableRecord
100
AcDbLinetypeTableRecord
  2
ByBlock
 70
     0
  3

 72
    65
 73
     0
 40
0.0
  0
LTYPE
  5
FB9
330
FAA
100
AcDbSymbolTableRecord
100
AcDbLinetypeTableRecord
  2
ByLayer
 70
     0
  3

 72
    65
 73
     0
 40
0.0
  0
LTYPE
  5
FBA
330
FAA
100
AcDbSymbolTableRecord
100
AcDbLinetypeTableRecord
  2
Continuous
 70
     0
  3
Solid line
 72
    65
 73
     0
 40
0.0
  0
LTYPE
  5
104E
330
FAA
100
AcDbSymbolTableRecord
100
AcDbLinetypeTableRecord
  2
CUTLEFT2
 70
     0
  3
G41 reversed----/----/----/----
 72
    65
 73
     2
 40
10.16
 49
5.08
 74
     2
 75
     0
340
104D
 46
2.54
 50
0.0
 44
0.0
 45
0.0
  9
LRIGHT_ARROW
 49
5.08
 74
     0
  0
LTYPE
  5
104F
330
FAA
100
AcDbSymbolTableRecord
100
AcDbLinetypeTableRecord
  2
ACAD_ISO11W100
 70
     0
  3
ISO double-dash dot __ __ . __ __ . __ __ . __ _
 72
    65
 73
     6
 40
33.0
 49
12.0
 74
     0
 49
-3.0
 74
     0
 49
12.0
 74
     0
 49
-3.0
 74
     0
 49
0.0
 74
     0
 49
-3.0
 74
     0
  0
LTYPE
  5
1050
330
FAA
100
AcDbSymbolTableRecord
100
AcDbLinetypeTableRecord
  2
ACAD_ISO10W100
 70
     0
  3
ISO dash dot __ . __ . __ . __ . __ . __ . __ . 
 72
    65
 73
     4
 40
18.0
 49
12.0
 74
     0
 49
-3.0
 74
     0
 49
0.0
 74
     0
 49
-3.0
 74
     0
  0
LTYPE
  5
1051
330
FAA
100
AcDbSymbolTableRecord
100
AcDbLinetypeTableRecord
  2
ACAD_ISO13W100
 70
     0
  3
ISO double-dash double-dot __ __ . . __ __ . . _
 72
    65
 73
     8
 40
36.0
 49
12.0
 74
     0
 49
-3.0
 74
     0
 49
12.0
 74
     0
 49
-3.0
 74
     0
 49
0.0
 74
     0
 49
-3.0
 74
     0
 49
0.0
 74
     0
 49
-3.0
 74
     0
  0
LTYPE
  5
1052
330
FAA
100
AcDbSymbolTableRecord
100
AcDbLinetypeTableRecord
  2
ACAD_ISO12W100
 70
     0
  3
ISO dash double-dot __ . . __ . . __ . . __ . . 
 72
    65
 73
     6
 40
21.0
 49
12.0
 74
     0
 49
-3.0
 74
     0
 49
0.0
 74
     0
 49
-3.0
 74
     0
 49
0.0
 74
     0
 49
-3.0
 74
     0
  0
LTYPE
  5
1053
330
FAA
100
AcDbSymbolTableRecord
100
AcDbLinetypeTableRecord
  2
ACAD_ISO15W100
 70
     0
  3
ISO double-dash triple-dot __ __ . . . __ __ . .
 72
    65
 73
    10
 40
39.0
 49
12.0
 74
     0
 49
-3.0
 74
     0
 49
12.0
 74
     0
 49
-3.0
 74
     0
 49
0.0
 74
     0
 49
-3.0
 74
     0
 49
0.0
 74
     0
 49
-3.0
 74
     0
 49
0.0
 74
     0
 49
-3.0
 74
     0
  0
LTYPE
  5
1054
330
FAA
100
AcDbSymbolTableRecord
100
AcDbLinetypeTableRecord
  2
ACAD_ISO14W100
 70
     0
  3
ISO dash triple-dot __ . . . __ . . . __ . . . _
 72
    65
 73
     8
 40
24.0
 49
12.0
 74
     0
 49
-3.0
 74
     0
 49
0.0
 74
     0
 49
-3.0
 74
     0
 49
0.0
 74
     0
 49
-3.0
 74
     0
 49
0.0
 74
     0
 49
-3.0
 74
     0
  0
LTYPE
  5
1055
330
FAA
100
AcDbSymbolTableRecord
100
AcDbLinetypeTableRecord
  2
BORDER
 70
     0
  3
Border __ __ . __ __ . __ __ . __ __ . __ __ .
 72
    65
 73
     6
 40
44.45
 49
12.7
 74
     0
 49
-6.35
 74
     0
 49
12.7
 74
     0
 49
-6.35
 74
     0
 49
0.0
 74
     0
 49
-6.35
 74
     0
  0
LTYPE
  5
1058
330
FAA
100
AcDbSymbolTableRecord
100
AcDbLinetypeTableRecord
  2
BATTING
 70
     0
  3
Batting SSSSSSSSSSSSSSSSSSSSSSSSSSSSSSSSSSSSSSSSSSSSSSS
 72
    65
 73
     4
 40
10.16254
 49
0.00254
 74
     0
 49
-2.54
 74
     2
 75
     0
340
1056
 46
2.54
 50
0.0
 44
-2.54
 45
0.0
  9
BAT
 49
-5.08
 74
     2
 75
     0
340
1057
 46
2.54
 50
180.0
 44
2.54
 45
0.0
  9
BAT
 49
-2.54
 74
     0
  0
LTYPE
  5
1059
330
FAA
100
AcDbSymbolTableRecord
100
AcDbLinetypeTableRecord
  2
ACAD_ISO03W100
 70
     0
  3
ISO dash space __    __    __    __    __    __
 72
    65
 73
     2
 40
30.0
 49
12.0
 74
     0
 49
-18.0
 74
     0
  0
LTYPE
  5
105A
330
FAA
100
AcDbSymbolTableRecord
100
AcDbLinetypeTableRecord
  2
ACAD_ISO02W100
 70
     0
  3
ISO dash __ __ __ __ __ __ __ __ __ __ __ __ __
 72
    65
 73
     2
 40
15.0
 49
12.0
 74
     0
 49
-3.0
 74
     0
  0
LTYPE
  5
105B
330
FAA
100
AcDbSymbolTableRecord
100
AcDbLinetypeTableRecord
  2
ACAD_ISO05W100
 70
     0
  3
ISO long-dash double-dot ____ .. ____ .. ____ . 
 72
    65
 73
     6
 40
33.0
 49
24.0
 74
     0
 49
-3.0
 74
     0
 49
0.0
 74
     0
 49
-3.0
 74
     0
 49
0.0
 74
     0
 49
-3.0
 74
     0
  0
LTYPE
  5
105C
330
FAA
100
AcDbSymbolTableRecord
100
AcDbLinetypeTableRecord
  2
ACAD_ISO04W100
 70
     0
  3
ISO long-dash dot ____ . ____ . ____ . ____ . _
 72
    65
 73
     4
 40
30.0
 49
24.0
 74
     0
 49
-3.0
 74
     0
 49
0.0
 74
     0
 49
-3.0
 74
     0
  0
LTYPE
  5
105D
330
FAA
100
AcDbSymbolTableRecord
100
AcDbLinetypeTableRecord
  2
ACAD_ISO07W100
 70
     0
  3
ISO dot . . . . . . . . . . . . . . . . . . . . 
 72
    65
 73
     2
 40
3.0
 49
0.0
 74
     0
 49
-3.0
 74
     0
  0
LTYPE
  5
105E
330
FAA
100
AcDbSymbolTableRecord
100
AcDbLinetypeTableRecord
  2
ACAD_ISO06W100
 70
     0
  3
ISO long-dash triple-dot ____ ... ____ ... ____
 72
    65
 73
     8
 40
36.0
 49
24.0
 74
     0
 49
-3.0
 74
     0
 49
0.0
 74
     0
 49
-3.0
 74
     0
 49
0.0
 74
     0
 49
-3.0
 74
     0
 49
0.0
 74
     0
 49
-3.0
 74
     0
  0
LTYPE
  5
105F
330
FAA
100
AcDbSymbolTableRecord
100
AcDbLinetypeTableRecord
  2
ACAD_ISO09W100
 70
     0
  3
ISO long-dash double-short-dash ____ __ __ ____
 72
    65
 73
     6
 40
45.0
 49
24.0
 74
     0
 49
-3.0
 74
     0
 49
6.0
 74
     0
 49
-3.0
 74
     0
 49
6.0
 74
     0
 49
-3.0
 74
     0
  0
LTYPE
  5
1060
330
FAA
100
AcDbSymbolTableRecord
100
AcDbLinetypeTableRecord
  2
ACAD_ISO08W100
 70
     0
  3
ISO long-dash short-dash ____ __ ____ __ ____ _
 72
    65
 73
     4
 40
36.0
 49
24.0
 74
     0
 49
-3.0
 74
     0
 49
6.0
 74
     0
 49
-3.0
 74
     0
  0
LTYPE
  5
1062
330
FAA
100
AcDbSymbolTableRecord
100
AcDbLinetypeTableRecord
  2
TRACKS
 70
     0
  3
Tracks -|-|-|-|-|-|-|-|-|-|-|-|-|-|-|-|-|-|-|-|-|-|-|-|-
 72
    65
 73
     2
 40
7.62
 49
3.81
 74
     2
 75
     0
340
1061
 46
6.35
 50
0.0
 44
0.0
 45
0.0
  9
TRACK1
 49
3.81
 74
     0
  0
LTYPE
  5
1063
330
FAA
100
AcDbSymbolTableRecord
100
AcDbLinetypeTableRecord
  2
PHANTOMX2
 70
     0
  3
Phantom (2x) ____________    ____    ____   _
 72
    65
 73
     6
 40
127.0
 49
63.5
 74
     0
 49
-12.7
 74
     0
 49
12.7
 74
     0
 49
-12.7
 74
     0
 49
12.7
 74
     0
 49
-12.7
 74
     0
  0
LTYPE
  5
1066
330
FAA
100
AcDbSymbolTableRecord
100
AcDbLinetypeTableRecord
  2
ZIGZAG
 70
     0
  3
Zig zag /\/\/\/\/\/\/\/\/\/\/\/\/\/\/\/\/\/\/\/\/\/\/\/
 72
    65
 73
     4
 40
20.32254
 49
0.00254
 74
     0
 49
-5.08
 74
     2
 75
     0
340
1064
 46
5.08
 50
0.0
 44
-5.08
 45
0.0
  9
ZIG
 49
-10.16
 74
     2
 75
     0
340
1065
 46
5.08
 50
180.0
 44
5.08
 45
0.0
  9
ZIG
 49
-5.08
 74
     0
  0
LTYPE
  5
1068
330
FAA
100
AcDbSymbolTableRecord
100
AcDbLinetypeTableRecord
  2
GAS_LINE
 70
     0
  3
Gas line ----GAS----GAS----GAS----GAS----GAS----GAS--
 72
    65
 73
     3
 40
24.13
 49
12.7
 74
     0
 49
-5.08
 74
     2
 75
     0
340
1067
 46
2.54
 50
0.0
 44
-2.54
 45
-1.27
  9
GAS
 49
-6.35
 74
     0
  0
LTYPE
  5
106A
330
FAA
100
AcDbSymbolTableRecord
100
AcDbLinetypeTableRecord
  2
FENCELINE2
 70
     0
  3
Fenceline square ----[]-----[]----[]-----[]----[]---
 72
    65
 73
     4
 40
36.83
 49
6.35
 74
     0
 49
-2.54
 74
     2
 75
     0
340
1069
 46
2.54
 50
0.0
 44
-2.54
 45
0.0
  9
BOX
 49
-2.54
 74
     0
 49
25.4
 74
     0
  0
LTYPE
  5
106B
330
FAA
100
AcDbSymbolTableRecord
100
AcDbLinetypeTableRecord
  2
HIDDEN2
 70
     0
  3
Hidden (.5x) _ _ _ _ _ _ _ _ _ _ _ _ _ _ _ _ _ 
 72
    65
 73
     2
 40
4.762499999999999
 49
3.175
 74
     0
 49
-1.5875
 74
     0
  0
LTYPE
  5
106C
330
FAA
100
AcDbSymbolTableRecord
100
AcDbLinetypeTableRecord
  2
HIDDEN
 70
     0
  3
Hidden __ __ __ __ __ __ __ __ __ __ __ __ __ __
 72
    65
 73
     2
 40
9.524999999999999
 49
6.35
 74
     0
 49
-3.175
 74
     0
  0
LTYPE
  5
106E
330
FAA
100
AcDbSymbolTableRecord
100
AcDbLinetypeTableRecord
  2
HOT_WATER_SUPPLY
 70
     0
  3
Hot water supply ---- HW ---- HW ---- HW ----
 72
    65
 73
     3
 40
22.86
 49
12.7
 74
     0
 49
-5.08
 74
     2
 75
     0
340
106D
 46
2.54
 50
0.0
 44
-2.54
 45
-1.27
  9
HW
 49
-5.08
 74
     0
  0
LTYPE
  5
106F
330
FAA
100
AcDbSymbolTableRecord
100
AcDbLinetypeTableRecord
  2
HIDDENX2
 70
     0
  3
Hidden (2x) ____ ____ ____ ____ ____ ____ ____ 
 72
    65
 73
     2
 40
19.05
 49
12.7
 74
     0
 49
-6.35
 74
     0
  0
LTYPE
  5
1070
330
FAA
100
AcDbSymbolTableRecord
100
AcDbLinetypeTableRecord
  2
PHANTOM2
 70
     0
  3
Phantom (.5x) ___ _ _ ___ _ _ ___ _ _ ___ _ _
 72
    65
 73
     6
 40
31.75
 49
15.875
 74
     0
 49
-3.175
 74
     0
 49
3.175
 74
     0
 49
-3.175
 74
     0
 49
3.175
 74
     0
 49
-3.175
 74
     0
  0
LTYPE
  5
1071
330
FAA
100
AcDbSymbolTableRecord
100
AcDbLinetypeTableRecord
  2
PHANTOM
 70
     0
  3
Phantom ______  __  __  ______  __  __  ______ 
 72
    65
 73
     6
 40
63.50000000000001
 49
31.75
 74
     0
 49
-6.35
 74
     0
 49
6.35
 74
     0
 49
-6.35
 74
     0
 49
6.35
 74
     0
 49
-6.35
 74
     0
  0
LTYPE
  5
1072
330
FAA
100
AcDbSymbolTableRecord
100
AcDbLinetypeTableRecord
  2
DIVIDEX2
 70
     0
  3
Divide (2x) ________  .  .  ________  .  .  _
 72
    65
 73
     6
 40
63.5
 49
25.4
 74
     0
 49
-12.7
 74
     0
 49
0.0
 74
     0
 49
-12.7
 74
     0
 49
0.0
 74
     0
 49
-12.7
 74
     0
  0
LTYPE
  5
1073
330
FAA
100
AcDbSymbolTableRecord
100
AcDbLinetypeTableRecord
  2
DIVIDE2
 70
     0
  3
Divide (.5x) __..__..__..__..__..__..__..__.._
 72
    65
 73
     6
 40
15.875
 49
6.35
 74
     0
 49
-3.175
 74
     0
 49
0.0
 74
     0
 49
-3.175
 74
     0
 49
0.0
 74
     0
 49
-3.175
 74
     0
  0
LTYPE
  5
1074
330
FAA
100
AcDbSymbolTableRecord
100
AcDbLinetypeTableRecord
  2
DOT2
 70
     0
  3
Dot (.5x) ........................................
 72
    65
 73
     2
 40
3.175
 49
0.0
 74
     0
 49
-3.175
 74
     0
  0
LTYPE
  5
1075
330
FAA
100
AcDbSymbolTableRecord
100
AcDbLinetypeTableRecord
  2
DOT
 70
     0
  3
Dot . . . . . . . . . . . . . . . . . . . . . . . .
 72
    65
 73
     2
 40
6.35
 49
0.0
 74
     0
 49
-6.35
 74
     0
  0
LTYPE
  5
1077
330
FAA
100
AcDbSymbolTableRecord
100
AcDbLinetypeTableRecord
  2
DRAINAGE
 70
     0
  3
Drainage ---->---->---->----
 72
    65
 73
     2
 40
10.16
 49
5.08
 74
     2
 75
     0
340
1076
 46
2.54
 50
180.0
 44
0.0
 45
0.0
  9
RIGHT_ARROW
 49
5.08
 74
     0
  0
LTYPE
  5
1078
330
FAA
100
AcDbSymbolTableRecord
100
AcDbLinetypeTableRecord
  2
DOTX2
 70
     0
  3
Dot (2x) .  .  .  .  .  .  .  .  .  .  .  .  .  .
 72
    65
 73
     2
 40
12.7
 49
0.0
 74
     0
 49
-12.7
 74
     0
  0
LTYPE
  5
107A
330
FAA
100
AcDbSymbolTableRecord
100
AcDbLinetypeTableRecord
  2
FENCELINE1
 70
     0
  3
Fenceline circle ----0-----0----0-----0----0-----0--
 72
    65
 73
     4
 40
36.83
 49
6.35
 74
     0
 49
-2.54
 74
     2
 75
     0
340
1079
 46
2.54
 50
0.0
 44
-2.54
 45
0.0
  9
CIRC1
 49
-2.54
 74
     0
 49
25.4
 74
     0
  0
LTYPE
  5
107C
330
FAA
100
AcDbSymbolTableRecord
100
AcDbLinetypeTableRecord
  2
DRAINAGE2
 70
     0
  3
Drainage reversed----<----<----<----
 72
    65
 73
     2
 40
10.16
 49
5.08
 74
     2
 75
     0
340
107B
 46
2.54
 50
0.0
 44
0.0
 45
0.0
  9
RIGHT_ARROW
 49
5.08
 74
     0
  0
LTYPE
  5
107D
330
FAA
100
AcDbSymbolTableRecord
100
AcDbLinetypeTableRecord
  2
DASHDOT
 70
     0
  3
Dash dot __ . __ . __ . __ . __ . __ . __ . __
 72
    65
 73
     4
 40
25.4
 49
12.7
 74
     0
 49
-6.35
 74
     0
 49
0.0
 74
     0
 49
-6.35
 74
     0
  0
LTYPE
  5
107F
330
FAA
100
AcDbSymbolTableRecord
100
AcDbLinetypeTableRecord
  2
CUTRIGHT2
 70
     0
  3
G42 reversed----\----\----\----
 72
    65
 73
     2
 40
10.16
 49
5.08
 74
     2
 75
     0
340
107E
 46
2.54
 50
0.0
 44
0.0
 45
0.0
  9
HRIGHT_ARROW
 49
5.08
 74
     0
  0
LTYPE
  5
1080
330
FAA
100
AcDbSymbolTableRecord
100
AcDbLinetypeTableRecord
  2
DASHDOTX2
 70
     0
  3
Dash dot (2x) ____  .  ____  .  ____  .  ___
 72
    65
 73
     4
 40
50.8
 49
25.4
 74
     0
 49
-12.7
 74
     0
 49
0.0
 74
     0
 49
-12.7
 74
     0
  0
LTYPE
  5
1081
330
FAA
100
AcDbSymbolTableRecord
100
AcDbLinetypeTableRecord
  2
DASHDOT2
 70
     0
  3
Dash dot (.5x) _._._._._._._._._._._._._._._.
 72
    65
 73
     4
 40
12.7
 49
6.35
 74
     0
 49
-3.175
 74
     0
 49
0.0
 74
     0
 49
-3.175
 74
     0
  0
LTYPE
  5
1082
330
FAA
100
AcDbSymbolTableRecord
100
AcDbLinetypeTableRecord
  2
DASHED2
 70
     0
  3
Dashed (.5x) _ _ _ _ _ _ _ _ _ _ _ _ _ _ _ _ _ 
 72
    65
 73
     2
 40
9.524999999999999
 49
6.35
 74
     0
 49
-3.175
 74
     0
  0
LTYPE
  5
1083
330
FAA
100
AcDbSymbolTableRecord
100
AcDbLinetypeTableRecord
  2
DASHED
 70
     0
  3
Dashed __ __ __ __ __ __ __ __ __ __ __ __ __ _
 72
    65
 73
     2
 40
19.05
 49
12.7
 74
     0
 49
-6.35
 74
     0
  0
LTYPE
  5
1084
330
FAA
100
AcDbSymbolTableRecord
100
AcDbLinetypeTableRecord
  2
DIVIDE
 70
     0
  3
Divide ____ . . ____ . . ____ . . ____ . . ____
 72
    65
 73
     6
 40
31.75
 49
12.7
 74
     0
 49
-6.35
 74
     0
 49
0.0
 74
     0
 49
-6.35
 74
     0
 49
0.0
 74
     0
 49
-6.35
 74
     0
  0
LTYPE
  5
1085
330
FAA
100
AcDbSymbolTableRecord
100
AcDbLinetypeTableRecord
  2
DASHEDX2
 70
     0
  3
Dashed (2x) ____  ____  ____  ____  ____  ___
 72
    65
 73
     2
 40
38.09999999999999
 49
25.4
 74
     0
 49
-12.7
 74
     0
  0
LTYPE
  5
1086
330
FAA
100
AcDbSymbolTableRecord
100
AcDbLinetypeTableRecord
  2
BORDERX2
 70
     0
  3
Border (2x) ____  ____  .  ____  ____  .  ___
 72
    65
 73
     6
 40
88.89999999999999
 49
25.4
 74
     0
 49
-12.7
 74
     0
 49
25.4
 74
     0
 49
-12.7
 74
     0
 49
0.0
 74
     0
 49
-12.7
 74
     0
  0
LTYPE
  5
1087
330
FAA
100
AcDbSymbolTableRecord
100
AcDbLinetypeTableRecord
  2
BORDER2
 70
     0
  3
Border (.5x) __.__.__.__.__.__.__.__.__.__.__.
 72
    65
 73
     6
 40
22.225
 49
6.35
 74
     0
 49
-3.175
 74
     0
 49
6.35
 74
     0
 49
-3.175
 74
     0
 49
0.0
 74
     0
 49
-3.175
 74
     0
  0
LTYPE
  5
1088
330
FAA
100
AcDbSymbolTableRecord
100
AcDbLinetypeTableRecord
  2
CENTER2
 70
     0
  3
Center (.5x) ___ _ ___ _ ___ _ ___ _ ___ _ ___
 72
    65
 73
     4
 40
28.575
 49
19.05
 74
     0
 49
-3.175
 74
     0
 49
3.175
 74
     0
 49
-3.175
 74
     0
  0
LTYPE
  5
1089
330
FAA
100
AcDbSymbolTableRecord
100
AcDbLinetypeTableRecord
  2
CENTER
 70
     0
  3
Center ____ _ ____ _ ____ _ ____ _ ____ _ ____
 72
    65
 73
     4
 40
50.8
 49
31.75
 74
     0
 49
-6.35
 74
     0
 49
6.35
 74
     0
 49
-6.35
 74
     0
  0
LTYPE
  5
108B
330
FAA
100
AcDbSymbolTableRecord
100
AcDbLinetypeTableRecord
  2
CUTLEFT
 70
     0
  3
G41 ----\----\----\----
 72
    65
 73
     2
 40
10.16
 49
5.08
 74
     2
 75
     0
340
108A
 46
2.54
 50
180.0
 44
0.0
 45
0.0
  9
LRIGHT_ARROW
 49
5.08
 74
     0
  0
LTYPE
  5
108C
330
FAA
100
AcDbSymbolTableRecord
100
AcDbLinetypeTableRecord
  2
CENTERX2
 70
     0
  3
Center (2x) ________  __  ________  __  _____
 72
    65
 73
     4
 40
101.6
 49
63.5
 74
     0
 49
-12.7
 74
     0
 49
12.7
 74
     0
 49
-12.7
 74
     0
  0
LTYPE
  5
108E
330
FAA
100
AcDbSymbolTableRecord
100
AcDbLinetypeTableRecord
  2
CUTRIGHT
 70
     0
  3
G42 ----/----/-----/---
 72
    65
 73
     2
 40
10.16
 49
5.08
 74
     2
 75
     0
340
108D
 46
2.54
 50
180.0
 44
0.0
 45
0.0
  9
HRIGHT_ARROW
 49
5.08
 74
     0
  0
ENDTAB
  0
TABLE
  2
LAYER
  5
FA8
330
0
100
AcDbSymbolTable
 70
     1
  0
LAYER
  5
FB5
330
FA8
100
AcDbSymbolTableRecord
100
AcDbLayerTableRecord
  2
0
 70
     0
 62
   178
420
        0
  6
Continuous
370
    25
390
FB4
347
FEA
348
0
  0
ENDTAB
  0
TABLE
  2
STYLE
  5
FA9
330
0
100
AcDbSymbolTable
 70
    17
  0
STYLE
  5
FB6
330
FA9
100
AcDbSymbolTableRecord
100
AcDbTextStyleTableRecord
  2
Standard
 70
     0
 40
0.0
 41
1.0
 50
0.0
 71
     0
 42
0.2
  3
txt
  4

  0
STYLE
  5
104B
330
FA9
100
AcDbSymbolTableRecord
100
AcDbTextStyleTableRecord
  2
QCADDimTextStyle
 70
     0
 40
0.0
 41
1.0
 50
0.0
 71
     0
 42
0.2
  3
txt
  4

  0
STYLE
  5
104D
330
FA9
100
AcDbSymbolTableRecord
100
AcDbTextStyleTableRecord
  2
textstyle0
 70
     0
 40
0.0
 41
1.0
 50
0.0
 71
     0
 42
0.2
  3
qcadshp.shx
  4

  0
STYLE
  5
1056
330
FA9
100
AcDbSymbolTableRecord
100
AcDbTextStyleTableRecord
  2
textstyle1
 70
     0
 40
0.0
 41
1.0
 50
0.0
 71
     0
 42
0.2
  3
ltypeshp.shx
  4

  0
STYLE
  5
1057
330
FA9
100
AcDbSymbolTableRecord
100
AcDbTextStyleTableRecord
  2
textstyle2
 70
     0
 40
0.0
 41
1.0
 50
0.0
 71
     0
 42
0.2
  3
ltypeshp.shx
  4

  0
STYLE
  5
1061
330
FA9
100
AcDbSymbolTableRecord
100
AcDbTextStyleTableRecord
  2
textstyle3
 70
     0
 40
0.0
 41
1.0
 50
0.0
 71
     0
 42
0.2
  3
ltypeshp.shx
  4

  0
STYLE
  5
1064
330
FA9
100
AcDbSymbolTableRecord
100
AcDbTextStyleTableRecord
  2
textstyle4
 70
     0
 40
0.0
 41
1.0
 50
0.0
 71
     0
 42
0.2
  3
ltypeshp.shx
  4

  0
STYLE
  5
1065
330
FA9
100
AcDbSymbolTableRecord
100
AcDbTextStyleTableRecord
  2
textstyle5
 70
     0
 40
0.0
 41
1.0
 50
0.0
 71
     0
 42
0.2
  3
ltypeshp.shx
  4

  0
STYLE
  5
1067
330
FA9
100
AcDbSymbolTableRecord
100
AcDbTextStyleTableRecord
  2
textstyle6
 70
     0
 40
0.0
 41
1.0
 50
0.0
 71
     0
 42
0.2
  3
STANDARD
  4

  0
STYLE
  5
1069
330
FA9
100
AcDbSymbolTableRecord
100
AcDbTextStyleTableRecord
  2
textstyle7
 70
     0
 40
0.0
 41
1.0
 50
0.0
 71
     0
 42
0.2
  3
ltypeshp.shx
  4

  0
STYLE
  5
106D
330
FA9
100
AcDbSymbolTableRecord
100
AcDbTextStyleTableRecord
  2
textstyle8
 70
     0
 40
0.0
 41
1.0
 50
0.0
 71
     0
 42
0.2
  3
STANDARD
  4

  0
STYLE
  5
1076
330
FA9
100
AcDbSymbolTableRecord
100
AcDbTextStyleTableRecord
  2
textstyle9
 70
     0
 40
0.0
 41
1.0
 50
0.0
 71
     0
 42
0.2
  3
qcadshp.shx
  4

  0
STYLE
  5
1079
330
FA9
100
AcDbSymbolTableRecord
100
AcDbTextStyleTableRecord
  2
textstyle10
 70
     0
 40
0.0
 41
1.0
 50
0.0
 71
     0
 42
0.2
  3
ltypeshp.shx
  4

  0
STYLE
  5
107B
330
FA9
100
AcDbSymbolTableRecord
100
AcDbTextStyleTableRecord
  2
textstyle11
 70
     0
 40
0.0
 41
1.0
 50
0.0
 71
     0
 42
0.2
  3
qcadshp.shx
  4

  0
STYLE
  5
107E
330
FA9
100
AcDbSymbolTableRecord
100
AcDbTextStyleTableRecord
  2
textstyle12
 70
     0
 40
0.0
 41
1.0
 50
0.0
 71
     0
 42
0.2
  3
qcadshp.shx
  4

  0
STYLE
  5
108A
330
FA9
100
AcDbSymbolTableRecord
100
AcDbTextStyleTableRecord
  2
textstyle13
 70
     0
 40
0.0
 41
1.0
 50
0.0
 71
     0
 42
0.2
  3
qcadshp.shx
  4

  0
STYLE
  5
108D
330
FA9
100
AcDbSymbolTableRecord
100
AcDbTextStyleTableRecord
  2
textstyle14
 70
     0
 40
0.0
 41
1.0
 50
0.0
 71
     0
 42
0.2
  3
qcadshp.shx
  4

  0
ENDTAB
  0
TABLE
  2
VIEW
  5
FAB
330
0
100
AcDbSymbolTable
 70
     0
  0
ENDTAB
  0
TABLE
  2
UCS
  5
FAC
330
0
100
AcDbSymbolTable
 70
     0
  0
ENDTAB
  0
TABLE
  2
APPID
  5
FAE
330
0
100
AcDbSymbolTable
 70
     2
  0
APPID
  5
FB7
330
FAE
100
AcDbSymbolTableRecord
100
AcDbRegAppTableRecord
  2
ACAD
 70
     0
  0
APPID
  5
1012
330
FAE
100
AcDbSymbolTableRecord
100
AcDbRegAppTableRecord
  2
QCAD
 70
     0
  0
ENDTAB
  0
TABLE
  2
DIMSTYLE
  5
FAF
330
0
100
AcDbSymbolTable
 70
     2
100
AcDbDimStyleTable
  0
DIMSTYLE
105
FCB
330
FAF
100
AcDbSymbolTableRecord
100
AcDbDimStyleTableRecord
  2
Standard
 70
     0
178
     0
340
FB6
  0
DIMSTYLE
105
104C
330
FAF
100
AcDbSymbolTableRecord
100
AcDbDimStyleTableRecord
  2
QCADDimStyle
 70
     0
 41
2.5
 42
0.625
 44
1.25
 73
     0
 77
     1
140
2.5
147
0.625
178
     0
340
104B
  0
ENDTAB
  0
TABLE
  2
BLOCK_RECORD
  5
FA7
330
0
100
AcDbSymbolTable
 70
     0
  0
BLOCK_RECORD
  5
FC3
330
FA7
100
AcDbSymbolTableRecord
100
AcDbBlockTableRecord
  2
*Model_Space
340
FC6
 70
     0
280
     1
281
     0
  0
BLOCK_RECORD
  5
FBF
330
FA7
100
AcDbSymbolTableRecord
100
AcDbBlockTableRecord
  2
*Paper_Space
340
FC2
 70
     0
280
     1
281
     0
  0
ENDTAB
  0
ENDSEC
  0
SECTION
  2
BLOCKS
  0
BLOCK
  5
FC4
330
FC3
100
AcDbEntity
  8
0
100
AcDbBlockBegin
  2
*Model_Space
 70
     0
 10
0.0
 20
0.0
 30
0.0
  3
*Model_Space
  1

  0
ENDBLK
  5
FC5
330
FC3
100
AcDbEntity
  8
0
100
AcDbBlockEnd
  0
BLOCK
  5
FC0
330
FBF
100
AcDbEntity
 67
     1
  8
0
100
AcDbBlockBegin
  2
*Paper_Space
 70
     0
 10
0.0
 20
0.0
 30
0.0
  3
*Paper_Space
  1

  0
ENDBLK
  5
FC1
330
FBF
100
AcDbEntity
 67
     1
  8
0
100
AcDbBlockEnd
  0
ENDSEC
  0
SECTION
  2
ENTITIES
  0
HATCH
  5
DE3
330
FC3
100
AcDbEntity
  8
0
100
AcDbHatch
 10
0.0
 20
0.0
 30
0.0
210
0.0
220
0.0
230
1.0
  2
SOLID
 70
     1
 71
     0
 91
        2
 92
        0
 93
        8
 72
     1
 10
100.0
 20
-85.50000000000003
 11
100.0
 21
85.49999999999997
 72
     2
 10
85.49999999999997
 20
85.49999999999997
 40
14.5
 50
0.0
 51
90.0
 73
     1
 72
     1
 10
85.49999999999997
 20
99.99999999999997
 11
-85.50000000000003
 21
100.0
 72
     2
 10
-85.50000000000003
 20
85.49999999999997
 40
14.5
 50
90.0
 51
180.0
 73
     1
 72
     1
 10
-100.0
 20
85.49999999999997
 11
-100.0
 21
-85.50000000000003
 72
     2
 10
-85.50000000000003
 20
-85.50000000000003
 40
14.5
 50
180.0
 51
270.0
 73
     1
 72
     1
 10
-85.50000000000003
 20
-100.0
 11
85.49999999999997
 21
-100.0
 72
     2
 10
85.49999999999997
 20
-85.50000000000003
 40
14.5
 50
270.0
 51
360.0
 73
     1
 97
        0
 92
        0
 93
        8
 72
     2
 10
-85.50000000000003
 20
85.49999999999997
 40
9.5
 50
90.00000000000001
 51
180.0
 73
     1
 72
     1
 10
-95.00000000000003
 20
85.49999999999997
 11
-95.00000000000003
 21
-85.50000000000003
 72
     2
 10
-85.50000000000003
 20
-85.50000000000003
 40
9.5
 50
180.0
 51
270.0
 73
     1
 72
     1
 10
-85.50000000000003
 20
-95.00000000000003
 11
85.49999999999997
 21
-95.00000000000003
 72
     2
 10
85.49999999999997
 20
-85.50000000000003
 40
9.5
 50
270.0
 51
360.0
 73
     1
 72
     1
 10
94.99999999999997
 20
-85.50000000000003
 11
94.99999999999997
 21
85.49999999999997
 72
     2
 10
85.49999999999997
 20
85.49999999999997
 40
9.5
 50
0.0
 51
90.00000000000001
 73
     1
 72
     1
 10
85.49999999999997
 20
94.99999999999997
 11
-85.50000000000003
 21
94.99999999999997
 97
        0
 75
     0
 76
     1
 98
        0
  0
LINE
  5
F3E
330
FC3
100
AcDbEntity
  8
0
100
AcDbLine
 10
-17.49839326702376
 20
5.000000000000028
 30
0.0
 11
-22.8235654169855
 21
5.000000000000028
 31
0.0
  0
LINE
  5
F3F
330
FC3
100
AcDbEntity
  8
0
100
AcDbLine
 10
-22.8235654169855
 20
5.000000000000028
 30
0.0
 11
-23.61928079571542
 21
29.94261667941854
 31
0.0
  0
LINE
  5
F40
330
FC3
100
AcDbEntity
  8
0
100
AcDbLine
 10
-23.61928079571542
 20
29.94261667941854
 30
0.0
 11
-23.95592960979346
 21
39.52180566182099
 31
0.0
  0
LINE
  5
F41
330
FC3
100
AcDbEntity
  8
0
100
AcDbLine
 10
-23.95592960979346
 20
39.52180566182099
 30
0.0
 11
-25.82280030604441
 21
33.95179801071158
 31
0.0
  0
LINE
  5
F42
330
FC3
100
AcDbEntity
  8
0
100
AcDbLine
 10
-25.82280030604441
 20
33.95179801071158
 30
0.0
 11
-31.72945677123187
 21
18.03749043611326
 31
0.0
  0
LINE
  5
F43
330
FC3
100
AcDbEntity
  8
0
100
AcDbLine
 10
-31.72945677123187
 20
18.03749043611326
 30
0.0
 11
-35.49380260137724
 21
18.03749043611326
 31
0.0
  0
LINE
  5
F44
330
FC3
100
AcDbEntity
  8
0
100
AcDbLine
 10
-35.49380260137724
 20
18.03749043611326
 30
0.0
 11
-41.12501912777357
 21
33.33970925784242
 31
0.0
  0
LINE
  5
F45
330
FC3
100
AcDbEntity
  8
0
100
AcDbLine
 10
-41.12501912777357
 20
33.33970925784242
 30
0.0
 11
-42.99188982402453
 21
39.52180566182099
 31
0.0
  0
LINE
  5
F46
330
FC3
100
AcDbEntity
  8
0
100
AcDbLine
 10
-42.99188982402453
 20
39.52180566182099
 30
0.0
 11
-43.11430757459836
 21
29.51415455241013
 31
0.0
  0
LINE
  5
F47
330
FC3
100
AcDbEntity
  8
0
100
AcDbLine
 10
-43.11430757459836
 20
29.51415455241013
 30
0.0
 11
-43.8182096403979
 21
5.000000000000028
 31
0.0
  0
LINE
  5
F48
330
FC3
100
AcDbEntity
  8
0
100
AcDbLine
 10
-43.8182096403979
 20
5.000000000000028
 30
0.0
 11
-48.95975516449889
 21
5.000000000000028
 31
0.0
  0
LINE
  5
F49
330
FC3
100
AcDbEntity
  8
0
100
AcDbLine
 10
-48.95975516449889
 20
5.000000000000028
 30
0.0
 11
-47.00107115531756
 21
45.00000000000003
 31
0.0
  0
LINE
  5
F4A
330
FC3
100
AcDbEntity
  8
0
100
AcDbLine
 10
-47.00107115531756
 20
45.00000000000003
 30
0.0
 11
-40.54353481254786
 21
45.00000000000003
 31
0.0
  0
LINE
  5
F4B
330
FC3
100
AcDbEntity
  8
0
100
AcDbLine
 10
-40.54353481254786
 20
45.00000000000003
 30
0.0
 11
-35.15715378729919
 21
29.94261667941854
 31
0.0
  0
LINE
  5
F4C
330
FC3
100
AcDbEntity
  8
0
100
AcDbLine
 10
-35.15715378729919
 20
29.94261667941854
 30
0.0
 11
-33.41270084162207
 21
24.86228003060446
 31
0.0
  0
LINE
  5
F4D
330
FC3
100
AcDbEntity
  8
0
100
AcDbLine
 10
-33.41270084162207
 20
24.86228003060446
 30
0.0
 11
-31.72945677123187
 21
29.94261667941854
 31
0.0
  0
LINE
  5
F4E
330
FC3
100
AcDbEntity
  8
0
100
AcDbLine
 10
-31.72945677123187
 20
29.94261667941854
 30
0.0
 11
-26.06763580719208
 21
45.00000000000003
 31
0.0
  0
LINE
  5
F4F
330
FC3
100
AcDbEntity
  8
0
100
AcDbLine
 10
-26.06763580719208
 20
45.00000000000003
 30
0.0
 11
-19.42647283856163
 21
45.00000000000003
 31
0.0
  0
LINE
  5
F50
330
FC3
100
AcDbEntity
  8
0
100
AcDbLine
 10
-19.42647283856163
 20
45.00000000000003
 30
0.0
 11
-17.49839326702376
 21
5.000000000000028
 31
0.0
  0
ARC
  5
F5B
330
FC3
100
AcDbEntity
  8
0
100
AcDbCircle
 10
36.77937844904146
 20
15.83397092578426
 30
0.0
 40
12.18037671545737
100
AcDbArc
 50
346.8770901410036
 51
0.0
1001
QCAD
1000
reversed:1
  0
ARC
  5
F5C
330
FC3
100
AcDbEntity
  8
0
100
AcDbCircle
 10
39.98333272637377
 20
15.08703679978038
 30
0.0
 40
8.890508389851423
100
AcDbArc
 50
331.5043613817559
 51
346.8770901410038
1001
QCAD
1000
reversed:1
  0
ARC
  5
F5D
330
FC3
100
AcDbEntity
  8
0
100
AcDbCircle
 10
38.89465722556906
 20
15.68668738916703
 30
0.0
 40
10.1333858615406
100
AcDbArc
 50
303.9423310413376
 51
331.4613515691274
1001
QCAD
1000
reversed:1
  0
ARC
  5
F5E
330
FC3
100
AcDbEntity
  8
0
100
AcDbCircle
 10
36.27710861470234
 20
19.79924714333431
 30
0.0
 40
15.00721368955999
100
AcDbArc
 50
282.5924096078068
 51
303.4659947005699
1001
QCAD
1000
reversed:1
  0
ARC
  5
F5F
330
FC3
100
AcDbEntity
  8
0
100
AcDbCircle
 10
33.35967948504712
 20
31.96558401901589
 30
0.0
 40
27.51762718733877
100
AcDbArc
 50
269.4731611360086
 51
282.9980593773612
1001
QCAD
1000
reversed:1
  0
ARC
  5
F60
330
FC3
100
AcDbEntity
  8
0
100
AcDbCircle
 10
33.10079858454466
 20
45.33905472933952
 30
0.0
 40
40.88993502652091
100
AcDbArc
 50
265.56533546985
 51
270.0082081773584
1001
QCAD
1000
reversed:1
  0
ARC
  5
F61
330
FC3
100
AcDbEntity
  8
0
100
AcDbCircle
 10
34.78681437379819
 20
67.71466505500314
 30
0.0
 40
63.32894182299678
100
AcDbArc
 50
262.8544062414117
 51
265.6098159627603
1001
QCAD
1000
reversed:1
  0
ARC
  5
F62
330
FC3
100
AcDbEntity
  8
0
100
AcDbCircle
 10
32.39986281800018
 20
48.94779500108275
 30
0.0
 40
44.41092652686385
100
AcDbArc
 50
259.3209071552751
 51
262.8982463299973
1001
QCAD
1000
reversed:1
  0
ARC
  5
F63
330
FC3
100
AcDbEntity
  8
0
100
AcDbCircle
 10
30.42939974881416
 20
38.74781654661324
 30
0.0
 40
34.02249549469596
100
AcDbArc
 50
255.3840800855628
 51
259.3987063277044
1001
QCAD
1000
reversed:1
  0
LINE
  5
F64
330
FC3
100
AcDbEntity
  8
0
100
AcDbLine
 10
21.84422341239478
 20
5.826319816373399
 30
0.0
 11
21.84422341239477
 21
11.09028309104823
 31
0.0
  0
ARC
  5
F65
330
FC3
100
AcDbEntity
  8
0
100
AcDbCircle
 10
31.59404751241796
 20
37.88018861090723
 30
0.0
 40
28.50891277731167
100
AcDbArc
 50
250.0017074126825
 51
260.7288621467621
  0
ARC
  5
F66
330
FC3
100
AcDbEntity
  8
0
100
AcDbCircle
 10
33.15800810760413
 20
48.08374506435163
 30
0.0
 40
38.83127426449755
100
AcDbArc
 50
260.8769006512197
 51
270.5112785487233
  0
ARC
  5
F67
330
FC3
100
AcDbEntity
  8
0
100
AcDbCircle
 10
33.83917234568771
 20
30.15634648322529
 30
0.0
 40
20.90500851315209
100
AcDbArc
 50
269.082740339605
 51
281.4471531696067
  0
ARC
  5
F68
330
FC3
100
AcDbEntity
  8
0
100
AcDbCircle
 10
36.32877978751318
 20
18.13542075276017
 30
0.0
 40
8.629274687978352
100
AcDbArc
 50
281.0861940703453
 51
302.9152026307361
  0
ARC
  5
F69
330
FC3
100
AcDbEntity
  8
0
100
AcDbCircle
 10
38.34222837173782
 20
14.94541047331029
 30
0.0
 40
4.857428311058507
100
AcDbArc
 50
303.4247926205508
 51
334.6450624117106
  0
ARC
  5
F6A
330
FC3
100
AcDbEntity
  8
0
100
AcDbCircle
 10
36.96918130898662
 20
15.40963688459317
 30
0.0
 40
6.299259193846236
100
AcDbArc
 50
336.1775314170115
 51
1.075983179269849
  0
ARC
  5
F6B
330
FC3
100
AcDbEntity
  8
0
100
AcDbCircle
 10
38.9262528110547
 20
15.64487664390582
 30
0.0
 40
4.34265200375602
100
AcDbArc
 50
358.4568054153493
 51
37.65169772764114
  0
ARC
  5
F6C
330
FC3
100
AcDbEntity
  8
0
100
AcDbCircle
 10
35.44794274855232
 20
12.69415821646636
 30
0.0
 40
8.901551758032802
100
AcDbArc
 50
39.01277178214609
 51
59.29934142040663
  0
ARC
  5
F6D
330
FC3
100
AcDbEntity
  8
0
100
AcDbCircle
 10
28.70130320600353
 20
1.675823348380668
 30
0.0
 40
21.82084990769559
100
AcDbArc
 50
58.83817324059829
 51
68.66134202002391
  0
ARC
  5
F6E
330
FC3
100
AcDbEntity
  8
0
100
AcDbCircle
 10
262.7902306441639
 20
589.5593362051778
 30
0.0
 40
610.9549852565552
100
AcDbArc
 50
247.8864838709484
 51
248.2747505597415
1001
QCAD
1000
reversed:1
  0
ARC
  5
F6F
330
FC3
100
AcDbEntity
  8
0
100
AcDbCircle
 10
54.06926437725996
 20
75.91935367632695
 30
0.0
 40
56.52692678326591
100
AcDbArc
 50
243.627552694581
 51
247.8979751293432
1001
QCAD
1000
reversed:1
  0
ARC
  5
F70
330
FC3
100
AcDbEntity
  8
0
100
AcDbCircle
 10
35.9395126807516
 20
39.54054521141278
 30
0.0
 40
15.88112853120536
100
AcDbArc
 50
229.4194102835129
 51
243.9280103422564
1001
QCAD
1000
reversed:1
  0
ARC
  5
F71
330
FC3
100
AcDbEntity
  8
0
100
AcDbCircle
 10
32.25801873509032
 20
35.19904155316848
 30
0.0
 40
10.18895707357839
100
AcDbArc
 50
207.6993254014543
 51
229.2610710952318
1001
QCAD
1000
reversed:1
  0
ARC
  5
F72
330
FC3
100
AcDbEntity
  8
0
100
AcDbCircle
 10
29.53385602698723
 20
33.78013061406349
 30
0.0
 40
7.117438184241775
100
AcDbArc
 50
192.5059988809326
 51
207.7796207250215
1001
QCAD
1000
reversed:1
  0
ARC
  5
F73
330
FC3
100
AcDbEntity
  8
0
100
AcDbCircle
 10
32.92942137204551
 20
34.53328232593724
 30
0.0
 40
10.59552695735541
100
AcDbArc
 50
180.0
 51
192.5059988809321
1001
QCAD
1000
reversed:1
  0
ARC
  5
F74
330
FC3
100
AcDbEntity
  8
0
100
AcDbCircle
 10
32.45859607852096
 20
34.49639712683716
 30
0.0
 40
10.12476885165741
100
AcDbArc
 50
156.256467867933
 51
179.7912672436612
1001
QCAD
1000
reversed:1
  0
ARC
  5
F75
330
FC3
100
AcDbEntity
  8
0
100
AcDbCircle
 10
32.04743615542645
 20
34.67204816027327
 30
0.0
 40
9.67768721525018
100
AcDbArc
 50
129.7942204019927
 51
156.2282428237193
1001
QCAD
1000
reversed:1
  0
ARC
  5
F76
330
FC3
100
AcDbEntity
  8
0
100
AcDbCircle
 10
32.9691249882402
 20
33.79446491143398
 30
0.0
 40
10.94286780142579
100
AcDbArc
 50
118.2781983736629
 51
130.5612836322953
1001
QCAD
1000
reversed:1
  0
ARC
  5
F77
330
FC3
100
AcDbEntity
  8
0
100
AcDbCircle
 10
36.00049816251506
 20
28.15945833594144
 30
0.0
 40
17.34150222039031
100
AcDbArc
 50
108.5278106208876
 51
118.2781983736629
1001
QCAD
1000
reversed:1
  0
ARC
  5
F78
330
FC3
100
AcDbEntity
  8
0
100
AcDbCircle
 10
35.60694561140217
 20
29.33376836748767
 30
0.0
 40
16.10300003602503
100
AcDbArc
 50
98.00273817632944
 51
108.5278106208873
1001
QCAD
1000
reversed:1
  0
ARC
  5
F79
330
FC3
100
AcDbEntity
  8
0
100
AcDbCircle
 10
37.2382555470543
 20
17.73041866389729
 30
0.0
 40
27.82046121368498
100
AcDbArc
 50
90.00000000000001
 51
98.00273817632934
1001
QCAD
1000
reversed:1
  0
ARC
  5
F7A
330
FC3
100
AcDbEntity
  8
0
100
AcDbCircle
 10
37.14726820616293
 20
17.26018553940819
 30
0.0
 40
28.29084065262461
100
AcDbArc
 50
85.37905270221788
 51
89.81572835981054
1001
QCAD
1000
reversed:1
  0
ARC
  5
F7B
330
FC3
100
AcDbEntity
  8
0
100
AcDbCircle
 10
36.32781711591991
 20
5.941486448496804
 30
0.0
 40
39.63887997312988
100
AcDbArc
 50
82.0450481065074
 51
85.51649251591027
1001
QCAD
1000
reversed:1
  0
ARC
  5
F7C
330
FC3
100
AcDbEntity
  8
0
100
AcDbCircle
 10
33.79124243381608
 20
-12.49987445093817
 30
0.0
 40
58.25384474102355
100
AcDbArc
 50
79.70639158307145
 51
82.08440668612458
1001
QCAD
1000
reversed:1
  0
ARC
  5
F7D
330
FC3
100
AcDbEntity
  8
0
100
AcDbCircle
 10
37.35147581951384
 20
6.723309924585593
 30
0.0
 40
38.70393063720252
100
AcDbArc
 50
76.49656932245995
 51
79.8068982007106
1001
QCAD
1000
reversed:1
  0
LINE
  5
F7E
330
FC3
100
AcDbEntity
  8
0
100
AcDbLine
 10
46.38898240244832
 20
44.3573068094874
 30
0.0
 11
46.38898240244832
 21
39.46059678653408
 31
0.0
  0
ARC
  5
F7F
330
FC3
100
AcDbEntity
  8
0
100
AcDbCircle
 10
36.16691066702842
 20
3.815262141583055
 30
0.0
 40
37.0820796681445
100
AcDbArc
 50
73.998609058175
 51
81.45639779816703
  0
ARC
  5
F80
330
FC3
100
AcDbEntity
  8
0
100
AcDbCircle
 10
37.02679402575878
 20
9.966857320672126
 30
0.0
 40
30.87106757794849
100
AcDbArc
 50
81.33844702881117
 51
89.83473719152569
  0
ARC
  5
F81
330
FC3
100
AcDbEntity
  8
0
100
AcDbCircle
 10
37.11583779648031
 20
15.9505519960777
 30
0.0
 40
24.887244484412
100
AcDbArc
 50
89.99999999999966
 51
94.62133887165884
  0
ARC
  5
F82
330
FC3
100
AcDbEntity
  8
0
100
AcDbCircle
 10
36.34701741316229
 20
25.46177764380533
 30
0.0
 40
15.34499642099438
100
AcDbArc
 50
94.62133887165949
 51
100.5076892278771
  0
ARC
  5
F83
330
FC3
100
AcDbEntity
  8
0
100
AcDbCircle
 10
35.61197031895122
 20
29.42476865317797
 30
0.0
 40
11.31441433262594
100
AcDbArc
 50
100.5076892278766
 51
110.9778236802779
  0
ARC
  5
F84
330
FC3
100
AcDbEntity
  8
0
100
AcDbCircle
 10
33.72797685122984
 20
34.33842306722272
 30
0.0
 40
6.051959478940423
100
AcDbArc
 50
110.9778236802783
 51
125.3112134396331
  0
ARC
  5
F85
330
FC3
100
AcDbEntity
  8
0
100
AcDbCircle
 10
33.72329302508729
 20
34.34503552765932
 30
0.0
 40
6.043856216612249
100
AcDbArc
 50
125.3112134396334
 51
137.7915869959448
  0
ARC
  5
F86
330
FC3
100
AcDbEntity
  8
0
100
AcDbCircle
 10
32.67843189941203
 20
35.2927373423575
 30
0.0
 40
4.633227455552276
100
AcDbArc
 50
137.7915869959453
 51
152.0544213067324
  0
ARC
  5
F87
330
FC3
100
AcDbEntity
  8
0
100
AcDbCircle
 10
32.60343107587816
 20
35.33252465552953
 30
0.0
 40
4.548326608558808
100
AcDbArc
 50
152.0544213067316
 51
166.7780850395366
  0
ARC
  5
F88
330
FC3
100
AcDbEntity
  8
0
100
AcDbCircle
 10
33.66051096808322
 20
35.08416220351956
 30
0.0
 40
5.634191151709866
100
AcDbArc
 50
166.7780850395371
 51
180.0
  0
ARC
  5
F89
330
FC3
100
AcDbEntity
  8
0
100
AcDbCircle
 10
32.43099676803639
 20
34.97321209452733
 30
0.0
 40
4.406074100057442
100
AcDbArc
 50
178.5570726124517
 51
217.3658089159214
  0
ARC
  5
F8A
330
FC3
100
AcDbEntity
  8
0
100
AcDbCircle
 10
35.9487441669461
 20
37.90727720116111
 30
0.0
 40
8.984747564581513
100
AcDbArc
 50
218.6221827158602
 51
238.8491355373752
  0
ARC
  5
F8B
330
FC3
100
AcDbEntity
  8
0
100
AcDbCircle
 10
42.268304593067
 20
48.05276477813449
 30
0.0
 40
20.93701752073808
100
AcDbArc
 50
238.4108982419514
 51
248.6684901376513
  0
ARC
  5
F8C
330
FC3
100
AcDbEntity
  8
0
100
AcDbCircle
 10
-191.4965810651565
 20
-539.0084563280266
 30
0.0
 40
610.9549852570229
100
AcDbArc
 50
67.88648387094788
 51
68.27475055974062
1001
QCAD
1000
reversed:1
  0
ARC
  5
F8D
330
FC3
100
AcDbEntity
  8
0
100
AcDbCircle
 10
18.90069381651221
 20
-21.23347621200485
 30
0.0
 40
52.06506531955874
100
AcDbArc
 50
63.25148390884015
 51
67.89500807808435
1001
QCAD
1000
reversed:1
  0
ARC
  5
F8E
330
FC3
100
AcDbEntity
  8
0
100
AcDbCircle
 10
35.36052369065824
 20
11.25023384053531
 30
0.0
 40
15.6494506601915
100
AcDbArc
 50
48.72001140540867
 51
63.53836717381333
1001
QCAD
1000
reversed:1
  0
ARC
  5
F8F
330
FC3
100
AcDbEntity
  8
0
100
AcDbCircle
 10
38.77234589157121
 20
15.18014207396577
 30
0.0
 40
10.44527241755279
100
AcDbArc
 50
27.26734032477314
 51
48.5623151141086
1001
QCAD
1000
reversed:1
  0
ARC
  5
F90
330
FC3
100
AcDbEntity
  8
0
100
AcDbCircle
 10
41.54243617790119
 20
16.59403670510003
 30
0.0
 40
7.335243125082051
100
AcDbArc
 50
12.32642942378504
 51
27.36354692739206
1001
QCAD
1000
reversed:1
  0
ARC
  5
F91
330
FC3
100
AcDbEntity
  8
0
100
AcDbCircle
 10
38.06416905221901
 20
15.83397092578427
 30
0.0
 40
10.89558611227981
100
AcDbArc
 50
0.0
 51
12.32642942378516
1001
QCAD
1000
reversed:1
  0
LINE
  5
F92
330
FC3
100
AcDbEntity
  8
0
100
AcDbLine
 10
16.95485845447587
 20
5.000000000000028
 30
0.0
 11
11.62968630451412
 21
5.000000000000028
 31
0.0
  0
LINE
  5
F93
330
FC3
100
AcDbEntity
  8
0
100
AcDbLine
 10
11.62968630451412
 20
5.000000000000028
 30
0.0
 11
10.83397092578421
 21
29.94261667941854
 31
0.0
  0
LINE
  5
F94
330
FC3
100
AcDbEntity
  8
0
100
AcDbLine
 10
10.83397092578421
 20
29.94261667941854
 30
0.0
 11
10.49732211170617
 21
39.52180566182099
 31
0.0
  0
LINE
  5
F95
330
FC3
100
AcDbEntity
  8
0
100
AcDbLine
 10
10.49732211170617
 20
39.52180566182099
 30
0.0
 11
8.630451415455205
 21
33.95179801071158
 31
0.0
  0
LINE
  5
F96
330
FC3
100
AcDbEntity
  8
0
100
AcDbLine
 10
8.630451415455205
 20
33.95179801071158
 30
0.0
 11
2.723794950267759
 21
18.03749043611326
 31
0.0
  0
LINE
  5
F97
330
FC3
100
AcDbEntity
  8
0
100
AcDbLine
 10
2.723794950267759
 20
18.03749043611326
 30
0.0
 11
-1.040550879877621
 21
18.03749043611326
 31
0.0
  0
LINE
  5
F98
330
FC3
100
AcDbEntity
  8
0
100
AcDbLine
 10
-1.040550879877621
 20
18.03749043611326
 30
0.0
 11
-6.671767406273943
 21
33.33970925784242
 31
0.0
  0
LINE
  5
F99
330
FC3
100
AcDbEntity
  8
0
100
AcDbLine
 10
-6.671767406273943
 20
33.33970925784242
 30
0.0
 11
-8.5386381025249
 21
39.52180566182099
 31
0.0
  0
LINE
  5
F9A
330
FC3
100
AcDbEntity
  8
0
100
AcDbLine
 10
-8.5386381025249
 20
39.52180566182099
 30
0.0
 11
-8.661055853098738
 21
29.51415455241013
 31
0.0
  0
LINE
  5
F9B
330
FC3
100
AcDbEntity
  8
0
100
AcDbLine
 10
-8.661055853098738
 20
29.51415455241013
 30
0.0
 11
-9.364957918898277
 21
5.000000000000028
 31
0.0
  0
LINE
  5
F9C
330
FC3
100
AcDbEntity
  8
0
100
AcDbLine
 10
-9.364957918898277
 20
5.000000000000028
 30
0.0
 11
-14.50650344299927
 21
5.000000000000028
 31
0.0
  0
LINE
  5
F9D
330
FC3
100
AcDbEntity
  8
0
100
AcDbLine
 10
-14.50650344299927
 20
5.000000000000028
 30
0.0
 11
-12.54781943381794
 21
45.00000000000003
 31
0.0
  0
LINE
  5
F9E
330
FC3
100
AcDbEntity
  8
0
100
AcDbLine
 10
-12.54781943381794
 20
45.00000000000003
 30
0.0
 11
-6.090283091048242
 21
45.00000000000003
 31
0.0
  0
LINE
  5
F9F
330
FC3
100
AcDbEntity
  8
0
100
AcDbLine
 10
-6.090283091048242
 20
45.00000000000003
 30
0.0
 11
-0.7039020657995749
 21
29.94261667941854
 31
0.0
  0
LINE
  5
FA0
330
FC3
100
AcDbEntity
  8
0
100
AcDbLine
 10
-0.7039020657995749
 20
29.94261667941854
 30
0.0
 11
1.040550879877543
 21
24.86228003060446
 31
0.0
  0
LINE
  5
FA1
330
FC3
100
AcDbEntity
  8
0
100
AcDbLine
 10
1.040550879877543
 20
24.86228003060446
 30
0.0
 11
2.723794950267759
 21
29.94261667941854
 31
0.0
  0
LINE
  5
FA2
330
FC3
100
AcDbEntity
  8
0
100
AcDbLine
 10
2.723794950267759
 20
29.94261667941854
 30
0.0
 11
8.385615914307543
 21
45.00000000000003
 31
0.0
  0
LINE
  5
FA3
330
FC3
100
AcDbEntity
  8
0
100
AcDbLine
 10
8.385615914307543
 20
45.00000000000003
 30
0.0
 11
15.02677888293799
 21
45.00000000000003
 31
0.0
  0
LINE
  5
FA4
330
FC3
100
AcDbEntity
  8
0
100
AcDbLine
 10
15.02677888293799
 20
45.00000000000003
 30
0.0
 11
16.95485845447587
 21
5.000000000000028
 31
0.0
  0
ARC
  5
EDB
330
FC3
100
AcDbEntity
  8
0
100
AcDbCircle
 10
-70.96610351743782
 20
-28.17567567567562
 30
0.0
 40
48.84670595396639
100
AcDbArc
 50
357.9628980516945
 51
0.1890112427590565
1001
QCAD
1000
reversed:1
  0
ARC
  5
EDC
330
FC3
100
AcDbEntity
  8
0
100
AcDbCircle
 10
-50.6496939555995
 20
-28.81503442999384
 30
0.0
 40
28.52053036243752
100
AcDbArc
 50
354.8998509737032
 51
357.7957034656837
1001
QCAD
1000
reversed:1
  0
LINE
  5
EDD
330
FC3
100
AcDbEntity
  8
0
100
AcDbLine
 10
-22.24208110175978
 20
-31.35042081101757
 30
0.0
 11
-43.81820964039788
 21
-31.35042081101756
 31
0.0
  0
ARC
  5
EDE
330
FC3
100
AcDbEntity
  8
0
100
AcDbCircle
 10
-28.77524711329133
 20
-31.35042081101749
 30
0.0
 40
15.04296252710656
100
AcDbArc
 50
180.0
 51
188.2686463374732
  0
ARC
  5
EDF
330
FC3
100
AcDbEntity
  8
0
100
AcDbCircle
 10
-33.526101402191
 20
-32.04084059611885
 30
0.0
 40
10.24220259205297
100
AcDbArc
 50
188.2686463374726
 51
198.2935821443993
  0
ARC
  5
EE0
330
FC3
100
AcDbEntity
  8
0
100
AcDbCircle
 10
-34.99977724687115
 20
-32.52802916606313
 30
0.0
 40
8.690083653995021
100
AcDbArc
 50
198.2935821443994
 51
211.7765786670829
  0
ARC
  5
EE1
330
FC3
100
AcDbEntity
  8
0
100
AcDbCircle
 10
-35.91844956399875
 20
-33.09711036509778
 30
0.0
 40
7.609430038190538
100
AcDbArc
 50
211.7765786670834
 51
226.1899489321424
  0
ARC
  5
EE2
330
FC3
100
AcDbEntity
  8
0
100
AcDbCircle
 10
-35.83879639884949
 20
-33.01407797476041
 30
0.0
 40
7.724490911485631
100
AcDbArc
 50
226.1899489321421
 51
240.5693161453889
  0
ARC
  5
EE3
330
FC3
100
AcDbEntity
  8
0
100
AcDbCircle
 10
-34.91440687191898
 20
-31.37560313365762
 30
0.0
 40
9.60573938056824
100
AcDbArc
 50
240.5693161453887
 51
253.4572985528447
  0
ARC
  5
EE4
330
FC3
100
AcDbEntity
  8
0
100
AcDbCircle
 10
-34.3397583957254
 20
-29.44091838272565
 30
0.0
 40
11.62396284606464
100
AcDbArc
 50
253.457298552845
 51
262.5570727254741
  0
ARC
  5
EE5
330
FC3
100
AcDbEntity
  8
0
100
AcDbCircle
 10
-33.59632746748277
 20
-23.750202297876
 30
0.0
 40
17.36303412140477
100
AcDbArc
 50
262.5570727254742
 51
269.9999999999999
  0
ARC
  5
EE6
330
FC3
100
AcDbEntity
  8
0
100
AcDbCircle
 10
-33.5979250712946
 20
-7.162258170294848
 30
0.0
 40
33.9509782865745
100
AcDbArc
 50
270.0026961213021
 51
274.5525217953671
  0
ARC
  5
EE7
330
FC3
100
AcDbEntity
  8
0
100
AcDbCircle
 10
-34.01270377825303
 20
-1.400569706034432
 30
0.0
 40
39.72743498162338
100
AcDbArc
 50
274.489277562943
 51
278.2650836842715
  0
ARC
  5
EE8
330
FC3
100
AcDbEntity
  8
0
100
AcDbCircle
 10
-35.03930931348481
 20
5.653700354721941
 30
0.0
 40
46.85601422665196
100
AcDbArc
 50
278.267369370234
 51
281.2485575124613
  0
ARC
  5
EE9
330
FC3
100
AcDbEntity
  8
0
100
AcDbCircle
 10
-31.43201989288367
 20
-12.26568477429633
 30
0.0
 40
28.57723052813886
100
AcDbArc
 50
281.163271242683
 51
285.5474106831325
  0
LINE
  5
EEA
330
FC3
100
AcDbEntity
  8
0
100
AcDbLine
 10
-23.7723029839327
 20
-39.79724560061204
 30
0.0
 11
-23.77230298393269
 21
-44.17368018362659
 31
0.0
  0
ARC
  5
EEB
330
FC3
100
AcDbEntity
  8
0
100
AcDbCircle
 10
-33.58946849162926
 20
-8.318199785091053
 30
0.0
 40
37.17515585999975
100
AcDbArc
 50
277.5821211427898
 51
285.3122140804327
1001
QCAD
1000
reversed:1
  0
ARC
  5
EEC
330
FC3
100
AcDbEntity
  8
0
100
AcDbCircle
 10
-34.27383918324412
 20
-4.535320629302802
 30
0.0
 40
41.01565279345674
100
AcDbArc
 50
269.8776303831926
 51
277.8325168091577
1001
QCAD
1000
reversed:1
  0
ARC
  5
EED
330
FC3
100
AcDbEntity
  8
0
100
AcDbCircle
 10
-34.36143840856927
 20
-20.55642955650776
 30
0.0
 40
24.99445032107444
100
AcDbArc
 50
261.0406270928277
 51
270.0
1001
QCAD
1000
reversed:1
  0
ARC
  5
EEE
330
FC3
100
AcDbEntity
  8
0
100
AcDbCircle
 10
-35.95412139723227
 20
-30.65859022745619
 30
0.0
 40
14.76751092925082
100
AcDbArc
 50
249.3764686166746
 51
261.0406270928277
1001
QCAD
1000
reversed:1
  0
ARC
  5
EEF
330
FC3
100
AcDbEntity
  8
0
100
AcDbCircle
 10
-37.2360204373406
 20
-33.53136015256709
 30
0.0
 40
11.62884224163822
100
AcDbArc
 50
222.4043897105241
 51
250.3022212913673
1001
QCAD
1000
reversed:1
  0
ARC
  5
EF0
330
FC3
100
AcDbEntity
  8
0
100
AcDbCircle
 10
-36.19511434942579
 20
-32.9543471538978
 30
0.0
 40
12.78954073684282
100
AcDbArc
 50
195.5588065274241
 51
221.1683995344627
1001
QCAD
1000
reversed:1
  0
ARC
  5
EF1
330
FC3
100
AcDbEntity
  8
0
100
AcDbCircle
 10
-25.78253529753641
 20
-30.01919832679018
 30
0.0
 40
23.60787011536288
100
AcDbArc
 50
179.2199035758539
 51
195.6429123664909
1001
QCAD
1000
reversed:1
  0
ARC
  5
EF2
330
FC3
100
AcDbEntity
  8
0
100
AcDbCircle
 10
-29.53125626696481
 20
-29.57932432042248
 30
0.0
 40
19.85731434905965
100
AcDbArc
 50
162.3591937662908
 51
180.3417943708083
1001
QCAD
1000
reversed:1
  0
ARC
  5
EF3
330
FC3
100
AcDbEntity
  8
0
100
AcDbCircle
 10
-33.75700076511087
 20
-28.17138485080338
 30
0.0
 40
15.40373224059138
100
AcDbArc
 50
141.0179591635851
 51
162.5865548987102
1001
QCAD
1000
reversed:1
  0
ARC
  5
EF4
330
FC3
100
AcDbEntity
  8
0
100
AcDbCircle
 10
-35.60033156744623
 20
-26.77654050560285
 30
0.0
 40
13.09358410026687
100
AcDbArc
 50
115.9954681346847
 51
140.6883502596189
1001
QCAD
1000
reversed:1
  0
ARC
  5
EF5
330
FC3
100
AcDbEntity
  8
0
100
AcDbCircle
 10
-36.18072824787672
 20
-25.44751694724619
 30
0.0
 40
11.64479056713996
100
AcDbArc
 50
102.2770980511081
 51
116.294790070584
1001
QCAD
1000
reversed:1
  0
ARC
  5
EF6
330
FC3
100
AcDbEntity
  8
0
100
AcDbCircle
 10
-35.43259372609032
 20
-28.88537320212196
 30
0.0
 40
15.16310847373639
100
AcDbArc
 50
89.99999999999994
 51
102.277098051108
1001
QCAD
1000
reversed:1
  0
ARC
  5
EF7
330
FC3
100
AcDbEntity
  8
0
100
AcDbCircle
 10
-35.43259372609031
 20
-31.80558340330691
 30
0.0
 40
18.08331867492134
100
AcDbArc
 50
79.93931020467699
 51
89.99999999999997
1001
QCAD
1000
reversed:1
  0
ARC
  5
EF8
330
FC3
100
AcDbEntity
  8
0
100
AcDbCircle
 10
-34.45797633425852
 20
-26.31228537661863
 30
0.0
 40
12.50423252479977
100
AcDbArc
 50
67.8336541779174
 51
79.93931020467697
1001
QCAD
1000
reversed:1
  0
ARC
  5
EF9
330
FC3
100
AcDbEntity
  8
0
100
AcDbCircle
 10
-33.95040209459411
 20
-25.35881543549626
 30
0.0
 40
11.43025750374488
100
AcDbArc
 50
42.79248746261285
 51
68.38665425352256
1001
QCAD
1000
reversed:1
  0
ARC
  5
EFA
330
FC3
100
AcDbEntity
  8
0
100
AcDbCircle
 10
-34.62827411339828
 20
-25.75800820470497
 30
0.0
 40
12.20003339373325
100
AcDbArc
 50
17.4842872514468
 51
42.00547534243771
1001
QCAD
1000
reversed:1
  0
ARC
  5
EFB
330
FC3
100
AcDbEntity
  8
0
100
AcDbCircle
 10
-40.97821181944072
 20
-27.76693969924712
 30
0.0
 40
18.8601737745514
100
AcDbArc
 50
359.2477962172816
 51
17.50954879514875
1001
QCAD
1000
reversed:1
  0
LINE
  5
EFC
330
FC3
100
AcDbEntity
  8
0
100
AcDbLine
 10
-57.27681713848511
 20
-44.99999999999996
 30
0.0
 11
-80.29135424636576
 21
-44.99999999999996
 31
0.0
  0
LINE
  5
EFD
330
FC3
100
AcDbEntity
  8
0
100
AcDbLine
 10
-80.29135424636576
 20
-44.99999999999996
 30
0.0
 11
-80.29135424636576
 21
-4.999999999999957
 31
0.0
  0
LINE
  5
EFE
330
FC3
100
AcDbEntity
  8
0
100
AcDbLine
 10
-80.29135424636576
 20
-4.999999999999957
 30
0.0
 11
-74.7519510328998
 21
-4.999999999999957
 31
0.0
  0
LINE
  5
EFF
330
FC3
100
AcDbEntity
  8
0
100
AcDbLine
 10
-74.7519510328998
 20
-4.999999999999957
 30
0.0
 11
-74.7519510328998
 21
-40.3481254781943
 31
0.0
  0
LINE
  5
F00
330
FC3
100
AcDbEntity
  8
0
100
AcDbLine
 10
-74.7519510328998
 20
-40.3481254781943
 30
0.0
 11
-57.27681713848511
 21
-40.3481254781943
 31
0.0
  0
LINE
  5
F01
330
FC3
100
AcDbEntity
  8
0
100
AcDbLine
 10
-57.27681713848511
 20
-40.3481254781943
 30
0.0
 11
-57.27681713848511
 21
-44.99999999999996
 31
0.0
  0
LINE
  5
F02
330
FC3
100
AcDbEntity
  8
0
100
AcDbLine
 10
-16.49579188982403
 20
-14.27314460596782
 30
0.0
 11
-10.43611323641929
 21
-14.27314460596782
 31
0.0
  0
LINE
  5
F03
330
FC3
100
AcDbEntity
  8
0
100
AcDbLine
 10
-10.43611323641929
 20
-14.27314460596782
 30
0.0
 11
-2.907421576128556
 21
-34.59449120122414
 31
0.0
  0
LINE
  5
F04
330
FC3
100
AcDbEntity
  8
0
100
AcDbLine
 10
-2.907421576128556
 20
-34.59449120122414
 30
0.0
 11
-1.285386381025262
 21
-39.55241009946438
 31
0.0
  0
LINE
  5
F05
330
FC3
100
AcDbEntity
  8
0
100
AcDbLine
 10
-1.285386381025262
 20
-39.55241009946438
 30
0.0
 11
0.3978576893649404
 21
-34.4720734506503
 31
0.0
  0
LINE
  5
F06
330
FC3
100
AcDbEntity
  8
0
100
AcDbLine
 10
0.3978576893649404
 20
-34.4720734506503
 30
0.0
 11
7.865340474368764
 21
-14.27314460596782
 31
0.0
  0
LINE
  5
F07
330
FC3
100
AcDbEntity
  8
0
100
AcDbLine
 10
7.865340474368764
 20
-14.27314460596782
 30
0.0
 11
13.71078806426929
 21
-14.27314460596782
 31
0.0
  0
LINE
  5
F08
330
FC3
100
AcDbEntity
  8
0
100
AcDbLine
 10
13.71078806426929
 20
-14.27314460596782
 30
0.0
 11
1.652639632746741
 21
-44.99999999999996
 31
0.0
  0
LINE
  5
F09
330
FC3
100
AcDbEntity
  8
0
100
AcDbLine
 10
1.652639632746741
 20
-44.99999999999996
 30
0.0
 11
-4.468247895944927
 21
-44.99999999999996
 31
0.0
  0
LINE
  5
F0A
330
FC3
100
AcDbEntity
  8
0
100
AcDbLine
 10
-4.468247895944927
 20
-44.99999999999996
 30
0.0
 11
-16.49579188982403
 21
-14.27314460596782
 31
0.0
  0
ARC
  5
F0B
330
FC3
100
AcDbEntity
  8
0
100
AcDbCircle
 10
-39.2488654380825
 20
-26.58373138459131
 30
0.0
 40
11.60890121715339
100
AcDbArc
 50
356.7126573798621
 51
15.40273420917972
  0
ARC
  5
F0C
330
FC3
100
AcDbEntity
  8
0
100
AcDbCircle
 10
-35.66655930221651
 20
-25.59067168645548
 30
0.0
 40
7.891505193428089
100
AcDbArc
 50
15.35972639257585
 51
39.43791087185285
  0
ARC
  5
F0D
330
FC3
100
AcDbEntity
  8
0
100
AcDbCircle
 10
-34.96823776609097
 20
-25.12379794317918
 30
0.0
 40
7.056092972647226
100
AcDbArc
 50
40.11213425892925
 51
66.25793768228168
  0
ARC
  5
F0E
330
FC3
100
AcDbEntity
  8
0
100
AcDbCircle
 10
-35.49886711414069
 20
-26.551401544133
 30
0.0
 40
8.576978906138233
100
AcDbArc
 50
66.85289108611873
 51
91.19291358439386
  0
ARC
  5
F0F
330
FC3
100
AcDbEntity
  8
0
100
AcDbCircle
 10
-35.77165867998231
 20
-25.39060926992298
 30
0.0
 40
7.414926470818425
100
AcDbArc
 50
89.27186125212268
 51
114.61649312477
  0
ARC
  5
F10
330
FC3
100
AcDbEntity
  8
0
100
AcDbCircle
 10
-35.79116513148834
 20
-25.2273011455034
 30
0.0
 40
7.258509361526315
100
AcDbArc
 50
115.013474542377
 51
139.8497314144441
  0
ARC
  5
F11
330
FC3
100
AcDbEntity
  8
0
100
AcDbCircle
 10
-33.803942910068
 20
-26.81534975061973
 30
0.0
 40
9.801652074610478
100
AcDbArc
 50
140.2443978081241
 51
160.1373737784628
  0
ARC
  5
F12
330
FC3
100
AcDbEntity
  8
0
100
AcDbCircle
 10
-30.30129776936492
 20
-28.14038665597649
 30
0.0
 40
13.54624365359475
100
AcDbArc
 50
159.8999623353966
 51
176.2288325780684
  0
LINE
  5
F13
330
FC3
100
AcDbEntity
  8
0
100
AcDbLine
 10
-43.81820964039788
 20
-27.24942616679413
 30
0.0
 11
-27.65906656465189
 21
-27.24942616679417
 31
0.0
  0
ARC
  5
F14
330
FC3
100
AcDbEntity
  8
0
100
AcDbCircle
 10
29.65763800491767
 20
-26.58373138459124
 30
0.0
 40
11.60890121715246
100
AcDbArc
 50
356.7126573798615
 51
15.40273420918066
  0
ARC
  5
F15
330
FC3
100
AcDbEntity
  8
0
100
AcDbCircle
 10
33.23994414078312
 20
-25.59067168645527
 30
0.0
 40
7.891505193427649
100
AcDbArc
 50
15.35972639257518
 51
39.43791087185348
  0
ARC
  5
F16
330
FC3
100
AcDbEntity
  8
0
100
AcDbCircle
 10
33.93826567690835
 20
-25.12379794317906
 30
0.0
 40
7.056092972647086
100
AcDbArc
 50
40.11213425892895
 51
66.25793768228188
  0
ARC
  5
F17
330
FC3
100
AcDbEntity
  8
0
100
AcDbCircle
 10
33.40763632885856
 20
-26.55140154413298
 30
0.0
 40
8.576978906138205
100
AcDbArc
 50
66.8528910861187
 51
91.1929135843939
  0
ARC
  5
F18
330
FC3
100
AcDbEntity
  8
0
100
AcDbCircle
 10
33.13484476301693
 20
-25.39060926992298
 30
0.0
 40
7.414926470818425
100
AcDbArc
 50
89.27186125212268
 51
114.61649312477
  0
ARC
  5
F19
330
FC3
100
AcDbEntity
  8
0
100
AcDbCircle
 10
33.11533831151115
 20
-25.22730114550373
 30
0.0
 40
7.258509361526717
100
AcDbArc
 50
115.0134745423777
 51
139.8497314144434
  0
ARC
  5
F1A
330
FC3
100
AcDbEntity
  8
0
100
AcDbCircle
 10
35.10256053293111
 20
-26.8153497506196
 30
0.0
 40
9.8016520746103
100
AcDbArc
 50
140.2443978081242
 51
160.1373737784632
  0
ARC
  5
F1B
330
FC3
100
AcDbEntity
  8
0
100
AcDbCircle
 10
38.60520567363339
 20
-28.1403866559763
 30
0.0
 40
13.54624365359379
100
AcDbArc
 50
159.8999623353959
 51
176.228832578069
  0
LINE
  5
F1C
330
FC3
100
AcDbEntity
  8
0
100
AcDbLine
 10
25.08829380260137
 20
-27.24942616679416
 30
0.0
 11
41.24743687834734
 21
-27.24942616679416
 31
0.0
  0
ARC
  5
F1D
330
FC3
100
AcDbEntity
  8
0
100
AcDbCircle
 10
-2.059600074438194
 20
-28.17567567567567
 30
0.0
 40
48.84670595396602
100
AcDbArc
 50
357.9628980516947
 51
0.1890112427609847
1001
QCAD
1000
reversed:1
  0
ARC
  5
F1E
330
FC3
100
AcDbEntity
  8
0
100
AcDbCircle
 10
18.25680948737981
 20
-28.81503442999229
 30
0.0
 40
28.5205303624575
100
AcDbArc
 50
354.8998509737037
 51
357.7957034656821
1001
QCAD
1000
reversed:1
  0
LINE
  5
F1F
330
FC3
100
AcDbEntity
  8
0
100
AcDbLine
 10
46.66442234123946
 20
-31.35042081101756
 30
0.0
 11
25.08829380260137
 21
-31.35042081101756
 31
0.0
  0
ARC
  5
F20
330
FC3
100
AcDbEntity
  8
0
100
AcDbCircle
 10
40.13125632970812
 20
-31.35042081101754
 30
0.0
 40
15.04296252710674
100
AcDbArc
 50
180.0
 51
188.2686463374729
  0
ARC
  5
F21
330
FC3
100
AcDbEntity
  8
0
100
AcDbCircle
 10
35.38040204080839
 20
-32.04084059611878
 30
0.0
 40
10.24220259205312
100
AcDbArc
 50
188.2686463374729
 51
198.2935821443994
  0
ARC
  5
F22
330
FC3
100
AcDbEntity
  8
0
100
AcDbCircle
 10
33.90672619612798
 20
-32.52802916606319
 30
0.0
 40
8.69008365399489
100
AcDbArc
 50
198.2935821443993
 51
211.776578667083
  0
ARC
  5
F23
330
FC3
100
AcDbEntity
  8
0
100
AcDbCircle
 10
32.98805387900047
 20
-33.09711036509789
 30
0.0
 40
7.60943003819045
100
AcDbArc
 50
211.7765786670828
 51
226.1899489321419
  0
ARC
  5
F24
330
FC3
100
AcDbEntity
  8
0
100
AcDbCircle
 10
33.06770704414973
 20
-33.01407797476033
 30
0.0
 40
7.724490911485691
100
AcDbArc
 50
226.1899489321427
 51
240.5693161453893
  0
ARC
  5
F25
330
FC3
100
AcDbEntity
  8
0
100
AcDbCircle
 10
33.99209657108035
 20
-31.37560313365751
 30
0.0
 40
9.605739380568375
100
AcDbArc
 50
240.5693161453886
 51
253.4572985528445
  0
ARC
  5
F26
330
FC3
100
AcDbEntity
  8
0
100
AcDbCircle
 10
34.56674504727381
 20
-29.4409183827257
 30
0.0
 40
11.62396284606458
100
AcDbArc
 50
253.4572985528452
 51
262.5570727254743
  0
ARC
  5
F27
330
FC3
100
AcDbEntity
  8
0
100
AcDbCircle
 10
35.31017597551643
 20
-23.75020229787594
 30
0.0
 40
17.36303412140482
100
AcDbArc
 50
262.5570727254744
 51
270.0000000000001
  0
ARC
  5
F28
330
FC3
100
AcDbEntity
  8
0
100
AcDbCircle
 10
35.30857837170492
 20
-7.162258170294912
 30
0.0
 40
33.95097828657442
100
AcDbArc
 50
270.0026961213016
 51
274.5525217953665
  0
ARC
  5
F29
330
FC3
100
AcDbEntity
  8
0
100
AcDbCircle
 10
34.89379966474571
 20
-1.400569706030218
 30
0.0
 40
39.72743498162763
100
AcDbArc
 50
274.4892775629432
 51
278.2650836842714
  0
ARC
  5
F2A
330
FC3
100
AcDbEntity
  8
0
100
AcDbCircle
 10
33.86719412951339
 20
5.653700354728038
 30
0.0
 40
46.85601422665815
100
AcDbArc
 50
278.2673693702343
 51
281.2485575124612
  0
ARC
  5
F2B
330
FC3
100
AcDbEntity
  8
0
100
AcDbCircle
 10
37.47448355011677
 20
-12.26568477430177
 30
0.0
 40
28.57723052813329
100
AcDbArc
 50
281.1632712426828
 51
285.5474106831331
  0
LINE
  5
F2C
330
FC3
100
AcDbEntity
  8
0
100
AcDbLine
 10
45.13420045906652
 20
-39.79724560061204
 30
0.0
 11
45.13420045906653
 21
-44.17368018362659
 31
0.0
  0
ARC
  5
F2D
330
FC3
100
AcDbEntity
  8
0
100
AcDbCircle
 10
35.31703495136992
 20
-8.31819978509101
 30
0.0
 40
37.17515585999979
100
AcDbArc
 50
277.5821211427899
 51
285.3122140804327
1001
QCAD
1000
reversed:1
  0
ARC
  5
F2E
330
FC3
100
AcDbEntity
  8
0
100
AcDbCircle
 10
34.63266425975513
 20
-4.535320629302866
 30
0.0
 40
41.01565279345668
100
AcDbArc
 50
269.8776303831925
 51
277.8325168091577
1001
QCAD
1000
reversed:1
  0
ARC
  5
F2F
330
FC3
100
AcDbEntity
  8
0
100
AcDbCircle
 10
34.54506503442991
 20
-20.55642955650793
 30
0.0
 40
24.99445032107428
100
AcDbArc
 50
261.0406270928278
 51
270.0000000000001
1001
QCAD
1000
reversed:1
  0
ARC
  5
F30
330
FC3
100
AcDbEntity
  8
0
100
AcDbCircle
 10
32.95238204576693
 20
-30.65859022745637
 30
0.0
 40
14.76751092925065
100
AcDbArc
 50
249.3764686166744
 51
261.0406270928277
1001
QCAD
1000
reversed:1
  0
ARC
  5
F31
330
FC3
100
AcDbEntity
  8
0
100
AcDbCircle
 10
31.67048300565868
 20
-33.53136015256703
 30
0.0
 40
11.6288422416383
100
AcDbArc
 50
222.4043897105242
 51
250.3022212913672
1001
QCAD
1000
reversed:1
  0
ARC
  5
F32
330
FC3
100
AcDbEntity
  8
0
100
AcDbCircle
 10
32.71138909357362
 20
-32.95434715389773
 30
0.0
 40
12.789540736843
100
AcDbArc
 50
195.5588065274242
 51
221.1683995344625
1001
QCAD
1000
reversed:1
  0
ARC
  5
F33
330
FC3
100
AcDbEntity
  8
0
100
AcDbCircle
 10
43.12396814546297
 20
-30.01919832679013
 30
0.0
 40
23.60787011536302
100
AcDbArc
 50
179.2199035758539
 51
195.6429123664909
1001
QCAD
1000
reversed:1
  0
ARC
  5
F34
330
FC3
100
AcDbEntity
  8
0
100
AcDbCircle
 10
39.37524717603416
 20
-29.57932432042249
 30
0.0
 40
19.85731434905938
100
AcDbArc
 50
162.3591937662906
 51
180.3417943708104
1001
QCAD
1000
reversed:1
  0
ARC
  5
F35
330
FC3
100
AcDbEntity
  8
0
100
AcDbCircle
 10
35.14950267788795
 20
-28.1713848508031
 30
0.0
 40
15.4037322405909
100
AcDbArc
 50
141.017959163585
 51
162.5865548987107
1001
QCAD
1000
reversed:1
  0
ARC
  5
F36
330
FC3
100
AcDbEntity
  8
0
100
AcDbCircle
 10
33.30617187555318
 20
-26.7765405056031
 30
0.0
 40
13.09358410026717
100
AcDbArc
 50
115.9954681346849
 51
140.6883502596186
1001
QCAD
1000
reversed:1
  0
ARC
  5
F37
330
FC3
100
AcDbEntity
  8
0
100
AcDbCircle
 10
32.72577519512262
 20
-25.4475169472465
 30
0.0
 40
11.64479056714029
100
AcDbArc
 50
102.2770980511081
 51
116.2947900705838
1001
QCAD
1000
reversed:1
  0
ARC
  5
F38
330
FC3
100
AcDbEntity
  8
0
100
AcDbCircle
 10
33.47390971690894
 20
-28.88537320212183
 30
0.0
 40
15.16310847373626
100
AcDbArc
 50
90.00000000000001
 51
102.277098051108
1001
QCAD
1000
reversed:1
  0
ARC
  5
F39
330
FC3
100
AcDbEntity
  8
0
100
AcDbCircle
 10
33.47390971690888
 20
-31.80558340330682
 30
0.0
 40
18.08331867492124
100
AcDbArc
 50
79.93931020467684
 51
89.99999999999982
1001
QCAD
1000
reversed:1
  0
ARC
  5
F3A
330
FC3
100
AcDbEntity
  8
0
100
AcDbCircle
 10
34.44852710874066
 20
-26.31228537661899
 30
0.0
 40
12.50423252480013
100
AcDbArc
 50
67.8336541779177
 51
79.93931020467707
1001
QCAD
1000
reversed:1
  0
ARC
  5
F3B
330
FC3
100
AcDbEntity
  8
0
100
AcDbCircle
 10
34.95610134840528
 20
-25.35881543549601
 30
0.0
 40
11.43025750374459
100
AcDbArc
 50
42.79248746261249
 51
68.38665425352278
1001
QCAD
1000
reversed:1
  0
ARC
  5
F3C
330
FC3
100
AcDbEntity
  8
0
100
AcDbCircle
 10
34.27822932960056
 20
-25.75800820470525
 30
0.0
 40
12.20003339373373
100
AcDbArc
 50
17.48428725144745
 51
42.00547534243747
1001
QCAD
1000
reversed:1
  0
ARC
  5
F3D
330
FC3
100
AcDbEntity
  8
0
100
AcDbCircle
 10
27.92829162356322
 20
-27.76693969924635
 30
0.0
 40
18.86017377454671
100
AcDbArc
 50
359.2477962172841
 51
17.50954879515079
1001
QCAD
1000
reversed:1
  0
LINE
  5
F51
330
FC3
100
AcDbEntity
  8
0
100
AcDbLine
 10
65.75424636572302
 20
-6.132364192807913
 30
0.0
 11
56.66472838561592
 21
-6.132364192807913
 31
0.0
  0
LINE
  5
F52
330
FC3
100
AcDbEntity
  8
0
100
AcDbLine
 10
56.66472838561592
 20
-6.132364192807913
 30
0.0
 11
56.66472838561592
 21
-1.755929609793384
 31
0.0
  0
LINE
  5
F53
330
FC3
100
AcDbEntity
  8
0
100
AcDbLine
 10
56.66472838561592
 20
-1.755929609793384
 30
0.0
 11
71.14062739097167
 21
-1.755929609793384
 31
0.0
  0
LINE
  5
F54
330
FC3
100
AcDbEntity
  8
0
100
AcDbLine
 10
71.14062739097167
 20
-1.755929609793384
 30
0.0
 11
71.14062739097167
 21
-40.56235654169851
 31
0.0
  0
LINE
  5
F55
330
FC3
100
AcDbEntity
  8
0
100
AcDbLine
 10
71.14062739097167
 20
-40.56235654169851
 30
0.0
 11
80.2913542463657
 21
-40.56235654169851
 31
0.0
  0
LINE
  5
F56
330
FC3
100
AcDbEntity
  8
0
100
AcDbLine
 10
80.2913542463657
 20
-40.56235654169851
 30
0.0
 11
80.2913542463657
 21
-44.99999999999996
 31
0.0
  0
LINE
  5
F57
330
FC3
100
AcDbEntity
  8
0
100
AcDbLine
 10
80.2913542463657
 20
-44.99999999999996
 30
0.0
 11
55.65478194338178
 21
-44.99999999999996
 31
0.0
  0
LINE
  5
F58
330
FC3
100
AcDbEntity
  8
0
100
AcDbLine
 10
55.65478194338178
 20
-44.99999999999996
 30
0.0
 11
55.65478194338178
 21
-40.56235654169851
 31
0.0
  0
LINE
  5
F59
330
FC3
100
AcDbEntity
  8
0
100
AcDbLine
 10
55.65478194338178
 20
-40.56235654169851
 30
0.0
 11
65.75424636572302
 21
-40.56235654169851
 31
0.0
  0
LINE
  5
F5A
330
FC3
100
AcDbEntity
  8
0
100
AcDbLine
 10
65.75424636572302
 20
-40.56235654169851
 30
0.0
 11
65.75424636572302
 21
-6.132364192807913
 31
0.0
  0
HATCH
  5
FA5
330
FC3
100
AcDbEntity
  8
0
100
AcDbHatch
 10
0.0
 20
0.0
 30
0.0
210
0.0
220
0.0
230
1.0
  2
SOLID
 70
     1
 71
     0
 91
       10
 92
        0
 93
       33
 72
     2
 10
32.95238204576693
 20
-30.65859022745637
 40
14.76751092925065
 50
98.95937290717238
 51
110.6235313833256
 73
     0
 72
     2
 10
31.67048300565868
 20
-33.53136015256703
 40
11.6288422416383
 50
109.6977787086328
 51
137.5956102894758
 73
     0
 72
     2
 10
32.71138909357362
 20
-32.95434715389773
 40
12.789540736843
 50
138.8316004655375
 51
164.4411934725758
 73
     0
 72
     2
 10
43.12396814546297
 20
-30.01919832679013
 40
23.60787011536302
 50
164.3570876335091
 51
180.7800964241461
 73
     0
 72
     2
 10
39.37524717603416
 20
-29.57932432042249
 40
19.85731434905938
 50
179.6582056291896
 51
197.6408062337094
 73
     0
 72
     2
 10
35.14950267788795
 20
-28.1713848508031
 40
15.4037322405909
 50
197.4134451012893
 51
218.982040836415
 73
     0
 72
     2
 10
33.30617187555318
 20
-26.7765405056031
 40
13.09358410026717
 50
219.3116497403814
 51
244.0045318653152
 73
     0
 72
     2
 10
32.72577519512262
 20
-25.4475169472465
 40
11.64479056714029
 50
243.7052099294162
 51
257.7229019488919
 73
     0
 72
     2
 10
33.47390971690894
 20
-28.88537320212183
 40
15.16310847373626
 50
257.7229019488919
 51
270.0
 73
     0
 72
     2
 10
33.47390971690888
 20
-31.80558340330682
 40
18.08331867492124
 50
270.0000000000002
 51
280.0606897953231
 73
     0
 72
     2
 10
34.44852710874066
 20
-26.31228537661899
 40
12.50423252480013
 50
280.060689795323
 51
292.1663458220823
 73
     0
 72
     2
 10
34.95610134840528
 20
-25.35881543549601
 40
11.43025750374459
 50
291.6133457464772
 51
317.2075125373875
 73
     0
 72
     2
 10
34.27822932960056
 20
-25.75800820470525
 40
12.20003339373373
 50
317.9945246575625
 51
342.5157127485526
 73
     0
 72
     2
 10
27.92829162356322
 20
-27.76693969924635
 40
18.86017377454671
 50
342.4904512048492
 51
360.7522037827159
 73
     0
 72
     2
 10
-2.059600074438194
 20
-28.17567567567567
 40
48.84670595396602
 50
359.810988757239
 51
362.0371019483052
 73
     0
 72
     2
 10
18.25680948737981
 20
-28.81503442999229
 40
28.5205303624575
 50
2.204296534317925
 51
5.100149026296309
 73
     0
 72
     1
 10
46.66442234123946
 20
-31.35042081101757
 11
25.08829380260137
 21
-31.35042081101756
 72
     2
 10
40.13125632970812
 20
-31.35042081101754
 40
15.04296252710674
 50
180.0
 51
188.2686463374729
 73
     1
 72
     2
 10
35.38040204080839
 20
-32.04084059611878
 40
10.24220259205312
 50
188.2686463374729
 51
198.2935821443994
 73
     1
 72
     2
 10
33.90672619612798
 20
-32.52802916606319
 40
8.69008365399489
 50
198.2935821443993
 51
211.776578667083
 73
     1
 72
     2
 10
32.98805387900047
 20
-33.09711036509789
 40
7.60943003819045
 50
211.7765786670828
 51
226.1899489321419
 73
     1
 72
     2
 10
33.06770704414973
 20
-33.01407797476033
 40
7.724490911485691
 50
226.1899489321427
 51
240.5693161453893
 73
     1
 72
     2
 10
33.99209657108035
 20
-31.37560313365751
 40
9.605739380568375
 50
240.5693161453886
 51
253.4572985528445
 73
     1
 72
     2
 10
34.56674504727381
 20
-29.4409183827257
 40
11.62396284606458
 50
253.4572985528452
 51
262.5570727254743
 73
     1
 72
     2
 10
35.31017597551643
 20
-23.75020229787594
 40
17.36303412140482
 50
262.5570727254744
 51
270.0000000000001
 73
     1
 72
     2
 10
35.30857837170492
 20
-7.162258170294912
 40
33.95097828657442
 50
270.0026961213016
 51
274.5525217953665
 73
     1
 72
     2
 10
34.89379966474571
 20
-1.400569706030218
 40
39.72743498162763
 50
274.4892775629432
 51
278.2650836842714
 73
     1
 72
     2
 10
33.86719412951339
 20
5.653700354728038
 40
46.85601422665815
 50
278.2673693702343
 51
281.2485575124612
 73
     1
 72
     2
 10
37.47448355011677
 20
-12.26568477430177
 40
28.57723052813329
 50
281.1632712426828
 51
285.5474106831331
 73
     1
 72
     1
 10
45.13420045906653
 20
-39.79724560061204
 11
45.13420045906653
 21
-44.17368018362659
 72
     2
 10
35.31703495136992
 20
-8.31819978509101
 40
37.17515585999979
 50
74.68778591956726
 51
82.41787885721008
 73
     0
 72
     2
 10
34.63266425975513
 20
-4.535320629302866
 40
41.01565279345668
 50
82.1674831908423
 51
90.12236961680748
 73
     0
 72
     2
 10
34.54506503442991
 20
-20.55642955650793
 40
24.99445032107428
 50
89.9999999999999
 51
98.95937290717222
 73
     0
 97
        0
 92
        0
 93
        9
 72
     2
 10
33.13484476301693
 20
-25.39060926992298
 40
7.414926470818425
 50
89.27186125212268
 51
114.61649312477
 73
     1
 72
     2
 10
33.11533831151115
 20
-25.22730114550373
 40
7.258509361526717
 50
115.0134745423777
 51
139.8497314144434
 73
     1
 72
     2
 10
35.10256053293111
 20
-26.8153497506196
 40
9.8016520746103
 50
140.2443978081242
 51
160.1373737784632
 73
     1
 72
     2
 10
38.60520567363339
 20
-28.1403866559763
 40
13.54624365359379
 50
159.8999623353959
 51
176.228832578069
 73
     1
 72
     1
 10
25.08829380260137
 20
-27.24942616679413
 11
41.24743687834734
 21
-27.24942616679416
 72
     2
 10
29.65763800491767
 20
-26.58373138459124
 40
11.60890121715246
 50
356.7126573798615
 51
375.4027342091806
 73
     1
 72
     2
 10
33.23994414078312
 20
-25.59067168645527
 40
7.891505193427649
 50
15.35972639257518
 51
39.43791087185348
 73
     1
 72
     2
 10
33.93826567690835
 20
-25.12379794317906
 40
7.056092972647086
 50
40.11213425892895
 51
66.25793768228188
 73
     1
 72
     2
 10
33.40763632885856
 20
-26.55140154413298
 40
8.576978906138205
 50
66.8528910861187
 51
91.1929135843939
 73
     1
 97
        0
 92
        0
 93
        9
 72
     2
 10
-35.79116513148834
 20
-25.2273011455034
 40
7.258509361526315
 50
115.013474542377
 51
139.8497314144441
 73
     1
 72
     2
 10
-33.803942910068
 20
-26.81534975061973
 40
9.801652074610478
 50
140.2443978081241
 51
160.1373737784628
 73
     1
 72
     2
 10
-30.30129776936492
 20
-28.14038665597649
 40
13.54624365359475
 50
159.8999623353966
 51
176.2288325780684
 73
     1
 72
     1
 10
-43.81820964039789
 20
-27.24942616679413
 11
-27.65906656465189
 21
-27.24942616679417
 72
     2
 10
-39.2488654380825
 20
-26.58373138459131
 40
11.60890121715339
 50
356.7126573798621
 51
375.4027342091797
 73
     1
 72
     2
 10
-35.66655930221651
 20
-25.59067168645548
 40
7.891505193428089
 50
15.35972639257585
 51
39.43791087185285
 73
     1
 72
     2
 10
-34.96823776609097
 20
-25.12379794317918
 40
7.056092972647226
 50
40.11213425892925
 51
66.25793768228168
 73
     1
 72
     2
 10
-35.49886711414069
 20
-26.551401544133
 40
8.576978906138233
 50
66.85289108611873
 51
91.19291358439386
 73
     1
 72
     2
 10
-35.77165867998231
 20
-25.39060926992298
 40
7.414926470818425
 50
89.27186125212268
 51
114.61649312477
 73
     1
 97
        0
 92
        0
 93
        9
 72
     1
 10
13.71078806426929
 20
-14.27314460596782
 11
1.652639632746741
 21
-44.99999999999996
 72
     1
 10
1.652639632746741
 20
-44.99999999999996
 11
-4.468247895944927
 21
-44.99999999999996
 72
     1
 10
-4.468247895944927
 20
-44.99999999999996
 11
-16.49579188982403
 21
-14.27314460596782
 72
     1
 10
-16.49579188982403
 20
-14.27314460596782
 11
-10.43611323641929
 21
-14.27314460596782
 72
     1
 10
-10.43611323641929
 20
-14.27314460596782
 11
-2.907421576128556
 21
-34.59449120122414
 72
     1
 10
-2.907421576128556
 20
-34.59449120122414
 11
-1.285386381025262
 21
-39.55241009946438
 72
     1
 10
-1.285386381025262
 20
-39.55241009946438
 11
0.3978576893649404
 21
-34.4720734506503
 72
     1
 10
0.3978576893649404
 20
-34.4720734506503
 11
7.865340474368764
 21
-14.27314460596782
 72
     1
 10
7.865340474368764
 20
-14.27314460596782
 11
13.71078806426929
 21
-14.27314460596782
 97
        0
 92
        0
 93
        6
 72
     1
 10
-74.7519510328998
 20
-40.3481254781943
 11
-57.27681713848511
 21
-40.3481254781943
 72
     1
 10
-57.27681713848511
 20
-40.3481254781943
 11
-57.27681713848511
 21
-44.99999999999996
 72
     1
 10
-57.27681713848511
 20
-44.99999999999996
 11
-80.29135424636576
 21
-44.99999999999996
 72
     1
 10
-80.29135424636576
 20
-44.99999999999996
 11
-80.29135424636576
 21
-4.999999999999957
 72
     1
 10
-80.29135424636576
 20
-4.999999999999957
 11
-74.7519510328998
 21
-4.999999999999957
 72
     1
 10
-74.7519510328998
 20
-4.999999999999957
 11
-74.7519510328998
 21
-40.3481254781943
 97
        0
 92
        0
 93
       33
 72
     2
 10
-34.45797633425852
 20
-26.31228537661863
 40
12.50423252479977
 50
280.060689795323
 51
292.1663458220826
 73
     0
 72
     2
 10
-33.95040209459411
 20
-25.35881543549626
 40
11.43025750374488
 50
291.6133457464774
 51
317.2075125373871
 73
     0
 72
     2
 10
-34.62827411339828
 20
-25.75800820470497
 40
12.20003339373325
 50
317.9945246575623
 51
342.5157127485532
 73
     0
 72
     2
 10
-40.97821181944072
 20
-27.76693969924712
 40
18.8601737745514
 50
342.4904512048512
 51
360.7522037827184
 73
     0
 72
     2
 10
-70.96610351743782
 20
-28.17567567567562
 40
48.84670595396639
 50
359.810988757241
 51
362.0371019483055
 73
     0
 72
     2
 10
-50.6496939555995
 20
-28.81503442999384
 40
28.52053036243752
 50
2.204296534316297
 51
5.100149026296767
 73
     0
 72
     1
 10
-22.24208110175978
 20
-31.35042081101757
 11
-43.81820964039788
 21
-31.35042081101756
 72
     2
 10
-28.77524711329133
 20
-31.35042081101749
 40
15.04296252710656
 50
180.0
 51
188.2686463374732
 73
     1
 72
     2
 10
-33.526101402191
 20
-32.04084059611885
 40
10.24220259205297
 50
188.2686463374726
 51
198.2935821443993
 73
     1
 72
     2
 10
-34.99977724687115
 20
-32.52802916606313
 40
8.690083653995021
 50
198.2935821443994
 51
211.7765786670829
 73
     1
 72
     2
 10
-35.91844956399875
 20
-33.09711036509778
 40
7.609430038190538
 50
211.7765786670834
 51
226.1899489321424
 73
     1
 72
     2
 10
-35.83879639884949
 20
-33.01407797476041
 40
7.724490911485631
 50
226.1899489321421
 51
240.5693161453889
 73
     1
 72
     2
 10
-34.91440687191898
 20
-31.37560313365762
 40
9.60573938056824
 50
240.5693161453887
 51
253.4572985528447
 73
     1
 72
     2
 10
-34.3397583957254
 20
-29.44091838272565
 40
11.62396284606464
 50
253.457298552845
 51
262.5570727254741
 73
     1
 72
     2
 10
-33.59632746748277
 20
-23.750202297876
 40
17.36303412140477
 50
262.5570727254742
 51
269.9999999999999
 73
     1
 72
     2
 10
-33.5979250712946
 20
-7.162258170294848
 40
33.9509782865745
 50
270.0026961213021
 51
274.5525217953671
 73
     1
 72
     2
 10
-34.01270377825303
 20
-1.400569706034432
 40
39.72743498162338
 50
274.489277562943
 51
278.2650836842715
 73
     1
 72
     2
 10
-35.03930931348481
 20
5.653700354721941
 40
46.85601422665196
 50
278.267369370234
 51
281.2485575124613
 73
     1
 72
     2
 10
-31.43201989288367
 20
-12.26568477429633
 40
28.57723052813886
 50
281.163271242683
 51
285.5474106831325
 73
     1
 72
     1
 10
-23.77230298393272
 20
-39.79724560061204
 11
-23.77230298393269
 21
-44.17368018362659
 72
     2
 10
-33.58946849162926
 20
-8.318199785091053
 40
37.17515585999975
 50
74.68778591956732
 51
82.41787885721018
 73
     0
 72
     2
 10
-34.27383918324412
 20
-4.535320629302802
 40
41.01565279345674
 50
82.1674831908423
 51
90.12236961680745
 73
     0
 72
     2
 10
-34.36143840856927
 20
-20.55642955650776
 40
24.99445032107444
 50
90.0
 51
98.95937290717228
 73
     0
 72
     2
 10
-35.95412139723227
 20
-30.65859022745619
 40
14.76751092925082
 50
98.95937290717238
 51
110.6235313833254
 73
     0
 72
     2
 10
-37.2360204373406
 20
-33.53136015256709
 40
11.62884224163822
 50
109.6977787086327
 51
137.5956102894759
 73
     0
 72
     2
 10
-36.19511434942579
 20
-32.9543471538978
 40
12.78954073684282
 50
138.8316004655373
 51
164.4411934725759
 73
     0
 72
     2
 10
-25.78253529753641
 20
-30.01919832679018
 40
23.60787011536288
 50
164.3570876335091
 51
180.7800964241461
 73
     0
 72
     2
 10
-29.53125626696481
 20
-29.57932432042248
 40
19.85731434905965
 50
179.6582056291917
 51
197.6408062337092
 73
     0
 72
     2
 10
-33.75700076511087
 20
-28.17138485080338
 40
15.40373224059138
 50
197.4134451012898
 51
218.9820408364149
 73
     0
 72
     2
 10
-35.60033156744623
 20
-26.77654050560285
 40
13.09358410026687
 50
219.311649740381
 51
244.0045318653154
 73
     0
 72
     2
 10
-36.18072824787672
 20
-25.44751694724619
 40
11.64479056713996
 50
243.705209929416
 51
257.7229019488919
 73
     0
 72
     2
 10
-35.43259372609032
 20
-28.88537320212196
 40
15.16310847373639
 50
257.7229019488921
 51
270.0000000000001
 73
     0
 72
     2
 10
-35.43259372609031
 20
-31.80558340330691
 40
18.08331867492134
 50
270.0
 51
280.060689795323
 73
     0
 97
        0
 92
        0
 93
       19
 72
     1
 10
-0.7039020657995749
 20
29.94261667941854
 11
1.040550879877543
 21
24.86228003060446
 72
     1
 10
1.040550879877543
 20
24.86228003060446
 11
2.723794950267759
 21
29.94261667941854
 72
     1
 10
2.723794950267759
 20
29.94261667941854
 11
8.385615914307543
 21
45.00000000000003
 72
     1
 10
8.385615914307543
 20
45.00000000000003
 11
15.02677888293799
 21
45.00000000000003
 72
     1
 10
15.02677888293799
 20
45.00000000000003
 11
16.95485845447587
 21
5.000000000000028
 72
     1
 10
16.95485845447587
 20
5.000000000000028
 11
11.62968630451412
 21
5.000000000000028
 72
     1
 10
11.62968630451412
 20
5.000000000000028
 11
10.83397092578421
 21
29.94261667941854
 72
     1
 10
10.83397092578421
 20
29.94261667941854
 11
10.49732211170617
 21
39.52180566182099
 72
     1
 10
10.49732211170617
 20
39.52180566182099
 11
8.630451415455205
 21
33.95179801071158
 72
     1
 10
8.630451415455205
 20
33.95179801071158
 11
2.723794950267759
 21
18.03749043611326
 72
     1
 10
2.723794950267759
 20
18.03749043611326
 11
-1.040550879877621
 21
18.03749043611326
 72
     1
 10
-1.040550879877621
 20
18.03749043611326
 11
-6.671767406273943
 21
33.33970925784242
 72
     1
 10
-6.671767406273943
 20
33.33970925784242
 11
-8.5386381025249
 21
39.52180566182099
 72
     1
 10
-8.5386381025249
 20
39.52180566182099
 11
-8.661055853098738
 21
29.51415455241013
 72
     1
 10
-8.661055853098738
 20
29.51415455241013
 11
-9.364957918898277
 21
5.000000000000028
 72
     1
 10
-9.364957918898277
 20
5.000000000000028
 11
-14.50650344299927
 21
5.000000000000028
 72
     1
 10
-14.50650344299927
 20
5.000000000000028
 11
-12.54781943381794
 21
45.00000000000003
 72
     1
 10
-12.54781943381794
 20
45.00000000000003
 11
-6.090283091048242
 21
45.00000000000003
 72
     1
 10
-6.090283091048242
 20
45.00000000000003
 11
-0.7039020657995749
 21
29.94261667941854
 97
        0
 92
        0
 93
       55
 72
     2
 10
41.54243617790119
 20
16.59403670510003
 40
7.335243125082051
 50
332.6364530726079
 51
347.673570576215
 73
     0
 72
     2
 10
38.06416905221901
 20
15.83397092578427
 40
10.89558611227981
 50
347.6735705762148
 51
360.0
 73
     0
 72
     2
 10
36.77937844904146
 20
15.83397092578426
 40
12.18037671545737
 50
0.0
 51
13.12290985899635
 73
     0
 72
     2
 10
39.98333272637377
 20
15.08703679978038
 40
8.890508389851423
 50
13.12290985899619
 51
28.49563861824412
 73
     0
 72
     2
 10
38.89465722556906
 20
15.68668738916703
 40
10.1333858615406
 50
28.53864843087259
 51
56.05766895866245
 73
     0
 72
     2
 10
36.27710861470234
 20
19.79924714333431
 40
15.00721368955999
 50
56.53400529943006
 51
77.40759039219319
 73
     0
 72
     2
 10
33.35967948504712
 20
31.96558401901589
 40
27.51762718733877
 50
77.00194062263876
 51
90.5268388639914
 73
     0
 72
     2
 10
33.10079858454466
 20
45.33905472933952
 40
40.88993502652091
 50
89.99179182264164
 51
94.43466453015007
 73
     0
 72
     2
 10
34.78681437379819
 20
67.71466505500314
 40
63.32894182299678
 50
94.39018403723978
 51
97.14559375858832
 73
     0
 72
     2
 10
32.39986281800018
 20
48.94779500108275
 40
44.41092652686385
 50
97.10175367000267
 51
100.679092844725
 73
     0
 72
     2
 10
30.42939974881416
 20
38.74781654661324
 40
34.02249549469596
 50
100.6012936722957
 51
104.6159199144372
 73
     0
 72
     1
 10
21.84422341239478
 20
5.826319816373406
 11
21.84422341239477
 21
11.09028309104823
 72
     2
 10
31.59404751241796
 20
37.88018861090723
 40
28.50891277731167
 50
250.0017074126825
 51
260.7288621467621
 73
     1
 72
     2
 10
33.15800810760413
 20
48.08374506435163
 40
38.83127426449755
 50
260.8769006512197
 51
270.5112785487233
 73
     1
 72
     2
 10
33.83917234568771
 20
30.15634648322529
 40
20.90500851315209
 50
269.082740339605
 51
281.4471531696067
 73
     1
 72
     2
 10
36.32877978751318
 20
18.13542075276017
 40
8.629274687978352
 50
281.0861940703453
 51
302.9152026307361
 73
     1
 72
     2
 10
38.34222837173782
 20
14.94541047331029
 40
4.857428311058507
 50
303.4247926205508
 51
334.6450624117106
 73
     1
 72
     2
 10
36.96918130898662
 20
15.40963688459317
 40
6.299259193846236
 50
336.1775314170115
 51
361.0759831792698
 73
     1
 72
     2
 10
38.9262528110547
 20
15.64487664390582
 40
4.34265200375602
 50
358.4568054153493
 51
397.6516977276411
 73
     1
 72
     2
 10
35.44794274855232
 20
12.69415821646636
 40
8.901551758032802
 50
39.01277178214609
 51
59.29934142040663
 73
     1
 72
     2
 10
28.70130320600353
 20
1.675823348380668
 40
21.82084990769559
 50
58.83817324059829
 51
68.66134202002391
 73
     1
 72
     2
 10
262.7902306441639
 20
589.5593362051778
 40
610.9549852565552
 50
111.7252494402585
 51
112.1135161290515
 73
     0
 72
     2
 10
54.06926437725996
 20
75.91935367632695
 40
56.52692678326591
 50
112.1020248706569
 51
116.372447305419
 73
     0
 72
     2
 10
35.9395126807516
 20
39.54054521141278
 40
15.88112853120536
 50
116.0719896577435
 51
130.5805897164871
 73
     0
 72
     2
 10
32.25801873509032
 20
35.19904155316848
 40
10.18895707357839
 50
130.7389289047682
 51
152.3006745985457
 73
     0
 72
     2
 10
29.53385602698723
 20
33.78013061406349
 40
7.117438184241775
 50
152.2203792749785
 51
167.4940011190674
 73
     0
 72
     2
 10
32.92942137204551
 20
34.53328232593724
 40
10.59552695735541
 50
167.4940011190679
 51
180.0
 73
     0
 72
     2
 10
32.45859607852096
 20
34.49639712683716
 40
10.12476885165741
 50
180.2087327563388
 51
203.743532132067
 73
     0
 72
     2
 10
32.04743615542645
 20
34.67204816027327
 40
9.67768721525018
 50
203.7717571762807
 51
230.2057795980073
 73
     0
 72
     2
 10
32.9691249882402
 20
33.79446491143398
 40
10.94286780142579
 50
229.4387163677047
 51
241.7218016263371
 73
     0
 72
     2
 10
36.00049816251506
 20
28.15945833594144
 40
17.34150222039031
 50
241.7218016263371
 51
251.4721893791124
 73
     0
 72
     2
 10
35.60694561140217
 20
29.33376836748767
 40
16.10300003602503
 50
251.4721893791127
 51
261.9972618236706
 73
     0
 72
     2
 10
37.2382555470543
 20
17.73041866389729
 40
27.82046121368498
 50
261.9972618236707
 51
270.0
 73
     0
 72
     2
 10
37.14726820616293
 20
17.26018553940819
 40
28.29084065262461
 50
270.1842716401895
 51
274.6209472977821
 73
     0
 72
     2
 10
36.32781711591991
 20
5.941486448496804
 40
39.63887997312988
 50
274.4835074840897
 51
277.9549518934926
 73
     0
 72
     2
 10
33.79124243381608
 20
-12.49987445093817
 40
58.25384474102355
 50
277.9155933138754
 51
280.2936084169286
 73
     0
 72
     2
 10
37.35147581951384
 20
6.723309924585593
 40
38.70393063720252
 50
280.1931017992894
 51
283.5034306775401
 73
     0
 72
     1
 10
46.38898240244832
 20
44.35730680948741
 11
46.38898240244832
 21
39.46059678653408
 72
     2
 10
36.16691066702842
 20
3.815262141583055
 40
37.0820796681445
 50
73.998609058175
 51
81.45639779816703
 73
     1
 72
     2
 10
37.02679402575878
 20
9.966857320672126
 40
30.87106757794849
 50
81.33844702881117
 51
89.83473719152569
 73
     1
 72
     2
 10
37.11583779648031
 20
15.9505519960777
 40
24.887244484412
 50
89.99999999999966
 51
94.62133887165884
 73
     1
 72
     2
 10
36.34701741316229
 20
25.46177764380533
 40
15.34499642099438
 50
94.62133887165949
 51
100.5076892278771
 73
     1
 72
     2
 10
35.61197031895122
 20
29.42476865317797
 40
11.31441433262594
 50
100.5076892278766
 51
110.9778236802779
 73
     1
 72
     2
 10
33.72797685122984
 20
34.33842306722272
 40
6.051959478940423
 50
110.9778236802783
 51
125.3112134396331
 73
     1
 72
     2
 10
33.72329302508729
 20
34.34503552765932
 40
6.043856216612249
 50
125.3112134396334
 51
137.7915869959448
 73
     1
 72
     2
 10
32.67843189941203
 20
35.2927373423575
 40
4.633227455552276
 50
137.7915869959453
 51
152.0544213067324
 73
     1
 72
     2
 10
32.60343107587816
 20
35.33252465552953
 40
4.548326608558808
 50
152.0544213067316
 51
166.7780850395366
 73
     1
 72
     2
 10
33.66051096808322
 20
35.08416220351956
 40
5.634191151709866
 50
166.7780850395371
 51
180.0
 73
     1
 72
     2
 10
32.43099676803639
 20
34.97321209452733
 40
4.406074100057442
 50
178.5570726124517
 51
217.3658089159214
 73
     1
 72
     2
 10
35.9487441669461
 20
37.90727720116111
 40
8.984747564581513
 50
218.6221827158602
 51
238.8491355373752
 73
     1
 72
     2
 10
42.268304593067
 20
48.05276477813449
 40
20.93701752073808
 50
238.4108982419514
 51
248.6684901376513
 73
     1
 72
     2
 10
-191.4965810651565
 20
-539.0084563280266
 40
610.9549852570229
 50
291.7252494402594
 51
292.1135161290521
 73
     0
 72
     2
 10
18.90069381651221
 20
-21.23347621200485
 40
52.06506531955874
 50
292.1049919219157
 51
296.7485160911598
 73
     0
 72
     2
 10
35.36052369065824
 20
11.25023384053531
 40
15.6494506601915
 50
296.4616328261866
 51
311.2799885945914
 73
     0
 72
     2
 10
38.77234589157121
 20
15.18014207396577
 40
10.44527241755279
 50
311.4376848858914
 51
332.7326596752268
 73
     0
 97
        0
 92
        0
 93
       10
 72
     1
 10
55.65478194338178
 20
-44.99999999999996
 11
55.65478194338178
 21
-40.56235654169851
 72
     1
 10
55.65478194338178
 20
-40.56235654169851
 11
65.75424636572302
 21
-40.56235654169851
 72
     1
 10
65.75424636572302
 20
-40.56235654169851
 11
65.75424636572302
 21
-6.132364192807913
 72
     1
 10
65.75424636572302
 20
-6.132364192807913
 11
56.66472838561592
 21
-6.132364192807913
 72
     1
 10
56.66472838561592
 20
-6.132364192807913
 11
56.66472838561592
 21
-1.755929609793384
 72
     1
 10
56.66472838561592
 20
-1.755929609793384
 11
71.14062739097167
 21
-1.755929609793384
 72
     1
 10
71.14062739097167
 20
-1.755929609793384
 11
71.14062739097167
 21
-40.56235654169851
 72
     1
 10
71.14062739097167
 20
-40.56235654169851
 11
80.2913542463657
 21
-40.56235654169851
 72
     1
 10
80.2913542463657
 20
-40.56235654169851
 11
80.2913542463657
 21
-44.99999999999996
 72
     1
 10
80.2913542463657
 20
-44.99999999999996
 11
55.65478194338178
 21
-44.99999999999996
 97
        0
 92
        0
 93
       19
 72
     1
 10
-19.42647283856163
 20
45.00000000000003
 11
-17.49839326702376
 21
5.000000000000028
 72
     1
 10
-17.49839326702376
 20
5.000000000000028
 11
-22.8235654169855
 21
5.000000000000028
 72
     1
 10
-22.8235654169855
 20
5.000000000000028
 11
-23.61928079571542
 21
29.94261667941854
 72
     1
 10
-23.61928079571542
 20
29.94261667941854
 11
-23.95592960979346
 21
39.52180566182099
 72
     1
 10
-23.95592960979346
 20
39.52180566182099
 11
-25.82280030604441
 21
33.95179801071158
 72
     1
 10
-25.82280030604441
 20
33.95179801071158
 11
-31.72945677123187
 21
18.03749043611326
 72
     1
 10
-31.72945677123187
 20
18.03749043611326
 11
-35.49380260137724
 21
18.03749043611326
 72
     1
 10
-35.49380260137724
 20
18.03749043611326
 11
-41.12501912777357
 21
33.33970925784242
 72
     1
 10
-41.12501912777357
 20
33.33970925784242
 11
-42.99188982402453
 21
39.52180566182099
 72
     1
 10
-42.99188982402453
 20
39.52180566182099
 11
-43.11430757459836
 21
29.51415455241013
 72
     1
 10
-43.11430757459836
 20
29.51415455241013
 11
-43.8182096403979
 21
5.000000000000028
 72
     1
 10
-43.8182096403979
 20
5.000000000000028
 11
-48.95975516449889
 21
5.000000000000028
 72
     1
 10
-48.95975516449889
 20
5.000000000000028
 11
-47.00107115531756
 21
45.00000000000003
 72
     1
 10
-47.00107115531756
 20
45.00000000000003
 11
-40.54353481254786
 21
45.00000000000003
 72
     1
 10
-40.54353481254786
 20
45.00000000000003
 11
-35.15715378729919
 21
29.94261667941854
 72
     1
 10
-35.15715378729919
 20
29.94261667941854
 11
-33.41270084162207
 21
24.86228003060446
 72
     1
 10
-33.41270084162207
 20
24.86228003060446
 11
-31.72945677123187
 21
29.94261667941854
 72
     1
 10
-31.72945677123187
 20
29.94261667941854
 11
-26.06763580719208
 21
45.00000000000003
 72
     1
 10
-26.06763580719208
 20
45.00000000000003
 11
-19.42647283856163
 21
45.00000000000003
 97
        0
 75
     0
 76
     1
 98
        0
  0
VIEWPORT
  5
108F
330
FBF
100
AcDbEntity
 67
     1
  8
0
100
AcDbViewport
 10
128.5
 20
97.5
 30
0.0
 40
314.226
 41
222.18
 68
     1
 69
     1
 12
128.5
 22
97.5
 13
0.0
 23
0.0
 14
10.0
 24
10.0
 15
10.0
 25
10.0
 16
0.0
 26
0.0
 36
1.0
 17
0.0
 27
0.0
 37
0.0
 42
50.0
 43
0.0
 44
0.0
 45
222.18
 50
0.0
 51
0.0
 72
   100
 90
   557152
  1

281
     0
 71
     1
 74
     0
110
0.0
120
0.0
130
0.0
111
1.0
121
0.0
131
0.0
112
0.0
122
1.0
132
0.0
 79
     0
146
0.0
170
     0
 61
     5
348
FD3
292
     1
282
     1
141
0.0
142
0.0
 63
   256
361
1090
  0
ENDSEC
  0
SECTION
  2
OBJECTS
  0
DICTIONARY
  5
FB1
330
0
100
AcDbDictionary
281
     1
  3
ACAD_DETAILVIEWSTYLE
350
1098
  3
ACAD_GROUP
350
FB2
  3
ACAD_LAYOUT
350
FBE
  3
ACAD_MATERIAL
350
FE7
  3
ACAD_MLEADERSTYLE
350
100F
  3
ACAD_MLINESTYLE
350
FBB
  3
ACAD_PLOTSETTINGS
350
FBD
  3
ACAD_PLOTSTYLENAME
350
FB3
  3
ACAD_SCALELIST
350
FEB
  3
ACAD_SECTIONVIEWSTYLE
350
1099
  3
ACAD_TABLESTYLE
350
100D
  3
ACAD_VISUALSTYLE
350
FCE
  3
AcDbVariableDictionary
350
1091
  3
ACDB_RECOMPOSE_DATA
350
1095
  3
QCAD_OBJECTS
350
1013
  0
SUN
  5
1011
330
FCD
100
AcDbSun
 90
        1
290
     0
 63
     7
421
 16777215
 40
1.0
291
     1
 91
  2455826
 92
 54000000
292
     0
 70
     2
 71
   256
280
     1
  0
SUN
  5
1090
330
108F
100
AcDbSun
 90
        1
290
     0
 63
     7
421
 16777215
 40
1.0
291
     1
 91
  2455826
 92
 54000000
292
     0
 70
     2
 71
   256
280
     1
  0
DICTIONARY
  5
1098
102
{ACAD_REACTORS
330
FB1
102
}
330
FB1
100
AcDbDictionary
281
     1
  0
DICTIONARY
  5
FB2
102
{ACAD_REACTORS
330
FB1
102
}
330
FB1
100
AcDbDictionary
281
     1
  0
DICTIONARY
  5
FBE
102
{ACAD_REACTORS
330
FB1
102
}
330
FB1
100
AcDbDictionary
281
     1
  3
Layout1
350
FC2
  3
Model
350
FC6
  0
DICTIONARY
  5
FE7
102
{ACAD_REACTORS
330
FB1
102
}
330
FB1
100
AcDbDictionary
281
     1
  3
ByBlock
350
FE9
  3
ByLayer
350
FE8
  3
Global
350
FEA
  0
DICTIONARY
  5
100F
102
{ACAD_REACTORS
330
FB1
102
}
330
FB1
100
AcDbDictionary
281
     1
  3
Standard
350
1010
  0
DICTIONARY
  5
FBB
102
{ACAD_REACTORS
330
FB1
102
}
330
FB1
100
AcDbDictionary
281
     1
  3
Standard
350
FBC
  0
DICTIONARY
  5
FBD
102
{ACAD_REACTORS
330
FB1
102
}
330
FB1
100
AcDbDictionary
281
     1
  0
ACDBDICTIONARYWDFLT
  5
FB3
102
{ACAD_REACTORS
330
FB1
102
}
330
FB1
100
AcDbDictionary
281
     1
  3
Normal
350
FB4
100
AcDbDictionaryWithDefault
340
FB4
  0
DICTIONARY
  5
FEB
102
{ACAD_REACTORS
330
FB1
102
}
330
FB1
100
AcDbDictionary
281
     1
  3
A0
350
FEC
  3
A1
350
FED
  3
A2
350
FEE
  3
A3
350
FEF
  3
A4
350
FF0
  3
A5
350
FF1
  3
A6
350
FF2
  3
A7
350
FF3
  3
A8
350
FF4
  3
A9
350
FF5
  3
B0
350
FF6
  3
B1
350
FF7
  3
B2
350
FF8
  3
B3
350
FF9
  3
B4
350
FFA
  3
B5
350
FFB
  3
B6
350
FFC
  3
B7
350
FFD
  3
B8
350
FFE
  3
B9
350
FFF
  3
C0
350
1000
  3
C1
350
1001
  3
C2
350
1002
  3
C3
350
1003
  3
C4
350
1004
  3
C5
350
1005
  3
C6
350
1006
  3
C7
350
1007
  3
C8
350
1008
  3
C9
350
1009
  3
D0
350
100A
  3
D1
350
100B
  3
D2
350
100C
  0
DICTIONARY
  5
1099
102
{ACAD_REACTORS
330
FB1
102
}
330
FB1
100
AcDbDictionary
281
     1
  0
DICTIONARY
  5
100D
102
{ACAD_REACTORS
330
FB1
102
}
330
FB1
100
AcDbDictionary
281
     1
  3
Standard
350
100E
  0
DICTIONARY
  5
FCE
102
{ACAD_REACTORS
330
FB1
102
}
330
FB1
100
AcDbDictionary
281
     1
  3
2dWireframe
350
FD3
  3
Basic
350
FD6
  3
Brighten
350
FDA
  3
ColorChange
350
FDE
  3
Conceptual
350
FD8
  3
Dim
350
FD9
  3
EdgeColorOff
350
FE1
  3
Facepattern
350
FDD
  3
Flat
350
FCF
  3
FlatWithEdges
350
FD0
  3
Gouraud
350
FD1
  3
GouraudWithEdges
350
FD2
  3
Hidden
350
FD5
  3
JitterOff
350
FDF
  3
Linepattern
350
FDC
  3
OverhangOff
350
FE0
  3
Realistic
350
FD7
  3
Shaded
350
FE6
  3
Shaded with edges
350
FE5
  3
Shades of Gray
350
FE2
  3
Sketchy
350
FE3
  3
Thicken
350
FDB
  3
Wireframe
350
FD4
  3
X-Ray
350
FE4
  0
DICTIONARY
  5
1091
102
{ACAD_REACTORS
330
FB1
102
}
330
FB1
100
AcDbDictionary
281
     1
  3
CANNOSCALE
350
1092
  3
CMLEADERSTYLE
350
1097
  3
CTABLESTYLE
350
1096
  0
XRECORD
  5
1095
102
{ACAD_REACTORS
330
FB1
102
}
330
FB1
100
AcDbXrecord
280
     1
 90
        1
330
100E
  0
DICTIONARY
  5
1013
102
{ACAD_REACTORS
330
FB1
102
}
330
FB1
100
AcDbDictionary
281
     1
  3
CamExport/ConfigV2
350
1015
  3
ColorSettings/BackgroundColor
350
1016
  3
ColorSettings/ColorMode
350
1017
  3
Grid/DisplayGrid00
350
1018
  3
Grid/DisplayGrid01
350
1019
  3
Grid/DisplayGrid02
350
101A
  3
Grid/DisplayGrid03
350
101B
  3
Grid/GridSpacingX00
350
101C
  3
Grid/GridSpacingX01
350
101D
  3
Grid/GridSpacingX02
350
101E
  3
Grid/GridSpacingX03
350
101F
  3
Grid/GridSpacingY00
350
1020
  3
Grid/GridSpacingY01
350
1021
  3
Grid/GridSpacingY02
350
1022
  3
Grid/GridSpacingY03
350
1023
  3
Grid/IsometricGrid00
350
1024
  3
Grid/IsometricGrid01
350
1025
  3
Grid/IsometricGrid02
350
1026
  3
Grid/IsometricGrid03
350
1027
  3
Grid/IsometricProjection00
350
1028
  3
Grid/IsometricProjection01
350
1029
  3
Grid/IsometricProjection02
350
102A
  3
Grid/IsometricProjection03
350
102B
  3
Grid/MetaGridSpacingX00
350
102C
  3
Grid/MetaGridSpacingX01
350
102D
  3
Grid/MetaGridSpacingX02
350
102E
  3
Grid/MetaGridSpacingX03
350
102F
  3
Grid/MetaGridSpacingY00
350
1030
  3
Grid/MetaGridSpacingY01
350
1031
  3
Grid/MetaGridSpacingY02
350
1032
  3
Grid/MetaGridSpacingY03
350
1033
  3
MultiPageSettings/Columns
350
1034
  3
MultiPageSettings/GlueMarginsBottom
350
1035
  3
MultiPageSettings/GlueMarginsLeft
350
1036
  3
MultiPageSettings/GlueMarginsRight
350
1037
  3
MultiPageSettings/GlueMarginsTop
350
1038
  3
MultiPageSettings/PrintCropMarks
350
1039
  3
MultiPageSettings/Rows
350
103A
  3
PageSettings/OffsetX
350
103B
  3
PageSettings/OffsetY
350
103C
  3
PageSettings/PageOrientation
350
103D
  3
PageSettings/PaperHeight
350
103E
  3
PageSettings/PaperWidth
350
103F
  3
PageSettings/Scale
350
1040
  3
PageSettings/ShowPaperBorders
350
1041
  3
PageTagSettings/EnablePageTags
350
1042
  3
PageTagSettings/TagAlignment
350
1043
  3
PageTagSettings/TagFont
350
1044
  3
PageTagSettings/TagPosition
350
1045
  3
QCADVersion
350
1046
  3
UnitSettings/PaperUnit
350
1047
  3
ViewportCenter
350
1048
  3
ViewportHeight
350
1049
  3
ViewportWidth
350
104A
  0
LAYOUT
  5
FC2
102
{ACAD_REACTORS
330
FBE
102
}
330
FBE
100
AcDbPlotSettings
  1

  2
none_device
  4
ISO_A4_(210.00_x_297.00_MM)
  6

 40
7.5
 41
20.0
 42
7.5
 43
20.0
 44
210.0
 45
297.0
 46
0.0
 47
0.0
 48
0.0
 49
0.0
140
0.0
141
0.0
142
1.0
143
1.0
 70
   688
 72
     1
 73
     1
 74
     5
  7

 75
     0
 76
     0
 77
     2
 78
   300
147
1.0
148
0.0
149
0.0
100
AcDbLayout
  1
Layout1
 70
     1
 71
     0
 10
-20.0
 20
-7.5
 11
277.0
 21
202.5
 12
0.0
 22
0.0
 32
0.0
 14
0.0
 24
0.0
 34
0.0
 15
0.0
 25
0.0
 35
0.0
146
0.0
 13
0.0
 23
0.0
 33
0.0
 16
1.0
 26
0.0
 36
0.0
 17
0.0
 27
1.0
 37
0.0
 76
     0
330
FBF
331
108F
  0
LAYOUT
  5
FC6
102
{ACAD_REACTORS
330
FBE
102
}
330
FBE
100
AcDbPlotSettings
  1

  2
none_device
  4
Letter_(8.50_x_11.00_Inches)
  6

 40
6.35
 41
6.35
 42
6.35000508
 43
6.35000508
 44
215.9
 45
279.4
 46
0.0
 47
0.0
 48
0.0
 49
0.0
140
0.0
141
0.0
142
1.0
143
1.0
 70
  1712
 72
     0
 73
     0
 74
     0
  7

 75
     0
 76
     0
 77
     2
 78
   300
147
1.0
148
0.0
149
0.0
100
AcDbLayout
  1
Model
 70
     1
 71
     0
 10
0.0
 20
0.0
 11
12.0
 21
9.0
 12
0.0
 22
0.0
 32
0.0
 14
-100.0
 24
-100.0
 34
0.0
 15
100.0
 25
100.0
 35
0.0
146
0.0
 13
0.0
 23
0.0
 33
0.0
 16
1.0
 26
0.0
 36
0.0
 17
0.0
 27
1.0
 37
0.0
 76
     0
330
FC3
331
FCD
  0
MATERIAL
  5
FE9
102
{ACAD_REACTORS
330
FE7
102
}
330
FE7
100
AcDbMaterial
  1
ByBlock
 72
     1
 94
      127
  0
MATERIAL
  5
FE8
102
{ACAD_REACTORS
330
FE7
102
}
330
FE7
100
AcDbMaterial
  1
ByLayer
 72
     1
 94
      127
  0
MATERIAL
  5
FEA
102
{ACAD_REACTORS
330
FE7
102
}
330
FE7
100
AcDbMaterial
  1
Global
 72
     1
 94
      127
  0
MLEADERSTYLE
  5
1010
102
{ACAD_REACTORS
330
100F
102
}
330
100F
100
AcDbMLeaderStyle
179
     2
170
     2
171
     1
172
     0
 90
        2
 40
0.0
 41
0.0
173
     1
 91
-1056964608
340
FB8
 92
       -2
290
     1
 42
0.09
291
     1
 43
0.36
  3
Standard
341
0
 44
0.18
300

342
FB6
174
     1
178
     6
175
     1
176
     0
 93
-1056964608
 45
0.18
292
     0
297
     0
 46
0.18
343
0
 94
-1056964608
 47
1.0
 49
1.0
140
1.0
293
     1
141
0.0
294
     1
177
     0
142
1.0
295
     0
296
     0
143
0.125
271
     0
272
     9
273
     9
298
     0
  0
MLINESTYLE
  5
FBC
102
{ACAD_REACTORS
330
FBB
102
}
330
FBB
100
AcDbMlineStyle
  2
Standard
 70
     0
  3

 62
   256
 51
90.0
 52
90.0
 71
     2
 49
0.5
 62
   256
  6
BYLAYER
 49
-0.5
 62
   256
  6
BYLAYER
  0
ACDBPLACEHOLDER
  5
FB4
102
{ACAD_REACTORS
330
FB3
102
}
330
FB3
  0
SCALE
  5
FEC
102
{ACAD_REACTORS
330
FEB
102
}
330
FEB
100
AcDbScale
 70
     0
300
1:1
140
1.0
141
1.0
290
     1
  0
SCALE
  5
FED
102
{ACAD_REACTORS
330
FEB
102
}
330
FEB
100
AcDbScale
 70
     0
300
1:2
140
1.0
141
2.0
290
     0
  0
SCALE
  5
FEE
102
{ACAD_REACTORS
330
FEB
102
}
330
FEB
100
AcDbScale
 70
     0
300
1:4
140
1.0
141
4.0
290
     0
  0
SCALE
  5
FEF
102
{ACAD_REACTORS
330
FEB
102
}
330
FEB
100
AcDbScale
 70
     0
300
1:5
140
1.0
141
5.0
290
     0
  0
SCALE
  5
FF0
102
{ACAD_REACTORS
330
FEB
102
}
330
FEB
100
AcDbScale
 70
     0
300
1:8
140
1.0
141
8.0
290
     0
  0
SCALE
  5
FF1
102
{ACAD_REACTORS
330
FEB
102
}
330
FEB
100
AcDbScale
 70
     0
300
1:10
140
1.0
141
10.0
290
     0
  0
SCALE
  5
FF2
102
{ACAD_REACTORS
330
FEB
102
}
330
FEB
100
AcDbScale
 70
     0
300
1:16
140
1.0
141
16.0
290
     0
  0
SCALE
  5
FF3
102
{ACAD_REACTORS
330
FEB
102
}
330
FEB
100
AcDbScale
 70
     0
300
1:20
140
1.0
141
20.0
290
     0
  0
SCALE
  5
FF4
102
{ACAD_REACTORS
330
FEB
102
}
330
FEB
100
AcDbScale
 70
     0
300
1:30
140
1.0
141
30.0
290
     0
  0
SCALE
  5
FF5
102
{ACAD_REACTORS
330
FEB
102
}
330
FEB
100
AcDbScale
 70
     0
300
1:40
140
1.0
141
40.0
290
     0
  0
SCALE
  5
FF6
102
{ACAD_REACTORS
330
FEB
102
}
330
FEB
100
AcDbScale
 70
     0
300
1:50
140
1.0
141
50.0
290
     0
  0
SCALE
  5
FF7
102
{ACAD_REACTORS
330
FEB
102
}
330
FEB
100
AcDbScale
 70
     0
300
1:100
140
1.0
141
100.0
290
     0
  0
SCALE
  5
FF8
102
{ACAD_REACTORS
330
FEB
102
}
330
FEB
100
AcDbScale
 70
     0
300
2:1
140
2.0
141
1.0
290
     0
  0
SCALE
  5
FF9
102
{ACAD_REACTORS
330
FEB
102
}
330
FEB
100
AcDbScale
 70
     0
300
4:1
140
4.0
141
1.0
290
     0
  0
SCALE
  5
FFA
102
{ACAD_REACTORS
330
FEB
102
}
330
FEB
100
AcDbScale
 70
     0
300
8:1
140
8.0
141
1.0
290
     0
  0
SCALE
  5
FFB
102
{ACAD_REACTORS
330
FEB
102
}
330
FEB
100
AcDbScale
 70
     0
300
10:1
140
10.0
141
1.0
290
     0
  0
SCALE
  5
FFC
102
{ACAD_REACTORS
330
FEB
102
}
330
FEB
100
AcDbScale
 70
     0
300
100:1
140
100.0
141
1.0
290
     0
  0
SCALE
  5
FFD
102
{ACAD_REACTORS
330
FEB
102
}
330
FEB
100
AcDbScale
 70
     0
300
1/128" = 1'-0"
140
0.0078125
141
12.0
290
     0
  0
SCALE
  5
FFE
102
{ACAD_REACTORS
330
FEB
102
}
330
FEB
100
AcDbScale
 70
     0
300
1/64" = 1'-0"
140
0.015625
141
12.0
290
     0
  0
SCALE
  5
FFF
102
{ACAD_REACTORS
330
FEB
102
}
330
FEB
100
AcDbScale
 70
     0
300
1/32" = 1'-0"
140
0.03125
141
12.0
290
     0
  0
SCALE
  5
1000
102
{ACAD_REACTORS
330
FEB
102
}
330
FEB
100
AcDbScale
 70
     0
300
1/16" = 1'-0"
140
0.0625
141
12.0
290
     0
  0
SCALE
  5
1001
102
{ACAD_REACTORS
330
FEB
102
}
330
FEB
100
AcDbScale
 70
     0
300
3/32" = 1'-0"
140
0.09375
141
12.0
290
     0
  0
SCALE
  5
1002
102
{ACAD_REACTORS
330
FEB
102
}
330
FEB
100
AcDbScale
 70
     0
300
1/8" = 1'-0"
140
0.125
141
12.0
290
     0
  0
SCALE
  5
1003
102
{ACAD_REACTORS
330
FEB
102
}
330
FEB
100
AcDbScale
 70
     0
300
3/16" = 1'-0"
140
0.1875
141
12.0
290
     0
  0
SCALE
  5
1004
102
{ACAD_REACTORS
330
FEB
102
}
330
FEB
100
AcDbScale
 70
     0
300
1/4" = 1'-0"
140
0.25
141
12.0
290
     0
  0
SCALE
  5
1005
102
{ACAD_REACTORS
330
FEB
102
}
330
FEB
100
AcDbScale
 70
     0
300
3/8" = 1'-0"
140
0.375
141
12.0
290
     0
  0
SCALE
  5
1006
102
{ACAD_REACTORS
330
FEB
102
}
330
FEB
100
AcDbScale
 70
     0
300
1/2" = 1'-0"
140
0.5
141
12.0
290
     0
  0
SCALE
  5
1007
102
{ACAD_REACTORS
330
FEB
102
}
330
FEB
100
AcDbScale
 70
     0
300
3/4" = 1'-0"
140
0.75
141
12.0
290
     0
  0
SCALE
  5
1008
102
{ACAD_REACTORS
330
FEB
102
}
330
FEB
100
AcDbScale
 70
     0
300
1" = 1'-0"
140
1.0
141
12.0
290
     0
  0
SCALE
  5
1009
102
{ACAD_REACTORS
330
FEB
102
}
330
FEB
100
AcDbScale
 70
     0
300
1-1/2" = 1'-0"
140
1.5
141
12.0
290
     0
  0
SCALE
  5
100A
102
{ACAD_REACTORS
330
FEB
102
}
330
FEB
100
AcDbScale
 70
     0
300
3" = 1'-0"
140
3.0
141
12.0
290
     0
  0
SCALE
  5
100B
102
{ACAD_REACTORS
330
FEB
102
}
330
FEB
100
AcDbScale
 70
     0
300
6" = 1'-0"
140
6.0
141
12.0
290
     0
  0
SCALE
  5
100C
102
{ACAD_REACTORS
330
FEB
102
}
330
FEB
100
AcDbScale
 70
     0
300
1'-0" = 1'-0"
140
12.0
141
12.0
290
     0
  0
TABLESTYLE
  5
100E
102
{ACAD_REACTORS
330
100D
102
}
102
{ACAD_XDICTIONARY
360
1093
102
}
330
100D
100
AcDbTableStyle
  3
Standard
 70
     0
 71
     0
 40
0.06
 41
0.06
280
     0
281
     0
  7
Standard
140
0.18
170
     2
 62
     0
 63
   257
283
     0
 90
        4
 91
        0
  1

274
    -2
284
     1
 64
     0
275
    -2
285
     1
 65
     0
276
    -2
286
     1
 66
     0
277
    -2
287
     1
 67
     0
278
    -2
288
     1
 68
     0
279
    -2
289
     1
 69
     0
  7
Standard
140
0.25
170
     5
 62
     0
 63
   257
283
     0
 90
        4
 91
        0
  1

274
    -2
284
     1
 64
     0
275
    -2
285
     1
 65
     0
276
    -2
286
     1
 66
     0
277
    -2
287
     1
 67
     0
278
    -2
288
     1
 68
     0
279
    -2
289
     1
 69
     0
  7
Standard
140
0.18
170
     5
 62
     0
 63
   257
283
     0
 90
        4
 91
        0
  1

274
    -2
284
     1
 64
     0
275
    -2
285
     1
 65
     0
276
    -2
286
     1
 66
     0
277
    -2
287
     1
 67
     0
278
    -2
288
     1
 68
     0
279
    -2
289
     1
 69
     0
  0
VISUALSTYLE
  5
FD3
102
{ACAD_REACTORS
330
FCE
102
}
330
FCE
100
AcDbVisualStyle
  2
2dWireframe
 70
     4
177
     3
291
     0
 70
    58
 90
        0
176
     1
 90
        2
176
     1
 90
        0
176
     1
 90
        0
176
     1
 40
0.6
176
     1
 40
30.0
176
     1
 62
     7
420
 16777215
176
     1
 90
        1
176
     1
 90
        4
176
     1
 62
     7
176
     1
 62
   257
176
     1
 90
        1
176
     1
 90
        1
176
     1
 40
1.0
176
     1
 90
        0
176
     1
 62
   257
176
     1
 40
1.0
176
     1
 90
        1
176
     1
 90
        6
176
     1
 90
        2
176
     1
 62
     7
176
     1
 90
        5
176
     1
 90
        0
176
     1
 90
        0
176
     1
290
     0
176
     1
 90
        1
176
     1
 40
0.0
176
     1
 90
        0
176
     1
290
     1
176
     1
290
     1
176
     1
290
     0
176
     1
290
     0
176
     1
290
     0
176
     1
290
     0
176
     1
290
     0
176
     1
290
     0
176
     1
290
     0
176
     1
 90
       50
176
     1
 40
0.0
176
     1
 40
1.0
176
     1
 90
        0
176
     1
 62
   178
420
        0
176
     1
 90
       50
176
     1
 90
        3
176
     1
 62
     5
420
      255
176
     1
290
     0
176
     1
 90
       50
176
     1
 90
       50
176
     1
 90
       50
176
     1
290
     0
176
     1
 90
       50
176
     1
 62
   256
176
     0
 40
1.0
176
     0
 90
        2
176
     1
  1
strokes_ogs.tif
176
     1
290
     0
176
     1
 40
1.0
176
     1
 40
1.0
176
     1
  0
VISUALSTYLE
  5
FD6
102
{ACAD_REACTORS
330
FCE
102
}
330
FCE
100
AcDbVisualStyle
  2
Basic
 70
     7
177
     3
291
     1
 70
    58
 90
        1
176
     1
 90
        0
176
     1
 90
        1
176
     1
 90
        0
176
     1
 40
0.6
176
     1
 40
30.0
176
     1
 62
     7
420
 16777215
176
     1
 90
        0
176
     1
 90
        4
176
     1
 62
     7
176
     1
 62
   257
176
     1
 90
        1
176
     1
 90
        1
176
     1
 40
1.0
176
     1
 90
        8
176
     1
 62
     7
176
     1
 40
1.0
176
     1
 90
        1
176
     1
 90
        6
176
     1
 90
        2
176
     1
 62
     7
176
     1
 90
        5
176
     1
 90
        0
176
     1
 90
        0
176
     1
290
     0
176
     1
 90
        1
176
     1
 40
0.0
176
     1
 90
        0
176
     1
290
     0
176
     1
290
     1
176
     1
290
     1
176
     1
290
     0
176
     1
290
     0
176
     1
290
     0
176
     1
290
     0
176
     1
290
     0
176
     1
290
     0
176
     1
 90
       50
176
     1
 40
0.0
176
     1
 40
1.0
176
     1
 90
        0
176
     1
 62
   178
420
        0
176
     1
 90
       50
176
     1
 90
        3
176
     1
 62
     5
420
      255
176
     1
290
     0
176
     1
 90
       50
176
     1
 90
       50
176
     1
 90
       50
176
     1
290
     0
176
     1
 90
       50
176
     1
 62
   256
176
     0
 40
1.0
176
     0
 90
        2
176
     1
  1
strokes_ogs.tif
176
     1
290
     0
176
     1
 40
1.0
176
     1
 40
1.0
176
     1
  0
VISUALSTYLE
  5
FDA
102
{ACAD_REACTORS
330
FCE
102
}
330
FCE
100
AcDbVisualStyle
  2
Brighten
 70
    12
177
     3
291
     1
 70
    58
 90
        2
176
     1
 90
        2
176
     1
 90
        0
176
     1
 90
        0
176
     1
 40
0.6
176
     1
 40
30.0
176
     1
 62
     7
420
 16777215
176
     1
 90
        1
176
     1
 90
        4
176
     1
 62
     7
176
     1
 62
   257
176
     1
 90
        1
176
     1
 90
        1
176
     1
 40
1.0
176
     1
 90
        8
176
     1
 62
     7
176
     1
 40
1.0
176
     1
 90
        1
176
     1
 90
        6
176
     1
 90
        2
176
     1
 62
     7
176
     1
 90
        5
176
     1
 90
        0
176
     1
 90
        0
176
     1
290
     0
176
     1
 90
        1
176
     1
 40
50.0
176
     1
 90
        0
176
     1
290
     0
176
     1
290
     1
176
     1
290
     1
176
     1
290
     0
176
     1
290
     0
176
     1
290
     0
176
     1
290
     0
176
     1
290
     0
176
     1
290
     0
176
     1
 90
       50
176
     1
 40
0.0
176
     1
 40
1.0
176
     1
 90
        0
176
     1
 62
   178
420
        0
176
     1
 90
       50
176
     1
 90
        3
176
     1
 62
     5
420
      255
176
     1
290
     0
176
     1
 90
       50
176
     1
 90
       50
176
     1
 90
       50
176
     1
290
     0
176
     1
 90
       50
176
     1
 62
   256
176
     0
 40
1.0
176
     0
 90
        2
176
     1
  1
strokes_ogs.tif
176
     1
290
     0
176
     1
 40
1.0
176
     1
 40
1.0
176
     1
  0
VISUALSTYLE
  5
FDE
102
{ACAD_REACTORS
330
FCE
102
}
330
FCE
100
AcDbVisualStyle
  2
ColorChange
 70
    16
177
     3
291
     1
 70
    58
 90
        2
176
     1
 90
        2
176
     1
 90
        3
176
     1
 90
        0
176
     1
 40
0.6
176
     1
 40
30.0
176
     1
 62
     8
420
  8421504
176
     1
 90
        1
176
     1
 90
        4
176
     1
 62
     7
176
     1
 62
   257
176
     1
 90
        1
176
     1
 90
        1
176
     1
 40
1.0
176
     1
 90
        8
176
     1
 62
     8
420
  8421504
176
     1
 40
1.0
176
     1
 90
        1
176
     1
 90
        6
176
     1
 90
        2
176
     1
 62
     7
176
     1
 90
        5
176
     1
 90
        0
176
     1
 90
        0
176
     1
290
     0
176
     1
 90
        1
176
     1
 40
0.0
176
     1
 90
        0
176
     1
290
     0
176
     1
290
     1
176
     1
290
     1
176
     1
290
     0
176
     1
290
     0
176
     1
290
     0
176
     1
290
     0
176
     1
290
     0
176
     1
290
     0
176
     1
 90
       50
176
     1
 40
0.0
176
     1
 40
1.0
176
     1
 90
        0
176
     1
 62
   178
420
        0
176
     1
 90
       50
176
     1
 90
        3
176
     1
 62
     5
420
      255
176
     1
290
     0
176
     1
 90
       50
176
     1
 90
       50
176
     1
 90
       50
176
     1
290
     0
176
     1
 90
       50
176
     1
 62
   256
176
     0
 40
1.0
176
     0
 90
        2
176
     1
  1
strokes_ogs.tif
176
     1
290
     0
176
     1
 40
1.0
176
     1
 40
1.0
176
     1
  0
VISUALSTYLE
  5
FD8
102
{ACAD_REACTORS
330
FCE
102
}
330
FCE
100
AcDbVisualStyle
  2
Conceptual
 70
     9
177
     3
291
     0
 70
    58
 90
        3
176
     1
 90
        2
176
     1
 90
        0
176
     1
 90
        0
176
     1
 40
0.6
176
     1
 40
30.0
176
     1
 62
     7
420
 16777215
176
     1
 90
        2
176
     1
 90
        2
176
     1
 62
     7
176
     1
 62
   257
176
     1
 90
        1
176
     1
 90
        1
176
     1
 40
179.0
176
     1
 90
        8
176
     1
 62
     7
176
     1
 40
1.0
176
     1
 90
        1
176
     1
 90
        6
176
     1
 90
        2
176
     1
 62
     7
176
     1
 90
        3
176
     1
 90
        0
176
     1
 90
        0
176
     1
290
     0
176
     1
 90
        1
176
     1
 40
0.0
176
     1
 90
        0
176
     1
290
     0
176
     1
290
     1
176
     1
290
     1
176
     1
290
     0
176
     1
290
     0
176
     1
290
     0
176
     1
290
     0
176
     1
290
     0
176
     1
290
     0
176
     1
 90
       50
176
     1
 40
0.0
176
     1
 40
1.0
176
     1
 90
        0
176
     1
 62
   178
420
        0
176
     1
 90
       50
176
     1
 90
        3
176
     1
 62
     5
420
      255
176
     1
290
     0
176
     1
 90
       50
176
     1
 90
       50
176
     1
 90
       50
176
     1
290
     0
176
     1
 90
       50
176
     1
 62
   256
176
     0
 40
1.0
176
     0
 90
        2
176
     1
  1
strokes_ogs.tif
176
     1
290
     0
176
     1
 40
1.0
176
     1
 40
1.0
176
     1
  0
VISUALSTYLE
  5
FD9
102
{ACAD_REACTORS
330
FCE
102
}
330
FCE
100
AcDbVisualStyle
  2
Dim
 70
    11
177
     3
291
     1
 70
    58
 90
        2
176
     1
 90
        2
176
     1
 90
        0
176
     1
 90
        0
176
     1
 40
0.6
176
     1
 40
30.0
176
     1
 62
     7
420
 16777215
176
     1
 90
        1
176
     1
 90
        4
176
     1
 62
     7
176
     1
 62
   257
176
     1
 90
        1
176
     1
 90
        1
176
     1
 40
1.0
176
     1
 90
        8
176
     1
 62
     7
176
     1
 40
1.0
176
     1
 90
        1
176
     1
 90
        6
176
     1
 90
        2
176
     1
 62
     7
176
     1
 90
        5
176
     1
 90
        0
176
     1
 90
        0
176
     1
290
     0
176
     1
 90
        1
176
     1
 40
-50.0
176
     1
 90
        0
176
     1
290
     0
176
     1
290
     1
176
     1
290
     1
176
     1
290
     0
176
     1
290
     0
176
     1
290
     0
176
     1
290
     0
176
     1
290
     0
176
     1
290
     0
176
     1
 90
       50
176
     1
 40
0.0
176
     1
 40
1.0
176
     1
 90
        0
176
     1
 62
   178
420
        0
176
     1
 90
       50
176
     1
 90
        3
176
     1
 62
     5
420
      255
176
     1
290
     0
176
     1
 90
       50
176
     1
 90
       50
176
     1
 90
       50
176
     1
290
     0
176
     1
 90
       50
176
     1
 62
   256
176
     0
 40
1.0
176
     0
 90
        2
176
     1
  1
strokes_ogs.tif
176
     1
290
     0
176
     1
 40
1.0
176
     1
 40
1.0
176
     1
  0
VISUALSTYLE
  5
FE1
102
{ACAD_REACTORS
330
FCE
102
}
330
FCE
100
AcDbVisualStyle
  2
EdgeColorOff
 70
    22
177
     3
291
     1
 70
    58
 90
        2
176
     0
 90
        2
176
     0
 90
        0
176
     0
 90
        0
176
     0
 40
0.6
176
     0
 40
30.0
176
     0
 62
     7
420
 16777215
176
     0
 90
        1
176
     0
 90
        4
176
     0
 62
     7
176
     0
 62
   257
176
     0
 90
        1
176
     0
 90
        1
176
     0
 40
1.0
176
     0
 90
        8
176
     2
 62
     7
176
     0
 40
1.0
176
     0
 90
        1
176
     0
 90
        6
176
     0
 90
        2
176
     0
 62
     7
176
     0
 90
        5
176
     0
 90
        0
176
     0
 90
        0
176
     0
290
     0
176
     0
 90
        1
176
     0
 40
0.0
176
     0
 90
        0
176
     0
290
     0
176
     0
290
     1
176
     0
290
     1
176
     0
290
     0
176
     0
290
     0
176
     0
290
     0
176
     0
290
     0
176
     0
290
     0
176
     0
290
     0
176
     0
 90
       50
176
     0
 40
0.0
176
     0
 40
1.0
176
     0
 90
        0
176
     0
 62
   178
420
        0
176
     0
 90
       50
176
     0
 90
        3
176
     0
 62
     5
420
      255
176
     0
290
     0
176
     0
 90
       50
176
     0
 90
       50
176
     0
 90
       50
176
     0
290
     0
176
     0
 90
       50
176
     0
 62
   256
176
     0
 40
1.0
176
     0
 90
        2
176
     0
  1
strokes_ogs.tif
176
     0
290
     0
176
     0
 40
1.0
176
     0
 40
1.0
176
     0
  0
VISUALSTYLE
  5
FDD
102
{ACAD_REACTORS
330
FCE
102
}
330
FCE
100
AcDbVisualStyle
  2
Facepattern
 70
    15
177
     3
291
     1
 70
    58
 90
        2
176
     1
 90
        2
176
     1
 90
        0
176
     1
 90
        0
176
     1
 40
0.6
176
     1
 40
30.0
176
     1
 62
     7
420
 16777215
176
     1
 90
        1
176
     1
 90
        4
176
     1
 62
     7
176
     1
 62
   257
176
     1
 90
        1
176
     1
 90
        1
176
     1
 40
1.0
176
     1
 90
        8
176
     1
 62
     7
176
     1
 40
1.0
176
     1
 90
        1
176
     1
 90
        6
176
     1
 90
        2
176
     1
 62
     7
176
     1
 90
        5
176
     1
 90
        0
176
     1
 90
        0
176
     1
290
     0
176
     1
 90
        1
176
     1
 40
0.0
176
     1
 90
        0
176
     1
290
     0
176
     1
290
     1
176
     1
290
     1
176
     1
290
     0
176
     1
290
     0
176
     1
290
     0
176
     1
290
     0
176
     1
290
     0
176
     1
290
     0
176
     1
 90
       50
176
     1
 40
0.0
176
     1
 40
1.0
176
     1
 90
        0
176
     1
 62
   178
420
        0
176
     1
 90
       50
176
     1
 90
        3
176
     1
 62
     5
420
      255
176
     1
290
     0
176
     1
 90
       50
176
     1
 90
       50
176
     1
 90
       50
176
     1
290
     0
176
     1
 90
       50
176
     1
 62
   256
176
     0
 40
1.0
176
     0
 90
        2
176
     1
  1
strokes_ogs.tif
176
     1
290
     0
176
     1
 40
1.0
176
     1
 40
1.0
176
     1
  0
VISUALSTYLE
  5
FCF
102
{ACAD_REACTORS
330
FCE
102
}
330
FCE
100
AcDbVisualStyle
  2
Flat
 70
     0
177
     3
291
     1
 70
    58
 90
        2
176
     1
 90
        1
176
     1
 90
        1
176
     1
 90
        2
176
     1
 40
0.6
176
     1
 40
30.0
176
     1
 62
     7
420
 16777215
176
     1
 90
        0
176
     1
 90
        0
176
     1
 62
     7
176
     1
 62
   257
176
     1
 90
        1
176
     1
 90
        1
176
     1
 40
1.0
176
     1
 90
        8
176
     1
 62
     7
176
     1
 40
1.0
176
     1
 90
        1
176
     1
 90
        6
176
     1
 90
        2
176
     1
 62
     7
176
     1
 90
        5
176
     1
 90
        0
176
     1
 90
        0
176
     1
290
     0
176
     1
 90
       13
176
     1
 40
0.0
176
     1
 90
        0
176
     1
290
     0
176
     1
290
     1
176
     1
290
     1
176
     1
290
     0
176
     1
290
     0
176
     1
290
     0
176
     1
290
     0
176
     1
290
     0
176
     1
290
     0
176
     1
 90
       50
176
     1
 40
0.0
176
     1
 40
1.0
176
     1
 90
        0
176
     1
 62
   178
420
        0
176
     1
 90
       50
176
     1
 90
        3
176
     1
 62
     5
420
      255
176
     1
290
     0
176
     1
 90
       50
176
     1
 90
       50
176
     1
 90
       50
176
     1
290
     0
176
     1
 90
       50
176
     1
 62
   256
176
     0
 40
1.0
176
     0
 90
        2
176
     1
  1
strokes_ogs.tif
176
     1
290
     0
176
     1
 40
1.0
176
     1
 40
1.0
176
     1
  0
VISUALSTYLE
  5
FD0
102
{ACAD_REACTORS
330
FCE
102
}
330
FCE
100
AcDbVisualStyle
  2
FlatWithEdges
 70
     1
177
     3
291
     1
 70
    58
 90
        2
176
     1
 90
        1
176
     1
 90
        1
176
     1
 90
        2
176
     1
 40
0.6
176
     1
 40
30.0
176
     1
 62
     7
420
 16777215
176
     1
 90
        1
176
     1
 90
        0
176
     1
 62
     7
176
     1
 62
   257
176
     1
 90
        1
176
     1
 90
        1
176
     1
 40
1.0
176
     1
 90
        0
176
     1
 62
   257
176
     1
 40
1.0
176
     1
 90
        1
176
     1
 90
        6
176
     1
 90
        2
176
     1
 62
     7
176
     1
 90
        5
176
     1
 90
        0
176
     1
 90
        0
176
     1
290
     0
176
     1
 90
       13
176
     1
 40
0.0
176
     1
 90
        0
176
     1
290
     0
176
     1
290
     1
176
     1
290
     1
176
     1
290
     0
176
     1
290
     0
176
     1
290
     0
176
     1
290
     0
176
     1
290
     0
176
     1
290
     0
176
     1
 90
       50
176
     1
 40
0.0
176
     1
 40
1.0
176
     1
 90
        0
176
     1
 62
   178
420
        0
176
     1
 90
       50
176
     1
 90
        3
176
     1
 62
     5
420
      255
176
     1
290
     0
176
     1
 90
       50
176
     1
 90
       50
176
     1
 90
       50
176
     1
290
     0
176
     1
 90
       50
176
     1
 62
   256
176
     0
 40
1.0
176
     0
 90
        2
176
     1
  1
strokes_ogs.tif
176
     1
290
     0
176
     1
 40
1.0
176
     1
 40
1.0
176
     1
  0
VISUALSTYLE
  5
FD1
102
{ACAD_REACTORS
330
FCE
102
}
330
FCE
100
AcDbVisualStyle
  2
Gouraud
 70
     2
177
     3
291
     1
 70
    58
 90
        2
176
     1
 90
        2
176
     1
 90
        1
176
     1
 90
        2
176
     1
 40
0.6
176
     1
 40
30.0
176
     1
 62
     7
420
 16777215
176
     1
 90
        0
176
     1
 90
        0
176
     1
 62
     7
176
     1
 62
   257
176
     1
 90
        1
176
     1
 90
        1
176
     1
 40
1.0
176
     1
 90
        0
176
     1
 62
     7
176
     1
 40
1.0
176
     1
 90
        1
176
     1
 90
        6
176
     1
 90
        2
176
     1
 62
     7
176
     1
 90
        5
176
     1
 90
        0
176
     1
 90
        0
176
     1
290
     0
176
     1
 90
       13
176
     1
 40
0.0
176
     1
 90
        0
176
     1
290
     0
176
     1
290
     1
176
     1
290
     1
176
     1
290
     0
176
     1
290
     0
176
     1
290
     0
176
     1
290
     0
176
     1
290
     0
176
     1
290
     0
176
     1
 90
       50
176
     1
 40
0.0
176
     1
 40
1.0
176
     1
 90
        0
176
     1
 62
   178
420
        0
176
     1
 90
       50
176
     1
 90
        3
176
     1
 62
     5
420
      255
176
     1
290
     0
176
     1
 90
       50
176
     1
 90
       50
176
     1
 90
       50
176
     1
290
     0
176
     1
 90
       50
176
     1
 62
   256
176
     0
 40
1.0
176
     0
 90
        2
176
     1
  1
strokes_ogs.tif
176
     1
290
     0
176
     1
 40
1.0
176
     1
 40
1.0
176
     1
  0
VISUALSTYLE
  5
FD2
102
{ACAD_REACTORS
330
FCE
102
}
330
FCE
100
AcDbVisualStyle
  2
GouraudWithEdges
 70
     3
177
     3
291
     1
 70
    58
 90
        2
176
     1
 90
        2
176
     1
 90
        1
176
     1
 90
        2
176
     1
 40
0.6
176
     1
 40
30.0
176
     1
 62
     7
420
 16777215
176
     1
 90
        1
176
     1
 90
        0
176
     1
 62
     7
176
     1
 62
   257
176
     1
 90
        1
176
     1
 90
        1
176
     1
 40
1.0
176
     1
 90
        0
176
     1
 62
   257
176
     1
 40
1.0
176
     1
 90
        1
176
     1
 90
        6
176
     1
 90
        2
176
     1
 62
     7
176
     1
 90
        5
176
     1
 90
        0
176
     1
 90
        0
176
     1
290
     0
176
     1
 90
       13
176
     1
 40
0.0
176
     1
 90
        0
176
     1
290
     0
176
     1
290
     1
176
     1
290
     1
176
     1
290
     0
176
     1
290
     0
176
     1
290
     0
176
     1
290
     0
176
     1
290
     0
176
     1
290
     0
176
     1
 90
       50
176
     1
 40
0.0
176
     1
 40
1.0
176
     1
 90
        0
176
     1
 62
   178
420
        0
176
     1
 90
       50
176
     1
 90
        3
176
     1
 62
     5
420
      255
176
     1
290
     0
176
     1
 90
       50
176
     1
 90
       50
176
     1
 90
       50
176
     1
290
     0
176
     1
 90
       50
176
     1
 62
   256
176
     0
 40
1.0
176
     0
 90
        2
176
     1
  1
strokes_ogs.tif
176
     1
290
     0
176
     1
 40
1.0
176
     1
 40
1.0
176
     1
  0
VISUALSTYLE
  5
FD5
102
{ACAD_REACTORS
330
FCE
102
}
330
FCE
100
AcDbVisualStyle
  2
Hidden
 70
     6
177
     3
291
     0
 70
    58
 90
        1
176
     1
 90
        2
176
     1
 90
        2
176
     1
 90
        0
176
     1
 40
0.6
176
     1
 40
30.0
176
     1
 62
     7
420
 16777215
176
     1
 90
        2
176
     1
 90
        2
176
     1
 62
     7
176
     1
 62
   257
176
     1
 90
        2
176
     1
 90
        1
176
     1
 40
40.0
176
     1
 90
        0
176
     1
 62
   257
176
     1
 40
1.0
176
     1
 90
        1
176
     1
 90
        6
176
     1
 90
        2
176
     1
 62
     7
176
     1
 90
        3
176
     1
 90
        0
176
     1
 90
        0
176
     1
290
     0
176
     1
 90
        1
176
     1
 40
0.0
176
     1
 90
        0
176
     1
290
     0
176
     1
290
     1
176
     1
290
     1
176
     1
290
     0
176
     1
290
     0
176
     1
290
     0
176
     1
290
     0
176
     1
290
     0
176
     1
290
     0
176
     1
 90
       50
176
     1
 40
0.0
176
     1
 40
1.0
176
     1
 90
        0
176
     1
 62
   178
420
        0
176
     1
 90
       50
176
     1
 90
        3
176
     1
 62
     5
420
      255
176
     1
290
     0
176
     1
 90
       50
176
     1
 90
       50
176
     1
 90
       50
176
     1
290
     0
176
     1
 90
       50
176
     1
 62
   256
176
     0
 40
1.0
176
     0
 90
        2
176
     1
  1
strokes_ogs.tif
176
     1
290
     0
176
     1
 40
1.0
176
     1
 40
1.0
176
     1
  0
VISUALSTYLE
  5
FDF
102
{ACAD_REACTORS
330
FCE
102
}
330
FCE
100
AcDbVisualStyle
  2
JitterOff
 70
    20
177
     3
291
     1
 70
    58
 90
        2
176
     0
 90
        2
176
     0
 90
        0
176
     0
 90
        0
176
     0
 40
0.6
176
     0
 40
30.0
176
     0
 62
     7
420
 16777215
176
     0
 90
        1
176
     0
 90
        4
176
     0
 62
     7
176
     0
 62
   257
176
     0
 90
        1
176
     0
 90
        1
176
     0
 40
1.0
176
     0
 90
       10
176
     2
 62
     7
176
     0
 40
1.0
176
     0
 90
        1
176
     0
 90
        6
176
     0
 90
        2
176
     0
 62
     7
176
     0
 90
        5
176
     0
 90
        0
176
     0
 90
        0
176
     0
290
     0
176
     0
 90
        1
176
     0
 40
0.0
176
     0
 90
        0
176
     0
290
     0
176
     0
290
     1
176
     0
290
     1
176
     0
290
     0
176
     0
290
     0
176
     0
290
     0
176
     0
290
     0
176
     0
290
     0
176
     0
290
     0
176
     0
 90
       50
176
     0
 40
0.0
176
     0
 40
1.0
176
     0
 90
        0
176
     0
 62
   178
420
        0
176
     0
 90
       50
176
     0
 90
        3
176
     0
 62
     5
420
      255
176
     0
290
     0
176
     0
 90
       50
176
     0
 90
       50
176
     0
 90
       50
176
     0
290
     0
176
     0
 90
       50
176
     0
 62
   256
176
     0
 40
1.0
176
     0
 90
        2
176
     0
  1
strokes_ogs.tif
176
     0
290
     0
176
     0
 40
1.0
176
     0
 40
1.0
176
     0
  0
VISUALSTYLE
  5
FDC
102
{ACAD_REACTORS
330
FCE
102
}
330
FCE
100
AcDbVisualStyle
  2
Linepattern
 70
    14
177
     3
291
     1
 70
    58
 90
        2
176
     1
 90
        2
176
     1
 90
        0
176
     1
 90
        0
176
     1
 40
0.6
176
     1
 40
30.0
176
     1
 62
     7
420
 16777215
176
     1
 90
        1
176
     1
 90
        4
176
     1
 62
     7
176
     1
 62
   257
176
     1
 90
        7
176
     1
 90
        7
176
     1
 40
1.0
176
     1
 90
        8
176
     1
 62
     7
176
     1
 40
1.0
176
     1
 90
        1
176
     1
 90
        6
176
     1
 90
        2
176
     1
 62
     7
176
     1
 90
        5
176
     1
 90
        0
176
     1
 90
        0
176
     1
290
     0
176
     1
 90
        1
176
     1
 40
0.0
176
     1
 90
        0
176
     1
290
     0
176
     1
290
     1
176
     1
290
     1
176
     1
290
     0
176
     1
290
     0
176
     1
290
     0
176
     1
290
     0
176
     1
290
     0
176
     1
290
     0
176
     1
 90
       50
176
     1
 40
0.0
176
     1
 40
1.0
176
     1
 90
        0
176
     1
 62
   178
420
        0
176
     1
 90
       50
176
     1
 90
        3
176
     1
 62
     5
420
      255
176
     1
290
     0
176
     1
 90
       50
176
     1
 90
       50
176
     1
 90
       50
176
     1
290
     0
176
     1
 90
       50
176
     1
 62
   256
176
     0
 40
1.0
176
     0
 90
        2
176
     1
  1
strokes_ogs.tif
176
     1
290
     0
176
     1
 40
1.0
176
     1
 40
1.0
176
     1
  0
VISUALSTYLE
  5
FE0
102
{ACAD_REACTORS
330
FCE
102
}
330
FCE
100
AcDbVisualStyle
  2
OverhangOff
 70
    21
177
     3
291
     1
 70
    58
 90
        2
176
     0
 90
        2
176
     0
 90
        0
176
     0
 90
        0
176
     0
 40
0.6
176
     0
 40
30.0
176
     0
 62
     7
420
 16777215
176
     0
 90
        1
176
     0
 90
        4
176
     0
 62
     7
176
     0
 62
   257
176
     0
 90
        1
176
     0
 90
        1
176
     0
 40
1.0
176
     0
 90
        9
176
     2
 62
     7
176
     0
 40
1.0
176
     0
 90
        1
176
     0
 90
        6
176
     0
 90
        2
176
     0
 62
     7
176
     0
 90
        5
176
     0
 90
        0
176
     0
 90
        0
176
     0
290
     0
176
     0
 90
        1
176
     0
 40
0.0
176
     0
 90
        0
176
     0
290
     0
176
     0
290
     1
176
     0
290
     1
176
     0
290
     0
176
     0
290
     0
176
     0
290
     0
176
     0
290
     0
176
     0
290
     0
176
     0
290
     0
176
     0
 90
       50
176
     0
 40
0.0
176
     0
 40
1.0
176
     0
 90
        0
176
     0
 62
   178
420
        0
176
     0
 90
       50
176
     0
 90
        3
176
     0
 62
     5
420
      255
176
     0
290
     0
176
     0
 90
       50
176
     0
 90
       50
176
     0
 90
       50
176
     0
290
     0
176
     0
 90
       50
176
     0
 62
   256
176
     0
 40
1.0
176
     0
 90
        2
176
     0
  1
strokes_ogs.tif
176
     0
290
     0
176
     0
 40
1.0
176
     0
 40
1.0
176
     0
  0
VISUALSTYLE
  5
FD7
102
{ACAD_REACTORS
330
FCE
102
}
330
FCE
100
AcDbVisualStyle
  2
Realistic
 70
     8
177
     3
291
     0
 70
    58
 90
        2
176
     1
 90
        3
176
     1
 90
        0
176
     1
 90
        2
176
     1
 40
0.6
176
     1
 40
30.0
176
     1
 62
     7
420
 16777215
176
     1
 90
        0
176
     1
 90
        0
176
     1
 62
     7
176
     1
 62
   257
176
     1
 90
        1
176
     1
 90
        1
176
     1
 40
1.0
176
     1
 90
        8
176
     1
 62
   257
176
     1
 40
1.0
176
     1
 90
        1
176
     1
 90
        6
176
     1
 90
        2
176
     1
 62
     7
176
     1
 90
        3
176
     1
 90
        0
176
     1
 90
        0
176
     1
290
     0
176
     1
 90
       13
176
     1
 40
0.0
176
     1
 90
        0
176
     1
290
     0
176
     1
290
     1
176
     1
290
     1
176
     1
290
     0
176
     1
290
     0
176
     1
290
     0
176
     1
290
     0
176
     1
290
     0
176
     1
290
     0
176
     1
 90
       50
176
     1
 40
0.0
176
     1
 40
1.0
176
     1
 90
        0
176
     1
 62
   178
420
        0
176
     1
 90
       50
176
     1
 90
        3
176
     1
 62
     5
420
      255
176
     1
290
     0
176
     1
 90
       50
176
     1
 90
       50
176
     1
 90
       50
176
     1
290
     0
176
     1
 90
       50
176
     1
 62
   256
176
     0
 40
1.0
176
     0
 90
        2
176
     1
  1
strokes_ogs.tif
176
     1
290
     0
176
     1
 40
1.0
176
     1
 40
1.0
176
     1
  0
VISUALSTYLE
  5
FE6
102
{ACAD_REACTORS
330
FCE
102
}
330
FCE
100
AcDbVisualStyle
  2
Shaded
 70
    27
177
     3
291
     0
 70
    58
 90
        2
176
     1
 90
        2
176
     1
 90
        1
176
     1
 90
        2
176
     1
 40
0.6
176
     1
 40
30.0
176
     1
 62
     7
420
 16777215
176
     1
 90
        0
176
     1
 90
        4
176
     1
 62
     7
176
     1
 62
   257
176
     1
 90
        1
176
     1
 90
        1
176
     1
 40
1.0
176
     1
 90
        8
176
     1
 62
   257
176
     1
 40
1.0
176
     1
 90
        1
176
     1
 90
        6
176
     1
 90
        2
176
     1
 62
     8
420
  7895160
176
     1
 90
        3
176
     1
 90
        0
176
     1
 90
        0
176
     1
290
     0
176
     1
 90
        5
176
     1
 40
0.0
176
     1
 90
        0
176
     1
290
     0
176
     1
290
     1
176
     1
290
     1
176
     1
290
     0
176
     1
290
     0
176
     1
290
     0
176
     1
290
     0
176
     1
290
     0
176
     1
290
     0
176
     1
 90
       50
176
     1
 40
0.0
176
     1
 40
1.0
176
     1
 90
        0
176
     1
 62
   178
420
        0
176
     1
 90
       50
176
     1
 90
        3
176
     1
 62
     5
420
      255
176
     1
290
     0
176
     1
 90
       50
176
     1
 90
       50
176
     1
 90
       50
176
     1
290
     0
176
     1
 90
       50
176
     1
 62
   256
176
     0
 40
1.0
176
     0
 90
        2
176
     1
  1
strokes_ogs.tif
176
     1
290
     0
176
     1
 40
1.0
176
     1
 40
1.0
176
     1
  0
VISUALSTYLE
  5
FE5
102
{ACAD_REACTORS
330
FCE
102
}
330
FCE
100
AcDbVisualStyle
  2
Shaded with edges
 70
    26
177
     3
291
     0
 70
    58
 90
        2
176
     1
 90
        2
176
     1
 90
        1
176
     1
 90
        2
176
     1
 40
0.6
176
     1
 40
30.0
176
     1
 62
     7
420
 16777215
176
     1
 90
        1
176
     1
 90
       10
176
     1
 62
     7
176
     1
 62
   257
176
     1
 90
        2
176
     1
 90
        1
176
     1
 40
1.0
176
     1
 90
        8
176
     1
 62
   257
176
     1
 40
1.0
176
     1
 90
        1
176
     1
 90
        6
176
     1
 90
        2
176
     1
 62
     7
176
     1
 90
        3
176
     1
 90
        0
176
     1
 90
        0
176
     1
290
     0
176
     1
 90
        5
176
     1
 40
0.0
176
     1
 90
        0
176
     1
290
     0
176
     1
290
     1
176
     1
290
     1
176
     1
290
     0
176
     1
290
     0
176
     1
290
     0
176
     1
290
     0
176
     1
290
     0
176
     1
290
     0
176
     1
 90
       50
176
     1
 40
0.0
176
     1
 40
1.0
176
     1
 90
        0
176
     1
 62
   178
420
        0
176
     1
 90
       50
176
     1
 90
        3
176
     1
 62
     5
420
      255
176
     1
290
     0
176
     1
 90
       50
176
     1
 90
       50
176
     1
 90
       50
176
     1
290
     0
176
     1
 90
       50
176
     1
 62
   256
176
     0
 40
1.0
176
     0
 90
        2
176
     1
  1
strokes_ogs.tif
176
     1
290
     0
176
     1
 40
1.0
176
     1
 40
1.0
176
     1
  0
VISUALSTYLE
  5
FE2
102
{ACAD_REACTORS
330
FCE
102
}
330
FCE
100
AcDbVisualStyle
  2
Shades of Gray
 70
    23
177
     3
291
     0
 70
    58
 90
        2
176
     1
 90
        2
176
     1
 90
        3
176
     1
 90
        0
176
     1
 40
0.6
176
     1
 40
30.0
176
     1
 62
     7
420
 16777215
176
     1
 90
        2
176
     1
 90
        2
176
     1
 62
     7
176
     1
 62
     7
176
     1
 90
        1
176
     1
 90
        1
176
     1
 40
40.0
176
     1
 90
        8
176
     1
 62
     7
176
     1
 40
1.0
176
     1
 90
        1
176
     1
 90
        6
176
     1
 90
        2
176
     1
 62
     7
176
     1
 90
        3
176
     1
 90
        0
176
     1
 90
        0
176
     1
290
     0
176
     1
 90
        1
176
     1
 40
0.0
176
     1
 90
        0
176
     1
290
     0
176
     1
290
     1
176
     1
290
     1
176
     1
290
     0
176
     1
290
     0
176
     1
290
     0
176
     1
290
     0
176
     1
290
     0
176
     1
290
     0
176
     1
 90
       50
176
     1
 40
0.0
176
     1
 40
1.0
176
     1
 90
        0
176
     1
 62
   178
420
        0
176
     1
 90
       50
176
     1
 90
        3
176
     1
 62
     5
420
      255
176
     1
290
     0
176
     1
 90
       50
176
     1
 90
       50
176
     1
 90
       50
176
     1
290
     0
176
     1
 90
       50
176
     1
 62
   256
176
     0
 40
1.0
176
     0
 90
        2
176
     1
  1
strokes_ogs.tif
176
     1
290
     0
176
     1
 40
1.0
176
     1
 40
1.0
176
     1
  0
VISUALSTYLE
  5
FE3
102
{ACAD_REACTORS
330
FCE
102
}
330
FCE
100
AcDbVisualStyle
  2
Sketchy
 70
    24
177
     3
291
     0
 70
    58
 90
        1
176
     1
 90
        2
176
     1
 90
        2
176
     1
 90
        0
176
     1
 40
0.6
176
     1
 40
30.0
176
     1
 62
     7
420
 16777215
176
     1
 90
        2
176
     1
 90
        2
176
     1
 62
     7
176
     1
 62
     7
176
     1
 90
        1
176
     1
 90
        1
176
     1
 40
40.0
176
     1
 90
       11
176
     1
 62
     7
176
     1
 40
1.0
176
     1
 90
        1
176
     1
 90
        6
176
     1
 90
        2
176
     1
 62
     7
176
     1
 90
        6
176
     1
 90
        0
176
     1
 90
        0
176
     1
290
     0
176
     1
 90
        1
176
     1
 40
0.0
176
     1
 90
        0
176
     1
290
     0
176
     1
290
     1
176
     1
290
     1
176
     1
290
     0
176
     1
290
     0
176
     1
290
     0
176
     1
290
     0
176
     1
290
     0
176
     1
290
     0
176
     1
 90
       50
176
     1
 40
0.0
176
     1
 40
1.0
176
     1
 90
        0
176
     1
 62
   178
420
        0
176
     1
 90
       50
176
     1
 90
        3
176
     1
 62
     5
420
      255
176
     1
290
     0
176
     1
 90
       50
176
     1
 90
       50
176
     1
 90
       50
176
     1
290
     0
176
     1
 90
       50
176
     1
 62
   256
176
     0
 40
1.0
176
     0
 90
        2
176
     1
  1
strokes_ogs.tif
176
     1
290
     0
176
     1
 40
1.0
176
     1
 40
1.0
176
     1
  0
VISUALSTYLE
  5
FDB
102
{ACAD_REACTORS
330
FCE
102
}
330
FCE
100
AcDbVisualStyle
  2
Thicken
 70
    13
177
     3
291
     1
 70
    58
 90
        2
176
     1
 90
        2
176
     1
 90
        0
176
     1
 90
        0
176
     1
 40
0.6
176
     1
 40
30.0
176
     1
 62
     7
420
 16777215
176
     1
 90
        1
176
     1
 90
        4
176
     1
 62
     7
176
     1
 62
   257
176
     1
 90
        1
176
     1
 90
        1
176
     1
 40
1.0
176
     1
 90
       12
176
     1
 62
     7
176
     1
 40
1.0
176
     1
 90
        1
176
     1
 90
        6
176
     1
 90
        2
176
     1
 62
     7
176
     1
 90
        5
176
     1
 90
        0
176
     1
 90
        0
176
     1
290
     0
176
     1
 90
        1
176
     1
 40
0.0
176
     1
 90
        0
176
     1
290
     0
176
     1
290
     1
176
     1
290
     1
176
     1
290
     0
176
     1
290
     0
176
     1
290
     0
176
     1
290
     0
176
     1
290
     0
176
     1
290
     0
176
     1
 90
       50
176
     1
 40
0.0
176
     1
 40
1.0
176
     1
 90
        0
176
     1
 62
   178
420
        0
176
     1
 90
       50
176
     1
 90
        3
176
     1
 62
     5
420
      255
176
     1
290
     0
176
     1
 90
       50
176
     1
 90
       50
176
     1
 90
       50
176
     1
290
     0
176
     1
 90
       50
176
     1
 62
   256
176
     0
 40
1.0
176
     0
 90
        2
176
     1
  1
strokes_ogs.tif
176
     1
290
     0
176
     1
 40
1.0
176
     1
 40
1.0
176
     1
  0
VISUALSTYLE
  5
FD4
102
{ACAD_REACTORS
330
FCE
102
}
330
FCE
100
AcDbVisualStyle
  2
Wireframe
 70
     5
177
     3
291
     0
 70
    58
 90
        0
176
     1
 90
        2
176
     1
 90
        0
176
     1
 90
        0
176
     1
 40
0.6
176
     1
 40
30.0
176
     1
 62
     7
420
 16777215
176
     1
 90
        1
176
     1
 90
        4
176
     1
 62
     7
176
     1
 62
   257
176
     1
 90
        1
176
     1
 90
        1
176
     1
 40
1.0
176
     1
 90
        0
176
     1
 62
   257
176
     1
 40
1.0
176
     1
 90
        1
176
     1
 90
        6
176
     1
 90
        2
176
     1
 62
     7
176
     1
 90
        3
176
     1
 90
        0
176
     1
 90
        0
176
     1
290
     0
176
     1
 90
        1
176
     1
 40
0.0
176
     1
 90
        0
176
     1
290
     0
176
     1
290
     1
176
     1
290
     1
176
     1
290
     0
176
     1
290
     0
176
     1
290
     0
176
     1
290
     0
176
     1
290
     0
176
     1
290
     0
176
     1
 90
       50
176
     1
 40
0.0
176
     1
 40
1.0
176
     1
 90
        0
176
     1
 62
   178
420
        0
176
     1
 90
       50
176
     1
 90
        3
176
     1
 62
     5
420
      255
176
     1
290
     0
176
     1
 90
       50
176
     1
 90
       50
176
     1
 90
       50
176
     1
290
     0
176
     1
 90
       50
176
     1
 62
   256
176
     0
 40
1.0
176
     0
 90
        2
176
     1
  1
strokes_ogs.tif
176
     1
290
     0
176
     1
 40
1.0
176
     1
 40
1.0
176
     1
  0
VISUALSTYLE
  5
FE4
102
{ACAD_REACTORS
330
FCE
102
}
330
FCE
100
AcDbVisualStyle
  2
X-Ray
 70
    25
177
     3
291
     0
 70
    58
 90
        2
176
     1
 90
        2
176
     1
 90
        1
176
     1
 90
        1
176
     1
 40
0.5
176
     1
 40
30.0
176
     1
 62
     7
420
 16777215
176
     1
 90
        1
176
     1
 90
        0
176
     1
 62
     7
176
     1
 62
   257
176
     1
 90
        1
176
     1
 90
        1
176
     1
 40
1.0
176
     1
 90
        8
176
     1
 62
     7
176
     1
 40
1.0
176
     1
 90
        1
176
     1
 90
        6
176
     1
 90
        2
176
     1
 62
     7
176
     1
 90
        3
176
     1
 90
        0
176
     1
 90
        0
176
     1
290
     0
176
     1
 90
       13
176
     1
 40
0.0
176
     1
 90
        0
176
     1
290
     0
176
     1
290
     1
176
     1
290
     1
176
     1
290
     0
176
     1
290
     0
176
     1
290
     0
176
     1
290
     0
176
     1
290
     0
176
     1
290
     0
176
     1
 90
       50
176
     1
 40
0.0
176
     1
 40
1.0
176
     1
 90
        0
176
     1
 62
   178
420
        0
176
     1
 90
       50
176
     1
 90
        3
176
     1
 62
     5
420
      255
176
     1
290
     0
176
     1
 90
       50
176
     1
 90
       50
176
     1
 90
       50
176
     1
290
     0
176
     1
 90
       50
176
     1
 62
   256
176
     0
 40
1.0
176
     0
 90
        2
176
     1
  1
strokes_ogs.tif
176
     1
290
     0
176
     1
 40
1.0
176
     1
 40
1.0
176
     1
  0
DICTIONARYVAR
  5
1092
102
{ACAD_REACTORS
330
1091
102
}
330
1091
100
DictionaryVariables
280
     0
  1
1:1
  0
DICTIONARYVAR
  5
1097
102
{ACAD_REACTORS
330
1091
102
}
330
1091
100
DictionaryVariables
280
     0
  1
Standard
  0
DICTIONARYVAR
  5
1096
102
{ACAD_REACTORS
330
1091
102
}
330
1091
100
DictionaryVariables
280
     0
  1
Standard
  0
XRECORD
  5
1015
102
{ACAD_REACTORS
330
1013
102
}
330
1013
100
AcDbXrecord
280
     1
1000
GCodeMM
  0
XRECORD
  5
1016
102
{ACAD_REACTORS
330
1013
102
}
330
1013
100
AcDbXrecord
280
     1
1000
#ffffff
  0
XRECORD
  5
1017
102
{ACAD_REACTORS
330
1013
102
}
330
1013
100
AcDbXrecord
280
     1
1000
FullColor
  0
XRECORD
  5
1018
102
{ACAD_REACTORS
330
1013
102
}
330
1013
100
AcDbXrecord
280
     1
290
     1
  0
XRECORD
  5
1019
102
{ACAD_REACTORS
330
1013
102
}
330
1013
100
AcDbXrecord
280
     1
290
     1
  0
XRECORD
  5
101A
102
{ACAD_REACTORS
330
1013
102
}
330
1013
100
AcDbXrecord
280
     1
290
     1
  0
XRECORD
  5
101B
102
{ACAD_REACTORS
330
1013
102
}
330
1013
100
AcDbXrecord
280
     1
290
     1
  0
XRECORD
  5
101C
102
{ACAD_REACTORS
330
1013
102
}
330
1013
100
AcDbXrecord
280
     1
1000
auto
  0
XRECORD
  5
101D
102
{ACAD_REACTORS
330
1013
102
}
330
1013
100
AcDbXrecord
280
     1
1000
auto
  0
XRECORD
  5
101E
102
{ACAD_REACTORS
330
1013
102
}
330
1013
100
AcDbXrecord
280
     1
1000
auto
  0
XRECORD
  5
101F
102
{ACAD_REACTORS
330
1013
102
}
330
1013
100
AcDbXrecord
280
     1
1000
auto
  0
XRECORD
  5
1020
102
{ACAD_REACTORS
330
1013
102
}
330
1013
100
AcDbXrecord
280
     1
1000
auto
  0
XRECORD
  5
1021
102
{ACAD_REACTORS
330
1013
102
}
330
1013
100
AcDbXrecord
280
     1
1000
auto
  0
XRECORD
  5
1022
102
{ACAD_REACTORS
330
1013
102
}
330
1013
100
AcDbXrecord
280
     1
1000
auto
  0
XRECORD
  5
1023
102
{ACAD_REACTORS
330
1013
102
}
330
1013
100
AcDbXrecord
280
     1
1000
auto
  0
XRECORD
  5
1024
102
{ACAD_REACTORS
330
1013
102
}
330
1013
100
AcDbXrecord
280
     1
290
     0
  0
XRECORD
  5
1025
102
{ACAD_REACTORS
330
1013
102
}
330
1013
100
AcDbXrecord
280
     1
290
     0
  0
XRECORD
  5
1026
102
{ACAD_REACTORS
330
1013
102
}
330
1013
100
AcDbXrecord
280
     1
290
     0
  0
XRECORD
  5
1027
102
{ACAD_REACTORS
330
1013
102
}
330
1013
100
AcDbXrecord
280
     1
290
     0
  0
XRECORD
  5
1028
102
{ACAD_REACTORS
330
1013
102
}
330
1013
100
AcDbXrecord
280
     1
 90
    65537
  0
XRECORD
  5
1029
102
{ACAD_REACTORS
330
1013
102
}
330
1013
100
AcDbXrecord
280
     1
 90
    65537
  0
XRECORD
  5
102A
102
{ACAD_REACTORS
330
1013
102
}
330
1013
100
AcDbXrecord
280
     1
 90
    65537
  0
XRECORD
  5
102B
102
{ACAD_REACTORS
330
1013
102
}
330
1013
100
AcDbXrecord
280
     1
 90
    65537
  0
XRECORD
  5
102C
102
{ACAD_REACTORS
330
1013
102
}
330
1013
100
AcDbXrecord
280
     1
1000
auto
  0
XRECORD
  5
102D
102
{ACAD_REACTORS
330
1013
102
}
330
1013
100
AcDbXrecord
280
     1
1000
auto
  0
XRECORD
  5
102E
102
{ACAD_REACTORS
330
1013
102
}
330
1013
100
AcDbXrecord
280
     1
1000
auto
  0
XRECORD
  5
102F
102
{ACAD_REACTORS
330
1013
102
}
330
1013
100
AcDbXrecord
280
     1
1000
auto
  0
XRECORD
  5
1030
102
{ACAD_REACTORS
330
1013
102
}
330
1013
100
AcDbXrecord
280
     1
1000
auto
  0
XRECORD
  5
1031
102
{ACAD_REACTORS
330
1013
102
}
330
1013
100
AcDbXrecord
280
     1
1000
auto
  0
XRECORD
  5
1032
102
{ACAD_REACTORS
330
1013
102
}
330
1013
100
AcDbXrecord
280
     1
1000
auto
  0
XRECORD
  5
1033
102
{ACAD_REACTORS
330
1013
102
}
330
1013
100
AcDbXrecord
280
     1
1000
auto
  0
XRECORD
  5
1034
102
{ACAD_REACTORS
330
1013
102
}
330
1013
100
AcDbXrecord
280
     1
 90
        1
  0
XRECORD
  5
1035
102
{ACAD_REACTORS
330
1013
102
}
330
1013
100
AcDbXrecord
280
     1
 40
10.0
  0
XRECORD
  5
1036
102
{ACAD_REACTORS
330
1013
102
}
330
1013
100
AcDbXrecord
280
     1
 40
10.0
  0
XRECORD
  5
1037
102
{ACAD_REACTORS
330
1013
102
}
330
1013
100
AcDbXrecord
280
     1
 40
10.0
  0
XRECORD
  5
1038
102
{ACAD_REACTORS
330
1013
102
}
330
1013
100
AcDbXrecord
280
     1
 40
10.0
  0
XRECORD
  5
1039
102
{ACAD_REACTORS
330
1013
102
}
330
1013
100
AcDbXrecord
280
     1
290
     0
  0
XRECORD
  5
103A
102
{ACAD_REACTORS
330
1013
102
}
330
1013
100
AcDbXrecord
280
     1
 90
        1
  0
XRECORD
  5
103B
102
{ACAD_REACTORS
330
1013
102
}
330
1013
100
AcDbXrecord
280
     1
 40
0.0
  0
XRECORD
  5
103C
102
{ACAD_REACTORS
330
1013
102
}
330
1013
100
AcDbXrecord
280
     1
 40
0.0
  0
XRECORD
  5
103D
102
{ACAD_REACTORS
330
1013
102
}
330
1013
100
AcDbXrecord
280
     1
1000
Portrait
  0
XRECORD
  5
103E
102
{ACAD_REACTORS
330
1013
102
}
330
1013
100
AcDbXrecord
280
     1
 40
297.0
  0
XRECORD
  5
103F
102
{ACAD_REACTORS
330
1013
102
}
330
1013
100
AcDbXrecord
280
     1
 40
210.0
  0
XRECORD
  5
1040
102
{ACAD_REACTORS
330
1013
102
}
330
1013
100
AcDbXrecord
280
     1
1000
1:1
  0
XRECORD
  5
1041
102
{ACAD_REACTORS
330
1013
102
}
330
1013
100
AcDbXrecord
280
     1
290
     1
  0
XRECORD
  5
1042
102
{ACAD_REACTORS
330
1013
102
}
330
1013
100
AcDbXrecord
280
     1
290
     0
  0
XRECORD
  5
1043
102
{ACAD_REACTORS
330
1013
102
}
330
1013
100
AcDbXrecord
280
     1
1000
Inside
  0
XRECORD
  5
1044
102
{ACAD_REACTORS
330
1013
102
}
330
1013
100
AcDbXrecord
280
     1
1000
Arial,10,-1,5,50,0,0,0,0,0
  0
XRECORD
  5
1045
102
{ACAD_REACTORS
330
1013
102
}
330
1013
100
AcDbXrecord
280
     1
1000
TopLeft
  0
XRECORD
  5
1046
102
{ACAD_REACTORS
330
1013
102
}
330
1013
100
AcDbXrecord
280
     1
1000
3.24.2
  0
XRECORD
  5
1047
102
{ACAD_REACTORS
330
1013
102
}
330
1013
100
AcDbXrecord
280
     1
 90
        4
  0
XRECORD
  5
1048
102
{ACAD_REACTORS
330
1013
102
}
330
1013
100
AcDbXrecord
280
     1
  0
XRECORD
  5
1049
102
{ACAD_REACTORS
330
1013
102
}
330
1013
100
AcDbXrecord
280
     1
 40
875.8708231456308
  0
XRECORD
  5
104A
102
{ACAD_REACTORS
330
1013
102
}
330
1013
100
AcDbXrecord
280
     1
 40
1511.548404815533
  0
DICTIONARY
  5
1093
330
100E
100
AcDbDictionary
280
     1
281
     1
  3
ACAD_ROUNDTRIP_2008_TABLESTYLE_CELLSTYLEMAP
360
1094
  0
CELLSTYLEMAP
  5
1094
102
{ACAD_REACTORS
330
1093
102
}
330
1093
100
AcDbCellStyleMap
 90
        3
300
CELLSTYLE
  1
TABLEFORMAT_BEGIN
 90
        5
170
     1
 91
        0
 92
    32768
 62
   257
 93
        1
300
CONTENTFORMAT
  1
CONTENTFORMAT_BEGIN
 90
        0
 91
        0
 92
        4
 93
        0
300

 40
0.0
140
1.0
 94
        5
 62
     0
340
FB6
144
0.25
309
CONTENTFORMAT_END
171
     1
301
MARGIN
  1
CELLMARGIN_BEGIN
 40
0.06
 40
0.06
 40
0.06
 40
0.06
 40
0.06
 40
0.06
309
CELLMARGIN_END
 94
        6
 95
        1
302
GRIDFORMAT
  1
GRIDFORMAT_BEGIN
 90
        0
 91
        1
 62
     0
 92
       -2
340
FB8
 93
        0
 40
0.045
309
GRIDFORMAT_END
 95
        2
302
GRIDFORMAT
  1
GRIDFORMAT_BEGIN
 90
        0
 91
        1
 62
     0
 92
       -2
340
FB8
 93
        0
 40
0.045
309
GRIDFORMAT_END
 95
        4
302
GRIDFORMAT
  1
GRIDFORMAT_BEGIN
 90
        0
 91
        1
 62
     0
 92
       -2
340
FB8
 93
        0
 40
0.045
309
GRIDFORMAT_END
 95
        8
302
GRIDFORMAT
  1
GRIDFORMAT_BEGIN
 90
        0
 91
        1
 62
     0
 92
       -2
340
FB8
 93
        0
 40
0.045
309
GRIDFORMAT_END
 95
       16
302
GRIDFORMAT
  1
GRIDFORMAT_BEGIN
 90
        0
 91
        1
 62
     0
 92
       -2
340
FB8
 93
        0
 40
0.045
309
GRIDFORMAT_END
 95
       32
302
GRIDFORMAT
  1
GRIDFORMAT_BEGIN
 90
        0
 91
        1
 62
     0
 92
       -2
340
FB8
 93
        0
 40
0.045
309
GRIDFORMAT_END
309
TABLEFORMAT_END
  1
CELLSTYLE_BEGIN
 90
        1
 91
        1
300
_TITLE
309
CELLSTYLE_END
300
CELLSTYLE
  1
TABLEFORMAT_BEGIN
 90
        5
170
     1
 91
        0
 92
        0
 62
   257
 93
        1
300
CONTENTFORMAT
  1
CONTENTFORMAT_BEGIN
 90
        0
 91
        0
 92
        4
 93
        0
300

 40
0.0
140
1.0
 94
        5
 62
     0
340
FB6
144
0.18
309
CONTENTFORMAT_END
171
     1
301
MARGIN
  1
CELLMARGIN_BEGIN
 40
0.06
 40
0.06
 40
0.06
 40
0.06
 40
0.06
 40
0.06
309
CELLMARGIN_END
 94
        6
 95
        1
302
GRIDFORMAT
  1
GRIDFORMAT_BEGIN
 90
        0
 91
        1
 62
     0
 92
       -2
340
FB8
 93
        0
 40
0.045
309
GRIDFORMAT_END
 95
        2
302
GRIDFORMAT
  1
GRIDFORMAT_BEGIN
 90
        0
 91
        1
 62
     0
 92
       -2
340
FB8
 93
        0
 40
0.045
309
GRIDFORMAT_END
 95
        4
302
GRIDFORMAT
  1
GRIDFORMAT_BEGIN
 90
        0
 91
        1
 62
     0
 92
       -2
340
FB8
 93
        0
 40
0.045
309
GRIDFORMAT_END
 95
        8
302
GRIDFORMAT
  1
GRIDFORMAT_BEGIN
 90
        0
 91
        1
 62
     0
 92
       -2
340
FB8
 93
        0
 40
0.045
309
GRIDFORMAT_END
 95
       16
302
GRIDFORMAT
  1
GRIDFORMAT_BEGIN
 90
        0
 91
        1
 62
     0
 92
       -2
340
FB8
 93
        0
 40
0.045
309
GRIDFORMAT_END
 95
       32
302
GRIDFORMAT
  1
GRIDFORMAT_BEGIN
 90
        0
 91
        1
 62
     0
 92
       -2
340
FB8
 93
        0
 40
0.045
309
GRIDFORMAT_END
309
TABLEFORMAT_END
  1
CELLSTYLE_BEGIN
 90
        2
 91
        1
300
_HEADER
309
CELLSTYLE_END
300
CELLSTYLE
  1
TABLEFORMAT_BEGIN
 90
        5
170
     1
 91
        0
 92
        0
 62
   257
 93
        1
300
CONTENTFORMAT
  1
CONTENTFORMAT_BEGIN
 90
        0
 91
        0
 92
        4
 93
        0
300

 40
0.0
140
1.0
 94
        2
 62
     0
340
FB6
144
0.18
309
CONTENTFORMAT_END
171
     1
301
MARGIN
  1
CELLMARGIN_BEGIN
 40
0.06
 40
0.06
 40
0.06
 40
0.06
 40
0.06
 40
0.06
309
CELLMARGIN_END
 94
        6
 95
        1
302
GRIDFORMAT
  1
GRIDFORMAT_BEGIN
 90
        0
 91
        1
 62
     0
 92
       -2
340
FB8
 93
        0
 40
0.045
309
GRIDFORMAT_END
 95
        2
302
GRIDFORMAT
  1
GRIDFORMAT_BEGIN
 90
        0
 91
        1
 62
     0
 92
       -2
340
FB8
 93
        0
 40
0.045
309
GRIDFORMAT_END
 95
        4
302
GRIDFORMAT
  1
GRIDFORMAT_BEGIN
 90
        0
 91
        1
 62
     0
 92
       -2
340
FB8
 93
        0
 40
0.045
309
GRIDFORMAT_END
 95
        8
302
GRIDFORMAT
  1
GRIDFORMAT_BEGIN
 90
        0
 91
        1
 62
     0
 92
       -2
340
FB8
 93
        0
 40
0.045
309
GRIDFORMAT_END
 95
       16
302
GRIDFORMAT
  1
GRIDFORMAT_BEGIN
 90
        0
 91
        1
 62
     0
 92
       -2
340
FB8
 93
        0
 40
0.045
309
GRIDFORMAT_END
 95
       32
302
GRIDFORMAT
  1
GRIDFORMAT_BEGIN
 90
        0
 91
        1
 62
     0
 92
       -2
340
FB8
 93
        0
 40
0.045
309
GRIDFORMAT_END
309
TABLEFORMAT_END
  1
CELLSTYLE_BEGIN
 90
        3
 91
        2
300
_DATA
309
CELLSTYLE_END
  0
ENDSEC
  0
EOF
