<?xml version="1.0" encoding="UTF-8"?>
<!-- 2020-10-26 15:35:09 Generated by QCAD 3.24.2 SVG Exporter PG -->
<svg width="210.25mm" height="210.25mm" viewBox="-105.125 -105.125 210.25 210.25" version="1.1" xmlns="http://www.w3.org/2000/svg" style="stroke-linecap:round;stroke-linejoin:round;fill:none">
    <g transform="scale(1,-1)">
        <!-- Schraffur -->
        <path d="M100,-85.5 L100,85.5 A14.5,14.5 0 0 1 85.5,100 L-85.5,100 A14.5,14.5 0 0 1 -100,85.5 L-100,-85.5 A14.5,14.5 0 0 1 -85.5,-100 L85.5,-100 A14.5,14.5 0 0 1 100,-85.5M-85.5,95 A9.5,9.5 0 0 1 -95,85.5 L-95,-85.5 A9.5,9.5 0 0 1 -85.5,-95 L85.5,-95 A9.5,9.5 0 0 1 95,-85.5 L95,85.5 A9.5,9.5 0 0 1 85.5,95 Z" style="fill:#000000;fill-rule:evenodd;"/>
        <!-- Kreisbogen -->
        <path d="M48.9598,-9.166 A12.1804,12.1804 0 0,0 48.6417,-11.9315" style="stroke:#000000;stroke-width:0.25;"/>
        <!-- Kreisbogen -->
        <path d="M48.6417,-11.9315 A8.8905,8.8905 0 0,0 47.7968,-14.1546" style="stroke:#000000;stroke-width:0.25;"/>
        <!-- Kreisbogen -->
        <path d="M47.7968,-14.1546 A10.1334,10.1334 0 0,0 44.5527,-17.72" style="stroke:#000000;stroke-width:0.25;"/>
        <!-- Kreisbogen -->
        <path d="M44.5527,-17.72 A15.0072,15.0072 0 0,0 39.5489,-19.847" style="stroke:#000000;stroke-width:0.25;"/>
        <!-- Kreisbogen -->
        <path d="M39.5489,-19.847 A27.5176,27.5176 0 0,0 33.1067,-20.5509" style="stroke:#000000;stroke-width:0.25;"/>
        <!-- Kreisbogen -->
        <path d="M33.1067,-20.5509 A40.8899,40.8899 0 0,0 29.9391,-20.4285" style="stroke:#000000;stroke-width:0.25;"/>
        <!-- Kreisbogen -->
        <path d="M29.9391,-20.4285 A63.3289,63.3289 0 0,0 26.9093,-20.1224" style="stroke:#000000;stroke-width:0.25;"/>
        <!-- Kreisbogen -->
        <path d="M26.9093,-20.1224 A44.4109,44.4109 0 0,0 24.1702,-19.694" style="stroke:#000000;stroke-width:0.25;"/>
        <!-- Kreisbogen -->
        <path d="M24.1702,-19.694 A34.0225,34.0225 0 0,0 21.8442,-19.1737" style="stroke:#000000;stroke-width:0.25;"/>
        <!-- Linie -->
        <line x1="21.8442" y1="-19.1737" x2="21.8442" y2="-13.9097" style="stroke:#000000;stroke-width:0.25;"/>
        <!-- Kreisbogen -->
        <path d="M21.8442,-13.9097 A28.5089,28.5089 0 0,1 27.0011,-15.2563" style="stroke:#000000;stroke-width:0.25;"/>
        <!-- Kreisbogen -->
        <path d="M27.0011,-15.2563 A38.8313,38.8313 0 0,1 33.5045,-15.746" style="stroke:#000000;stroke-width:0.25;"/>
        <!-- Kreisbogen -->
        <path d="M33.5045,-15.746 A20.905,20.905 0 0,1 37.9881,-15.3328" style="stroke:#000000;stroke-width:0.25;"/>
        <!-- Kreisbogen -->
        <path d="M37.9881,-15.3328 A8.6293,8.6293 0 0,1 41.0179,-14.1086" style="stroke:#000000;stroke-width:0.25;"/>
        <!-- Kreisbogen -->
        <path d="M41.0179,-14.1086 A4.8574,4.8574 0 0,1 42.7318,-12.1347" style="stroke:#000000;stroke-width:0.25;"/>
        <!-- Kreisbogen -->
        <path d="M42.7318,-12.1347 A6.2993,6.2993 0 0,1 43.2673,-9.4721" style="stroke:#000000;stroke-width:0.25;"/>
        <!-- Kreisbogen -->
        <path d="M43.2673,-9.4721 A4.3427,4.3427 0 0,1 42.3645,-6.7024" style="stroke:#000000;stroke-width:0.25;"/>
        <!-- Kreisbogen -->
        <path d="M42.3645,-6.7024 A8.9016,8.9016 0 0,1 39.9927,-4.6519" style="stroke:#000000;stroke-width:0.25;"/>
        <!-- Kreisbogen -->
        <path d="M39.9927,-4.6519 A21.8208,21.8208 0 0,1 36.6415,-2.9992" style="stroke:#000000;stroke-width:0.25;"/>
        <!-- Kreisbogen -->
        <path d="M36.6415,-2.9992 A610.955,610.955 0 0,0 32.8006,-1.4537" style="stroke:#000000;stroke-width:0.25;"/>
        <!-- Kreisbogen -->
        <path d="M32.8006,-1.4537 A56.5269,56.5269 0 0,0 28.9598,0.2754" style="stroke:#000000;stroke-width:0.25;"/>
        <!-- Kreisbogen -->
        <path d="M28.9598,0.2754 A15.8811,15.8811 0 0,0 25.6086,2.479" style="stroke:#000000;stroke-width:0.25;"/>
        <!-- Kreisbogen -->
        <path d="M25.6086,2.479 A10.189,10.189 0 0,0 23.2367,5.4629" style="stroke:#000000;stroke-width:0.25;"/>
        <!-- Kreisbogen -->
        <path d="M23.2367,5.4629 A7.1174,7.1174 0 0,0 22.5853,7.2389" style="stroke:#000000;stroke-width:0.25;"/>
        <!-- Kreisbogen -->
        <path d="M22.5853,7.2389 A10.5955,10.5955 0 0,0 22.3339,9.5333" style="stroke:#000000;stroke-width:0.25;"/>
        <!-- Kreisbogen -->
        <path d="M22.3339,9.5333 A10.1248,10.1248 0 0,0 23.1908,13.5731" style="stroke:#000000;stroke-width:0.25;"/>
        <!-- Kreisbogen -->
        <path d="M23.1908,13.5731 A9.6777,9.6777 0 0,0 25.8534,17.1079" style="stroke:#000000;stroke-width:0.25;"/>
        <!-- Kreisbogen -->
        <path d="M25.8534,17.1079 A10.9429,10.9429 0 0,0 27.7849,18.4314" style="stroke:#000000;stroke-width:0.25;"/>
        <!-- Kreisbogen -->
        <path d="M27.7849,18.4314 A17.3415,17.3415 0 0,0 30.49,19.6021" style="stroke:#000000;stroke-width:0.25;"/>
        <!-- Kreisbogen -->
        <path d="M30.49,19.6021 A16.103,16.103 0 0,0 33.3651,20.2799" style="stroke:#000000;stroke-width:0.25;"/>
        <!-- Kreisbogen -->
        <path d="M33.3651,20.2799 A27.8205,27.8205 0 0,0 37.2383,20.5509" style="stroke:#000000;stroke-width:0.25;"/>
        <!-- Kreisbogen -->
        <path d="M37.2383,20.5509 A28.2908,28.2908 0 0,0 39.4265,20.4591" style="stroke:#000000;stroke-width:0.25;"/>
        <!-- Kreisbogen -->
        <path d="M39.4265,20.4591 A39.6389,39.6389 0 0,0 41.8136,20.1989" style="stroke:#000000;stroke-width:0.25;"/>
        <!-- Kreisbogen -->
        <path d="M41.8136,20.1989 A58.2538,58.2538 0 0,0 44.2008,19.8164" style="stroke:#000000;stroke-width:0.25;"/>
        <!-- Kreisbogen -->
        <path d="M44.2008,19.8164 A38.7039,38.7039 0 0,0 46.389,19.3573" style="stroke:#000000;stroke-width:0.25;"/>
        <!-- Linie -->
        <line x1="46.389" y1="19.3573" x2="46.389" y2="14.4606" style="stroke:#000000;stroke-width:0.25;"/>
        <!-- Kreisbogen -->
        <path d="M46.389,14.4606 A37.0821,37.0821 0 0,1 41.6759,15.4858" style="stroke:#000000;stroke-width:0.25;"/>
        <!-- Kreisbogen -->
        <path d="M41.6759,15.4858 A30.8711,30.8711 0 0,1 37.1158,15.8378" style="stroke:#000000;stroke-width:0.25;"/>
        <!-- Kreisbogen -->
        <path d="M37.1158,15.8378 A24.8872,24.8872 0 0,1 35.1107,15.7569" style="stroke:#000000;stroke-width:0.25;"/>
        <!-- Kreisbogen -->
        <path d="M35.1107,15.7569 A15.345,15.345 0 0,1 33.5486,15.5494" style="stroke:#000000;stroke-width:0.25;"/>
        <!-- Kreisbogen -->
        <path d="M33.5486,15.5494 A11.3144,11.3144 0 0,1 31.5613,14.9893" style="stroke:#000000;stroke-width:0.25;"/>
        <!-- Kreisbogen -->
        <path d="M31.5613,14.9893 A6.052,6.052 0 0,1 30.2298,14.277" style="stroke:#000000;stroke-width:0.25;"/>
        <!-- Kreisbogen -->
        <path d="M30.2298,14.277 A6.0439,6.0439 0 0,1 29.2466,13.4055" style="stroke:#000000;stroke-width:0.25;"/>
        <!-- Kreisbogen -->
        <path d="M29.2466,13.4055 A4.6332,4.6332 0 0,1 28.5855,12.464" style="stroke:#000000;stroke-width:0.25;"/>
        <!-- Kreisbogen -->
        <path d="M28.5855,12.464 A4.5483,4.5483 0 0,1 28.1757,11.3728" style="stroke:#000000;stroke-width:0.25;"/>
        <!-- Kreisbogen -->
        <path d="M28.1757,11.3728 A5.6342,5.6342 0 0,1 28.0263,10.0842" style="stroke:#000000;stroke-width:0.25;"/>
        <!-- Kreisbogen -->
        <path d="M28.0263,10.0842 A4.4061,4.4061 0 0,1 28.9292,7.2992" style="stroke:#000000;stroke-width:0.25;"/>
        <!-- Kreisbogen -->
        <path d="M28.9292,7.2992 A8.9847,8.9847 0 0,1 31.301,5.2181" style="stroke:#000000;stroke-width:0.25;"/>
        <!-- Kreisbogen -->
        <path d="M31.301,5.2181 A20.937,20.937 0 0,1 34.6522,3.5501" style="stroke:#000000;stroke-width:0.25;"/>
        <!-- Kreisbogen -->
        <path d="M34.6522,3.5501 A610.955,610.955 0 0,0 38.493,2.0046" style="stroke:#000000;stroke-width:0.25;"/>
        <!-- Kreisbogen -->
        <path d="M38.493,2.0046 A52.0651,52.0651 0 0,0 42.3339,0.2601" style="stroke:#000000;stroke-width:0.25;"/>
        <!-- Kreisbogen -->
        <path d="M42.3339,0.2601 A15.6495,15.6495 0 0,0 45.6851,-1.9893" style="stroke:#000000;stroke-width:0.25;"/>
        <!-- Kreisbogen -->
        <path d="M45.6851,-1.9893 A10.4453,10.4453 0 0,0 48.0569,-5.0344" style="stroke:#000000;stroke-width:0.25;"/>
        <!-- Kreisbogen -->
        <path d="M48.0569,-5.0344 A7.3352,7.3352 0 0,0 48.7086,-6.84" style="stroke:#000000;stroke-width:0.25;"/>
        <!-- Kreisbogen -->
        <path d="M48.7086,-6.84 A10.8956,10.8956 0 0,0 48.9598,-9.166" style="stroke:#000000;stroke-width:0.25;"/>
        <!-- Linie -->
        <line x1="16.9549" y1="-20" x2="11.6297" y2="-20" style="stroke:#000000;stroke-width:0.25;"/>
        <!-- Linie -->
        <line x1="11.6297" y1="-20" x2="10.834" y2="4.9426" style="stroke:#000000;stroke-width:0.25;"/>
        <!-- Linie -->
        <line x1="10.834" y1="4.9426" x2="10.4973" y2="14.5218" style="stroke:#000000;stroke-width:0.25;"/>
        <!-- Linie -->
        <line x1="10.4973" y1="14.5218" x2="8.6305" y2="8.9518" style="stroke:#000000;stroke-width:0.25;"/>
        <!-- Linie -->
        <line x1="8.6305" y1="8.9518" x2="2.7238" y2="-6.9625" style="stroke:#000000;stroke-width:0.25;"/>
        <!-- Linie -->
        <line x1="2.7238" y1="-6.9625" x2="-1.0406" y2="-6.9625" style="stroke:#000000;stroke-width:0.25;"/>
        <!-- Linie -->
        <line x1="-1.0406" y1="-6.9625" x2="-6.6718" y2="8.3397" style="stroke:#000000;stroke-width:0.25;"/>
        <!-- Linie -->
        <line x1="-6.6718" y1="8.3397" x2="-8.5386" y2="14.5218" style="stroke:#000000;stroke-width:0.25;"/>
        <!-- Linie -->
        <line x1="-8.5386" y1="14.5218" x2="-8.6611" y2="4.5142" style="stroke:#000000;stroke-width:0.25;"/>
        <!-- Linie -->
        <line x1="-8.6611" y1="4.5142" x2="-9.365" y2="-20" style="stroke:#000000;stroke-width:0.25;"/>
        <!-- Linie -->
        <line x1="-9.365" y1="-20" x2="-14.5065" y2="-20" style="stroke:#000000;stroke-width:0.25;"/>
        <!-- Linie -->
        <line x1="-14.5065" y1="-20" x2="-12.5478" y2="20" style="stroke:#000000;stroke-width:0.25;"/>
        <!-- Linie -->
        <line x1="-12.5478" y1="20" x2="-6.0903" y2="20" style="stroke:#000000;stroke-width:0.25;"/>
        <!-- Linie -->
        <line x1="-6.0903" y1="20" x2="-0.7039" y2="4.9426" style="stroke:#000000;stroke-width:0.25;"/>
        <!-- Linie -->
        <line x1="-0.7039" y1="4.9426" x2="1.0406" y2="-0.1377" style="stroke:#000000;stroke-width:0.25;"/>
        <!-- Linie -->
        <line x1="1.0406" y1="-0.1377" x2="2.7238" y2="4.9426" style="stroke:#000000;stroke-width:0.25;"/>
        <!-- Linie -->
        <line x1="2.7238" y1="4.9426" x2="8.3856" y2="20" style="stroke:#000000;stroke-width:0.25;"/>
        <!-- Linie -->
        <line x1="8.3856" y1="20" x2="15.0268" y2="20" style="stroke:#000000;stroke-width:0.25;"/>
        <!-- Linie -->
        <line x1="15.0268" y1="20" x2="16.9549" y2="-20" style="stroke:#000000;stroke-width:0.25;"/>
        <!-- Linie -->
        <line x1="-17.4984" y1="-20" x2="-22.8236" y2="-20" style="stroke:#000000;stroke-width:0.25;"/>
        <!-- Linie -->
        <line x1="-22.8236" y1="-20" x2="-23.6193" y2="4.9426" style="stroke:#000000;stroke-width:0.25;"/>
        <!-- Linie -->
        <line x1="-23.6193" y1="4.9426" x2="-23.9559" y2="14.5218" style="stroke:#000000;stroke-width:0.25;"/>
        <!-- Linie -->
        <line x1="-23.9559" y1="14.5218" x2="-25.8228" y2="8.9518" style="stroke:#000000;stroke-width:0.25;"/>
        <!-- Linie -->
        <line x1="-25.8228" y1="8.9518" x2="-31.7295" y2="-6.9625" style="stroke:#000000;stroke-width:0.25;"/>
        <!-- Linie -->
        <line x1="-31.7295" y1="-6.9625" x2="-35.4938" y2="-6.9625" style="stroke:#000000;stroke-width:0.25;"/>
        <!-- Linie -->
        <line x1="-35.4938" y1="-6.9625" x2="-41.125" y2="8.3397" style="stroke:#000000;stroke-width:0.25;"/>
        <!-- Linie -->
        <line x1="-41.125" y1="8.3397" x2="-42.9919" y2="14.5218" style="stroke:#000000;stroke-width:0.25;"/>
        <!-- Linie -->
        <line x1="-42.9919" y1="14.5218" x2="-43.1143" y2="4.5142" style="stroke:#000000;stroke-width:0.25;"/>
        <!-- Linie -->
        <line x1="-43.1143" y1="4.5142" x2="-43.8182" y2="-20" style="stroke:#000000;stroke-width:0.25;"/>
        <!-- Linie -->
        <line x1="-43.8182" y1="-20" x2="-48.9598" y2="-20" style="stroke:#000000;stroke-width:0.25;"/>
        <!-- Linie -->
        <line x1="-48.9598" y1="-20" x2="-47.0011" y2="20" style="stroke:#000000;stroke-width:0.25;"/>
        <!-- Linie -->
        <line x1="-47.0011" y1="20" x2="-40.5435" y2="20" style="stroke:#000000;stroke-width:0.25;"/>
        <!-- Linie -->
        <line x1="-40.5435" y1="20" x2="-35.1572" y2="4.9426" style="stroke:#000000;stroke-width:0.25;"/>
        <!-- Linie -->
        <line x1="-35.1572" y1="4.9426" x2="-33.4127" y2="-0.1377" style="stroke:#000000;stroke-width:0.25;"/>
        <!-- Linie -->
        <line x1="-33.4127" y1="-0.1377" x2="-31.7295" y2="4.9426" style="stroke:#000000;stroke-width:0.25;"/>
        <!-- Linie -->
        <line x1="-31.7295" y1="4.9426" x2="-26.0676" y2="20" style="stroke:#000000;stroke-width:0.25;"/>
        <!-- Linie -->
        <line x1="-26.0676" y1="20" x2="-19.4265" y2="20" style="stroke:#000000;stroke-width:0.25;"/>
        <!-- Linie -->
        <line x1="-19.4265" y1="20" x2="-17.4984" y2="-20" style="stroke:#000000;stroke-width:0.25;"/>
        <!-- Schraffur -->
        <path d="M-22.8236,-20 L-23.6193,4.9426 L-23.9559,14.5218 L-25.8228,8.9518 L-31.7295,-6.9625 L-35.4938,-6.9625 L-41.125,8.3397 L-42.9919,14.5218 L-43.1143,4.5142 L-43.8182,-20 L-48.9598,-20 L-47.0011,20 L-40.5435,20 L-35.1572,4.9426 L-33.4127,-0.1377 L-31.7295,4.9426 L-26.0676,20 L-19.4265,20 L-17.4984,-20 ZM-8.5386,14.5218 L-8.6611,4.5142 L-9.365,-20 L-14.5065,-20 L-12.5478,20 L-6.0903,20 L-0.7039,4.9426 L1.0406,-0.1377 L2.7238,4.9426 L8.3856,20 L15.0268,20 L16.9549,-20 L11.6297,-20 L10.834,4.9426 L10.4973,14.5218 L8.6305,8.9518 L2.7238,-6.9625 L-1.0406,-6.9625 L-6.6718,8.3397 ZM48.7086,-6.84 A10.8956,10.8956 0 0 0 48.9598,-9.166 A12.1804,12.1804 0 0 0 48.6417,-11.9315 A8.89051,8.89051 0 0 0 47.7968,-14.1546 A10.1334,10.1334 0 0 0 44.5527,-17.72 A15.0072,15.0072 0 0 0 39.5489,-19.847 A27.5176,27.5176 0 0 0 33.1067,-20.5509 A40.8899,40.8899 0 0 0 29.9391,-20.4285 A63.3289,63.3289 0 0 0 26.9093,-20.1224 A44.4109,44.4109 0 0 0 24.1702,-19.694 A34.0225,34.0225 0 0 0 21.8442,-19.1737 L21.8442,-13.9097 A28.5089,28.5089 0 0 1 27.0011,-15.2563 A38.8313,38.8313 0 0 1 33.5045,-15.746 A20.905,20.905 0 0 1 37.9881,-15.3328 A8.62927,8.62927 0 0 1 41.0179,-14.1086 A4.85743,4.85743 0 0 1 42.7318,-12.1347 A6.29926,6.29926 0 0 1 43.2673,-9.4721 A4.34265,4.34265 0 0 1 42.3645,-6.7024 A8.90155,8.90155 0 0 1 39.9927,-4.6519 A21.8208,21.8208 0 0 1 36.6415,-2.9992 A610.955,610.955 0 0 0 32.8006,-1.4537 A56.5269,56.5269 0 0 0 28.9598,0.2754 A15.8811,15.8811 0 0 0 25.6086,2.479 A10.189,10.189 0 0 0 23.2367,5.4629 A7.11744,7.11744 0 0 0 22.5853,7.2389 A10.5955,10.5955 0 0 0 22.3339,9.5333 A10.1248,10.1248 0 0 0 23.1908,13.5731 A9.67769,9.67769 0 0 0 25.8534,17.1079 A10.9429,10.9429 0 0 0 27.7849,18.4314 A17.3415,17.3415 0 0 0 30.49,19.6021 A16.103,16.103 0 0 0 33.3651,20.2799 A27.8205,27.8205 0 0 0 37.2383,20.5509 A28.2908,28.2908 0 0 0 39.4265,20.4591 A39.6389,39.6389 0 0 0 41.8136,20.1989 A58.2538,58.2538 0 0 0 44.2008,19.8164 A38.7039,38.7039 0 0 0 46.389,19.3573 L46.389,14.4606 A37.0821,37.0821 0 0 1 41.6759,15.4858 A30.8711,30.8711 0 0 1 37.1158,15.8378 A24.8872,24.8872 0 0 1 35.1107,15.7569 A15.345,15.345 0 0 1 33.5486,15.5494 A11.3144,11.3144 0 0 1 31.5613,14.9893 A6.05196,6.05196 0 0 1 30.2298,14.277 A6.04386,6.04386 0 0 1 29.2466,13.4055 A4.63323,4.63323 0 0 1 28.5855,12.464 A4.54833,4.54833 0 0 1 28.1757,11.3728 A5.63419,5.63419 0 0 1 28.0263,10.0842 A4.40607,4.40607 0 0 1 28.9292,7.2992 A8.98475,8.98475 0 0 1 31.301,5.2181 A20.937,20.937 0 0 1 34.6522,3.5501 A610.955,610.955 0 0 0 38.493,2.0046 A52.0651,52.0651 0 0 0 42.3339,0.2601 A15.6495,15.6495 0 0 0 45.6851,-1.9893 A10.4453,10.4453 0 0 0 48.0569,-5.0344 A7.33524,7.33524 0 0 0 48.7086,-6.84" style="fill:#000000;fill-rule:evenodd;"/>
    </g>
</svg>
