<?xml version="1.0" encoding="UTF-8" standalone="no"?>
<!-- 2020-10-26 19:11:47 Generated by QCAD 3.24.2 SVG Exporter PG -->

<svg
   xmlns:dc="http://purl.org/dc/elements/1.1/"
   xmlns:cc="http://creativecommons.org/ns#"
   xmlns:rdf="http://www.w3.org/1999/02/22-rdf-syntax-ns#"
   xmlns:svg="http://www.w3.org/2000/svg"
   xmlns="http://www.w3.org/2000/svg"
   xmlns:sodipodi="http://sodipodi.sourceforge.net/DTD/sodipodi-0.dtd"
   xmlns:inkscape="http://www.inkscape.org/namespaces/inkscape"
   width="212mm"
   height="212mm"
   viewBox="-106 -106 212 212"
   version="1.1"
   style="stroke-linecap:round;stroke-linejoin:round;fill:none"
   id="svg46"
   sodipodi:docname="OCZ.svg"
   inkscape:version="0.92.5 (2060ec1f9f, 2020-04-08)">
  <metadata
     id="metadata52">
    <rdf:RDF>
      <cc:Work
         rdf:about="">
        <dc:format>image/svg+xml</dc:format>
        <dc:type
           rdf:resource="http://purl.org/dc/dcmitype/StillImage" />
      </cc:Work>
    </rdf:RDF>
  </metadata>
  <defs
     id="defs50" />
  <sodipodi:namedview
     pagecolor="#ffffff"
     bordercolor="#666666"
     borderopacity="1"
     objecttolerance="10"
     gridtolerance="10"
     guidetolerance="10"
     inkscape:pageopacity="0"
     inkscape:pageshadow="2"
     inkscape:window-width="1563"
     inkscape:window-height="977"
     id="namedview48"
     showgrid="false"
     inkscape:zoom="0.58907233"
     inkscape:cx="-33.35276"
     inkscape:cy="609.25214"
     inkscape:window-x="0"
     inkscape:window-y="0"
     inkscape:window-maximized="0"
     inkscape:current-layer="g44" />
  <g
     transform="scale(1,-1)"
     id="g44">
    <!-- Schraffur -->
    <path
       d="M100,-85.5 L100,85.5 A14.5,14.5 0 0 1 85.5,100 L-85.5,100 A14.5,14.5 0 0 1 -100,85.5 L-100,-85.5 A14.5,14.5 0 0 1 -85.5,-100 L85.5,-100 A14.5,14.5 0 0 1 100,-85.5M-85.5,95 A9.5,9.5 0 0 1 -95,85.5 L-95,-85.5 A9.5,9.5 0 0 1 -85.5,-95 L85.5,-95 A9.5,9.5 0 0 1 95,-85.5 L95,85.5 A9.5,9.5 0 0 1 85.5,95 Z"
       style="fill:#000000;fill-rule:evenodd;"
       id="path2" />
    <!-- Linie -->
    <!-- Linie -->
    <!-- Linie -->
    <!-- Linie -->
    <!-- Linie -->
    <!-- Linie -->
    <!-- Linie -->
    <!-- Linie -->
    <!-- Linie -->
    <!-- Linie -->
    <!-- Linie -->
    <!-- Linie -->
    <!-- Linie -->
    <!-- Linie -->
    <!-- Linie -->
    <!-- Linie -->
    <!-- Linie -->
    <!-- Linie -->
    <!-- Linie -->
    <!-- Linie -->
    <path
       d="m 1.8473843,20.802006 a 2.7714689,2.7714689 0 1 1 1.8476468,0 V 45.903753 L 7.390323,64.380212 V 82.856671 H -1.8479075 V 64.380212 L 1.8473843,45.903753 Z"
       style="fill:#000000;fill-rule:evenodd;stroke-width:0.92382294;stroke-linecap:round;stroke-linejoin:round"
       id="path1036"
       inkscape:connector-curvature="0" />
    <line
       x1="82.373451"
       y1="8.0632658"
       x2="73.135223"
       y2="-1.1749564"
       style="fill:none;stroke:#000000;stroke-width:0.46191147;stroke-linecap:round;stroke-linejoin:round"
       id="line1038" />
    <line
       x1="17.705847"
       y1="54.25441"
       x2="-37.723537"
       y2="-1.1749564"
       style="fill:none;stroke:#000000;stroke-width:0.46191147;stroke-linecap:round;stroke-linejoin:round"
       id="line1040" />
    <line
       x1="-37.723537"
       y1="-1.1749564"
       x2="73.135223"
       y2="-1.1749564"
       style="fill:none;stroke:#000000;stroke-width:0.46191147;stroke-linecap:round;stroke-linejoin:round"
       id="line1042" />
    <line
       x1="17.70566"
       y1="54.254242"
       x2="82.373451"
       y2="54.254326"
       style="fill:none;stroke:#000000;stroke-width:0.46191147;stroke-linecap:round;stroke-linejoin:round"
       id="line1048" />
    <line
       x1="-37.723537"
       y1="-10.413193"
       x2="73.135223"
       y2="-10.413193"
       style="fill:none;stroke:#000000;stroke-width:0.46191147;stroke-linecap:round;stroke-linejoin:round"
       id="line1052" />
    <line
       x1="73.135223"
       y1="-10.413193"
       x2="82.373451"
       y2="-1.1749564"
       style="fill:none;stroke:#000000;stroke-width:0.46191147;stroke-linecap:round;stroke-linejoin:round"
       id="line1056" />
    <path
       inkscape:connector-curvature="0"
       d="m -7.1523855,-47.959205 v 0.53323 a 9.2801719,9.2801719 0 0 0 -1.569113,-1.584357 5.7804899,5.7804899 0 0 0 -1.7976665,-0.952185 7.2856007,7.2856007 0 0 0 -2.224195,-0.312344 5.7529785,5.7529785 0 0 0 -2.704124,0.624596 4.5620597,4.5620597 0 0 0 -1.851064,1.721544 4.1853617,4.1853617 0 0 0 -0.353362,0.773704 7.1532725,7.1532725 0 0 0 -0.273822,1.077823 9.2709328,9.2709328 0 0 0 -0.108272,0.870519 14.243595,14.243595 0 0 0 -0.04148,1.0866 v 8.241795 a 4.0862725,4.0862725 0 0 0 0.174509,1.18157 1.7768996,1.7768996 0 0 0 0.389208,0.684644 1.9252009,1.9252009 0 0 0 1.492989,0.617022 1.9794755,1.9794755 0 0 0 1.523384,-0.624598 1.7636428,1.7636428 0 0 0 0.265046,-0.373316 2.4165546,2.4165546 0 0 0 0.196774,-0.498495 3.0295758,3.0295758 0 0 0 0.08453,-0.436045 4.6724564,4.6724564 0 0 0 0.03261,-0.550782 v -6.657439 a 10.274852,10.274852 0 0 1 0.243704,-2.429931 2.9185972,2.9185972 0 0 1 0.87597,-1.538626 1.9701449,1.9701449 0 0 1 0.693144,-0.394658 3.3076004,3.3076004 0 0 1 1.020732,-0.161392 3.4879492,3.4879492 0 0 1 1.9804915,0.624597 3.6461632,3.6461632 0 0 1 1.355894,1.630084 2.6437504,2.6437504 0 0 1 0.15437,0.56538 14.291172,14.291172 0 0 1 0.146427,1.354787 23.937917,23.937917 0 0 1 0.03529,0.82636 44.147654,44.147654 0 0 1 0.01433,1.122998 v 5.05784 a 4.6723364,4.6723364 0 0 0 0.03261,0.550875 3.0292527,3.0292527 0 0 0 0.08453,0.436138 2.4163515,2.4163515 0 0 0 0.196775,0.498401 1.7636335,1.7636335 0 0 0 0.264952,0.373224 1.9613593,1.9613593 0 0 0 1.5082345,0.624598 1.9252009,1.9252009 0 0 0 1.4929894,-0.617022 1.7768996,1.7768996 0 0 0 0.3891151,-0.684644 4.0862725,4.0862725 0 0 0 0.1746016,-1.18157 v -12.050441 a 3.8704212,3.8704212 0 0 0 -0.1667482,-1.123738 1.7206665,1.7206665 0 0 0 -0.3741492,-0.658686 1.7991545,1.7991545 0 0 0 -1.3939564,-0.594202 1.8144715,1.8144715 0 0 0 -1.4091088,0.617023 1.8721181,1.8721181 0 0 0 -0.391608,0.680209 3.4262378,3.4262378 0 0 0 -0.164532,1.04891 m 8.2693253,14.198511 h 0.4570143 v 2.498481 a 17.976764,17.976764 0 0 0 0.053305,1.576779 2.3286159,2.3286159 0 0 0 0.2971006,0.982672 1.8743814,1.8743814 0 0 0 0.7008121,0.693145 1.9882611,1.9882611 0 0 0 1.0207319,0.266615 2.0539356,2.0539356 0 0 0 1.4320189,-0.594203 1.7598736,1.7598736 0 0 0 0.540805,-0.967337 8.788051,8.788051 0 0 0 0.1142769,-1.622509 v -2.833643 h 1.5233842 a 2.8136045,2.8136045 0 0 0 0.8349521,-0.126655 1.3766441,1.3766441 0 0 0 0.5133674,-0.292297 1.3810323,1.3810323 0 0 0 0.4645915,-1.073944 1.8075151,1.8075151 0 0 0 -0.04305,-0.392349 1.1685437,1.1685437 0 0 0 -0.1103026,-0.297565 1.0592278,1.0592278 0 0 0 -0.2049973,-0.268831 1.2844096,1.2844096 0 0 0 -0.3043082,-0.214327 2.4809637,2.4809637 0 0 0 -0.68797,-0.229201 6.9462252,6.9462252 0 0 0 -1.2087291,-0.105961 H 5.733016 V -44.4096 a 12.410176,12.410176 0 0 1 0.068548,-1.500567 1.5279016,1.5279016 0 0 1 0.3656501,-0.853149 0.81581885,0.81581885 0 0 1 0.3426468,-0.224583 1.9480286,1.9480286 0 0 1 0.6246873,-0.102914 5.1728729,5.1728729 0 0 1 0.9902468,0.12952 5.1416385,5.1416385 0 0 0 0.9750027,0.129429 1.253092,1.253092 0 0 0 0.9064573,-0.403712 1.3555163,1.3555163 0 0 0 0.403709,-0.997822 1.6112212,1.6112212 0 0 0 -0.08139,-0.505699 1.4435843,1.4435843 0 0 0 -0.227259,-0.428192 1.6912428,1.6912428 0 0 0 -0.3099428,-0.309297 2.787488,2.787488 0 0 0 -0.4782631,-0.295531 4.1995053,4.1995053 0 0 0 -1.1358403,-0.363802 12.102451,12.102451 0 0 0 -2.0177227,-0.169428 10.373978,10.373978 0 0 0 -0.8505638,0.03501 6.6585742,6.6585742 0 0 0 -0.6759613,0.09063 5.0976922,5.0976922 0 0 0 -0.8357826,0.231049 2.989602,2.989602 0 0 0 -0.5931858,0.298395 3.0401444,3.0401444 0 0 0 -1.317741,1.812912 7.3186091,7.3186091 0 0 0 -0.2155298,1.170667 19.128864,19.128864 0 0 0 -0.096816,1.921921 v 7.982941 H 1.0255846 a 2.858567,2.858567 0 0 0 -0.84927048,0.129058 1.3984278,1.3984278 0 0 0 -0.5218657,0.297471 1.3940027,1.3940027 0 0 0 -0.4722601,1.081705 1.343562,1.343562 0 0 0 0.4950776,1.073944 1.4787265,1.4787265 0 0 0 0.5420069,0.291003 3.2126684,3.2126684 0 0 0 0.89767968,0.127949 M 33.38848,-78.564077 h -8.135278 a 5.5230205,5.5230205 0 0 1 0.571292,-2.498479 3.922423,3.922423 0 0 1 1.477747,-1.630084 3.9030599,3.9030599 0 0 1 2.033796,-0.548382 4.9825008,4.9825008 0 0 1 1.363563,0.175157 4.4411314,4.4411314 0 0 1 1.195888,0.548472 9.1224473,9.1224473 0 0 1 1.066369,0.799755 49.515804,49.515804 0 0 1 1.26453,1.157827 1.3646806,1.3646806 0 0 0 0.914029,0.274282 1.5056652,1.5056652 0 0 0 1.035975,-0.350404 1.252547,1.252547 0 0 0 0.396044,-0.990248 2.7053509,2.7053509 0 0 0 -0.441772,-1.317831 5.2300022,5.2300022 0 0 0 -1.332984,-1.447262 7.5921991,7.5921991 0 0 0 -2.239532,-1.150159 9.6454515,9.6454515 0 0 0 -3.100165,-0.457017 12.572769,12.572769 0 0 0 -1.853652,0.137373 8.7559204,8.7559204 0 0 0 -1.507863,0.363616 7.5658609,7.5658609 0 0 0 -1.576596,0.743864 6.8558566,6.8558566 0 0 0 -1.292797,1.040316 7.2150114,7.2150114 0 0 0 -1.009555,1.308504 7.8131498,7.8131498 0 0 0 -0.72012,1.561815 8.8927572,8.8927572 0 0 0 -0.35983,1.505646 12.418306,12.418306 0 0 0 -0.134785,1.824458 10.343492,10.343492 0 0 0 0.548473,3.420086 7.5404835,7.5404835 0 0 0 1.599601,2.70412 6.9363865,6.9363865 0 0 0 2.589844,1.729122 9.296616,9.296616 0 0 0 3.412603,0.601778 9.8813035,9.8813035 0 0 0 2.359536,-0.285833 6.7731192,6.7731192 0 0 0 1.822334,-0.742475 6.7645462,6.7645462 0 0 0 2.612664,-2.658393 6.9901159,6.9901159 0 0 0 0.868394,-3.321143 4.6328429,4.6328429 0 0 0 -0.04905,-0.672544 2.5095097,2.5095097 0 0 0 -0.120281,-0.481497 1.7938887,1.7938887 0 0 0 -0.308003,-0.540435 1.3571514,1.3571514 0 0 0 -0.421542,-0.33932 3.3541889,3.3541889 0 0 0 -0.934167,-0.319368 8.8249484,8.8249484 0 0 0 -1.594703,-0.145317 m -8.135278,2.361386 h 7.541073 a 8.879648,8.879648 0 0 1 -0.119174,0.947565 5.8324641,5.8324641 0 0 1 -0.187903,0.750791 4.6513195,4.6513195 0 0 1 -0.376828,0.860264 3.2591091,3.2591091 0 0 1 -0.466254,0.633003 3.3544567,3.3544567 0 0 1 -0.561315,0.477525 3.192603,3.192603 0 0 1 -0.637067,0.333314 3.4384599,3.4384599 0 0 1 -0.653237,0.18116 4.5431397,4.5431397 0 0 1 -0.77638,0.06679 3.3287006,3.3287006 0 0 1 -2.551691,-1.074034 3.5175947,3.5175947 0 0 1 -0.469394,-0.635592 4.9357645,4.9357645 0 0 1 -0.389023,-0.851212 6.0978231,6.0978231 0 0 1 -0.20749,-0.750697 9.0742329,9.0742329 0 0 1 -0.145317,-0.93888 m 19.194916,-3.793403 v -3.473483 a 4.7737352,4.7737352 0 0 0 -0.03335,-0.563345 3.0773469,3.0773469 0 0 0 -0.08647,-0.444731 2.4442694,2.4442694 0 0 0 -0.202223,-0.509395 1.773038,1.773038 0 0 0 -0.272158,-0.37923 1.9799744,1.9799744 0 0 0 -1.508234,-0.632172 1.9042301,1.9042301 0 0 0 -1.477747,0.63984 1.8734576,1.8734576 0 0 0 -0.401955,0.707927 4.0309447,4.0309447 0 0 0 -0.176912,1.181106 v 11.578181 a 6.0308551,6.0308551 0 0 0 0.118802,1.191086 2.4819245,2.4819245 0 0 0 0.266246,0.720119 1.8426204,1.8426204 0 0 0 0.30948,0.408146 1.5425996,1.5425996 0 0 0 0.378675,0.276131 1.6849053,1.6849053 0 0 0 0.415536,0.149844 2.5237367,2.5237367 0 0 0 0.53748,0.05783 2.8484142,2.8484142 0 0 0 0.471057,-0.03917 1.8034041,1.8034041 0 0 0 0.362509,-0.100604 1.4979143,1.4979143 0 0 0 0.373501,-0.213496 1.3988066,1.3988066 0 0 0 0.285924,-0.301812 2.1829013,2.1829013 0 0 0 0.322414,-0.699982 5.7217254,5.7217254 0 0 0 0.180238,-1.23478 7.2790876,7.2790876 0 0 0 1.531144,1.934762 2.4918463,2.4918463 0 0 0 0.853243,0.465515 4.1592543,4.1592543 0 0 0 1.241434,0.189569 5.3618225,5.3618225 0 0 0 2.544209,-0.655084 3.4777131,3.4777131 0 0 0 0.530551,-0.347082 2.0693912,2.0693912 0 0 0 0.344494,-0.346987 1.6917693,1.6917693 0 0 0 0.266615,-0.491103 1.6945316,1.6945316 0 0 0 0.09229,-0.551522 1.6519156,1.6519156 0 0 0 -0.525562,-1.256862 1.6306215,1.6306215 0 0 0 -1.135009,-0.495077 5.2288289,5.2288289 0 0 0 -1.104429,0.281767 5.1356336,5.1356336 0 0 1 -1.546297,0.281857 2.2617404,2.2617404 0 0 1 -1.492989,-0.479831 3.0790928,3.0790928 0 0 1 -0.89888,-1.424445 9.9424606,9.9424606 0 0 1 -0.441772,-2.247106 34.899355,34.899355 0 0 1 -0.121852,-3.176381 m -58.447417,2.452749 a 9.8312323,9.8312323 0 0 0 -0.57896,-3.427753 7.5691589,7.5691589 0 0 0 -1.675813,-2.696547 7.399,7.399 0 0 0 -2.620335,-1.729118 9.2642822,9.2642822 0 0 0 -3.427752,-0.601687 8.9998096,8.9998096 0 0 0 -3.397266,0.609355 7.5442896,7.5442896 0 0 0 -2.612663,1.744361 7.5419616,7.5419616 0 0 0 -1.675816,2.681213 9.8033329,9.8033329 0 0 0 -0.571292,3.420176 9.9231527,9.9231527 0 0 0 0.578866,3.45824 7.5252774,7.5252774 0 0 0 1.660575,2.681211 7.3201609,7.3201609 0 0 0 2.62033,1.713876 9.2528268,9.2528268 0 0 0 3.397266,0.60178 9.2365116,9.2365116 0 0 0 3.427752,-0.609354 7.4561477,7.4561477 0 0 0 2.635577,-1.736694 7.5066529,7.5066529 0 0 0 1.668239,-2.681307 9.8672614,9.8672614 0 0 0 0.571292,-3.427752 m -4.174295,0 a 10.390145,10.390145 0 0 1 -0.06365,1.148406 7.0320207,7.0320207 0 0 1 -0.16758,0.931306 5.7519715,5.7519715 0 0 1 -0.378492,1.058701 4.2612168,4.2612168 0 0 1 -0.510041,0.822572 3.6364166,3.6364166 0 0 1 -3.0088,1.416774 3.7268959,3.7268959 0 0 1 -2.148072,-0.632265 4.0059461,4.0059461 0 0 1 -1.432018,-1.866213 7.5958114,7.5958114 0 0 1 -0.502745,-2.879281 7.5359937,7.5359937 0 0 1 0.495169,-2.848884 4.0851269,4.0851269 0 0 1 1.416775,-1.866216 3.6800304,3.6800304 0 0 1 2.170891,-0.647414 3.6290447,3.6290447 0 0 1 3.0088,1.424351 4.3378477,4.3378477 0 0 1 0.509673,0.823126 5.7360168,5.7360168 0 0 1 0.376827,1.047338 6.9504838,6.9504838 0 0 1 0.169244,0.928441 10.163162,10.163162 0 0 1 0.06402,1.139258 m 11.5751315,-2.452749 v -3.473483 a 4.7737352,4.7737352 0 0 0 -0.03335,-0.563345 3.0773469,3.0773469 0 0 0 -0.08638,-0.444731 2.4442694,2.4442694 0 0 0 -0.202319,-0.509395 1.773038,1.773038 0 0 0 -0.272065,-0.37923 1.9799744,1.9799744 0 0 0 -1.508235,-0.632172 1.9042301,1.9042301 0 0 0 -1.4777455,0.63984 1.8734576,1.8734576 0 0 0 -0.401954,0.707927 4.0309447,4.0309447 0 0 0 -0.176913,1.181106 v 11.578181 a 6.0308551,6.0308551 0 0 0 0.118802,1.191086 2.4819245,2.4819245 0 0 0 0.266246,0.720119 1.8426204,1.8426204 0 0 0 0.309483,0.408146 1.5425996,1.5425996 0 0 0 0.3786725,0.276131 1.6849053,1.6849053 0 0 0 0.415537,0.149844 2.5237367,2.5237367 0 0 0 0.537478,0.05783 2.8484142,2.8484142 0 0 0 0.47106,-0.03917 1.8034041,1.8034041 0 0 0 0.362414,-0.100604 1.4979143,1.4979143 0 0 0 0.373595,-0.213496 1.3988066,1.3988066 0 0 0 0.285829,-0.301813 2.1829013,2.1829013 0 0 0 0.322507,-0.699981 5.7217254,5.7217254 0 0 0 0.180239,-1.23478 7.2790876,7.2790876 0 0 0 1.5310506,1.934761 2.4918463,2.4918463 0 0 0 0.8533362,0.465516 4.1592543,4.1592543 0 0 0 1.2414332,0.189569 5.3618225,5.3618225 0 0 0 2.54420862,-0.655085 3.4777131,3.4777131 0 0 0 0.5305506,-0.347081 2.0693912,2.0693912 0 0 0 0.3444954,-0.346987 1.6917693,1.6917693 0 0 0 0.2666144,-0.491103 1.6945316,1.6945316 0 0 0 0.09229,-0.551522 1.6519156,1.6519156 0 0 0 -0.5255647,-1.256862 1.6306215,1.6306215 0 0 0 -1.1350098,-0.495077 5.2288289,5.2288289 0 0 0 -1.10452182,0.281767 5.1356336,5.1356336 0 0 1 -1.5462941,0.281857 2.2617404,2.2617404 0 0 1 -1.4928988,-0.479832 3.0790928,3.0790928 0 0 1 -0.8988798,-1.424444 9.9424606,9.9424606 0 0 1 -0.441772,-2.247106 34.899355,34.899355 0 0 1 -0.121946,-3.176381 m 13.3144158,8.607442 V -71.8914 a 7.2791894,7.2791894 0 0 0 2.3993531,2.125257 6.3908411,6.3908411 0 0 0 2.9936486,0.677902 5.9737535,5.9737535 0 0 0 2.940251,-0.715964 4.5493294,4.5493294 0 0 0 1.934764,-2.026222 4.818513,4.818513 0 0 0 0.533229,-1.645329 17.047675,17.047675 0 0 0 0.121853,-2.254681 v -7.739143 a 4.0850621,4.0850621 0 0 0 -0.174881,-1.182493 1.8764508,1.8764508 0 0 0 -0.396412,-0.70654 1.898096,1.898096 0 0 0 -1.485414,-0.63984 1.9178196,1.9178196 0 0 0 -1.508141,0.655085 1.9643618,1.9643618 0 0 0 -0.404912,0.72095 3.9057204,3.9057204 0 0 0 -0.174048,1.152838 v 6.931721 a 11.260756,11.260756 0 0 1 -0.181163,2.011995 3.9675517,3.9675517 0 0 1 -0.39013,1.133901 1.8096399,1.8096399 0 0 1 -0.396689,0.508747 2.0037166,2.0037166 0 0 1 -0.57545,0.360106 2.5874527,2.5874527 0 0 1 -0.55032,0.157144 4.5352134,4.5352134 0 0 1 -0.755041,0.06328 3.3727483,3.3727483 0 0 1 -2.0262213,-0.66275 3.808562,3.808562 0 0 1 -1.3406519,-1.820486 3.504347,3.504347 0 0 1 -0.1358953,-0.573788 13.490125,13.490125 0 0 1 -0.1217589,-1.150621 21.040808,21.040808 0 0 1 -0.033627,-0.750421 37.190251,37.190251 0 0 1 -0.013395,-0.998653 v -5.210177 a 4.8367769,4.8367769 0 0 0 -0.032796,-0.562607 3.1145952,3.1145952 0 0 0 -0.085084,-0.444175 2.4674296,2.4674296 0 0 0 -0.2000991,-0.510782 1.7702666,1.7702666 0 0 0 -0.2685554,-0.379137 1.9737109,1.9737109 0 0 0 -1.5158086,-0.632172 1.8841924,1.8841924 0 0 0 -1.4777472,0.655085 1.9643618,1.9643618 0 0 0 -0.4049125,0.72095 3.9057204,3.9057204 0 0 0 -0.1740474,1.152838 v 12.020046 a 4.0238773,4.0238773 0 0 0 0.1612081,1.127341 1.6959635,1.6959635 0 0 0 0.3567795,0.647415 1.7930942,1.7930942 0 0 0 1.4168663,0.586537 1.9214594,1.9214594 0 0 0 0.9902477,-0.25895 1.8543991,1.8543991 0 0 0 0.7083865,-0.776934 2.7381189,2.7381189 0 0 0 0.2666153,-1.26453 m 16.8230912,28.51777 h -8.135185 a 5.5230205,5.5230205 0 0 1 0.571292,-2.498479 3.922423,3.922423 0 0 1 1.477746,-1.630086 3.9030599,3.9030599 0 0 1 2.033797,-0.548382 4.9825008,4.9825008 0 0 1 1.363472,0.175157 4.4411314,4.4411314 0 0 1 1.195889,0.548475 9.1224473,9.1224473 0 0 1 1.066462,0.799752 49.515804,49.515804 0 0 1 1.264434,1.157827 1.3646806,1.3646806 0 0 0 0.914032,0.274285 1.5056652,1.5056652 0 0 0 1.035974,-0.350407 1.252547,1.252547 0 0 0 0.396135,-0.990245 2.7053509,2.7053509 0 0 0 -0.441863,-1.317835 5.2300022,5.2300022 0 0 0 -1.332986,-1.447261 7.5921991,7.5921991 0 0 0 -2.239439,-1.150159 9.6454515,9.6454515 0 0 0 -3.100258,-0.457108 12.572769,12.572769 0 0 0 -1.85365,0.137464 8.7559204,8.7559204 0 0 0 -1.507863,0.363619 7.5658609,7.5658609 0 0 0 -1.576598,0.743861 6.8558566,6.8558566 0 0 0 -1.292799,1.040225 7.2150114,7.2150114 0 0 0 -1.009461,1.308595 7.8131498,7.8131498 0 0 0 -0.720212,1.561815 8.8927572,8.8927572 0 0 0 -0.359828,1.505646 12.418306,12.418306 0 0 0 -0.134695,1.824459 10.343492,10.343492 0 0 0 0.548382,3.420084 7.5404835,7.5404835 0 0 0 1.599692,2.704124 6.9363865,6.9363865 0 0 0 2.589846,1.729119 9.296616,9.296616 0 0 0 3.412511,0.601777 9.8813035,9.8813035 0 0 0 2.359536,-0.28583 6.7731192,6.7731192 0 0 0 1.822332,-0.742477 6.7645462,6.7645462 0 0 0 2.612666,-2.658393 6.9901159,6.9901159 0 0 0 0.868392,-3.321143 4.6328429,4.6328429 0 0 0 -0.04905,-0.672544 2.5095097,2.5095097 0 0 0 -0.120281,-0.481494 1.7938887,1.7938887 0 0 0 -0.308004,-0.540532 1.3571514,1.3571514 0 0 0 -0.421448,-0.339227 3.3541889,3.3541889 0 0 0 -0.93417,-0.319364 8.8249484,8.8249484 0 0 0 -1.594796,-0.145318 m -8.135185,2.361384 h 7.541075 a 8.879648,8.879648 0 0 1 -0.119173,0.947564 5.8324641,5.8324641 0 0 1 -0.187997,0.750791 4.6513195,4.6513195 0 0 1 -0.376827,0.860265 3.2591091,3.2591091 0 0 1 -0.466255,0.633003 3.3544567,3.3544567 0 0 1 -0.561314,0.477525 3.192603,3.192603 0 0 1 -0.637068,0.333314 3.4384599,3.4384599 0 0 1 -0.653237,0.18107 4.5431397,4.5431397 0 0 1 -0.776289,0.06688 3.3287006,3.3287006 0 0 1 -2.551784,-1.074036 3.5175947,3.5175947 0 0 1 -0.469394,-0.635592 4.9357645,4.9357645 0 0 1 -0.38893,-0.851209 6.0978231,6.0978231 0 0 1 -0.207583,-0.750699 9.0742329,9.0742329 0 0 1 -0.145224,-0.938881 m 19.194826,-3.793403 v -3.47348 a 4.7737352,4.7737352 0 0 0 -0.03335,-0.563349 3.0773469,3.0773469 0 0 0 -0.08647,-0.444727 2.4442694,2.4442694 0 0 0 -0.202225,-0.509398 1.773038,1.773038 0 0 0 -0.272066,-0.379228 1.9799744,1.9799744 0 0 0 -1.508232,-0.632265 1.9042301,1.9042301 0 0 0 -1.477749,0.639932 1.8734576,1.8734576 0 0 0 -0.402048,0.707926 4.0309447,4.0309447 0 0 0 -0.176912,1.181109 v 11.57818 a 6.0308551,6.0308551 0 0 0 0.118804,1.190994 2.4819245,2.4819245 0 0 0 0.266246,0.720212 1.8426204,1.8426204 0 0 0 0.309481,0.408143 1.5425996,1.5425996 0 0 0 0.378768,0.276131 1.6849053,1.6849053 0 0 0 0.415442,0.149844 2.5237367,2.5237367 0 0 0 0.537481,0.05783 2.8484142,2.8484142 0 0 0 0.471057,-0.03917 1.8034041,1.8034041 0 0 0 0.362509,-0.100603 1.4979143,1.4979143 0 0 0 0.373501,-0.213497 1.3988066,1.3988066 0 0 0 0.285924,-0.301812 2.1829013,2.1829013 0 0 0 0.322506,-0.699981 5.7217254,5.7217254 0 0 0 0.180236,-1.234783 7.2790876,7.2790876 0 0 0 1.531055,1.934764 2.4918463,2.4918463 0 0 0 0.853335,0.465514 4.1592543,4.1592543 0 0 0 1.241433,0.189568 5.3618225,5.3618225 0 0 0 2.544116,-0.655082 3.4777131,3.4777131 0 0 0 0.530551,-0.347081 2.0693912,2.0693912 0 0 0 0.344585,-0.346988 1.6917693,1.6917693 0 0 0 0.266615,-0.491104 1.6945316,1.6945316 0 0 0 0.09229,-0.551523 1.6519156,1.6519156 0 0 0 -0.525655,-1.25686 1.6306215,1.6306215 0 0 0 -1.134916,-0.495076 5.2288289,5.2288289 0 0 0 -1.104522,0.281764 5.1356336,5.1356336 0 0 1 -1.546297,0.28186 2.2617404,2.2617404 0 0 1 -1.492989,-0.479928 3.0790928,3.0790928 0 0 1 -0.898789,-1.424348 9.9424606,9.9424606 0 0 1 -0.441863,-2.247109 34.899355,34.899355 0 0 1 -0.121852,-3.176381 m -67.943402,-34.261164 a 5.9537528,5.9537528 0 0 0 -0.525562,-2.307986 8.3255482,8.3255482 0 0 0 -1.652996,-2.437506 8.4337186,8.4337186 0 0 0 -2.879281,-1.942432 10.350328,10.350328 0 0 0 -4.082836,-0.746449 14.26743,14.26743 0 0 0 -3.21444,0.335165 9.0297694,9.0297694 0 0 0 -2.628001,1.043549 8.8659385,8.8659385 0 0 0 -2.170891,1.866214 11.090218,11.090218 0 0 0 -1.508234,2.353716 12.272896,12.272896 0 0 0 -0.93694,2.780245 15.154485,15.154485 0 0 0 -0.312252,3.138321 13.921736,13.921736 0 0 0 0.78451,4.829378 10.300904,10.300904 0 0 0 2.247106,3.648638 9.8012081,9.8012081 0 0 0 3.427752,2.307986 11.099179,11.099179 0 0 0 4.189538,0.792272 10.467377,10.467377 0 0 0 4.829285,-1.081705 10.759674,10.759674 0 0 0 1.947696,-1.278017 7.1990939,7.1990939 0 0 0 1.297232,-1.395619 8.4237045,8.4237045 0 0 0 0.474846,-0.751714 5.8785813,5.8785813 0 0 0 0.321305,-0.669679 4.8949315,4.8949315 0 0 0 0.253496,-0.834584 3.6857951,3.6857951 0 0 0 0.07779,-0.752823 1.9612485,1.9612485 0 0 0 -0.548474,-1.371137 1.7387457,1.7387457 0 0 0 -1.325407,-0.594112 2.7168062,2.7168062 0 0 0 -0.818138,0.126102 1.2530181,1.2530181 0 0 0 -0.484454,0.285184 5.6966623,5.6966623 0 0 0 -0.967335,1.416868 8.8762113,8.8762113 0 0 1 -1.030801,1.529204 5.2457903,5.2457903 0 0 1 -1.048724,0.954032 4.2537153,4.2537153 0 0 1 -1.267392,0.59254 6.2517688,6.2517688 0 0 1 -1.680434,0.230124 6.5919945,6.5919945 0 0 1 -1.347951,-0.139311 5.1191805,5.1191805 0 0 1 -1.132423,-0.378862 4.9884224,4.9884224 0 0 1 -1.029969,-0.648614 5.9604044,5.9604044 0 0 1 -0.930567,-0.950891 6.2666608,6.2666608 0 0 1 -0.753656,-1.237738 8.8444966,8.8444966 0 0 1 -0.563624,-1.62676 10.988321,10.988321 0 0 1 -0.242966,-1.406521 16.498001,16.498001 0 0 1 -0.09266,-1.74658 15.397358,15.397358 0 0 1 0.21451,-2.561575 7.9439262,7.9439262 0 0 1 0.516694,-1.772633 6.6015744,6.6015744 0 0 1 0.931215,-1.559967 4.6924851,4.6924851 0 0 1 1.140737,-1.022304 5.7190834,5.7190834 0 0 1 3.138226,-0.853057 6.6226099,6.6226099 0 0 1 1.863906,0.267632 4.756977,4.756977 0 0 1 1.434419,0.699702 4.9140824,4.9140824 0 0 1 1.131038,1.132331 7.1657163,7.1657163 0 0 1 0.902758,1.708888 4.8209426,4.8209426 0 0 0 0.716055,1.439686 1.2488332,1.2488332 0 0 0 0.264952,0.256175 1.4423371,1.4423371 0 0 0 0.350963,0.18375 1.7705252,1.7705252 0 0 0 0.329157,0.08361 2.8024263,2.8024263 0 0 0 0.425975,0.03252 1.9171452,1.9171452 0 0 0 1.386382,-0.563624 1.8769958,1.8769958 0 0 0 0.578866,-1.401624 m 0.800123,51.354211 a 15.967726,15.967726 0 0 0 1.639972,-0.08444 12.549674,12.549674 0 0 0 1.437005,-0.233265 11.274244,11.274244 0 0 0 1.537795,-0.459139 9.7229603,9.7229603 0 0 0 1.349522,-0.632265 9.1340874,9.1340874 0 0 0 3.770584,-4.006712 11.324315,11.324315 0 0 0 0.924747,-2.680197 16.666968,16.666968 0 0 0 0.354931,-3.421192 14.923529,14.923529 0 0 0 -0.700812,-4.707525 10.184317,10.184317 0 0 0 -2.102344,-3.671458 9.1849715,9.1849715 0 0 0 -3.442994,-2.376627 12.435674,12.435674 0 0 0 -4.676947,-0.822664 12.325831,12.325831 0 0 0 -4.692281,0.845575 9.3075171,9.3075171 0 0 0 -3.458241,2.384203 10.184225,10.184225 0 0 0 -2.094675,3.701943 14.944777,14.944777 0 0 0 -0.708481,4.677037 14.439076,14.439076 0 0 0 0.738875,4.722677 10.131475,10.131475 0 0 0 2.140497,3.656214 9.2571678,9.2571678 0 0 0 3.41251,2.308081 12.286477,12.286477 0 0 0 4.570337,0.799751 m 6.428977,-11.486723 a 13.131128,13.131128 0 0 1 -0.222271,2.405914 8.3827145,8.3827145 0 0 1 -0.569906,1.844504 5.9143978,5.9143978 0 0 1 -2.262352,2.719366 6.2184558,6.2184558 0 0 1 -3.374448,0.921607 6.1090844,6.1090844 0 0 1 -2.506055,-0.51032 5.5066411,5.5066411 0 0 1 -1.980492,-1.485324 7.0970577,7.0970577 0 0 1 -1.310164,-2.490904 11.256414,11.256414 0 0 1 -0.479928,-3.404843 11.537441,11.537441 0 0 1 0.479928,-3.442994 7.0589222,7.0589222 0 0 1 1.355894,-2.551784 5.6959417,5.6959417 0 0 1 2.010887,-1.515902 6.0816192,6.0816192 0 0 1 2.490903,-0.502743 6.1125025,6.1125025 0 0 1 3.191623,0.868393 5.1293333,5.1293333 0 0 1 1.253167,1.051865 7.2510682,7.2510682 0 0 1 1.062487,1.629439 7.8009184,7.8009184 0 0 1 0.612774,1.868709 13.704822,13.704822 0 0 1 0.247953,2.595017"
       style="fill:#000000;fill-rule:evenodd;stroke-width:0.92382294;stroke-linecap:round;stroke-linejoin:round"
       id="path1088" />
    <path
       inkscape:connector-curvature="0"
       d="m -49.132121,-26.580631 h -15.355745 v -15.355745 h -4.677161 v 15.355745 h -15.355747 v 4.508108 h 15.355747 v 15.355742 h 4.677161 v -15.355742 h 15.355745 z"
       style="font-style:normal;font-weight:normal;font-size:62.46194839px;line-height:1.25;font-family:sans-serif;letter-spacing:0px;word-spacing:0px;fill:#000000;fill-opacity:1;stroke:none;stroke-width:1.44259465;stroke-linecap:round;stroke-linejoin:round"
       id="path5357" />
    <path
       inkscape:connector-curvature="0"
       d="m -47.863385,12.324016 h -37.843624 v 5.99245 l 29.734275,36.768886 h -28.626972 v 5.731915 h 36.019834 V 54.987658 L -78.607258,18.055924 h 30.743873 z"
       style="font-style:normal;font-weight:normal;font-size:72.19843292px;line-height:1.25;font-family:sans-serif;letter-spacing:0px;word-spacing:0px;fill:#000000;fill-opacity:1;stroke:none;stroke-width:1.66746414;stroke-linecap:round;stroke-linejoin:round"
       id="path5354" />
  </g>
</svg>
