<?xml version="1.0" encoding="UTF-8"?>
<!-- 2020-10-26 15:30:45 Generated by QCAD 3.24.2 SVG Exporter PG -->
<svg width="210.25mm" height="210.25mm" viewBox="-105.125 -105.125 210.25 210.25" version="1.1" xmlns="http://www.w3.org/2000/svg" style="stroke-linecap:round;stroke-linejoin:round;fill:none">
    <g transform="scale(1,-1)">
        <!-- Schraffur -->
        <path d="M100,-85.5 L100,85.5 A14.5,14.5 0 0 1 85.5,100 L-85.5,100 A14.5,14.5 0 0 1 -100,85.5 L-100,-85.5 A14.5,14.5 0 0 1 -85.5,-100 L85.5,-100 A14.5,14.5 0 0 1 100,-85.5M-85.5,95 A9.5,9.5 0 0 1 -95,85.5 L-95,-85.5 A9.5,9.5 0 0 1 -85.5,-95 L85.5,-95 A9.5,9.5 0 0 1 95,-85.5 L95,85.5 A9.5,9.5 0 0 1 85.5,95 Z" style="fill:#000000;fill-rule:evenodd;"/>
        <!-- Kreisbogen -->
        <path d="M-1.7408,-4.0857 A25.5479,25.5479 0 0,0 -2.0627,-8.1283" style="stroke:#000000;stroke-width:0.25;"/>
        <!-- Kreisbogen -->
        <path d="M-2.0627,-8.1283 A16.1692,16.1692 0 0,0 -2.8884,-11.2471" style="stroke:#000000;stroke-width:0.25;"/>
        <!-- Kreisbogen -->
        <path d="M-2.8884,-11.2471 A14.0299,14.0299 0 0,0 -6.056,-16.3275" style="stroke:#000000;stroke-width:0.25;"/>
        <!-- Kreisbogen -->
        <path d="M-6.056,-16.3275 A12.9827,12.9827 0 0,0 -10.8303,-19.3573" style="stroke:#000000;stroke-width:0.25;"/>
        <!-- Kreisbogen -->
        <path d="M-10.8303,-19.3573 A17.206,17.206 0 0,0 -16.7982,-20.3673" style="stroke:#000000;stroke-width:0.25;"/>
        <!-- Kreisbogen -->
        <path d="M-16.7982,-20.3673 A27.9,27.9 0 0,0 -19.7209,-20.2142" style="stroke:#000000;stroke-width:0.25;"/>
        <!-- Kreisbogen -->
        <path d="M-19.7209,-20.2142 A22.1691,22.1691 0 0,0 -22.6742,-19.694" style="stroke:#000000;stroke-width:0.25;"/>
        <!-- Linie -->
        <line x1="-22.6742" y1="-19.694" x2="-22.6742" y2="-32.5478" style="stroke:#000000;stroke-width:0.25;"/>
        <!-- Linie -->
        <line x1="-22.6742" y1="-32.5478" x2="-27.9994" y2="-32.5478" style="stroke:#000000;stroke-width:0.25;"/>
        <!-- Linie -->
        <line x1="-27.9994" y1="-32.5478" x2="-27.9994" y2="10.7269" style="stroke:#000000;stroke-width:0.25;"/>
        <!-- Linie -->
        <line x1="-27.9994" y1="10.7269" x2="-23.2557" y2="10.7269" style="stroke:#000000;stroke-width:0.25;"/>
        <!-- Linie -->
        <line x1="-23.2557" y1="10.7269" x2="-22.9191" y2="5.5853" style="stroke:#000000;stroke-width:0.25;"/>
        <!-- Kreisbogen -->
        <path d="M-22.9191,5.5853 A20.6491,20.6491 0 0,0 -21.8004,6.989" style="stroke:#000000;stroke-width:0.25;"/>
        <!-- Kreisbogen -->
        <path d="M-21.8004,6.989 A15.1315,15.1315 0 0,0 -20.734,8.0952" style="stroke:#000000;stroke-width:0.25;"/>
        <!-- Kreisbogen -->
        <path d="M-20.734,8.0952 A12.8722,12.8722 0 0,0 -19.3516,9.2212" style="stroke:#000000;stroke-width:0.25;"/>
        <!-- Kreisbogen -->
        <path d="M-19.3516,9.2212 A9.6592,9.6592 0 0,0 -18.0223,10.0077" style="stroke:#000000;stroke-width:0.25;"/>
        <!-- Kreisbogen -->
        <path d="M-18.0223,10.0077 A12.6623,12.6623 0 0,0 -12.3911,11.2777" style="stroke:#000000;stroke-width:0.25;"/>
        <!-- Kreisbogen -->
        <path d="M-12.3911,11.2777 A11.0145,11.0145 0 0,0 -9.8367,10.9774" style="stroke:#000000;stroke-width:0.25;"/>
        <!-- Kreisbogen -->
        <path d="M-9.8367,10.9774 A8.1828,8.1828 0 0,0 -7.7699,10.176" style="stroke:#000000;stroke-width:0.25;"/>
        <!-- Kreisbogen -->
        <path d="M-7.7699,10.176 A9.5905,9.5905 0 0,0 -4.434,7.0696" style="stroke:#000000;stroke-width:0.25;"/>
        <!-- Kreisbogen -->
        <path d="M-4.434,7.0696 A14.6954,14.6954 0 0,0 -2.4141,2.2341" style="stroke:#000000;stroke-width:0.25;"/>
        <!-- Kreisbogen -->
        <path d="M-2.4141,2.2341 A27.3571,27.3571 0 0,0 -1.7408,-4.0857" style="stroke:#000000;stroke-width:0.25;"/>
        <!-- Kreisbogen -->
        <path d="M-40.2338,-0.1377 A35.837,35.837 0 0,1 -40.7694,6.3045" style="stroke:#000000;stroke-width:0.25;"/>
        <!-- Kreisbogen -->
        <path d="M-40.7694,6.3045 A16.0631,16.0631 0 0,1 -42.4985,11.3389" style="stroke:#000000;stroke-width:0.25;"/>
        <!-- Kreisbogen -->
        <path d="M-42.4985,11.3389 A8.9034,8.9034 0 0,1 -45.5743,14.6136" style="stroke:#000000;stroke-width:0.25;"/>
        <!-- Kreisbogen -->
        <path d="M-45.5743,14.6136 A7.1079,7.1079 0 0,1 -47.5484,15.4529" style="stroke:#000000;stroke-width:0.25;"/>
        <!-- Kreisbogen -->
        <path d="M-47.5484,15.4529 A10.3695,10.3695 0 0,1 -50.1191,15.7766" style="stroke:#000000;stroke-width:0.25;"/>
        <!-- Kreisbogen -->
        <path d="M-50.1191,15.7766 A9.1438,9.1438 0 0,1 -52.5867,15.4373" style="stroke:#000000;stroke-width:0.25;"/>
        <!-- Kreisbogen -->
        <path d="M-52.5867,15.4373 A6.8247,6.8247 0 0,1 -54.5414,14.5371" style="stroke:#000000;stroke-width:0.25;"/>
        <!-- Kreisbogen -->
        <path d="M-54.5414,14.5371 A9.6405,9.6405 0 0,1 -57.5865,11.1706" style="stroke:#000000;stroke-width:0.25;"/>
        <!-- Kreisbogen -->
        <path d="M-57.5865,11.1706 A17.1022,17.1022 0 0,1 -59.3616,6.1821" style="stroke:#000000;stroke-width:0.25;"/>
        <!-- Kreisbogen -->
        <path d="M-59.3616,6.1821 A30.468,30.468 0 0,1 -59.9431,0.1071" style="stroke:#000000;stroke-width:0.25;"/>
        <!-- Kreisbogen -->
        <path d="M-59.9431,0.1071 A35.0511,35.0511 0 0,1 -59.3922,-6.3657" style="stroke:#000000;stroke-width:0.25;"/>
        <!-- Kreisbogen -->
        <path d="M-59.3922,-6.3657 A16.4006,16.4006 0 0,1 -57.663,-11.3849" style="stroke:#000000;stroke-width:0.25;"/>
        <!-- Kreisbogen -->
        <path d="M-57.663,-11.3849 A8.8611,8.8611 0 0,1 -54.6179,-14.6442" style="stroke:#000000;stroke-width:0.25;"/>
        <!-- Kreisbogen -->
        <path d="M-54.6179,-14.6442 A7.0357,7.0357 0 0,1 -52.6587,-15.4842" style="stroke:#000000;stroke-width:0.25;"/>
        <!-- Kreisbogen -->
        <path d="M-52.6587,-15.4842 A10.1473,10.1473 0 0,1 -50.1191,-15.8072" style="stroke:#000000;stroke-width:0.25;"/>
        <!-- Kreisbogen -->
        <path d="M-50.1191,-15.8072 A9.1768,9.1768 0 0,1 -47.6504,-15.4689" style="stroke:#000000;stroke-width:0.25;"/>
        <!-- Kreisbogen -->
        <path d="M-47.6504,-15.4689 A6.9302,6.9302 0 0,1 -45.6814,-14.5677" style="stroke:#000000;stroke-width:0.25;"/>
        <!-- Kreisbogen -->
        <path d="M-45.6814,-14.5677 A9.7179,9.7179 0 0,1 -42.6057,-11.2012" style="stroke:#000000;stroke-width:0.25;"/>
        <!-- Kreisbogen -->
        <path d="M-42.6057,-11.2012 A16.8237,16.8237 0 0,1 -40.8153,-6.228" style="stroke:#000000;stroke-width:0.25;"/>
        <!-- Kreisbogen -->
        <path d="M-40.8153,-6.228 A30.4021,30.4021 0 0,1 -40.2338,-0.1377" style="stroke:#000000;stroke-width:0.25;"/>
        <!-- Kreisbogen -->
        <path d="M32.4064,-3.0145 A48.8467,48.8467 0 0,0 32.3758,-4.912" style="stroke:#000000;stroke-width:0.25;"/>
        <!-- Kreisbogen -->
        <path d="M32.3758,-4.912 A28.5205,28.5205 0 0,0 32.284,-6.3504" style="stroke:#000000;stroke-width:0.25;"/>
        <!-- Linie -->
        <line x1="32.284" y1="-6.3504" x2="10.7079" y2="-6.3504" style="stroke:#000000;stroke-width:0.25;"/>
        <!-- Kreisbogen -->
        <path d="M10.7079,-6.3504 A15.043,15.043 0 0,1 10.8643,-8.5138" style="stroke:#000000;stroke-width:0.25;"/>
        <!-- Kreisbogen -->
        <path d="M10.8643,-8.5138 A10.2422,10.2422 0 0,1 11.2754,-10.2557" style="stroke:#000000;stroke-width:0.25;"/>
        <!-- Kreisbogen -->
        <path d="M11.2754,-10.2557 A8.6901,8.6901 0 0,1 12.1388,-12.1043" style="stroke:#000000;stroke-width:0.25;"/>
        <!-- Kreisbogen -->
        <path d="M12.1388,-12.1043 A7.6094,7.6094 0 0,1 13.3399,-13.5884" style="stroke:#000000;stroke-width:0.25;"/>
        <!-- Kreisbogen -->
        <path d="M13.3399,-13.5884 A7.7245,7.7245 0 0,1 14.8917,-14.7417" style="stroke:#000000;stroke-width:0.25;"/>
        <!-- Kreisbogen -->
        <path d="M14.8917,-14.7417 A9.6057,9.6057 0 0,1 16.8766,-15.5837" style="stroke:#000000;stroke-width:0.25;"/>
        <!-- Kreisbogen -->
        <path d="M16.8766,-15.5837 A11.624,11.624 0 0,1 18.6806,-15.9669" style="stroke:#000000;stroke-width:0.25;"/>
        <!-- Kreisbogen -->
        <path d="M18.6806,-15.9669 A17.363,17.363 0 0,1 20.9298,-16.1132" style="stroke:#000000;stroke-width:0.25;"/>
        <!-- Kreisbogen -->
        <path d="M20.9298,-16.1132 A33.951,33.951 0 0,1 23.623,-16.0061" style="stroke:#000000;stroke-width:0.25;"/>
        <!-- Kreisbogen -->
        <path d="M23.623,-16.0061 A39.7274,39.7274 0 0,1 26.2243,-15.7154" style="stroke:#000000;stroke-width:0.25;"/>
        <!-- Kreisbogen -->
        <path d="M26.2243,-15.7154 A46.856,46.856 0 0,1 28.6268,-15.3022" style="stroke:#000000;stroke-width:0.25;"/>
        <!-- Kreisbogen -->
        <path d="M28.6268,-15.3022 A28.5772,28.5772 0 0,1 30.7538,-14.7972" style="stroke:#000000;stroke-width:0.25;"/>
        <!-- Linie -->
        <line x1="30.7538" y1="-14.7972" x2="30.7538" y2="-19.1737" style="stroke:#000000;stroke-width:0.25;"/>
        <!-- Kreisbogen -->
        <path d="M30.7538,-19.1737 A37.1752,37.1752 0 0,0 25.8418,-20.1683" style="stroke:#000000;stroke-width:0.25;"/>
        <!-- Kreisbogen -->
        <path d="M25.8418,-20.1683 A41.0157,41.0157 0 0,0 20.1647,-20.5509" style="stroke:#000000;stroke-width:0.25;"/>
        <!-- Kreisbogen -->
        <path d="M20.1647,-20.5509 A24.9945,24.9945 0 0,0 16.2722,-20.2459" style="stroke:#000000;stroke-width:0.25;"/>
        <!-- Kreisbogen -->
        <path d="M16.2722,-20.2459 A14.7675,14.7675 0 0,0 13.3705,-19.4797" style="stroke:#000000;stroke-width:0.25;"/>
        <!-- Kreisbogen -->
        <path d="M13.3705,-19.4797 A11.6288,11.6288 0 0,0 8.7033,-16.3734" style="stroke:#000000;stroke-width:0.25;"/>
        <!-- Kreisbogen -->
        <path d="M8.7033,-16.3734 A12.7895,12.7895 0 0,0 6.0101,-11.3849" style="stroke:#000000;stroke-width:0.25;"/>
        <!-- Kreisbogen -->
        <path d="M6.0101,-11.3849 A23.6079,23.6079 0 0,0 5.1379,-4.6978" style="stroke:#000000;stroke-width:0.25;"/>
        <!-- Kreisbogen -->
        <path d="M5.1379,-4.6978 A19.8573,19.8573 0 0,0 6.0713,1.4384" style="stroke:#000000;stroke-width:0.25;"/>
        <!-- Kreisbogen -->
        <path d="M6.0713,1.4384 A15.4037,15.4037 0 0,0 8.7951,6.5187" style="stroke:#000000;stroke-width:0.25;"/>
        <!-- Kreisbogen -->
        <path d="M8.7951,6.5187 A13.0936,13.0936 0 0,0 13.1868,9.9923" style="stroke:#000000;stroke-width:0.25;"/>
        <!-- Kreisbogen -->
        <path d="M13.1868,9.9923 A11.6448,11.6448 0 0,0 15.8692,10.931" style="stroke:#000000;stroke-width:0.25;"/>
        <!-- Kreisbogen -->
        <path d="M15.8692,10.931 A15.1631,15.1631 0 0,0 19.0935,11.2777" style="stroke:#000000;stroke-width:0.25;"/>
        <!-- Kreisbogen -->
        <path d="M19.0935,11.2777 A18.0833,18.0833 0 0,0 22.2525,10.9997" style="stroke:#000000;stroke-width:0.25;"/>
        <!-- Kreisbogen -->
        <path d="M22.2525,10.9997 A12.5042,12.5042 0 0,0 24.7859,10.2678" style="stroke:#000000;stroke-width:0.25;"/>
        <!-- Kreisbogen -->
        <path d="M24.7859,10.2678 A11.4303,11.4303 0 0,0 28.9634,7.4063" style="stroke:#000000;stroke-width:0.25;"/>
        <!-- Kreisbogen -->
        <path d="M28.9634,7.4063 A12.2,12.2 0 0,0 31.5342,2.9074" style="stroke:#000000;stroke-width:0.25;"/>
        <!-- Kreisbogen -->
        <path d="M31.5342,2.9074 A18.8602,18.8602 0 0,0 32.4064,-3.0145" style="stroke:#000000;stroke-width:0.25;"/>
        <!-- Kreisbogen -->
        <path d="M-7.1884,-4.3305 A25.9207,25.9207 0 0,1 -7.5403,0.1071" style="stroke:#000000;stroke-width:0.25;"/>
        <!-- Kreisbogen -->
        <path d="M-7.5403,0.1071 A11.5796,11.5796 0 0,1 -8.6574,3.5654" style="stroke:#000000;stroke-width:0.25;"/>
        <!-- Kreisbogen -->
        <path d="M-8.6574,3.5654 A6.1367,6.1367 0 0,1 -10.6161,5.8148" style="stroke:#000000;stroke-width:0.25;"/>
        <!-- Kreisbogen -->
        <path d="M-10.6161,5.8148 A4.9418,4.9418 0 0,1 -13.4623,6.6259" style="stroke:#000000;stroke-width:0.25;"/>
        <!-- Kreisbogen -->
        <path d="M-13.4623,6.6259 A6.9239,6.9239 0 0,1 -15.5128,6.3045" style="stroke:#000000;stroke-width:0.25;"/>
        <!-- Kreisbogen -->
        <path d="M-15.5128,6.3045 A8.3155,8.3155 0 0,1 -17.6704,5.2334" style="stroke:#000000;stroke-width:0.25;"/>
        <!-- Kreisbogen -->
        <path d="M-17.6704,5.2334 A16.0743,16.0743 0 0,1 -20.0269,3.2441" style="stroke:#000000;stroke-width:0.25;"/>
        <!-- Kreisbogen -->
        <path d="M-20.0269,3.2441 A31.3424,31.3424 0 0,1 -22.6742,0.1683" style="stroke:#000000;stroke-width:0.25;"/>
        <!-- Linie -->
        <line x1="-22.6742" y1="0.1683" x2="-22.6742" y2="-14.736" style="stroke:#000000;stroke-width:0.25;"/>
        <!-- Kreisbogen -->
        <path d="M-22.6742,-14.736 A17.8706,17.8706 0 0,1 -19.5832,-15.7001" style="stroke:#000000;stroke-width:0.25;"/>
        <!-- Kreisbogen -->
        <path d="M-19.5832,-15.7001 A14.9835,14.9835 0 0,1 -16.4003,-16.052" style="stroke:#000000;stroke-width:0.25;"/>
        <!-- Kreisbogen -->
        <path d="M-16.4003,-16.052 A11.3969,11.3969 0 0,1 -14.3559,-15.8672" style="stroke:#000000;stroke-width:0.25;"/>
        <!-- Kreisbogen -->
        <path d="M-14.3559,-15.8672 A8.3282,8.3282 0 0,1 -12.6724,-15.3723" style="stroke:#000000;stroke-width:0.25;"/>
        <!-- Kreisbogen -->
        <path d="M-12.6724,-15.3723 A7.6574,7.6574 0 0,1 -11.0434,-14.4528" style="stroke:#000000;stroke-width:0.25;"/>
        <!-- Kreisbogen -->
        <path d="M-11.0434,-14.4528 A8.1635,8.1635 0 0,1 -9.6367,-13.1293" style="stroke:#000000;stroke-width:0.25;"/>
        <!-- Kreisbogen -->
        <path d="M-9.6367,-13.1293 A8.121,8.121 0 0,1 -8.5166,-11.3776" style="stroke:#000000;stroke-width:0.25;"/>
        <!-- Kreisbogen -->
        <path d="M-8.5166,-11.3776 A12.3879,12.3879 0 0,1 -7.6681,-8.9539" style="stroke:#000000;stroke-width:0.25;"/>
        <!-- Kreisbogen -->
        <path d="M-7.6681,-8.9539 A15.9719,15.9719 0 0,1 -7.3221,-6.9159" style="stroke:#000000;stroke-width:0.25;"/>
        <!-- Kreisbogen -->
        <path d="M-7.3221,-6.9159 A25.0505,25.0505 0 0,1 -7.1884,-4.3305" style="stroke:#000000;stroke-width:0.25;"/>
        <!-- Linie -->
        <line x1="40.9071" y1="10.7269" x2="45.6508" y2="10.7269" style="stroke:#000000;stroke-width:0.25;"/>
        <!-- Linie -->
        <line x1="45.6508" y1="10.7269" x2="45.865" y2="5.7689" style="stroke:#000000;stroke-width:0.25;"/>
        <!-- Kreisbogen -->
        <path d="M45.865,5.7689 A22.1842,22.1842 0 0,0 48.4664,8.4162" style="stroke:#000000;stroke-width:0.25;"/>
        <!-- Kreisbogen -->
        <path d="M48.4664,8.4162 A14.2646,14.2646 0 0,0 50.9301,10.1148" style="stroke:#000000;stroke-width:0.25;"/>
        <!-- Kreisbogen -->
        <path d="M50.9301,10.1148 A9.2241,9.2241 0 0,0 53.3937,11.0176" style="stroke:#000000;stroke-width:0.25;"/>
        <!-- Kreisbogen -->
        <path d="M53.3937,11.0176 A12.7839,12.7839 0 0,0 55.9951,11.2777" style="stroke:#000000;stroke-width:0.25;"/>
        <!-- Kreisbogen -->
        <path d="M55.9951,11.2777 A14.2315,14.2315 0 0,0 58.1733,11.1101" style="stroke:#000000;stroke-width:0.25;"/>
        <!-- Kreisbogen -->
        <path d="M58.1733,11.1101 A9.5578,9.5578 0 0,0 59.909,10.6716" style="stroke:#000000;stroke-width:0.25;"/>
        <!-- Kreisbogen -->
        <path d="M59.909,10.6716 A8.1205,8.1205 0 0,0 61.7229,9.7579" style="stroke:#000000;stroke-width:0.25;"/>
        <!-- Kreisbogen -->
        <path d="M61.7229,9.7579 A7.361,7.361 0 0,0 63.1718,8.4774" style="stroke:#000000;stroke-width:0.25;"/>
        <!-- Kreisbogen -->
        <path d="M63.1718,8.4774 A7.7785,7.7785 0 0,0 64.2855,6.7975" style="stroke:#000000;stroke-width:0.25;"/>
        <!-- Kreisbogen -->
        <path d="M64.2855,6.7975 A11.5356,11.5356 0 0,0 65.1246,4.4909" style="stroke:#000000;stroke-width:0.25;"/>
        <!-- Kreisbogen -->
        <path d="M65.1246,4.4909 A14.785,14.785 0 0,0 65.471,2.5315" style="stroke:#000000;stroke-width:0.25;"/>
        <!-- Kreisbogen -->
        <path d="M65.471,2.5315 A23.1385,23.1385 0 0,0 65.6049,0.0459" style="stroke:#000000;stroke-width:0.25;"/>
        <!-- Linie -->
        <line x1="65.6049" y1="0.0459" x2="65.6049" y2="-20" style="stroke:#000000;stroke-width:0.25;"/>
        <!-- Linie -->
        <line x1="65.6049" y1="-20" x2="60.2797" y2="-20" style="stroke:#000000;stroke-width:0.25;"/>
        <!-- Linie -->
        <line x1="60.2797" y1="-20" x2="60.2797" y2="-0.3826" style="stroke:#000000;stroke-width:0.25;"/>
        <!-- Kreisbogen -->
        <path d="M60.2797,-0.3826 A17.1642,17.1642 0 0,1 60.2083,1.1812" style="stroke:#000000;stroke-width:0.25;"/>
        <!-- Kreisbogen -->
        <path d="M60.2083,1.1812 A10.701,10.701 0 0,1 60.0248,2.4035" style="stroke:#000000;stroke-width:0.25;"/>
        <!-- Kreisbogen -->
        <path d="M60.0248,2.4035 A8.0478,8.0478 0 0,1 59.5488,3.9138" style="stroke:#000000;stroke-width:0.25;"/>
        <!-- Kreisbogen -->
        <path d="M59.5488,3.9138 A4.7154,4.7154 0 0,1 58.9331,4.9579" style="stroke:#000000;stroke-width:0.25;"/>
        <!-- Kreisbogen -->
        <path d="M58.9331,4.9579 A4.267,4.267 0 0,1 58.1291,5.748" style="stroke:#000000;stroke-width:0.25;"/>
        <!-- Kreisbogen -->
        <path d="M58.1291,5.748 A4.295,4.295 0 0,1 57.1432,6.3023" style="stroke:#000000;stroke-width:0.25;"/>
        <!-- Kreisbogen -->
        <path d="M57.1432,6.3023 A4.9144,4.9144 0 0,1 56.1596,6.5807" style="stroke:#000000;stroke-width:0.25;"/>
        <!-- Kreisbogen -->
        <path d="M56.1596,6.5807 A7.2322,7.2322 0 0,1 54.9239,6.6871" style="stroke:#000000;stroke-width:0.25;"/>
        <!-- Kreisbogen -->
        <path d="M54.9239,6.6871 A6.3955,6.3955 0 0,1 53.0112,6.3963" style="stroke:#000000;stroke-width:0.25;"/>
        <!-- Kreisbogen -->
        <path d="M53.0112,6.3963 A6.9716,6.9716 0 0,1 51.0678,5.3864" style="stroke:#000000;stroke-width:0.25;"/>
        <!-- Kreisbogen -->
        <path d="M51.0678,5.3864 A16.0458,16.0458 0 0,1 48.8796,3.443" style="stroke:#000000;stroke-width:0.25;"/>
        <!-- Kreisbogen -->
        <path d="M48.8796,3.443 A45.0753,45.0753 0 0,1 46.2323,0.3826" style="stroke:#000000;stroke-width:0.25;"/>
        <!-- Linie -->
        <line x1="46.2323" y1="0.3826" x2="46.2323" y2="-20" style="stroke:#000000;stroke-width:0.25;"/>
        <!-- Linie -->
        <line x1="46.2323" y1="-20" x2="40.9071" y2="-20" style="stroke:#000000;stroke-width:0.25;"/>
        <!-- Linie -->
        <line x1="40.9071" y1="-20" x2="40.9071" y2="10.7269" style="stroke:#000000;stroke-width:0.25;"/>
        <!-- Kreisbogen -->
        <path d="M26.867,-2.2494 A11.6089,11.6089 0 0,1 26.4692,1.4996" style="stroke:#000000;stroke-width:0.25;"/>
        <!-- Kreisbogen -->
        <path d="M26.4692,1.4996 A7.8915,7.8915 0 0,1 24.9542,4.4223" style="stroke:#000000;stroke-width:0.25;"/>
        <!-- Kreisbogen -->
        <path d="M24.9542,4.4223 A7.0561,7.0561 0 0,1 22.3988,6.3351" style="stroke:#000000;stroke-width:0.25;"/>
        <!-- Kreisbogen -->
        <path d="M22.3988,6.3351 A8.577,8.577 0 0,1 18.8487,7.0237" style="stroke:#000000;stroke-width:0.25;"/>
        <!-- Kreisbogen -->
        <path d="M18.8487,7.0237 A7.4149,7.4149 0 0,1 15.6658,6.3504" style="stroke:#000000;stroke-width:0.25;"/>
        <!-- Kreisbogen -->
        <path d="M15.6658,6.3504 A7.2585,7.2585 0 0,1 13.1868,4.4529" style="stroke:#000000;stroke-width:0.25;"/>
        <!-- Kreisbogen -->
        <path d="M13.1868,4.4529 A9.8017,9.8017 0 0,1 11.5036,1.5149" style="stroke:#000000;stroke-width:0.25;"/>
        <!-- Kreisbogen -->
        <path d="M11.5036,1.5149 A13.5462,13.5462 0 0,1 10.7079,-2.2494" style="stroke:#000000;stroke-width:0.25;"/>
        <!-- Linie -->
        <line x1="10.7079" y1="-2.2494" x2="26.867" y2="-2.2494" style="stroke:#000000;stroke-width:0.25;"/>
        <!-- Kreisbogen -->
        <path d="M-34.572,0.2601 A39.3997,39.3997 0 0,0 -34.9341,-5.069" style="stroke:#000000;stroke-width:0.25;"/>
        <!-- Kreisbogen -->
        <path d="M-34.9341,-5.069 A22.954,22.954 0 0,0 -35.8421,-9.0436" style="stroke:#000000;stroke-width:0.25;"/>
        <!-- Kreisbogen -->
        <path d="M-35.8421,-9.0436 A23.457,23.457 0 0,0 -37.4258,-12.7866" style="stroke:#000000;stroke-width:0.25;"/>
        <!-- Kreisbogen -->
        <path d="M-37.4258,-12.7866 A15.4107,15.4107 0 0,0 -39.2698,-15.5164" style="stroke:#000000;stroke-width:0.25;"/>
        <!-- Kreisbogen -->
        <path d="M-39.2698,-15.5164 A13.5434,13.5434 0 0,0 -44.3195,-19.3114" style="stroke:#000000;stroke-width:0.25;"/>
        <!-- Kreisbogen -->
        <path d="M-44.3195,-19.3114 A15.3375,15.3375 0 0,0 -50.4251,-20.5509" style="stroke:#000000;stroke-width:0.25;"/>
        <!-- Kreisbogen -->
        <path d="M-50.4251,-20.5509 A18.5597,18.5597 0 0,0 -54.1922,-20.1645" style="stroke:#000000;stroke-width:0.25;"/>
        <!-- Kreisbogen -->
        <path d="M-54.1922,-20.1645 A12.577,12.577 0 0,0 -57.1428,-19.1584" style="stroke:#000000;stroke-width:0.25;"/>
        <!-- Kreisbogen -->
        <path d="M-57.1428,-19.1584 A12.4535,12.4535 0 0,0 -61.8865,-15.1339" style="stroke:#000000;stroke-width:0.25;"/>
        <!-- Kreisbogen -->
        <path d="M-61.8865,-15.1339 A15.2837,15.2837 0 0,0 -63.4606,-12.3608" style="stroke:#000000;stroke-width:0.25;"/>
        <!-- Kreisbogen -->
        <path d="M-63.4606,-12.3608 A22.1599,22.1599 0 0,0 -64.6868,-8.7223" style="stroke:#000000;stroke-width:0.25;"/>
        <!-- Kreisbogen -->
        <path d="M-64.6868,-8.7223 A29.546,29.546 0 0,0 -65.3518,-4.9123" style="stroke:#000000;stroke-width:0.25;"/>
        <!-- Kreisbogen -->
        <path d="M-65.3518,-4.9123 A44.009,44.009 0 0,0 -65.6049,-0.1989" style="stroke:#000000;stroke-width:0.25;"/>
        <!-- Kreisbogen -->
        <path d="M-65.6049,-0.1989 A39.1707,39.1707 0 0,0 -65.2488,5.0706" style="stroke:#000000;stroke-width:0.25;"/>
        <!-- Kreisbogen -->
        <path d="M-65.2488,5.0706 A23.2996,23.2996 0 0,0 -64.3501,9.0436" style="stroke:#000000;stroke-width:0.25;"/>
        <!-- Kreisbogen -->
        <path d="M-64.3501,9.0436 A23.1989,23.1989 0 0,0 -62.7787,12.7857" style="stroke:#000000;stroke-width:0.25;"/>
        <!-- Kreisbogen -->
        <path d="M-62.7787,12.7857 A15.2751,15.2751 0 0,0 -60.9377,15.5164" style="stroke:#000000;stroke-width:0.25;"/>
        <!-- Kreisbogen -->
        <path d="M-60.9377,15.5164 A13.5754,13.5754 0 0,0 -55.9033,19.3114" style="stroke:#000000;stroke-width:0.25;"/>
        <!-- Kreisbogen -->
        <path d="M-55.9033,19.3114 A15.2283,15.2283 0 0,0 -49.813,20.5509" style="stroke:#000000;stroke-width:0.25;"/>
        <!-- Kreisbogen -->
        <path d="M-49.813,20.5509 A18.3576,18.3576 0 0,0 -46.0477,20.1606" style="stroke:#000000;stroke-width:0.25;"/>
        <!-- Kreisbogen -->
        <path d="M-46.0477,20.1606 A12.4921,12.4921 0 0,0 -43.0953,19.1431" style="stroke:#000000;stroke-width:0.25;"/>
        <!-- Kreisbogen -->
        <path d="M-43.0953,19.1431 A12.7595,12.7595 0 0,0 -38.3363,15.1186" style="stroke:#000000;stroke-width:0.25;"/>
        <!-- Kreisbogen -->
        <path d="M-38.3363,15.1186 A15.2049,15.2049 0 0,0 -36.747,12.3586" style="stroke:#000000;stroke-width:0.25;"/>
        <!-- Kreisbogen -->
        <path d="M-36.747,12.3586 A21.9659,21.9659 0 0,0 -35.5054,8.7376" style="stroke:#000000;stroke-width:0.25;"/>
        <!-- Kreisbogen -->
        <path d="M-35.5054,8.7376 A28.9239,28.9239 0 0,0 -34.829,4.9418" style="stroke:#000000;stroke-width:0.25;"/>
        <!-- Kreisbogen -->
        <path d="M-34.829,4.9418 A42.776,42.776 0 0,0 -34.572,0.2601" style="stroke:#000000;stroke-width:0.25;"/>
        <!-- Schraffur -->
        <path d="M-8.5166,-11.3776 A12.3879,12.3879 0 0 1 -7.6681,-8.9539 A15.9719,15.9719 0 0 1 -7.3221,-6.9159 A25.0505,25.0505 0 0 1 -7.1884,-4.3305 A25.9207,25.9207 0 0 1 -7.5403,0.1071 A11.5796,11.5796 0 0 1 -8.6574,3.5654 A6.1367,6.1367 0 0 1 -10.6161,5.8148 A4.94181,4.94181 0 0 1 -13.4623,6.6259 A6.92391,6.92391 0 0 1 -15.5128,6.3045 A8.31547,8.31547 0 0 1 -17.6704,5.2334 A16.0743,16.0743 0 0 1 -20.0269,3.2441 A31.3424,31.3424 0 0 1 -22.6742,0.1683 L-22.6742,-14.736 A17.8706,17.8706 0 0 1 -19.5832,-15.7001 A14.9835,14.9835 0 0 1 -16.4003,-16.052 A11.3969,11.3969 0 0 1 -14.3559,-15.8672 A8.32818,8.32818 0 0 1 -12.6724,-15.3723 A7.65741,7.65741 0 0 1 -11.0434,-14.4528 A8.16352,8.16352 0 0 1 -9.6367,-13.1293 A8.12095,8.12095 0 0 1 -8.5166,-11.3776M45.6508,10.7269 L45.865,5.7689 A22.1842,22.1842 0 0 0 48.4664,8.4162 A14.2646,14.2646 0 0 0 50.9301,10.1148 A9.2241,9.2241 0 0 0 53.3937,11.0176 A12.7839,12.7839 0 0 0 55.9951,11.2777 A14.2315,14.2315 0 0 0 58.1733,11.1101 A9.55776,9.55776 0 0 0 59.909,10.6716 A8.12047,8.12047 0 0 0 61.7229,9.7579 A7.36099,7.36099 0 0 0 63.1718,8.4774 A7.77847,7.77847 0 0 0 64.2855,6.7975 A11.5356,11.5356 0 0 0 65.1246,4.4909 A14.785,14.785 0 0 0 65.471,2.5315 A23.1385,23.1385 0 0 0 65.6049,0.0459 L65.6049,-20 L60.2797,-20 L60.2797,-0.3826 A17.1642,17.1642 0 0 1 60.2083,1.1812 A10.701,10.701 0 0 1 60.0248,2.4035 A8.04777,8.04777 0 0 1 59.5488,3.9138 A4.71544,4.71544 0 0 1 58.9331,4.9579 A4.267,4.267 0 0 1 58.1291,5.748 A4.295,4.295 0 0 1 57.1432,6.3023 A4.91444,4.91444 0 0 1 56.1596,6.5807 A7.23225,7.23225 0 0 1 54.9239,6.6871 A6.39552,6.39552 0 0 1 53.0112,6.3963 A6.97156,6.97156 0 0 1 51.0678,5.3864 A16.0458,16.0458 0 0 1 48.8796,3.443 A45.0753,45.0753 0 0 1 46.2323,0.3826 L46.2323,-20 L40.9071,-20 L40.9071,10.7269 ZM31.5342,2.9074 A18.8602,18.8602 0 0 0 32.4064,-3.0145 A48.8467,48.8467 0 0 0 32.3758,-4.912 A28.5205,28.5205 0 0 0 32.284,-6.3504 L10.7079,-6.3504 A15.043,15.043 0 0 1 10.8643,-8.5138 A10.2422,10.2422 0 0 1 11.2754,-10.2557 A8.69008,8.69008 0 0 1 12.1388,-12.1043 A7.60943,7.60943 0 0 1 13.3399,-13.5884 A7.72449,7.72449 0 0 1 14.8917,-14.7417 A9.60574,9.60574 0 0 1 16.8766,-15.5837 A11.624,11.624 0 0 1 18.6806,-15.9669 A17.363,17.363 0 0 1 20.9298,-16.1132 A33.951,33.951 0 0 1 23.623,-16.0061 A39.7274,39.7274 0 0 1 26.2243,-15.7154 A46.856,46.856 0 0 1 28.6268,-15.3022 A28.5772,28.5772 0 0 1 30.7538,-14.7972 L30.7538,-19.1737 A37.1752,37.1752 0 0 0 25.8418,-20.1683 A41.0157,41.0157 0 0 0 20.1647,-20.5509 A24.9945,24.9945 0 0 0 16.2722,-20.2459 A14.7675,14.7675 0 0 0 13.3705,-19.4797 A11.6288,11.6288 0 0 0 8.7033,-16.3734 A12.7895,12.7895 0 0 0 6.0101,-11.3849 A23.6079,23.6079 0 0 0 5.1379,-4.6978 A19.8573,19.8573 0 0 0 6.0713,1.4384 A15.4037,15.4037 0 0 0 8.7951,6.5187 A13.0936,13.0936 0 0 0 13.1868,9.9923 A11.6448,11.6448 0 0 0 15.8692,10.931 A15.1631,15.1631 0 0 0 19.0935,11.2777 A18.0833,18.0833 0 0 0 22.2525,10.9997 A12.5042,12.5042 0 0 0 24.7859,10.2678 A11.4303,11.4303 0 0 0 28.9634,7.4063 A12.2,12.2 0 0 0 31.5342,2.9074M-54.6179,-14.6442 A7.03567,7.03567 0 0 1 -52.6587,-15.4842 A10.1473,10.1473 0 0 1 -50.1191,-15.8072 A9.17683,9.17683 0 0 1 -47.6504,-15.4689 A6.93024,6.93024 0 0 1 -45.6814,-14.5677 A9.71789,9.71789 0 0 1 -42.6057,-11.2012 A16.8237,16.8237 0 0 1 -40.8153,-6.228 A30.4021,30.4021 0 0 1 -40.2338,-0.1377 A35.837,35.837 0 0 1 -40.7694,6.3045 A16.0631,16.0631 0 0 1 -42.4985,11.3389 A8.90335,8.90335 0 0 1 -45.5743,14.6136 A7.10787,7.10787 0 0 1 -47.5484,15.4529 A10.3695,10.3695 0 0 1 -50.1191,15.7766 A9.14377,9.14377 0 0 1 -52.5867,15.4373 A6.82472,6.82472 0 0 1 -54.5414,14.5371 A9.64047,9.64047 0 0 1 -57.5865,11.1706 A17.1022,17.1022 0 0 1 -59.3616,6.1821 A30.468,30.468 0 0 1 -59.9431,0.1071 A35.0511,35.0511 0 0 1 -59.3922,-6.3657 A16.4006,16.4006 0 0 1 -57.663,-11.3849 A8.86113,8.86113 0 0 1 -54.6179,-14.6442M-7.7699,10.176 A9.59046,9.59046 0 0 0 -4.434,7.0696 A14.6954,14.6954 0 0 0 -2.4141,2.2341 A27.3571,27.3571 0 0 0 -1.7408,-4.0857 A25.5479,25.5479 0 0 0 -2.0627,-8.1283 A16.1692,16.1692 0 0 0 -2.8884,-11.2471 A14.0299,14.0299 0 0 0 -6.056,-16.3275 A12.9827,12.9827 0 0 0 -10.8303,-19.3573 A17.206,17.206 0 0 0 -16.7982,-20.3673 A27.9,27.9 0 0 0 -19.7209,-20.2142 A22.1691,22.1691 0 0 0 -22.6742,-19.694 L-22.6742,-32.5478 L-27.9994,-32.5478 L-27.9994,10.7269 L-23.2557,10.7269 L-22.9191,5.5853 A20.6491,20.6491 0 0 0 -21.8004,6.989 A15.1315,15.1315 0 0 0 -20.734,8.0952 A12.8722,12.8722 0 0 0 -19.3516,9.2212 A9.65919,9.65919 0 0 0 -18.0223,10.0077 A12.6623,12.6623 0 0 0 -12.3911,11.2777 A11.0145,11.0145 0 0 0 -9.8367,10.9774 A8.18282,8.18282 0 0 0 -7.7699,10.176M-46.0477,20.1606 A12.4921,12.4921 0 0 0 -43.0953,19.1431 A12.7595,12.7595 0 0 0 -38.3363,15.1186 A15.2049,15.2049 0 0 0 -36.747,12.3586 A21.9659,21.9659 0 0 0 -35.5054,8.7376 A28.9239,28.9239 0 0 0 -34.829,4.9418 A42.776,42.776 0 0 0 -34.572,0.2601 A39.3997,39.3997 0 0 0 -34.9341,-5.069 A22.954,22.954 0 0 0 -35.8421,-9.0436 A23.457,23.457 0 0 0 -37.4258,-12.7866 A15.4107,15.4107 0 0 0 -39.2698,-15.5164 A13.5434,13.5434 0 0 0 -44.3195,-19.3114 A15.3375,15.3375 0 0 0 -50.4251,-20.5509 A18.5597,18.5597 0 0 0 -54.1922,-20.1645 A12.577,12.577 0 0 0 -57.1428,-19.1584 A12.4535,12.4535 0 0 0 -61.8865,-15.1339 A15.2837,15.2837 0 0 0 -63.4606,-12.3608 A22.1599,22.1599 0 0 0 -64.6868,-8.7223 A29.546,29.546 0 0 0 -65.3518,-4.9123 A44.009,44.009 0 0 0 -65.6049,-0.1989 A39.1707,39.1707 0 0 0 -65.2488,5.0706 A23.2996,23.2996 0 0 0 -64.3501,9.0436 A23.1989,23.1989 0 0 0 -62.7787,12.7857 A15.2751,15.2751 0 0 0 -60.9377,15.5164 A13.5754,13.5754 0 0 0 -55.9033,19.3114 A15.2283,15.2283 0 0 0 -49.813,20.5509 A18.3576,18.3576 0 0 0 -46.0477,20.1606M15.6658,6.3504 A7.25851,7.25851 0 0 1 13.1868,4.4529 A9.80165,9.80165 0 0 1 11.5036,1.5149 A13.5462,13.5462 0 0 1 10.7079,-2.2494 L26.867,-2.2494 A11.6089,11.6089 0 0 1 26.4692,1.4996 A7.89151,7.89151 0 0 1 24.9542,4.4223 A7.05609,7.05609 0 0 1 22.3988,6.3351 A8.57698,8.57698 0 0 1 18.8487,7.0237 A7.41493,7.41493 0 0 1 15.6658,6.3504" style="fill:#000000;fill-rule:evenodd;"/>
    </g>
</svg>
