<?xml version="1.0" encoding="UTF-8"?>
<!-- 2020-10-26 23:04:34 Generated by QCAD 3.24.2 SVG Exporter PG -->
<svg width="211.4mm" height="211.4mm" viewBox="-105.7 -105.7 211.4 211.4" version="1.1" xmlns="http://www.w3.org/2000/svg" style="stroke-linecap:round;stroke-linejoin:round;fill:none">
    <g transform="scale(1,-1)">
        <!-- Schraffur -->
        <path d="M100,-85.5 L100,85.5 A14.5,14.5 0 0 1 85.5,100 L-85.5,100 A14.5,14.5 0 0 1 -100,85.5 L-100,-85.5 A14.5,14.5 0 0 1 -85.5,-100 L85.5,-100 A14.5,14.5 0 0 1 100,-85.5M-85.5,95 A9.5,9.5 0 0 1 -95,85.5 L-95,-85.5 A9.5,9.5 0 0 1 -85.5,-95 L85.5,-95 A9.5,9.5 0 0 1 95,-85.5 L95,85.5 A9.5,9.5 0 0 1 85.5,95 Z" style="fill:#000000;fill-rule:evenodd;"/>
        <!-- Linie -->
        <line x1="75" y1="50" x2="75" y2="-50" style="stroke:#000000;stroke-width:1.4;"/>
        <!-- Linie -->
        <line x1="-75" y1="-50" x2="-75" y2="50" style="stroke:#000000;stroke-width:1.4;"/>
        <!-- Linie -->
        <line x1="-75" y1="50" x2="-25" y2="50" style="stroke:#000000;stroke-width:1.4;"/>
        <!-- Linie -->
        <line x1="25" y1="50" x2="75" y2="50" style="stroke:#000000;stroke-width:1.4;"/>
        <!-- Linie -->
        <line x1="75" y1="-50" x2="25" y2="-50" style="stroke:#000000;stroke-width:1.4;"/>
        <!-- Linie -->
        <line x1="-25" y1="-50" x2="-75" y2="-50" style="stroke:#000000;stroke-width:1.4;"/>
        <!-- Linie -->
        <line x1="-25" y1="50" x2="-25" y2="0" style="stroke:#000000;stroke-width:1.4;"/>
        <!-- Linie -->
        <line x1="25" y1="50" x2="25" y2="0" style="stroke:#000000;stroke-width:1.4;"/>
        <!-- Linie -->
        <line x1="-25" y1="0" x2="25" y2="0" style="stroke:#000000;stroke-width:1.4;"/>
        <!-- Linie -->
        <line x1="-25" y1="50" x2="25" y2="50" style="stroke:#000000;stroke-width:1.4;"/>
        <!-- Linie -->
        <line x1="-25" y1="0" x2="-25" y2="-50" style="stroke:#000000;stroke-width:1.4;"/>
        <!-- Linie -->
        <line x1="25" y1="0" x2="25" y2="-50" style="stroke:#000000;stroke-width:1.4;"/>
        <!-- Linie -->
        <line x1="-25" y1="-50" x2="25" y2="-50" style="stroke:#000000;stroke-width:1.4;"/>
        <!-- Schraffur -->
        <path d="M-25,-50 L25,-50 L25,0 L-25,0 Z" style="fill:#000000;fill-rule:evenodd;"/>
    </g>
</svg>
