<?xml version="1.0" encoding="UTF-8"?>
<!-- 2020-11-27 19:55:44 Generated by QCAD 3.24.2 SVG Exporter PG -->
<svg width="212.11mm" height="212.11mm" viewBox="-106.055 -106.055 212.11 212.11" version="1.1" xmlns="http://www.w3.org/2000/svg" style="stroke-linecap:round;stroke-linejoin:round;fill:none">
    <g transform="scale(1,-1)">
        <!-- Kreisbogen -->
        <path d="M-0.4,-62.6508 A1.6,1.6 0 1,1 0.4,-62.6508" style="stroke:#000000;stroke-width:2;"/>
        <!-- Linie -->
        <line x1="-0.4" y1="-62.6508" x2="-0.4" y2="-48.2" style="stroke:#000000;stroke-width:2;"/>
        <!-- Linie -->
        <line x1="-0.4" y1="-48.2" x2="-2.4" y2="-32.2" style="stroke:#000000;stroke-width:2;"/>
        <!-- Linie -->
        <line x1="-2.4" y1="-32.2" x2="-2.4" y2="-16.2" style="stroke:#000000;stroke-width:2;"/>
        <!-- Linie -->
        <line x1="-2.4" y1="-16.2" x2="2.4" y2="-16.2" style="stroke:#000000;stroke-width:2;"/>
        <!-- Linie -->
        <line x1="2.4" y1="-16.2" x2="2.4" y2="-32.2" style="stroke:#000000;stroke-width:2;"/>
        <!-- Linie -->
        <line x1="2.4" y1="-32.2" x2="0.4" y2="-48.2" style="stroke:#000000;stroke-width:2;"/>
        <!-- Linie -->
        <line x1="0.4" y1="-48.2" x2="0.4" y2="-62.6508" style="stroke:#000000;stroke-width:2;"/>
        <!-- Schraffur -->
        <path d="M-2.4,-16.2 L2.4,-16.2 L2.4,-32.2 L0.4,-48.2 L0.4,-62.6508 A1.6,1.6 0 1 0 -0.4,-62.6508 L-0.4,-48.2 L-2.4,-32.2 Z" style="fill:#000000;fill-rule:evenodd;"/>
        <!-- Schraffur -->
        <path d="M100,-85.5 L100,85.5 A14.5,14.5 0 0 1 85.5,100 L-85.5,100 A14.5,14.5 0 0 1 -100,85.5 L-100,-85.5 A14.5,14.5 0 0 1 -85.5,-100 L85.5,-100 A14.5,14.5 0 0 1 100,-85.5M-85.5,95 A9.5,9.5 0 0 1 -95,85.5 L-95,-85.5 A9.5,9.5 0 0 1 -85.5,-95 L85.5,-95 A9.5,9.5 0 0 1 95,-85.5 L95,85.5 A9.5,9.5 0 0 1 85.5,95 Z" style="fill:#000000;fill-rule:evenodd;"/>
        <!-- Linie -->
        <line x1="-18.75" y1="37.5" x2="18.75" y2="37.5" style="stroke:#000000;stroke-width:2;"/>
        <!-- Linie -->
        <line x1="-33.75" y1="52.5" x2="-33.75" y2="58.6875" style="stroke:#000000;stroke-width:2;"/>
        <!-- Kreisbogen -->
        <path d="M-33.75,58.6875 A1.3125,1.3125 0 0,0 -32.4375,60" style="stroke:#000000;stroke-width:2;"/>
        <!-- Linie -->
        <line x1="-32.4375" y1="60" x2="32.4375" y2="60" style="stroke:#000000;stroke-width:2;"/>
        <!-- Kreisbogen -->
        <path d="M32.4375,60 A1.3125,1.3125 0 0,0 33.75,58.6875" style="stroke:#000000;stroke-width:2;"/>
        <!-- Linie -->
        <line x1="33.75" y1="58.6875" x2="33.75" y2="52.5" style="stroke:#000000;stroke-width:2;"/>
        <!-- Linie -->
        <line x1="33.75" y1="45" x2="33.75" y2="38.8125" style="stroke:#000000;stroke-width:2;"/>
        <!-- Kreisbogen -->
        <path d="M33.75,38.8125 A1.3125,1.3125 0 0,0 32.4375,37.5" style="stroke:#000000;stroke-width:2;"/>
        <!-- Linie -->
        <line x1="32.4375" y1="37.5" x2="-32.4375" y2="37.5" style="stroke:#000000;stroke-width:2;"/>
        <!-- Kreisbogen -->
        <path d="M-32.4375,37.5 A1.3125,1.3125 0 0,0 -33.75,38.8125" style="stroke:#000000;stroke-width:2;"/>
        <!-- Linie -->
        <line x1="-33.75" y1="38.8125" x2="-33.75" y2="45" style="stroke:#000000;stroke-width:2;"/>
        <!-- Linie -->
        <line x1="-33.75" y1="52.5" x2="-30" y2="52.5" style="stroke:#000000;stroke-width:2;"/>
        <!-- Linie -->
        <line x1="-30" y1="52.5" x2="-30" y2="45" style="stroke:#000000;stroke-width:2;"/>
        <!-- Linie -->
        <line x1="-30" y1="45" x2="-33.75" y2="45" style="stroke:#000000;stroke-width:2;"/>
        <!-- Linie -->
        <line x1="33.75" y1="52.5" x2="30" y2="52.5" style="stroke:#000000;stroke-width:2;"/>
        <!-- Linie -->
        <line x1="30" y1="52.5" x2="30" y2="45" style="stroke:#000000;stroke-width:2;"/>
        <!-- Linie -->
        <line x1="30" y1="45" x2="33.75" y2="45" style="stroke:#000000;stroke-width:2;"/>
        <!-- Linie -->
        <line x1="-30" y1="52.5" x2="30" y2="52.5" style="stroke:#000000;stroke-width:2;"/>
        <!-- Linie -->
        <line x1="30" y1="45" x2="-30" y2="45" style="stroke:#000000;stroke-width:2;"/>
        <!-- Linie -->
        <line x1="-25" y1="37.5" x2="-25" y2="-14" style="stroke:#000000;stroke-width:2;"/>
        <!-- Linie -->
        <line x1="-25" y1="-14" x2="25" y2="-14" style="stroke:#000000;stroke-width:2;"/>
        <!-- Linie -->
        <line x1="25" y1="-14" x2="25" y2="37.5" style="stroke:#000000;stroke-width:2;"/>
        <!-- Linie -->
        <line x1="-25" y1="-6" x2="25" y2="-6" style="stroke:#000000;stroke-width:2.11;"/>
        <!-- Linie -->
        <line x1="25" y1="-1" x2="-25" y2="-1" style="stroke:#000000;stroke-width:2.11;"/>
    </g>
</svg>
