<?xml version="1.0" encoding="UTF-8"?>
<!-- 2020-10-26 14:45:03 Generated by QCAD 3.24.2 SVG Exporter PG -->
<svg width="212mm" height="212mm" viewBox="-106 -106 212 212" version="1.1" xmlns="http://www.w3.org/2000/svg" style="stroke-linecap:round;stroke-linejoin:round;fill:none">
    <g transform="scale(1,-1)">
        <!-- Schraffur -->
        <path d="M100,-85.5 L100,85.5 A14.5,14.5 0 0 1 85.5,100 L-85.5,100 A14.5,14.5 0 0 1 -100,85.5 L-100,-85.5 A14.5,14.5 0 0 1 -85.5,-100 L85.5,-100 A14.5,14.5 0 0 1 100,-85.5M-85.5,95 A9.5,9.5 0 0 1 -95,85.5 L-95,-85.5 A9.5,9.5 0 0 1 -85.5,-95 L85.5,-95 A9.5,9.5 0 0 1 95,-85.5 L95,85.5 A9.5,9.5 0 0 1 85.5,95 Z" style="fill:#000000;fill-rule:evenodd;"/>
        <!-- Kreisbogen -->
        <path d="M-0.4,-25.6508 A1.6,1.6 0 1,1 0.4,-25.6508" style="stroke:#000000;stroke-width:2;"/>
        <!-- Linie -->
        <line x1="-0.4" y1="-25.6508" x2="-0.4" y2="-11.2" style="stroke:#000000;stroke-width:2;"/>
        <!-- Linie -->
        <line x1="-0.4" y1="-11.2" x2="-2.4" y2="4.8" style="stroke:#000000;stroke-width:2;"/>
        <!-- Linie -->
        <line x1="-2.4" y1="4.8" x2="-2.4" y2="20.8" style="stroke:#000000;stroke-width:2;"/>
        <!-- Linie -->
        <line x1="-2.4" y1="20.8" x2="2.4" y2="20.8" style="stroke:#000000;stroke-width:2;"/>
        <!-- Linie -->
        <line x1="2.4" y1="20.8" x2="2.4" y2="4.8" style="stroke:#000000;stroke-width:2;"/>
        <!-- Linie -->
        <line x1="2.4" y1="4.8" x2="0.4" y2="-11.2" style="stroke:#000000;stroke-width:2;"/>
        <!-- Linie -->
        <line x1="0.4" y1="-11.2" x2="0.4" y2="-25.6508" style="stroke:#000000;stroke-width:2;"/>
        <!-- Schraffur -->
        <path d="M-2.4,20.8 L2.4,20.8 L2.4,4.8 L0.4,-11.2 L0.4,-25.6508 A1.6,1.6 0 1 0 -0.4,-25.6508 L-0.4,-11.2 L-2.4,4.8 Z" style="fill:#000000;fill-rule:evenodd;"/>
        <!-- Linie -->
        <line x1="80" y1="-12" x2="40" y2="68" style="stroke:#000000;stroke-width:2;"/>
        <!-- Linie -->
        <line x1="-30" y1="68" x2="-40" y2="68" style="stroke:#000000;stroke-width:2;"/>
        <!-- Linie -->
        <line x1="40" y1="68" x2="30" y2="68" style="stroke:#000000;stroke-width:2;"/>
        <!-- Linie -->
        <line x1="-40" y1="68" x2="-80" y2="-12" style="stroke:#000000;stroke-width:2;"/>
        <!-- Linie -->
        <line x1="-80" y1="-12" x2="-80" y2="-20" style="stroke:#000000;stroke-width:2;"/>
        <!-- Linie -->
        <line x1="80" y1="-20" x2="80" y2="-12" style="stroke:#000000;stroke-width:2;"/>
        <!-- Linie -->
        <line x1="-48" y1="-44" x2="48" y2="-44" style="stroke:#000000;stroke-width:2;"/>
        <!-- Linie -->
        <line x1="80" y1="-20" x2="80" y2="-44" style="stroke:#000000;stroke-width:2;"/>
        <!-- Linie -->
        <line x1="80" y1="-44" x2="48" y2="-44" style="stroke:#000000;stroke-width:2;"/>
        <!-- Linie -->
        <line x1="-48" y1="-44" x2="-80" y2="-44" style="stroke:#000000;stroke-width:2;"/>
        <!-- Linie -->
        <line x1="-80" y1="-44" x2="-80" y2="-20" style="stroke:#000000;stroke-width:2;"/>
        <!-- Linie -->
        <line x1="-30" y1="68" x2="-16" y2="68" style="stroke:#000000;stroke-width:2;"/>
        <!-- Linie -->
        <line x1="16" y1="68" x2="30" y2="68" style="stroke:#000000;stroke-width:2;"/>
        <!-- Linie -->
        <line x1="-80" y1="-12" x2="-48" y2="-12" style="stroke:#000000;stroke-width:2;"/>
        <!-- Linie -->
        <line x1="-48" y1="-12" x2="-48" y2="-36" style="stroke:#000000;stroke-width:2;"/>
        <!-- Linie -->
        <line x1="-48" y1="-36" x2="48" y2="-36" style="stroke:#000000;stroke-width:2;"/>
        <!-- Linie -->
        <line x1="48" y1="-36" x2="48" y2="-12" style="stroke:#000000;stroke-width:2;"/>
        <!-- Linie -->
        <line x1="48" y1="-12" x2="80" y2="-12" style="stroke:#000000;stroke-width:2;"/>
        <!-- Linie -->
        <line x1="-48" y1="-12" x2="-16" y2="68" style="stroke:#000000;stroke-width:2;"/>
        <!-- Linie -->
        <line x1="48" y1="-12" x2="16" y2="68" style="stroke:#000000;stroke-width:2;"/>
        <!-- Linie -->
        <line x1="-16" y1="68" x2="-16" y2="44" style="stroke:#000000;stroke-width:2;"/>
        <!-- Linie -->
        <line x1="16" y1="68" x2="16" y2="44" style="stroke:#000000;stroke-width:2;"/>
        <!-- Linie -->
        <line x1="-16" y1="44" x2="-48" y2="-36" style="stroke:#000000;stroke-width:2;"/>
        <!-- Linie -->
        <line x1="16" y1="44" x2="48" y2="-36" style="stroke:#000000;stroke-width:2;"/>
        <!-- Linie -->
        <line x1="-16" y1="44" x2="16" y2="44" style="stroke:#000000;stroke-width:2;"/>
    </g>
</svg>
