<?xml version="1.0" encoding="UTF-8"?>
<!-- 2020-10-26 15:00:28 Generated by QCAD 3.24.2 SVG Exporter PG -->
<svg width="210.25mm" height="210.25mm" viewBox="-105.125 -105.125 210.25 210.25" version="1.1" xmlns="http://www.w3.org/2000/svg" style="stroke-linecap:round;stroke-linejoin:round;fill:none">
    <g transform="scale(1,-1)">
        <!-- Schraffur -->
        <path d="M71.0859,2.2641 L77.3137,-13.1503 L82.5987,-11.0151 L76.0149,5.2802 L78.1325,5.1111 L83.4263,4.6885 L65.7211,23.1503 L65.8098,-2.4291 L69.3242,1.5524 L70.73,3.1449 Z" style="fill:#000000;fill-rule:evenodd;"/>
        <!-- Schraffur -->
        <path d="M100,-85.5 L100,85.5 A14.5,14.5 0 0 1 85.5,100 L-85.5,100 A14.5,14.5 0 0 1 -100,85.5 L-100,-85.5 A14.5,14.5 0 0 1 -85.5,-100 L85.5,-100 A14.5,14.5 0 0 1 100,-85.5M-85.5,95 A9.5,9.5 0 0 1 -95,85.5 L-95,-85.5 A9.5,9.5 0 0 1 -85.5,-95 L85.5,-95 A9.5,9.5 0 0 1 95,-85.5 L95,85.5 A9.5,9.5 0 0 1 85.5,95 Z" style="fill:#000000;fill-rule:evenodd;"/>
        <!-- Polylinie -->
        <path d="M-75.4263,68 L64.5737,68 L64.5737,82 L-75.4263,82 Z" style="stroke:#000000;stroke-width:0.25;"/>
        <!-- Polylinie -->
        <path d="M29.124,8 L-75.4263,8 L-75.4263,22 L29.124,22" style="stroke:#000000;stroke-width:0.25;"/>
        <!-- Polylinie -->
        <path d="M4.5737,38 L-75.4263,38 L-75.4263,52 L4.5737,52" style="stroke:#000000;stroke-width:0.25;"/>
        <!-- Polylinie -->
        <path d="M14.5737,-82 L-75.4263,-82 L-75.4263,-68 L14.5737,-68" style="stroke:#000000;stroke-width:0.25;"/>
        <!-- Polylinie -->
        <path d="M34.5737,-52 L-75.4263,-52 L-75.4263,-38 L34.5737,-38" style="stroke:#000000;stroke-width:0.25;"/>
        <!-- Polylinie -->
        <path d="M-75.4263,-8 L64.5737,-8 L64.5737,-22 L-75.4263,-22 Z" style="stroke:#000000;stroke-width:0.25;"/>
        <!-- Linie -->
        <line x1="29.124" y1="22" x2="29.124" y2="8" style="stroke:#000000;stroke-width:0.25;"/>
        <!-- Linie -->
        <line x1="4.5737" y1="52" x2="4.5737" y2="38" style="stroke:#000000;stroke-width:0.25;"/>
        <!-- Linie -->
        <line x1="14.5737" y1="-68" x2="14.5737" y2="-82" style="stroke:#000000;stroke-width:0.25;"/>
        <!-- Linie -->
        <line x1="34.5737" y1="-38" x2="34.5737" y2="-52" style="stroke:#000000;stroke-width:0.25;"/>
        <!-- Schraffur -->
        <path d="M29.124,8 L-75.4263,8 L-75.4263,22 L29.124,22 ZM-75.4263,68 L64.5737,68 L64.5737,82 L-75.4263,82 ZM34.5737,-38 L34.5737,-52 L-75.4263,-52 L-75.4263,-38 ZM14.5737,-82 L-75.4263,-82 L-75.4263,-68 L14.5737,-68 ZM4.5737,52 L4.5737,38 L-75.4263,38 L-75.4263,52 ZM-75.4263,-8 L64.5737,-8 L64.5737,-22 L-75.4263,-22 Z" style="fill:#000000;fill-rule:evenodd;"/>
        <!-- Schraffur -->
        <path d="M64.5737,30 L-75.4263,30 A8,8 0 0 0 -83.4263,38 L-83.4263,52 A8,8 0 0 0 -75.4263,60 L64.5737,60 A8,8 0 0 0 72.5737,52 L72.5737,38 A8,8 0 0 0 64.5737,30M-75.4263,55 L64.5737,55 A3,3 0 0 0 67.5737,52 L67.5737,38 A3,3 0 0 0 64.5737,35 L-75.4263,35 A3,3 0 0 0 -78.4263,38 L-78.4263,52 A3,3 0 0 0 -75.4263,55" style="fill:#000000;fill-rule:evenodd;"/>
    </g>
</svg>
