<?xml version="1.0" encoding="UTF-8"?>
<!-- 2020-10-26 19:11:47 Generated by QCAD 3.24.2 SVG Exporter PG -->
<svg width="212mm" height="212mm" viewBox="-106 -106 212 212" version="1.1" xmlns="http://www.w3.org/2000/svg" style="stroke-linecap:round;stroke-linejoin:round;fill:none">
    <g transform="scale(1,-1)">
        <!-- Schraffur -->
        <path d="M100,-85.5 L100,85.5 A14.5,14.5 0 0 1 85.5,100 L-85.5,100 A14.5,14.5 0 0 1 -100,85.5 L-100,-85.5 A14.5,14.5 0 0 1 -85.5,-100 L85.5,-100 A14.5,14.5 0 0 1 100,-85.5M-85.5,95 A9.5,9.5 0 0 1 -95,85.5 L-95,-85.5 A9.5,9.5 0 0 1 -85.5,-95 L85.5,-95 A9.5,9.5 0 0 1 95,-85.5 L95,85.5 A9.5,9.5 0 0 1 85.5,95 Z" style="fill:#000000;fill-rule:evenodd;"/>
        <!-- Linie -->
        <line x1="-60" y1="-60" x2="20" y2="-60" style="stroke:#000000;stroke-width:2;"/>
        <!-- Linie -->
        <line x1="20" y1="-60" x2="20" y2="20" style="stroke:#000000;stroke-width:2;"/>
        <!-- Linie -->
        <line x1="20" y1="20" x2="-60" y2="20" style="stroke:#000000;stroke-width:2;"/>
        <!-- Linie -->
        <line x1="-60" y1="20" x2="-60" y2="-60" style="stroke:#000000;stroke-width:2;"/>
        <!-- Linie -->
        <line x1="60" y1="-20" x2="60" y2="60" style="stroke:#000000;stroke-width:2;"/>
        <!-- Linie -->
        <line x1="60" y1="60" x2="-20" y2="60" style="stroke:#000000;stroke-width:2;"/>
        <!-- Linie -->
        <line x1="-60" y1="20" x2="-20" y2="60" style="stroke:#000000;stroke-width:2;"/>
        <!-- Linie -->
        <line x1="20" y1="20" x2="60" y2="60" style="stroke:#000000;stroke-width:2;"/>
        <!-- Linie -->
        <line x1="20" y1="-60" x2="60" y2="-20" style="stroke:#000000;stroke-width:2;"/>
        <!-- Linie -->
        <line x1="-53.4704" y1="26.5296" x2="-46.9408" y2="20" style="stroke:#000000;stroke-width:2;"/>
        <!-- Linie -->
        <line x1="-46.7352" y1="33.2648" x2="-33.4704" y2="20" style="stroke:#000000;stroke-width:2;"/>
        <!-- Linie -->
        <line x1="-40" y1="40" x2="-20" y2="20" style="stroke:#000000;stroke-width:2;"/>
        <!-- Linie -->
        <line x1="-33.2648" y1="46.7352" x2="-6.5296" y2="20" style="stroke:#000000;stroke-width:2;"/>
        <!-- Linie -->
        <line x1="-26.5296" y1="53.4704" x2="6.9408" y2="20" style="stroke:#000000;stroke-width:2;"/>
        <!-- Linie -->
        <line x1="-19.5888" y1="60" x2="20.2056" y2="20.2056" style="stroke:#000000;stroke-width:2;"/>
        <!-- Linie -->
        <line x1="-6.1185" y1="60" x2="26.9408" y2="26.9408" style="stroke:#000000;stroke-width:2;"/>
        <!-- Linie -->
        <line x1="7.3519" y1="60" x2="33.676" y2="33.676" style="stroke:#000000;stroke-width:2;"/>
        <!-- Linie -->
        <line x1="20.8223" y1="60" x2="40.4112" y2="40.4112" style="stroke:#000000;stroke-width:2;"/>
        <!-- Linie -->
        <line x1="34.2927" y1="60" x2="47.1463" y2="47.1463" style="stroke:#000000;stroke-width:2;"/>
        <!-- Linie -->
        <line x1="47.7631" y1="60" x2="53.8815" y2="53.8815" style="stroke:#000000;stroke-width:2;"/>
    </g>
</svg>
