<?xml version="1.0" encoding="UTF-8"?>
<!-- 2020-10-26 15:46:46 Generated by QCAD 3.24.2 SVG Exporter PG -->
<svg width="210.25mm" height="210.25mm" viewBox="-105.125 -105.125 210.25 210.25" version="1.1" xmlns="http://www.w3.org/2000/svg" style="stroke-linecap:round;stroke-linejoin:round;fill:none">
    <g transform="scale(1,-1)">
        <!-- Schraffur -->
        <path d="M100,-85.5 L100,85.5 A14.5,14.5 0 0 1 85.5,100 L-85.5,100 A14.5,14.5 0 0 1 -100,85.5 L-100,-85.5 A14.5,14.5 0 0 1 -85.5,-100 L85.5,-100 A14.5,14.5 0 0 1 100,-85.5M-85.5,95 A9.5,9.5 0 0 1 -95,85.5 L-95,-85.5 A9.5,9.5 0 0 1 -85.5,-95 L85.5,-95 A9.5,9.5 0 0 1 95,-85.5 L95,85.5 A9.5,9.5 0 0 1 85.5,95 Z" style="fill:#000000;fill-rule:evenodd;"/>
        <!-- Kreisbogen -->
        <path d="M47.5826,10.4285 A25.9368,25.9368 0 0,0 43.8488,9.7705" style="stroke:#000000;stroke-width:0.25;"/>
        <!-- Kreisbogen -->
        <path d="M43.8488,9.7705 A38.1482,38.1482 0 0,0 39.9314,9.5715" style="stroke:#000000;stroke-width:0.25;"/>
        <!-- Kreisbogen -->
        <path d="M39.9314,9.5715 A22.6585,22.6585 0 0,0 37.3713,9.7166" style="stroke:#000000;stroke-width:0.25;"/>
        <!-- Kreisbogen -->
        <path d="M37.3713,9.7166 A14.4537,14.4537 0 0,0 35.3579,10.0916" style="stroke:#000000;stroke-width:0.25;"/>
        <!-- Kreisbogen -->
        <path d="M35.3579,10.0916 A11.3264,11.3264 0 0,0 33.0154,10.9895" style="stroke:#000000;stroke-width:0.25;"/>
        <!-- Kreisbogen -->
        <path d="M33.0154,10.9895 A7.8754,7.8754 0 0,0 31.301,12.1882" style="stroke:#000000;stroke-width:0.25;"/>
        <!-- Kreisbogen -->
        <path d="M31.301,12.1882 A7.4076,7.4076 0 0,0 29.9944,13.7776" style="stroke:#000000;stroke-width:0.25;"/>
        <!-- Kreisbogen -->
        <path d="M29.9944,13.7776 A9.3904,9.3904 0 0,0 29.0391,15.8881" style="stroke:#000000;stroke-width:0.25;"/>
        <!-- Kreisbogen -->
        <path d="M29.0391,15.8881 A11.6647,11.6647 0 0,0 28.6178,17.7923" style="stroke:#000000;stroke-width:0.25;"/>
        <!-- Kreisbogen -->
        <path d="M28.6178,17.7923 A18.1842,18.1842 0 0,0 28.4548,20.2219" style="stroke:#000000;stroke-width:0.25;"/>
        <!-- Linie -->
        <line x1="28.4548" y1="20.2219" x2="28.4548" y2="36.2586" style="stroke:#000000;stroke-width:0.25;"/>
        <!-- Linie -->
        <line x1="28.4548" y1="36.2586" x2="19.8549" y2="36.2586" style="stroke:#000000;stroke-width:0.25;"/>
        <!-- Linie -->
        <line x1="19.8549" y1="36.2586" x2="19.8549" y2="40.7269" style="stroke:#000000;stroke-width:0.25;"/>
        <!-- Linie -->
        <line x1="19.8549" y1="40.7269" x2="28.4548" y2="40.7269" style="stroke:#000000;stroke-width:0.25;"/>
        <!-- Linie -->
        <line x1="28.4548" y1="40.7269" x2="28.4548" y2="49.1737" style="stroke:#000000;stroke-width:0.25;"/>
        <!-- Linie -->
        <line x1="28.4548" y1="49.1737" x2="33.78" y2="50.5509" style="stroke:#000000;stroke-width:0.25;"/>
        <!-- Linie -->
        <line x1="33.78" y1="50.5509" x2="33.78" y2="40.7269" style="stroke:#000000;stroke-width:0.25;"/>
        <!-- Linie -->
        <line x1="33.78" y1="40.7269" x2="47.5826" y2="40.7269" style="stroke:#000000;stroke-width:0.25;"/>
        <!-- Linie -->
        <line x1="47.5826" y1="40.7269" x2="47.5826" y2="36.2586" style="stroke:#000000;stroke-width:0.25;"/>
        <!-- Linie -->
        <line x1="47.5826" y1="36.2586" x2="33.78" y2="36.2586" style="stroke:#000000;stroke-width:0.25;"/>
        <!-- Linie -->
        <line x1="33.78" y1="36.2586" x2="33.78" y2="20.6503" style="stroke:#000000;stroke-width:0.25;"/>
        <!-- Kreisbogen -->
        <path d="M33.78,20.6503 A10.976,10.976 0 0,1 33.8817,19.1595" style="stroke:#000000;stroke-width:0.25;"/>
        <!-- Kreisbogen -->
        <path d="M33.8817,19.1595 A7.1361,7.1361 0 0,1 34.1455,17.9839" style="stroke:#000000;stroke-width:0.25;"/>
        <!-- Kreisbogen -->
        <path d="M34.1455,17.9839 A5.8159,5.8159 0 0,1 34.733,16.6942" style="stroke:#000000;stroke-width:0.25;"/>
        <!-- Kreisbogen -->
        <path d="M34.733,16.6942 A4.7021,4.7021 0 0,1 35.5397,15.7077" style="stroke:#000000;stroke-width:0.25;"/>
        <!-- Kreisbogen -->
        <path d="M35.5397,15.7077 A5.0203,5.0203 0 0,1 36.5873,14.9586" style="stroke:#000000;stroke-width:0.25;"/>
        <!-- Kreisbogen -->
        <path d="M36.5873,14.9586 A6.7172,6.7172 0 0,1 37.9701,14.4047" style="stroke:#000000;stroke-width:0.25;"/>
        <!-- Kreisbogen -->
        <path d="M37.9701,14.4047 A8.3457,8.3457 0 0,1 39.191,14.1632" style="stroke:#000000;stroke-width:0.25;"/>
        <!-- Kreisbogen -->
        <path d="M39.191,14.1632 A12.7626,12.7626 0 0,1 40.7272,14.0704" style="stroke:#000000;stroke-width:0.25;"/>
        <!-- Kreisbogen -->
        <path d="M40.7272,14.0704 A24.7673,24.7673 0 0,1 43.9406,14.2999" style="stroke:#000000;stroke-width:0.25;"/>
        <!-- Kreisbogen -->
        <path d="M43.9406,14.2999 A30.5537,30.5537 0 0,1 47.5826,15.0191" style="stroke:#000000;stroke-width:0.25;"/>
        <!-- Linie -->
        <line x1="47.5826" y1="15.0191" x2="47.5826" y2="10.4285" style="stroke:#000000;stroke-width:0.25;"/>
        <!-- Kreisbogen -->
        <path d="M-20.467,20.834 A12.1804,12.1804 0 0,0 -20.7851,18.0685" style="stroke:#000000;stroke-width:0.25;"/>
        <!-- Kreisbogen -->
        <path d="M-20.7851,18.0685 A8.8905,8.8905 0 0,0 -21.63,15.8454" style="stroke:#000000;stroke-width:0.25;"/>
        <!-- Kreisbogen -->
        <path d="M-21.63,15.8454 A10.1334,10.1334 0 0,0 -24.8741,12.28" style="stroke:#000000;stroke-width:0.25;"/>
        <!-- Kreisbogen -->
        <path d="M-24.8741,12.28 A15.0072,15.0072 0 0,0 -29.8779,10.153" style="stroke:#000000;stroke-width:0.25;"/>
        <!-- Kreisbogen -->
        <path d="M-29.8779,10.153 A27.5176,27.5176 0 0,0 -36.3201,9.4491" style="stroke:#000000;stroke-width:0.25;"/>
        <!-- Kreisbogen -->
        <path d="M-36.3201,9.4491 A40.8899,40.8899 0 0,0 -39.4877,9.5715" style="stroke:#000000;stroke-width:0.25;"/>
        <!-- Kreisbogen -->
        <path d="M-39.4877,9.5715 A63.3289,63.3289 0 0,0 -42.5175,9.8776" style="stroke:#000000;stroke-width:0.25;"/>
        <!-- Kreisbogen -->
        <path d="M-42.5175,9.8776 A44.4109,44.4109 0 0,0 -45.2566,10.306" style="stroke:#000000;stroke-width:0.25;"/>
        <!-- Kreisbogen -->
        <path d="M-45.2566,10.306 A34.0225,34.0225 0 0,0 -47.5826,10.8263" style="stroke:#000000;stroke-width:0.25;"/>
        <!-- Linie -->
        <line x1="-47.5826" y1="10.8263" x2="-47.5826" y2="16.0903" style="stroke:#000000;stroke-width:0.25;"/>
        <!-- Kreisbogen -->
        <path d="M-47.5826,16.0903 A28.5089,28.5089 0 0,1 -42.4257,14.7437" style="stroke:#000000;stroke-width:0.25;"/>
        <!-- Kreisbogen -->
        <path d="M-42.4257,14.7437 A38.8313,38.8313 0 0,1 -35.9223,14.254" style="stroke:#000000;stroke-width:0.25;"/>
        <!-- Kreisbogen -->
        <path d="M-35.9223,14.254 A20.905,20.905 0 0,1 -31.4387,14.6672" style="stroke:#000000;stroke-width:0.25;"/>
        <!-- Kreisbogen -->
        <path d="M-31.4387,14.6672 A8.6293,8.6293 0 0,1 -28.4089,15.8914" style="stroke:#000000;stroke-width:0.25;"/>
        <!-- Kreisbogen -->
        <path d="M-28.4089,15.8914 A4.8574,4.8574 0 0,1 -26.695,17.8653" style="stroke:#000000;stroke-width:0.25;"/>
        <!-- Kreisbogen -->
        <path d="M-26.695,17.8653 A6.2993,6.2993 0 0,1 -26.1594,20.5279" style="stroke:#000000;stroke-width:0.25;"/>
        <!-- Kreisbogen -->
        <path d="M-26.1594,20.5279 A4.3427,4.3427 0 0,1 -27.0623,23.2976" style="stroke:#000000;stroke-width:0.25;"/>
        <!-- Kreisbogen -->
        <path d="M-27.0623,23.2976 A8.9016,8.9016 0 0,1 -29.4341,25.3481" style="stroke:#000000;stroke-width:0.25;"/>
        <!-- Kreisbogen -->
        <path d="M-29.4341,25.3481 A21.8208,21.8208 0 0,1 -32.7853,27.0008" style="stroke:#000000;stroke-width:0.25;"/>
        <!-- Kreisbogen -->
        <path d="M-32.7853,27.0008 A610.955,610.955 0 0,0 -36.6262,28.5463" style="stroke:#000000;stroke-width:0.25;"/>
        <!-- Kreisbogen -->
        <path d="M-36.6262,28.5463 A56.5269,56.5269 0 0,0 -40.467,30.2754" style="stroke:#000000;stroke-width:0.25;"/>
        <!-- Kreisbogen -->
        <path d="M-40.467,30.2754 A15.8811,15.8811 0 0,0 -43.8182,32.479" style="stroke:#000000;stroke-width:0.25;"/>
        <!-- Kreisbogen -->
        <path d="M-43.8182,32.479 A10.189,10.189 0 0,0 -46.1901,35.4629" style="stroke:#000000;stroke-width:0.25;"/>
        <!-- Kreisbogen -->
        <path d="M-46.1901,35.4629 A7.1174,7.1174 0 0,0 -46.8415,37.2389" style="stroke:#000000;stroke-width:0.25;"/>
        <!-- Kreisbogen -->
        <path d="M-46.8415,37.2389 A10.5955,10.5955 0 0,0 -47.0929,39.5333" style="stroke:#000000;stroke-width:0.25;"/>
        <!-- Kreisbogen -->
        <path d="M-47.0929,39.5333 A10.1248,10.1248 0 0,0 -46.236,43.5731" style="stroke:#000000;stroke-width:0.25;"/>
        <!-- Kreisbogen -->
        <path d="M-46.236,43.5731 A9.6777,9.6777 0 0,0 -43.5734,47.1079" style="stroke:#000000;stroke-width:0.25;"/>
        <!-- Kreisbogen -->
        <path d="M-43.5734,47.1079 A10.9429,10.9429 0 0,0 -41.6419,48.4314" style="stroke:#000000;stroke-width:0.25;"/>
        <!-- Kreisbogen -->
        <path d="M-41.6419,48.4314 A17.3415,17.3415 0 0,0 -38.9368,49.6021" style="stroke:#000000;stroke-width:0.25;"/>
        <!-- Kreisbogen -->
        <path d="M-38.9368,49.6021 A16.103,16.103 0 0,0 -36.0617,50.2799" style="stroke:#000000;stroke-width:0.25;"/>
        <!-- Kreisbogen -->
        <path d="M-36.0617,50.2799 A27.8205,27.8205 0 0,0 -32.1885,50.5509" style="stroke:#000000;stroke-width:0.25;"/>
        <!-- Kreisbogen -->
        <path d="M-32.1885,50.5509 A28.2908,28.2908 0 0,0 -30.0003,50.4591" style="stroke:#000000;stroke-width:0.25;"/>
        <!-- Kreisbogen -->
        <path d="M-30.0003,50.4591 A39.6389,39.6389 0 0,0 -27.6132,50.1989" style="stroke:#000000;stroke-width:0.25;"/>
        <!-- Kreisbogen -->
        <path d="M-27.6132,50.1989 A58.2538,58.2538 0 0,0 -25.226,49.8164" style="stroke:#000000;stroke-width:0.25;"/>
        <!-- Kreisbogen -->
        <path d="M-25.226,49.8164 A38.7039,38.7039 0 0,0 -23.0378,49.3573" style="stroke:#000000;stroke-width:0.25;"/>
        <!-- Linie -->
        <line x1="-23.0378" y1="49.3573" x2="-23.0378" y2="44.4606" style="stroke:#000000;stroke-width:0.25;"/>
        <!-- Kreisbogen -->
        <path d="M-23.0378,44.4606 A37.0821,37.0821 0 0,1 -27.7509,45.4858" style="stroke:#000000;stroke-width:0.25;"/>
        <!-- Kreisbogen -->
        <path d="M-27.7509,45.4858 A30.8711,30.8711 0 0,1 -32.3109,45.8378" style="stroke:#000000;stroke-width:0.25;"/>
        <!-- Kreisbogen -->
        <path d="M-32.3109,45.8378 A24.8872,24.8872 0 0,1 -34.3161,45.7569" style="stroke:#000000;stroke-width:0.25;"/>
        <!-- Kreisbogen -->
        <path d="M-34.3161,45.7569 A15.345,15.345 0 0,1 -35.8782,45.5494" style="stroke:#000000;stroke-width:0.25;"/>
        <!-- Kreisbogen -->
        <path d="M-35.8782,45.5494 A11.3144,11.3144 0 0,1 -37.8654,44.9893" style="stroke:#000000;stroke-width:0.25;"/>
        <!-- Kreisbogen -->
        <path d="M-37.8654,44.9893 A6.052,6.052 0 0,1 -39.1969,44.277" style="stroke:#000000;stroke-width:0.25;"/>
        <!-- Kreisbogen -->
        <path d="M-39.1969,44.277 A6.0439,6.0439 0 0,1 -40.1802,43.4055" style="stroke:#000000;stroke-width:0.25;"/>
        <!-- Kreisbogen -->
        <path d="M-40.1802,43.4055 A4.6332,4.6332 0 0,1 -40.8413,42.464" style="stroke:#000000;stroke-width:0.25;"/>
        <!-- Kreisbogen -->
        <path d="M-40.8413,42.464 A4.5483,4.5483 0 0,1 -41.2511,41.3728" style="stroke:#000000;stroke-width:0.25;"/>
        <!-- Kreisbogen -->
        <path d="M-41.2511,41.3728 A5.6342,5.6342 0 0,1 -41.4005,40.0842" style="stroke:#000000;stroke-width:0.25;"/>
        <!-- Kreisbogen -->
        <path d="M-41.4005,40.0842 A4.4061,4.4061 0 0,1 -40.4976,37.2992" style="stroke:#000000;stroke-width:0.25;"/>
        <!-- Kreisbogen -->
        <path d="M-40.4976,37.2992 A8.9847,8.9847 0 0,1 -38.1258,35.2181" style="stroke:#000000;stroke-width:0.25;"/>
        <!-- Kreisbogen -->
        <path d="M-38.1258,35.2181 A20.937,20.937 0 0,1 -34.7746,33.5501" style="stroke:#000000;stroke-width:0.25;"/>
        <!-- Kreisbogen -->
        <path d="M-34.7746,33.5501 A610.955,610.955 0 0,0 -30.9337,32.0046" style="stroke:#000000;stroke-width:0.25;"/>
        <!-- Kreisbogen -->
        <path d="M-30.9337,32.0046 A52.0651,52.0651 0 0,0 -27.0929,30.2601" style="stroke:#000000;stroke-width:0.25;"/>
        <!-- Kreisbogen -->
        <path d="M-27.0929,30.2601 A15.6495,15.6495 0 0,0 -23.7417,28.0107" style="stroke:#000000;stroke-width:0.25;"/>
        <!-- Kreisbogen -->
        <path d="M-23.7417,28.0107 A10.4453,10.4453 0 0,0 -21.3699,24.9656" style="stroke:#000000;stroke-width:0.25;"/>
        <!-- Kreisbogen -->
        <path d="M-21.3699,24.9656 A7.3352,7.3352 0 0,0 -20.7182,23.16" style="stroke:#000000;stroke-width:0.25;"/>
        <!-- Kreisbogen -->
        <path d="M-20.7182,23.16 A10.8956,10.8956 0 0,0 -20.467,20.834" style="stroke:#000000;stroke-width:0.25;"/>
        <!-- Kreisbogen -->
        <path d="M8.7835,27.7506 A11.6089,11.6089 0 0,1 8.3856,31.4996" style="stroke:#000000;stroke-width:0.25;"/>
        <!-- Kreisbogen -->
        <path d="M8.3856,31.4996 A7.8915,7.8915 0 0,1 6.8707,34.4223" style="stroke:#000000;stroke-width:0.25;"/>
        <!-- Kreisbogen -->
        <path d="M6.8707,34.4223 A7.0561,7.0561 0 0,1 4.3152,36.3351" style="stroke:#000000;stroke-width:0.25;"/>
        <!-- Kreisbogen -->
        <path d="M4.3152,36.3351 A8.577,8.577 0 0,1 0.7651,37.0237" style="stroke:#000000;stroke-width:0.25;"/>
        <!-- Kreisbogen -->
        <path d="M0.7651,37.0237 A7.4149,7.4149 0 0,1 -2.4178,36.3504" style="stroke:#000000;stroke-width:0.25;"/>
        <!-- Kreisbogen -->
        <path d="M-2.4178,36.3504 A7.2585,7.2585 0 0,1 -4.8967,34.4529" style="stroke:#000000;stroke-width:0.25;"/>
        <!-- Kreisbogen -->
        <path d="M-4.8967,34.4529 A9.8017,9.8017 0 0,1 -6.58,31.5149" style="stroke:#000000;stroke-width:0.25;"/>
        <!-- Kreisbogen -->
        <path d="M-6.58,31.5149 A13.5462,13.5462 0 0,1 -7.3757,27.7506" style="stroke:#000000;stroke-width:0.25;"/>
        <!-- Linie -->
        <line x1="-7.3757" y1="27.7506" x2="8.7835" y2="27.7506" style="stroke:#000000;stroke-width:0.25;"/>
        <!-- Kreisbogen -->
        <path d="M14.3229,26.9855 A48.8467,48.8467 0 0,0 14.2923,25.088" style="stroke:#000000;stroke-width:0.25;"/>
        <!-- Kreisbogen -->
        <path d="M14.2923,25.088 A28.5205,28.5205 0 0,0 14.2005,23.6496" style="stroke:#000000;stroke-width:0.25;"/>
        <!-- Linie -->
        <line x1="14.2005" y1="23.6496" x2="-7.3757" y2="23.6496" style="stroke:#000000;stroke-width:0.25;"/>
        <!-- Kreisbogen -->
        <path d="M-7.3757,23.6496 A15.043,15.043 0 0,1 -7.2193,21.4862" style="stroke:#000000;stroke-width:0.25;"/>
        <!-- Kreisbogen -->
        <path d="M-7.2193,21.4862 A10.2422,10.2422 0 0,1 -6.8081,19.7443" style="stroke:#000000;stroke-width:0.25;"/>
        <!-- Kreisbogen -->
        <path d="M-6.8081,19.7443 A8.6901,8.6901 0 0,1 -5.9447,17.8957" style="stroke:#000000;stroke-width:0.25;"/>
        <!-- Kreisbogen -->
        <path d="M-5.9447,17.8957 A7.6094,7.6094 0 0,1 -4.7437,16.4116" style="stroke:#000000;stroke-width:0.25;"/>
        <!-- Kreisbogen -->
        <path d="M-4.7437,16.4116 A7.7245,7.7245 0 0,1 -3.1918,15.2583" style="stroke:#000000;stroke-width:0.25;"/>
        <!-- Kreisbogen -->
        <path d="M-3.1918,15.2583 A9.6057,9.6057 0 0,1 -1.2069,14.4163" style="stroke:#000000;stroke-width:0.25;"/>
        <!-- Kreisbogen -->
        <path d="M-1.2069,14.4163 A11.624,11.624 0 0,1 0.597,14.0331" style="stroke:#000000;stroke-width:0.25;"/>
        <!-- Kreisbogen -->
        <path d="M0.597,14.0331 A17.363,17.363 0 0,1 2.8462,13.8868" style="stroke:#000000;stroke-width:0.25;"/>
        <!-- Kreisbogen -->
        <path d="M2.8462,13.8868 A33.951,33.951 0 0,1 5.5394,13.9939" style="stroke:#000000;stroke-width:0.25;"/>
        <!-- Kreisbogen -->
        <path d="M5.5394,13.9939 A39.7274,39.7274 0 0,1 8.1408,14.2846" style="stroke:#000000;stroke-width:0.25;"/>
        <!-- Kreisbogen -->
        <path d="M8.1408,14.2846 A46.856,46.856 0 0,1 10.5432,14.6978" style="stroke:#000000;stroke-width:0.25;"/>
        <!-- Kreisbogen -->
        <path d="M10.5432,14.6978 A28.5772,28.5772 0 0,1 12.6702,15.2028" style="stroke:#000000;stroke-width:0.25;"/>
        <!-- Linie -->
        <line x1="12.6702" y1="15.2028" x2="12.6702" y2="10.8263" style="stroke:#000000;stroke-width:0.25;"/>
        <!-- Kreisbogen -->
        <path d="M12.6702,10.8263 A37.1752,37.1752 0 0,0 7.7582,9.8317" style="stroke:#000000;stroke-width:0.25;"/>
        <!-- Kreisbogen -->
        <path d="M7.7582,9.8317 A41.0157,41.0157 0 0,0 2.0811,9.4491" style="stroke:#000000;stroke-width:0.25;"/>
        <!-- Kreisbogen -->
        <path d="M2.0811,9.4491 A24.9945,24.9945 0 0,0 -1.8114,9.7541" style="stroke:#000000;stroke-width:0.25;"/>
        <!-- Kreisbogen -->
        <path d="M-1.8114,9.7541 A14.7675,14.7675 0 0,0 -4.7131,10.5203" style="stroke:#000000;stroke-width:0.25;"/>
        <!-- Kreisbogen -->
        <path d="M-4.7131,10.5203 A11.6288,11.6288 0 0,0 -9.3803,13.6266" style="stroke:#000000;stroke-width:0.25;"/>
        <!-- Kreisbogen -->
        <path d="M-9.3803,13.6266 A12.7895,12.7895 0 0,0 -12.0735,18.6151" style="stroke:#000000;stroke-width:0.25;"/>
        <!-- Kreisbogen -->
        <path d="M-12.0735,18.6151 A23.6079,23.6079 0 0,0 -12.9457,25.3022" style="stroke:#000000;stroke-width:0.25;"/>
        <!-- Kreisbogen -->
        <path d="M-12.9457,25.3022 A19.8573,19.8573 0 0,0 -12.0122,31.4384" style="stroke:#000000;stroke-width:0.25;"/>
        <!-- Kreisbogen -->
        <path d="M-12.0122,31.4384 A15.4037,15.4037 0 0,0 -9.2884,36.5187" style="stroke:#000000;stroke-width:0.25;"/>
        <!-- Kreisbogen -->
        <path d="M-9.2884,36.5187 A13.0936,13.0936 0 0,0 -4.8967,39.9923" style="stroke:#000000;stroke-width:0.25;"/>
        <!-- Kreisbogen -->
        <path d="M-4.8967,39.9923 A11.6448,11.6448 0 0,0 -2.2143,40.931" style="stroke:#000000;stroke-width:0.25;"/>
        <!-- Kreisbogen -->
        <path d="M-2.2143,40.931 A15.1631,15.1631 0 0,0 1.0099,41.2777" style="stroke:#000000;stroke-width:0.25;"/>
        <!-- Kreisbogen -->
        <path d="M1.0099,41.2777 A18.0833,18.0833 0 0,0 4.1689,40.9997" style="stroke:#000000;stroke-width:0.25;"/>
        <!-- Kreisbogen -->
        <path d="M4.1689,40.9997 A12.5042,12.5042 0 0,0 6.7024,40.2678" style="stroke:#000000;stroke-width:0.25;"/>
        <!-- Kreisbogen -->
        <path d="M6.7024,40.2678 A11.4303,11.4303 0 0,0 10.8799,37.4063" style="stroke:#000000;stroke-width:0.25;"/>
        <!-- Kreisbogen -->
        <path d="M10.8799,37.4063 A12.2,12.2 0 0,0 13.4507,32.9074" style="stroke:#000000;stroke-width:0.25;"/>
        <!-- Kreisbogen -->
        <path d="M13.4507,32.9074 A18.8602,18.8602 0 0,0 14.3229,26.9855" style="stroke:#000000;stroke-width:0.25;"/>
        <!-- Linie -->
        <line x1="-34.1129" y1="-50" x2="-40.9989" y2="-50" style="stroke:#000000;stroke-width:0.25;"/>
        <!-- Linie -->
        <line x1="-40.9989" y1="-50" x2="-50.7311" y2="-33.8409" style="stroke:#000000;stroke-width:0.25;"/>
        <!-- Linie -->
        <line x1="-50.7311" y1="-33.8409" x2="-60.494" y2="-50" style="stroke:#000000;stroke-width:0.25;"/>
        <!-- Linie -->
        <line x1="-60.494" y1="-50" x2="-67.2881" y2="-50" style="stroke:#000000;stroke-width:0.25;"/>
        <!-- Linie -->
        <line x1="-67.2881" y1="-50" x2="-53.9752" y2="-29.5562" style="stroke:#000000;stroke-width:0.25;"/>
        <!-- Linie -->
        <line x1="-53.9752" y1="-29.5562" x2="-66.217" y2="-10" style="stroke:#000000;stroke-width:0.25;"/>
        <!-- Linie -->
        <line x1="-66.217" y1="-10" x2="-59.7594" y2="-10" style="stroke:#000000;stroke-width:0.25;"/>
        <!-- Linie -->
        <line x1="-59.7594" y1="-10" x2="-50.6087" y2="-25.0574" style="stroke:#000000;stroke-width:0.25;"/>
        <!-- Linie -->
        <line x1="-50.6087" y1="-25.0574" x2="-41.3968" y2="-10" style="stroke:#000000;stroke-width:0.25;"/>
        <!-- Linie -->
        <line x1="-41.3968" y1="-10" x2="-35.1229" y2="-10" style="stroke:#000000;stroke-width:0.25;"/>
        <!-- Linie -->
        <line x1="-35.1229" y1="-10" x2="-47.3953" y2="-29.3114" style="stroke:#000000;stroke-width:0.25;"/>
        <!-- Linie -->
        <line x1="-47.3953" y1="-29.3114" x2="-34.1129" y2="-50" style="stroke:#000000;stroke-width:0.25;"/>
        <!-- Linie -->
        <line x1="31.4577" y1="-30.2295" x2="5.1379" y2="-30.2295" style="stroke:#000000;stroke-width:0.25;"/>
        <!-- Linie -->
        <line x1="5.1379" y1="-30.2295" x2="5.1379" y2="-25.7307" style="stroke:#000000;stroke-width:0.25;"/>
        <!-- Linie -->
        <line x1="5.1379" y1="-25.7307" x2="31.4577" y2="-25.7307" style="stroke:#000000;stroke-width:0.25;"/>
        <!-- Linie -->
        <line x1="31.4577" y1="-25.7307" x2="31.4577" y2="-30.2295" style="stroke:#000000;stroke-width:0.25;"/>
        <!-- Linie -->
        <line x1="1.0748" y1="-10" x2="-13.4011" y2="-35.7077" style="stroke:#000000;stroke-width:0.25;"/>
        <!-- Linie -->
        <line x1="-13.4011" y1="-35.7077" x2="-13.4011" y2="-50" style="stroke:#000000;stroke-width:0.25;"/>
        <!-- Linie -->
        <line x1="-13.4011" y1="-50" x2="-18.9099" y2="-50" style="stroke:#000000;stroke-width:0.25;"/>
        <!-- Linie -->
        <line x1="-18.9099" y1="-50" x2="-18.9099" y2="-35.5853" style="stroke:#000000;stroke-width:0.25;"/>
        <!-- Linie -->
        <line x1="-18.9099" y1="-35.5853" x2="-33.3858" y2="-10" style="stroke:#000000;stroke-width:0.25;"/>
        <!-- Linie -->
        <line x1="-33.3858" y1="-10" x2="-26.8058" y2="-10" style="stroke:#000000;stroke-width:0.25;"/>
        <!-- Linie -->
        <line x1="-26.8058" y1="-10" x2="-18.8487" y2="-24.6289" style="stroke:#000000;stroke-width:0.25;"/>
        <!-- Linie -->
        <line x1="-18.8487" y1="-24.6289" x2="-15.9106" y2="-30.505" style="stroke:#000000;stroke-width:0.25;"/>
        <!-- Linie -->
        <line x1="-15.9106" y1="-30.505" x2="-13.2174" y2="-25.1798" style="stroke:#000000;stroke-width:0.25;"/>
        <!-- Linie -->
        <line x1="-13.2174" y1="-25.1798" x2="-5.1685" y2="-10" style="stroke:#000000;stroke-width:0.25;"/>
        <!-- Linie -->
        <line x1="-5.1685" y1="-10" x2="1.0748" y2="-10" style="stroke:#000000;stroke-width:0.25;"/>
        <!-- Kreisbogen -->
        <path d="M67.2881,-30.0153 A35.4773,35.4773 0 0,0 66.37,-38.3856" style="stroke:#000000;stroke-width:0.25;"/>
        <!-- Kreisbogen -->
        <path d="M66.37,-38.3856 A23.0209,23.0209 0 0,0 65.154,-42.0319" style="stroke:#000000;stroke-width:0.25;"/>
        <!-- Kreisbogen -->
        <path d="M65.154,-42.0319 A16.4197,16.4197 0 0,0 63.585,-44.8738" style="stroke:#000000;stroke-width:0.25;"/>
        <!-- Kreisbogen -->
        <path d="M63.585,-44.8738 A13.0967,13.0967 0 0,0 58.9484,-49.0666" style="stroke:#000000;stroke-width:0.25;"/>
        <!-- Kreisbogen -->
        <path d="M58.9484,-49.0666 A11.3397,11.3397 0 0,0 57.4607,-49.731" style="stroke:#000000;stroke-width:0.25;"/>
        <!-- Kreisbogen -->
        <path d="M57.4607,-49.731 A12.8896,12.8896 0 0,0 55.7916,-50.2123" style="stroke:#000000;stroke-width:0.25;"/>
        <!-- Kreisbogen -->
        <path d="M55.7916,-50.2123 A14.1693,14.1693 0 0,0 54.2187,-50.4614" style="stroke:#000000;stroke-width:0.25;"/>
        <!-- Kreisbogen -->
        <path d="M54.2187,-50.4614 A17.6208,17.6208 0 0,0 52.445,-50.5509" style="stroke:#000000;stroke-width:0.25;"/>
        <!-- Kreisbogen -->
        <path d="M52.445,-50.5509 A13.8402,13.8402 0 0,0 46.5995,-49.342" style="stroke:#000000;stroke-width:0.25;"/>
        <!-- Kreisbogen -->
        <path d="M46.5995,-49.342 A11.6133,11.6133 0 0,0 42.1007,-45.6236" style="stroke:#000000;stroke-width:0.25;"/>
        <!-- Kreisbogen -->
        <path d="M42.1007,-45.6236 A14.2297,14.2297 0 0,0 40.5402,-42.9671" style="stroke:#000000;stroke-width:0.25;"/>
        <!-- Kreisbogen -->
        <path d="M40.5402,-42.9671 A23.5671,23.5671 0 0,0 39.2239,-39.2272" style="stroke:#000000;stroke-width:0.25;"/>
        <!-- Kreisbogen -->
        <path d="M39.2239,-39.2272 A27.5329,27.5329 0 0,0 38.5029,-35.3035" style="stroke:#000000;stroke-width:0.25;"/>
        <!-- Kreisbogen -->
        <path d="M38.5029,-35.3035 A48.5241,48.5241 0 0,0 38.2139,-30.0153" style="stroke:#000000;stroke-width:0.25;"/>
        <!-- Kreisbogen -->
        <path d="M38.2139,-30.0153 A35.1127,35.1127 0 0,0 39.1474,-21.6297" style="stroke:#000000;stroke-width:0.25;"/>
        <!-- Kreisbogen -->
        <path d="M39.1474,-21.6297 A23.6687,23.6687 0 0,0 40.3734,-17.9655" style="stroke:#000000;stroke-width:0.25;"/>
        <!-- Kreisbogen -->
        <path d="M40.3734,-17.9655 A16.6342,16.6342 0 0,0 41.9324,-15.1262" style="stroke:#000000;stroke-width:0.25;"/>
        <!-- Kreisbogen -->
        <path d="M41.9324,-15.1262 A12.9271,12.9271 0 0,0 46.5689,-10.9334" style="stroke:#000000;stroke-width:0.25;"/>
        <!-- Kreisbogen -->
        <path d="M46.5689,-10.9334 A11.6714,11.6714 0 0,0 49.4556,-9.8558" style="stroke:#000000;stroke-width:0.25;"/>
        <!-- Kreisbogen -->
        <path d="M49.4556,-9.8558 A16.1494,16.1494 0 0,0 53.0571,-9.4491" style="stroke:#000000;stroke-width:0.25;"/>
        <!-- Kreisbogen -->
        <path d="M53.0571,-9.4491 A13.8402,13.8402 0 0,0 58.9025,-10.658" style="stroke:#000000;stroke-width:0.25;"/>
        <!-- Kreisbogen -->
        <path d="M58.9025,-10.658 A11.5662,11.5662 0 0,0 63.4014,-14.3917" style="stroke:#000000;stroke-width:0.25;"/>
        <!-- Kreisbogen -->
        <path d="M63.4014,-14.3917 A14.4226,14.4226 0 0,0 64.9633,-17.0622" style="stroke:#000000;stroke-width:0.25;"/>
        <!-- Kreisbogen -->
        <path d="M64.9633,-17.0622 A23.6965,23.6965 0 0,0 66.2782,-20.8034" style="stroke:#000000;stroke-width:0.25;"/>
        <!-- Kreisbogen -->
        <path d="M66.2782,-20.8034 A27.5329,27.5329 0 0,0 66.9991,-24.7271" style="stroke:#000000;stroke-width:0.25;"/>
        <!-- Kreisbogen -->
        <path d="M66.9991,-24.7271 A48.5241,48.5241 0 0,0 67.2881,-30.0153" style="stroke:#000000;stroke-width:0.25;"/>
        <!-- Linie -->
        <line x1="31.4577" y1="-40.8799" x2="5.1379" y2="-40.8799" style="stroke:#000000;stroke-width:0.25;"/>
        <!-- Linie -->
        <line x1="5.1379" y1="-40.8799" x2="5.1379" y2="-36.381" style="stroke:#000000;stroke-width:0.25;"/>
        <!-- Linie -->
        <line x1="5.1379" y1="-36.381" x2="31.4577" y2="-36.381" style="stroke:#000000;stroke-width:0.25;"/>
        <!-- Linie -->
        <line x1="31.4577" y1="-36.381" x2="31.4577" y2="-40.8799" style="stroke:#000000;stroke-width:0.25;"/>
        <!-- Kreisbogen -->
        <path d="M43.6003,-29.8317 A117.6568,117.6568 0 0,1 43.6156,-31.7292" style="stroke:#000000;stroke-width:0.25;"/>
        <!-- Kreisbogen -->
        <path d="M43.6156,-31.7292 A21.1653,21.1653 0 0,1 43.7227,-33.5654" style="stroke:#000000;stroke-width:0.25;"/>
        <!-- Linie -->
        <line x1="43.7227" y1="-33.5654" x2="60.647" y2="-21.0482" style="stroke:#000000;stroke-width:0.25;"/>
        <!-- Kreisbogen -->
        <path d="M60.647,-21.0482 A14.3189,14.3189 0 0,1 59.484,-18.202" style="stroke:#000000;stroke-width:0.25;"/>
        <!-- Kreisbogen -->
        <path d="M59.484,-18.202 A9.0245,9.0245 0 0,1 57.8008,-15.9832" style="stroke:#000000;stroke-width:0.25;"/>
        <!-- Kreisbogen -->
        <path d="M57.8008,-15.9832 A7.2164,7.2164 0 0,1 55.5666,-14.5295" style="stroke:#000000;stroke-width:0.25;"/>
        <!-- Kreisbogen -->
        <path d="M55.5666,-14.5295 A7.2884,7.2884 0 0,1 52.751,-14.0092" style="stroke:#000000;stroke-width:0.25;"/>
        <!-- Kreisbogen -->
        <path d="M52.751,-14.0092 A7.2554,7.2554 0 0,1 48.9714,-15.0191" style="stroke:#000000;stroke-width:0.25;"/>
        <!-- Kreisbogen -->
        <path d="M48.9714,-15.0191 A8.4028,8.4028 0 0,1 46.0793,-18.0337" style="stroke:#000000;stroke-width:0.25;"/>
        <!-- Kreisbogen -->
        <path d="M46.0793,-18.0337 A12.6774,12.6774 0 0,1 45.0838,-20.1164" style="stroke:#000000;stroke-width:0.25;"/>
        <!-- Kreisbogen -->
        <path d="M45.0838,-20.1164 A21.3493,21.3493 0 0,1 44.243,-22.9916" style="stroke:#000000;stroke-width:0.25;"/>
        <!-- Kreisbogen -->
        <path d="M44.243,-22.9916 A32.4151,32.4151 0 0,1 43.6003,-29.8317" style="stroke:#000000;stroke-width:0.25;"/>
        <!-- Kreisbogen -->
        <path d="M61.9018,-30.1989 A27.7496,27.7496 0 0,1 61.8252,-28.1331" style="stroke:#000000;stroke-width:0.25;"/>
        <!-- Kreisbogen -->
        <path d="M61.8252,-28.1331 A105.9811,105.9811 0 0,1 61.6569,-26.1285" style="stroke:#000000;stroke-width:0.25;"/>
        <!-- Linie -->
        <line x1="61.6569" y1="-26.1285" x2="44.7327" y2="-38.707" style="stroke:#000000;stroke-width:0.25;"/>
        <!-- Kreisbogen -->
        <path d="M44.7327,-38.707 A15.743,15.743 0 0,1 45.8956,-41.645" style="stroke:#000000;stroke-width:0.25;"/>
        <!-- Kreisbogen -->
        <path d="M45.8956,-41.645 A8.9756,8.9756 0 0,1 47.5942,-43.9556" style="stroke:#000000;stroke-width:0.25;"/>
        <!-- Kreisbogen -->
        <path d="M47.5942,-43.9556 A7.3066,7.3066 0 0,1 49.8589,-45.4552" style="stroke:#000000;stroke-width:0.25;"/>
        <!-- Kreisbogen -->
        <path d="M49.8589,-45.4552 A7.3837,7.3837 0 0,1 52.751,-45.9908" style="stroke:#000000;stroke-width:0.25;"/>
        <!-- Kreisbogen -->
        <path d="M52.751,-45.9908 A7.2554,7.2554 0 0,1 56.5307,-44.9809" style="stroke:#000000;stroke-width:0.25;"/>
        <!-- Kreisbogen -->
        <path d="M56.5307,-44.9809 A8.4355,8.4355 0 0,1 59.4228,-41.9816" style="stroke:#000000;stroke-width:0.25;"/>
        <!-- Kreisbogen -->
        <path d="M59.4228,-41.9816 A12.442,12.442 0 0,1 60.417,-39.9133" style="stroke:#000000;stroke-width:0.25;"/>
        <!-- Kreisbogen -->
        <path d="M60.417,-39.9133 A21.1939,21.1939 0 0,1 61.2591,-37.039" style="stroke:#000000;stroke-width:0.25;"/>
        <!-- Kreisbogen -->
        <path d="M61.2591,-37.039 A32.4151,32.4151 0 0,1 61.9018,-30.1989" style="stroke:#000000;stroke-width:0.25;"/>
        <!-- Schraffur -->
        <path d="M40.3734,-17.9655 A16.6342,16.6342 0 0 0 41.9324,-15.1262 A12.9271,12.9271 0 0 0 46.5689,-10.9334 A11.6714,11.6714 0 0 0 49.4556,-9.8558 A16.1494,16.1494 0 0 0 53.0571,-9.4491 A13.8402,13.8402 0 0 0 58.9025,-10.658 A11.5662,11.5662 0 0 0 63.4014,-14.3917 A14.4226,14.4226 0 0 0 64.9633,-17.0622 A23.6965,23.6965 0 0 0 66.2782,-20.8034 A27.5329,27.5329 0 0 0 66.9991,-24.7271 A48.5241,48.5241 0 0 0 67.2881,-30.0153 A35.4773,35.4773 0 0 0 66.37,-38.3856 A23.0209,23.0209 0 0 0 65.154,-42.0319 A16.4197,16.4197 0 0 0 63.585,-44.8738 A13.0967,13.0967 0 0 0 58.9484,-49.0666 A11.3397,11.3397 0 0 0 57.4607,-49.731 A12.8896,12.8896 0 0 0 55.7916,-50.2123 A14.1693,14.1693 0 0 0 54.2187,-50.4614 A17.6208,17.6208 0 0 0 52.445,-50.5509 A13.8402,13.8402 0 0 0 46.5995,-49.342 A11.6133,11.6133 0 0 0 42.1007,-45.6236 A14.2297,14.2297 0 0 0 40.5402,-42.9671 A23.5671,23.5671 0 0 0 39.2239,-39.2272 A27.5329,27.5329 0 0 0 38.5029,-35.3035 A48.5241,48.5241 0 0 0 38.2139,-30.0153 A35.1127,35.1127 0 0 0 39.1474,-21.6297 A23.6687,23.6687 0 0 0 40.3734,-17.9655M-5.1685,-10 L1.0748,-10 L-13.4011,-35.7077 L-13.4011,-50 L-18.9099,-50 L-18.9099,-35.5853 L-33.3858,-10 L-26.8058,-10 L-18.8487,-24.6289 L-15.9106,-30.505 L-13.2174,-25.1798 ZM47.5826,15.0191 L47.5826,10.4285 A25.9368,25.9368 0 0 0 43.8488,9.7705 A38.1482,38.1482 0 0 0 39.9314,9.5715 A22.6585,22.6585 0 0 0 37.3713,9.7166 A14.4537,14.4537 0 0 0 35.3579,10.0916 A11.3264,11.3264 0 0 0 33.0154,10.9895 A7.87537,7.87537 0 0 0 31.301,12.1882 A7.4076,7.4076 0 0 0 29.9944,13.7776 A9.39042,9.39042 0 0 0 29.0391,15.8881 A11.6647,11.6647 0 0 0 28.6178,17.7923 A18.1842,18.1842 0 0 0 28.4548,20.2219 L28.4548,36.2586 L19.8549,36.2586 L19.8549,40.7269 L28.4548,40.7269 L28.4548,49.1737 L33.78,50.5509 L33.78,40.7269 L47.5826,40.7269 L47.5826,36.2586 L33.78,36.2586 L33.78,20.6503 A10.976,10.976 0 0 1 33.8817,19.1595 A7.13609,7.13609 0 0 1 34.1455,17.9839 A5.81591,5.81591 0 0 1 34.733,16.6942 A4.70211,4.70211 0 0 1 35.5397,15.7077 A5.02034,5.02034 0 0 1 36.5873,14.9586 A6.71715,6.71715 0 0 1 37.9701,14.4047 A8.34574,8.34574 0 0 1 39.191,14.1632 A12.7626,12.7626 0 0 1 40.7272,14.0704 A24.7673,24.7673 0 0 1 43.9406,14.2999 A30.5537,30.5537 0 0 1 47.5826,15.0191M5.1379,-30.2295 L5.1379,-25.7307 L31.4577,-25.7307 L31.4577,-30.2295 ZM-47.3953,-29.3114 L-34.1129,-50 L-40.9989,-50 L-50.7311,-33.8409 L-60.494,-50 L-67.2881,-50 L-53.9752,-29.5562 L-66.217,-10 L-59.7594,-10 L-50.6087,-25.0574 L-41.3968,-10 L-35.1229,-10 ZM-4.8967,39.9923 A11.6448,11.6448 0 0 0 -2.2143,40.931 A15.1631,15.1631 0 0 0 1.0099,41.2777 A18.0833,18.0833 0 0 0 4.1689,40.9997 A12.5042,12.5042 0 0 0 6.7024,40.2678 A11.4303,11.4303 0 0 0 10.8799,37.4063 A12.2,12.2 0 0 0 13.4507,32.9074 A18.8602,18.8602 0 0 0 14.3229,26.9855 A48.8467,48.8467 0 0 0 14.2923,25.088 A28.5205,28.5205 0 0 0 14.2005,23.6496 L-7.3757,23.6496 A15.043,15.043 0 0 1 -7.2193,21.4862 A10.2422,10.2422 0 0 1 -6.8081,19.7443 A8.69008,8.69008 0 0 1 -5.9447,17.8957 A7.60943,7.60943 0 0 1 -4.7437,16.4116 A7.72449,7.72449 0 0 1 -3.1918,15.2583 A9.60574,9.60574 0 0 1 -1.2069,14.4163 A11.624,11.624 0 0 1 0.597,14.0331 A17.363,17.363 0 0 1 2.8462,13.8868 A33.951,33.951 0 0 1 5.5394,13.9939 A39.7274,39.7274 0 0 1 8.1408,14.2846 A46.856,46.856 0 0 1 10.5432,14.6978 A28.5772,28.5772 0 0 1 12.6702,15.2028 L12.6702,10.8263 A37.1752,37.1752 0 0 0 7.7582,9.8317 A41.0157,41.0157 0 0 0 2.0811,9.4491 A24.9945,24.9945 0 0 0 -1.8114,9.7541 A14.7675,14.7675 0 0 0 -4.7131,10.5203 A11.6288,11.6288 0 0 0 -9.3803,13.6266 A12.7895,12.7895 0 0 0 -12.0735,18.6151 A23.6079,23.6079 0 0 0 -12.9457,25.3022 A19.8573,19.8573 0 0 0 -12.0122,31.4384 A15.4037,15.4037 0 0 0 -9.2884,36.5187 A13.0936,13.0936 0 0 0 -4.8967,39.9923M4.3152,36.3351 A8.57698,8.57698 0 0 1 0.7651,37.0237 A7.41493,7.41493 0 0 1 -2.4178,36.3504 A7.25851,7.25851 0 0 1 -4.8967,34.4529 A9.80165,9.80165 0 0 1 -6.58,31.5149 A13.5462,13.5462 0 0 1 -7.3757,27.7506 L8.7835,27.7506 A11.6089,11.6089 0 0 1 8.3856,31.4996 A7.89151,7.89151 0 0 1 6.8707,34.4223 A7.05609,7.05609 0 0 1 4.3152,36.3351M-30.9337,32.0046 A52.0651,52.0651 0 0 0 -27.0929,30.2601 A15.6495,15.6495 0 0 0 -23.7417,28.0107 A10.4453,10.4453 0 0 0 -21.3699,24.9656 A7.33524,7.33524 0 0 0 -20.7182,23.16 A10.8956,10.8956 0 0 0 -20.467,20.834 A12.1804,12.1804 0 0 0 -20.7851,18.0685 A8.89051,8.89051 0 0 0 -21.63,15.8454 A10.1334,10.1334 0 0 0 -24.8741,12.28 A15.0072,15.0072 0 0 0 -29.8779,10.153 A27.5176,27.5176 0 0 0 -36.3201,9.4491 A40.8899,40.8899 0 0 0 -39.4877,9.5715 A63.3289,63.3289 0 0 0 -42.5175,9.8776 A44.4109,44.4109 0 0 0 -45.2566,10.306 A34.0225,34.0225 0 0 0 -47.5826,10.8263 L-47.5826,16.0903 A28.5089,28.5089 0 0 1 -42.4257,14.7437 A38.8313,38.8313 0 0 1 -35.9223,14.254 A20.905,20.905 0 0 1 -31.4387,14.6672 A8.62927,8.62927 0 0 1 -28.4089,15.8914 A4.85743,4.85743 0 0 1 -26.695,17.8653 A6.29926,6.29926 0 0 1 -26.1594,20.5279 A4.34265,4.34265 0 0 1 -27.0623,23.2976 A8.90155,8.90155 0 0 1 -29.4341,25.3481 A21.8208,21.8208 0 0 1 -32.7853,27.0008 A610.955,610.955 0 0 0 -36.6262,28.5463 A56.5269,56.5269 0 0 0 -40.467,30.2754 A15.8811,15.8811 0 0 0 -43.8182,32.479 A10.189,10.189 0 0 0 -46.1901,35.4629 A7.11744,7.11744 0 0 0 -46.8415,37.2389 A10.5955,10.5955 0 0 0 -47.0929,39.5333 A10.1248,10.1248 0 0 0 -46.236,43.5731 A9.67769,9.67769 0 0 0 -43.5734,47.1079 A10.9429,10.9429 0 0 0 -41.6419,48.4314 A17.3415,17.3415 0 0 0 -38.9368,49.6021 A16.103,16.103 0 0 0 -36.0617,50.2799 A27.8205,27.8205 0 0 0 -32.1885,50.5509 A28.2908,28.2908 0 0 0 -30.0003,50.4591 A39.6389,39.6389 0 0 0 -27.6132,50.1989 A58.2538,58.2538 0 0 0 -25.226,49.8164 A38.7039,38.7039 0 0 0 -23.0378,49.3573 L-23.0378,44.4606 A37.0821,37.0821 0 0 1 -27.7509,45.4858 A30.8711,30.8711 0 0 1 -32.3109,45.8378 A24.8872,24.8872 0 0 1 -34.3161,45.7569 A15.345,15.345 0 0 1 -35.8782,45.5494 A11.3144,11.3144 0 0 1 -37.8654,44.9893 A6.05196,6.05196 0 0 1 -39.1969,44.277 A6.04386,6.04386 0 0 1 -40.1802,43.4055 A4.63323,4.63323 0 0 1 -40.8413,42.464 A4.54833,4.54833 0 0 1 -41.2511,41.3728 A5.63419,5.63419 0 0 1 -41.4005,40.0842 A4.40607,4.40607 0 0 1 -40.4976,37.2992 A8.98475,8.98475 0 0 1 -38.1258,35.2181 A20.937,20.937 0 0 1 -34.7746,33.5501 A610.955,610.955 0 0 0 -30.9337,32.0046M49.8589,-45.4552 A7.38374,7.38374 0 0 1 52.751,-45.9908 A7.25543,7.25543 0 0 1 56.5307,-44.9809 A8.43548,8.43548 0 0 1 59.4228,-41.9816 A12.442,12.442 0 0 1 60.417,-39.9133 A21.1939,21.1939 0 0 1 61.2591,-37.039 A32.4151,32.4151 0 0 1 61.9018,-30.1989 A27.7496,27.7496 0 0 1 61.8252,-28.1331 A105.981,105.981 0 0 1 61.6569,-26.1285 L44.7327,-38.707 A15.743,15.743 0 0 1 45.8956,-41.645 A8.97556,8.97556 0 0 1 47.5942,-43.9556 A7.3066,7.3066 0 0 1 49.8589,-45.4552M45.0838,-20.1164 A21.3493,21.3493 0 0 1 44.243,-22.9916 A32.4151,32.4151 0 0 1 43.6003,-29.8317 A117.657,117.657 0 0 1 43.6156,-31.7292 A21.1653,21.1653 0 0 1 43.7227,-33.5654 L60.647,-21.0482 A14.3189,14.3189 0 0 1 59.484,-18.202 A9.0245,9.0245 0 0 1 57.8008,-15.9832 A7.21636,7.21636 0 0 1 55.5666,-14.5295 A7.28841,7.28841 0 0 1 52.751,-14.0092 A7.25543,7.25543 0 0 1 48.9714,-15.0191 A8.40284,8.40284 0 0 1 46.0793,-18.0337 A12.6774,12.6774 0 0 1 45.0838,-20.1164M31.4577,-40.8799 L5.1379,-40.8799 L5.1379,-36.381 L31.4577,-36.381 Z" style="fill:#000000;fill-rule:evenodd;"/>
    </g>
</svg>
