<?xml version="1.0" encoding="UTF-8"?>
<!-- 2020-10-26 15:40:21 Generated by QCAD 3.24.2 SVG Exporter PG -->
<svg width="212mm" height="212mm" viewBox="-106 -106 212 212" version="1.1" xmlns="http://www.w3.org/2000/svg" style="stroke-linecap:round;stroke-linejoin:round;fill:none">
    <g transform="scale(1,-1)">
        <!-- Linie -->
        <line x1="-80" y1="0" x2="-40" y2="0" style="stroke:#000000;stroke-width:2;"/>
        <!-- Linie -->
        <line x1="40" y1="0" x2="80" y2="0" style="stroke:#000000;stroke-width:2;"/>
        <!-- Linie -->
        <line x1="0" y1="80" x2="0" y2="40" style="stroke:#000000;stroke-width:2;"/>
        <!-- Linie -->
        <line x1="0" y1="-40" x2="0" y2="-80" style="stroke:#000000;stroke-width:2;"/>
        <!-- Linie -->
        <line x1="63.785" y1="-70.856" x2="46.4645" y2="-53.5355" style="stroke:#000000;stroke-width:2;"/>
        <!-- Linie -->
        <line x1="53.5355" y1="-46.4645" x2="70.856" y2="-63.785" style="stroke:#000000;stroke-width:2;"/>
        <!-- Linie -->
        <line x1="63.785" y1="-70.856" x2="70.856" y2="-63.785" style="stroke:#000000;stroke-width:2;"/>
        <!-- Linie -->
        <line x1="32.3223" y1="-32.3223" x2="32.3223" y2="-67.6777" style="stroke:#000000;stroke-width:2;"/>
        <!-- Linie -->
        <line x1="32.3223" y1="-32.3223" x2="67.6777" y2="-32.3223" style="stroke:#000000;stroke-width:2;"/>
        <!-- Linie -->
        <line x1="67.6777" y1="-32.3223" x2="53.5355" y2="-46.4645" style="stroke:#000000;stroke-width:2;"/>
        <!-- Linie -->
        <line x1="32.3223" y1="-67.6777" x2="46.4645" y2="-53.5355" style="stroke:#000000;stroke-width:2;"/>
        <!-- Schraffur -->
        <path d="M100,-85.5 L100,85.5 A14.5,14.5 0 0 1 85.5,100 L-85.5,100 A14.5,14.5 0 0 1 -100,85.5 L-100,-85.5 A14.5,14.5 0 0 1 -85.5,-100 L85.5,-100 A14.5,14.5 0 0 1 100,-85.5M-85.5,95 A9.5,9.5 0 0 1 -95,85.5 L-95,-85.5 A9.5,9.5 0 0 1 -85.5,-95 L85.5,-95 A9.5,9.5 0 0 1 95,-85.5 L95,85.5 A9.5,9.5 0 0 1 85.5,95 Z" style="fill:#000000;fill-rule:evenodd;"/>
        <!-- Linie -->
        <line x1="34.1815" y1="20" x2="19.7056" y2="-5.7077" style="stroke:#000000;stroke-width:0.25;"/>
        <!-- Linie -->
        <line x1="19.7056" y1="-5.7077" x2="19.7056" y2="-20" style="stroke:#000000;stroke-width:0.25;"/>
        <!-- Linie -->
        <line x1="19.7056" y1="-20" x2="14.1968" y2="-20" style="stroke:#000000;stroke-width:0.25;"/>
        <!-- Linie -->
        <line x1="14.1968" y1="-20" x2="14.1968" y2="-5.5853" style="stroke:#000000;stroke-width:0.25;"/>
        <!-- Linie -->
        <line x1="14.1968" y1="-5.5853" x2="-0.2791" y2="20" style="stroke:#000000;stroke-width:0.25;"/>
        <!-- Linie -->
        <line x1="-0.2791" y1="20" x2="6.3008" y2="20" style="stroke:#000000;stroke-width:0.25;"/>
        <!-- Linie -->
        <line x1="6.3008" y1="20" x2="14.258" y2="5.3711" style="stroke:#000000;stroke-width:0.25;"/>
        <!-- Linie -->
        <line x1="14.258" y1="5.3711" x2="17.196" y2="-0.505" style="stroke:#000000;stroke-width:0.25;"/>
        <!-- Linie -->
        <line x1="17.196" y1="-0.505" x2="19.8892" y2="4.8202" style="stroke:#000000;stroke-width:0.25;"/>
        <!-- Linie -->
        <line x1="19.8892" y1="4.8202" x2="27.9382" y2="20" style="stroke:#000000;stroke-width:0.25;"/>
        <!-- Linie -->
        <line x1="27.9382" y1="20" x2="34.1815" y2="20" style="stroke:#000000;stroke-width:0.25;"/>
        <!-- Linie -->
        <line x1="-1.0063" y1="-20" x2="-7.8923" y2="-20" style="stroke:#000000;stroke-width:0.25;"/>
        <!-- Linie -->
        <line x1="-7.8923" y1="-20" x2="-17.6245" y2="-3.8409" style="stroke:#000000;stroke-width:0.25;"/>
        <!-- Linie -->
        <line x1="-17.6245" y1="-3.8409" x2="-27.3873" y2="-20" style="stroke:#000000;stroke-width:0.25;"/>
        <!-- Linie -->
        <line x1="-27.3873" y1="-20" x2="-34.1815" y2="-20" style="stroke:#000000;stroke-width:0.25;"/>
        <!-- Linie -->
        <line x1="-34.1815" y1="-20" x2="-20.8686" y2="0.4438" style="stroke:#000000;stroke-width:0.25;"/>
        <!-- Linie -->
        <line x1="-20.8686" y1="0.4438" x2="-33.1103" y2="20" style="stroke:#000000;stroke-width:0.25;"/>
        <!-- Linie -->
        <line x1="-33.1103" y1="20" x2="-26.6528" y2="20" style="stroke:#000000;stroke-width:0.25;"/>
        <!-- Linie -->
        <line x1="-26.6528" y1="20" x2="-17.5021" y2="4.9426" style="stroke:#000000;stroke-width:0.25;"/>
        <!-- Linie -->
        <line x1="-17.5021" y1="4.9426" x2="-8.2901" y2="20" style="stroke:#000000;stroke-width:0.25;"/>
        <!-- Linie -->
        <line x1="-8.2901" y1="20" x2="-2.0162" y2="20" style="stroke:#000000;stroke-width:0.25;"/>
        <!-- Linie -->
        <line x1="-2.0162" y1="20" x2="-14.2886" y2="0.6886" style="stroke:#000000;stroke-width:0.25;"/>
        <!-- Linie -->
        <line x1="-14.2886" y1="0.6886" x2="-1.0063" y2="-20" style="stroke:#000000;stroke-width:0.25;"/>
        <!-- Schraffur -->
        <path d="M-17.6245,-3.8409 L-27.3873,-20 L-34.1815,-20 L-20.8686,0.4438 L-33.1103,20 L-26.6528,20 L-17.5021,4.9426 L-8.2901,20 L-2.0162,20 L-14.2886,0.6886 L-1.0063,-20 L-7.8923,-20 ZM-0.2791,20 L6.3008,20 L14.258,5.3711 L17.196,-0.505 L19.8892,4.8202 L27.9382,20 L34.1815,20 L19.7056,-5.7077 L19.7056,-20 L14.1968,-20 L14.1968,-5.5853 Z" style="fill:#000000;fill-rule:evenodd;"/>
    </g>
</svg>
