<?xml version="1.0" encoding="UTF-8"?>
<!-- 2020-10-26 22:40:10 Generated by QCAD 3.24.2 SVG Exporter PG -->
<svg width="212mm" height="212mm" viewBox="-106 -106 212 212" version="1.1" xmlns="http://www.w3.org/2000/svg" style="stroke-linecap:round;stroke-linejoin:round;fill:none">
    <g transform="scale(1,-1)">
        <!-- Schraffur -->
        <path d="M100,-85.5 L100,85.5 A14.5,14.5 0 0 1 85.5,100 L-85.5,100 A14.5,14.5 0 0 1 -100,85.5 L-100,-85.5 A14.5,14.5 0 0 1 -85.5,-100 L85.5,-100 A14.5,14.5 0 0 1 100,-85.5M-85.5,95 A9.5,9.5 0 0 1 -95,85.5 L-95,-85.5 A9.5,9.5 0 0 1 -85.5,-95 L85.5,-95 A9.5,9.5 0 0 1 95,-85.5 L95,85.5 A9.5,9.5 0 0 1 85.5,95 Z" style="fill:#000000;fill-rule:evenodd;"/>
        <!-- Linie -->
        <line x1="67.9215" y1="-60.8504" x2="60.8504" y2="-67.9215" style="stroke:#000000;stroke-width:2;"/>
        <!-- Linie -->
        <line x1="18.424" y1="-25.4951" x2="11.8794" y2="-18.9504" style="stroke:#000000;stroke-width:2;"/>
        <!-- Linie -->
        <line x1="18.9504" y1="-11.8794" x2="25.4951" y2="-18.424" style="stroke:#000000;stroke-width:2;"/>
        <!-- Linie -->
        <line x1="14.8885" y1="-29.0306" x2="29.0306" y2="-14.8885" style="stroke:#000000;stroke-width:2;"/>
        <!-- Linie -->
        <line x1="29.0306" y1="-14.8885" x2="71.457" y2="-57.3149" style="stroke:#000000;stroke-width:2;"/>
        <!-- Linie -->
        <line x1="71.457" y1="-57.3149" x2="57.3149" y2="-71.457" style="stroke:#000000;stroke-width:2;"/>
        <!-- Linie -->
        <line x1="57.3149" y1="-71.457" x2="14.8885" y2="-29.0306" style="stroke:#000000;stroke-width:2;"/>
        <!-- Schraffur -->
        <path d="M6.3952,42.1384 L6.3952,25.0666 A8,8 0 1 1 6.3952,11.2102 L6.3952,-5.8616 L-10.6766,-5.8616 A8,8 0 1 1 -24.533,-5.8616 L-41.6048,-5.8616 L-41.6048,11.2102 A8,8 0 1 0 -41.6048,25.0666 L-41.6048,42.1384 L-24.533,42.1384 A8,8 0 1 0 -10.6766,42.1384 Z" style="fill:#000000;fill-rule:evenodd;"/>
        <!-- Schraffur -->
        <path d="M31.9664,20.4668 A52.4332,52.4332 0 0 1 -72.9,20.4668 A52.4332,52.4332 0 0 1 31.9664,20.4668M29.0685,20.4668 A49.5354,49.5354 0 0 1 -70.0022,20.4668 A49.5354,49.5354 0 0 1 29.0685,20.4668" style="fill:#000000;fill-rule:evenodd;"/>
    </g>
</svg>
