<?xml version="1.0" encoding="UTF-8"?>
<!-- 2020-10-25 14:23:46 Generated by QCAD 3.24.2 SVG Exporter PG -->
<svg width="210.5mm" height="210.5mm" viewBox="-105.25 -105.25 210.5 210.5" version="1.1" xmlns="http://www.w3.org/2000/svg" style="stroke-linecap:round;stroke-linejoin:round;fill:none">
    <g transform="scale(1,-1)">
        <!-- Polylinie -->
        <path d="M-90,-100 L90,-100 A10,10 0 0 1 100,-90 L100,90 A10,10 0 0 1 90,100 L-90,100 A10,10 0 0 1 -100,90 L-100,-90 A10,10 0 0 1 -90,-100" style="stroke:#000000;stroke-width:0.25;"/>
        <!-- Linie -->
        <line x1="-1" y1="30.4863" x2="-5" y2="50.4863" style="stroke:#000000;stroke-width:0.5;"/>
        <!-- Linie -->
        <line x1="5" y1="50.4863" x2="1" y2="30.4863" style="stroke:#000000;stroke-width:0.5;"/>
        <!-- Linie -->
        <line x1="-5" y1="50.4863" x2="-5" y2="70.4863" style="stroke:#000000;stroke-width:0.5;"/>
        <!-- Linie -->
        <line x1="-5" y1="70.4863" x2="5" y2="70.4863" style="stroke:#000000;stroke-width:0.5;"/>
        <!-- Linie -->
        <line x1="5" y1="70.4863" x2="5" y2="50.4863" style="stroke:#000000;stroke-width:0.5;"/>
        <!-- Schraffur -->
        <path d="M-1,3.3148 A3,3 0 1 1 1,3.3148 L1,30.4863 L5,50.4863 L5,70.4863 L-5,70.4863 L-5,50.4863 L-1,30.4863 Z" style="fill:#000000;fill-rule:evenodd;"/>
        <!-- Polylinie -->
        <path d="M-26.0385,-64.9603 L-27.8855,-60.1054 L-43.6111,-60.1054 L-45.458,-65.0658 A46.5662,46.5662 0 0 0 -45.9047,-66.2174 A26.8603,26.8603 0 0 0 -46.2707,-67.0812 A17.6949,17.6949 0 0 0 -46.8937,-68.3448 A5.15093,5.15093 0 0 0 -47.305,-68.984 A2.21811,2.21811 0 0 0 -47.785,-69.4526 A2.61059,2.61059 0 0 0 -48.4298,-69.7898 A3.24244,3.24244 0 0 0 -49.03,-69.9408 A5.20158,5.20158 0 0 0 -49.8116,-69.9999 A3.6751,3.6751 0 0 0 -52.4237,-68.9181 A4.47297,4.47297 0 0 0 -52.9187,-68.3602 A3.33807,3.33807 0 0 0 -53.2531,-67.8095 A3.06144,3.06144 0 0 0 -53.4806,-67.1582 A3.13586,3.13586 0 0 0 -53.5583,-66.4643 A5.47326,5.47326 0 0 0 -53.2945,-64.8284 A33.2593,33.2593 0 0 0 -52.4237,-62.4801 L-42.5293,-37.3614 A3099,3099 0 0 0 -41.5135,-34.7624 A13.1408,13.1408 0 0 0 -40.247,-32.2426 A5.14526,5.14526 0 0 0 -38.4792,-30.6199 A5.41894,5.41894 0 0 0 -35.7747,-29.9999 A7.17628,7.17628 0 0 0 -34.1857,-30.178 A4.20859,4.20859 0 0 0 -33.0438,-30.6199 A5.25022,5.25022 0 0 0 -31.276,-32.2162 A11.196,11.196 0 0 0 -30.1414,-34.3139 A123.91,123.91 0 0 0 -28.9673,-37.3086 L-18.8617,-62.269 A33.6277,33.6277 0 0 0 -18.4084,-63.4158 A19.2944,19.2944 0 0 0 -18.1023,-64.2982 A12.688,12.688 0 0 0 -17.751,-65.6473 A3.85073,3.85073 0 0 0 -17.6744,-66.4115 A3.08927,3.08927 0 0 0 -17.7516,-67.0977 A3.16184,3.16184 0 0 0 -17.9811,-67.7575 A3.51126,3.51126 0 0 0 -18.3094,-68.3092 A4.77685,4.77685 0 0 0 -18.7958,-68.8785 A3.6857,3.6857 0 0 0 -21.5003,-69.9999 A3.5063,3.5063 0 0 0 -23.0834,-69.6701 A3.24211,3.24211 0 0 0 -24.1916,-68.773 A8.25386,8.25386 0 0 0 -25.1546,-67.0315 A102.039,102.039 0 0 0 -26.0385,-64.9603" style="stroke:#000000;stroke-width:0.25;"/>
        <!-- Polylinie -->
        <path d="M-41.553,-54.2215 L-29.9963,-54.2215 L-35.8274,-38.2584 Z" style="stroke:#000000;stroke-width:0.25;"/>
        <!-- Polylinie -->
        <path d="M3.1953,-67.0183 L-2.029,-59.3402 L-7.3852,-67.0183 A23.7416,23.7416 0 0 0 -8.6071,-68.5717 A6.7115,6.7115 0 0 0 -9.3509,-69.3139 A3.04158,3.04158 0 0 0 -11.3958,-69.9999 A3.38811,3.38811 0 0 0 -13.7309,-69.1424 A3.60164,3.60164 0 0 0 -14.1502,-68.6999 A2.60857,2.60857 0 0 0 -14.432,-68.2643 A2.35918,2.35918 0 0 0 -14.6273,-67.7384 A2.39963,2.39963 0 0 0 -14.6939,-67.1767 A2.21289,2.21289 0 0 0 -14.5947,-66.5214 A6.52312,6.52312 0 0 0 -14.1643,-65.4681 A10.0069,10.0069 0 0 0 -13.7836,-64.7938 A17.7848,17.7848 0 0 0 -13.2164,-63.9313 L-6.6992,-54.5909 L-12.4776,-46.8073 A12.0303,12.0303 0 0 0 -13.0861,-45.9538 A7.36271,7.36271 0 0 0 -13.4935,-45.2422 A5.423,5.423 0 0 0 -13.876,-44.243 A2.98438,2.98438 0 0 0 -13.9815,-43.4563 A2.52768,2.52768 0 0 0 -13.0844,-41.5302 A2.86051,2.86051 0 0 0 -12.0981,-40.9427 A4.14043,4.14043 0 0 0 -10.7361,-40.7123 A3.10939,3.10939 0 0 0 -8.6385,-41.4247 A13.3025,13.3025 0 0 0 -6.6992,-43.6674 L-2.029,-50.0526 L2.5092,-43.6674 A21.0638,21.0638 0 0 0 3.7095,-42.1457 A6.4176,6.4176 0 0 0 4.4749,-41.3983 A3.14544,3.14544 0 0 0 6.5462,-40.7123 A3.4954,3.4954 0 0 0 8.9077,-41.517 A2.47193,2.47193 0 0 0 9.8443,-43.4563 A3.41878,3.41878 0 0 0 9.4617,-45.0263 A11.9276,11.9276 0 0 0 8.2876,-46.8073 L2.5092,-54.5909 L9.0264,-63.9313 A19.5492,19.5492 0 0 0 9.6074,-64.8124 A10.8399,10.8399 0 0 0 9.9977,-65.4946 A6.89572,6.89572 0 0 0 10.4554,-66.5846 A2.10224,2.10224 0 0 0 10.5567,-67.2294 A2.49682,2.49682 0 0 0 9.6069,-69.1819 A3.47266,3.47266 0 0 0 7.2586,-69.9999 A3.17357,3.17357 0 0 0 5.1609,-69.2875 A12.2272,12.2272 0 0 0 3.1953,-67.0183" style="stroke:#000000;stroke-width:0.25;"/>
        <!-- Polylinie -->
        <path d="M22.9282,-44.802 L22.9282,-65.6199 A8.08919,8.08919 0 0 0 22.87,-66.589 A5.28113,5.28113 0 0 0 22.7184,-67.3586 A4.24314,4.24314 0 0 0 22.37,-68.2317 A3.15555,3.15555 0 0 0 21.8992,-68.8917 A3.40953,3.40953 0 0 0 19.2871,-69.9999 A3.25275,3.25275 0 0 0 16.7145,-68.8653 A3.32413,3.32413 0 0 0 16.2629,-68.1993 A4.3892,4.3892 0 0 0 15.9294,-67.3368 A5.37974,5.37974 0 0 0 15.7815,-66.5717 A8.05329,8.05329 0 0 0 15.7251,-65.6199 L15.7251,-45.0131 A8.20188,8.20188 0 0 0 15.7806,-44.0603 A5.3116,5.3116 0 0 0 15.9247,-43.306 A4.22575,4.22575 0 0 0 16.2617,-42.4404 A3.05028,3.05028 0 0 0 16.7145,-41.7941 A3.32476,3.32476 0 0 0 19.2871,-40.7123 A3.4496,3.4496 0 0 0 21.8992,-41.7941 A3.30323,3.30323 0 0 0 22.3677,-42.4211 A3.83158,3.83158 0 0 0 22.7058,-43.1933 A4.49087,4.49087 0 0 0 22.8672,-43.9157 A6.46956,6.46956 0 0 0 22.9282,-44.802" style="stroke:#000000;stroke-width:0.25;"/>
        <!-- Polylinie -->
        <path d="M19.3662,-37.3614 A3.80158,3.80158 0 0 0 16.7937,-36.4379 A2.94367,2.94367 0 0 0 16.3075,-35.8997 A2.97298,2.97298 0 0 0 15.9656,-35.2559 A3.35026,3.35026 0 0 0 15.791,-34.6148 A4.75679,4.75679 0 0 0 15.7251,-33.8257 A3.24614,3.24614 0 0 0 16.8201,-31.3059 A3.68035,3.68035 0 0 0 19.3662,-30.3165 A3.77506,3.77506 0 0 0 21.8464,-31.2136 A2.81802,2.81802 0 0 0 22.34,-31.7439 A2.89413,2.89413 0 0 0 22.6878,-32.3905 A3.31175,3.31175 0 0 0 22.862,-33.0295 A4.81962,4.81962 0 0 0 22.9282,-33.8257 A4.68518,4.68518 0 0 0 22.8628,-34.6062 A3.35793,3.35793 0 0 0 22.6883,-35.2459 A3.01224,3.01224 0 0 0 22.3519,-35.884 A3.02048,3.02048 0 0 0 21.8728,-36.4247 A3.65075,3.65075 0 0 0 19.3662,-37.3614" style="stroke:#000000;stroke-width:0.25;"/>
        <!-- Polylinie -->
        <path d="M53.5583,-60.5803 A11.3996,11.3996 0 0 0 53.4695,-62.0009 A9.08117,9.08117 0 0 0 53.2234,-63.2472 A8.34099,8.34099 0 0 0 52.7577,-64.5346 A7.7826,7.7826 0 0 0 52.1071,-65.6859 A7.62509,7.62509 0 0 0 51.265,-66.7134 A8.35529,8.35529 0 0 0 50.2137,-67.6237 A9.2005,9.2005 0 0 0 49.1319,-68.3032 A11.7497,11.7497 0 0 0 47.8195,-68.9049 A14.234,14.234 0 0 0 44.9243,-69.6841 A25.5489,25.5489 0 0 0 40.9198,-69.9999 A21.6699,21.6699 0 0 0 37.1104,-69.6624 A13.0185,13.0185 0 0 0 34.2707,-68.8125 A14.8909,14.8909 0 0 0 33.0268,-68.2096 A10.733,10.733 0 0 0 32.0278,-67.5938 A9.05963,9.05963 0 0 0 30.966,-66.7303 A6.77752,6.77752 0 0 0 30.181,-65.8442 A8.43606,8.43606 0 0 0 29.6151,-64.9726 A6.31102,6.31102 0 0 0 29.2298,-64.1606 A5.57756,5.57756 0 0 0 28.9514,-63.1998 A4.87374,4.87374 0 0 0 28.8617,-62.269 A2.76972,2.76972 0 0 0 29.7061,-60.2373 A2.89638,2.89638 0 0 0 31.8433,-59.393 A3.5294,3.5294 0 0 0 32.9134,-59.5592 A1.80911,1.80911 0 0 0 33.5847,-59.9471 A6.06971,6.06971 0 0 0 34.7456,-61.5038 A9.78114,9.78114 0 0 1 36.0327,-63.2563 A6.46464,6.46464 0 0 1 37.3974,-64.3798 A5.03859,5.03859 0 0 1 38.2815,-64.8111 A7.46037,7.46037 0 0 1 39.4332,-65.1371 A9.2292,9.2292 0 0 1 40.411,-65.2768 A13.5309,13.5309 0 0 1 41.6058,-65.3297 A8.89963,8.89963 0 0 1 42.6096,-65.2729 A6.53684,6.53684 0 0 1 43.4574,-65.1195 A5.6667,5.6667 0 0 1 44.3811,-64.8018 A4.67822,4.67822 0 0 1 45.1546,-64.3666 A4.84402,4.84402 0 0 1 45.7423,-63.8856 A2.97671,2.97671 0 0 1 46.1286,-63.4326 A2.39255,2.39255 0 0 1 46.4381,-62.8073 A2.08882,2.08882 0 0 1 46.5398,-62.1635 A4.35455,4.35455 0 0 1 46.4473,-61.2704 A2.94255,2.94255 0 0 1 46.2065,-60.5727 A2.68067,2.68067 0 0 1 45.7589,-59.9258 A3.09947,3.09947 0 0 1 45.1018,-59.393 A6.96702,6.96702 0 0 1 44.2349,-58.9477 A17.4143,17.4143 0 0 1 42.7929,-58.4047 A24.5205,24.5205 0 0 1 41.7342,-58.0848 A40.0618,40.0618 0 0 1 40.3657,-57.7307 A57.4116,57.4116 0 0 0 36.6864,-56.6862 A25.3012,25.3012 0 0 0 34.3103,-55.7914 A9.97089,9.97089 0 0 0 30.5768,-53.1133 A5.81364,5.81364 0 0 0 29.9495,-52.2049 A5.77639,5.77639 0 0 0 29.507,-51.1974 A6.18006,6.18006 0 0 0 29.2658,-50.1864 A7.77799,7.77799 0 0 0 29.1784,-49.0236 A7.21302,7.21302 0 0 0 30.4712,-44.9339 A7.49941,7.49941 0 0 0 31.991,-43.2752 A10.7585,10.7585 0 0 0 34.2839,-41.86 A11.3092,11.3092 0 0 0 36.8746,-41.0388 A18.8256,18.8256 0 0 0 40.3657,-40.7123 A19.98,19.98 0 0 0 45.3921,-41.2927 A12.5337,12.5337 0 0 0 49.1124,-42.8495 A7.68211,7.68211 0 0 0 51.3815,-45.0131 A4.23302,4.23302 0 0 0 52.1599,-47.335 A2.68164,2.68164 0 0 0 51.3288,-49.3666 A2.4767,2.4767 0 0 0 50.8421,-49.7277 A3.00281,3.00281 0 0 0 50.2286,-49.9903 A3.59046,3.59046 0 0 0 49.6653,-50.1119 A5.28973,5.28973 0 0 0 48.9673,-50.1582 A2.89353,2.89353 0 0 0 47.0807,-49.5249 A12.4403,12.4403 0 0 0 45.2997,-47.6252 A6.51105,6.51105 0 0 1 43.3736,-45.9365 A3.9958,3.9958 0 0 1 42.2143,-45.4958 A8.97343,8.97343 0 0 1 40.3657,-45.3033 A7.58923,7.58923 0 0 1 38.4829,-45.5406 A4.65568,4.65568 0 0 1 37.1203,-46.1344 A3.92351,3.92351 0 0 1 36.561,-46.5701 A2.51061,2.51061 0 0 1 36.1934,-47.002 A2.14225,2.14225 0 0 1 35.9212,-47.5746 A2.16996,2.16996 0 0 1 35.8274,-48.2057 A2.24219,2.24219 0 0 1 36.7773,-50.0658 A7.8853,7.8853 0 0 1 39.3367,-51.2664 A99.8076,99.8076 0 0 1 43.7694,-52.4273 A33.2812,33.2812 0 0 0 47.0567,-53.4118 A16.1747,16.1747 0 0 0 49.2443,-54.3798 A11.6449,11.6449 0 0 0 51.2054,-55.6993 A7.14524,7.14524 0 0 0 52.4633,-57.0579 A5.93669,5.93669 0 0 0 53.5583,-60.5803" style="stroke:#000000;stroke-width:0.25;"/>
        <!-- Schraffur -->
        <path d="M22.9282,-44.802 L22.9282,-65.6199 A8.08919,8.08919 0 0 0 22.87,-66.589 A5.28113,5.28113 0 0 0 22.7184,-67.3586 A4.24314,4.24314 0 0 0 22.37,-68.2317 A3.15555,3.15555 0 0 0 21.8992,-68.8917 A3.40953,3.40953 0 0 0 19.2871,-69.9999 A3.25275,3.25275 0 0 0 16.7145,-68.8653 A3.32413,3.32413 0 0 0 16.2629,-68.1993 A4.3892,4.3892 0 0 0 15.9294,-67.3368 A5.37974,5.37974 0 0 0 15.7815,-66.5717 A8.05329,8.05329 0 0 0 15.7251,-65.6199 L15.7251,-45.0131 A8.20188,8.20188 0 0 0 15.7806,-44.0603 A5.3116,5.3116 0 0 0 15.9247,-43.306 A4.22575,4.22575 0 0 0 16.2617,-42.4404 A3.05028,3.05028 0 0 0 16.7145,-41.7941 A3.32476,3.32476 0 0 0 19.2871,-40.7123 A3.4496,3.4496 0 0 0 21.8992,-41.7941 A3.30323,3.30323 0 0 0 22.3677,-42.4211 A3.83158,3.83158 0 0 0 22.7058,-43.1933 A4.49087,4.49087 0 0 0 22.8672,-43.9157 A6.46956,6.46956 0 0 0 22.9282,-44.802M19.3662,-37.3614 A3.80158,3.80158 0 0 0 16.7937,-36.4379 A2.94367,2.94367 0 0 0 16.3075,-35.8997 A2.97298,2.97298 0 0 0 15.9656,-35.2559 A3.35026,3.35026 0 0 0 15.791,-34.6148 A4.75679,4.75679 0 0 0 15.7251,-33.8257 A3.24614,3.24614 0 0 0 16.8201,-31.3059 A3.68035,3.68035 0 0 0 19.3662,-30.3165 A3.77506,3.77506 0 0 0 21.8464,-31.2136 A2.81802,2.81802 0 0 0 22.34,-31.7439 A2.89413,2.89413 0 0 0 22.6878,-32.3905 A3.31175,3.31175 0 0 0 22.862,-33.0295 A4.81962,4.81962 0 0 0 22.9282,-33.8257 A4.68518,4.68518 0 0 0 22.8628,-34.6062 A3.35793,3.35793 0 0 0 22.6883,-35.2459 A3.01224,3.01224 0 0 0 22.3519,-35.884 A3.02048,3.02048 0 0 0 21.8728,-36.4247 A3.65075,3.65075 0 0 0 19.3662,-37.3614M53.5583,-60.5803 A11.3996,11.3996 0 0 0 53.4695,-62.0009 A9.08117,9.08117 0 0 0 53.2234,-63.2472 A8.34099,8.34099 0 0 0 52.7577,-64.5346 A7.7826,7.7826 0 0 0 52.1071,-65.6859 A7.62509,7.62509 0 0 0 51.265,-66.7134 A8.35529,8.35529 0 0 0 50.2137,-67.6237 A9.2005,9.2005 0 0 0 49.1319,-68.3032 A11.7497,11.7497 0 0 0 47.8195,-68.9049 A14.234,14.234 0 0 0 44.9243,-69.6841 A25.5489,25.5489 0 0 0 40.9198,-69.9999 A21.6699,21.6699 0 0 0 37.1104,-69.6624 A13.0185,13.0185 0 0 0 34.2707,-68.8125 A14.8909,14.8909 0 0 0 33.0268,-68.2096 A10.733,10.733 0 0 0 32.0278,-67.5938 A9.05963,9.05963 0 0 0 30.966,-66.7303 A6.77752,6.77752 0 0 0 30.181,-65.8442 A8.43606,8.43606 0 0 0 29.6151,-64.9726 A6.31102,6.31102 0 0 0 29.2298,-64.1606 A5.57756,5.57756 0 0 0 28.9514,-63.1998 A4.87374,4.87374 0 0 0 28.8617,-62.269 A2.76972,2.76972 0 0 0 29.7061,-60.2373 A2.89638,2.89638 0 0 0 31.8433,-59.393 A3.5294,3.5294 0 0 0 32.9134,-59.5592 A1.80911,1.80911 0 0 0 33.5847,-59.9471 A6.06971,6.06971 0 0 0 34.7456,-61.5038 A9.78114,9.78114 0 0 1 36.0327,-63.2563 A6.46464,6.46464 0 0 1 37.3974,-64.3798 A5.03859,5.03859 0 0 1 38.2815,-64.8111 A7.46037,7.46037 0 0 1 39.4332,-65.1371 A9.2292,9.2292 0 0 1 40.411,-65.2768 A13.5309,13.5309 0 0 1 41.6058,-65.3297 A8.89963,8.89963 0 0 1 42.6096,-65.2729 A6.53684,6.53684 0 0 1 43.4574,-65.1195 A5.6667,5.6667 0 0 1 44.3811,-64.8018 A4.67822,4.67822 0 0 1 45.1546,-64.3666 A4.84402,4.84402 0 0 1 45.7423,-63.8856 A2.97671,2.97671 0 0 1 46.1286,-63.4326 A2.39255,2.39255 0 0 1 46.4381,-62.8073 A2.08882,2.08882 0 0 1 46.5398,-62.1635 A4.35455,4.35455 0 0 1 46.4473,-61.2704 A2.94255,2.94255 0 0 1 46.2065,-60.5727 A2.68067,2.68067 0 0 1 45.7589,-59.9258 A3.09947,3.09947 0 0 1 45.1018,-59.393 A6.96702,6.96702 0 0 1 44.2349,-58.9477 A17.4143,17.4143 0 0 1 42.7929,-58.4047 A24.5205,24.5205 0 0 1 41.7342,-58.0848 A40.0618,40.0618 0 0 1 40.3657,-57.7307 A57.4116,57.4116 0 0 0 36.6864,-56.6862 A25.3012,25.3012 0 0 0 34.3103,-55.7914 A9.97089,9.97089 0 0 0 30.5768,-53.1133 A5.81364,5.81364 0 0 0 29.9495,-52.2049 A5.77639,5.77639 0 0 0 29.507,-51.1974 A6.18006,6.18006 0 0 0 29.2658,-50.1864 A7.77799,7.77799 0 0 0 29.1784,-49.0236 A7.21302,7.21302 0 0 0 30.4712,-44.9339 A7.49941,7.49941 0 0 0 31.991,-43.2752 A10.7585,10.7585 0 0 0 34.2839,-41.86 A11.3092,11.3092 0 0 0 36.8746,-41.0388 A18.8256,18.8256 0 0 0 40.3657,-40.7123 A19.98,19.98 0 0 0 45.3921,-41.2927 A12.5337,12.5337 0 0 0 49.1124,-42.8495 A7.68211,7.68211 0 0 0 51.3815,-45.0131 A4.23302,4.23302 0 0 0 52.1599,-47.335 A2.68164,2.68164 0 0 0 51.3288,-49.3666 A2.4767,2.4767 0 0 0 50.8421,-49.7277 A3.00281,3.00281 0 0 0 50.2286,-49.9903 A3.59046,3.59046 0 0 0 49.6653,-50.1119 A5.28973,5.28973 0 0 0 48.9673,-50.1582 A2.89353,2.89353 0 0 0 47.0807,-49.5249 A12.4403,12.4403 0 0 0 45.2997,-47.6252 A6.51105,6.51105 0 0 1 43.3736,-45.9365 A3.9958,3.9958 0 0 1 42.2143,-45.4958 A8.97343,8.97343 0 0 1 40.3657,-45.3033 A7.58923,7.58923 0 0 1 38.4829,-45.5406 A4.65568,4.65568 0 0 1 37.1203,-46.1344 A3.92351,3.92351 0 0 1 36.561,-46.5701 A2.51061,2.51061 0 0 1 36.1934,-47.002 A2.14225,2.14225 0 0 1 35.9212,-47.5746 A2.16996,2.16996 0 0 1 35.8274,-48.2057 A2.24219,2.24219 0 0 1 36.7773,-50.0658 A7.8853,7.8853 0 0 1 39.3367,-51.2664 A99.8076,99.8076 0 0 1 43.7694,-52.4273 A33.2812,33.2812 0 0 0 47.0567,-53.4118 A16.1747,16.1747 0 0 0 49.2443,-54.3798 A11.6449,11.6449 0 0 0 51.2054,-55.6993 A7.14524,7.14524 0 0 0 52.4633,-57.0579 A5.93669,5.93669 0 0 0 53.5583,-60.5803M-26.0385,-64.9603 L-27.8855,-60.1054 L-43.6111,-60.1054 L-45.458,-65.0658 A46.5662,46.5662 0 0 0 -45.9047,-66.2174 A26.8603,26.8603 0 0 0 -46.2707,-67.0812 A17.6949,17.6949 0 0 0 -46.8937,-68.3448 A5.15093,5.15093 0 0 0 -47.305,-68.984 A2.21811,2.21811 0 0 0 -47.785,-69.4526 A2.61059,2.61059 0 0 0 -48.4298,-69.7898 A3.24244,3.24244 0 0 0 -49.03,-69.9408 A5.20158,5.20158 0 0 0 -49.8116,-69.9999 A3.6751,3.6751 0 0 0 -52.4237,-68.9181 A4.47297,4.47297 0 0 0 -52.9187,-68.3602 A3.33807,3.33807 0 0 0 -53.2531,-67.8095 A3.06144,3.06144 0 0 0 -53.4806,-67.1582 A3.13586,3.13586 0 0 0 -53.5583,-66.4643 A5.47326,5.47326 0 0 0 -53.2945,-64.8284 A33.2593,33.2593 0 0 0 -52.4237,-62.4801 L-42.5293,-37.3614 A3099,3099 0 0 0 -41.5135,-34.7624 A13.1408,13.1408 0 0 0 -40.247,-32.2426 A5.14526,5.14526 0 0 0 -38.4792,-30.6199 A5.41894,5.41894 0 0 0 -35.7747,-29.9999 A7.17628,7.17628 0 0 0 -34.1857,-30.178 A4.20859,4.20859 0 0 0 -33.0438,-30.6199 A5.25022,5.25022 0 0 0 -31.276,-32.2162 A11.196,11.196 0 0 0 -30.1414,-34.3139 A123.91,123.91 0 0 0 -28.9673,-37.3086 L-18.8617,-62.269 A33.6277,33.6277 0 0 0 -18.4084,-63.4158 A19.2944,19.2944 0 0 0 -18.1023,-64.2982 A12.688,12.688 0 0 0 -17.751,-65.6473 A3.85073,3.85073 0 0 0 -17.6744,-66.4115 A3.08927,3.08927 0 0 0 -17.7516,-67.0977 A3.16184,3.16184 0 0 0 -17.9811,-67.7575 A3.51126,3.51126 0 0 0 -18.3094,-68.3092 A4.77685,4.77685 0 0 0 -18.7958,-68.8785 A3.6857,3.6857 0 0 0 -21.5003,-69.9999 A3.5063,3.5063 0 0 0 -23.0834,-69.6701 A3.24211,3.24211 0 0 0 -24.1916,-68.773 A8.25386,8.25386 0 0 0 -25.1546,-67.0315 A102.039,102.039 0 0 0 -26.0385,-64.9603M-41.553,-54.2215 L-29.9963,-54.2215 L-35.8274,-38.2584 ZM3.1953,-67.0183 L-2.029,-59.3402 L-7.3852,-67.0183 A23.7416,23.7416 0 0 0 -8.6071,-68.5717 A6.7115,6.7115 0 0 0 -9.3509,-69.3139 A3.04158,3.04158 0 0 0 -11.3958,-69.9999 A3.38811,3.38811 0 0 0 -13.7309,-69.1424 A3.60164,3.60164 0 0 0 -14.1502,-68.6999 A2.60857,2.60857 0 0 0 -14.432,-68.2643 A2.35918,2.35918 0 0 0 -14.6273,-67.7384 A2.39963,2.39963 0 0 0 -14.6939,-67.1767 A2.21289,2.21289 0 0 0 -14.5947,-66.5214 A6.52312,6.52312 0 0 0 -14.1643,-65.4681 A10.0069,10.0069 0 0 0 -13.7836,-64.7938 A17.7848,17.7848 0 0 0 -13.2164,-63.9313 L-6.6992,-54.5909 L-12.4776,-46.8073 A12.0303,12.0303 0 0 0 -13.0861,-45.9538 A7.36271,7.36271 0 0 0 -13.4935,-45.2422 A5.423,5.423 0 0 0 -13.876,-44.243 A2.98438,2.98438 0 0 0 -13.9815,-43.4563 A2.52768,2.52768 0 0 0 -13.0844,-41.5302 A2.86051,2.86051 0 0 0 -12.0981,-40.9427 A4.14043,4.14043 0 0 0 -10.7361,-40.7123 A3.10939,3.10939 0 0 0 -8.6385,-41.4247 A13.3025,13.3025 0 0 0 -6.6992,-43.6674 L-2.029,-50.0526 L2.5092,-43.6674 A21.0638,21.0638 0 0 0 3.7095,-42.1457 A6.4176,6.4176 0 0 0 4.4749,-41.3983 A3.14544,3.14544 0 0 0 6.5462,-40.7123 A3.4954,3.4954 0 0 0 8.9077,-41.517 A2.47193,2.47193 0 0 0 9.8443,-43.4563 A3.41878,3.41878 0 0 0 9.4617,-45.0263 A11.9276,11.9276 0 0 0 8.2876,-46.8073 L2.5092,-54.5909 L9.0264,-63.9313 A19.5492,19.5492 0 0 0 9.6074,-64.8124 A10.8399,10.8399 0 0 0 9.9977,-65.4946 A6.89572,6.89572 0 0 0 10.4554,-66.5846 A2.10224,2.10224 0 0 0 10.5567,-67.2294 A2.49682,2.49682 0 0 0 9.6069,-69.1819 A3.47266,3.47266 0 0 0 7.2586,-69.9999 A3.17357,3.17357 0 0 0 5.1609,-69.2875 A12.2272,12.2272 0 0 0 3.1953,-67.0183" style="fill:#000000;fill-rule:evenodd;"/>
    </g>
</svg>
