<?xml version="1.0" encoding="UTF-8" standalone="no"?>
<!-- 2020-10-25 13:28:05 Generated by QCAD 3.24.2 SVG Exporter PG -->

<svg
   xmlns:dc="http://purl.org/dc/elements/1.1/"
   xmlns:cc="http://creativecommons.org/ns#"
   xmlns:rdf="http://www.w3.org/1999/02/22-rdf-syntax-ns#"
   xmlns:svg="http://www.w3.org/2000/svg"
   xmlns="http://www.w3.org/2000/svg"
   xmlns:sodipodi="http://sodipodi.sourceforge.net/DTD/sodipodi-0.dtd"
   xmlns:inkscape="http://www.inkscape.org/namespaces/inkscape"
   width="210.5mm"
   height="210.5mm"
   viewBox="-105.25 -105.25 210.5 210.5"
   version="1.1"
   style="stroke-linecap:round;stroke-linejoin:round;fill:none"
   id="svg5516"
   sodipodi:docname="T.svg"
   inkscape:version="0.92.5 (2060ec1f9f, 2020-04-08)">
  <metadata
     id="metadata5522">
    <rdf:RDF>
      <cc:Work
         rdf:about="">
        <dc:format>image/svg+xml</dc:format>
        <dc:type
           rdf:resource="http://purl.org/dc/dcmitype/StillImage" />
      </cc:Work>
    </rdf:RDF>
  </metadata>
  <defs
     id="defs5520" />
  <sodipodi:namedview
     pagecolor="#ffffff"
     bordercolor="#666666"
     borderopacity="1"
     objecttolerance="10"
     gridtolerance="10"
     guidetolerance="10"
     inkscape:pageopacity="0"
     inkscape:pageshadow="2"
     inkscape:window-width="2560"
     inkscape:window-height="1356"
     id="namedview5518"
     showgrid="false"
     inkscape:zoom="0.83901047"
     inkscape:cx="-263.24826"
     inkscape:cy="396.30349"
     inkscape:window-x="1912"
     inkscape:window-y="-8"
     inkscape:window-maximized="1"
     inkscape:current-layer="g5514" />
  <g
     transform="scale(1,-1)"
     id="g5514">
    <!-- Polylinie -->
    <path
       d="M-90,-100 L90,-100 A10,10 0 0 1 100,-90 L100,90 A10,10 0 0 1 90,100 L-90,100 A10,10 0 0 1 -100,90 L-100,-90 A10,10 0 0 1 -90,-100"
       style="stroke:#000000;stroke-width:0.25;"
       id="path5442" />
    <!-- Linie -->
    <line
       x1="-44.562504"
       y1="-26.142403"
       x2="-44.562504"
       y2="3.8575983"
       style="stroke:#000000;stroke-width:0.5"
       id="line5444" />
    <!-- Linie -->
    <line
       x1="15.437495"
       y1="-26.142403"
       x2="15.437495"
       y2="3.8575983"
       style="stroke:#000000;stroke-width:0.5"
       id="line5446" />
    <!-- Linie -->
    <line
       x1="15.437495"
       y1="3.8575983"
       x2="45.09428"
       y2="33.59322"
       style="stroke:#000000;stroke-width:0.37120223"
       id="line5448" />
    <!-- Kreisbogen -->
    <path
       d="m -0.01626058,26.55909 a 3,3 0 1 1 1.99999998,0"
       style="stroke:#000000;stroke-width:0.5"
       id="path5450"
       inkscape:connector-curvature="0" />
    <!-- Linie -->
    <line
       x1="-0.016260551"
       y1="26.55909"
       x2="-0.016260551"
       y2="53.730686"
       style="stroke:#000000;stroke-width:0.5"
       id="line5452" />
    <!-- Linie -->
    <line
       x1="1.9837394"
       y1="53.730686"
       x2="1.9837394"
       y2="26.55909"
       style="stroke:#000000;stroke-width:0.5"
       id="line5454" />
    <!-- Linie -->
    <line
       x1="-0.016260551"
       y1="53.730686"
       x2="-4.0162606"
       y2="73.73069"
       style="stroke:#000000;stroke-width:0.5"
       id="line5456" />
    <!-- Linie -->
    <line
       x1="5.9837394"
       y1="73.73069"
       x2="1.9837394"
       y2="53.730686"
       style="stroke:#000000;stroke-width:0.5"
       id="line5458" />
    <!-- Linie -->
    <line
       x1="-4.0162606"
       y1="73.73069"
       x2="-4.0162606"
       y2="93.73069"
       style="stroke:#000000;stroke-width:0.5"
       id="line5460" />
    <!-- Linie -->
    <line
       x1="-4.0162606"
       y1="93.73069"
       x2="5.9837394"
       y2="93.73069"
       style="stroke:#000000;stroke-width:0.5"
       id="line5462" />
    <!-- Linie -->
    <line
       x1="5.9837394"
       y1="93.73069"
       x2="5.9837394"
       y2="73.73069"
       style="stroke:#000000;stroke-width:0.5"
       id="line5464" />
    <!-- Linie -->
    <line
       x1="-88.662079"
       y1="-30.163136"
       x2="-88.662079"
       y2="-35.163136"
       style="stroke:#000000;stroke-width:0.5"
       id="line5466" />
    <!-- Linie -->
    <line
       x1="-88.662079"
       y1="-35.163136"
       x2="51.337925"
       y2="-35.163136"
       style="stroke:#000000;stroke-width:0.5"
       id="line5468" />
    <!-- Linie -->
    <line
       x1="51.337925"
       y1="-35.163136"
       x2="51.337925"
       y2="-30.163136"
       style="stroke:#000000;stroke-width:0.5"
       id="line5470" />
    <!-- Linie -->
    <line
       x1="51.337925"
       y1="-35.163136"
       x2="91.337921"
       y2="4.8368649"
       style="stroke:#000000;stroke-width:0.5"
       id="line5472" />
    <!-- Schraffur -->
    <path
       d="m -0.01626058,26.55909 a 3,3 0 1 1 1.99999998,0 v 27.1716 l 4,20 v 20 h -10 v -20 l 4.00000002,-20 z"
       style="fill:#000000;fill-rule:evenodd"
       id="path5474"
       inkscape:connector-curvature="0" />
    <!-- Linie -->
    <line
       x1="-44.562504"
       y1="3.8575983"
       x2="15.437495"
       y2="3.8575983"
       style="stroke:#000000;stroke-width:0.5"
       id="line5476" />
    <!-- Linie -->
    <line
       x1="15.437495"
       y1="-26.142403"
       x2="-44.562504"
       y2="-26.142403"
       style="stroke:#000000;stroke-width:0.6123724"
       id="line5478" />
    <!-- Linie -->
    <!-- Linie -->
    <line
       x1="51.337925"
       y1="-30.163136"
       x2="91.337921"
       y2="9.8368645"
       style="stroke:#000000;stroke-width:0.5"
       id="line5482" />
    <!-- Linie -->
    <line
       x1="91.337921"
       y1="9.8368645"
       x2="91.337921"
       y2="4.8368649"
       style="stroke:#000000;stroke-width:0.5"
       id="line5484" />
    <!-- Linie -->
    <line
       x1="-88.662079"
       y1="-30.163136"
       x2="-48.662075"
       y2="9.8368645"
       style="stroke:#000000;stroke-width:0.5"
       id="line5486" />
    <!-- Linie -->
    <line
       x1="-48.662075"
       y1="9.8368645"
       x2="-38.662075"
       y2="9.8368645"
       style="stroke:#000000;stroke-width:0.5"
       id="line5488" />
    <!-- Linie -->
    <line
       x1="45.451511"
       y1="9.8368645"
       x2="91.337921"
       y2="9.8368645"
       style="stroke:#000000;stroke-width:0.53552788"
       id="line5490" />
    <!-- Linie -->
    <line
       x1="15.437495"
       y1="-26.142403"
       x2="45.09428"
       y2="3.5932207"
       style="stroke:#000000;stroke-width:0.37120223"
       id="line5492" />
    <!-- Linie -->
    <line
       x1="45.09428"
       y1="33.59322"
       x2="45.09428"
       y2="3.5932207"
       style="stroke:#000000;stroke-width:0.5"
       id="line5494" />
    <!-- Linie -->
    <line
       x1="45.09428"
       y1="33.59322"
       x2="-14.905721"
       y2="33.59322"
       style="stroke:#000000;stroke-width:0.5"
       id="line5496" />
    <!-- Linie -->
    <line
       x1="-44.562504"
       y1="3.8575983"
       x2="-14.905721"
       y2="33.59322"
       style="stroke:#000000;stroke-width:0.37120223"
       id="line5498" />
    <!-- Polylinie -->
    <!-- Polylinie -->
    <!-- Polylinie -->
    <!-- Polylinie -->
    <!-- Polylinie -->
    <!-- Polylinie -->
    <!-- Schraffur -->
    <g
       aria-label="Z + Center"
       transform="scale(1,-1)"
       style="font-style:normal;font-weight:normal;font-size:47.13282013px;line-height:1.25;font-family:sans-serif;letter-spacing:0px;word-spacing:0px;fill:#000000;fill-opacity:1;stroke:none;stroke-width:1.17832053"
       id="text6069">
      <path
         d="m -75.856579,90.543625 q 0,0.437267 -0.04603,0.759464 -0.04603,0.299183 -0.161099,0.50631 -0.09206,0.207126 -0.253155,0.299183 -0.138084,0.09206 -0.345211,0.09206 h -17.582751 q -0.598366,0 -0.966591,-0.368225 -0.368225,-0.368225 -0.368225,-1.173718 v -0.851521 q 0,-0.299183 0.02301,-0.552337 0.04603,-0.253155 0.161098,-0.529324 0.115071,-0.299183 0.322197,-0.644394 0.207127,-0.368225 0.50631,-0.851521 l 13.739401,-21.495143 h -13.578303 q -0.23014,0 -0.391239,-0.09206 -0.161098,-0.09206 -0.276169,-0.276169 -0.09206,-0.207126 -0.138084,-0.506309 -0.04603,-0.322197 -0.04603,-0.73645 0,-0.460282 0.04603,-0.782479 0.04603,-0.322197 0.138084,-0.529324 0.115071,-0.207126 0.276169,-0.299182 0.161099,-0.09206 0.391239,-0.09206 h 16.570133 q 0.62138,0 0.966591,0.368225 0.368225,0.345211 0.368225,1.081662 v 0.897549 q 0,0.368225 -0.04603,0.667408 -0.04603,0.276169 -0.161099,0.575352 -0.11507,0.299182 -0.322197,0.644394 -0.184112,0.345211 -0.50631,0.805492 l -13.670358,21.403087 h 14.544893 q 0.391239,0 0.598366,0.39124 0.207127,0.391239 0.207127,1.288788 z"
         style="font-style:normal;font-variant:normal;font-weight:normal;font-stretch:normal;font-family:Calibri;-inkscape-font-specification:Calibri;stroke-width:1.17832053"
         id="path7542" />
      <path
         d="m -42.302059,78.944532 q 0,0.437268 -0.06904,0.759465 -0.06904,0.299182 -0.184112,0.506309 -0.115071,0.207127 -0.276169,0.299183 -0.161099,0.09206 -0.345211,0.09206 h -7.548616 v 8.377123 q 0,0.184112 -0.09206,0.322197 -0.09206,0.11507 -0.299183,0.207126 -0.184113,0.09206 -0.50631,0.161099 -0.322197,0.04603 -0.805492,0.04603 -0.460282,0 -0.805493,-0.04603 -0.322197,-0.06904 -0.529323,-0.161099 -0.184113,-0.09206 -0.276169,-0.207126 -0.09206,-0.138085 -0.09206,-0.322197 v -8.377123 h -7.548615 q -0.207127,0 -0.368226,-0.09206 -0.138084,-0.09206 -0.253154,-0.299183 -0.115071,-0.207127 -0.184113,-0.506309 -0.06904,-0.322197 -0.06904,-0.759465 0,-0.414253 0.06904,-0.713436 0.06904,-0.322197 0.184113,-0.529324 0.11507,-0.207126 0.253154,-0.299183 0.161099,-0.09206 0.345212,-0.09206 h 7.571629 v -8.377122 q 0,-0.184113 0.09206,-0.322197 0.09206,-0.161099 0.276169,-0.253155 0.207126,-0.11507 0.529323,-0.161099 0.345211,-0.06904 0.805493,-0.06904 0.483295,0 0.805492,0.06904 0.322197,0.04603 0.50631,0.161099 0.207126,0.09206 0.299183,0.253155 0.09206,0.138084 0.09206,0.322197 v 8.377122 h 7.57163 q 0.184112,0 0.322197,0.09206 0.161098,0.09206 0.276169,0.299183 0.138084,0.207127 0.184112,0.529324 0.06904,0.299183 0.06904,0.713436 z"
         style="font-style:normal;font-variant:normal;font-weight:normal;font-stretch:normal;font-family:Calibri;-inkscape-font-specification:Calibri;stroke-width:1.17832053"
         id="path7544" />
      <path
         d="m -6.1699638,87.989063 q 0,0.368225 -0.023014,0.644394 -0.023014,0.276168 -0.092056,0.483295 -0.046028,0.207127 -0.1380844,0.368225 -0.092056,0.161099 -0.322197,0.39124 -0.2301407,0.23014 -0.966591,0.713436 -0.7364504,0.460281 -1.8411258,0.920563 -1.0816616,0.437267 -2.5085336,0.73645 -1.403859,0.322197 -3.083886,0.322197 -2.899773,0 -5.247208,-0.966591 -2.324422,-0.966591 -3.981435,-2.853745 -1.633999,-1.887154 -2.531548,-4.648843 -0.874535,-2.784702 -0.874535,-6.397912 0,-3.705265 0.943577,-6.605039 0.966591,-2.899773 2.692647,-4.901997 1.726055,-2.025238 4.119519,-3.083886 2.416477,-1.058647 5.339264,-1.058647 1.288788,0 2.508534,0.253155 1.219746,0.230141 2.2553794,0.598366 1.0356333,0.368225 1.8411258,0.85152 0.8054925,0.483296 1.1046755,0.805493 0.322197,0.299183 0.4142533,0.460281 0.092056,0.161099 0.1380844,0.39124 0.069042,0.207126 0.092056,0.506309 0.046028,0.299183 0.046028,0.713436 0,0.460282 -0.046028,0.782479 -0.046028,0.322197 -0.1380844,0.552338 -0.092056,0.207126 -0.2301408,0.322197 -0.1150703,0.09206 -0.2991829,0.09206 -0.322197,0 -0.8975488,-0.437267 -0.5753518,-0.460282 -1.4959147,-0.989606 -0.8975491,-0.552337 -2.2093511,-0.989605 -1.288788,-0.460281 -3.1069,-0.460281 -1.97921,0 -3.613209,0.805492 -1.610985,0.782479 -2.761689,2.324422 -1.150703,1.541943 -1.795097,3.774308 -0.62138,2.209351 -0.62138,5.063096 0,2.83073 0.598366,5.017067 0.62138,2.163323 1.749069,3.636224 1.150704,1.449886 2.807717,2.209351 1.657013,0.73645 3.751294,0.73645 1.772083,0 3.083885,-0.437267 1.334817,-0.437268 2.2553795,-0.966591 0.943577,-0.552338 1.5419429,-0.989606 0.5983658,-0.437267 0.9435769,-0.437267 0.1610985,0 0.2761689,0.06904 0.1150704,0.06904 0.1841126,0.276169 0.069042,0.184113 0.092056,0.529324 0.046028,0.345211 0.046028,0.874535 z"
         style="font-style:normal;font-variant:normal;font-weight:normal;font-stretch:normal;font-family:Calibri;-inkscape-font-specification:Calibri;stroke-width:1.17832053"
         id="path7546" />
      <path
         d="m 16.314781,80.371405 q 0,0.897548 -0.460282,1.288788 -0.437267,0.368225 -1.012619,0.368225 H 1.2635775 q 0,1.726055 0.3452111,3.1069 0.3452111,1.380844 1.1507036,2.370449 0.8054925,0.989605 2.0942806,1.518929 1.288788,0.529323 3.1529279,0.529323 1.4729006,0 2.6236043,-0.23014 1.150704,-0.253155 1.97921,-0.552338 0.851521,-0.299183 1.380845,-0.529324 0.552337,-0.253154 0.828506,-0.253154 0.161099,0 0.276169,0.09206 0.138084,0.06904 0.207127,0.230141 0.06904,0.161098 0.09206,0.460281 0.04603,0.276169 0.04603,0.690422 0,0.299183 -0.02301,0.529324 -0.02301,0.207127 -0.06904,0.391239 -0.02301,0.161099 -0.115071,0.299183 -0.06904,0.138084 -0.207126,0.276169 -0.115071,0.11507 -0.736451,0.414253 -0.62138,0.276169 -1.610985,0.552338 -0.989605,0.276169 -2.301407,0.483295 -1.2887879,0.230141 -2.7616885,0.230141 -2.5545621,0 -4.4877441,-0.713436 -1.910168,-0.713436 -3.22197017,-2.117295 -1.31180213,-1.403858 -1.97921023,-3.521153 -0.6674081,-2.117294 -0.6674081,-4.925011 0,-2.669633 0.6904222,-4.786927 0.6904222,-2.140309 1.97921021,-3.61321 1.31180209,-1.495914 3.15292789,-2.278393 1.8411258,-0.805492 4.119519,-0.805492 2.4394916,0 4.1425328,0.782478 1.726056,0.782479 2.830731,2.117295 1.104676,1.311802 1.610985,3.1069 0.529324,1.772083 0.529324,3.797321 z m -3.820336,-1.12769 q 0.06904,-2.991829 -1.334816,-4.694871 -1.3808447,-1.703041 -4.1195193,-1.703041 -1.4038585,0 -2.4625058,0.529324 -1.0586473,0.529323 -1.7720836,1.403858 -0.7134362,0.874535 -1.1046754,2.048253 -0.3912393,1.150703 -0.4372674,2.416477 z"
         style="font-style:normal;font-variant:normal;font-weight:normal;font-stretch:normal;font-family:Calibri;-inkscape-font-specification:Calibri;stroke-width:1.17832053"
         id="path7548" />
      <path
         d="m 39.950229,91.625286 q 0,0.184113 -0.09206,0.322197 -0.09206,0.11507 -0.299183,0.207127 -0.207127,0.09206 -0.575352,0.138084 -0.368225,0.04603 -0.920563,0.04603 -0.575351,0 -0.943577,-0.04603 -0.368225,-0.04603 -0.575351,-0.138084 -0.207127,-0.09206 -0.299183,-0.207127 -0.09206,-0.138084 -0.09206,-0.322197 V 79.49687 q 0,-1.772084 -0.276169,-2.853745 Q 35.60057,75.561464 35.071246,74.778985 34.541922,73.996507 33.690402,73.582253 32.861895,73.168 31.75722,73.168 q -1.426873,0 -2.853745,1.012619 -1.426873,1.012619 -2.99183,2.968816 v 14.475851 q 0,0.184113 -0.09206,0.322197 -0.09206,0.11507 -0.299183,0.207127 -0.207127,0.09206 -0.575352,0.138084 -0.368225,0.04603 -0.943577,0.04603 -0.552338,0 -0.920563,-0.04603 -0.368225,-0.04603 -0.598366,-0.138084 -0.207126,-0.09206 -0.299183,-0.207127 -0.06904,-0.138084 -0.06904,-0.322197 V 70.912621 q 0,-0.184113 0.06904,-0.299183 0.06904,-0.138084 0.276169,-0.230141 0.207127,-0.11507 0.529324,-0.138084 0.322197,-0.04603 0.851521,-0.04603 0.506309,0 0.828506,0.04603 0.345211,0.02301 0.529324,0.138084 0.184113,0.09206 0.253155,0.230141 0.09206,0.11507 0.09206,0.299183 v 2.738675 q 1.74907,-1.956197 3.475125,-2.853745 1.749069,-0.920563 3.521153,-0.920563 2.071267,0 3.475125,0.713436 1.426872,0.690422 2.301407,1.86414 0.874535,1.173717 1.24276,2.761688 0.391239,1.564957 0.391239,3.774308 z"
         style="font-style:normal;font-variant:normal;font-weight:normal;font-stretch:normal;font-family:Calibri;-inkscape-font-specification:Calibri;stroke-width:1.17832053"
         id="path7550" />
      <path
         d="m 57.187766,90.106357 q 0,0.667408 -0.09206,1.058648 -0.09206,0.391239 -0.276169,0.575351 -0.184112,0.184113 -0.552337,0.345211 -0.368226,0.161099 -0.851521,0.253155 -0.460281,0.115071 -0.989605,0.184113 -0.529324,0.06904 -1.058647,0.06904 -1.610986,0 -2.761689,-0.414253 -1.150704,-0.437268 -1.887154,-1.288788 -0.73645,-0.874535 -1.081661,-2.186337 -0.322198,-1.334816 -0.322198,-3.129914 V 73.467183 h -2.899773 q -0.345211,0 -0.552337,-0.368225 -0.207127,-0.368225 -0.207127,-1.196732 0,-0.437267 0.04603,-0.73645 0.06904,-0.299183 0.161099,-0.483296 0.09206,-0.207126 0.23014,-0.276169 0.161099,-0.09206 0.345211,-0.09206 h 2.876759 v -4.925011 q 0,-0.161099 0.06904,-0.299183 0.09206,-0.138085 0.299183,-0.230141 0.23014,-0.11507 0.598366,-0.161099 0.368225,-0.04603 0.920562,-0.04603 0.575352,0 0.943577,0.04603 0.368226,0.04603 0.575352,0.161099 0.207127,0.09206 0.299183,0.230141 0.09206,0.138084 0.09206,0.299183 v 4.925011 h 5.316251 q 0.184113,0 0.322197,0.09206 0.138085,0.06904 0.230141,0.276169 0.11507,0.184113 0.161098,0.483296 0.04603,0.299183 0.04603,0.73645 0,0.828507 -0.207127,1.196732 -0.207127,0.368225 -0.552338,0.368225 H 51.11205 v 11.553064 q 0,2.140309 0.62138,3.244984 0.644394,1.081662 2.278394,1.081662 0.529323,0 0.943577,-0.09206 0.414253,-0.115071 0.73645,-0.230141 0.322197,-0.115071 0.552338,-0.207127 0.23014,-0.11507 0.414253,-0.11507 0.11507,0 0.207127,0.06904 0.11507,0.04603 0.161098,0.207127 0.06904,0.161098 0.11507,0.437267 0.04603,0.276169 0.04603,0.690422 z"
         style="font-style:normal;font-variant:normal;font-weight:normal;font-stretch:normal;font-family:Calibri;-inkscape-font-specification:Calibri;stroke-width:1.17832053"
         id="path7552" />
      <path
         d="m 79.4654,80.371405 q 0,0.897548 -0.460281,1.288788 -0.437268,0.368225 -1.012619,0.368225 H 64.414197 q 0,1.726055 0.345211,3.1069 0.345211,1.380844 1.150704,2.370449 0.805492,0.989605 2.09428,1.518929 1.288788,0.529323 3.152928,0.529323 1.472901,0 2.623604,-0.23014 1.150704,-0.253155 1.979211,-0.552338 0.85152,-0.299183 1.380844,-0.529324 0.552338,-0.253154 0.828507,-0.253154 0.161098,0 0.276168,0.09206 0.138085,0.06904 0.207127,0.230141 0.06904,0.161098 0.09206,0.460281 0.04603,0.276169 0.04603,0.690422 0,0.299183 -0.02302,0.529324 -0.02301,0.207127 -0.06904,0.391239 -0.02301,0.161099 -0.11507,0.299183 -0.06904,0.138084 -0.207127,0.276169 -0.11507,0.11507 -0.73645,0.414253 -0.62138,0.276169 -1.610985,0.552338 -0.989605,0.276169 -2.301407,0.483295 -1.288788,0.230141 -2.761689,0.230141 -2.554562,0 -4.487744,-0.713436 -1.910168,-0.713436 -3.22197,-2.117295 -1.311802,-1.403858 -1.97921,-3.521153 -0.667409,-2.117294 -0.667409,-4.925011 0,-2.669633 0.690423,-4.786927 0.690422,-2.140309 1.97921,-3.61321 1.311802,-1.495914 3.152928,-2.278393 1.841126,-0.805492 4.119519,-0.805492 2.439491,0 4.142533,0.782478 1.726055,0.782479 2.830731,2.117295 1.104675,1.311802 1.610985,3.1069 0.529323,1.772083 0.529323,3.797321 z m -3.820336,-1.12769 q 0.06904,-2.991829 -1.334816,-4.694871 -1.380844,-1.703041 -4.119519,-1.703041 -1.403858,0 -2.462506,0.529324 -1.058647,0.529323 -1.772083,1.403858 -0.713436,0.874535 -1.104676,2.048253 -0.391239,1.150703 -0.437267,2.416477 z"
         style="font-style:normal;font-variant:normal;font-weight:normal;font-stretch:normal;font-family:Calibri;-inkscape-font-specification:Calibri;stroke-width:1.17832053"
         id="path7554" />
      <path
         d="m 97.370345,72.270451 q 0,0.50631 -0.02301,0.851521 -0.02301,0.345211 -0.09206,0.552338 -0.06904,0.184112 -0.184112,0.299183 -0.09206,0.09206 -0.276169,0.09206 -0.184113,0 -0.460281,-0.09206 -0.253155,-0.115071 -0.598366,-0.207127 -0.322197,-0.11507 -0.736451,-0.207127 -0.414253,-0.09206 -0.897548,-0.09206 -0.575352,0 -1.12769,0.230141 -0.552338,0.23014 -1.173718,0.759464 -0.598366,0.529324 -1.265774,1.403858 -0.667408,0.874535 -1.4729,2.140309 v 13.624331 q 0,0.184113 -0.09206,0.322197 -0.09206,0.11507 -0.299183,0.207127 -0.207126,0.09206 -0.575351,0.138084 -0.368226,0.04603 -0.943577,0.04603 -0.552338,0 -0.920563,-0.04603 -0.368225,-0.04603 -0.598366,-0.138084 -0.207127,-0.09206 -0.299183,-0.207127 -0.06904,-0.138084 -0.06904,-0.322197 V 70.912621 q 0,-0.184113 0.06904,-0.299183 0.06904,-0.138084 0.276169,-0.230141 0.207126,-0.11507 0.529323,-0.138084 0.322198,-0.04603 0.851521,-0.04603 0.50631,0 0.828507,0.04603 0.345211,0.02301 0.529323,0.138084 0.184113,0.09206 0.253155,0.230141 0.09206,0.11507 0.09206,0.299183 v 3.014843 q 0.85152,-1.24276 1.587971,-2.025238 0.759464,-0.782478 1.426872,-1.219746 0.667408,-0.460281 1.311802,-0.62138 0.667408,-0.184112 1.334816,-0.184112 0.299183,0 0.667408,0.04603 0.39124,0.02301 0.805493,0.11507 0.414253,0.09206 0.73645,0.207127 0.345211,0.11507 0.483296,0.230141 0.138084,0.11507 0.184112,0.23014 0.04603,0.09206 0.06904,0.253155 0.04603,0.161099 0.04603,0.483296 0.02301,0.299183 0.02301,0.828506 z"
         style="font-style:normal;font-variant:normal;font-weight:normal;font-stretch:normal;font-family:Calibri;-inkscape-font-specification:Calibri;stroke-width:1.17832053"
         id="path7556" />
    </g>
    <line
       x1="-88.663582"
       y1="-30.330376"
       x2="50.893452"
       y2="-30.330376"
       style="fill:none;fill-opacity:1;stroke:#000000;stroke-width:0.93393344;stroke-linecap:round;stroke-linejoin:round;stroke-opacity:1"
       id="line5490-2" />
  </g>
</svg>
