<?xml version="1.0" encoding="UTF-8" standalone="no"?>
<!-- 2020-10-25 13:28:05 Generated by QCAD 3.24.2 SVG Exporter PG -->

<svg
   xmlns:dc="http://purl.org/dc/elements/1.1/"
   xmlns:cc="http://creativecommons.org/ns#"
   xmlns:rdf="http://www.w3.org/1999/02/22-rdf-syntax-ns#"
   xmlns:svg="http://www.w3.org/2000/svg"
   xmlns="http://www.w3.org/2000/svg"
   xmlns:sodipodi="http://sodipodi.sourceforge.net/DTD/sodipodi-0.dtd"
   xmlns:inkscape="http://www.inkscape.org/namespaces/inkscape"
   width="210.5mm"
   height="210.5mm"
   viewBox="-105.25 -105.25 210.5 210.5"
   version="1.1"
   style="stroke-linecap:round;stroke-linejoin:round;fill:none"
   id="svg5516"
   sodipodi:docname="Center_no_Z.svg"
   inkscape:version="0.92.5 (2060ec1f9f, 2020-04-08)">
  <metadata
     id="metadata5522">
    <rdf:RDF>
      <cc:Work
         rdf:about="">
        <dc:format>image/svg+xml</dc:format>
        <dc:type
           rdf:resource="http://purl.org/dc/dcmitype/StillImage" />
        <dc:title />
      </cc:Work>
    </rdf:RDF>
  </metadata>
  <defs
     id="defs5520" />
  <sodipodi:namedview
     pagecolor="#ffffff"
     bordercolor="#666666"
     borderopacity="1"
     objecttolerance="10"
     gridtolerance="10"
     guidetolerance="10"
     inkscape:pageopacity="0"
     inkscape:pageshadow="2"
     inkscape:window-width="2560"
     inkscape:window-height="1356"
     id="namedview5518"
     showgrid="false"
     inkscape:zoom="1.18654"
     inkscape:cx="224.39254"
     inkscape:cy="407.83386"
     inkscape:window-x="1912"
     inkscape:window-y="-8"
     inkscape:window-maximized="1"
     inkscape:current-layer="g5514" />
  <g
     transform="scale(1,-1)"
     id="g5514">
    <!-- Polylinie -->
    <path
       d="M-90,-100 L90,-100 A10,10 0 0 1 100,-90 L100,90 A10,10 0 0 1 90,100 L-90,100 A10,10 0 0 1 -100,90 L-100,-90 A10,10 0 0 1 -90,-100"
       style="stroke:#000000;stroke-width:0.25;"
       id="path5442" />
    <!-- Linie -->
    <line
       x1="-44.562504"
       y1="-26.142403"
       x2="-44.562504"
       y2="3.8575983"
       style="stroke:#000000;stroke-width:0.5"
       id="line5444" />
    <!-- Linie -->
    <line
       x1="15.437495"
       y1="-26.142403"
       x2="15.437495"
       y2="3.8575983"
       style="stroke:#000000;stroke-width:0.5"
       id="line5446" />
    <!-- Linie -->
    <line
       x1="15.437495"
       y1="3.8575983"
       x2="45.09428"
       y2="33.59322"
       style="stroke:#000000;stroke-width:0.37120223"
       id="line5448" />
    <!-- Kreisbogen -->
    <path
       d="m -17.855244,-8.449913 a 3,3 0 1 1 2,0"
       style="stroke:#000000;stroke-width:0.5"
       id="path5450"
       inkscape:connector-curvature="0" />
    <!-- Linie -->
    <line
       x1="-17.855246"
       y1="-8.449913"
       x2="-17.855246"
       y2="18.721684"
       style="stroke:#000000;stroke-width:0.5"
       id="line5452" />
    <!-- Linie -->
    <line
       x1="-15.855245"
       y1="18.721684"
       x2="-15.855245"
       y2="-8.449913"
       style="stroke:#000000;stroke-width:0.5"
       id="line5454" />
    <!-- Linie -->
    <line
       x1="-17.855246"
       y1="18.721684"
       x2="-21.855246"
       y2="38.721684"
       style="stroke:#000000;stroke-width:0.5"
       id="line5456" />
    <!-- Linie -->
    <line
       x1="-11.855245"
       y1="38.721684"
       x2="-15.855245"
       y2="18.721684"
       style="stroke:#000000;stroke-width:0.5"
       id="line5458" />
    <!-- Linie -->
    <line
       x1="-21.855246"
       y1="38.721684"
       x2="-21.855246"
       y2="58.721687"
       style="stroke:#000000;stroke-width:0.5"
       id="line5460" />
    <!-- Linie -->
    <line
       x1="-21.855246"
       y1="58.721687"
       x2="-11.855245"
       y2="58.721687"
       style="stroke:#000000;stroke-width:0.5"
       id="line5462" />
    <!-- Linie -->
    <line
       x1="-11.855245"
       y1="58.721687"
       x2="-11.855245"
       y2="38.721684"
       style="stroke:#000000;stroke-width:0.5"
       id="line5464" />
    <!-- Linie -->
    <line
       x1="-88.662079"
       y1="-30.163136"
       x2="-88.662079"
       y2="-35.163136"
       style="stroke:#000000;stroke-width:0.5"
       id="line5466" />
    <!-- Linie -->
    <line
       x1="-88.662079"
       y1="-35.163136"
       x2="51.337925"
       y2="-35.163136"
       style="stroke:#000000;stroke-width:0.5"
       id="line5468" />
    <!-- Linie -->
    <line
       x1="51.337925"
       y1="-35.163136"
       x2="51.337925"
       y2="-30.163136"
       style="stroke:#000000;stroke-width:0.5"
       id="line5470" />
    <!-- Linie -->
    <line
       x1="51.337925"
       y1="-35.163136"
       x2="91.337921"
       y2="4.8368649"
       style="stroke:#000000;stroke-width:0.5"
       id="line5472" />
    <!-- Schraffur -->
    <path
       d="m -17.855244,-8.449913 a 3,3 0 1 1 2,0 v 27.1716 l 4,20 v 20 h -10 v -20 l 4,-20 z"
       style="fill:#000000;fill-rule:evenodd"
       id="path5474"
       inkscape:connector-curvature="0" />
    <!-- Linie -->
    <line
       x1="-44.562504"
       y1="3.8575983"
       x2="15.437495"
       y2="3.8575983"
       style="stroke:#000000;stroke-width:0.5"
       id="line5476" />
    <!-- Linie -->
    <line
       x1="15.437495"
       y1="-26.142403"
       x2="-44.562504"
       y2="-26.142403"
       style="stroke:#000000;stroke-width:0.6123724"
       id="line5478" />
    <!-- Linie -->
    <!-- Linie -->
    <line
       x1="51.337925"
       y1="-30.163136"
       x2="91.337921"
       y2="9.8368645"
       style="stroke:#000000;stroke-width:0.5"
       id="line5482" />
    <!-- Linie -->
    <line
       x1="91.337921"
       y1="9.8368645"
       x2="91.337921"
       y2="4.8368649"
       style="stroke:#000000;stroke-width:0.5"
       id="line5484" />
    <!-- Linie -->
    <line
       x1="-88.662079"
       y1="-30.163136"
       x2="-48.662075"
       y2="9.8368645"
       style="stroke:#000000;stroke-width:0.5"
       id="line5486" />
    <!-- Linie -->
    <line
       x1="-48.662075"
       y1="9.8368645"
       x2="-38.662075"
       y2="9.8368645"
       style="stroke:#000000;stroke-width:0.5"
       id="line5488" />
    <!-- Linie -->
    <line
       x1="45.451511"
       y1="9.8368645"
       x2="91.337921"
       y2="9.8368645"
       style="stroke:#000000;stroke-width:0.53552788"
       id="line5490" />
    <!-- Linie -->
    <line
       x1="15.437495"
       y1="-26.142403"
       x2="45.09428"
       y2="3.5932207"
       style="stroke:#000000;stroke-width:0.37120223"
       id="line5492" />
    <!-- Linie -->
    <line
       x1="45.09428"
       y1="33.59322"
       x2="45.09428"
       y2="3.5932207"
       style="stroke:#000000;stroke-width:0.5"
       id="line5494" />
    <!-- Linie -->
    <line
       x1="45.09428"
       y1="33.59322"
       x2="-14.905721"
       y2="33.59322"
       style="stroke:#000000;stroke-width:0.5"
       id="line5496" />
    <!-- Linie -->
    <line
       x1="-44.562504"
       y1="3.8575983"
       x2="-14.905721"
       y2="33.59322"
       style="stroke:#000000;stroke-width:0.37120223"
       id="line5498" />
    <!-- Polylinie -->
    <!-- Polylinie -->
    <!-- Polylinie -->
    <!-- Polylinie -->
    <!-- Polylinie -->
    <!-- Polylinie -->
    <!-- Schraffur -->
    <line
       x1="-88.663582"
       y1="-30.330376"
       x2="50.893452"
       y2="-30.330376"
       style="fill:none;fill-opacity:1;stroke:#000000;stroke-width:0.93393344;stroke-linecap:round;stroke-linejoin:round;stroke-opacity:1"
       id="line5490-2" />
    <g
       aria-label="No Z Move"
       transform="scale(1,-1)"
       style="font-style:normal;font-weight:normal;font-size:31.74999809px;line-height:5.25;font-family:sans-serif;letter-spacing:0px;word-spacing:0px;fill:#000000;fill-opacity:1;stroke:none;stroke-width:0.26458332"
       id="text1491">
      <path
         d="m -67.042299,87.856987 h -5.736083 l -9.797851,-15.843993 v 15.843993 h -5.457031 V 64.773126 h 7.115844 l 8.41809,13.223998 V 64.773126 h 5.457031 z"
         style="font-style:normal;font-variant:normal;font-weight:bold;font-stretch:normal;line-height:55.5625px;font-family:sans-serif;-inkscape-font-specification:'sans-serif Bold';stroke-width:0.26458332"
         id="path1503" />
      <path
         d="m -43.632877,79.159844 q 0,4.294311 -2.511474,6.77478 -2.495972,2.464966 -7.022827,2.464966 -4.526855,0 -7.03833,-2.464966 -2.495971,-2.480469 -2.495971,-6.77478 0,-4.325317 2.511474,-6.790283 2.526978,-2.464966 7.022827,-2.464966 4.557861,0 7.03833,2.480469 2.495971,2.480469 2.495971,6.77478 z m -6.867797,4.2323 q 0.542602,-0.666626 0.806152,-1.596802 0.279053,-0.945679 0.279053,-2.604492 0,-1.53479 -0.279053,-2.573486 -0.279053,-1.038697 -0.775146,-1.658814 -0.496094,-0.63562 -1.193726,-0.89917 -0.697632,-0.263549 -1.503784,-0.263549 -0.806152,0 -1.441772,0.217041 -0.620117,0.217041 -1.193726,0.868164 -0.511596,0.604614 -0.821655,1.658813 -0.294556,1.054199 -0.294556,2.651001 0,1.426269 0.26355,2.480468 0.26355,1.038697 0.775147,1.674317 0.496093,0.604614 1.178222,0.883667 0.697632,0.279052 1.581299,0.279052 0.759643,0 1.441772,-0.248046 0.697632,-0.26355 1.178223,-0.868164 z"
         style="font-style:normal;font-variant:normal;font-weight:bold;font-stretch:normal;line-height:55.5625px;font-family:sans-serif;-inkscape-font-specification:'sans-serif Bold';stroke-width:0.26458332"
         id="path1505" />
      <path
         d="M -10.596135,87.856987 H -29.990299 V 83.53167 l 11.503173,-14.2937 h -10.945068 v -4.464844 h 18.215941 v 4.402832 l -11.48767,14.216186 h 12.107788 z"
         style="font-style:normal;font-variant:normal;font-weight:bold;font-stretch:normal;line-height:55.5625px;font-family:sans-serif;-inkscape-font-specification:'sans-serif Bold';stroke-width:0.26458332"
         id="path1507" />
      <path
         d="M 28.564261,87.856987 H 22.642142 V 72.400567 L 18.363334,82.430962 H 14.255058 L 9.9762492,72.400567 v 15.45642 H 4.364189 V 64.773126 h 6.914306 l 5.193481,11.580688 5.177979,-11.580688 h 6.914306 z"
         style="font-style:normal;font-variant:normal;font-weight:bold;font-stretch:normal;line-height:55.5625px;font-family:sans-serif;-inkscape-font-specification:'sans-serif Bold';stroke-width:0.26458332"
         id="path1509" />
      <path
         d="m 51.927176,79.159844 q 0,4.294311 -2.511474,6.77478 -2.495972,2.464966 -7.022827,2.464966 -4.526855,0 -7.03833,-2.464966 -2.495971,-2.480469 -2.495971,-6.77478 0,-4.325317 2.511474,-6.790283 2.526978,-2.464966 7.022827,-2.464966 4.557861,0 7.03833,2.480469 2.495971,2.480469 2.495971,6.77478 z m -6.867797,4.2323 q 0.542602,-0.666626 0.806152,-1.596802 0.279053,-0.945679 0.279053,-2.604492 0,-1.53479 -0.279053,-2.573486 -0.279053,-1.038697 -0.775146,-1.658814 -0.496094,-0.63562 -1.193726,-0.89917 -0.697632,-0.263549 -1.503784,-0.263549 -0.806152,0 -1.441772,0.217041 -0.620118,0.217041 -1.193726,0.868164 -0.511597,0.604614 -0.821655,1.658813 -0.294556,1.054199 -0.294556,2.651001 0,1.426269 0.26355,2.480468 0.26355,1.038697 0.775146,1.674317 0.496094,0.604614 1.178223,0.883667 0.697632,0.279052 1.581299,0.279052 0.759643,0 1.441772,-0.248046 0.697632,-0.26355 1.178223,-0.868164 z"
         style="font-style:normal;font-variant:normal;font-weight:bold;font-stretch:normal;line-height:55.5625px;font-family:sans-serif;-inkscape-font-specification:'sans-serif Bold';stroke-width:0.26458332"
         id="path1511" />
      <path
         d="m 73.491744,70.447198 -6.712768,17.409789 h -6.325195 l -6.66626,-17.409789 h 5.906616 l 4.030762,11.968261 3.984252,-11.968261 z"
         style="font-style:normal;font-variant:normal;font-weight:bold;font-stretch:normal;line-height:55.5625px;font-family:sans-serif;-inkscape-font-specification:'sans-serif Bold';stroke-width:0.26458332"
         id="path1513" />
      <path
         d="M 93.754073,80.183037 H 80.97966 q 0.124023,2.046387 1.550292,3.131592 1.441773,1.085205 4.2323,1.085205 1.767334,0 3.426147,-0.63562 1.658814,-0.63562 2.619995,-1.364258 h 0.620117 v 4.480346 q -1.891357,0.759644 -3.565673,1.100708 -1.674317,0.341065 -3.7052,0.341065 -5.23999,0 -8.030517,-2.356445 -2.790527,-2.356445 -2.790527,-6.712768 0,-4.309815 2.635497,-6.821289 2.651001,-2.526978 7.255371,-2.526978 4.247803,0 6.387207,2.154908 2.139404,2.139404 2.139404,6.170165 z m -5.550049,-3.271118 q -0.04651,-1.751831 -0.868164,-2.635498 -0.821655,-0.883667 -2.557983,-0.883667 -1.612304,0 -2.651001,0.837159 -1.038696,0.837158 -1.162719,2.682006 z"
         style="font-style:normal;font-variant:normal;font-weight:bold;font-stretch:normal;line-height:55.5625px;font-family:sans-serif;-inkscape-font-specification:'sans-serif Bold';stroke-width:0.26458332"
         id="path1515" />
    </g>
    <path
       style="fill:none;stroke:#000000;stroke-width:0.26458332px;stroke-linecap:butt;stroke-linejoin:miter;stroke-opacity:1"
       d="M -14.90572,33.59322 15.437498,3.857596"
       id="path1499"
       inkscape:connector-curvature="0" />
    <path
       style="fill:none;stroke:#000000;stroke-width:0.26458332px;stroke-linecap:butt;stroke-linejoin:miter;stroke-opacity:1"
       d="M -44.562503,3.857596 45.094284,33.59322"
       id="path1501"
       inkscape:connector-curvature="0" />
    <g
       aria-label="Center"
       transform="scale(1,-1)"
       style="font-style:normal;font-weight:normal;font-size:31.74999809px;line-height:1.25;font-family:sans-serif;letter-spacing:0px;word-spacing:0px;fill:#000000;fill-opacity:1;stroke:none;stroke-width:0.26458332"
       id="text2107">
      <path
         d="m -44.597665,-66.223618 q -2.573486,0 -4.759399,-0.759643 -2.17041,-0.759644 -3.736206,-2.263428 -1.565795,-1.503784 -2.433959,-3.751708 -0.852662,-2.247925 -0.852662,-5.193482 0,-2.744018 0.821656,-4.97644 0.821655,-2.232421 2.387451,-3.829223 1.503784,-1.53479 3.720703,-2.371948 2.232421,-0.837158 4.867919,-0.837158 1.457276,0 2.619995,0.170532 1.178223,0.155029 2.17041,0.418579 1.038696,0.294556 1.875855,0.666626 0.852661,0.356567 1.488281,0.666626 v 5.596557 h -0.682129 q -0.434082,-0.37207 -1.100708,-0.883667 -0.651123,-0.511597 -1.488281,-1.00769 -0.852661,-0.496094 -1.844849,-0.837158 -0.992187,-0.341065 -2.123901,-0.341065 -1.255737,0 -2.387451,0.403076 -1.131714,0.387574 -2.092895,1.302246 -0.914673,0.883667 -1.488282,2.340943 -0.558105,1.457275 -0.558105,3.534667 0,2.17041 0.604614,3.627686 0.620117,1.457275 1.550293,2.294433 0.945679,0.852661 2.108398,1.224732 1.16272,0.356567 2.294434,0.356567 1.085205,0 2.139404,-0.325562 1.069702,-0.325561 1.968872,-0.883667 0.759644,-0.449585 1.410767,-0.961181 0.651123,-0.511597 1.069702,-0.883667 h 0.620117 v 5.519043 q -0.868164,0.387573 -1.658814,0.728637 -0.790649,0.341065 -1.658813,0.589111 -1.131714,0.325562 -2.123901,0.496094 -0.992188,0.170532 -2.728516,0.170532 z"
         style="font-style:normal;font-variant:normal;font-weight:bold;font-stretch:normal;font-family:sans-serif;-inkscape-font-specification:'sans-serif Bold';stroke-width:0.26458332"
         id="path2109" />
      <path
         d="m -15.188609,-74.347152 h -12.774414 q 0.124024,2.046386 1.550293,3.131591 1.441773,1.085205 4.2323,1.085205 1.767334,0 3.426147,-0.63562 1.658813,-0.63562 2.619995,-1.364257 h 0.620117 v 4.480346 q -1.891357,0.759643 -3.565673,1.100708 -1.674317,0.341064 -3.7052,0.341064 -5.23999,0 -8.030518,-2.356445 -2.790527,-2.356445 -2.790527,-6.712768 0,-4.309814 2.635498,-6.821289 2.651001,-2.526977 7.255371,-2.526977 4.247802,0 6.387206,2.154907 2.139405,2.139404 2.139405,6.170166 z m -5.550049,-3.271118 q -0.04651,-1.751831 -0.868164,-2.635498 -0.821655,-0.883667 -2.557983,-0.883667 -1.612305,0 -2.651001,0.837158 -1.038696,0.837158 -1.16272,2.682007 z"
         style="font-style:normal;font-variant:normal;font-weight:bold;font-stretch:normal;font-family:sans-serif;-inkscape-font-specification:'sans-serif Bold';stroke-width:0.26458332"
         id="path2111" />
      <path
         d="M 6.2364375,-66.673203 H 0.62437733 v -8.635131 q 0,-1.054199 -0.1085205,-2.092895 -0.1085205,-1.054199 -0.37207029,-1.550293 -0.31005857,-0.573608 -0.9146728,-0.837158 -0.58911124,-0.26355 -1.65881334,-0.26355 -0.7596435,0 -1.5502929,0.248047 -0.7751464,0.248047 -1.6898192,0.790649 v 12.340331 h -5.5810543 v -17.409789 h 5.5810543 v 1.922364 q 1.4882811,-1.16272 2.8525388,-1.782837 1.3797607,-0.620117 3.05407701,-0.620117 2.82153299,0 4.40283179,1.64331 1.5968016,1.643311 1.5968016,4.914429 z"
         style="font-style:normal;font-variant:normal;font-weight:bold;font-stretch:normal;font-family:sans-serif;-inkscape-font-specification:'sans-serif Bold';stroke-width:0.26458332"
         id="path2113" />
      <path
         d="m 22.51451,-66.828232 q -0.89917,0.232544 -1.90686,0.356568 -1.00769,0.139526 -2.464966,0.139526 -3.255615,0 -4.852416,-1.317749 -1.581299,-1.317749 -1.581299,-4.511352 v -8.139038 H 9.4145355 v -3.782715 h 2.2944335 v -4.97644 h 5.581054 v 4.97644 h 5.224487 v 3.782715 h -5.224487 v 6.170166 q 0,0.914673 0.0155,1.596801 0.0155,0.682129 0.248047,1.224732 0.217041,0.542602 0.759644,0.868164 0.558105,0.310058 1.612304,0.310058 0.434082,0 1.131714,-0.186035 0.713135,-0.186035 0.992187,-0.341064 h 0.465088 z"
         style="font-style:normal;font-variant:normal;font-weight:bold;font-stretch:normal;font-family:sans-serif;-inkscape-font-specification:'sans-serif Bold';stroke-width:0.26458332"
         id="path2115" />
      <path
         d="M 42.978377,-74.347152 H 30.203964 q 0.124023,2.046386 1.550293,3.131591 1.441772,1.085205 4.232299,1.085205 1.767334,0 3.426147,-0.63562 1.658814,-0.63562 2.619995,-1.364257 h 0.620118 v 4.480346 q -1.891358,0.759643 -3.565674,1.100708 -1.674316,0.341064 -3.7052,0.341064 -5.23999,0 -8.030517,-2.356445 -2.790527,-2.356445 -2.790527,-6.712768 0,-4.309814 2.635498,-6.821289 2.651,-2.526977 7.25537,-2.526977 4.247803,0 6.387207,2.154907 2.139404,2.139404 2.139404,6.170166 z m -5.550048,-3.271118 q -0.04651,-1.751831 -0.868164,-2.635498 -0.821656,-0.883667 -2.557984,-0.883667 -1.612304,0 -2.651,0.837158 -1.038697,0.837158 -1.16272,2.682007 z"
         style="font-style:normal;font-variant:normal;font-weight:bold;font-stretch:normal;font-family:sans-serif;-inkscape-font-specification:'sans-serif Bold';stroke-width:0.26458332"
         id="path2117" />
      <path
         d="m 59.535506,-78.765487 h -0.496093 q -0.356568,-0.124023 -1.147217,-0.186035 -0.79065,-0.06201 -1.317749,-0.06201 -1.193726,0 -2.108398,0.155029 -0.914673,0.15503 -1.968872,0.5271 v 11.658202 h -5.581055 v -17.409789 h 5.581055 v 2.557984 q 1.844848,-1.581299 3.209106,-2.092896 1.364258,-0.527099 2.511474,-0.527099 0.294556,0 0.666626,0.0155 0.372071,0.0155 0.651123,0.04651 z"
         style="font-style:normal;font-variant:normal;font-weight:bold;font-stretch:normal;font-family:sans-serif;-inkscape-font-specification:'sans-serif Bold';stroke-width:0.26458332"
         id="path2119" />
    </g>
  </g>
</svg>
