<?xml version="1.0" encoding="UTF-8"?>
<!-- 2020-10-25 14:11:53 Generated by QCAD 3.24.2 SVG Exporter PG -->
<svg width="210.5mm" height="210.5mm" viewBox="-105.25 -105.25 210.5 210.5" version="1.1" xmlns="http://www.w3.org/2000/svg" style="stroke-linecap:round;stroke-linejoin:round;fill:none">
    <g transform="scale(1,-1)">
        <!-- Polylinie -->
        <path d="M-90,-100 L90,-100 A10,10 0 0 1 100,-90 L100,90 A10,10 0 0 1 90,100 L-90,100 A10,10 0 0 1 -100,90 L-100,-90 A10,10 0 0 1 -90,-100" style="stroke:#000000;stroke-width:0.25;"/>
        <!-- Kreisbogen -->
        <path d="M-1,16.0784 A3,3 0 1,1 1,16.0784" style="stroke:#000000;stroke-width:0.5;"/>
        <!-- Linie -->
        <line x1="-1" y1="16.0784" x2="-1" y2="43.25" style="stroke:#000000;stroke-width:0.5;"/>
        <!-- Linie -->
        <line x1="1" y1="43.25" x2="1" y2="16.0784" style="stroke:#000000;stroke-width:0.5;"/>
        <!-- Linie -->
        <line x1="-1" y1="43.25" x2="-5" y2="63.25" style="stroke:#000000;stroke-width:0.5;"/>
        <!-- Linie -->
        <line x1="5" y1="63.25" x2="1" y2="43.25" style="stroke:#000000;stroke-width:0.5;"/>
        <!-- Linie -->
        <line x1="-5" y1="63.25" x2="-5" y2="83.25" style="stroke:#000000;stroke-width:0.5;"/>
        <!-- Linie -->
        <line x1="-5" y1="83.25" x2="5" y2="83.25" style="stroke:#000000;stroke-width:0.5;"/>
        <!-- Linie -->
        <line x1="5" y1="83.25" x2="5" y2="63.25" style="stroke:#000000;stroke-width:0.5;"/>
        <!-- Schraffur -->
        <path d="M-1,16.0784 A3,3 0 1 1 1,16.0784 L1,43.25 L5,63.25 L5,83.25 L-5,83.25 L-5,63.25 L-1,43.25 Z" style="fill:#000000;fill-rule:evenodd;"/>
        <!-- Linie -->
        <line x1="90" y1="46.75" x2="30" y2="-13.25" style="stroke:#000000;stroke-width:0.5;"/>
        <!-- Linie -->
        <line x1="-30" y1="46.75" x2="-90" y2="-13.25" style="stroke:#000000;stroke-width:0.5;"/>
        <!-- Linie -->
        <line x1="-90" y1="-13.25" x2="30" y2="-13.25" style="stroke:#000000;stroke-width:0.5;"/>
        <!-- Ellipse -->
        <ellipse transform="translate(0 16.75) rotate(18.4349)" rx="31.6228" ry="14.1421" style="stroke:#000000;stroke-width:0.5;"/>
        <!-- Ellipse -->
        <path d="M28.5344,19.194 A31.6228,14.1421 18.4349 0 1 -28.5344,4.3065" style="stroke:#000000;stroke-width:0.5;"/>
        <!-- Linie -->
        <line x1="0" y1="46.7505" x2="0" y2="46.75" style="stroke:#000000;stroke-width:0.5;"/>
        <!-- Linie -->
        <line x1="-30.0002" y1="46.7505" x2="-30.0002" y2="46.7498" style="stroke:#000000;stroke-width:0.5;"/>
        <!-- Linie -->
        <line x1="-30.0002" y1="46.7498" x2="90" y2="46.75" style="stroke:#000000;stroke-width:0.5;"/>
        <!-- Linie -->
        <line x1="-90" y1="-13.25" x2="-90" y2="-23.25" style="stroke:#000000;stroke-width:0.5;"/>
        <!-- Linie -->
        <line x1="-90" y1="-23.25" x2="30" y2="-23.25" style="stroke:#000000;stroke-width:0.5;"/>
        <!-- Linie -->
        <line x1="30" y1="-23.25" x2="30" y2="-13.25" style="stroke:#000000;stroke-width:0.5;"/>
        <!-- Linie -->
        <line x1="30" y1="-23.25" x2="90" y2="36.75" style="stroke:#000000;stroke-width:0.5;"/>
        <!-- Linie -->
        <line x1="90" y1="36.75" x2="90" y2="46.75" style="stroke:#000000;stroke-width:0.5;"/>
        <!-- Polylinie -->
        <path d="M-42.9365,-46.6556 L-42.9365,-56.3522 L-28.1377,-56.3522 L-28.1377,-46.6556 A8.19683,8.19683 0 0 0 -28.0857,-45.7339 A5.26564,5.26564 0 0 0 -27.951,-45.0063 A4.14718,4.14718 0 0 0 -27.6307,-44.1616 A2.90102,2.90102 0 0 0 -27.2027,-43.5389 A3.14988,3.14988 0 0 0 -24.7439,-42.5 A3.26653,3.26653 0 0 0 -22.2389,-43.5273 A2.83493,2.83493 0 0 0 -21.7998,-44.1475 A4.06581,4.06581 0 0 0 -21.4711,-44.9962 A5.19253,5.19253 0 0 0 -21.3339,-45.7262 A8.15776,8.15776 0 0 0 -21.2808,-46.6556 L-21.2808,-73.3213 A8.06808,8.06808 0 0 0 -21.3349,-74.2538 A5.1664,5.1664 0 0 0 -21.4748,-74.9881 A4.07195,4.07195 0 0 0 -21.8063,-75.836 A2.88901,2.88901 0 0 0 -22.2505,-76.4611 A3.25781,3.25781 0 0 0 -24.7439,-77.5001 A4.10449,4.10449 0 0 0 -25.4819,-77.4331 A3.09323,3.09323 0 0 0 -26.0994,-77.2523 A2.89205,2.89205 0 0 0 -26.6919,-76.9235 A3.13253,3.13253 0 0 0 -27.2142,-76.4496 A2.95155,2.95155 0 0 0 -27.6367,-75.8221 A4.23124,4.23124 0 0 0 -27.9532,-74.9734 A5.36217,5.36217 0 0 0 -28.0863,-74.2435 A8.31075,8.31075 0 0 0 -28.1377,-73.3213 L-28.1377,-61.9393 L-42.9365,-61.9393 L-42.9365,-73.3213 A8.06808,8.06808 0 0 0 -42.9906,-74.2538 A5.1664,5.1664 0 0 0 -43.1305,-74.9881 A4.07195,4.07195 0 0 0 -43.462,-75.836 A2.88901,2.88901 0 0 0 -43.9062,-76.4611 A3.25781,3.25781 0 0 0 -46.3996,-77.5001 A4.10449,4.10449 0 0 0 -47.1377,-77.4331 A3.09323,3.09323 0 0 0 -47.7551,-77.2523 A2.89205,2.89205 0 0 0 -48.3476,-76.9235 A3.13253,3.13253 0 0 0 -48.8699,-76.4496 A2.95155,2.95155 0 0 0 -49.2925,-75.8221 A4.23124,4.23124 0 0 0 -49.6089,-74.9734 A5.36217,5.36217 0 0 0 -49.7421,-74.2435 A8.31075,8.31075 0 0 0 -49.7934,-73.3213 L-49.7934,-46.6556 A8.4076,8.4076 0 0 0 -49.743,-45.7361 A5.39123,5.39123 0 0 0 -49.6124,-45.0103 A4.22679,4.22679 0 0 0 -49.2988,-44.1612 A2.89721,2.89721 0 0 0 -48.8815,-43.5389 A3.02777,3.02777 0 0 0 -48.3607,-43.0688 A2.88215,2.88215 0 0 0 -47.7596,-42.7411 A3.13767,3.13767 0 0 0 -47.1434,-42.5654 A4.26007,4.26007 0 0 0 -46.3996,-42.5 A3.26653,3.26653 0 0 0 -43.8947,-43.5273 A2.83493,2.83493 0 0 0 -43.4555,-44.1475 A4.06581,4.06581 0 0 0 -43.1268,-44.9962 A5.19253,5.19253 0 0 0 -42.9897,-45.7262 A8.15776,8.15776 0 0 0 -42.9365,-46.6556" style="stroke:#000000;stroke-width:0.25;"/>
        <!-- Polylinie -->
        <path d="M9.2367,-64.6867 A14.8988,14.8988 0 0 0 8.3594,-69.8813 A11.4707,11.4707 0 0 0 5.8198,-73.9677 A11.2128,11.2128 0 0 0 1.8488,-76.5881 A14.0396,14.0396 0 0 0 -3.3458,-77.5001 A13.6388,13.6388 0 0 0 -8.4942,-76.5766 A11.433,11.433 0 0 0 -12.4537,-73.9331 A11.4295,11.4295 0 0 0 -14.9932,-69.8698 A14.8565,14.8565 0 0 0 -15.859,-64.6867 A15.0381,15.0381 0 0 0 -14.9817,-59.4459 A11.4042,11.4042 0 0 0 -12.4652,-55.3826 A11.0934,11.0934 0 0 0 -8.4942,-52.7853 A14.0222,14.0222 0 0 0 -3.3458,-51.8733 A13.9975,13.9975 0 0 0 1.8488,-52.7968 A11.2994,11.2994 0 0 0 5.8429,-55.4287 A11.376,11.376 0 0 0 8.3709,-59.4921 A14.9533,14.9533 0 0 0 9.2367,-64.6867" style="stroke:#000000;stroke-width:0.25;"/>
        <!-- Polylinie -->
        <path d="M2.9108,-64.6867 A15.7458,15.7458 0 0 1 2.8143,-62.9463 A10.6567,10.6567 0 0 1 2.5603,-61.535 A8.71684,8.71684 0 0 1 1.9868,-59.9305 A6.45767,6.45767 0 0 1 1.2139,-58.684 A6.06861,6.06861 0 0 1 0.2574,-57.719 A5.13764,5.13764 0 0 1 -0.8048,-57.0595 A5.30116,5.30116 0 0 1 -1.9644,-56.6775 A6.85721,6.85721 0 0 1 -3.3458,-56.5369 A5.64794,5.64794 0 0 1 -6.6011,-57.495 A5.18154,5.18154 0 0 1 -7.7972,-58.6248 A7.33752,7.33752 0 0 1 -8.7713,-60.3232 A11.5111,11.5111 0 0 1 -9.5331,-64.6867 A11.4204,11.4204 0 0 1 -8.7828,-69.004 A6.19082,6.19082 0 0 1 -6.6357,-71.8322 A5.57691,5.57691 0 0 1 -3.3458,-72.8134 A6.81953,6.81953 0 0 1 -1.963,-72.6717 A5.28162,5.28162 0 0 1 -0.802,-72.2866 A5.1305,5.1305 0 0 1 0.258,-71.6244 A6.08963,6.08963 0 0 1 1.2139,-70.6547 A6.57381,6.57381 0 0 1 1.9862,-69.4074 A8.69266,8.69266 0 0 1 2.5573,-67.8201 A10.5331,10.5331 0 0 1 2.8137,-66.4132 A15.4017,15.4017 0 0 1 2.9108,-64.6867" style="stroke:#000000;stroke-width:0.25;"/>
        <!-- Polylinie -->
        <path d="M14.1958,-73.6676 L14.1958,-46.3324 A7.57069,7.57069 0 0 0 14.2428,-45.4899 A4.91543,4.91543 0 0 0 14.3651,-44.8211 A3.89927,3.89927 0 0 0 14.6532,-44.0465 A2.74766,2.74766 0 0 0 15.0385,-43.4696 A2.85921,2.85921 0 0 0 17.3126,-42.5 A2.982,2.982 0 0 0 19.6213,-43.4581 A2.67917,2.67917 0 0 0 20.023,-44.0326 A3.7759,3.7759 0 0 0 20.3229,-44.809 A4.7786,4.7786 0 0 0 20.4497,-45.4811 A7.42813,7.42813 0 0 0 20.4986,-46.3324 L20.4986,-73.6676 A7.32991,7.32991 0 0 0 20.4489,-74.5202 A4.72002,4.72002 0 0 0 20.3199,-75.1933 A3.73927,3.73927 0 0 0 20.0168,-75.9673 A2.68276,2.68276 0 0 0 19.6098,-76.5419 A2.99106,2.99106 0 0 0 17.3126,-77.5001 A2.84616,2.84616 0 0 0 15.0616,-76.5073 A2.90862,2.90862 0 0 0 14.6664,-75.9245 A3.84056,3.84056 0 0 0 14.3746,-75.1699 A4.70729,4.70729 0 0 0 14.2452,-74.5004 A7.04665,7.04665 0 0 0 14.1958,-73.6676" style="stroke:#000000;stroke-width:0.25;"/>
        <!-- Polylinie -->
        <path d="M44.5988,-66.2335 L32.2703,-66.2335 A8.36987,8.36987 0 0 1 33.136,-70.0198 A5.94425,5.94425 0 0 1 35.3755,-72.4901 A5.9149,5.9149 0 0 1 38.4576,-73.3213 A7.55074,7.55074 0 0 1 40.5239,-73.0558 A6.73032,6.73032 0 0 1 42.3363,-72.2246 A13.8246,13.8246 0 0 1 43.9524,-71.0126 A75.0388,75.0388 0 0 1 45.8686,-69.2579 A1.46157,1.46157 0 0 0 46.3998,-68.9677 A2.97211,2.97211 0 0 0 47.2538,-68.8424 A2.28177,2.28177 0 0 0 48.8238,-69.3734 A1.89818,1.89818 0 0 0 49.424,-70.874 A2.57338,2.57338 0 0 0 49.2905,-71.692 A6.284,6.284 0 0 0 48.7545,-72.8711 A7.92581,7.92581 0 0 0 46.7344,-75.0644 A11.5056,11.5056 0 0 0 43.3406,-76.8074 A14.6173,14.6173 0 0 0 38.6423,-77.5001 A19.0534,19.0534 0 0 0 35.8333,-77.2918 A13.2692,13.2692 0 0 0 33.5481,-76.7407 A11.4657,11.4657 0 0 0 31.1589,-75.6135 A10.3897,10.3897 0 0 0 29.1997,-74.037 A10.934,10.934 0 0 0 27.6698,-72.0539 A11.8405,11.8405 0 0 0 26.5785,-69.687 A13.4765,13.4765 0 0 0 26.0332,-67.4053 A18.8194,18.8194 0 0 0 25.829,-64.6405 A15.675,15.675 0 0 0 26.6601,-59.4575 A11.4272,11.4272 0 0 0 29.0843,-55.3595 A10.5118,10.5118 0 0 0 33.0091,-52.7391 A14.0885,14.0885 0 0 0 38.1806,-51.8272 A16.3213,16.3213 0 0 0 39.9274,-51.9209 A12.851,12.851 0 0 0 41.4579,-52.1799 A11.5882,11.5882 0 0 0 43.0852,-52.6863 A10.1407,10.1407 0 0 0 44.518,-53.3855 A10.2513,10.2513 0 0 0 48.4774,-57.4142 A10.5932,10.5932 0 0 0 49.7934,-62.4472 A7.02085,7.02085 0 0 0 49.719,-63.4664 A3.80304,3.80304 0 0 0 49.5368,-64.1962 A2.71855,2.71855 0 0 0 49.07,-65.0152 A2.05669,2.05669 0 0 0 48.4313,-65.5294 A5.08311,5.08311 0 0 0 47.0156,-66.0133 A13.3738,13.3738 0 0 0 44.5988,-66.2335" style="stroke:#000000;stroke-width:0.25;"/>
        <!-- Polylinie -->
        <path d="M32.2703,-62.655 L43.6984,-62.655 A13.4567,13.4567 0 0 1 43.5178,-61.219 A8.83882,8.83882 0 0 1 43.2329,-60.0812 A7.04886,7.04886 0 0 1 42.6619,-58.7775 A4.93903,4.93903 0 0 1 41.9553,-57.8183 A5.08351,5.08351 0 0 1 41.1047,-57.0945 A4.83823,4.83823 0 0 1 40.1392,-56.5894 A5.21083,5.21083 0 0 1 39.1493,-56.315 A6.88491,6.88491 0 0 1 37.9728,-56.2137 A6.2079,6.2079 0 0 1 36.8355,-56.3188 A4.92144,4.92144 0 0 1 35.8604,-56.6074 A4.73687,4.73687 0 0 1 34.9419,-57.1116 A5.31363,5.31363 0 0 1 34.1057,-57.8414 A5.33074,5.33074 0 0 1 33.3944,-58.8045 A7.47992,7.47992 0 0 1 32.8049,-60.0945 A9.24095,9.24095 0 0 1 32.4904,-61.2321 A13.7516,13.7516 0 0 1 32.2703,-62.655" style="stroke:#000000;stroke-width:0.25;"/>
        <!-- Schraffur -->
        <path d="M2.9108,-64.6867 A15.7458,15.7458 0 0 1 2.8143,-62.9463 A10.6567,10.6567 0 0 1 2.5603,-61.535 A8.71684,8.71684 0 0 1 1.9868,-59.9305 A6.45767,6.45767 0 0 1 1.2139,-58.684 A6.06861,6.06861 0 0 1 0.2574,-57.719 A5.13764,5.13764 0 0 1 -0.8048,-57.0595 A5.30116,5.30116 0 0 1 -1.9644,-56.6775 A6.85721,6.85721 0 0 1 -3.3458,-56.5369 A5.64794,5.64794 0 0 1 -6.6011,-57.495 A5.18154,5.18154 0 0 1 -7.7972,-58.6248 A7.33752,7.33752 0 0 1 -8.7713,-60.3232 A11.5111,11.5111 0 0 1 -9.5331,-64.6867 A11.4204,11.4204 0 0 1 -8.7828,-69.004 A6.19082,6.19082 0 0 1 -6.6357,-71.8322 A5.57691,5.57691 0 0 1 -3.3458,-72.8134 A6.81953,6.81953 0 0 1 -1.963,-72.6717 A5.28162,5.28162 0 0 1 -0.802,-72.2866 A5.1305,5.1305 0 0 1 0.258,-71.6244 A6.08963,6.08963 0 0 1 1.2139,-70.6547 A6.57381,6.57381 0 0 1 1.9862,-69.4074 A8.69266,8.69266 0 0 1 2.5573,-67.8201 A10.5331,10.5331 0 0 1 2.8137,-66.4132 A15.4017,15.4017 0 0 1 2.9108,-64.6867M14.1958,-73.6676 L14.1958,-46.3324 A7.57069,7.57069 0 0 0 14.2428,-45.4899 A4.91543,4.91543 0 0 0 14.3651,-44.8211 A3.89927,3.89927 0 0 0 14.6532,-44.0465 A2.74766,2.74766 0 0 0 15.0385,-43.4696 A2.85921,2.85921 0 0 0 17.3126,-42.5 A2.982,2.982 0 0 0 19.6213,-43.4581 A2.67917,2.67917 0 0 0 20.023,-44.0326 A3.7759,3.7759 0 0 0 20.3229,-44.809 A4.7786,4.7786 0 0 0 20.4497,-45.4811 A7.42813,7.42813 0 0 0 20.4986,-46.3324 L20.4986,-73.6676 A7.32991,7.32991 0 0 0 20.4489,-74.5202 A4.72002,4.72002 0 0 0 20.3199,-75.1933 A3.73927,3.73927 0 0 0 20.0168,-75.9673 A2.68276,2.68276 0 0 0 19.6098,-76.5419 A2.99106,2.99106 0 0 0 17.3126,-77.5001 A2.84616,2.84616 0 0 0 15.0616,-76.5073 A2.90862,2.90862 0 0 0 14.6664,-75.9245 A3.84056,3.84056 0 0 0 14.3746,-75.1699 A4.70729,4.70729 0 0 0 14.2452,-74.5004 A7.04665,7.04665 0 0 0 14.1958,-73.6676M44.5988,-66.2335 L32.2703,-66.2335 A8.36987,8.36987 0 0 1 33.136,-70.0198 A5.94425,5.94425 0 0 1 35.3755,-72.4901 A5.9149,5.9149 0 0 1 38.4576,-73.3213 A7.55074,7.55074 0 0 1 40.5239,-73.0558 A6.73032,6.73032 0 0 1 42.3363,-72.2246 A13.8246,13.8246 0 0 1 43.9524,-71.0126 A75.0388,75.0388 0 0 1 45.8686,-69.2579 A1.46157,1.46157 0 0 0 46.3998,-68.9677 A2.97211,2.97211 0 0 0 47.2538,-68.8424 A2.28177,2.28177 0 0 0 48.8238,-69.3734 A1.89818,1.89818 0 0 0 49.424,-70.874 A2.57338,2.57338 0 0 0 49.2905,-71.692 A6.284,6.284 0 0 0 48.7545,-72.8711 A7.92581,7.92581 0 0 0 46.7344,-75.0644 A11.5056,11.5056 0 0 0 43.3406,-76.8074 A14.6173,14.6173 0 0 0 38.6423,-77.5001 A19.0534,19.0534 0 0 0 35.8333,-77.2918 A13.2692,13.2692 0 0 0 33.5481,-76.7407 A11.4657,11.4657 0 0 0 31.1589,-75.6135 A10.3897,10.3897 0 0 0 29.1997,-74.037 A10.934,10.934 0 0 0 27.6698,-72.0539 A11.8405,11.8405 0 0 0 26.5785,-69.687 A13.4765,13.4765 0 0 0 26.0332,-67.4053 A18.8194,18.8194 0 0 0 25.829,-64.6405 A15.675,15.675 0 0 0 26.6601,-59.4575 A11.4272,11.4272 0 0 0 29.0843,-55.3595 A10.5118,10.5118 0 0 0 33.0091,-52.7391 A14.0885,14.0885 0 0 0 38.1806,-51.8272 A16.3213,16.3213 0 0 0 39.9274,-51.9209 A12.851,12.851 0 0 0 41.4579,-52.1799 A11.5882,11.5882 0 0 0 43.0852,-52.6863 A10.1407,10.1407 0 0 0 44.518,-53.3855 A10.2513,10.2513 0 0 0 48.4774,-57.4142 A10.5932,10.5932 0 0 0 49.7934,-62.4472 A7.02085,7.02085 0 0 0 49.719,-63.4664 A3.80304,3.80304 0 0 0 49.5368,-64.1962 A2.71855,2.71855 0 0 0 49.07,-65.0152 A2.05669,2.05669 0 0 0 48.4313,-65.5294 A5.08311,5.08311 0 0 0 47.0156,-66.0133 A13.3738,13.3738 0 0 0 44.5988,-66.2335M32.2703,-62.655 L43.6984,-62.655 A13.4567,13.4567 0 0 1 43.5178,-61.219 A8.83882,8.83882 0 0 1 43.2329,-60.0812 A7.04886,7.04886 0 0 1 42.6619,-58.7775 A4.93903,4.93903 0 0 1 41.9553,-57.8183 A5.08351,5.08351 0 0 1 41.1047,-57.0945 A4.83823,4.83823 0 0 1 40.1392,-56.5894 A5.21083,5.21083 0 0 1 39.1493,-56.315 A6.88491,6.88491 0 0 1 37.9728,-56.2137 A6.2079,6.2079 0 0 1 36.8355,-56.3188 A4.92144,4.92144 0 0 1 35.8604,-56.6074 A4.73687,4.73687 0 0 1 34.9419,-57.1116 A5.31363,5.31363 0 0 1 34.1057,-57.8414 A5.33074,5.33074 0 0 1 33.3944,-58.8045 A7.47992,7.47992 0 0 1 32.8049,-60.0945 A9.24095,9.24095 0 0 1 32.4904,-61.2321 A13.7516,13.7516 0 0 1 32.2703,-62.655M-42.9365,-46.6556 L-42.9365,-56.3522 L-28.1377,-56.3522 L-28.1377,-46.6556 A8.19683,8.19683 0 0 0 -28.0857,-45.7339 A5.26564,5.26564 0 0 0 -27.951,-45.0063 A4.14718,4.14718 0 0 0 -27.6307,-44.1616 A2.90102,2.90102 0 0 0 -27.2027,-43.5389 A3.14988,3.14988 0 0 0 -24.7439,-42.5 A3.26653,3.26653 0 0 0 -22.2389,-43.5273 A2.83493,2.83493 0 0 0 -21.7998,-44.1475 A4.06581,4.06581 0 0 0 -21.4711,-44.9962 A5.19253,5.19253 0 0 0 -21.3339,-45.7262 A8.15776,8.15776 0 0 0 -21.2808,-46.6556 L-21.2808,-73.3213 A8.06808,8.06808 0 0 0 -21.3349,-74.2538 A5.1664,5.1664 0 0 0 -21.4748,-74.9881 A4.07195,4.07195 0 0 0 -21.8063,-75.836 A2.88901,2.88901 0 0 0 -22.2505,-76.4611 A3.25781,3.25781 0 0 0 -24.7439,-77.5001 A4.10449,4.10449 0 0 0 -25.4819,-77.4331 A3.09323,3.09323 0 0 0 -26.0994,-77.2523 A2.89205,2.89205 0 0 0 -26.6919,-76.9235 A3.13253,3.13253 0 0 0 -27.2142,-76.4496 A2.95155,2.95155 0 0 0 -27.6367,-75.8221 A4.23124,4.23124 0 0 0 -27.9532,-74.9734 A5.36217,5.36217 0 0 0 -28.0863,-74.2435 A8.31075,8.31075 0 0 0 -28.1377,-73.3213 L-28.1377,-61.9393 L-42.9365,-61.9393 L-42.9365,-73.3213 A8.06808,8.06808 0 0 0 -42.9906,-74.2538 A5.1664,5.1664 0 0 0 -43.1305,-74.9881 A4.07195,4.07195 0 0 0 -43.462,-75.836 A2.88901,2.88901 0 0 0 -43.9062,-76.4611 A3.25781,3.25781 0 0 0 -46.3996,-77.5001 A4.10449,4.10449 0 0 0 -47.1377,-77.4331 A3.09323,3.09323 0 0 0 -47.7551,-77.2523 A2.89205,2.89205 0 0 0 -48.3476,-76.9235 A3.13253,3.13253 0 0 0 -48.8699,-76.4496 A2.95155,2.95155 0 0 0 -49.2925,-75.8221 A4.23124,4.23124 0 0 0 -49.6089,-74.9734 A5.36217,5.36217 0 0 0 -49.7421,-74.2435 A8.31075,8.31075 0 0 0 -49.7934,-73.3213 L-49.7934,-46.6556 A8.4076,8.4076 0 0 0 -49.743,-45.7361 A5.39123,5.39123 0 0 0 -49.6124,-45.0103 A4.22679,4.22679 0 0 0 -49.2988,-44.1612 A2.89721,2.89721 0 0 0 -48.8815,-43.5389 A3.02777,3.02777 0 0 0 -48.3607,-43.0688 A2.88215,2.88215 0 0 0 -47.7596,-42.7411 A3.13767,3.13767 0 0 0 -47.1434,-42.5654 A4.26007,4.26007 0 0 0 -46.3996,-42.5 A3.26653,3.26653 0 0 0 -43.8947,-43.5273 A2.83493,2.83493 0 0 0 -43.4555,-44.1475 A4.06581,4.06581 0 0 0 -43.1268,-44.9962 A5.19253,5.19253 0 0 0 -42.9897,-45.7262 A8.15776,8.15776 0 0 0 -42.9365,-46.6556M9.2367,-64.6867 A14.8988,14.8988 0 0 0 8.3594,-69.8813 A11.4707,11.4707 0 0 0 5.8198,-73.9677 A11.2128,11.2128 0 0 0 1.8488,-76.5881 A14.0396,14.0396 0 0 0 -3.3458,-77.5001 A13.6388,13.6388 0 0 0 -8.4942,-76.5766 A11.433,11.433 0 0 0 -12.4537,-73.9331 A11.4295,11.4295 0 0 0 -14.9932,-69.8698 A14.8565,14.8565 0 0 0 -15.859,-64.6867 A15.0381,15.0381 0 0 0 -14.9817,-59.4459 A11.4042,11.4042 0 0 0 -12.4652,-55.3826 A11.0934,11.0934 0 0 0 -8.4942,-52.7853 A14.0222,14.0222 0 0 0 -3.3458,-51.8733 A13.9975,13.9975 0 0 0 1.8488,-52.7968 A11.2994,11.2994 0 0 0 5.8429,-55.4287 A11.376,11.376 0 0 0 8.3709,-59.4921 A14.9533,14.9533 0 0 0 9.2367,-64.6867" style="fill:#000000;fill-rule:evenodd;"/>
    </g>
</svg>
