<?xml version="1.0" encoding="UTF-8"?>
<!-- 2020-10-25 14:20:59 Generated by QCAD 3.24.2 SVG Exporter PG -->
<svg width="210.5mm" height="221.6591mm" viewBox="-105.25 -116.4091 210.5 221.6591" version="1.1" xmlns="http://www.w3.org/2000/svg" style="stroke-linecap:round;stroke-linejoin:round;fill:none">
    <g transform="scale(1,-1)">
        <!-- Polylinie -->
        <path d="M-90,-100 L90,-100 A10,10 0 0 1 100,-90 L100,90 A10,10 0 0 1 90,100 L-90,100 A10,10 0 0 1 -100,90 L-100,-90 A10,10 0 0 1 -90,-100" style="stroke:#000000;stroke-width:0.25;"/>
        <!-- Kreisbogen -->
        <path d="M49.2765,43.9875 A3,3 0 1,1 51.2765,43.9875" style="stroke:#000000;stroke-width:0.5;"/>
        <!-- Linie -->
        <line x1="49.2765" y1="43.9875" x2="49.2765" y2="71.1591" style="stroke:#000000;stroke-width:0.5;"/>
        <!-- Linie -->
        <line x1="51.2765" y1="71.1591" x2="51.2765" y2="43.9875" style="stroke:#000000;stroke-width:0.5;"/>
        <!-- Linie -->
        <line x1="49.2765" y1="71.1591" x2="45.2765" y2="91.1591" style="stroke:#000000;stroke-width:0.5;"/>
        <!-- Linie -->
        <line x1="55.2765" y1="91.1591" x2="51.2765" y2="71.1591" style="stroke:#000000;stroke-width:0.5;"/>
        <!-- Linie -->
        <line x1="45.2765" y1="91.1591" x2="45.2765" y2="111.1591" style="stroke:#000000;stroke-width:0.5;"/>
        <!-- Linie -->
        <line x1="45.2765" y1="111.1591" x2="55.2765" y2="111.1591" style="stroke:#000000;stroke-width:0.5;"/>
        <!-- Linie -->
        <line x1="55.2765" y1="111.1591" x2="55.2765" y2="91.1591" style="stroke:#000000;stroke-width:0.5;"/>
        <!-- Schraffur -->
        <path d="M49.2765,43.9875 A3,3 0 1 1 51.2765,43.9875 L51.2765,71.1591 L55.2765,91.1591 L55.2765,111.1591 L45.2765,111.1591 L45.2765,91.1591 L49.2765,71.1591 Z" style="fill:#000000;fill-rule:evenodd;"/>
        <!-- Linie -->
        <line x1="90" y1="14.9998" x2="80" y2="4.9998" style="stroke:#000000;stroke-width:0.5;"/>
        <!-- Linie -->
        <line x1="20" y1="64.9998" x2="-10" y2="34.9998" style="stroke:#000000;stroke-width:0.5;"/>
        <!-- Linie -->
        <line x1="20" y1="4.9998" x2="80" y2="4.9998" style="stroke:#000000;stroke-width:0.5;"/>
        <!-- Linie -->
        <line x1="50.2765" y1="74.6596" x2="50.2765" y2="74.6591" style="stroke:#000000;stroke-width:0.5;"/>
        <!-- Linie -->
        <line x1="19.9998" y1="65.0002" x2="19.9998" y2="64.9996" style="stroke:#000000;stroke-width:0.5;"/>
        <!-- Linie -->
        <line x1="19.9998" y1="64.9996" x2="90" y2="64.9997" style="stroke:#000000;stroke-width:0.5;"/>
        <!-- Linie -->
        <line x1="80" y1="-5.0002" x2="80" y2="4.9998" style="stroke:#000000;stroke-width:0.5;"/>
        <!-- Linie -->
        <line x1="80" y1="-5.0002" x2="90" y2="4.9998" style="stroke:#000000;stroke-width:0.5;"/>
        <!-- Linie -->
        <line x1="20" y1="-5.0002" x2="20" y2="4.9998" style="stroke:#000000;stroke-width:0.5;"/>
        <!-- Linie -->
        <line x1="20" y1="4.9998" x2="50" y2="35" style="stroke:#000000;stroke-width:0.5;"/>
        <!-- Linie -->
        <line x1="50" y1="35" x2="-10" y2="34.9998" style="stroke:#000000;stroke-width:0.5;"/>
        <!-- Linie -->
        <line x1="-10" y1="34.9998" x2="-10" y2="24" style="stroke:#000000;stroke-width:0.5;"/>
        <!-- Linie -->
        <line x1="-10" y1="24" x2="39.0001" y2="24" style="stroke:#000000;stroke-width:0.5;"/>
        <!-- Linie -->
        <line x1="20" y1="-5.0002" x2="80" y2="-5.0002" style="stroke:#000000;stroke-width:0.5;"/>
        <!-- Polylinie -->
        <path d="M-41.6268,-40.1969 L-41.6268,-21.1502 A5.78231,5.78231 0 0 0 -41.5891,-20.491 A3.71806,3.71806 0 0 0 -41.4915,-19.9707 A2.93513,2.93513 0 0 0 -41.2602,-19.3688 A2.07413,2.07413 0 0 0 -40.9507,-18.9239 A2.25634,2.25634 0 0 0 -39.2027,-18.1819 A2.33322,2.33322 0 0 0 -37.4134,-18.9157 A2.02493,2.02493 0 0 0 -37.0998,-19.3587 A2.90413,2.90413 0 0 0 -36.865,-19.9649 A3.70893,3.70893 0 0 0 -36.767,-20.4863 A5.82694,5.82694 0 0 0 -36.7291,-21.1502 L-36.7291,-40.1969 A5.83347,5.83347 0 0 0 -36.7671,-40.8622 A3.73194,3.73194 0 0 0 -36.8656,-41.3861 A2.93447,2.93447 0 0 0 -37.1,-41.9933 A2.06087,2.06087 0 0 0 -37.4134,-42.4397 A2.32042,2.32042 0 0 0 -39.2027,-43.1818 A2.25144,2.25144 0 0 0 -40.9424,-42.4314 A2.11334,2.11334 0 0 0 -41.2557,-41.9829 A2.94002,2.94002 0 0 0 -41.489,-41.3813 A3.70016,3.70016 0 0 0 -41.5885,-40.858 A5.71837,5.71837 0 0 0 -41.6268,-40.1969" style="stroke:#000000;stroke-width:0.25;"/>
        <!-- Polylinie -->
        <path d="M-27.4785,-27.3672 L-27.4785,-27.9114 A7.87942,7.87942 0 0 0 -24.8812,-25.6109 A6.91782,6.91782 0 0 0 -21.6407,-24.8771 A6.46634,6.46634 0 0 0 -18.458,-25.6521 A4.92446,4.92446 0 0 0 -16.3637,-27.8454 A5.21584,5.21584 0 0 0 -15.7865,-29.6264 A18.4534,18.4534 0 0 0 -15.6546,-32.067 L-15.6546,-40.4443 A4.42191,4.42191 0 0 0 -15.8439,-41.7243 A2.03118,2.03118 0 0 0 -16.273,-42.4891 A2.05461,2.05461 0 0 0 -17.8809,-43.1818 A2.07596,2.07596 0 0 0 -19.5134,-42.4727 A2.12634,2.12634 0 0 0 -19.9517,-41.6922 A4.22778,4.22778 0 0 0 -20.1401,-40.4443 L-20.1401,-32.941 A12.1893,12.1893 0 0 1 -20.3362,-30.7631 A4.29471,4.29471 0 0 1 -20.7585,-29.5357 A1.95886,1.95886 0 0 1 -21.1879,-28.985 A2.16894,2.16894 0 0 1 -21.8108,-28.5952 A2.80081,2.80081 0 0 1 -22.4065,-28.4251 A4.90918,4.90918 0 0 1 -23.2239,-28.3566 A3.65086,3.65086 0 0 1 -25.4171,-29.074 A4.12261,4.12261 0 0 1 -26.8683,-31.0446 A3.79331,3.79331 0 0 1 -27.0154,-31.6657 A14.6025,14.6025 0 0 1 -27.1473,-32.9112 A22.7758,22.7758 0 0 1 -27.1836,-33.7235 A40.2569,40.2569 0 0 1 -27.1981,-34.8045 L-27.1981,-40.4443 A5.23561,5.23561 0 0 0 -27.2336,-41.0533 A3.37142,3.37142 0 0 0 -27.3257,-41.5341 A2.67089,2.67089 0 0 0 -27.5423,-42.087 A1.91624,1.91624 0 0 0 -27.833,-42.4974 A2.13646,2.13646 0 0 0 -29.4738,-43.1818 A2.03956,2.03956 0 0 0 -31.0734,-42.4727 A2.12634,2.12634 0 0 0 -31.5117,-41.6922 A4.22778,4.22778 0 0 0 -31.7001,-40.4443 L-31.7001,-27.4331 A4.35568,4.35568 0 0 0 -31.5256,-26.2129 A1.83581,1.83581 0 0 0 -31.1394,-25.512 A1.94095,1.94095 0 0 0 -29.6058,-24.8771 A2.0799,2.0799 0 0 0 -28.5339,-25.1574 A2.00731,2.00731 0 0 0 -27.767,-25.9984 A2.9639,2.9639 0 0 0 -27.4785,-27.3672" style="stroke:#000000;stroke-width:0.25;"/>
        <!-- Polylinie -->
        <path d="M-7.0828,-27.3672 L-7.0828,-27.9114 A7.87942,7.87942 0 0 0 -4.4855,-25.6109 A6.91782,6.91782 0 0 0 -1.245,-24.8771 A6.46634,6.46634 0 0 0 1.9377,-25.6521 A4.92446,4.92446 0 0 0 4.032,-27.8454 A5.21584,5.21584 0 0 0 4.6092,-29.6264 A18.4534,18.4534 0 0 0 4.7411,-32.067 L4.7411,-40.4443 A4.42191,4.42191 0 0 0 4.5518,-41.7243 A2.03118,2.03118 0 0 0 4.1227,-42.4891 A2.05461,2.05461 0 0 0 2.5148,-43.1818 A2.07596,2.07596 0 0 0 0.8823,-42.4727 A2.12634,2.12634 0 0 0 0.444,-41.6922 A4.22778,4.22778 0 0 0 0.2556,-40.4443 L0.2556,-32.941 A12.1893,12.1893 0 0 1 0.0595,-30.7631 A4.29471,4.29471 0 0 1 -0.3628,-29.5357 A1.95886,1.95886 0 0 1 -0.7922,-28.985 A2.16894,2.16894 0 0 1 -1.4151,-28.5952 A2.80081,2.80081 0 0 1 -2.0108,-28.4251 A4.90918,4.90918 0 0 1 -2.8282,-28.3566 A3.65086,3.65086 0 0 1 -5.0214,-29.074 A4.12261,4.12261 0 0 1 -6.4726,-31.0446 A3.79331,3.79331 0 0 1 -6.6197,-31.6657 A14.6025,14.6025 0 0 1 -6.7516,-32.9112 A22.7758,22.7758 0 0 1 -6.7879,-33.7235 A40.2569,40.2569 0 0 1 -6.8024,-34.8045 L-6.8024,-40.4443 A5.23561,5.23561 0 0 0 -6.838,-41.0533 A3.37142,3.37142 0 0 0 -6.93,-41.5341 A2.67089,2.67089 0 0 0 -7.1466,-42.087 A1.91624,1.91624 0 0 0 -7.4373,-42.4974 A2.13646,2.13646 0 0 0 -9.0781,-43.1818 A2.03956,2.03956 0 0 0 -10.6777,-42.4727 A2.12634,2.12634 0 0 0 -11.116,-41.6922 A4.22778,4.22778 0 0 0 -11.3044,-40.4443 L-11.3044,-27.4331 A4.35568,4.35568 0 0 0 -11.1299,-26.2129 A1.83581,1.83581 0 0 0 -10.7437,-25.512 A1.94095,1.94095 0 0 0 -9.2101,-24.8771 A2.0799,2.0799 0 0 0 -8.1382,-25.1574 A2.00731,2.00731 0 0 0 -7.3713,-25.9984 A2.9639,2.9639 0 0 0 -7.0828,-27.3672" style="stroke:#000000;stroke-width:0.25;"/>
        <!-- Polylinie -->
        <path d="M21.7892,-35.1343 L12.9831,-35.1343 A5.97844,5.97844 0 0 1 13.6015,-37.8388 A4.24586,4.24586 0 0 1 15.2011,-39.6033 A4.2249,4.2249 0 0 1 17.4026,-40.1969 A5.39335,5.39335 0 0 1 18.8786,-40.0073 A4.80734,4.80734 0 0 1 20.1731,-39.4136 A9.87467,9.87467 0 0 1 21.3274,-38.5479 A53.5988,53.5988 0 0 1 22.6961,-37.2946 A1.47721,1.47721 0 0 0 23.6856,-36.9977 A1.62982,1.62982 0 0 0 24.807,-37.377 A1.35583,1.35583 0 0 0 25.2357,-38.4489 A2.92843,2.92843 0 0 0 24.7575,-39.8754 A5.66126,5.66126 0 0 0 23.3146,-41.442 A8.21824,8.21824 0 0 0 20.8904,-42.687 A10.4408,10.4408 0 0 0 17.5346,-43.1818 A13.6095,13.6095 0 0 0 15.5281,-43.033 A9.47792,9.47792 0 0 0 13.8959,-42.6394 A8.18973,8.18973 0 0 0 12.1893,-41.8342 A7.42118,7.42118 0 0 0 10.7899,-40.7082 A7.80995,7.80995 0 0 0 9.6971,-39.2917 A8.45741,8.45741 0 0 0 8.9176,-37.6011 A9.62604,9.62604 0 0 0 8.5281,-35.9713 A13.4423,13.4423 0 0 0 8.3822,-33.9964 A11.1964,11.1964 0 0 0 8.9759,-30.2943 A8.16226,8.16226 0 0 0 10.7074,-27.3672 A7.50835,7.50835 0 0 0 13.5108,-25.4955 A10.0632,10.0632 0 0 0 17.2047,-24.8441 A10.6961,10.6961 0 0 0 19.7588,-25.1535 A7.33162,7.33162 0 0 0 21.7314,-25.9572 A7.32234,7.32234 0 0 0 24.5596,-28.8348 A7.56651,7.56651 0 0 0 25.4996,-32.4298 A5.01486,5.01486 0 0 0 25.4464,-33.1578 A2.71644,2.71644 0 0 0 25.3163,-33.679 A1.94181,1.94181 0 0 0 24.9828,-34.2641 A1.46906,1.46906 0 0 0 24.5266,-34.6313 A3.63077,3.63077 0 0 0 23.5154,-34.977 A9.55264,9.55264 0 0 0 21.7892,-35.1343" style="stroke:#000000;stroke-width:0.25;"/>
        <!-- Polylinie -->
        <path d="M12.9831,-32.5782 L21.146,-32.5782 A9.61185,9.61185 0 0 1 21.017,-31.5525 A6.3134,6.3134 0 0 1 20.8135,-30.7398 A5.03486,5.03486 0 0 1 20.4057,-29.8086 A3.52785,3.52785 0 0 1 19.901,-29.1234 A3.63106,3.63106 0 0 1 19.2934,-28.6065 A3.45586,3.45586 0 0 1 18.6038,-28.2457 A3.72199,3.72199 0 0 1 17.8967,-28.0497 A4.91776,4.91776 0 0 1 17.0563,-27.9773 A3.60318,3.60318 0 0 1 14.2941,-29.1399 A3.80765,3.80765 0 0 1 13.7861,-29.8279 A5.34276,5.34276 0 0 1 13.365,-30.7493 A6.60064,6.60064 0 0 1 13.1404,-31.5619 A9.82248,9.82248 0 0 1 12.9831,-32.5782" style="stroke:#000000;stroke-width:0.25;"/>
        <!-- Polylinie -->
        <path d="M33.7607,-36.6844 L33.7607,-40.4443 A5.16737,5.16737 0 0 0 33.7246,-41.0541 A3.3311,3.3311 0 0 0 33.6311,-41.5355 A2.64582,2.64582 0 0 0 33.4121,-42.0869 A1.91924,1.91924 0 0 0 33.1176,-42.4974 A2.14324,2.14324 0 0 0 31.485,-43.1818 A2.06125,2.06125 0 0 0 29.8854,-42.4891 A2.02794,2.02794 0 0 0 29.4503,-41.7228 A4.36333,4.36333 0 0 0 29.2588,-40.4443 L29.2588,-27.9114 A6.52815,6.52815 0 0 0 29.3874,-26.6222 A2.68658,2.68658 0 0 0 29.6756,-25.8426 A1.99456,1.99456 0 0 0 30.0106,-25.4008 A1.6698,1.6698 0 0 0 30.4205,-25.1019 A1.82384,1.82384 0 0 0 30.8703,-24.9397 A2.73184,2.73184 0 0 0 31.4521,-24.8771 A3.08329,3.08329 0 0 0 31.962,-24.9195 A1.95211,1.95211 0 0 0 32.3543,-25.0284 A1.62143,1.62143 0 0 0 32.7587,-25.2595 A1.51415,1.51415 0 0 0 33.0681,-25.5862 A2.3629,2.3629 0 0 0 33.4172,-26.3439 A6.19353,6.19353 0 0 0 33.6123,-27.6805 A7.87931,7.87931 0 0 0 35.2696,-25.5862 A2.69732,2.69732 0 0 0 36.1933,-25.0823 A4.50222,4.50222 0 0 0 37.5371,-24.8771 A5.80395,5.80395 0 0 0 40.2911,-25.5862 A3.76448,3.76448 0 0 0 40.8654,-25.9619 A2.24003,2.24003 0 0 0 41.2383,-26.3375 A1.83127,1.83127 0 0 0 41.5269,-26.8691 A1.83426,1.83426 0 0 0 41.6268,-27.4661 A1.78813,1.78813 0 0 0 41.0579,-28.8266 A1.76508,1.76508 0 0 0 39.8293,-29.3625 A5.65999,5.65999 0 0 0 38.6338,-29.0575 A5.55911,5.55911 0 0 1 36.9599,-28.7524 A2.44824,2.44824 0 0 1 35.3439,-29.2719 A3.33299,3.33299 0 0 1 34.3709,-30.8137 A10.7623,10.7623 0 0 1 33.8927,-33.2461 A37.7771,37.7771 0 0 1 33.7607,-36.6844" style="stroke:#000000;stroke-width:0.25;"/>
        <!-- Polylinie -->
        <path d="M-35.2601,-73.7707 A6.44469,6.44469 0 0 0 -35.829,-76.269 A9.01206,9.01206 0 0 0 -37.6183,-78.9075 A9.12915,9.12915 0 0 0 -40.735,-81.0101 A11.2038,11.2038 0 0 0 -45.1545,-81.8181 A15.4439,15.4439 0 0 0 -48.634,-81.4553 A9.77435,9.77435 0 0 0 -51.4787,-80.3257 A9.59701,9.59701 0 0 0 -53.8286,-78.3056 A12.0047,12.0047 0 0 0 -55.4612,-75.7578 A13.2849,13.2849 0 0 0 -56.4754,-72.7483 A16.4041,16.4041 0 0 0 -56.8134,-69.3512 A15.0697,15.0697 0 0 0 -55.9642,-64.1236 A11.1503,11.1503 0 0 0 -53.5318,-60.1741 A10.6094,10.6094 0 0 0 -49.8214,-57.6758 A12.0144,12.0144 0 0 0 -45.2864,-56.8182 A11.3305,11.3305 0 0 0 -40.0589,-57.9891 A11.6469,11.6469 0 0 0 -37.9506,-59.3725 A7.79272,7.79272 0 0 0 -36.5464,-60.8832 A9.11831,9.11831 0 0 0 -36.0324,-61.6969 A6.36332,6.36332 0 0 0 -35.6846,-62.4218 A5.29856,5.29856 0 0 0 -35.4102,-63.3252 A3.98972,3.98972 0 0 0 -35.326,-64.1401 A2.12297,2.12297 0 0 0 -35.9197,-65.6243 A1.88212,1.88212 0 0 0 -37.3544,-66.2674 A2.94083,2.94083 0 0 0 -38.24,-66.1309 A1.35634,1.35634 0 0 0 -38.7644,-65.8222 A6.1664,6.1664 0 0 0 -39.8115,-64.2885 A9.60813,9.60813 0 0 1 -40.9273,-62.6332 A5.67835,5.67835 0 0 1 -42.0625,-61.6005 A4.60447,4.60447 0 0 1 -43.4344,-60.9591 A6.76728,6.76728 0 0 1 -45.2534,-60.71 A7.13556,7.13556 0 0 1 -46.7125,-60.8608 A5.5413,5.5413 0 0 1 -47.9383,-61.2709 A5.39976,5.39976 0 0 1 -49.0532,-61.973 A6.45189,6.45189 0 0 1 -50.0605,-63.0023 A6.7834,6.7834 0 0 1 -50.8763,-64.3421 A9.5738,9.5738 0 0 1 -51.4864,-66.103 A11.8944,11.8944 0 0 1 -51.7494,-67.6255 A17.8584,17.8584 0 0 1 -51.8497,-69.5161 A16.667,16.667 0 0 1 -51.6175,-72.2889 A8.59897,8.59897 0 0 1 -51.0582,-74.2077 A7.14593,7.14593 0 0 1 -50.0502,-75.8963 A5.07942,5.07942 0 0 1 -48.8154,-77.0029 A6.19067,6.19067 0 0 1 -45.4184,-77.9263 A7.1687,7.1687 0 0 1 -43.4008,-77.6366 A5.14923,5.14923 0 0 1 -41.8481,-76.8792 A5.31929,5.31929 0 0 1 -40.6238,-75.6535 A7.75659,7.75659 0 0 1 -39.6466,-73.8037 A5.21847,5.21847 0 0 0 -38.8715,-72.2453 A1.35181,1.35181 0 0 0 -38.5847,-71.968 A1.56127,1.56127 0 0 0 -38.2048,-71.7691 A1.91652,1.91652 0 0 0 -37.8485,-71.6786 A3.03351,3.03351 0 0 0 -37.3874,-71.6434 A2.07523,2.07523 0 0 0 -35.8867,-72.2535 A2.03177,2.03177 0 0 0 -35.2601,-73.7707" style="stroke:#000000;stroke-width:0.25;"/>
        <!-- Polylinie -->
        <path d="M-14.3195,-72.6658 A10.6419,10.6419 0 0 0 -14.9462,-76.3762 A8.1933,8.1933 0 0 0 -16.7602,-79.2951 A8.00911,8.00911 0 0 0 -19.5966,-81.1668 A10.0282,10.0282 0 0 0 -23.307,-81.8181 A9.74192,9.74192 0 0 0 -26.9844,-81.1585 A8.16638,8.16638 0 0 0 -29.8125,-79.2703 A8.16386,8.16386 0 0 0 -31.6265,-76.368 A10.6117,10.6117 0 0 0 -32.2449,-72.6658 A10.7414,10.7414 0 0 0 -31.6183,-68.9224 A8.1458,8.1458 0 0 0 -29.8208,-66.0201 A7.92377,7.92377 0 0 0 -26.9844,-64.1649 A10.0158,10.0158 0 0 0 -23.307,-63.5135 A9.99814,9.99814 0 0 0 -19.5966,-64.1731 A8.07097,8.07097 0 0 0 -16.7437,-66.053 A8.12564,8.12564 0 0 0 -14.9379,-68.9554 A10.6809,10.6809 0 0 0 -14.3195,-72.6658" style="stroke:#000000;stroke-width:0.25;"/>
        <!-- Polylinie -->
        <path d="M-18.838,-72.6658 A11.2469,11.2469 0 0 1 -18.9069,-71.4227 A7.61187,7.61187 0 0 1 -19.0883,-70.4146 A6.22627,6.22627 0 0 1 -19.498,-69.2686 A4.61259,4.61259 0 0 1 -20.0501,-68.3782 A3.93627,3.93627 0 0 1 -23.307,-66.8446 A4.03421,4.03421 0 0 1 -25.6322,-67.529 A4.33627,4.33627 0 0 1 -27.1823,-69.5491 A8.22215,8.22215 0 0 1 -27.7265,-72.6658 A8.1574,8.1574 0 0 1 -27.1905,-75.7496 A4.42198,4.42198 0 0 1 -25.6569,-77.7697 A3.98348,3.98348 0 0 1 -23.307,-78.4705 A3.92829,3.92829 0 0 1 -20.0501,-76.9287 A4.69554,4.69554 0 0 1 -19.4984,-76.0377 A6.209,6.209 0 0 1 -19.0905,-74.904 A7.52361,7.52361 0 0 1 -18.9073,-73.899 A11.0012,11.0012 0 0 1 -18.838,-72.6658" style="stroke:#000000;stroke-width:0.25;"/>
        <!-- Polylinie -->
        <path d="M-6.3084,-75.3208 L-6.3084,-79.0807 A5.16737,5.16737 0 0 0 -6.3445,-79.6905 A3.3311,3.3311 0 0 0 -6.438,-80.1719 A2.64582,2.64582 0 0 0 -6.657,-80.7233 A1.91924,1.91924 0 0 0 -6.9515,-81.1338 A2.14324,2.14324 0 0 0 -8.5841,-81.8181 A2.06125,2.06125 0 0 0 -10.1837,-81.1255 A2.02794,2.02794 0 0 0 -10.6188,-80.3592 A4.36333,4.36333 0 0 0 -10.8103,-79.0807 L-10.8103,-66.5478 A6.52815,6.52815 0 0 0 -10.6817,-65.2585 A2.68658,2.68658 0 0 0 -10.3935,-64.479 A1.99456,1.99456 0 0 0 -10.0585,-64.0372 A1.6698,1.6698 0 0 0 -9.6486,-63.7383 A1.82384,1.82384 0 0 0 -9.1988,-63.5761 A2.73184,2.73184 0 0 0 -8.617,-63.5135 A3.08329,3.08329 0 0 0 -8.1071,-63.5559 A1.95211,1.95211 0 0 0 -7.7148,-63.6648 A1.62143,1.62143 0 0 0 -7.3104,-63.8959 A1.51415,1.51415 0 0 0 -7.001,-64.2226 A2.3629,2.3629 0 0 0 -6.6519,-64.9803 A6.19353,6.19353 0 0 0 -6.4568,-66.3169 A7.87931,7.87931 0 0 0 -4.7995,-64.2226 A2.69732,2.69732 0 0 0 -3.8758,-63.7187 A4.50222,4.50222 0 0 0 -2.532,-63.5135 A5.80395,5.80395 0 0 0 0.222,-64.2226 A3.76448,3.76448 0 0 0 0.7963,-64.5983 A2.24003,2.24003 0 0 0 1.1692,-64.9739 A1.83127,1.83127 0 0 0 1.4578,-65.5055 A1.83426,1.83426 0 0 0 1.5577,-66.1025 A1.78813,1.78813 0 0 0 0.9888,-67.463 A1.76508,1.76508 0 0 0 -0.2398,-67.9989 A5.65999,5.65999 0 0 0 -1.4354,-67.6939 A5.55911,5.55911 0 0 1 -3.1092,-67.3888 A2.44824,2.44824 0 0 1 -4.7252,-67.9082 A3.33299,3.33299 0 0 1 -5.6982,-69.4501 A10.7623,10.7623 0 0 1 -6.1764,-71.8825 A37.7771,37.7771 0 0 1 -6.3084,-75.3208" style="stroke:#000000;stroke-width:0.25;"/>
        <!-- Polylinie -->
        <path d="M8.1039,-66.0036 L8.1039,-66.5478 A7.87942,7.87942 0 0 0 10.7011,-64.2473 A6.91782,6.91782 0 0 0 13.9416,-63.5135 A6.46634,6.46634 0 0 0 17.1243,-64.2885 A4.92446,4.92446 0 0 0 19.2186,-66.4818 A5.21584,5.21584 0 0 0 19.7958,-68.2628 A18.4534,18.4534 0 0 0 19.9277,-70.7034 L19.9277,-79.0807 A4.42191,4.42191 0 0 0 19.7384,-80.3607 A2.03118,2.03118 0 0 0 19.3093,-81.1255 A2.05461,2.05461 0 0 0 17.7014,-81.8181 A2.07596,2.07596 0 0 0 16.0689,-81.109 A2.12634,2.12634 0 0 0 15.6306,-80.3286 A4.22778,4.22778 0 0 0 15.4422,-79.0807 L15.4422,-71.5774 A12.1893,12.1893 0 0 1 15.2461,-69.3995 A4.29471,4.29471 0 0 1 14.8238,-68.1721 A1.95886,1.95886 0 0 1 14.3944,-67.6214 A2.16894,2.16894 0 0 1 13.7715,-67.2316 A2.80081,2.80081 0 0 1 13.1758,-67.0615 A4.90918,4.90918 0 0 1 12.3585,-66.993 A3.65086,3.65086 0 0 1 10.1652,-67.7104 A4.12261,4.12261 0 0 1 8.714,-69.681 A3.79331,3.79331 0 0 1 8.5669,-70.3021 A14.6025,14.6025 0 0 1 8.4351,-71.5476 A22.7758,22.7758 0 0 1 8.3987,-72.3599 A40.2569,40.2569 0 0 1 8.3842,-73.4409 L8.3842,-79.0807 A5.23561,5.23561 0 0 0 8.3487,-79.6897 A3.37142,3.37142 0 0 0 8.2566,-80.1705 A2.67089,2.67089 0 0 0 8.04,-80.7234 A1.91624,1.91624 0 0 0 7.7493,-81.1338 A2.13646,2.13646 0 0 0 6.1085,-81.8181 A2.03956,2.03956 0 0 0 4.5089,-81.109 A2.12634,2.12634 0 0 0 4.0706,-80.3286 A4.22778,4.22778 0 0 0 3.8822,-79.0807 L3.8822,-66.0695 A4.35568,4.35568 0 0 0 4.0567,-64.8492 A1.83581,1.83581 0 0 0 4.4429,-64.1484 A1.94095,1.94095 0 0 0 5.9766,-63.5135 A2.0799,2.0799 0 0 0 7.0485,-63.7938 A2.00731,2.00731 0 0 0 7.8153,-64.6348 A2.9639,2.9639 0 0 0 8.1039,-66.0036" style="stroke:#000000;stroke-width:0.25;"/>
        <!-- Polylinie -->
        <path d="M36.9758,-73.7707 L28.1697,-73.7707 A5.97844,5.97844 0 0 1 28.7881,-76.4752 A4.24586,4.24586 0 0 1 30.3877,-78.2397 A4.2249,4.2249 0 0 1 32.5892,-78.8333 A5.39335,5.39335 0 0 1 34.0652,-78.6437 A4.80734,4.80734 0 0 1 35.3597,-78.05 A9.87467,9.87467 0 0 1 36.514,-77.1843 A53.5988,53.5988 0 0 1 37.8828,-75.931 A1.47721,1.47721 0 0 0 38.8722,-75.6341 A1.62982,1.62982 0 0 0 39.9936,-76.0134 A1.35583,1.35583 0 0 0 40.4223,-77.0853 A2.92843,2.92843 0 0 0 39.9441,-78.5118 A5.66126,5.66126 0 0 0 38.5012,-80.0784 A8.21824,8.21824 0 0 0 36.077,-81.3234 A10.4408,10.4408 0 0 0 32.7212,-81.8181 A13.6095,13.6095 0 0 0 30.7147,-81.6694 A9.47792,9.47792 0 0 0 29.0825,-81.2758 A8.18973,8.18973 0 0 0 27.3759,-80.4706 A7.42118,7.42118 0 0 0 25.9765,-79.3445 A7.80995,7.80995 0 0 0 24.8837,-77.9281 A8.45741,8.45741 0 0 0 24.1042,-76.2375 A9.62604,9.62604 0 0 0 23.7147,-74.6077 A13.4423,13.4423 0 0 0 23.5688,-72.6328 A11.1964,11.1964 0 0 0 24.1625,-68.9307 A8.16226,8.16226 0 0 0 25.894,-66.0036 A7.50835,7.50835 0 0 0 28.6974,-64.1319 A10.0632,10.0632 0 0 0 32.3914,-63.4805 A10.6961,10.6961 0 0 0 34.9455,-63.7899 A7.33162,7.33162 0 0 0 36.9181,-64.5936 A7.32234,7.32234 0 0 0 39.7462,-67.4712 A7.56651,7.56651 0 0 0 40.6862,-71.0662 A5.01486,5.01486 0 0 0 40.6331,-71.7942 A2.71644,2.71644 0 0 0 40.5029,-72.3154 A1.94181,1.94181 0 0 0 40.1695,-72.9004 A1.46906,1.46906 0 0 0 39.7132,-73.2677 A3.63077,3.63077 0 0 0 38.702,-73.6134 A9.55264,9.55264 0 0 0 36.9758,-73.7707" style="stroke:#000000;stroke-width:0.25;"/>
        <!-- Polylinie -->
        <path d="M28.1697,-71.2146 L36.3326,-71.2146 A9.61185,9.61185 0 0 1 36.2036,-70.1889 A6.3134,6.3134 0 0 1 36.0002,-69.3762 A5.03486,5.03486 0 0 1 35.5923,-68.445 A3.52785,3.52785 0 0 1 35.0876,-67.7598 A3.63106,3.63106 0 0 1 34.48,-67.2429 A3.45586,3.45586 0 0 1 33.7904,-66.8821 A3.72199,3.72199 0 0 1 33.0833,-66.686 A4.91776,4.91776 0 0 1 32.2429,-66.6137 A3.60318,3.60318 0 0 1 29.4808,-67.7763 A3.80765,3.80765 0 0 1 28.9727,-68.4643 A5.34276,5.34276 0 0 1 28.5516,-69.3857 A6.60064,6.60064 0 0 1 28.327,-70.1983 A9.82248,9.82248 0 0 1 28.1697,-71.2146" style="stroke:#000000;stroke-width:0.25;"/>
        <!-- Polylinie -->
        <path d="M48.9474,-75.3208 L48.9474,-79.0807 A5.16737,5.16737 0 0 0 48.9113,-79.6905 A3.3311,3.3311 0 0 0 48.8177,-80.1719 A2.64582,2.64582 0 0 0 48.5988,-80.7233 A1.91924,1.91924 0 0 0 48.3042,-81.1338 A2.14324,2.14324 0 0 0 46.6716,-81.8181 A2.06125,2.06125 0 0 0 45.072,-81.1255 A2.02794,2.02794 0 0 0 44.6369,-80.3592 A4.36333,4.36333 0 0 0 44.4454,-79.0807 L44.4454,-66.5478 A6.52815,6.52815 0 0 0 44.574,-65.2585 A2.68658,2.68658 0 0 0 44.8622,-64.479 A1.99456,1.99456 0 0 0 45.1972,-64.0372 A1.6698,1.6698 0 0 0 45.6071,-63.7383 A1.82384,1.82384 0 0 0 46.0569,-63.5761 A2.73184,2.73184 0 0 0 46.6387,-63.5135 A3.08329,3.08329 0 0 0 47.1486,-63.5559 A1.95211,1.95211 0 0 0 47.541,-63.6648 A1.62143,1.62143 0 0 0 47.9453,-63.8959 A1.51415,1.51415 0 0 0 48.2548,-64.2226 A2.3629,2.3629 0 0 0 48.6038,-64.9803 A6.19353,6.19353 0 0 0 48.7989,-66.3169 A7.87931,7.87931 0 0 0 50.4563,-64.2226 A2.69732,2.69732 0 0 0 51.3799,-63.7187 A4.50222,4.50222 0 0 0 52.7237,-63.5135 A5.80395,5.80395 0 0 0 55.4777,-64.2226 A3.76448,3.76448 0 0 0 56.052,-64.5983 A2.24003,2.24003 0 0 0 56.4249,-64.9739 A1.83127,1.83127 0 0 0 56.7135,-65.5055 A1.83426,1.83426 0 0 0 56.8134,-66.1025 A1.78813,1.78813 0 0 0 56.2445,-67.463 A1.76508,1.76508 0 0 0 55.0159,-67.9989 A5.65999,5.65999 0 0 0 53.8204,-67.6939 A5.55911,5.55911 0 0 1 52.1466,-67.3888 A2.44824,2.44824 0 0 1 50.5305,-67.9082 A3.33299,3.33299 0 0 1 49.5575,-69.4501 A10.7623,10.7623 0 0 1 49.0793,-71.8825 A37.7771,37.7771 0 0 1 48.9474,-75.3208" style="stroke:#000000;stroke-width:0.25;"/>
        <!-- Schraffur -->
        <path d="M-27.4785,-27.3672 L-27.4785,-27.9114 A7.87942,7.87942 0 0 0 -24.8812,-25.6109 A6.91782,6.91782 0 0 0 -21.6407,-24.8771 A6.46634,6.46634 0 0 0 -18.458,-25.6521 A4.92446,4.92446 0 0 0 -16.3637,-27.8454 A5.21584,5.21584 0 0 0 -15.7865,-29.6264 A18.4534,18.4534 0 0 0 -15.6546,-32.067 L-15.6546,-40.4443 A4.42191,4.42191 0 0 0 -15.8439,-41.7243 A2.03118,2.03118 0 0 0 -16.273,-42.4891 A2.05461,2.05461 0 0 0 -17.8809,-43.1818 A2.07596,2.07596 0 0 0 -19.5134,-42.4727 A2.12634,2.12634 0 0 0 -19.9517,-41.6922 A4.22778,4.22778 0 0 0 -20.1401,-40.4443 L-20.1401,-32.941 A12.1893,12.1893 0 0 1 -20.3362,-30.7631 A4.29471,4.29471 0 0 1 -20.7585,-29.5357 A1.95886,1.95886 0 0 1 -21.1879,-28.985 A2.16894,2.16894 0 0 1 -21.8108,-28.5952 A2.80081,2.80081 0 0 1 -22.4065,-28.4251 A4.90918,4.90918 0 0 1 -23.2239,-28.3566 A3.65086,3.65086 0 0 1 -25.4171,-29.074 A4.12261,4.12261 0 0 1 -26.8683,-31.0446 A3.79331,3.79331 0 0 1 -27.0154,-31.6657 A14.6025,14.6025 0 0 1 -27.1473,-32.9112 A22.7758,22.7758 0 0 1 -27.1836,-33.7235 A40.2569,40.2569 0 0 1 -27.1981,-34.8045 L-27.1981,-40.4443 A5.23561,5.23561 0 0 0 -27.2336,-41.0533 A3.37142,3.37142 0 0 0 -27.3257,-41.5341 A2.67089,2.67089 0 0 0 -27.5423,-42.087 A1.91624,1.91624 0 0 0 -27.833,-42.4974 A2.13646,2.13646 0 0 0 -29.4738,-43.1818 A2.03956,2.03956 0 0 0 -31.0734,-42.4727 A2.12634,2.12634 0 0 0 -31.5117,-41.6922 A4.22778,4.22778 0 0 0 -31.7001,-40.4443 L-31.7001,-27.4331 A4.35568,4.35568 0 0 0 -31.5256,-26.2129 A1.83581,1.83581 0 0 0 -31.1394,-25.512 A1.94095,1.94095 0 0 0 -29.6058,-24.8771 A2.0799,2.0799 0 0 0 -28.5339,-25.1574 A2.00731,2.00731 0 0 0 -27.767,-25.9984 A2.9639,2.9639 0 0 0 -27.4785,-27.3672M-7.0828,-27.3672 L-7.0828,-27.9114 A7.87942,7.87942 0 0 0 -4.4855,-25.6109 A6.91782,6.91782 0 0 0 -1.245,-24.8771 A6.46634,6.46634 0 0 0 1.9377,-25.6521 A4.92446,4.92446 0 0 0 4.032,-27.8454 A5.21584,5.21584 0 0 0 4.6092,-29.6264 A18.4534,18.4534 0 0 0 4.7411,-32.067 L4.7411,-40.4443 A4.42191,4.42191 0 0 0 4.5518,-41.7243 A2.03118,2.03118 0 0 0 4.1227,-42.4891 A2.05461,2.05461 0 0 0 2.5148,-43.1818 A2.07596,2.07596 0 0 0 0.8823,-42.4727 A2.12634,2.12634 0 0 0 0.444,-41.6922 A4.22778,4.22778 0 0 0 0.2556,-40.4443 L0.2556,-32.941 A12.1893,12.1893 0 0 1 0.0595,-30.7631 A4.29471,4.29471 0 0 1 -0.3628,-29.5357 A1.95886,1.95886 0 0 1 -0.7922,-28.985 A2.16894,2.16894 0 0 1 -1.4151,-28.5952 A2.80081,2.80081 0 0 1 -2.0108,-28.4251 A4.90918,4.90918 0 0 1 -2.8282,-28.3566 A3.65086,3.65086 0 0 1 -5.0214,-29.074 A4.12261,4.12261 0 0 1 -6.4726,-31.0446 A3.79331,3.79331 0 0 1 -6.6197,-31.6657 A14.6025,14.6025 0 0 1 -6.7516,-32.9112 A22.7758,22.7758 0 0 1 -6.7879,-33.7235 A40.2569,40.2569 0 0 1 -6.8024,-34.8045 L-6.8024,-40.4443 A5.23561,5.23561 0 0 0 -6.838,-41.0533 A3.37142,3.37142 0 0 0 -6.93,-41.5341 A2.67089,2.67089 0 0 0 -7.1466,-42.087 A1.91624,1.91624 0 0 0 -7.4373,-42.4974 A2.13646,2.13646 0 0 0 -9.0781,-43.1818 A2.03956,2.03956 0 0 0 -10.6777,-42.4727 A2.12634,2.12634 0 0 0 -11.116,-41.6922 A4.22778,4.22778 0 0 0 -11.3044,-40.4443 L-11.3044,-27.4331 A4.35568,4.35568 0 0 0 -11.1299,-26.2129 A1.83581,1.83581 0 0 0 -10.7437,-25.512 A1.94095,1.94095 0 0 0 -9.2101,-24.8771 A2.0799,2.0799 0 0 0 -8.1382,-25.1574 A2.00731,2.00731 0 0 0 -7.3713,-25.9984 A2.9639,2.9639 0 0 0 -7.0828,-27.3672M21.7892,-35.1343 L12.9831,-35.1343 A5.97844,5.97844 0 0 1 13.6015,-37.8388 A4.24586,4.24586 0 0 1 15.2011,-39.6033 A4.2249,4.2249 0 0 1 17.4026,-40.1969 A5.39335,5.39335 0 0 1 18.8786,-40.0073 A4.80734,4.80734 0 0 1 20.1731,-39.4136 A9.87467,9.87467 0 0 1 21.3274,-38.5479 A53.5988,53.5988 0 0 1 22.6961,-37.2946 A1.47721,1.47721 0 0 0 23.6856,-36.9977 A1.62982,1.62982 0 0 0 24.807,-37.377 A1.35583,1.35583 0 0 0 25.2357,-38.4489 A2.92843,2.92843 0 0 0 24.7575,-39.8754 A5.66126,5.66126 0 0 0 23.3146,-41.442 A8.21824,8.21824 0 0 0 20.8904,-42.687 A10.4408,10.4408 0 0 0 17.5346,-43.1818 A13.6095,13.6095 0 0 0 15.5281,-43.033 A9.47792,9.47792 0 0 0 13.8959,-42.6394 A8.18973,8.18973 0 0 0 12.1893,-41.8342 A7.42118,7.42118 0 0 0 10.7899,-40.7082 A7.80995,7.80995 0 0 0 9.6971,-39.2917 A8.45741,8.45741 0 0 0 8.9176,-37.6011 A9.62604,9.62604 0 0 0 8.5281,-35.9713 A13.4423,13.4423 0 0 0 8.3822,-33.9964 A11.1964,11.1964 0 0 0 8.9759,-30.2943 A8.16226,8.16226 0 0 0 10.7074,-27.3672 A7.50835,7.50835 0 0 0 13.5108,-25.4955 A10.0632,10.0632 0 0 0 17.2047,-24.8441 A10.6961,10.6961 0 0 0 19.7588,-25.1535 A7.33162,7.33162 0 0 0 21.7314,-25.9572 A7.32234,7.32234 0 0 0 24.5596,-28.8348 A7.56651,7.56651 0 0 0 25.4996,-32.4298 A5.01486,5.01486 0 0 0 25.4464,-33.1578 A2.71644,2.71644 0 0 0 25.3163,-33.679 A1.94181,1.94181 0 0 0 24.9828,-34.2641 A1.46906,1.46906 0 0 0 24.5266,-34.6313 A3.63077,3.63077 0 0 0 23.5154,-34.977 A9.55264,9.55264 0 0 0 21.7892,-35.1343M12.9831,-32.5782 L21.146,-32.5782 A9.61185,9.61185 0 0 1 21.017,-31.5525 A6.3134,6.3134 0 0 1 20.8135,-30.7398 A5.03486,5.03486 0 0 1 20.4057,-29.8086 A3.52785,3.52785 0 0 1 19.901,-29.1234 A3.63106,3.63106 0 0 1 19.2934,-28.6065 A3.45586,3.45586 0 0 1 18.6038,-28.2457 A3.72199,3.72199 0 0 1 17.8967,-28.0497 A4.91776,4.91776 0 0 1 17.0563,-27.9773 A3.60318,3.60318 0 0 1 14.2941,-29.1399 A3.80765,3.80765 0 0 1 13.7861,-29.8279 A5.34276,5.34276 0 0 1 13.365,-30.7493 A6.60064,6.60064 0 0 1 13.1404,-31.5619 A9.82248,9.82248 0 0 1 12.9831,-32.5782M48.9474,-75.3208 L48.9474,-79.0807 A5.16737,5.16737 0 0 0 48.9113,-79.6905 A3.3311,3.3311 0 0 0 48.8177,-80.1719 A2.64582,2.64582 0 0 0 48.5988,-80.7233 A1.91924,1.91924 0 0 0 48.3042,-81.1338 A2.14324,2.14324 0 0 0 46.6716,-81.8181 A2.06125,2.06125 0 0 0 45.072,-81.1255 A2.02794,2.02794 0 0 0 44.6369,-80.3592 A4.36333,4.36333 0 0 0 44.4454,-79.0807 L44.4454,-66.5478 A6.52815,6.52815 0 0 0 44.574,-65.2585 A2.68658,2.68658 0 0 0 44.8622,-64.479 A1.99456,1.99456 0 0 0 45.1972,-64.0372 A1.6698,1.6698 0 0 0 45.6071,-63.7383 A1.82384,1.82384 0 0 0 46.0569,-63.5761 A2.73184,2.73184 0 0 0 46.6387,-63.5135 A3.08329,3.08329 0 0 0 47.1486,-63.5559 A1.95211,1.95211 0 0 0 47.541,-63.6648 A1.62143,1.62143 0 0 0 47.9453,-63.8959 A1.51415,1.51415 0 0 0 48.2548,-64.2226 A2.3629,2.3629 0 0 0 48.6038,-64.9803 A6.19353,6.19353 0 0 0 48.7989,-66.3169 A7.87931,7.87931 0 0 0 50.4563,-64.2226 A2.69732,2.69732 0 0 0 51.3799,-63.7187 A4.50222,4.50222 0 0 0 52.7237,-63.5135 A5.80395,5.80395 0 0 0 55.4777,-64.2226 A3.76448,3.76448 0 0 0 56.052,-64.5983 A2.24003,2.24003 0 0 0 56.4249,-64.9739 A1.83127,1.83127 0 0 0 56.7135,-65.5055 A1.83426,1.83426 0 0 0 56.8134,-66.1025 A1.78813,1.78813 0 0 0 56.2445,-67.463 A1.76508,1.76508 0 0 0 55.0159,-67.9989 A5.65999,5.65999 0 0 0 53.8204,-67.6939 A5.55911,5.55911 0 0 1 52.1466,-67.3888 A2.44824,2.44824 0 0 1 50.5305,-67.9082 A3.33299,3.33299 0 0 1 49.5575,-69.4501 A10.7623,10.7623 0 0 1 49.0793,-71.8825 A37.7771,37.7771 0 0 1 48.9474,-75.3208M-41.6268,-40.1969 L-41.6268,-21.1502 A5.78231,5.78231 0 0 0 -41.5891,-20.491 A3.71806,3.71806 0 0 0 -41.4915,-19.9707 A2.93513,2.93513 0 0 0 -41.2602,-19.3688 A2.07413,2.07413 0 0 0 -40.9507,-18.9239 A2.25634,2.25634 0 0 0 -39.2027,-18.1819 A2.33322,2.33322 0 0 0 -37.4134,-18.9157 A2.02493,2.02493 0 0 0 -37.0998,-19.3587 A2.90413,2.90413 0 0 0 -36.865,-19.9649 A3.70893,3.70893 0 0 0 -36.767,-20.4863 A5.82694,5.82694 0 0 0 -36.7291,-21.1502 L-36.7291,-40.1969 A5.83347,5.83347 0 0 0 -36.7671,-40.8622 A3.73194,3.73194 0 0 0 -36.8656,-41.3861 A2.93447,2.93447 0 0 0 -37.1,-41.9933 A2.06087,2.06087 0 0 0 -37.4134,-42.4397 A2.32042,2.32042 0 0 0 -39.2027,-43.1818 A2.25144,2.25144 0 0 0 -40.9424,-42.4314 A2.11334,2.11334 0 0 0 -41.2557,-41.9829 A2.94002,2.94002 0 0 0 -41.489,-41.3813 A3.70016,3.70016 0 0 0 -41.5885,-40.858 A5.71837,5.71837 0 0 0 -41.6268,-40.1969M-6.3084,-75.3208 L-6.3084,-79.0807 A5.16737,5.16737 0 0 0 -6.3445,-79.6905 A3.3311,3.3311 0 0 0 -6.438,-80.1719 A2.64582,2.64582 0 0 0 -6.657,-80.7233 A1.91924,1.91924 0 0 0 -6.9515,-81.1338 A2.14324,2.14324 0 0 0 -8.5841,-81.8181 A2.06125,2.06125 0 0 0 -10.1837,-81.1255 A2.02794,2.02794 0 0 0 -10.6188,-80.3592 A4.36333,4.36333 0 0 0 -10.8103,-79.0807 L-10.8103,-66.5478 A6.52815,6.52815 0 0 0 -10.6817,-65.2585 A2.68658,2.68658 0 0 0 -10.3935,-64.479 A1.99456,1.99456 0 0 0 -10.0585,-64.0372 A1.6698,1.6698 0 0 0 -9.6486,-63.7383 A1.82384,1.82384 0 0 0 -9.1988,-63.5761 A2.73184,2.73184 0 0 0 -8.617,-63.5135 A3.08329,3.08329 0 0 0 -8.1071,-63.5559 A1.95211,1.95211 0 0 0 -7.7148,-63.6648 A1.62143,1.62143 0 0 0 -7.3104,-63.8959 A1.51415,1.51415 0 0 0 -7.001,-64.2226 A2.3629,2.3629 0 0 0 -6.6519,-64.9803 A6.19353,6.19353 0 0 0 -6.4568,-66.3169 A7.87931,7.87931 0 0 0 -4.7995,-64.2226 A2.69732,2.69732 0 0 0 -3.8758,-63.7187 A4.50222,4.50222 0 0 0 -2.532,-63.5135 A5.80395,5.80395 0 0 0 0.222,-64.2226 A3.76448,3.76448 0 0 0 0.7963,-64.5983 A2.24003,2.24003 0 0 0 1.1692,-64.9739 A1.83127,1.83127 0 0 0 1.4578,-65.5055 A1.83426,1.83426 0 0 0 1.5577,-66.1025 A1.78813,1.78813 0 0 0 0.9888,-67.463 A1.76508,1.76508 0 0 0 -0.2398,-67.9989 A5.65999,5.65999 0 0 0 -1.4354,-67.6939 A5.55911,5.55911 0 0 1 -3.1092,-67.3888 A2.44824,2.44824 0 0 1 -4.7252,-67.9082 A3.33299,3.33299 0 0 1 -5.6982,-69.4501 A10.7623,10.7623 0 0 1 -6.1764,-71.8825 A37.7771,37.7771 0 0 1 -6.3084,-75.3208M8.1039,-66.0036 L8.1039,-66.5478 A7.87942,7.87942 0 0 0 10.7011,-64.2473 A6.91782,6.91782 0 0 0 13.9416,-63.5135 A6.46634,6.46634 0 0 0 17.1243,-64.2885 A4.92446,4.92446 0 0 0 19.2186,-66.4818 A5.21584,5.21584 0 0 0 19.7958,-68.2628 A18.4534,18.4534 0 0 0 19.9277,-70.7034 L19.9277,-79.0807 A4.42191,4.42191 0 0 0 19.7384,-80.3607 A2.03118,2.03118 0 0 0 19.3093,-81.1255 A2.05461,2.05461 0 0 0 17.7014,-81.8181 A2.07596,2.07596 0 0 0 16.0689,-81.109 A2.12634,2.12634 0 0 0 15.6306,-80.3286 A4.22778,4.22778 0 0 0 15.4422,-79.0807 L15.4422,-71.5774 A12.1893,12.1893 0 0 1 15.2461,-69.3995 A4.29471,4.29471 0 0 1 14.8238,-68.1721 A1.95886,1.95886 0 0 1 14.3944,-67.6214 A2.16894,2.16894 0 0 1 13.7715,-67.2316 A2.80081,2.80081 0 0 1 13.1758,-67.0615 A4.90918,4.90918 0 0 1 12.3585,-66.993 A3.65086,3.65086 0 0 1 10.1652,-67.7104 A4.12261,4.12261 0 0 1 8.714,-69.681 A3.79331,3.79331 0 0 1 8.5669,-70.3021 A14.6025,14.6025 0 0 1 8.4351,-71.5476 A22.7758,22.7758 0 0 1 8.3987,-72.3599 A40.2569,40.2569 0 0 1 8.3842,-73.4409 L8.3842,-79.0807 A5.23561,5.23561 0 0 0 8.3487,-79.6897 A3.37142,3.37142 0 0 0 8.2566,-80.1705 A2.67089,2.67089 0 0 0 8.04,-80.7234 A1.91624,1.91624 0 0 0 7.7493,-81.1338 A2.13646,2.13646 0 0 0 6.1085,-81.8181 A2.03956,2.03956 0 0 0 4.5089,-81.109 A2.12634,2.12634 0 0 0 4.0706,-80.3286 A4.22778,4.22778 0 0 0 3.8822,-79.0807 L3.8822,-66.0695 A4.35568,4.35568 0 0 0 4.0567,-64.8492 A1.83581,1.83581 0 0 0 4.4429,-64.1484 A1.94095,1.94095 0 0 0 5.9766,-63.5135 A2.0799,2.0799 0 0 0 7.0485,-63.7938 A2.00731,2.00731 0 0 0 7.8153,-64.6348 A2.9639,2.9639 0 0 0 8.1039,-66.0036M33.7607,-36.6844 L33.7607,-40.4443 A5.16737,5.16737 0 0 0 33.7246,-41.0541 A3.3311,3.3311 0 0 0 33.6311,-41.5355 A2.64582,2.64582 0 0 0 33.4121,-42.0869 A1.91924,1.91924 0 0 0 33.1176,-42.4974 A2.14324,2.14324 0 0 0 31.485,-43.1818 A2.06125,2.06125 0 0 0 29.8854,-42.4891 A2.02794,2.02794 0 0 0 29.4503,-41.7228 A4.36333,4.36333 0 0 0 29.2588,-40.4443 L29.2588,-27.9114 A6.52815,6.52815 0 0 0 29.3874,-26.6222 A2.68658,2.68658 0 0 0 29.6756,-25.8426 A1.99456,1.99456 0 0 0 30.0106,-25.4008 A1.6698,1.6698 0 0 0 30.4205,-25.1019 A1.82384,1.82384 0 0 0 30.8703,-24.9397 A2.73184,2.73184 0 0 0 31.4521,-24.8771 A3.08329,3.08329 0 0 0 31.962,-24.9195 A1.95211,1.95211 0 0 0 32.3543,-25.0284 A1.62143,1.62143 0 0 0 32.7587,-25.2595 A1.51415,1.51415 0 0 0 33.0681,-25.5862 A2.3629,2.3629 0 0 0 33.4172,-26.3439 A6.19353,6.19353 0 0 0 33.6123,-27.6805 A7.87931,7.87931 0 0 0 35.2696,-25.5862 A2.69732,2.69732 0 0 0 36.1933,-25.0823 A4.50222,4.50222 0 0 0 37.5371,-24.8771 A5.80395,5.80395 0 0 0 40.2911,-25.5862 A3.76448,3.76448 0 0 0 40.8654,-25.9619 A2.24003,2.24003 0 0 0 41.2383,-26.3375 A1.83127,1.83127 0 0 0 41.5269,-26.8691 A1.83426,1.83426 0 0 0 41.6268,-27.4661 A1.78813,1.78813 0 0 0 41.0579,-28.8266 A1.76508,1.76508 0 0 0 39.8293,-29.3625 A5.65999,5.65999 0 0 0 38.6338,-29.0575 A5.55911,5.55911 0 0 1 36.9599,-28.7524 A2.44824,2.44824 0 0 1 35.3439,-29.2719 A3.33299,3.33299 0 0 1 34.3709,-30.8137 A10.7623,10.7623 0 0 1 33.8927,-33.2461 A37.7771,37.7771 0 0 1 33.7607,-36.6844M36.9758,-73.7707 L28.1697,-73.7707 A5.97844,5.97844 0 0 1 28.7881,-76.4752 A4.24586,4.24586 0 0 1 30.3877,-78.2397 A4.2249,4.2249 0 0 1 32.5892,-78.8333 A5.39335,5.39335 0 0 1 34.0652,-78.6437 A4.80734,4.80734 0 0 1 35.3597,-78.05 A9.87467,9.87467 0 0 1 36.514,-77.1843 A53.5988,53.5988 0 0 1 37.8828,-75.931 A1.47721,1.47721 0 0 0 38.8722,-75.6341 A1.62982,1.62982 0 0 0 39.9936,-76.0134 A1.35583,1.35583 0 0 0 40.4223,-77.0853 A2.92843,2.92843 0 0 0 39.9441,-78.5118 A5.66126,5.66126 0 0 0 38.5012,-80.0784 A8.21824,8.21824 0 0 0 36.077,-81.3234 A10.4408,10.4408 0 0 0 32.7212,-81.8181 A13.6095,13.6095 0 0 0 30.7147,-81.6694 A9.47792,9.47792 0 0 0 29.0825,-81.2758 A8.18973,8.18973 0 0 0 27.3759,-80.4706 A7.42118,7.42118 0 0 0 25.9765,-79.3445 A7.80995,7.80995 0 0 0 24.8837,-77.9281 A8.45741,8.45741 0 0 0 24.1042,-76.2375 A9.62604,9.62604 0 0 0 23.7147,-74.6077 A13.4423,13.4423 0 0 0 23.5688,-72.6328 A11.1964,11.1964 0 0 0 24.1625,-68.9307 A8.16226,8.16226 0 0 0 25.894,-66.0036 A7.50835,7.50835 0 0 0 28.6974,-64.1319 A10.0632,10.0632 0 0 0 32.3914,-63.4805 A10.6961,10.6961 0 0 0 34.9455,-63.7899 A7.33162,7.33162 0 0 0 36.9181,-64.5936 A7.32234,7.32234 0 0 0 39.7462,-67.4712 A7.56651,7.56651 0 0 0 40.6862,-71.0662 A5.01486,5.01486 0 0 0 40.6331,-71.7942 A2.71644,2.71644 0 0 0 40.5029,-72.3154 A1.94181,1.94181 0 0 0 40.1695,-72.9004 A1.46906,1.46906 0 0 0 39.7132,-73.2677 A3.63077,3.63077 0 0 0 38.702,-73.6134 A9.55264,9.55264 0 0 0 36.9758,-73.7707M-35.2601,-73.7707 A6.44469,6.44469 0 0 0 -35.829,-76.269 A9.01206,9.01206 0 0 0 -37.6183,-78.9075 A9.12915,9.12915 0 0 0 -40.735,-81.0101 A11.2038,11.2038 0 0 0 -45.1545,-81.8181 A15.4439,15.4439 0 0 0 -48.634,-81.4553 A9.77435,9.77435 0 0 0 -51.4787,-80.3257 A9.59701,9.59701 0 0 0 -53.8286,-78.3056 A12.0047,12.0047 0 0 0 -55.4612,-75.7578 A13.2849,13.2849 0 0 0 -56.4754,-72.7483 A16.4041,16.4041 0 0 0 -56.8134,-69.3512 A15.0697,15.0697 0 0 0 -55.9642,-64.1236 A11.1503,11.1503 0 0 0 -53.5318,-60.1741 A10.6094,10.6094 0 0 0 -49.8214,-57.6758 A12.0144,12.0144 0 0 0 -45.2864,-56.8182 A11.3305,11.3305 0 0 0 -40.0589,-57.9891 A11.6469,11.6469 0 0 0 -37.9506,-59.3725 A7.79272,7.79272 0 0 0 -36.5464,-60.8832 A9.11831,9.11831 0 0 0 -36.0324,-61.6969 A6.36332,6.36332 0 0 0 -35.6846,-62.4218 A5.29856,5.29856 0 0 0 -35.4102,-63.3252 A3.98972,3.98972 0 0 0 -35.326,-64.1401 A2.12297,2.12297 0 0 0 -35.9197,-65.6243 A1.88212,1.88212 0 0 0 -37.3544,-66.2674 A2.94083,2.94083 0 0 0 -38.24,-66.1309 A1.35634,1.35634 0 0 0 -38.7644,-65.8222 A6.1664,6.1664 0 0 0 -39.8115,-64.2885 A9.60813,9.60813 0 0 1 -40.9273,-62.6332 A5.67835,5.67835 0 0 1 -42.0625,-61.6005 A4.60447,4.60447 0 0 1 -43.4344,-60.9591 A6.76728,6.76728 0 0 1 -45.2534,-60.71 A7.13556,7.13556 0 0 1 -46.7125,-60.8608 A5.5413,5.5413 0 0 1 -47.9383,-61.2709 A5.39976,5.39976 0 0 1 -49.0532,-61.973 A6.45189,6.45189 0 0 1 -50.0605,-63.0023 A6.7834,6.7834 0 0 1 -50.8763,-64.3421 A9.5738,9.5738 0 0 1 -51.4864,-66.103 A11.8944,11.8944 0 0 1 -51.7494,-67.6255 A17.8584,17.8584 0 0 1 -51.8497,-69.5161 A16.667,16.667 0 0 1 -51.6175,-72.2889 A8.59897,8.59897 0 0 1 -51.0582,-74.2077 A7.14593,7.14593 0 0 1 -50.0502,-75.8963 A5.07942,5.07942 0 0 1 -48.8154,-77.0029 A6.19067,6.19067 0 0 1 -45.4184,-77.9263 A7.1687,7.1687 0 0 1 -43.4008,-77.6366 A5.14923,5.14923 0 0 1 -41.8481,-76.8792 A5.31929,5.31929 0 0 1 -40.6238,-75.6535 A7.75659,7.75659 0 0 1 -39.6466,-73.8037 A5.21847,5.21847 0 0 0 -38.8715,-72.2453 A1.35181,1.35181 0 0 0 -38.5847,-71.968 A1.56127,1.56127 0 0 0 -38.2048,-71.7691 A1.91652,1.91652 0 0 0 -37.8485,-71.6786 A3.03351,3.03351 0 0 0 -37.3874,-71.6434 A2.07523,2.07523 0 0 0 -35.8867,-72.2535 A2.03177,2.03177 0 0 0 -35.2601,-73.7707M28.1697,-71.2146 L36.3326,-71.2146 A9.61185,9.61185 0 0 1 36.2036,-70.1889 A6.3134,6.3134 0 0 1 36.0002,-69.3762 A5.03486,5.03486 0 0 1 35.5923,-68.445 A3.52785,3.52785 0 0 1 35.0876,-67.7598 A3.63106,3.63106 0 0 1 34.48,-67.2429 A3.45586,3.45586 0 0 1 33.7904,-66.8821 A3.72199,3.72199 0 0 1 33.0833,-66.686 A4.91776,4.91776 0 0 1 32.2429,-66.6137 A3.60318,3.60318 0 0 1 29.4808,-67.7763 A3.80765,3.80765 0 0 1 28.9727,-68.4643 A5.34276,5.34276 0 0 1 28.5516,-69.3857 A6.60064,6.60064 0 0 1 28.327,-70.1983 A9.82248,9.82248 0 0 1 28.1697,-71.2146M-14.3195,-72.6658 A10.6419,10.6419 0 0 0 -14.9462,-76.3762 A8.1933,8.1933 0 0 0 -16.7602,-79.2951 A8.00911,8.00911 0 0 0 -19.5966,-81.1668 A10.0282,10.0282 0 0 0 -23.307,-81.8181 A9.74192,9.74192 0 0 0 -26.9844,-81.1585 A8.16638,8.16638 0 0 0 -29.8125,-79.2703 A8.16386,8.16386 0 0 0 -31.6265,-76.368 A10.6117,10.6117 0 0 0 -32.2449,-72.6658 A10.7414,10.7414 0 0 0 -31.6183,-68.9224 A8.1458,8.1458 0 0 0 -29.8208,-66.0201 A7.92377,7.92377 0 0 0 -26.9844,-64.1649 A10.0158,10.0158 0 0 0 -23.307,-63.5135 A9.99814,9.99814 0 0 0 -19.5966,-64.1731 A8.07097,8.07097 0 0 0 -16.7437,-66.053 A8.12564,8.12564 0 0 0 -14.9379,-68.9554 A10.6809,10.6809 0 0 0 -14.3195,-72.6658M-18.838,-72.6658 A11.2469,11.2469 0 0 1 -18.9069,-71.4227 A7.61187,7.61187 0 0 1 -19.0883,-70.4146 A6.22627,6.22627 0 0 1 -19.498,-69.2686 A4.61259,4.61259 0 0 1 -20.0501,-68.3782 A3.93627,3.93627 0 0 1 -23.307,-66.8446 A4.03421,4.03421 0 0 1 -25.6322,-67.529 A4.33627,4.33627 0 0 1 -27.1823,-69.5491 A8.22215,8.22215 0 0 1 -27.7265,-72.6658 A8.1574,8.1574 0 0 1 -27.1905,-75.7496 A4.42198,4.42198 0 0 1 -25.6569,-77.7697 A3.98348,3.98348 0 0 1 -23.307,-78.4705 A3.92829,3.92829 0 0 1 -20.0501,-76.9287 A4.69554,4.69554 0 0 1 -19.4984,-76.0377 A6.209,6.209 0 0 1 -19.0905,-74.904 A7.52361,7.52361 0 0 1 -18.9073,-73.899 A11.0012,11.0012 0 0 1 -18.838,-72.6658" style="fill:#000000;fill-rule:evenodd;"/>
    </g>
</svg>
