<?xml version="1.0" encoding="UTF-8"?>
<!-- 2020-10-20 18:12:23 Generated by QCAD 3.24.2 SVG Exporter PG -->
<svg width="210.25mm" height="210.25mm" viewBox="-105.125 -105.125 210.25 210.25" version="1.1" xmlns="http://www.w3.org/2000/svg" style="stroke-linecap:round;stroke-linejoin:round;fill:none">
    <g transform="scale(1,-1)">
        <!-- Polylinie -->
        <path d="M-90,-100 L90,-100 A10,10 0 0 1 100,-90 L100,90 A10,10 0 0 1 90,100 L-90,100 A10,10 0 0 1 -100,90 L-100,-90 A10,10 0 0 1 -90,-100" style="stroke:#000000;stroke-width:0.25;"/>
        <!-- Polylinie -->
        <path d="M-67.2059,-13.6793 L-67.2059,-38.2738 L-53.3297,-38.2738 A6.0985,6.0985 0 0 0 -52.5793,-38.3202 A4.07713,4.07713 0 0 0 -51.9767,-38.4416 A3.34422,3.34422 0 0 0 -51.3045,-38.7123 A2.5985,2.5985 0 0 0 -50.7827,-39.0806 A2.62508,2.62508 0 0 0 -49.8952,-41.109 A2.56104,2.56104 0 0 0 -50.7711,-43.1259 A2.5111,2.5111 0 0 0 -51.2901,-43.4788 A3.44172,3.44172 0 0 0 -51.9764,-43.7411 A4.28777,4.28777 0 0 0 -52.5767,-43.8545 A6.53563,6.53563 0 0 0 -53.3297,-43.8981 L-69.8567,-43.8981 A8.84368,8.84368 0 0 0 -70.8252,-43.8449 A5.3603,5.3603 0 0 0 -71.5681,-43.7095 A4.00865,4.00865 0 0 0 -72.4607,-43.3628 A2.54287,2.54287 0 0 0 -73.0721,-42.9069 A2.59953,2.59953 0 0 0 -73.5225,-42.2925 A4.04758,4.04758 0 0 0 -73.8642,-41.4055 A5.37071,5.37071 0 0 0 -73.999,-40.6645 A8.78183,8.78183 0 0 0 -74.0518,-39.7029 L-74.0518,-13.6793 A8.1837,8.1837 0 0 0 -73.9999,-12.7591 A5.2572,5.2572 0 0 0 -73.8654,-12.0327 A4.14053,4.14053 0 0 0 -73.5456,-11.1893 A2.89637,2.89637 0 0 0 -73.1182,-10.5676 A3.14483,3.14483 0 0 0 -70.6634,-9.5303 A3.26129,3.26129 0 0 0 -68.1625,-10.556 A2.83038,2.83038 0 0 0 -67.724,-11.1753 A4.05929,4.05929 0 0 0 -67.3959,-12.0226 A5.18421,5.18421 0 0 0 -67.2589,-12.7514 A8.14469,8.14469 0 0 0 -67.2059,-13.6793" style="stroke:#000000;stroke-width:0.25;"/>
        <!-- Polylinie -->
        <path d="M-23.1386,-15.385 L-38.5592,-15.385 L-38.5592,-23.6831 L-24.3603,-23.6831 A6.19432,6.19432 0 0 0 -23.667,-23.722 A3.95096,3.95096 0 0 0 -23.1216,-23.8226 A3.09247,3.09247 0 0 0 -22.4856,-24.0641 A2.13648,2.13648 0 0 0 -22.0207,-24.3861 A2.38942,2.38942 0 0 0 -21.2485,-26.2417 A2.48067,2.48067 0 0 0 -22.0092,-28.1202 A2.07353,2.07353 0 0 0 -22.4716,-28.4533 A3.01298,3.01298 0 0 0 -23.1114,-28.7032 A3.87912,3.87912 0 0 0 -23.6593,-28.8063 A6.15533,6.15533 0 0 0 -24.3603,-28.8463 L-38.5592,-28.8463 L-38.5592,-38.4582 L-22.6085,-38.4582 A6.17546,6.17546 0 0 0 -21.8888,-38.5003 A4.00391,4.00391 0 0 0 -21.3187,-38.6096 A3.18948,3.18948 0 0 0 -20.6653,-38.8645 A2.31052,2.31052 0 0 0 -20.1767,-39.2074 A2.57275,2.57275 0 0 0 -19.3584,-41.2012 A2.51838,2.51838 0 0 0 -20.1767,-43.1489 A2.31053,2.31053 0 0 0 -20.6654,-43.4918 A3.18975,3.18975 0 0 0 -21.3189,-43.7468 A4.00433,4.00433 0 0 0 -21.8889,-43.856 A6.17562,6.17562 0 0 0 -22.6085,-43.8981 L-41.2099,-43.8981 A8.84368,8.84368 0 0 0 -42.1785,-43.8449 A5.3603,5.3603 0 0 0 -42.9214,-43.7095 A4.00865,4.00865 0 0 0 -43.814,-43.3628 A2.54287,2.54287 0 0 0 -44.4254,-42.9069 A2.59953,2.59953 0 0 0 -44.8758,-42.2925 A4.04758,4.04758 0 0 0 -45.2175,-41.4055 A5.37071,5.37071 0 0 0 -45.3523,-40.6645 A8.78183,8.78183 0 0 0 -45.4051,-39.7029 L-45.4051,-14.3017 A8.08417,8.08417 0 0 0 -45.2747,-12.8555 A3.91563,3.91563 0 0 0 -44.9671,-11.8929 A2.71929,2.71929 0 0 0 -43.5956,-10.533 A5.7651,5.7651 0 0 0 -41.2099,-10.1066 L-23.1386,-10.1066 A6.53061,6.53061 0 0 0 -22.4173,-10.1465 A4.13619,4.13619 0 0 0 -21.8516,-10.2496 A3.21416,3.21416 0 0 0 -21.1875,-10.4999 A2.18041,2.18041 0 0 0 -20.7069,-10.8326 A2.45386,2.45386 0 0 0 -19.9116,-12.7343 A2.48102,2.48102 0 0 0 -20.7069,-14.659 A2.18043,2.18043 0 0 0 -21.1876,-14.9917 A3.21447,3.21447 0 0 0 -21.8518,-15.242 A4.13665,4.13665 0 0 0 -22.4174,-15.3451 A6.53078,6.53078 0 0 0 -23.1386,-15.385" style="stroke:#000000;stroke-width:0.25;"/>
        <!-- Polylinie -->
        <path d="M-8.9222,-14.0251 L-1.2696,-36.6834 L6.4061,-13.8637 A38.1643,38.1643 0 0 0 7.305,-11.3628 A3.33108,3.33108 0 0 0 8.2962,-10.095 A2.16853,2.16853 0 0 0 9.0471,-9.6969 A3.97952,3.97952 0 0 0 10.1863,-9.5303 A3.16381,3.16381 0 0 0 11.8113,-9.9683 A3.22299,3.22299 0 0 0 12.9869,-11.1323 A2.86449,2.86449 0 0 0 13.4133,-12.596 A4.79769,4.79769 0 0 0 13.275,-13.6909 A9.94505,9.94505 0 0 0 12.9293,-14.8434 A65.7659,65.7659 0 0 1 12.5144,-16.0074 L4.3316,-38.0894 A75.7784,75.7784 0 0 0 3.4557,-40.4982 A10.1854,10.1854 0 0 0 2.4415,-42.5035 A4.53805,4.53805 0 0 0 0.9086,-43.9211 A4.60422,4.60422 0 0 0 -1.431,-44.4743 A4.68311,4.68311 0 0 0 -3.7705,-43.9326 A4.45275,4.45275 0 0 0 -5.3149,-42.5035 A10.5428,10.5428 0 0 0 -6.3406,-40.4866 A68.5805,68.5805 0 0 0 -7.2165,-38.0894 L-15.261,-16.1918 A41.8248,41.8248 0 0 1 -15.6875,-15.0162 A9.11553,9.11553 0 0 0 -16.0563,-13.7715 A5.3164,5.3164 0 0 0 -16.2061,-12.6421 A3.00752,3.00752 0 0 0 -15.261,-10.4984 A3.17986,3.17986 0 0 0 -12.8869,-9.5303 A4.95345,4.95345 0 0 0 -12.1001,-9.5932 A3.03549,3.03549 0 0 0 -11.5033,-9.7529 A2.44386,2.44386 0 0 0 -10.8736,-10.1065 A2.16293,2.16293 0 0 0 -10.409,-10.6021 A6.9219,6.9219 0 0 0 -9.7909,-11.7267 A25.378,25.378 0 0 0 -8.9222,-14.0251" style="stroke:#000000;stroke-width:0.25;"/>
        <!-- Polylinie -->
        <path d="M40.819,-15.385 L25.3985,-15.385 L25.3985,-23.6831 L39.5974,-23.6831 A6.19432,6.19432 0 0 0 40.2907,-23.722 A3.95096,3.95096 0 0 0 40.836,-23.8226 A3.09247,3.09247 0 0 0 41.4721,-24.0641 A2.13648,2.13648 0 0 0 41.9369,-24.3861 A2.38942,2.38942 0 0 0 42.7091,-26.2417 A2.48067,2.48067 0 0 0 41.9485,-28.1202 A2.07353,2.07353 0 0 0 41.4861,-28.4533 A3.01298,3.01298 0 0 0 40.8462,-28.7032 A3.87912,3.87912 0 0 0 40.2984,-28.8063 A6.15533,6.15533 0 0 0 39.5974,-28.8463 L25.3985,-28.8463 L25.3985,-38.4582 L41.3492,-38.4582 A6.17546,6.17546 0 0 0 42.0689,-38.5003 A4.00391,4.00391 0 0 0 42.639,-38.6096 A3.18948,3.18948 0 0 0 43.2923,-38.8645 A2.31052,2.31052 0 0 0 43.781,-39.2074 A2.57275,2.57275 0 0 0 44.5992,-41.2012 A2.51838,2.51838 0 0 0 43.781,-43.1489 A2.31053,2.31053 0 0 0 43.2922,-43.4918 A3.18975,3.18975 0 0 0 42.6388,-43.7468 A4.00433,4.00433 0 0 0 42.0687,-43.856 A6.17562,6.17562 0 0 0 41.3492,-43.8981 L22.7477,-43.8981 A8.84368,8.84368 0 0 0 21.7792,-43.8449 A5.3603,5.3603 0 0 0 21.0362,-43.7095 A4.00865,4.00865 0 0 0 20.1436,-43.3628 A2.54287,2.54287 0 0 0 19.5322,-42.9069 A2.59953,2.59953 0 0 0 19.0819,-42.2925 A4.04758,4.04758 0 0 0 18.7401,-41.4055 A5.37071,5.37071 0 0 0 18.6054,-40.6645 A8.78183,8.78183 0 0 0 18.5526,-39.7029 L18.5526,-14.3017 A8.08417,8.08417 0 0 0 18.683,-12.8555 A3.91563,3.91563 0 0 0 18.9905,-11.8929 A2.71929,2.71929 0 0 0 20.362,-10.533 A5.7651,5.7651 0 0 0 22.7477,-10.1066 L40.819,-10.1066 A6.53061,6.53061 0 0 0 41.5404,-10.1465 A4.13619,4.13619 0 0 0 42.1061,-10.2496 A3.21416,3.21416 0 0 0 42.7702,-10.4999 A2.18041,2.18041 0 0 0 43.2508,-10.8326 A2.45386,2.45386 0 0 0 44.046,-12.7343 A2.48102,2.48102 0 0 0 43.2508,-14.659 A2.18043,2.18043 0 0 0 42.7701,-14.9917 A3.21447,3.21447 0 0 0 42.1059,-15.242 A4.13665,4.13665 0 0 0 41.5403,-15.3451 A6.53078,6.53078 0 0 0 40.819,-15.385" style="stroke:#000000;stroke-width:0.25;"/>
        <!-- Polylinie -->
        <path d="M56.7411,-13.6793 L56.7411,-38.2738 L70.6173,-38.2738 A6.0985,6.0985 0 0 0 71.3677,-38.3202 A4.07713,4.07713 0 0 0 71.9703,-38.4416 A3.34422,3.34422 0 0 0 72.6425,-38.7123 A2.5985,2.5985 0 0 0 73.1643,-39.0806 A2.62508,2.62508 0 0 0 74.0518,-41.109 A2.56104,2.56104 0 0 0 73.1759,-43.1259 A2.5111,2.5111 0 0 0 72.6569,-43.4788 A3.44172,3.44172 0 0 0 71.9706,-43.7411 A4.28777,4.28777 0 0 0 71.3703,-43.8545 A6.53563,6.53563 0 0 0 70.6173,-43.8981 L54.0904,-43.8981 A8.84368,8.84368 0 0 0 53.1218,-43.8449 A5.3603,5.3603 0 0 0 52.3789,-43.7095 A4.00865,4.00865 0 0 0 51.4863,-43.3628 A2.54287,2.54287 0 0 0 50.8749,-42.9069 A2.59953,2.59953 0 0 0 50.4245,-42.2925 A4.04758,4.04758 0 0 0 50.0828,-41.4055 A5.37071,5.37071 0 0 0 49.948,-40.6645 A8.78183,8.78183 0 0 0 49.8952,-39.7029 L49.8952,-13.6793 A8.1837,8.1837 0 0 0 49.9471,-12.7591 A5.2572,5.2572 0 0 0 50.0816,-12.0327 A4.14053,4.14053 0 0 0 50.4014,-11.1893 A2.89637,2.89637 0 0 0 50.8288,-10.5676 A3.14483,3.14483 0 0 0 53.2836,-9.5303 A3.26129,3.26129 0 0 0 55.7845,-10.556 A2.83038,2.83038 0 0 0 56.223,-11.1753 A4.05929,4.05929 0 0 0 56.5511,-12.0226 A5.18421,5.18421 0 0 0 56.6881,-12.7514 A8.14469,8.14469 0 0 0 56.7411,-13.6793" style="stroke:#000000;stroke-width:0.25;"/>
        <!-- Polylinie -->
        <path d="M-58.0711,15.2006 L-63.4879,36.7295 L-63.4879,13.4027 A7.70018,7.70018 0 0 0 -63.5359,12.5445 A4.94366,4.94366 0 0 0 -63.6601,11.867 A3.88784,3.88784 0 0 0 -63.9566,11.0786 A2.7019,2.7019 0 0 0 -64.3523,10.4984 A2.92461,2.92461 0 0 0 -66.6458,9.5303 A2.92351,2.92351 0 0 0 -68.9047,10.4869 A2.63191,2.63191 0 0 0 -69.3061,11.0644 A3.84307,3.84307 0 0 0 -69.6075,11.859 A4.92972,4.92972 0 0 0 -69.7323,12.5379 A7.76188,7.76188 0 0 0 -69.7806,13.4027 L-69.7806,40.1409 A7.28882,7.28882 0 0 0 -69.7186,41.0897 A4.11522,4.11522 0 0 0 -69.5644,41.7874 A2.97267,2.97267 0 0 0 -69.1642,42.6004 A2.04017,2.04017 0 0 0 -68.6281,43.1259 A3.8721,3.8721 0 0 0 -67.4054,43.6672 A7.84353,7.84353 0 0 0 -65.5163,43.8981 L-63.3957,43.8981 A15.3049,15.3049 0 0 0 -61.5051,43.7808 A3.57841,3.57841 0 0 0 -60.6182,43.5523 A2.33183,2.33183 0 0 0 -59.3389,42.3076 A19.3191,19.3191 0 0 0 -58.3938,39.3802 L-53.4841,20.871 L-48.5745,39.3802 A19.3191,19.3191 0 0 0 -47.6294,42.3076 A2.33183,2.33183 0 0 0 -46.3501,43.5523 A3.57841,3.57841 0 0 0 -45.4632,43.7808 A15.3049,15.3049 0 0 0 -43.5726,43.8981 L-41.452,43.8981 A7.84353,7.84353 0 0 0 -39.5629,43.6672 A3.8721,3.8721 0 0 0 -38.3402,43.1259 A2.04017,2.04017 0 0 0 -37.804,42.6002 A2.97326,2.97326 0 0 0 -37.4037,41.7869 A4.11626,4.11626 0 0 0 -37.2497,41.0894 A7.28926,7.28926 0 0 0 -37.1877,40.1409 L-37.1877,13.4027 A7.70018,7.70018 0 0 0 -37.2357,12.5445 A4.94366,4.94366 0 0 0 -37.3599,11.867 A3.88784,3.88784 0 0 0 -37.6564,11.0786 A2.7019,2.7019 0 0 0 -38.0521,10.4984 A2.90426,2.90426 0 0 0 -38.5419,10.0612 A2.72723,2.72723 0 0 0 -39.1008,9.757 A2.93862,2.93862 0 0 0 -39.6777,9.5916 A3.9249,3.9249 0 0 0 -40.3686,9.5303 A2.88114,2.88114 0 0 0 -42.6045,10.4984 A2.70434,2.70434 0 0 0 -43.0055,11.0788 A3.84954,3.84954 0 0 0 -43.3054,11.8653 A4.88297,4.88297 0 0 0 -43.4316,12.5435 A7.59747,7.59747 0 0 0 -43.4804,13.4027 L-43.4804,36.7295 L-48.8972,15.2006 A43.5399,43.5399 0 0 0 -49.7615,12.1234 A4.24848,4.24848 0 0 0 -50.9947,10.3371 A2.7355,2.7355 0 0 0 -51.5149,9.9698 A3.29577,3.29577 0 0 0 -52.1608,9.7029 A3.89968,3.89968 0 0 0 -52.7553,9.5776 A5.63554,5.63554 0 0 0 -53.4841,9.5303 A3.75451,3.75451 0 0 0 -55.5126,10.0489 A3.7361,3.7361 0 0 0 -56.8034,11.3743 A7.56632,7.56632 0 0 0 -57.5294,13.1607 A232.765,232.765 0 0 0 -58.0711,15.2006" style="stroke:#000000;stroke-width:0.25;"/>
        <!-- Polylinie -->
        <path d="M-18.7494,15.2006 L-24.1662,36.7295 L-24.1662,13.4027 A7.70018,7.70018 0 0 0 -24.2142,12.5445 A4.94366,4.94366 0 0 0 -24.3385,11.867 A3.88784,3.88784 0 0 0 -24.6349,11.0786 A2.7019,2.7019 0 0 0 -25.0306,10.4984 A2.92461,2.92461 0 0 0 -27.3241,9.5303 A2.92351,2.92351 0 0 0 -29.583,10.4869 A2.63191,2.63191 0 0 0 -29.9844,11.0644 A3.84307,3.84307 0 0 0 -30.2858,11.859 A4.92972,4.92972 0 0 0 -30.4106,12.5379 A7.76188,7.76188 0 0 0 -30.4589,13.4027 L-30.4589,40.1409 A7.28882,7.28882 0 0 0 -30.3969,41.0897 A4.11522,4.11522 0 0 0 -30.2427,41.7874 A2.97267,2.97267 0 0 0 -29.8425,42.6004 A2.04017,2.04017 0 0 0 -29.3064,43.1259 A3.8721,3.8721 0 0 0 -28.0837,43.6672 A7.84353,7.84353 0 0 0 -26.1946,43.8981 L-24.074,43.8981 A15.3049,15.3049 0 0 0 -22.1834,43.7808 A3.57841,3.57841 0 0 0 -21.2965,43.5523 A2.33183,2.33183 0 0 0 -20.0172,42.3076 A19.3191,19.3191 0 0 0 -19.0721,39.3802 L-14.1625,20.871 L-9.2528,39.3802 A19.3191,19.3191 0 0 0 -8.3077,42.3076 A2.33183,2.33183 0 0 0 -7.0284,43.5523 A3.57841,3.57841 0 0 0 -6.1415,43.7808 A15.3049,15.3049 0 0 0 -4.2509,43.8981 L-2.1303,43.8981 A7.84353,7.84353 0 0 0 -0.2412,43.6672 A3.8721,3.8721 0 0 0 0.9815,43.1259 A2.04017,2.04017 0 0 0 1.5177,42.6002 A2.97326,2.97326 0 0 0 1.918,41.7869 A4.11626,4.11626 0 0 0 2.072,41.0894 A7.28926,7.28926 0 0 0 2.134,40.1409 L2.134,13.4027 A7.70018,7.70018 0 0 0 2.086,12.5445 A4.94366,4.94366 0 0 0 1.9617,11.867 A3.88784,3.88784 0 0 0 1.6653,11.0786 A2.7019,2.7019 0 0 0 1.2696,10.4984 A2.90426,2.90426 0 0 0 0.7798,10.0612 A2.72723,2.72723 0 0 0 0.2209,9.757 A2.93862,2.93862 0 0 0 -0.356,9.5916 A3.9249,3.9249 0 0 0 -1.0469,9.5303 A2.88114,2.88114 0 0 0 -3.2828,10.4984 A2.70434,2.70434 0 0 0 -3.6838,11.0788 A3.84954,3.84954 0 0 0 -3.9837,11.8653 A4.88297,4.88297 0 0 0 -4.11,12.5435 A7.59747,7.59747 0 0 0 -4.1587,13.4027 L-4.1587,36.7295 L-9.5755,15.2006 A43.5399,43.5399 0 0 0 -10.4399,12.1234 A4.24848,4.24848 0 0 0 -11.673,10.3371 A2.7355,2.7355 0 0 0 -12.1932,9.9698 A3.29577,3.29577 0 0 0 -12.8391,9.7029 A3.89968,3.89968 0 0 0 -13.4336,9.5776 A5.63554,5.63554 0 0 0 -14.1625,9.5303 A3.75451,3.75451 0 0 0 -16.1909,10.0489 A3.7361,3.7361 0 0 0 -17.4817,11.3743 A7.56632,7.56632 0 0 0 -18.2078,13.1607 A232.765,232.765 0 0 0 -18.7494,15.2006" style="stroke:#000000;stroke-width:0.25;"/>
        <!-- Polylinie -->
        <path d="M16.0544,40.3253 L16.0544,28.4775 L29.4926,42.492 A12.3194,12.3194 0 0 0 31.1407,43.9903 A2.25663,2.25663 0 0 0 31.8662,44.3318 A4.19429,4.19429 0 0 0 32.9502,44.4743 A4.57062,4.57062 0 0 0 33.646,44.421 A3.403,3.403 0 0 0 34.2308,44.277 A3.07517,3.07517 0 0 0 34.8234,44.0005 A2.98429,2.98429 0 0 0 35.3359,43.6099 A2.79762,2.79762 0 0 0 36.2463,41.5008 A2.90213,2.90213 0 0 0 36.1358,40.7077 A3.7998,3.7998 0 0 0 35.781,39.8629 A4.75695,4.75695 0 0 0 35.3496,39.2311 A7.43363,7.43363 0 0 0 34.702,38.5274 L26.3809,30.6442 L35.9697,16.9063 A17.1747,17.1747 0 0 0 37.491,14.4054 A4.86138,4.86138 0 0 0 37.9981,12.3194 A2.59731,2.59731 0 0 0 37.1107,10.3601 A2.77892,2.77892 0 0 0 36.6022,9.9833 A3.10992,3.10992 0 0 0 35.9897,9.7129 A3.57681,3.57681 0 0 0 35.4078,9.5801 A5.02832,5.02832 0 0 0 34.702,9.5303 A5.41623,5.41623 0 0 0 33.3274,9.7076 A3.09343,3.09343 0 0 0 32.3739,10.1411 A5.24434,5.24434 0 0 0 30.8526,11.7662 A97.2138,97.2138 0 0 0 29.7462,13.6102 L21.6556,26.0573 L16.0544,20.6866 L16.0544,13.7024 A8.21612,8.21612 0 0 0 16.0008,12.7657 A5.20369,5.20369 0 0 0 15.8627,12.0319 A4.05888,4.05888 0 0 0 15.5302,11.1773 A2.81342,2.81342 0 0 0 15.0863,10.556 A3.2705,3.2705 0 0 0 12.5969,9.5303 A3.34497,3.34497 0 0 0 10.9142,9.9913 A3.22937,3.22937 0 0 0 9.6695,11.236 A4.0564,4.0564 0 0 0 9.2777,12.7343 A32.8725,32.8725 0 0 0 9.2085,15.2006 L9.2085,40.3253 A8.39413,8.39413 0 0 0 9.2589,41.2434 A5.38259,5.38259 0 0 0 9.3893,41.968 A4.22001,4.22001 0 0 0 9.7023,42.8157 A2.89257,2.89257 0 0 0 10.119,43.4371 A3.02292,3.02292 0 0 0 10.639,43.9064 A2.87753,2.87753 0 0 0 11.2391,44.2335 A3.13264,3.13264 0 0 0 11.8543,44.409 A4.25324,4.25324 0 0 0 12.5969,44.4743 A3.26129,3.26129 0 0 0 15.0978,43.4486 A2.83038,2.83038 0 0 0 15.5363,42.8293 A4.05929,4.05929 0 0 0 15.8644,41.982 A5.18421,5.18421 0 0 0 16.0014,41.2532 A8.14469,8.14469 0 0 0 16.0544,40.3253" style="stroke:#000000;stroke-width:0.25;"/>
        <!-- Polylinie -->
        <path d="M69.7806,20.2486 A9.92988,9.92988 0 0 0 68.2017,14.7396 A9.29974,9.29974 0 0 0 67.2928,13.5543 A9.94994,9.94994 0 0 0 66.1715,12.4915 A10.7669,10.7669 0 0 0 64.9945,11.662 A13.2998,13.2998 0 0 0 63.5801,10.9133 A13.8634,13.8634 0 0 0 60.4534,9.9186 A21.7139,21.7139 0 0 0 56.3654,9.5303 A24.3174,24.3174 0 0 0 54.0606,9.6398 A17.7994,17.7994 0 0 0 52.1087,9.9356 A15.204,15.204 0 0 0 49.9205,10.5669 A11.7064,11.7064 0 0 0 48.1135,11.4204 A10.9942,10.9942 0 0 0 44.3678,15.0508 A11.618,11.618 0 0 0 43.7521,16.1484 A8.78109,8.78109 0 0 0 43.3314,17.1584 A7.72721,7.72721 0 0 0 43.0245,18.3458 A6.48364,6.48364 0 0 0 42.9272,19.4649 A2.94661,2.94661 0 0 0 43.7916,21.5971 A2.941,2.941 0 0 0 45.9929,22.4845 A2.6023,2.6023 0 0 0 47.8253,21.793 A3.73681,3.73681 0 0 0 48.4615,21.0245 A7.73167,7.73167 0 0 0 49.1046,19.7415 A13.7071,13.7071 0 0 1 50.4992,17.0447 A5.65322,5.65322 0 0 1 52.6082,15.2583 A5.30229,5.30229 0 0 1 54.0194,14.7659 A11.1958,11.1958 0 0 1 56.181,14.5552 A11.9103,11.9103 0 0 1 57.5907,14.639 A8.65699,8.65699 0 0 1 58.7733,14.8642 A7.48581,7.48581 0 0 1 60.0564,15.3313 A6.2399,6.2399 0 0 1 61.1253,15.9728 A5.8625,5.8625 0 0 1 61.9614,16.7317 A4.20837,4.20837 0 0 1 62.5199,17.5084 A3.88799,3.88799 0 0 1 62.8947,18.4504 A4.32102,4.32102 0 0 1 63.0269,19.511 A5.01558,5.01558 0 0 1 62.963,20.3092 A3.78599,3.78599 0 0 1 62.7896,20.983 A3.47034,3.47034 0 0 1 62.4639,21.6545 A3.48736,3.48736 0 0 1 62.0012,22.2425 A6.61451,6.61451 0 0 1 59.3504,23.8444 A45.5847,45.5847 0 0 1 55.0055,25.02 A43.3368,43.3368 0 0 0 51.4161,26.0252 A22.6602,22.6602 0 0 0 48.9087,27.0138 A9.85298,9.85298 0 0 0 45.0132,30.1256 A6.84451,6.84451 0 0 0 44.3647,31.2105 A7.56572,7.56572 0 0 0 43.8986,32.455 A8.41236,8.41236 0 0 0 43.6599,33.643 A10.9659,10.9659 0 0 0 43.5726,35.0238 A8.41155,8.41155 0 0 0 45.0939,39.9795 A8.26935,8.26935 0 0 0 45.9685,41.0289 A9.06227,9.06227 0 0 0 47.049,41.9657 A9.92742,9.92742 0 0 0 48.1599,42.6759 A12.4996,12.4996 0 0 0 49.4965,43.3103 A14.344,14.344 0 0 0 52.4412,44.1476 A22.6356,22.6356 0 0 0 56.2732,44.4743 A21.6559,21.6559 0 0 0 59.3487,44.2548 A12.8171,12.8171 0 0 0 61.6554,43.7021 A11.3746,11.3746 0 0 0 65.4241,41.6507 A8.56954,8.56954 0 0 0 67.6139,38.9653 A6.19264,6.19264 0 0 0 68.3054,36.2224 A3.24191,3.24191 0 0 0 67.441,34.0211 A2.75665,2.75665 0 0 0 65.2858,33.0414 A3.53298,3.53298 0 0 0 64.1816,33.2184 A1.79123,1.79123 0 0 0 63.4994,33.6292 A4.16728,4.16728 0 0 0 62.9567,34.2685 A13.42,13.42 0 0 0 62.174,35.5539 A11.0853,11.0853 0 0 1 61.0931,37.3429 A6.88075,6.88075 0 0 1 59.9612,38.5389 A3.37302,3.37302 0 0 1 59.1684,39.0297 A6.01787,6.01787 0 0 1 57.9831,39.412 A8.17898,8.17898 0 0 1 57.0371,39.5548 A13.436,13.436 0 0 1 55.8122,39.6107 A10.9857,10.9857 0 0 1 54.5939,39.543 A7.84767,7.84767 0 0 1 53.5787,39.3615 A6.66948,6.66948 0 0 1 52.4547,38.9741 A5.29158,5.29158 0 0 1 51.5364,38.4467 A5.25729,5.25729 0 0 1 50.8325,37.8417 A3.48863,3.48863 0 0 1 50.3666,37.2462 A3.02541,3.02541 0 0 1 50.0276,36.4792 A3.04426,3.04426 0 0 1 49.9114,35.6461 A2.83711,2.83711 0 0 1 50.4646,33.8943 A4.65701,4.65701 0 0 1 51.9859,32.6265 A10.2567,10.2567 0 0 1 53.9451,31.7967 A83.0784,83.0784 0 0 1 57.2183,30.9208 A51.3593,51.3593 0 0 0 62.393,29.4456 A15.724,15.724 0 0 0 66.3346,27.4864 A8.05934,8.05934 0 0 0 68.8701,24.5705 A7.22939,7.22939 0 0 0 69.5206,22.744 A12.1053,12.1053 0 0 0 69.7806,20.2486" style="stroke:#000000;stroke-width:0.25;"/>
        <!-- Schraffur -->
        <path d="M-67.2059,-13.6793 L-67.2059,-38.2738 L-53.3297,-38.2738 A6.0985,6.0985 0 0 0 -52.5793,-38.3202 A4.07713,4.07713 0 0 0 -51.9767,-38.4416 A3.34422,3.34422 0 0 0 -51.3045,-38.7123 A2.5985,2.5985 0 0 0 -50.7827,-39.0806 A2.62508,2.62508 0 0 0 -49.8952,-41.109 A2.56104,2.56104 0 0 0 -50.7711,-43.1259 A2.5111,2.5111 0 0 0 -51.2901,-43.4788 A3.44172,3.44172 0 0 0 -51.9764,-43.7411 A4.28777,4.28777 0 0 0 -52.5767,-43.8545 A6.53563,6.53563 0 0 0 -53.3297,-43.8981 L-69.8567,-43.8981 A8.84368,8.84368 0 0 0 -70.8252,-43.8449 A5.3603,5.3603 0 0 0 -71.5681,-43.7095 A4.00865,4.00865 0 0 0 -72.4607,-43.3628 A2.54287,2.54287 0 0 0 -73.0721,-42.9069 A2.59953,2.59953 0 0 0 -73.5225,-42.2925 A4.04758,4.04758 0 0 0 -73.8642,-41.4055 A5.37071,5.37071 0 0 0 -73.999,-40.6645 A8.78183,8.78183 0 0 0 -74.0518,-39.7029 L-74.0518,-13.6793 A8.1837,8.1837 0 0 0 -73.9999,-12.7591 A5.2572,5.2572 0 0 0 -73.8654,-12.0327 A4.14053,4.14053 0 0 0 -73.5456,-11.1893 A2.89637,2.89637 0 0 0 -73.1182,-10.5676 A3.14483,3.14483 0 0 0 -70.6634,-9.5303 A3.26129,3.26129 0 0 0 -68.1625,-10.556 A2.83038,2.83038 0 0 0 -67.724,-11.1753 A4.05929,4.05929 0 0 0 -67.3959,-12.0226 A5.18421,5.18421 0 0 0 -67.2589,-12.7514 A8.14469,8.14469 0 0 0 -67.2059,-13.6793M16.0544,40.3253 L16.0544,28.4775 L29.4926,42.492 A12.3194,12.3194 0 0 0 31.1407,43.9903 A2.25663,2.25663 0 0 0 31.8662,44.3318 A4.19429,4.19429 0 0 0 32.9502,44.4743 A4.57062,4.57062 0 0 0 33.646,44.421 A3.403,3.403 0 0 0 34.2308,44.277 A3.07517,3.07517 0 0 0 34.8234,44.0005 A2.98429,2.98429 0 0 0 35.3359,43.6099 A2.79762,2.79762 0 0 0 36.2463,41.5008 A2.90213,2.90213 0 0 0 36.1358,40.7077 A3.7998,3.7998 0 0 0 35.781,39.8629 A4.75695,4.75695 0 0 0 35.3496,39.2311 A7.43363,7.43363 0 0 0 34.702,38.5274 L26.3809,30.6442 L35.9697,16.9063 A17.1747,17.1747 0 0 0 37.491,14.4054 A4.86138,4.86138 0 0 0 37.9981,12.3194 A2.59731,2.59731 0 0 0 37.1107,10.3601 A2.77892,2.77892 0 0 0 36.6022,9.9833 A3.10992,3.10992 0 0 0 35.9897,9.7129 A3.57681,3.57681 0 0 0 35.4078,9.5801 A5.02832,5.02832 0 0 0 34.702,9.5303 A5.41623,5.41623 0 0 0 33.3274,9.7076 A3.09343,3.09343 0 0 0 32.3739,10.1411 A5.24434,5.24434 0 0 0 30.8526,11.7662 A97.2138,97.2138 0 0 0 29.7462,13.6102 L21.6556,26.0573 L16.0544,20.6866 L16.0544,13.7024 A8.21612,8.21612 0 0 0 16.0008,12.7657 A5.20369,5.20369 0 0 0 15.8627,12.0319 A4.05888,4.05888 0 0 0 15.5302,11.1773 A2.81342,2.81342 0 0 0 15.0863,10.556 A3.2705,3.2705 0 0 0 12.5969,9.5303 A3.34497,3.34497 0 0 0 10.9142,9.9913 A3.22937,3.22937 0 0 0 9.6695,11.236 A4.0564,4.0564 0 0 0 9.2777,12.7343 A32.8725,32.8725 0 0 0 9.2085,15.2006 L9.2085,40.3253 A8.39413,8.39413 0 0 0 9.2589,41.2434 A5.38259,5.38259 0 0 0 9.3893,41.968 A4.22001,4.22001 0 0 0 9.7023,42.8157 A2.89257,2.89257 0 0 0 10.119,43.4371 A3.02292,3.02292 0 0 0 10.639,43.9064 A2.87753,2.87753 0 0 0 11.2391,44.2335 A3.13264,3.13264 0 0 0 11.8543,44.409 A4.25324,4.25324 0 0 0 12.5969,44.4743 A3.26129,3.26129 0 0 0 15.0978,43.4486 A2.83038,2.83038 0 0 0 15.5363,42.8293 A4.05929,4.05929 0 0 0 15.8644,41.982 A5.18421,5.18421 0 0 0 16.0014,41.2532 A8.14469,8.14469 0 0 0 16.0544,40.3253M69.7806,20.2486 A9.92988,9.92988 0 0 0 68.2017,14.7396 A9.29974,9.29974 0 0 0 67.2928,13.5543 A9.94994,9.94994 0 0 0 66.1715,12.4915 A10.7669,10.7669 0 0 0 64.9945,11.662 A13.2998,13.2998 0 0 0 63.5801,10.9133 A13.8634,13.8634 0 0 0 60.4534,9.9186 A21.7139,21.7139 0 0 0 56.3654,9.5303 A24.3174,24.3174 0 0 0 54.0606,9.6398 A17.7994,17.7994 0 0 0 52.1087,9.9356 A15.204,15.204 0 0 0 49.9205,10.5669 A11.7064,11.7064 0 0 0 48.1135,11.4204 A10.9942,10.9942 0 0 0 44.3678,15.0508 A11.618,11.618 0 0 0 43.7521,16.1484 A8.78109,8.78109 0 0 0 43.3314,17.1584 A7.72721,7.72721 0 0 0 43.0245,18.3458 A6.48364,6.48364 0 0 0 42.9272,19.4649 A2.94661,2.94661 0 0 0 43.7916,21.5971 A2.941,2.941 0 0 0 45.9929,22.4845 A2.6023,2.6023 0 0 0 47.8253,21.793 A3.73681,3.73681 0 0 0 48.4615,21.0245 A7.73167,7.73167 0 0 0 49.1046,19.7415 A13.7071,13.7071 0 0 1 50.4992,17.0447 A5.65322,5.65322 0 0 1 52.6082,15.2583 A5.30229,5.30229 0 0 1 54.0194,14.7659 A11.1958,11.1958 0 0 1 56.181,14.5552 A11.9103,11.9103 0 0 1 57.5907,14.639 A8.65699,8.65699 0 0 1 58.7733,14.8642 A7.48581,7.48581 0 0 1 60.0564,15.3313 A6.2399,6.2399 0 0 1 61.1253,15.9728 A5.8625,5.8625 0 0 1 61.9614,16.7317 A4.20837,4.20837 0 0 1 62.5199,17.5084 A3.88799,3.88799 0 0 1 62.8947,18.4504 A4.32102,4.32102 0 0 1 63.0269,19.511 A5.01558,5.01558 0 0 1 62.963,20.3092 A3.78599,3.78599 0 0 1 62.7896,20.983 A3.47034,3.47034 0 0 1 62.4639,21.6545 A3.48736,3.48736 0 0 1 62.0012,22.2425 A6.61451,6.61451 0 0 1 59.3504,23.8444 A45.5847,45.5847 0 0 1 55.0055,25.02 A43.3368,43.3368 0 0 0 51.4161,26.0252 A22.6602,22.6602 0 0 0 48.9087,27.0138 A9.85298,9.85298 0 0 0 45.0132,30.1256 A6.84451,6.84451 0 0 0 44.3647,31.2105 A7.56572,7.56572 0 0 0 43.8986,32.455 A8.41236,8.41236 0 0 0 43.6599,33.643 A10.9659,10.9659 0 0 0 43.5726,35.0238 A8.41155,8.41155 0 0 0 45.0939,39.9795 A8.26935,8.26935 0 0 0 45.9685,41.0289 A9.06227,9.06227 0 0 0 47.049,41.9657 A9.92742,9.92742 0 0 0 48.1599,42.6759 A12.4996,12.4996 0 0 0 49.4965,43.3103 A14.344,14.344 0 0 0 52.4412,44.1476 A22.6356,22.6356 0 0 0 56.2732,44.4743 A21.6559,21.6559 0 0 0 59.3487,44.2548 A12.8171,12.8171 0 0 0 61.6554,43.7021 A11.3746,11.3746 0 0 0 65.4241,41.6507 A8.56954,8.56954 0 0 0 67.6139,38.9653 A6.19264,6.19264 0 0 0 68.3054,36.2224 A3.24191,3.24191 0 0 0 67.441,34.0211 A2.75665,2.75665 0 0 0 65.2858,33.0414 A3.53298,3.53298 0 0 0 64.1816,33.2184 A1.79123,1.79123 0 0 0 63.4994,33.6292 A4.16728,4.16728 0 0 0 62.9567,34.2685 A13.42,13.42 0 0 0 62.174,35.5539 A11.0853,11.0853 0 0 1 61.0931,37.3429 A6.88075,6.88075 0 0 1 59.9612,38.5389 A3.37302,3.37302 0 0 1 59.1684,39.0297 A6.01787,6.01787 0 0 1 57.9831,39.412 A8.17898,8.17898 0 0 1 57.0371,39.5548 A13.436,13.436 0 0 1 55.8122,39.6107 A10.9857,10.9857 0 0 1 54.5939,39.543 A7.84767,7.84767 0 0 1 53.5787,39.3615 A6.66948,6.66948 0 0 1 52.4547,38.9741 A5.29158,5.29158 0 0 1 51.5364,38.4467 A5.25729,5.25729 0 0 1 50.8325,37.8417 A3.48863,3.48863 0 0 1 50.3666,37.2462 A3.02541,3.02541 0 0 1 50.0276,36.4792 A3.04426,3.04426 0 0 1 49.9114,35.6461 A2.83711,2.83711 0 0 1 50.4646,33.8943 A4.65701,4.65701 0 0 1 51.9859,32.6265 A10.2567,10.2567 0 0 1 53.9451,31.7967 A83.0784,83.0784 0 0 1 57.2183,30.9208 A51.3593,51.3593 0 0 0 62.393,29.4456 A15.724,15.724 0 0 0 66.3346,27.4864 A8.05934,8.05934 0 0 0 68.8701,24.5705 A7.22939,7.22939 0 0 0 69.5206,22.744 A12.1053,12.1053 0 0 0 69.7806,20.2486M-58.0711,15.2006 L-63.4879,36.7295 L-63.4879,13.4027 A7.70018,7.70018 0 0 0 -63.5359,12.5445 A4.94366,4.94366 0 0 0 -63.6601,11.867 A3.88784,3.88784 0 0 0 -63.9566,11.0786 A2.7019,2.7019 0 0 0 -64.3523,10.4984 A2.92461,2.92461 0 0 0 -66.6458,9.5303 A2.92351,2.92351 0 0 0 -68.9047,10.4869 A2.63191,2.63191 0 0 0 -69.3061,11.0644 A3.84307,3.84307 0 0 0 -69.6075,11.859 A4.92972,4.92972 0 0 0 -69.7323,12.5379 A7.76188,7.76188 0 0 0 -69.7806,13.4027 L-69.7806,40.1409 A7.28882,7.28882 0 0 0 -69.7186,41.0897 A4.11522,4.11522 0 0 0 -69.5644,41.7874 A2.97267,2.97267 0 0 0 -69.1642,42.6004 A2.04017,2.04017 0 0 0 -68.6281,43.1259 A3.8721,3.8721 0 0 0 -67.4054,43.6672 A7.84353,7.84353 0 0 0 -65.5163,43.8981 L-63.3957,43.8981 A15.3049,15.3049 0 0 0 -61.5051,43.7808 A3.57841,3.57841 0 0 0 -60.6182,43.5523 A2.33183,2.33183 0 0 0 -59.3389,42.3076 A19.3191,19.3191 0 0 0 -58.3938,39.3802 L-53.4841,20.871 L-48.5745,39.3802 A19.3191,19.3191 0 0 0 -47.6294,42.3076 A2.33183,2.33183 0 0 0 -46.3501,43.5523 A3.57841,3.57841 0 0 0 -45.4632,43.7808 A15.3049,15.3049 0 0 0 -43.5726,43.8981 L-41.452,43.8981 A7.84353,7.84353 0 0 0 -39.5629,43.6672 A3.8721,3.8721 0 0 0 -38.3402,43.1259 A2.04017,2.04017 0 0 0 -37.804,42.6002 A2.97326,2.97326 0 0 0 -37.4037,41.7869 A4.11626,4.11626 0 0 0 -37.2497,41.0894 A7.28926,7.28926 0 0 0 -37.1877,40.1409 L-37.1877,13.4027 A7.70018,7.70018 0 0 0 -37.2357,12.5445 A4.94366,4.94366 0 0 0 -37.3599,11.867 A3.88784,3.88784 0 0 0 -37.6564,11.0786 A2.7019,2.7019 0 0 0 -38.0521,10.4984 A2.90426,2.90426 0 0 0 -38.5419,10.0612 A2.72723,2.72723 0 0 0 -39.1008,9.757 A2.93862,2.93862 0 0 0 -39.6777,9.5916 A3.9249,3.9249 0 0 0 -40.3686,9.5303 A2.88114,2.88114 0 0 0 -42.6045,10.4984 A2.70434,2.70434 0 0 0 -43.0055,11.0788 A3.84954,3.84954 0 0 0 -43.3054,11.8653 A4.88297,4.88297 0 0 0 -43.4316,12.5435 A7.59747,7.59747 0 0 0 -43.4804,13.4027 L-43.4804,36.7295 L-48.8972,15.2006 A43.5399,43.5399 0 0 0 -49.7615,12.1234 A4.24848,4.24848 0 0 0 -50.9947,10.3371 A2.7355,2.7355 0 0 0 -51.5149,9.9698 A3.29577,3.29577 0 0 0 -52.1608,9.7029 A3.89968,3.89968 0 0 0 -52.7553,9.5776 A5.63554,5.63554 0 0 0 -53.4841,9.5303 A3.75451,3.75451 0 0 0 -55.5126,10.0489 A3.7361,3.7361 0 0 0 -56.8034,11.3743 A7.56632,7.56632 0 0 0 -57.5294,13.1607 A232.765,232.765 0 0 0 -58.0711,15.2006M-18.7494,15.2006 L-24.1662,36.7295 L-24.1662,13.4027 A7.70018,7.70018 0 0 0 -24.2142,12.5445 A4.94366,4.94366 0 0 0 -24.3385,11.867 A3.88784,3.88784 0 0 0 -24.6349,11.0786 A2.7019,2.7019 0 0 0 -25.0306,10.4984 A2.92461,2.92461 0 0 0 -27.3241,9.5303 A2.92351,2.92351 0 0 0 -29.583,10.4869 A2.63191,2.63191 0 0 0 -29.9844,11.0644 A3.84307,3.84307 0 0 0 -30.2858,11.859 A4.92972,4.92972 0 0 0 -30.4106,12.5379 A7.76188,7.76188 0 0 0 -30.4589,13.4027 L-30.4589,40.1409 A7.28882,7.28882 0 0 0 -30.3969,41.0897 A4.11522,4.11522 0 0 0 -30.2427,41.7874 A2.97267,2.97267 0 0 0 -29.8425,42.6004 A2.04017,2.04017 0 0 0 -29.3064,43.1259 A3.8721,3.8721 0 0 0 -28.0837,43.6672 A7.84353,7.84353 0 0 0 -26.1946,43.8981 L-24.074,43.8981 A15.3049,15.3049 0 0 0 -22.1834,43.7808 A3.57841,3.57841 0 0 0 -21.2965,43.5523 A2.33183,2.33183 0 0 0 -20.0172,42.3076 A19.3191,19.3191 0 0 0 -19.0721,39.3802 L-14.1625,20.871 L-9.2528,39.3802 A19.3191,19.3191 0 0 0 -8.3077,42.3076 A2.33183,2.33183 0 0 0 -7.0284,43.5523 A3.57841,3.57841 0 0 0 -6.1415,43.7808 A15.3049,15.3049 0 0 0 -4.2509,43.8981 L-2.1303,43.8981 A7.84353,7.84353 0 0 0 -0.2412,43.6672 A3.8721,3.8721 0 0 0 0.9815,43.1259 A2.04017,2.04017 0 0 0 1.5177,42.6002 A2.97326,2.97326 0 0 0 1.918,41.7869 A4.11626,4.11626 0 0 0 2.072,41.0894 A7.28926,7.28926 0 0 0 2.134,40.1409 L2.134,13.4027 A7.70018,7.70018 0 0 0 2.086,12.5445 A4.94366,4.94366 0 0 0 1.9617,11.867 A3.88784,3.88784 0 0 0 1.6653,11.0786 A2.7019,2.7019 0 0 0 1.2696,10.4984 A2.90426,2.90426 0 0 0 0.7798,10.0612 A2.72723,2.72723 0 0 0 0.2209,9.757 A2.93862,2.93862 0 0 0 -0.356,9.5916 A3.9249,3.9249 0 0 0 -1.0469,9.5303 A2.88114,2.88114 0 0 0 -3.2828,10.4984 A2.70434,2.70434 0 0 0 -3.6838,11.0788 A3.84954,3.84954 0 0 0 -3.9837,11.8653 A4.88297,4.88297 0 0 0 -4.11,12.5435 A7.59747,7.59747 0 0 0 -4.1587,13.4027 L-4.1587,36.7295 L-9.5755,15.2006 A43.5399,43.5399 0 0 0 -10.4399,12.1234 A4.24848,4.24848 0 0 0 -11.673,10.3371 A2.7355,2.7355 0 0 0 -12.1932,9.9698 A3.29577,3.29577 0 0 0 -12.8391,9.7029 A3.89968,3.89968 0 0 0 -13.4336,9.5776 A5.63554,5.63554 0 0 0 -14.1625,9.5303 A3.75451,3.75451 0 0 0 -16.1909,10.0489 A3.7361,3.7361 0 0 0 -17.4817,11.3743 A7.56632,7.56632 0 0 0 -18.2078,13.1607 A232.765,232.765 0 0 0 -18.7494,15.2006M40.819,-15.385 L25.3985,-15.385 L25.3985,-23.6831 L39.5974,-23.6831 A6.19432,6.19432 0 0 0 40.2907,-23.722 A3.95096,3.95096 0 0 0 40.836,-23.8226 A3.09247,3.09247 0 0 0 41.4721,-24.0641 A2.13648,2.13648 0 0 0 41.9369,-24.3861 A2.38942,2.38942 0 0 0 42.7091,-26.2417 A2.48067,2.48067 0 0 0 41.9485,-28.1202 A2.07353,2.07353 0 0 0 41.4861,-28.4533 A3.01298,3.01298 0 0 0 40.8462,-28.7032 A3.87912,3.87912 0 0 0 40.2984,-28.8063 A6.15533,6.15533 0 0 0 39.5974,-28.8463 L25.3985,-28.8463 L25.3985,-38.4582 L41.3492,-38.4582 A6.17546,6.17546 0 0 0 42.0689,-38.5003 A4.00391,4.00391 0 0 0 42.639,-38.6096 A3.18948,3.18948 0 0 0 43.2923,-38.8645 A2.31052,2.31052 0 0 0 43.781,-39.2074 A2.57275,2.57275 0 0 0 44.5992,-41.2012 A2.51838,2.51838 0 0 0 43.781,-43.1489 A2.31053,2.31053 0 0 0 43.2922,-43.4918 A3.18975,3.18975 0 0 0 42.6388,-43.7468 A4.00433,4.00433 0 0 0 42.0687,-43.856 A6.17562,6.17562 0 0 0 41.3492,-43.8981 L22.7477,-43.8981 A8.84368,8.84368 0 0 0 21.7792,-43.8449 A5.3603,5.3603 0 0 0 21.0362,-43.7095 A4.00865,4.00865 0 0 0 20.1436,-43.3628 A2.54287,2.54287 0 0 0 19.5322,-42.9069 A2.59953,2.59953 0 0 0 19.0819,-42.2925 A4.04758,4.04758 0 0 0 18.7401,-41.4055 A5.37071,5.37071 0 0 0 18.6054,-40.6645 A8.78183,8.78183 0 0 0 18.5526,-39.7029 L18.5526,-14.3017 A8.08417,8.08417 0 0 0 18.683,-12.8555 A3.91563,3.91563 0 0 0 18.9905,-11.8929 A2.71929,2.71929 0 0 0 20.362,-10.533 A5.7651,5.7651 0 0 0 22.7477,-10.1066 L40.819,-10.1066 A6.53061,6.53061 0 0 0 41.5404,-10.1465 A4.13619,4.13619 0 0 0 42.1061,-10.2496 A3.21416,3.21416 0 0 0 42.7702,-10.4999 A2.18041,2.18041 0 0 0 43.2508,-10.8326 A2.45386,2.45386 0 0 0 44.046,-12.7343 A2.48102,2.48102 0 0 0 43.2508,-14.659 A2.18043,2.18043 0 0 0 42.7701,-14.9917 A3.21447,3.21447 0 0 0 42.1059,-15.242 A4.13665,4.13665 0 0 0 41.5403,-15.3451 A6.53078,6.53078 0 0 0 40.819,-15.385M56.7411,-13.6793 L56.7411,-38.2738 L70.6173,-38.2738 A6.0985,6.0985 0 0 0 71.3677,-38.3202 A4.07713,4.07713 0 0 0 71.9703,-38.4416 A3.34422,3.34422 0 0 0 72.6425,-38.7123 A2.5985,2.5985 0 0 0 73.1643,-39.0806 A2.62508,2.62508 0 0 0 74.0518,-41.109 A2.56104,2.56104 0 0 0 73.1759,-43.1259 A2.5111,2.5111 0 0 0 72.6569,-43.4788 A3.44172,3.44172 0 0 0 71.9706,-43.7411 A4.28777,4.28777 0 0 0 71.3703,-43.8545 A6.53563,6.53563 0 0 0 70.6173,-43.8981 L54.0904,-43.8981 A8.84368,8.84368 0 0 0 53.1218,-43.8449 A5.3603,5.3603 0 0 0 52.3789,-43.7095 A4.00865,4.00865 0 0 0 51.4863,-43.3628 A2.54287,2.54287 0 0 0 50.8749,-42.9069 A2.59953,2.59953 0 0 0 50.4245,-42.2925 A4.04758,4.04758 0 0 0 50.0828,-41.4055 A5.37071,5.37071 0 0 0 49.948,-40.6645 A8.78183,8.78183 0 0 0 49.8952,-39.7029 L49.8952,-13.6793 A8.1837,8.1837 0 0 0 49.9471,-12.7591 A5.2572,5.2572 0 0 0 50.0816,-12.0327 A4.14053,4.14053 0 0 0 50.4014,-11.1893 A2.89637,2.89637 0 0 0 50.8288,-10.5676 A3.14483,3.14483 0 0 0 53.2836,-9.5303 A3.26129,3.26129 0 0 0 55.7845,-10.556 A2.83038,2.83038 0 0 0 56.223,-11.1753 A4.05929,4.05929 0 0 0 56.5511,-12.0226 A5.18421,5.18421 0 0 0 56.6881,-12.7514 A8.14469,8.14469 0 0 0 56.7411,-13.6793M-23.1386,-15.385 L-38.5592,-15.385 L-38.5592,-23.6831 L-24.3603,-23.6831 A6.19432,6.19432 0 0 0 -23.667,-23.722 A3.95096,3.95096 0 0 0 -23.1216,-23.8226 A3.09247,3.09247 0 0 0 -22.4856,-24.0641 A2.13648,2.13648 0 0 0 -22.0207,-24.3861 A2.38942,2.38942 0 0 0 -21.2485,-26.2417 A2.48067,2.48067 0 0 0 -22.0092,-28.1202 A2.07353,2.07353 0 0 0 -22.4716,-28.4533 A3.01298,3.01298 0 0 0 -23.1114,-28.7032 A3.87912,3.87912 0 0 0 -23.6593,-28.8063 A6.15533,6.15533 0 0 0 -24.3603,-28.8463 L-38.5592,-28.8463 L-38.5592,-38.4582 L-22.6085,-38.4582 A6.17546,6.17546 0 0 0 -21.8888,-38.5003 A4.00391,4.00391 0 0 0 -21.3187,-38.6096 A3.18948,3.18948 0 0 0 -20.6653,-38.8645 A2.31052,2.31052 0 0 0 -20.1767,-39.2074 A2.57275,2.57275 0 0 0 -19.3584,-41.2012 A2.51838,2.51838 0 0 0 -20.1767,-43.1489 A2.31053,2.31053 0 0 0 -20.6654,-43.4918 A3.18975,3.18975 0 0 0 -21.3189,-43.7468 A4.00433,4.00433 0 0 0 -21.8889,-43.856 A6.17562,6.17562 0 0 0 -22.6085,-43.8981 L-41.2099,-43.8981 A8.84368,8.84368 0 0 0 -42.1785,-43.8449 A5.3603,5.3603 0 0 0 -42.9214,-43.7095 A4.00865,4.00865 0 0 0 -43.814,-43.3628 A2.54287,2.54287 0 0 0 -44.4254,-42.9069 A2.59953,2.59953 0 0 0 -44.8758,-42.2925 A4.04758,4.04758 0 0 0 -45.2175,-41.4055 A5.37071,5.37071 0 0 0 -45.3523,-40.6645 A8.78183,8.78183 0 0 0 -45.4051,-39.7029 L-45.4051,-14.3017 A8.08417,8.08417 0 0 0 -45.2747,-12.8555 A3.91563,3.91563 0 0 0 -44.9671,-11.8929 A2.71929,2.71929 0 0 0 -43.5956,-10.533 A5.7651,5.7651 0 0 0 -41.2099,-10.1066 L-23.1386,-10.1066 A6.53061,6.53061 0 0 0 -22.4173,-10.1465 A4.13619,4.13619 0 0 0 -21.8516,-10.2496 A3.21416,3.21416 0 0 0 -21.1875,-10.4999 A2.18041,2.18041 0 0 0 -20.7069,-10.8326 A2.45386,2.45386 0 0 0 -19.9116,-12.7343 A2.48102,2.48102 0 0 0 -20.7069,-14.659 A2.18043,2.18043 0 0 0 -21.1876,-14.9917 A3.21447,3.21447 0 0 0 -21.8518,-15.242 A4.13665,4.13665 0 0 0 -22.4174,-15.3451 A6.53078,6.53078 0 0 0 -23.1386,-15.385M-8.9222,-14.0251 L-1.2696,-36.6834 L6.4061,-13.8637 A38.1643,38.1643 0 0 0 7.305,-11.3628 A3.33108,3.33108 0 0 0 8.2962,-10.095 A2.16853,2.16853 0 0 0 9.0471,-9.6969 A3.97952,3.97952 0 0 0 10.1863,-9.5303 A3.16381,3.16381 0 0 0 11.8113,-9.9683 A3.22299,3.22299 0 0 0 12.9869,-11.1323 A2.86449,2.86449 0 0 0 13.4133,-12.596 A4.79769,4.79769 0 0 0 13.275,-13.6909 A9.94505,9.94505 0 0 0 12.9293,-14.8434 A65.7659,65.7659 0 0 1 12.5144,-16.0074 L4.3316,-38.0894 A75.7784,75.7784 0 0 0 3.4557,-40.4982 A10.1854,10.1854 0 0 0 2.4415,-42.5035 A4.53805,4.53805 0 0 0 0.9086,-43.9211 A4.60422,4.60422 0 0 0 -1.431,-44.4743 A4.68311,4.68311 0 0 0 -3.7705,-43.9326 A4.45275,4.45275 0 0 0 -5.3149,-42.5035 A10.5428,10.5428 0 0 0 -6.3406,-40.4866 A68.5805,68.5805 0 0 0 -7.2165,-38.0894 L-15.261,-16.1918 A41.8248,41.8248 0 0 1 -15.6875,-15.0162 A9.11553,9.11553 0 0 0 -16.0563,-13.7715 A5.3164,5.3164 0 0 0 -16.2061,-12.6421 A3.00752,3.00752 0 0 0 -15.261,-10.4984 A3.17986,3.17986 0 0 0 -12.8869,-9.5303 A4.95345,4.95345 0 0 0 -12.1001,-9.5932 A3.03549,3.03549 0 0 0 -11.5033,-9.7529 A2.44386,2.44386 0 0 0 -10.8736,-10.1065 A2.16293,2.16293 0 0 0 -10.409,-10.6021 A6.9219,6.9219 0 0 0 -9.7909,-11.7267 A25.378,25.378 0 0 0 -8.9222,-14.0251" style="fill:#000000;fill-rule:evenodd;"/>
    </g>
</svg>
