<?xml version="1.0" encoding="UTF-8" standalone="no"?>
<!-- 2020-10-25 14:17:42 Generated by QCAD 3.24.2 SVG Exporter PG -->

<svg
   xmlns:dc="http://purl.org/dc/elements/1.1/"
   xmlns:cc="http://creativecommons.org/ns#"
   xmlns:rdf="http://www.w3.org/1999/02/22-rdf-syntax-ns#"
   xmlns:svg="http://www.w3.org/2000/svg"
   xmlns="http://www.w3.org/2000/svg"
   xmlns:sodipodi="http://sodipodi.sourceforge.net/DTD/sodipodi-0.dtd"
   xmlns:inkscape="http://www.inkscape.org/namespaces/inkscape"
   width="210.5mm"
   height="210.5mm"
   viewBox="-105.25 -105.25 210.5 210.5"
   version="1.1"
   style="stroke-linecap:round;stroke-linejoin:round;fill:none"
   id="svg1092"
   sodipodi:docname="OCZ.svg"
   inkscape:version="0.92.5 (2060ec1f9f, 2020-04-08)">
  <metadata
     id="metadata1098">
    <rdf:RDF>
      <cc:Work
         rdf:about="">
        <dc:format>image/svg+xml</dc:format>
        <dc:type
           rdf:resource="http://purl.org/dc/dcmitype/StillImage" />
      </cc:Work>
    </rdf:RDF>
  </metadata>
  <defs
     id="defs1096" />
  <sodipodi:namedview
     pagecolor="#ffffff"
     bordercolor="#666666"
     borderopacity="1"
     objecttolerance="10"
     gridtolerance="10"
     guidetolerance="10"
     inkscape:pageopacity="0"
     inkscape:pageshadow="2"
     inkscape:window-width="2560"
     inkscape:window-height="1356"
     id="namedview1094"
     showgrid="false"
     inkscape:zoom="1.18654"
     inkscape:cx="303.98905"
     inkscape:cy="504.87819"
     inkscape:window-x="1912"
     inkscape:window-y="-8"
     inkscape:window-maximized="1"
     inkscape:current-layer="g1090" />
  <g
     transform="scale(1,-1)"
     id="g1090">
    <!-- Polylinie -->
    <path
       d="M-90,-100 L90,-100 A10,10 0 0 1 100,-90 L100,90 A10,10 0 0 1 90,100 L-90,100 A10,10 0 0 1 -100,90 L-100,-90 A10,10 0 0 1 -90,-100"
       style="stroke:#000000;stroke-width:0.25;"
       id="path1018" />
    <!-- Kreisbogen -->
    <path
       d="m 2.8338776,28.788949 a 3,3 0 1 1 2,0"
       style="stroke:#000000;stroke-width:0.5"
       id="path1020"
       inkscape:connector-curvature="0" />
    <!-- Linie -->
    <line
       x1="2.8338776"
       y1="28.788948"
       x2="2.8338776"
       y2="55.960548"
       style="stroke:#000000;stroke-width:0.5"
       id="line1022" />
    <!-- Linie -->
    <line
       x1="4.8338776"
       y1="55.960548"
       x2="4.8338776"
       y2="28.788948"
       style="stroke:#000000;stroke-width:0.5"
       id="line1024" />
    <!-- Linie -->
    <line
       x1="2.8338776"
       y1="55.960548"
       x2="-1.1661224"
       y2="75.960548"
       style="stroke:#000000;stroke-width:0.5"
       id="line1026" />
    <!-- Linie -->
    <line
       x1="8.8338776"
       y1="75.960548"
       x2="4.8338776"
       y2="55.960548"
       style="stroke:#000000;stroke-width:0.5"
       id="line1028" />
    <!-- Linie -->
    <line
       x1="-1.1661224"
       y1="75.960548"
       x2="-1.1661224"
       y2="95.960548"
       style="stroke:#000000;stroke-width:0.5"
       id="line1030" />
    <!-- Linie -->
    <line
       x1="-1.1661224"
       y1="95.960548"
       x2="8.8338776"
       y2="95.960548"
       style="stroke:#000000;stroke-width:0.5"
       id="line1032" />
    <!-- Linie -->
    <line
       x1="8.8338776"
       y1="95.960548"
       x2="8.8338776"
       y2="75.960548"
       style="stroke:#000000;stroke-width:0.5"
       id="line1034" />
    <!-- Schraffur -->
    <path
       d="m 2.8338776,28.788949 a 3,3 0 1 1 2,0 v 27.1716 l 4,20 v 20 h -10 v -20 l 4,-20 z"
       style="fill:#000000;fill-rule:evenodd"
       id="path1036"
       inkscape:connector-curvature="0" />
    <!-- Linie -->
    <line
       x1="90"
       y1="14.9998"
       x2="80"
       y2="4.9998"
       style="stroke:#000000;stroke-width:0.5;"
       id="line1038" />
    <!-- Linie -->
    <line
       x1="20"
       y1="64.9998"
       x2="-40"
       y2="4.9998"
       style="stroke:#000000;stroke-width:0.5;"
       id="line1040" />
    <!-- Linie -->
    <line
       x1="-40"
       y1="4.9998"
       x2="80"
       y2="4.9998"
       style="stroke:#000000;stroke-width:0.5;"
       id="line1042" />
    <!-- Linie -->
    <line
       x1="3.8338776"
       y1="59.461048"
       x2="3.8338776"
       y2="59.460548"
       style="stroke:#000000;stroke-width:0.5"
       id="line1044" />
    <!-- Linie -->
    <line
       x1="19.9998"
       y1="65.0002"
       x2="19.9998"
       y2="64.9996"
       style="stroke:#000000;stroke-width:0.5;"
       id="line1046" />
    <!-- Linie -->
    <line
       x1="19.9998"
       y1="64.9996"
       x2="90"
       y2="64.9997"
       style="stroke:#000000;stroke-width:0.5;"
       id="line1048" />
    <!-- Linie -->
    <line
       x1="-40"
       y1="4.9998"
       x2="-40"
       y2="-5.0002"
       style="stroke:#000000;stroke-width:0.5;"
       id="line1050" />
    <!-- Linie -->
    <line
       x1="-40"
       y1="-5.0002"
       x2="80"
       y2="-5.0002"
       style="stroke:#000000;stroke-width:0.5;"
       id="line1052" />
    <!-- Linie -->
    <line
       x1="80"
       y1="-5.0002"
       x2="80"
       y2="4.9998"
       style="stroke:#000000;stroke-width:0.5;"
       id="line1054" />
    <!-- Linie -->
    <line
       x1="80"
       y1="-5.0002"
       x2="90"
       y2="4.9998"
       style="stroke:#000000;stroke-width:0.5;"
       id="line1056" />
    <!-- Polylinie -->
    <path
       d="M-34.394,-23.1819 A17.2844,17.2844 0 0 0 -32.6188,-23.2733 A13.5845,13.5845 0 0 0 -31.0633,-23.5258 A12.2039,12.2039 0 0 0 -29.3987,-24.0228 A10.5247,10.5247 0 0 0 -27.9379,-24.7072 A9.88727,9.88727 0 0 0 -23.8564,-29.0443 A12.2581,12.2581 0 0 0 -22.8554,-31.9455 A18.0413,18.0413 0 0 0 -22.4712,-35.6488 A16.1541,16.1541 0 0 0 -23.2298,-40.7445 A11.0241,11.0241 0 0 0 -25.5055,-44.7187 A9.94235,9.94235 0 0 0 -29.2324,-47.2913 A13.4611,13.4611 0 0 0 -34.295,-48.1818 A13.3422,13.3422 0 0 0 -39.3742,-47.2665 A10.075,10.075 0 0 0 -43.1176,-44.6857 A11.024,11.024 0 0 0 -45.385,-40.6785 A16.1771,16.1771 0 0 0 -46.1519,-35.6158 A15.6297,15.6297 0 0 0 -45.3521,-30.5037 A10.9669,10.9669 0 0 0 -43.0351,-26.546 A10.0205,10.0205 0 0 0 -39.3412,-24.0476 A13.2996,13.2996 0 0 0 -34.394,-23.1819"
       style="stroke:#000000;stroke-width:0.25;"
       id="path1058" />
    <!-- Polylinie -->
    <path
       d="M-27.4349,-35.6158 A14.2139,14.2139 0 0 1 -27.6755,-33.0115 A9.07394,9.07394 0 0 1 -28.2924,-31.0149 A6.40209,6.40209 0 0 1 -30.7413,-28.0713 A6.73122,6.73122 0 0 1 -34.394,-27.0737 A6.61283,6.61283 0 0 1 -37.1067,-27.6261 A5.96071,5.96071 0 0 1 -39.2505,-29.2339 A7.68227,7.68227 0 0 1 -40.6687,-31.9302 A12.1846,12.1846 0 0 1 -41.1882,-35.6158 A12.4888,12.4888 0 0 1 -40.6687,-39.3427 A7.64099,7.64099 0 0 1 -39.201,-42.1049 A6.16562,6.16562 0 0 1 -37.0243,-43.7458 A6.5831,6.5831 0 0 1 -34.328,-44.29 A6.61653,6.61653 0 0 1 -30.8732,-43.35 A5.55229,5.55229 0 0 1 -29.5167,-42.2114 A7.84898,7.84898 0 0 1 -28.3666,-40.4476 A8.44417,8.44417 0 0 1 -27.7033,-38.4248 A14.8349,14.8349 0 0 1 -27.4349,-35.6158"
       style="stroke:#000000;stroke-width:0.25;"
       id="path1060" />
    <!-- Polylinie -->
    <path
       d="M-6.908,-45.6422 L-6.908,-45.065 A10.0454,10.0454 0 0 0 -8.6065,-46.78 A6.25714,6.25714 0 0 0 -10.5524,-47.8107 A7.88636,7.88636 0 0 0 -12.96,-48.1488 A6.22736,6.22736 0 0 0 -15.8871,-47.4727 A4.93824,4.93824 0 0 0 -17.8908,-45.6092 A4.53048,4.53048 0 0 0 -18.2733,-44.7717 A7.74312,7.74312 0 0 0 -18.5697,-43.605 A10.0354,10.0354 0 0 0 -18.6869,-42.6627 A15.4181,15.4181 0 0 0 -18.7318,-41.4865 L-18.7318,-32.5651 A4.42322,4.42322 0 0 0 -18.5429,-31.2861 A1.92342,1.92342 0 0 0 -18.1216,-30.545 A2.08395,2.08395 0 0 0 -16.5055,-29.8771 A2.1427,2.1427 0 0 0 -14.8565,-30.5532 A1.90907,1.90907 0 0 0 -14.5696,-30.9573 A2.61582,2.61582 0 0 0 -14.3566,-31.4969 A3.27939,3.27939 0 0 0 -14.2651,-31.9689 A5.05774,5.05774 0 0 0 -14.2298,-32.5651 L-14.2298,-39.7715 A11.1221,11.1221 0 0 1 -13.966,-42.4018 A3.15926,3.15926 0 0 1 -13.0178,-44.0673 A2.1326,2.1326 0 0 1 -12.2675,-44.4945 A3.58034,3.58034 0 0 1 -11.1626,-44.6692 A3.77556,3.77556 0 0 1 -9.0188,-43.9931 A3.94682,3.94682 0 0 1 -7.5511,-42.2286 A2.86175,2.86175 0 0 1 -7.384,-41.6166 A15.4696,15.4696 0 0 1 -7.2255,-40.1501 A25.9118,25.9118 0 0 1 -7.1873,-39.2556 A47.788,47.788 0 0 1 -7.1718,-38.04 L-7.1718,-32.5651 A5.05761,5.05761 0 0 0 -7.1365,-31.9688 A3.27904,3.27904 0 0 0 -7.045,-31.4967 A2.6156,2.6156 0 0 0 -6.832,-30.9572 A1.90906,1.90906 0 0 0 -6.5452,-30.5532 A2.12309,2.12309 0 0 0 -4.9126,-29.8771 A2.08395,2.08395 0 0 0 -3.2965,-30.545 A1.92342,1.92342 0 0 0 -2.8753,-31.2861 A4.42322,4.42322 0 0 0 -2.6863,-32.5651 L-2.6863,-45.6092 A4.18957,4.18957 0 0 0 -2.8668,-46.8256 A1.86255,1.86255 0 0 0 -3.2718,-47.5386 A1.94751,1.94751 0 0 0 -4.7807,-48.1818 A1.96409,1.96409 0 0 0 -6.306,-47.5139 A2.02649,2.02649 0 0 0 -6.7299,-46.7776 A3.70876,3.70876 0 0 0 -6.908,-45.6422"
       style="stroke:#000000;stroke-width:0.25;"
       id="path1062" />
    <!-- Polylinie -->
    <path
       d="M2.0432,-30.2729 L2.5379,-30.2729 L2.5379,-27.5684 A19.4591,19.4591 0 0 0 2.5956,-25.8616 A2.52063,2.52063 0 0 0 2.9172,-24.7979 A2.02894,2.02894 0 0 0 3.6758,-24.0476 A2.15221,2.15221 0 0 0 4.7807,-23.759 A2.2233,2.2233 0 0 0 6.3308,-24.4022 A1.90499,1.90499 0 0 0 6.9162,-25.4493 A9.5127,9.5127 0 0 0 7.0399,-27.2056 L7.0399,-30.2729 L8.6889,-30.2729 A3.04561,3.04561 0 0 0 9.5927,-30.41 A1.49016,1.49016 0 0 0 10.1484,-30.7264 A1.49491,1.49491 0 0 0 10.6513,-31.8889 A1.95656,1.95656 0 0 0 10.6047,-32.3136 A1.2649,1.2649 0 0 0 10.4853,-32.6357 A1.14657,1.14657 0 0 0 10.2634,-32.9267 A1.39032,1.39032 0 0 0 9.934,-33.1587 A2.68554,2.68554 0 0 0 9.1893,-33.4068 A7.519,7.519 0 0 0 7.8809,-33.5215 L7.0399,-33.5215 L7.0399,-41.7999 A13.4335,13.4335 0 0 1 7.1141,-43.4242 A1.65389,1.65389 0 0 1 7.5099,-44.3477 A0.88309,0.88309 0 0 1 7.8808,-44.5908 A2.10866,2.10866 0 0 1 8.557,-44.7022 A5.59942,5.59942 0 0 1 9.6289,-44.562 A5.56561,5.56561 0 0 0 10.6843,-44.4219 A1.35642,1.35642 0 0 0 11.6655,-44.8589 A1.46729,1.46729 0 0 0 12.1025,-45.939 A1.74408,1.74408 0 0 0 12.0144,-46.4864 A1.56262,1.56262 0 0 0 11.7684,-46.9499 A1.8307,1.8307 0 0 0 11.4329,-47.2847 A3.01734,3.01734 0 0 0 10.9152,-47.6046 A4.54579,4.54579 0 0 0 9.6857,-47.9984 A13.1004,13.1004 0 0 0 7.5016,-48.1818 A11.2294,11.2294 0 0 0 6.5809,-48.1439 A7.20763,7.20763 0 0 0 5.8492,-48.0458 A5.51804,5.51804 0 0 0 4.9445,-47.7957 A3.23612,3.23612 0 0 0 4.3024,-47.4727 A3.29083,3.29083 0 0 0 2.876,-45.5103 A7.92209,7.92209 0 0 0 2.6427,-44.2431 A20.7062,20.7062 0 0 0 2.5379,-42.1627 L2.5379,-33.5215 L1.9443,-33.5215 A3.09428,3.09428 0 0 0 1.025,-33.3818 A1.51374,1.51374 0 0 0 0.4601,-33.0598 A1.50895,1.50895 0 0 0 -0.0511,-31.8889 A1.45435,1.45435 0 0 0 0.4848,-30.7264 A1.60066,1.60066 0 0 0 1.0715,-30.4114 A3.47758,3.47758 0 0 0 2.0432,-30.2729"
       style="stroke:#000000;stroke-width:0.25;"
       id="path1064" />
    <!-- Polylinie -->
    <path
       d="M26.3142,-40.1343 L17.5082,-40.1343 A5.97844,5.97844 0 0 1 18.1266,-42.8388 A4.24586,4.24586 0 0 1 19.7262,-44.6033 A4.2249,4.2249 0 0 1 21.9277,-45.1969 A5.39335,5.39335 0 0 1 23.4036,-45.0073 A4.80734,4.80734 0 0 1 24.6981,-44.4136 A9.87467,9.87467 0 0 1 25.8525,-43.5479 A53.5988,53.5988 0 0 1 27.2212,-42.2946 A1.47721,1.47721 0 0 0 28.2106,-41.9977 A1.62982,1.62982 0 0 0 29.332,-42.377 A1.35583,1.35583 0 0 0 29.7608,-43.4489 A2.92843,2.92843 0 0 0 29.2825,-44.8754 A5.66126,5.66126 0 0 0 27.8396,-46.442 A8.21824,8.21824 0 0 0 25.4155,-47.687 A10.4408,10.4408 0 0 0 22.0596,-48.1818 A13.6095,13.6095 0 0 0 20.0531,-48.033 A9.47792,9.47792 0 0 0 18.4209,-47.6394 A8.18973,8.18973 0 0 0 16.7143,-46.8342 A7.42118,7.42118 0 0 0 15.3149,-45.7082 A7.80995,7.80995 0 0 0 14.2222,-44.2917 A8.45741,8.45741 0 0 0 13.4426,-42.6011 A9.62604,9.62604 0 0 0 13.0531,-40.9713 A13.4423,13.4423 0 0 0 12.9073,-38.9964 A11.1964,11.1964 0 0 0 13.5009,-35.2943 A8.16226,8.16226 0 0 0 15.2325,-32.3672 A7.50835,7.50835 0 0 0 18.0359,-30.4955 A10.0632,10.0632 0 0 0 21.7298,-29.8441 A10.6961,10.6961 0 0 0 24.2839,-30.1535 A7.33162,7.33162 0 0 0 26.2565,-30.9572 A7.32234,7.32234 0 0 0 29.0846,-33.8348 A7.56651,7.56651 0 0 0 30.0246,-37.4298 A5.01486,5.01486 0 0 0 29.9715,-38.1578 A2.71644,2.71644 0 0 0 29.8413,-38.679 A1.94181,1.94181 0 0 0 29.5079,-39.2641 A1.46906,1.46906 0 0 0 29.0517,-39.6313 A3.63077,3.63077 0 0 0 28.0405,-39.977 A9.55264,9.55264 0 0 0 26.3142,-40.1343"
       style="stroke:#000000;stroke-width:0.25;"
       id="path1066" />
    <!-- Polylinie -->
    <path
       d="M17.5082,-37.5782 L25.6711,-37.5782 A9.61185,9.61185 0 0 1 25.5421,-36.5525 A6.3134,6.3134 0 0 1 25.3386,-35.7398 A5.03486,5.03486 0 0 1 24.9307,-34.8086 A3.52785,3.52785 0 0 1 24.426,-34.1234 A3.63106,3.63106 0 0 1 23.8184,-33.6065 A3.45586,3.45586 0 0 1 23.1288,-33.2457 A3.72199,3.72199 0 0 1 22.4217,-33.0497 A4.91776,4.91776 0 0 1 21.5814,-32.9773 A3.60318,3.60318 0 0 1 18.8192,-34.1399 A3.80765,3.80765 0 0 1 18.3111,-34.8279 A5.34276,5.34276 0 0 1 17.8901,-35.7493 A6.60064,6.60064 0 0 1 17.6654,-36.5619 A9.82248,9.82248 0 0 1 17.5082,-37.5782"
       style="stroke:#000000;stroke-width:0.25;"
       id="path1068" />
    <!-- Polylinie -->
    <path
       d="M38.2858,-41.6844 L38.2858,-45.4443 A5.16737,5.16737 0 0 0 38.2497,-46.0541 A3.3311,3.3311 0 0 0 38.1561,-46.5355 A2.64582,2.64582 0 0 0 37.9372,-47.0869 A1.91924,1.91924 0 0 0 37.6427,-47.4974 A2.14324,2.14324 0 0 0 36.0101,-48.1818 A2.06125,2.06125 0 0 0 34.4105,-47.4891 A2.02794,2.02794 0 0 0 33.9753,-46.7228 A4.36333,4.36333 0 0 0 33.7838,-45.4443 L33.7838,-32.9114 A6.52815,6.52815 0 0 0 33.9124,-31.6222 A2.68658,2.68658 0 0 0 34.2006,-30.8426 A1.99456,1.99456 0 0 0 34.5356,-30.4008 A1.6698,1.6698 0 0 0 34.9456,-30.1019 A1.82384,1.82384 0 0 0 35.3953,-29.9397 A2.73184,2.73184 0 0 0 35.9771,-29.8771 A3.08329,3.08329 0 0 0 36.487,-29.9195 A1.95211,1.95211 0 0 0 36.8794,-30.0284 A1.62143,1.62143 0 0 0 37.2837,-30.2595 A1.51415,1.51415 0 0 0 37.5932,-30.5862 A2.3629,2.3629 0 0 0 37.9423,-31.3439 A6.19353,6.19353 0 0 0 38.1374,-32.6805 A7.87931,7.87931 0 0 0 39.7947,-30.5862 A2.69732,2.69732 0 0 0 40.7184,-30.0823 A4.50222,4.50222 0 0 0 42.0622,-29.8771 A5.80395,5.80395 0 0 0 44.8161,-30.5862 A3.76448,3.76448 0 0 0 45.3904,-30.9619 A2.24003,2.24003 0 0 0 45.7634,-31.3375 A1.83127,1.83127 0 0 0 46.052,-31.8691 A1.83426,1.83426 0 0 0 46.1519,-32.4661 A1.78813,1.78813 0 0 0 45.5829,-33.8266 A1.76508,1.76508 0 0 0 44.3544,-34.3625 A5.65999,5.65999 0 0 0 43.1588,-34.0575 A5.55911,5.55911 0 0 1 41.485,-33.7524 A2.44824,2.44824 0 0 1 39.8689,-34.2719 A3.33299,3.33299 0 0 1 38.896,-35.8137 A10.7623,10.7623 0 0 1 38.4177,-38.2461 A37.7771,37.7771 0 0 1 38.2858,-41.6844"
       style="stroke:#000000;stroke-width:0.25;"
       id="path1070" />
    <!-- Polylinie -->
    <path
       d="M-35.2601,-78.7707 A6.44469,6.44469 0 0 0 -35.829,-81.269 A9.01206,9.01206 0 0 0 -37.6183,-83.9075 A9.12915,9.12915 0 0 0 -40.735,-86.0101 A11.2038,11.2038 0 0 0 -45.1545,-86.8181 A15.4439,15.4439 0 0 0 -48.634,-86.4553 A9.77435,9.77435 0 0 0 -51.4787,-85.3257 A9.59701,9.59701 0 0 0 -53.8286,-83.3056 A12.0047,12.0047 0 0 0 -55.4612,-80.7578 A13.2849,13.2849 0 0 0 -56.4754,-77.7483 A16.4041,16.4041 0 0 0 -56.8134,-74.3512 A15.0697,15.0697 0 0 0 -55.9642,-69.1236 A11.1503,11.1503 0 0 0 -53.5318,-65.1741 A10.6094,10.6094 0 0 0 -49.8214,-62.6758 A12.0144,12.0144 0 0 0 -45.2864,-61.8182 A11.3305,11.3305 0 0 0 -40.0589,-62.9891 A11.6469,11.6469 0 0 0 -37.9506,-64.3725 A7.79272,7.79272 0 0 0 -36.5464,-65.8832 A9.11831,9.11831 0 0 0 -36.0324,-66.6969 A6.36332,6.36332 0 0 0 -35.6846,-67.4218 A5.29856,5.29856 0 0 0 -35.4102,-68.3252 A3.98972,3.98972 0 0 0 -35.326,-69.1401 A2.12297,2.12297 0 0 0 -35.9197,-70.6243 A1.88212,1.88212 0 0 0 -37.3544,-71.2674 A2.94083,2.94083 0 0 0 -38.24,-71.1309 A1.35634,1.35634 0 0 0 -38.7644,-70.8222 A6.1664,6.1664 0 0 0 -39.8115,-69.2885 A9.60813,9.60813 0 0 1 -40.9273,-67.6332 A5.67835,5.67835 0 0 1 -42.0625,-66.6005 A4.60447,4.60447 0 0 1 -43.4344,-65.9591 A6.76728,6.76728 0 0 1 -45.2534,-65.71 A7.13556,7.13556 0 0 1 -46.7125,-65.8608 A5.5413,5.5413 0 0 1 -47.9383,-66.2709 A5.39976,5.39976 0 0 1 -49.0532,-66.973 A6.45189,6.45189 0 0 1 -50.0605,-68.0023 A6.7834,6.7834 0 0 1 -50.8763,-69.3421 A9.5738,9.5738 0 0 1 -51.4864,-71.103 A11.8944,11.8944 0 0 1 -51.7494,-72.6255 A17.8584,17.8584 0 0 1 -51.8497,-74.5161 A16.667,16.667 0 0 1 -51.6175,-77.2889 A8.59897,8.59897 0 0 1 -51.0582,-79.2077 A7.14593,7.14593 0 0 1 -50.0502,-80.8963 A5.07942,5.07942 0 0 1 -48.8154,-82.0029 A6.19067,6.19067 0 0 1 -45.4184,-82.9263 A7.1687,7.1687 0 0 1 -43.4008,-82.6366 A5.14923,5.14923 0 0 1 -41.8481,-81.8792 A5.31929,5.31929 0 0 1 -40.6238,-80.6535 A7.75659,7.75659 0 0 1 -39.6466,-78.8037 A5.21847,5.21847 0 0 0 -38.8715,-77.2453 A1.35181,1.35181 0 0 0 -38.5847,-76.968 A1.56127,1.56127 0 0 0 -38.2048,-76.7691 A1.91652,1.91652 0 0 0 -37.8485,-76.6786 A3.03351,3.03351 0 0 0 -37.3874,-76.6434 A2.07523,2.07523 0 0 0 -35.8867,-77.2535 A2.03177,2.03177 0 0 0 -35.2601,-78.7707"
       style="stroke:#000000;stroke-width:0.25;"
       id="path1072" />
    <!-- Polylinie -->
    <path
       d="M-14.3195,-77.6658 A10.6419,10.6419 0 0 0 -14.9462,-81.3762 A8.1933,8.1933 0 0 0 -16.7602,-84.2951 A8.00911,8.00911 0 0 0 -19.5966,-86.1668 A10.0282,10.0282 0 0 0 -23.307,-86.8181 A9.74192,9.74192 0 0 0 -26.9844,-86.1585 A8.16638,8.16638 0 0 0 -29.8125,-84.2703 A8.16386,8.16386 0 0 0 -31.6265,-81.368 A10.6117,10.6117 0 0 0 -32.2449,-77.6658 A10.7414,10.7414 0 0 0 -31.6183,-73.9224 A8.1458,8.1458 0 0 0 -29.8208,-71.0201 A7.92377,7.92377 0 0 0 -26.9844,-69.1649 A10.0158,10.0158 0 0 0 -23.307,-68.5135 A9.99814,9.99814 0 0 0 -19.5966,-69.1731 A8.07097,8.07097 0 0 0 -16.7437,-71.053 A8.12564,8.12564 0 0 0 -14.9379,-73.9554 A10.6809,10.6809 0 0 0 -14.3195,-77.6658"
       style="stroke:#000000;stroke-width:0.25;"
       id="path1074" />
    <!-- Polylinie -->
    <path
       d="M-18.838,-77.6658 A11.2469,11.2469 0 0 1 -18.9069,-76.4227 A7.61187,7.61187 0 0 1 -19.0883,-75.4146 A6.22627,6.22627 0 0 1 -19.498,-74.2686 A4.61259,4.61259 0 0 1 -20.0501,-73.3782 A3.93627,3.93627 0 0 1 -23.307,-71.8446 A4.03421,4.03421 0 0 1 -25.6322,-72.529 A4.33627,4.33627 0 0 1 -27.1823,-74.5491 A8.22215,8.22215 0 0 1 -27.7265,-77.6658 A8.1574,8.1574 0 0 1 -27.1905,-80.7496 A4.42198,4.42198 0 0 1 -25.6569,-82.7697 A3.98348,3.98348 0 0 1 -23.307,-83.4705 A3.92829,3.92829 0 0 1 -20.0501,-81.9287 A4.69554,4.69554 0 0 1 -19.4984,-81.0377 A6.209,6.209 0 0 1 -19.0905,-79.904 A7.52361,7.52361 0 0 1 -18.9073,-78.899 A11.0012,11.0012 0 0 1 -18.838,-77.6658"
       style="stroke:#000000;stroke-width:0.25;"
       id="path1076" />
    <!-- Polylinie -->
    <path
       d="M-6.3084,-80.3208 L-6.3084,-84.0807 A5.16737,5.16737 0 0 0 -6.3445,-84.6905 A3.3311,3.3311 0 0 0 -6.438,-85.1719 A2.64582,2.64582 0 0 0 -6.657,-85.7233 A1.91924,1.91924 0 0 0 -6.9515,-86.1338 A2.14324,2.14324 0 0 0 -8.5841,-86.8181 A2.06125,2.06125 0 0 0 -10.1837,-86.1255 A2.02794,2.02794 0 0 0 -10.6188,-85.3592 A4.36333,4.36333 0 0 0 -10.8103,-84.0807 L-10.8103,-71.5478 A6.52815,6.52815 0 0 0 -10.6817,-70.2585 A2.68658,2.68658 0 0 0 -10.3935,-69.479 A1.99456,1.99456 0 0 0 -10.0585,-69.0372 A1.6698,1.6698 0 0 0 -9.6486,-68.7383 A1.82384,1.82384 0 0 0 -9.1988,-68.5761 A2.73184,2.73184 0 0 0 -8.617,-68.5135 A3.08329,3.08329 0 0 0 -8.1071,-68.5559 A1.95211,1.95211 0 0 0 -7.7148,-68.6648 A1.62143,1.62143 0 0 0 -7.3104,-68.8959 A1.51415,1.51415 0 0 0 -7.001,-69.2226 A2.3629,2.3629 0 0 0 -6.6519,-69.9803 A6.19353,6.19353 0 0 0 -6.4568,-71.3169 A7.87931,7.87931 0 0 0 -4.7995,-69.2226 A2.69732,2.69732 0 0 0 -3.8758,-68.7187 A4.50222,4.50222 0 0 0 -2.532,-68.5135 A5.80395,5.80395 0 0 0 0.222,-69.2226 A3.76448,3.76448 0 0 0 0.7963,-69.5983 A2.24003,2.24003 0 0 0 1.1692,-69.9739 A1.83127,1.83127 0 0 0 1.4578,-70.5055 A1.83426,1.83426 0 0 0 1.5577,-71.1025 A1.78813,1.78813 0 0 0 0.9888,-72.463 A1.76508,1.76508 0 0 0 -0.2398,-72.9989 A5.65999,5.65999 0 0 0 -1.4354,-72.6939 A5.55911,5.55911 0 0 1 -3.1092,-72.3888 A2.44824,2.44824 0 0 1 -4.7252,-72.9082 A3.33299,3.33299 0 0 1 -5.6982,-74.4501 A10.7623,10.7623 0 0 1 -6.1764,-76.8825 A37.7771,37.7771 0 0 1 -6.3084,-80.3208"
       style="stroke:#000000;stroke-width:0.25;"
       id="path1078" />
    <!-- Polylinie -->
    <path
       d="M8.1039,-71.0036 L8.1039,-71.5478 A7.87942,7.87942 0 0 0 10.7011,-69.2473 A6.91782,6.91782 0 0 0 13.9416,-68.5135 A6.46634,6.46634 0 0 0 17.1243,-69.2885 A4.92446,4.92446 0 0 0 19.2186,-71.4818 A5.21584,5.21584 0 0 0 19.7958,-73.2628 A18.4534,18.4534 0 0 0 19.9277,-75.7034 L19.9277,-84.0807 A4.42191,4.42191 0 0 0 19.7384,-85.3607 A2.03118,2.03118 0 0 0 19.3093,-86.1255 A2.05461,2.05461 0 0 0 17.7014,-86.8181 A2.07596,2.07596 0 0 0 16.0689,-86.109 A2.12634,2.12634 0 0 0 15.6306,-85.3286 A4.22778,4.22778 0 0 0 15.4422,-84.0807 L15.4422,-76.5774 A12.1893,12.1893 0 0 1 15.2461,-74.3995 A4.29471,4.29471 0 0 1 14.8238,-73.1721 A1.95886,1.95886 0 0 1 14.3944,-72.6214 A2.16894,2.16894 0 0 1 13.7715,-72.2316 A2.80081,2.80081 0 0 1 13.1758,-72.0615 A4.90918,4.90918 0 0 1 12.3585,-71.993 A3.65086,3.65086 0 0 1 10.1652,-72.7104 A4.12261,4.12261 0 0 1 8.714,-74.681 A3.79331,3.79331 0 0 1 8.5669,-75.3021 A14.6025,14.6025 0 0 1 8.4351,-76.5476 A22.7758,22.7758 0 0 1 8.3987,-77.3599 A40.2569,40.2569 0 0 1 8.3842,-78.4409 L8.3842,-84.0807 A5.23561,5.23561 0 0 0 8.3487,-84.6897 A3.37142,3.37142 0 0 0 8.2566,-85.1705 A2.67089,2.67089 0 0 0 8.04,-85.7234 A1.91624,1.91624 0 0 0 7.7493,-86.1338 A2.13646,2.13646 0 0 0 6.1085,-86.8181 A2.03956,2.03956 0 0 0 4.5089,-86.109 A2.12634,2.12634 0 0 0 4.0706,-85.3286 A4.22778,4.22778 0 0 0 3.8822,-84.0807 L3.8822,-71.0695 A4.35568,4.35568 0 0 0 4.0567,-69.8492 A1.83581,1.83581 0 0 0 4.4429,-69.1484 A1.94095,1.94095 0 0 0 5.9766,-68.5135 A2.0799,2.0799 0 0 0 7.0485,-68.7938 A2.00731,2.00731 0 0 0 7.8153,-69.6348 A2.9639,2.9639 0 0 0 8.1039,-71.0036"
       style="stroke:#000000;stroke-width:0.25;"
       id="path1080" />
    <!-- Polylinie -->
    <path
       d="M36.9758,-78.7707 L28.1697,-78.7707 A5.97844,5.97844 0 0 1 28.7881,-81.4752 A4.24586,4.24586 0 0 1 30.3877,-83.2397 A4.2249,4.2249 0 0 1 32.5892,-83.8333 A5.39335,5.39335 0 0 1 34.0652,-83.6437 A4.80734,4.80734 0 0 1 35.3597,-83.05 A9.87467,9.87467 0 0 1 36.514,-82.1843 A53.5988,53.5988 0 0 1 37.8828,-80.931 A1.47721,1.47721 0 0 0 38.8722,-80.6341 A1.62982,1.62982 0 0 0 39.9936,-81.0134 A1.35583,1.35583 0 0 0 40.4223,-82.0853 A2.92843,2.92843 0 0 0 39.9441,-83.5118 A5.66126,5.66126 0 0 0 38.5012,-85.0784 A8.21824,8.21824 0 0 0 36.077,-86.3234 A10.4408,10.4408 0 0 0 32.7212,-86.8181 A13.6095,13.6095 0 0 0 30.7147,-86.6694 A9.47792,9.47792 0 0 0 29.0825,-86.2758 A8.18973,8.18973 0 0 0 27.3759,-85.4706 A7.42118,7.42118 0 0 0 25.9765,-84.3445 A7.80995,7.80995 0 0 0 24.8837,-82.9281 A8.45741,8.45741 0 0 0 24.1042,-81.2375 A9.62604,9.62604 0 0 0 23.7147,-79.6077 A13.4423,13.4423 0 0 0 23.5688,-77.6328 A11.1964,11.1964 0 0 0 24.1625,-73.9307 A8.16226,8.16226 0 0 0 25.894,-71.0036 A7.50835,7.50835 0 0 0 28.6974,-69.1319 A10.0632,10.0632 0 0 0 32.3914,-68.4805 A10.6961,10.6961 0 0 0 34.9455,-68.7899 A7.33162,7.33162 0 0 0 36.9181,-69.5936 A7.32234,7.32234 0 0 0 39.7462,-72.4712 A7.56651,7.56651 0 0 0 40.6862,-76.0662 A5.01486,5.01486 0 0 0 40.6331,-76.7942 A2.71644,2.71644 0 0 0 40.5029,-77.3154 A1.94181,1.94181 0 0 0 40.1695,-77.9004 A1.46906,1.46906 0 0 0 39.7132,-78.2677 A3.63077,3.63077 0 0 0 38.702,-78.6134 A9.55264,9.55264 0 0 0 36.9758,-78.7707"
       style="stroke:#000000;stroke-width:0.25;"
       id="path1082" />
    <!-- Polylinie -->
    <path
       d="M28.1697,-76.2146 L36.3326,-76.2146 A9.61185,9.61185 0 0 1 36.2036,-75.1889 A6.3134,6.3134 0 0 1 36.0002,-74.3762 A5.03486,5.03486 0 0 1 35.5923,-73.445 A3.52785,3.52785 0 0 1 35.0876,-72.7598 A3.63106,3.63106 0 0 1 34.48,-72.2429 A3.45586,3.45586 0 0 1 33.7904,-71.8821 A3.72199,3.72199 0 0 1 33.0833,-71.686 A4.91776,4.91776 0 0 1 32.2429,-71.6137 A3.60318,3.60318 0 0 1 29.4808,-72.7763 A3.80765,3.80765 0 0 1 28.9727,-73.4643 A5.34276,5.34276 0 0 1 28.5516,-74.3857 A6.60064,6.60064 0 0 1 28.327,-75.1983 A9.82248,9.82248 0 0 1 28.1697,-76.2146"
       style="stroke:#000000;stroke-width:0.25;"
       id="path1084" />
    <!-- Polylinie -->
    <path
       d="M48.9474,-80.3208 L48.9474,-84.0807 A5.16737,5.16737 0 0 0 48.9113,-84.6905 A3.3311,3.3311 0 0 0 48.8177,-85.1719 A2.64582,2.64582 0 0 0 48.5988,-85.7233 A1.91924,1.91924 0 0 0 48.3042,-86.1338 A2.14324,2.14324 0 0 0 46.6716,-86.8181 A2.06125,2.06125 0 0 0 45.072,-86.1255 A2.02794,2.02794 0 0 0 44.6369,-85.3592 A4.36333,4.36333 0 0 0 44.4454,-84.0807 L44.4454,-71.5478 A6.52815,6.52815 0 0 0 44.574,-70.2585 A2.68658,2.68658 0 0 0 44.8622,-69.479 A1.99456,1.99456 0 0 0 45.1972,-69.0372 A1.6698,1.6698 0 0 0 45.6071,-68.7383 A1.82384,1.82384 0 0 0 46.0569,-68.5761 A2.73184,2.73184 0 0 0 46.6387,-68.5135 A3.08329,3.08329 0 0 0 47.1486,-68.5559 A1.95211,1.95211 0 0 0 47.541,-68.6648 A1.62143,1.62143 0 0 0 47.9453,-68.8959 A1.51415,1.51415 0 0 0 48.2548,-69.2226 A2.3629,2.3629 0 0 0 48.6038,-69.9803 A6.19353,6.19353 0 0 0 48.7989,-71.3169 A7.87931,7.87931 0 0 0 50.4563,-69.2226 A2.69732,2.69732 0 0 0 51.3799,-68.7187 A4.50222,4.50222 0 0 0 52.7237,-68.5135 A5.80395,5.80395 0 0 0 55.4777,-69.2226 A3.76448,3.76448 0 0 0 56.052,-69.5983 A2.24003,2.24003 0 0 0 56.4249,-69.9739 A1.83127,1.83127 0 0 0 56.7135,-70.5055 A1.83426,1.83426 0 0 0 56.8134,-71.1025 A1.78813,1.78813 0 0 0 56.2445,-72.463 A1.76508,1.76508 0 0 0 55.0159,-72.9989 A5.65999,5.65999 0 0 0 53.8204,-72.6939 A5.55911,5.55911 0 0 1 52.1466,-72.3888 A2.44824,2.44824 0 0 1 50.5305,-72.9082 A3.33299,3.33299 0 0 1 49.5575,-74.4501 A10.7623,10.7623 0 0 1 49.0793,-76.8825 A37.7771,37.7771 0 0 1 48.9474,-80.3208"
       style="stroke:#000000;stroke-width:0.25;"
       id="path1086" />
    <!-- Schraffur -->
    <path
       d="M-6.908,-45.6422 L-6.908,-45.065 A10.0454,10.0454 0 0 0 -8.6065,-46.78 A6.25714,6.25714 0 0 0 -10.5524,-47.8107 A7.88636,7.88636 0 0 0 -12.96,-48.1488 A6.22736,6.22736 0 0 0 -15.8871,-47.4727 A4.93824,4.93824 0 0 0 -17.8908,-45.6092 A4.53048,4.53048 0 0 0 -18.2733,-44.7717 A7.74312,7.74312 0 0 0 -18.5697,-43.605 A10.0354,10.0354 0 0 0 -18.6869,-42.6627 A15.4181,15.4181 0 0 0 -18.7318,-41.4865 L-18.7318,-32.5651 A4.42322,4.42322 0 0 0 -18.5429,-31.2861 A1.92342,1.92342 0 0 0 -18.1216,-30.545 A2.08395,2.08395 0 0 0 -16.5055,-29.8771 A2.1427,2.1427 0 0 0 -14.8565,-30.5532 A1.90907,1.90907 0 0 0 -14.5696,-30.9573 A2.61582,2.61582 0 0 0 -14.3566,-31.4969 A3.27939,3.27939 0 0 0 -14.2651,-31.9689 A5.05774,5.05774 0 0 0 -14.2298,-32.5651 L-14.2298,-39.7715 A11.1221,11.1221 0 0 1 -13.966,-42.4018 A3.15926,3.15926 0 0 1 -13.0178,-44.0673 A2.1326,2.1326 0 0 1 -12.2675,-44.4945 A3.58034,3.58034 0 0 1 -11.1626,-44.6692 A3.77556,3.77556 0 0 1 -9.0188,-43.9931 A3.94682,3.94682 0 0 1 -7.5511,-42.2286 A2.86175,2.86175 0 0 1 -7.384,-41.6166 A15.4696,15.4696 0 0 1 -7.2255,-40.1501 A25.9118,25.9118 0 0 1 -7.1873,-39.2556 A47.788,47.788 0 0 1 -7.1718,-38.04 L-7.1718,-32.5651 A5.05761,5.05761 0 0 0 -7.1365,-31.9688 A3.27904,3.27904 0 0 0 -7.045,-31.4967 A2.6156,2.6156 0 0 0 -6.832,-30.9572 A1.90906,1.90906 0 0 0 -6.5452,-30.5532 A2.12309,2.12309 0 0 0 -4.9126,-29.8771 A2.08395,2.08395 0 0 0 -3.2965,-30.545 A1.92342,1.92342 0 0 0 -2.8753,-31.2861 A4.42322,4.42322 0 0 0 -2.6863,-32.5651 L-2.6863,-45.6092 A4.18957,4.18957 0 0 0 -2.8668,-46.8256 A1.86255,1.86255 0 0 0 -3.2718,-47.5386 A1.94751,1.94751 0 0 0 -4.7807,-48.1818 A1.96409,1.96409 0 0 0 -6.306,-47.5139 A2.02649,2.02649 0 0 0 -6.7299,-46.7776 A3.70876,3.70876 0 0 0 -6.908,-45.6422M2.0432,-30.2729 L2.5379,-30.2729 L2.5379,-27.5684 A19.4591,19.4591 0 0 0 2.5956,-25.8616 A2.52063,2.52063 0 0 0 2.9172,-24.7979 A2.02894,2.02894 0 0 0 3.6758,-24.0476 A2.15221,2.15221 0 0 0 4.7807,-23.759 A2.2233,2.2233 0 0 0 6.3308,-24.4022 A1.90499,1.90499 0 0 0 6.9162,-25.4493 A9.5127,9.5127 0 0 0 7.0399,-27.2056 L7.0399,-30.2729 L8.6889,-30.2729 A3.04561,3.04561 0 0 0 9.5927,-30.41 A1.49016,1.49016 0 0 0 10.1484,-30.7264 A1.49491,1.49491 0 0 0 10.6513,-31.8889 A1.95656,1.95656 0 0 0 10.6047,-32.3136 A1.2649,1.2649 0 0 0 10.4853,-32.6357 A1.14657,1.14657 0 0 0 10.2634,-32.9267 A1.39032,1.39032 0 0 0 9.934,-33.1587 A2.68554,2.68554 0 0 0 9.1893,-33.4068 A7.519,7.519 0 0 0 7.8809,-33.5215 L7.0399,-33.5215 L7.0399,-41.7999 A13.4335,13.4335 0 0 1 7.1141,-43.4242 A1.65389,1.65389 0 0 1 7.5099,-44.3477 A0.88309,0.88309 0 0 1 7.8808,-44.5908 A2.10866,2.10866 0 0 1 8.557,-44.7022 A5.59942,5.59942 0 0 1 9.6289,-44.562 A5.56561,5.56561 0 0 0 10.6843,-44.4219 A1.35642,1.35642 0 0 0 11.6655,-44.8589 A1.46729,1.46729 0 0 0 12.1025,-45.939 A1.74408,1.74408 0 0 0 12.0144,-46.4864 A1.56262,1.56262 0 0 0 11.7684,-46.9499 A1.8307,1.8307 0 0 0 11.4329,-47.2847 A3.01734,3.01734 0 0 0 10.9152,-47.6046 A4.54579,4.54579 0 0 0 9.6857,-47.9984 A13.1004,13.1004 0 0 0 7.5016,-48.1818 A11.2294,11.2294 0 0 0 6.5809,-48.1439 A7.20763,7.20763 0 0 0 5.8492,-48.0458 A5.51804,5.51804 0 0 0 4.9445,-47.7957 A3.23612,3.23612 0 0 0 4.3024,-47.4727 A3.29083,3.29083 0 0 0 2.876,-45.5103 A7.92209,7.92209 0 0 0 2.6427,-44.2431 A20.7062,20.7062 0 0 0 2.5379,-42.1627 L2.5379,-33.5215 L1.9443,-33.5215 A3.09428,3.09428 0 0 0 1.025,-33.3818 A1.51374,1.51374 0 0 0 0.4601,-33.0598 A1.50895,1.50895 0 0 0 -0.0511,-31.8889 A1.45435,1.45435 0 0 0 0.4848,-30.7264 A1.60066,1.60066 0 0 0 1.0715,-30.4114 A3.47758,3.47758 0 0 0 2.0432,-30.2729M36.9758,-78.7707 L28.1697,-78.7707 A5.97844,5.97844 0 0 1 28.7881,-81.4752 A4.24586,4.24586 0 0 1 30.3877,-83.2397 A4.2249,4.2249 0 0 1 32.5892,-83.8333 A5.39335,5.39335 0 0 1 34.0652,-83.6437 A4.80734,4.80734 0 0 1 35.3597,-83.05 A9.87467,9.87467 0 0 1 36.514,-82.1843 A53.5988,53.5988 0 0 1 37.8828,-80.931 A1.47721,1.47721 0 0 0 38.8722,-80.6341 A1.62982,1.62982 0 0 0 39.9936,-81.0134 A1.35583,1.35583 0 0 0 40.4223,-82.0853 A2.92843,2.92843 0 0 0 39.9441,-83.5118 A5.66126,5.66126 0 0 0 38.5012,-85.0784 A8.21824,8.21824 0 0 0 36.077,-86.3234 A10.4408,10.4408 0 0 0 32.7212,-86.8181 A13.6095,13.6095 0 0 0 30.7147,-86.6694 A9.47792,9.47792 0 0 0 29.0825,-86.2758 A8.18973,8.18973 0 0 0 27.3759,-85.4706 A7.42118,7.42118 0 0 0 25.9765,-84.3445 A7.80995,7.80995 0 0 0 24.8837,-82.9281 A8.45741,8.45741 0 0 0 24.1042,-81.2375 A9.62604,9.62604 0 0 0 23.7147,-79.6077 A13.4423,13.4423 0 0 0 23.5688,-77.6328 A11.1964,11.1964 0 0 0 24.1625,-73.9307 A8.16226,8.16226 0 0 0 25.894,-71.0036 A7.50835,7.50835 0 0 0 28.6974,-69.1319 A10.0632,10.0632 0 0 0 32.3914,-68.4805 A10.6961,10.6961 0 0 0 34.9455,-68.7899 A7.33162,7.33162 0 0 0 36.9181,-69.5936 A7.32234,7.32234 0 0 0 39.7462,-72.4712 A7.56651,7.56651 0 0 0 40.6862,-76.0662 A5.01486,5.01486 0 0 0 40.6331,-76.7942 A2.71644,2.71644 0 0 0 40.5029,-77.3154 A1.94181,1.94181 0 0 0 40.1695,-77.9004 A1.46906,1.46906 0 0 0 39.7132,-78.2677 A3.63077,3.63077 0 0 0 38.702,-78.6134 A9.55264,9.55264 0 0 0 36.9758,-78.7707M28.1697,-76.2146 L36.3326,-76.2146 A9.61185,9.61185 0 0 1 36.2036,-75.1889 A6.3134,6.3134 0 0 1 36.0002,-74.3762 A5.03486,5.03486 0 0 1 35.5923,-73.445 A3.52785,3.52785 0 0 1 35.0876,-72.7598 A3.63106,3.63106 0 0 1 34.48,-72.2429 A3.45586,3.45586 0 0 1 33.7904,-71.8821 A3.72199,3.72199 0 0 1 33.0833,-71.686 A4.91776,4.91776 0 0 1 32.2429,-71.6137 A3.60318,3.60318 0 0 1 29.4808,-72.7763 A3.80765,3.80765 0 0 1 28.9727,-73.4643 A5.34276,5.34276 0 0 1 28.5516,-74.3857 A6.60064,6.60064 0 0 1 28.327,-75.1983 A9.82248,9.82248 0 0 1 28.1697,-76.2146M48.9474,-80.3208 L48.9474,-84.0807 A5.16737,5.16737 0 0 0 48.9113,-84.6905 A3.3311,3.3311 0 0 0 48.8177,-85.1719 A2.64582,2.64582 0 0 0 48.5988,-85.7233 A1.91924,1.91924 0 0 0 48.3042,-86.1338 A2.14324,2.14324 0 0 0 46.6716,-86.8181 A2.06125,2.06125 0 0 0 45.072,-86.1255 A2.02794,2.02794 0 0 0 44.6369,-85.3592 A4.36333,4.36333 0 0 0 44.4454,-84.0807 L44.4454,-71.5478 A6.52815,6.52815 0 0 0 44.574,-70.2585 A2.68658,2.68658 0 0 0 44.8622,-69.479 A1.99456,1.99456 0 0 0 45.1972,-69.0372 A1.6698,1.6698 0 0 0 45.6071,-68.7383 A1.82384,1.82384 0 0 0 46.0569,-68.5761 A2.73184,2.73184 0 0 0 46.6387,-68.5135 A3.08329,3.08329 0 0 0 47.1486,-68.5559 A1.95211,1.95211 0 0 0 47.541,-68.6648 A1.62143,1.62143 0 0 0 47.9453,-68.8959 A1.51415,1.51415 0 0 0 48.2548,-69.2226 A2.3629,2.3629 0 0 0 48.6038,-69.9803 A6.19353,6.19353 0 0 0 48.7989,-71.3169 A7.87931,7.87931 0 0 0 50.4563,-69.2226 A2.69732,2.69732 0 0 0 51.3799,-68.7187 A4.50222,4.50222 0 0 0 52.7237,-68.5135 A5.80395,5.80395 0 0 0 55.4777,-69.2226 A3.76448,3.76448 0 0 0 56.052,-69.5983 A2.24003,2.24003 0 0 0 56.4249,-69.9739 A1.83127,1.83127 0 0 0 56.7135,-70.5055 A1.83426,1.83426 0 0 0 56.8134,-71.1025 A1.78813,1.78813 0 0 0 56.2445,-72.463 A1.76508,1.76508 0 0 0 55.0159,-72.9989 A5.65999,5.65999 0 0 0 53.8204,-72.6939 A5.55911,5.55911 0 0 1 52.1466,-72.3888 A2.44824,2.44824 0 0 1 50.5305,-72.9082 A3.33299,3.33299 0 0 1 49.5575,-74.4501 A10.7623,10.7623 0 0 1 49.0793,-76.8825 A37.7771,37.7771 0 0 1 48.9474,-80.3208M-14.3195,-77.6658 A10.6419,10.6419 0 0 0 -14.9462,-81.3762 A8.1933,8.1933 0 0 0 -16.7602,-84.2951 A8.00911,8.00911 0 0 0 -19.5966,-86.1668 A10.0282,10.0282 0 0 0 -23.307,-86.8181 A9.74192,9.74192 0 0 0 -26.9844,-86.1585 A8.16638,8.16638 0 0 0 -29.8125,-84.2703 A8.16386,8.16386 0 0 0 -31.6265,-81.368 A10.6117,10.6117 0 0 0 -32.2449,-77.6658 A10.7414,10.7414 0 0 0 -31.6183,-73.9224 A8.1458,8.1458 0 0 0 -29.8208,-71.0201 A7.92377,7.92377 0 0 0 -26.9844,-69.1649 A10.0158,10.0158 0 0 0 -23.307,-68.5135 A9.99814,9.99814 0 0 0 -19.5966,-69.1731 A8.07097,8.07097 0 0 0 -16.7437,-71.053 A8.12564,8.12564 0 0 0 -14.9379,-73.9554 A10.6809,10.6809 0 0 0 -14.3195,-77.6658M-18.838,-77.6658 A11.2469,11.2469 0 0 1 -18.9069,-76.4227 A7.61187,7.61187 0 0 1 -19.0883,-75.4146 A6.22627,6.22627 0 0 1 -19.498,-74.2686 A4.61259,4.61259 0 0 1 -20.0501,-73.3782 A3.93627,3.93627 0 0 1 -23.307,-71.8446 A4.03421,4.03421 0 0 1 -25.6322,-72.529 A4.33627,4.33627 0 0 1 -27.1823,-74.5491 A8.22215,8.22215 0 0 1 -27.7265,-77.6658 A8.1574,8.1574 0 0 1 -27.1905,-80.7496 A4.42198,4.42198 0 0 1 -25.6569,-82.7697 A3.98348,3.98348 0 0 1 -23.307,-83.4705 A3.92829,3.92829 0 0 1 -20.0501,-81.9287 A4.69554,4.69554 0 0 1 -19.4984,-81.0377 A6.209,6.209 0 0 1 -19.0905,-79.904 A7.52361,7.52361 0 0 1 -18.9073,-78.899 A11.0012,11.0012 0 0 1 -18.838,-77.6658M-6.3084,-80.3208 L-6.3084,-84.0807 A5.16737,5.16737 0 0 0 -6.3445,-84.6905 A3.3311,3.3311 0 0 0 -6.438,-85.1719 A2.64582,2.64582 0 0 0 -6.657,-85.7233 A1.91924,1.91924 0 0 0 -6.9515,-86.1338 A2.14324,2.14324 0 0 0 -8.5841,-86.8181 A2.06125,2.06125 0 0 0 -10.1837,-86.1255 A2.02794,2.02794 0 0 0 -10.6188,-85.3592 A4.36333,4.36333 0 0 0 -10.8103,-84.0807 L-10.8103,-71.5478 A6.52815,6.52815 0 0 0 -10.6817,-70.2585 A2.68658,2.68658 0 0 0 -10.3935,-69.479 A1.99456,1.99456 0 0 0 -10.0585,-69.0372 A1.6698,1.6698 0 0 0 -9.6486,-68.7383 A1.82384,1.82384 0 0 0 -9.1988,-68.5761 A2.73184,2.73184 0 0 0 -8.617,-68.5135 A3.08329,3.08329 0 0 0 -8.1071,-68.5559 A1.95211,1.95211 0 0 0 -7.7148,-68.6648 A1.62143,1.62143 0 0 0 -7.3104,-68.8959 A1.51415,1.51415 0 0 0 -7.001,-69.2226 A2.3629,2.3629 0 0 0 -6.6519,-69.9803 A6.19353,6.19353 0 0 0 -6.4568,-71.3169 A7.87931,7.87931 0 0 0 -4.7995,-69.2226 A2.69732,2.69732 0 0 0 -3.8758,-68.7187 A4.50222,4.50222 0 0 0 -2.532,-68.5135 A5.80395,5.80395 0 0 0 0.222,-69.2226 A3.76448,3.76448 0 0 0 0.7963,-69.5983 A2.24003,2.24003 0 0 0 1.1692,-69.9739 A1.83127,1.83127 0 0 0 1.4578,-70.5055 A1.83426,1.83426 0 0 0 1.5577,-71.1025 A1.78813,1.78813 0 0 0 0.9888,-72.463 A1.76508,1.76508 0 0 0 -0.2398,-72.9989 A5.65999,5.65999 0 0 0 -1.4354,-72.6939 A5.55911,5.55911 0 0 1 -3.1092,-72.3888 A2.44824,2.44824 0 0 1 -4.7252,-72.9082 A3.33299,3.33299 0 0 1 -5.6982,-74.4501 A10.7623,10.7623 0 0 1 -6.1764,-76.8825 A37.7771,37.7771 0 0 1 -6.3084,-80.3208M8.1039,-71.0036 L8.1039,-71.5478 A7.87942,7.87942 0 0 0 10.7011,-69.2473 A6.91782,6.91782 0 0 0 13.9416,-68.5135 A6.46634,6.46634 0 0 0 17.1243,-69.2885 A4.92446,4.92446 0 0 0 19.2186,-71.4818 A5.21584,5.21584 0 0 0 19.7958,-73.2628 A18.4534,18.4534 0 0 0 19.9277,-75.7034 L19.9277,-84.0807 A4.42191,4.42191 0 0 0 19.7384,-85.3607 A2.03118,2.03118 0 0 0 19.3093,-86.1255 A2.05461,2.05461 0 0 0 17.7014,-86.8181 A2.07596,2.07596 0 0 0 16.0689,-86.109 A2.12634,2.12634 0 0 0 15.6306,-85.3286 A4.22778,4.22778 0 0 0 15.4422,-84.0807 L15.4422,-76.5774 A12.1893,12.1893 0 0 1 15.2461,-74.3995 A4.29471,4.29471 0 0 1 14.8238,-73.1721 A1.95886,1.95886 0 0 1 14.3944,-72.6214 A2.16894,2.16894 0 0 1 13.7715,-72.2316 A2.80081,2.80081 0 0 1 13.1758,-72.0615 A4.90918,4.90918 0 0 1 12.3585,-71.993 A3.65086,3.65086 0 0 1 10.1652,-72.7104 A4.12261,4.12261 0 0 1 8.714,-74.681 A3.79331,3.79331 0 0 1 8.5669,-75.3021 A14.6025,14.6025 0 0 1 8.4351,-76.5476 A22.7758,22.7758 0 0 1 8.3987,-77.3599 A40.2569,40.2569 0 0 1 8.3842,-78.4409 L8.3842,-84.0807 A5.23561,5.23561 0 0 0 8.3487,-84.6897 A3.37142,3.37142 0 0 0 8.2566,-85.1705 A2.67089,2.67089 0 0 0 8.04,-85.7234 A1.91624,1.91624 0 0 0 7.7493,-86.1338 A2.13646,2.13646 0 0 0 6.1085,-86.8181 A2.03956,2.03956 0 0 0 4.5089,-86.109 A2.12634,2.12634 0 0 0 4.0706,-85.3286 A4.22778,4.22778 0 0 0 3.8822,-84.0807 L3.8822,-71.0695 A4.35568,4.35568 0 0 0 4.0567,-69.8492 A1.83581,1.83581 0 0 0 4.4429,-69.1484 A1.94095,1.94095 0 0 0 5.9766,-68.5135 A2.0799,2.0799 0 0 0 7.0485,-68.7938 A2.00731,2.00731 0 0 0 7.8153,-69.6348 A2.9639,2.9639 0 0 0 8.1039,-71.0036M26.3142,-40.1343 L17.5082,-40.1343 A5.97844,5.97844 0 0 1 18.1266,-42.8388 A4.24586,4.24586 0 0 1 19.7262,-44.6033 A4.2249,4.2249 0 0 1 21.9277,-45.1969 A5.39335,5.39335 0 0 1 23.4036,-45.0073 A4.80734,4.80734 0 0 1 24.6981,-44.4136 A9.87467,9.87467 0 0 1 25.8525,-43.5479 A53.5988,53.5988 0 0 1 27.2212,-42.2946 A1.47721,1.47721 0 0 0 28.2106,-41.9977 A1.62982,1.62982 0 0 0 29.332,-42.377 A1.35583,1.35583 0 0 0 29.7608,-43.4489 A2.92843,2.92843 0 0 0 29.2825,-44.8754 A5.66126,5.66126 0 0 0 27.8396,-46.442 A8.21824,8.21824 0 0 0 25.4155,-47.687 A10.4408,10.4408 0 0 0 22.0596,-48.1818 A13.6095,13.6095 0 0 0 20.0531,-48.033 A9.47792,9.47792 0 0 0 18.4209,-47.6394 A8.18973,8.18973 0 0 0 16.7143,-46.8342 A7.42118,7.42118 0 0 0 15.3149,-45.7082 A7.80995,7.80995 0 0 0 14.2222,-44.2917 A8.45741,8.45741 0 0 0 13.4426,-42.6011 A9.62604,9.62604 0 0 0 13.0531,-40.9713 A13.4423,13.4423 0 0 0 12.9073,-38.9964 A11.1964,11.1964 0 0 0 13.5009,-35.2943 A8.16226,8.16226 0 0 0 15.2325,-32.3672 A7.50835,7.50835 0 0 0 18.0359,-30.4955 A10.0632,10.0632 0 0 0 21.7298,-29.8441 A10.6961,10.6961 0 0 0 24.2839,-30.1535 A7.33162,7.33162 0 0 0 26.2565,-30.9572 A7.32234,7.32234 0 0 0 29.0846,-33.8348 A7.56651,7.56651 0 0 0 30.0246,-37.4298 A5.01486,5.01486 0 0 0 29.9715,-38.1578 A2.71644,2.71644 0 0 0 29.8413,-38.679 A1.94181,1.94181 0 0 0 29.5079,-39.2641 A1.46906,1.46906 0 0 0 29.0517,-39.6313 A3.63077,3.63077 0 0 0 28.0405,-39.977 A9.55264,9.55264 0 0 0 26.3142,-40.1343M17.5082,-37.5782 L25.6711,-37.5782 A9.61185,9.61185 0 0 1 25.5421,-36.5525 A6.3134,6.3134 0 0 1 25.3386,-35.7398 A5.03486,5.03486 0 0 1 24.9307,-34.8086 A3.52785,3.52785 0 0 1 24.426,-34.1234 A3.63106,3.63106 0 0 1 23.8184,-33.6065 A3.45586,3.45586 0 0 1 23.1288,-33.2457 A3.72199,3.72199 0 0 1 22.4217,-33.0497 A4.91776,4.91776 0 0 1 21.5814,-32.9773 A3.60318,3.60318 0 0 1 18.8192,-34.1399 A3.80765,3.80765 0 0 1 18.3111,-34.8279 A5.34276,5.34276 0 0 1 17.8901,-35.7493 A6.60064,6.60064 0 0 1 17.6654,-36.5619 A9.82248,9.82248 0 0 1 17.5082,-37.5782M38.2858,-41.6844 L38.2858,-45.4443 A5.16737,5.16737 0 0 0 38.2497,-46.0541 A3.3311,3.3311 0 0 0 38.1561,-46.5355 A2.64582,2.64582 0 0 0 37.9372,-47.0869 A1.91924,1.91924 0 0 0 37.6427,-47.4974 A2.14324,2.14324 0 0 0 36.0101,-48.1818 A2.06125,2.06125 0 0 0 34.4105,-47.4891 A2.02794,2.02794 0 0 0 33.9753,-46.7228 A4.36333,4.36333 0 0 0 33.7838,-45.4443 L33.7838,-32.9114 A6.52815,6.52815 0 0 0 33.9124,-31.6222 A2.68658,2.68658 0 0 0 34.2006,-30.8426 A1.99456,1.99456 0 0 0 34.5356,-30.4008 A1.6698,1.6698 0 0 0 34.9456,-30.1019 A1.82384,1.82384 0 0 0 35.3953,-29.9397 A2.73184,2.73184 0 0 0 35.9771,-29.8771 A3.08329,3.08329 0 0 0 36.487,-29.9195 A1.95211,1.95211 0 0 0 36.8794,-30.0284 A1.62143,1.62143 0 0 0 37.2837,-30.2595 A1.51415,1.51415 0 0 0 37.5932,-30.5862 A2.3629,2.3629 0 0 0 37.9423,-31.3439 A6.19353,6.19353 0 0 0 38.1374,-32.6805 A7.87931,7.87931 0 0 0 39.7947,-30.5862 A2.69732,2.69732 0 0 0 40.7184,-30.0823 A4.50222,4.50222 0 0 0 42.0622,-29.8771 A5.80395,5.80395 0 0 0 44.8161,-30.5862 A3.76448,3.76448 0 0 0 45.3904,-30.9619 A2.24003,2.24003 0 0 0 45.7634,-31.3375 A1.83127,1.83127 0 0 0 46.052,-31.8691 A1.83426,1.83426 0 0 0 46.1519,-32.4661 A1.78813,1.78813 0 0 0 45.5829,-33.8266 A1.76508,1.76508 0 0 0 44.3544,-34.3625 A5.65999,5.65999 0 0 0 43.1588,-34.0575 A5.55911,5.55911 0 0 1 41.485,-33.7524 A2.44824,2.44824 0 0 1 39.8689,-34.2719 A3.33299,3.33299 0 0 1 38.896,-35.8137 A10.7623,10.7623 0 0 1 38.4177,-38.2461 A37.7771,37.7771 0 0 1 38.2858,-41.6844M-35.2601,-78.7707 A6.44469,6.44469 0 0 0 -35.829,-81.269 A9.01206,9.01206 0 0 0 -37.6183,-83.9075 A9.12915,9.12915 0 0 0 -40.735,-86.0101 A11.2038,11.2038 0 0 0 -45.1545,-86.8181 A15.4439,15.4439 0 0 0 -48.634,-86.4553 A9.77435,9.77435 0 0 0 -51.4787,-85.3257 A9.59701,9.59701 0 0 0 -53.8286,-83.3056 A12.0047,12.0047 0 0 0 -55.4612,-80.7578 A13.2849,13.2849 0 0 0 -56.4754,-77.7483 A16.4041,16.4041 0 0 0 -56.8134,-74.3512 A15.0697,15.0697 0 0 0 -55.9642,-69.1236 A11.1503,11.1503 0 0 0 -53.5318,-65.1741 A10.6094,10.6094 0 0 0 -49.8214,-62.6758 A12.0144,12.0144 0 0 0 -45.2864,-61.8182 A11.3305,11.3305 0 0 0 -40.0589,-62.9891 A11.6469,11.6469 0 0 0 -37.9506,-64.3725 A7.79272,7.79272 0 0 0 -36.5464,-65.8832 A9.11831,9.11831 0 0 0 -36.0324,-66.6969 A6.36332,6.36332 0 0 0 -35.6846,-67.4218 A5.29856,5.29856 0 0 0 -35.4102,-68.3252 A3.98972,3.98972 0 0 0 -35.326,-69.1401 A2.12297,2.12297 0 0 0 -35.9197,-70.6243 A1.88212,1.88212 0 0 0 -37.3544,-71.2674 A2.94083,2.94083 0 0 0 -38.24,-71.1309 A1.35634,1.35634 0 0 0 -38.7644,-70.8222 A6.1664,6.1664 0 0 0 -39.8115,-69.2885 A9.60813,9.60813 0 0 1 -40.9273,-67.6332 A5.67835,5.67835 0 0 1 -42.0625,-66.6005 A4.60447,4.60447 0 0 1 -43.4344,-65.9591 A6.76728,6.76728 0 0 1 -45.2534,-65.71 A7.13556,7.13556 0 0 1 -46.7125,-65.8608 A5.5413,5.5413 0 0 1 -47.9383,-66.2709 A5.39976,5.39976 0 0 1 -49.0532,-66.973 A6.45189,6.45189 0 0 1 -50.0605,-68.0023 A6.7834,6.7834 0 0 1 -50.8763,-69.3421 A9.5738,9.5738 0 0 1 -51.4864,-71.103 A11.8944,11.8944 0 0 1 -51.7494,-72.6255 A17.8584,17.8584 0 0 1 -51.8497,-74.5161 A16.667,16.667 0 0 1 -51.6175,-77.2889 A8.59897,8.59897 0 0 1 -51.0582,-79.2077 A7.14593,7.14593 0 0 1 -50.0502,-80.8963 A5.07942,5.07942 0 0 1 -48.8154,-82.0029 A6.19067,6.19067 0 0 1 -45.4184,-82.9263 A7.1687,7.1687 0 0 1 -43.4008,-82.6366 A5.14923,5.14923 0 0 1 -41.8481,-81.8792 A5.31929,5.31929 0 0 1 -40.6238,-80.6535 A7.75659,7.75659 0 0 1 -39.6466,-78.8037 A5.21847,5.21847 0 0 0 -38.8715,-77.2453 A1.35181,1.35181 0 0 0 -38.5847,-76.968 A1.56127,1.56127 0 0 0 -38.2048,-76.7691 A1.91652,1.91652 0 0 0 -37.8485,-76.6786 A3.03351,3.03351 0 0 0 -37.3874,-76.6434 A2.07523,2.07523 0 0 0 -35.8867,-77.2535 A2.03177,2.03177 0 0 0 -35.2601,-78.7707M-34.394,-23.1819 A17.2844,17.2844 0 0 0 -32.6188,-23.2733 A13.5845,13.5845 0 0 0 -31.0633,-23.5258 A12.2039,12.2039 0 0 0 -29.3987,-24.0228 A10.5247,10.5247 0 0 0 -27.9379,-24.7072 A9.88727,9.88727 0 0 0 -23.8564,-29.0443 A12.2581,12.2581 0 0 0 -22.8554,-31.9455 A18.0413,18.0413 0 0 0 -22.4712,-35.6488 A16.1541,16.1541 0 0 0 -23.2298,-40.7445 A11.0241,11.0241 0 0 0 -25.5055,-44.7187 A9.94235,9.94235 0 0 0 -29.2324,-47.2913 A13.4611,13.4611 0 0 0 -34.295,-48.1818 A13.3422,13.3422 0 0 0 -39.3742,-47.2665 A10.075,10.075 0 0 0 -43.1176,-44.6857 A11.024,11.024 0 0 0 -45.385,-40.6785 A16.1771,16.1771 0 0 0 -46.1519,-35.6158 A15.6297,15.6297 0 0 0 -45.3521,-30.5037 A10.9669,10.9669 0 0 0 -43.0351,-26.546 A10.0205,10.0205 0 0 0 -39.3412,-24.0476 A13.2996,13.2996 0 0 0 -34.394,-23.1819M-27.4349,-35.6158 A14.2139,14.2139 0 0 1 -27.6755,-33.0115 A9.07394,9.07394 0 0 1 -28.2924,-31.0149 A6.40209,6.40209 0 0 1 -30.7413,-28.0713 A6.73122,6.73122 0 0 1 -34.394,-27.0737 A6.61283,6.61283 0 0 1 -37.1067,-27.6261 A5.96071,5.96071 0 0 1 -39.2505,-29.2339 A7.68227,7.68227 0 0 1 -40.6687,-31.9302 A12.1846,12.1846 0 0 1 -41.1882,-35.6158 A12.4888,12.4888 0 0 1 -40.6687,-39.3427 A7.64099,7.64099 0 0 1 -39.201,-42.1049 A6.16562,6.16562 0 0 1 -37.0243,-43.7458 A6.5831,6.5831 0 0 1 -34.328,-44.29 A6.61653,6.61653 0 0 1 -30.8732,-43.35 A5.55229,5.55229 0 0 1 -29.5167,-42.2114 A7.84898,7.84898 0 0 1 -28.3666,-40.4476 A8.44417,8.44417 0 0 1 -27.7033,-38.4248 A14.8349,14.8349 0 0 1 -27.4349,-35.6158"
       style="fill:#000000;fill-rule:evenodd;"
       id="path1088" />
    <g
       aria-label="+"
       transform="scale(1,-1)"
       style="font-style:normal;font-weight:normal;font-size:62.46194839px;line-height:1.25;font-family:sans-serif;letter-spacing:0px;word-spacing:0px;fill:#000000;fill-opacity:1;stroke:none;stroke-width:1.56154871"
       id="text5352">
      <path
         d="m -52.349321,22.500782 h -16.621954 v 16.621954 h -5.062833 V 22.500782 h -16.621954 v -4.87984 h 16.621954 V 0.9989882 h 5.062833 V 17.620942 h 16.621954 z"
         style="stroke-width:1.56154871"
         id="path5357" />
    </g>
  </g>
  <g
     aria-label="Z"
     style="font-style:normal;font-weight:normal;font-size:72.19843292px;line-height:1.25;font-family:sans-serif;letter-spacing:0px;word-spacing:0px;fill:#000000;fill-opacity:1;stroke:none;stroke-width:1.80496061"
     id="text5348">
    <path
       d="m -50.975966,-19.611883 h -40.96415 v -6.486578 l 32.186118,-39.800796 h -30.987511 v -6.204553 h 38.989974 v 6.310312 l -32.503396,39.977062 h 33.278965 z"
       style="stroke-width:1.80496061"
       id="path5354" />
  </g>
</svg>
