<?xml version="1.0" encoding="UTF-8"?>
<!-- 2020-10-25 14:10:02 Generated by QCAD 3.24.2 SVG Exporter PG -->
<svg width="210.5mm" height="210.5mm" viewBox="-105.25 -105.25 210.5 210.5" version="1.1" xmlns="http://www.w3.org/2000/svg" style="stroke-linecap:round;stroke-linejoin:round;fill:none">
    <g transform="scale(1,-1)">
        <!-- Polylinie -->
        <path d="M-90,-100 L90,-100 A10,10 0 0 1 100,-90 L100,90 A10,10 0 0 1 90,100 L-90,100 A10,10 0 0 1 -100,90 L-100,-90 A10,10 0 0 1 -90,-100" style="stroke:#000000;stroke-width:0.25;"/>
        <!-- Kreisbogen -->
        <path d="M-1,26.0784 A3,3 0 1,1 1,26.0784" style="stroke:#000000;stroke-width:0.5;"/>
        <!-- Linie -->
        <line x1="-1" y1="26.0784" x2="-1" y2="53.25" style="stroke:#000000;stroke-width:0.5;"/>
        <!-- Linie -->
        <line x1="1" y1="53.25" x2="1" y2="26.0784" style="stroke:#000000;stroke-width:0.5;"/>
        <!-- Linie -->
        <line x1="-1" y1="53.25" x2="-5" y2="73.25" style="stroke:#000000;stroke-width:0.5;"/>
        <!-- Linie -->
        <line x1="5" y1="73.25" x2="1" y2="53.25" style="stroke:#000000;stroke-width:0.5;"/>
        <!-- Linie -->
        <line x1="-5" y1="73.25" x2="-5" y2="93.25" style="stroke:#000000;stroke-width:0.5;"/>
        <!-- Linie -->
        <line x1="-5" y1="93.25" x2="5" y2="93.25" style="stroke:#000000;stroke-width:0.5;"/>
        <!-- Linie -->
        <line x1="5" y1="93.25" x2="5" y2="73.25" style="stroke:#000000;stroke-width:0.5;"/>
        <!-- Schraffur -->
        <path d="M-1,26.0784 A3,3 0 1 1 1,26.0784 L1,53.25 L5,73.25 L5,93.25 L-5,93.25 L-5,73.25 L-1,53.25 Z" style="fill:#000000;fill-rule:evenodd;"/>
        <!-- Polylinie -->
        <path d="M-90,-33.25 L30,-33.25 L30,-23.25 L-90,-23.25 Z" style="stroke:#000000;stroke-width:0.5;"/>
        <!-- Linie -->
        <line x1="-90" y1="-23.25" x2="-30" y2="36.75" style="stroke:#000000;stroke-width:0.5;"/>
        <!-- Linie -->
        <line x1="30" y1="-23.25" x2="90" y2="36.75" style="stroke:#000000;stroke-width:0.5;"/>
        <!-- Linie -->
        <line x1="90" y1="36.75" x2="-30" y2="36.75" style="stroke:#000000;stroke-width:0.5;"/>
        <!-- Linie -->
        <line x1="30" y1="-33.25" x2="90" y2="26.75" style="stroke:#000000;stroke-width:0.5;"/>
        <!-- Linie -->
        <line x1="90" y1="26.75" x2="90" y2="36.75" style="stroke:#000000;stroke-width:0.5;"/>
        <!-- Linie -->
        <line x1="15.5109" y1="34.0379" x2="15.5125" y2="34.0394" style="stroke:#000000;stroke-width:0.5;"/>
        <!-- Ellipse -->
        <ellipse transform="translate(0 16.7495) rotate(198.4349)" rx="31.6228" ry="14.1421" style="stroke:#000000;stroke-width:0.5;"/>
        <!-- Ellipse -->
        <path d="M-30.3315,-1.1625 A31.6228,14.1421 198.4349 1 1 30.3315,14.6664" style="stroke:#000000;stroke-width:0.5;"/>
        <!-- Linie -->
        <line x1="0" y1="-23.2505" x2="0" y2="-23.25" style="stroke:#000000;stroke-width:0.5;"/>
        <!-- Linie -->
        <line x1="30.0002" y1="-23.2505" x2="30.0002" y2="-23.2498" style="stroke:#000000;stroke-width:0.5;"/>
        <!-- Linie -->
        <line x1="-30.3315" y1="8.8297" x2="-30.3315" y2="-1.1808" style="stroke:#000000;stroke-width:0.5;"/>
        <!-- Linie -->
        <line x1="30.3264" y1="24.3892" x2="30.3315" y2="14.6377" style="stroke:#000000;stroke-width:0.5;"/>
        <!-- Polylinie -->
        <path d="M-76.7024,-72.7784 L-81.3673,-72.7784 L-81.3673,-79.8958 A5.75808,5.75808 0 0 0 -81.4081,-80.58 A3.7733,3.7733 0 0 0 -81.5143,-81.1245 A3.03716,3.03716 0 0 0 -81.7582,-81.7426 A2.25652,2.25652 0 0 0 -82.0876,-82.2111 A2.35608,2.35608 0 0 0 -83.9055,-83.0001 A2.37385,2.37385 0 0 0 -85.7578,-82.2197 A2.22995,2.22995 0 0 0 -86.0793,-81.7563 A3.03251,3.03251 0 0 0 -86.3179,-81.1434 A3.77664,3.77664 0 0 0 -86.4213,-80.6057 A5.76825,5.76825 0 0 0 -86.461,-79.9301 L-86.461,-60.5501 A6.40128,6.40128 0 0 0 -86.4194,-59.8217 A3.85455,3.85455 0 0 0 -86.3138,-59.2655 A2.88079,2.88079 0 0 0 -86.0447,-58.6024 A1.86738,1.86738 0 0 0 -85.6892,-58.149 A2.04198,2.04198 0 0 0 -85.215,-57.8184 A3.22147,3.22147 0 0 0 -84.5339,-57.5667 A4.26125,4.26125 0 0 0 -83.9677,-57.4675 A6.90975,6.90975 0 0 0 -83.2367,-57.4287 L-76.7024,-57.4287 A28.9268,28.9268 0 0 0 -73.824,-57.5723 A9.02192,9.02192 0 0 0 -72.2432,-57.8746 A6.63954,6.63954 0 0 0 -69.5763,-59.2981 A6.41841,6.41841 0 0 0 -67.8699,-61.7335 A8.5727,8.5727 0 0 0 -67.2867,-64.9749 A11.0399,11.0399 0 0 0 -67.4304,-66.75 A7.49291,7.49291 0 0 0 -67.8069,-68.168 A6.46613,6.46613 0 0 0 -68.5723,-69.6207 A6.12421,6.12421 0 0 0 -69.6535,-70.7975 A6.64709,6.64709 0 0 0 -71.0658,-71.7034 A9.90379,9.90379 0 0 0 -72.9964,-72.3867 A12.6582,12.6582 0 0 0 -74.6335,-72.6694 A19.6865,19.6865 0 0 0 -76.7024,-72.7784" style="stroke:#000000;stroke-width:0.25;"/>
        <!-- Polylinie -->
        <path d="M-77.9372,-61.2533 L-81.3673,-61.2533 L-81.3673,-68.9367 L-77.9372,-68.9367 A10.246,10.246 0 0 1 -74.9273,-68.5594 A3.50809,3.50809 0 0 1 -73.0836,-67.3245 A2.84244,2.84244 0 0 1 -72.6331,-66.4063 A4.88764,4.88764 0 0 1 -72.449,-65.0778 A5.15376,5.15376 0 0 1 -72.5095,-64.2905 A3.88458,3.88458 0 0 1 -72.6736,-63.6249 A3.53668,3.53668 0 0 1 -72.9855,-62.9536 A3.46841,3.46841 0 0 1 -73.4266,-62.368 A2.36807,2.36807 0 0 1 -74.1671,-61.859 A6.30445,6.30445 0 0 1 -75.5699,-61.433 A9.85134,9.85134 0 0 1 -76.5716,-61.305 A18.0427,18.0427 0 0 1 -77.9372,-61.2533" style="stroke:#000000;stroke-width:0.25;"/>
        <!-- Polylinie -->
        <path d="M-58.7156,-76.2428 L-58.7156,-80.1531 A5.37411,5.37411 0 0 0 -58.7532,-80.7873 A3.46437,3.46437 0 0 0 -58.8505,-81.288 A2.75167,2.75167 0 0 0 -59.0782,-81.8614 A1.99602,1.99602 0 0 0 -59.3845,-82.2883 A2.22899,2.22899 0 0 0 -61.0824,-83.0001 A2.14371,2.14371 0 0 0 -62.746,-82.2797 A2.04571,2.04571 0 0 0 -63.0441,-81.8508 A2.8109,2.8109 0 0 0 -63.2657,-81.28 A3.51685,3.51685 0 0 0 -63.361,-80.7812 A5.39876,5.39876 0 0 0 -63.3977,-80.1531 L-63.3977,-67.1187 A6.78933,6.78933 0 0 0 -63.264,-65.7779 A2.79407,2.79407 0 0 0 -62.9643,-64.9672 A2.07436,2.07436 0 0 0 -62.6158,-64.5077 A1.7366,1.7366 0 0 0 -62.1895,-64.1969 A1.89681,1.89681 0 0 0 -61.7217,-64.0282 A2.84114,2.84114 0 0 0 -61.1167,-63.963 A3.20664,3.20664 0 0 0 -60.5864,-64.0072 A2.03021,2.03021 0 0 0 -60.1783,-64.1204 A1.6863,1.6863 0 0 0 -59.7578,-64.3607 A1.57473,1.57473 0 0 0 -59.436,-64.7005 A2.45743,2.45743 0 0 0 -59.0729,-65.4886 A6.44132,6.44132 0 0 0 -58.87,-66.8786 A8.19454,8.19454 0 0 0 -57.1464,-64.7005 A2.80523,2.80523 0 0 0 -56.1857,-64.1765 A4.68235,4.68235 0 0 0 -54.7882,-63.963 A6.03615,6.03615 0 0 0 -51.9241,-64.7005 A3.91509,3.91509 0 0 0 -51.3268,-65.0912 A2.32965,2.32965 0 0 0 -50.9389,-65.4819 A1.90454,1.90454 0 0 0 -50.6387,-66.0347 A1.90765,1.90765 0 0 0 -50.5349,-66.6557 A1.85967,1.85967 0 0 0 -51.1266,-68.0706 A1.8357,1.8357 0 0 0 -52.4043,-68.628 A5.88644,5.88644 0 0 0 -53.6477,-68.3107 A5.78152,5.78152 0 0 1 -55.3884,-67.9934 A2.54619,2.54619 0 0 1 -57.0692,-68.5336 A3.46634,3.46634 0 0 1 -58.0811,-70.1372 A11.1929,11.1929 0 0 1 -58.5784,-72.6669 A39.2885,39.2885 0 0 1 -58.7156,-76.2428" style="stroke:#000000;stroke-width:0.25;"/>
        <!-- Polylinie -->
        <path d="M-31.8573,-73.4815 A11.0677,11.0677 0 0 0 -32.509,-77.3404 A8.5211,8.5211 0 0 0 -34.3956,-80.376 A8.32954,8.32954 0 0 0 -37.3455,-82.3226 A10.4294,10.4294 0 0 0 -41.2043,-83.0001 A10.1317,10.1317 0 0 0 -45.0289,-82.314 A8.4931,8.4931 0 0 0 -47.9702,-80.3503 A8.49048,8.49048 0 0 0 -49.8567,-77.3318 A11.0363,11.0363 0 0 0 -50.4999,-73.4815 A11.1711,11.1711 0 0 0 -49.8482,-69.5884 A8.4717,8.4717 0 0 0 -47.9788,-66.5699 A8.24079,8.24079 0 0 0 -45.0289,-64.6405 A10.4165,10.4165 0 0 0 -41.2043,-63.963 A10.3982,10.3982 0 0 0 -37.3455,-64.6491 A8.39387,8.39387 0 0 0 -34.3784,-66.6042 A8.45073,8.45073 0 0 0 -32.5005,-69.6227 A11.1082,11.1082 0 0 0 -31.8573,-73.4815" style="stroke:#000000;stroke-width:0.25;"/>
        <!-- Polylinie -->
        <path d="M-36.5566,-73.4815 A11.6969,11.6969 0 0 1 -36.6282,-72.1887 A7.91641,7.91641 0 0 1 -36.8169,-71.1403 A6.47537,6.47537 0 0 1 -37.243,-69.9484 A4.79713,4.79713 0 0 1 -37.8171,-69.0224 A4.50812,4.50812 0 0 1 -38.5277,-68.3056 A3.81654,3.81654 0 0 1 -39.3167,-67.8157 A3.93801,3.93801 0 0 1 -40.1781,-67.5319 A5.09393,5.09393 0 0 1 -41.2043,-67.4274 A4.19562,4.19562 0 0 1 -43.6225,-68.1392 A4.50975,4.50975 0 0 1 -45.2347,-70.2401 A8.5511,8.5511 0 0 1 -45.8007,-73.4815 A8.48376,8.48376 0 0 1 -45.2433,-76.6887 A4.5989,4.5989 0 0 1 -43.6483,-78.7896 A4.14285,4.14285 0 0 1 -41.2043,-79.5185 A5.06594,5.06594 0 0 1 -40.1771,-79.4133 A3.92349,3.92349 0 0 1 -39.3146,-79.1272 A3.81123,3.81123 0 0 1 -38.5272,-78.6353 A4.52373,4.52373 0 0 1 -37.8171,-77.9149 A4.8834,4.8834 0 0 1 -37.2434,-76.9884 A6.45741,6.45741 0 0 1 -36.8191,-75.8092 A7.82461,7.82461 0 0 1 -36.6287,-74.7641 A11.4413,11.4413 0 0 1 -36.5566,-73.4815" style="stroke:#000000;stroke-width:0.25;"/>
        <!-- Polylinie -->
        <path d="M-27.9161,-64.3746 L-27.4016,-64.3746 L-27.4016,-61.562 A20.2376,20.2376 0 0 0 -27.3416,-59.7869 A2.62147,2.62147 0 0 0 -27.0072,-58.6807 A2.11011,2.11011 0 0 0 -26.2183,-57.9003 A2.23832,2.23832 0 0 0 -25.0692,-57.6002 A2.31225,2.31225 0 0 0 -23.457,-58.2691 A1.98121,1.98121 0 0 0 -22.8482,-59.3581 A9.89329,9.89329 0 0 0 -22.7196,-61.1847 L-22.7196,-64.3746 L-21.0045,-64.3746 A3.16746,3.16746 0 0 0 -20.0646,-64.5173 A1.54978,1.54978 0 0 0 -19.4867,-64.8463 A1.55472,1.55472 0 0 0 -18.9636,-66.0554 A2.03483,2.03483 0 0 0 -19.0121,-66.4971 A1.3155,1.3155 0 0 0 -19.1363,-66.832 A1.19245,1.19245 0 0 0 -19.3671,-67.1347 A1.44595,1.44595 0 0 0 -19.7097,-67.376 A2.79299,2.79299 0 0 0 -20.4842,-67.634 A7.81983,7.81983 0 0 0 -21.8449,-67.7533 L-22.7196,-67.7533 L-22.7196,-76.3628 A13.971,13.971 0 0 1 -22.6424,-78.0521 A1.72006,1.72006 0 0 1 -22.2308,-79.0126 A0.918421,0.918421 0 0 1 -21.845,-79.2655 A2.19302,2.19302 0 0 1 -21.1417,-79.3813 A5.82344,5.82344 0 0 1 -20.0269,-79.2355 A5.78828,5.78828 0 0 0 -18.9293,-79.0897 A1.41069,1.41069 0 0 0 -17.9089,-79.5442 A1.526,1.526 0 0 0 -17.4544,-80.6676 A1.81386,1.81386 0 0 0 -17.546,-81.2369 A1.62514,1.62514 0 0 0 -17.8019,-81.7189 A1.90395,1.90395 0 0 0 -18.1508,-82.0671 A3.13806,3.13806 0 0 0 -18.6892,-82.3998 A4.72766,4.72766 0 0 0 -19.9679,-82.8094 A13.6245,13.6245 0 0 0 -22.2393,-83.0001 A11.6787,11.6787 0 0 0 -23.1969,-82.9607 A7.496,7.496 0 0 0 -23.9578,-82.8587 A5.7388,5.7388 0 0 0 -24.8987,-82.5986 A3.36559,3.36559 0 0 0 -25.5665,-82.2626 A3.42249,3.42249 0 0 0 -27.0501,-80.2217 A8.23904,8.23904 0 0 0 -27.2927,-78.9038 A21.5346,21.5346 0 0 0 -27.4016,-76.7401 L-27.4016,-67.7533 L-28.0191,-67.7533 A3.21807,3.21807 0 0 0 -28.975,-67.608 A1.5743,1.5743 0 0 0 -29.5626,-67.2731 A1.56932,1.56932 0 0 0 -30.0943,-66.0554 A1.51254,1.51254 0 0 0 -29.5369,-64.8463 A1.6647,1.6647 0 0 0 -28.9267,-64.5187 A3.61671,3.61671 0 0 0 -27.9161,-64.3746" style="stroke:#000000;stroke-width:0.25;"/>
        <!-- Polylinie -->
        <path d="M-11.095,-76.2428 L-11.095,-80.1531 A5.37411,5.37411 0 0 0 -11.1325,-80.7873 A3.46437,3.46437 0 0 0 -11.2298,-81.288 A2.75167,2.75167 0 0 0 -11.4575,-81.8614 A1.99602,1.99602 0 0 0 -11.7638,-82.2883 A2.22899,2.22899 0 0 0 -13.4617,-83.0001 A2.14371,2.14371 0 0 0 -15.1253,-82.2797 A2.04571,2.04571 0 0 0 -15.4235,-81.8508 A2.8109,2.8109 0 0 0 -15.645,-81.28 A3.51685,3.51685 0 0 0 -15.7404,-80.7812 A5.39876,5.39876 0 0 0 -15.7771,-80.1531 L-15.7771,-67.1187 A6.78933,6.78933 0 0 0 -15.6433,-65.7779 A2.79407,2.79407 0 0 0 -15.3436,-64.9672 A2.07436,2.07436 0 0 0 -14.9952,-64.5077 A1.7366,1.7366 0 0 0 -14.5688,-64.1969 A1.89681,1.89681 0 0 0 -14.1011,-64.0282 A2.84114,2.84114 0 0 0 -13.496,-63.963 A3.20664,3.20664 0 0 0 -12.9657,-64.0072 A2.03021,2.03021 0 0 0 -12.5577,-64.1204 A1.6863,1.6863 0 0 0 -12.1372,-64.3607 A1.57473,1.57473 0 0 0 -11.8153,-64.7005 A2.45743,2.45743 0 0 0 -11.4523,-65.4886 A6.44132,6.44132 0 0 0 -11.2493,-66.8786 A8.19454,8.19454 0 0 0 -9.5257,-64.7005 A2.80523,2.80523 0 0 0 -8.5651,-64.1765 A4.68235,4.68235 0 0 0 -7.1675,-63.963 A6.03615,6.03615 0 0 0 -4.3034,-64.7005 A3.91509,3.91509 0 0 0 -3.7061,-65.0912 A2.32965,2.32965 0 0 0 -3.3182,-65.4819 A1.90454,1.90454 0 0 0 -3.0181,-66.0347 A1.90765,1.90765 0 0 0 -2.9142,-66.6557 A1.85967,1.85967 0 0 0 -3.5059,-68.0706 A1.8357,1.8357 0 0 0 -4.7836,-68.628 A5.88644,5.88644 0 0 0 -6.027,-68.3107 A5.78152,5.78152 0 0 1 -7.7678,-67.9934 A2.54619,2.54619 0 0 1 -9.4485,-68.5336 A3.46634,3.46634 0 0 1 -10.4604,-70.1372 A11.1929,11.1929 0 0 1 -10.9578,-72.6669 A39.2885,39.2885 0 0 1 -11.095,-76.2428" style="stroke:#000000;stroke-width:0.25;"/>
        <!-- Polylinie -->
        <path d="M11.0977,-80.3589 L11.0977,-79.7586 A10.4473,10.4473 0 0 0 9.3312,-81.5423 A6.50747,6.50747 0 0 0 7.3075,-82.6142 A8.20188,8.20188 0 0 0 4.8035,-82.9657 A6.4765,6.4765 0 0 0 1.7593,-82.2626 A5.13581,5.13581 0 0 0 -0.3245,-80.3246 A4.71174,4.71174 0 0 0 -0.7223,-79.4535 A8.05291,8.05291 0 0 0 -1.0306,-78.2402 A10.4369,10.4369 0 0 0 -1.1524,-77.2602 A16.035,16.035 0 0 0 -1.1992,-76.037 L-1.1992,-66.7586 A5.52555,5.52555 0 0 0 -1.164,-66.1359 A3.5301,3.5301 0 0 0 -1.0729,-65.6457 A2.76883,2.76883 0 0 0 -0.8552,-65.0755 A1.92569,1.92569 0 0 0 -0.5646,-64.6576 A2.16733,2.16733 0 0 0 1.1162,-63.963 A2.22842,2.22842 0 0 0 2.8312,-64.6662 A1.98545,1.98545 0 0 0 3.1295,-65.0865 A2.72048,2.72048 0 0 0 3.3511,-65.6477 A3.41059,3.41059 0 0 0 3.4463,-66.1386 A5.26009,5.26009 0 0 0 3.4829,-66.7586 L3.4829,-74.2533 A11.5671,11.5671 0 0 1 3.7573,-76.9888 A3.28566,3.28566 0 0 1 4.7435,-78.721 A2.21792,2.21792 0 0 1 5.5238,-79.1653 A3.72358,3.72358 0 0 1 6.6729,-79.347 A3.92661,3.92661 0 0 1 8.9025,-78.6438 A4.10473,4.10473 0 0 1 10.4289,-76.8087 A2.97624,2.97624 0 0 1 10.6026,-76.1722 A16.0885,16.0885 0 0 1 10.7675,-74.647 A26.9484,26.9484 0 0 1 10.8072,-73.7168 A49.6999,49.6999 0 0 1 10.8233,-72.4525 L10.8233,-66.7586 A5.25996,5.25996 0 0 0 10.86,-66.1385 A3.41023,3.41023 0 0 0 10.9552,-65.6475 A2.72024,2.72024 0 0 0 11.1767,-65.0864 A1.98544,1.98544 0 0 0 11.475,-64.6662 A2.20803,2.20803 0 0 0 13.1729,-63.963 A2.16733,2.16733 0 0 0 14.8537,-64.6576 A1.9257,1.9257 0 0 0 15.1444,-65.0756 A2.76909,2.76909 0 0 0 15.3621,-65.6459 A3.53049,3.53049 0 0 0 15.4531,-66.136 A5.5257,5.5257 0 0 0 15.4882,-66.7586 L15.4882,-80.3246 A4.35719,4.35719 0 0 0 15.3005,-81.5897 A1.93707,1.93707 0 0 0 14.8794,-82.3312 A2.02542,2.02542 0 0 0 13.3101,-83.0001 A2.04267,2.04267 0 0 0 11.7237,-82.3055 A2.10757,2.10757 0 0 0 11.2829,-81.5397 A3.85714,3.85714 0 0 0 11.0977,-80.3589" style="stroke:#000000;stroke-width:0.25;"/>
        <!-- Polylinie -->
        <path d="M35.225,-76.8773 A5.7398,5.7398 0 0 0 34.2817,-80.1959 A4.94519,4.94519 0 0 0 33.1676,-81.3609 A6.96288,6.96288 0 0 0 31.4948,-82.2883 A9.25214,9.25214 0 0 0 29.6128,-82.7948 A16.6068,16.6068 0 0 0 27.0099,-83.0001 A14.0855,14.0855 0 0 0 24.5338,-82.7807 A8.46207,8.46207 0 0 0 22.688,-82.2283 A8.60068,8.60068 0 0 0 21.024,-81.2835 A4.59978,4.59978 0 0 0 20.0297,-80.2989 A4.90914,4.90914 0 0 0 19.3689,-79.0763 A3.18126,3.18126 0 0 0 19.1722,-77.975 A1.80032,1.80032 0 0 0 19.721,-76.6544 A1.88265,1.88265 0 0 0 21.1102,-76.1056 A1.62112,1.62112 0 0 0 22.2421,-76.4657 A3.94533,3.94533 0 0 0 22.9967,-77.4776 A5.13094,5.13094 0 0 1 24.7203,-79.347 A3.47538,3.47538 0 0 1 25.7766,-79.7773 A7.62705,7.62705 0 0 1 27.4558,-79.9644 A5.15436,5.15436 0 0 1 28.8058,-79.7845 A3.09711,3.09711 0 0 1 29.7626,-79.3384 A3.14862,3.14862 0 0 1 30.1445,-79.0257 A1.93487,1.93487 0 0 1 30.3957,-78.7313 A1.55517,1.55517 0 0 1 30.5969,-78.3249 A1.35774,1.35774 0 0 1 30.663,-77.9064 A2.83047,2.83047 0 0 1 30.6028,-77.3259 A1.91266,1.91266 0 0 1 30.4463,-76.8723 A1.74244,1.74244 0 0 1 30.1553,-76.4519 A2.01466,2.01466 0 0 1 29.7283,-76.1056 A5.23417,5.23417 0 0 1 28.7506,-75.6441 A21.4818,21.4818 0 0 1 26.6498,-75.0251 A25.5183,25.5183 0 0 0 22.7137,-73.7645 A6.4811,6.4811 0 0 0 20.2869,-72.0238 A3.98933,3.98933 0 0 0 19.378,-69.3654 A4.68848,4.68848 0 0 0 20.2183,-66.7071 A5.76447,5.76447 0 0 0 22.6966,-64.7091 A7.35104,7.35104 0 0 0 24.3805,-64.1753 A12.2367,12.2367 0 0 0 26.6498,-63.963 A12.987,12.987 0 0 0 29.9169,-64.3403 A8.14695,8.14695 0 0 0 32.3351,-65.3522 A4.99339,4.99339 0 0 0 33.8101,-66.7586 A2.75147,2.75147 0 0 0 34.316,-68.2678 A1.74308,1.74308 0 0 0 33.7758,-69.5884 A1.61676,1.61676 0 0 0 33.1746,-69.9506 A2.93815,2.93815 0 0 0 32.2408,-70.1029 A1.8808,1.8808 0 0 0 31.0146,-69.6913 A8.08622,8.08622 0 0 0 29.8569,-68.4565 A4.2322,4.2322 0 0 1 28.6049,-67.3588 A2.59728,2.59728 0 0 1 27.8514,-67.0723 A5.83275,5.83275 0 0 1 26.6498,-66.9472 A3.82871,3.82871 0 0 1 24.5403,-67.4875 A2.55029,2.55029 0 0 1 24.1767,-67.7707 A1.6319,1.6319 0 0 1 23.9377,-68.0514 A1.39247,1.39247 0 0 1 23.7609,-68.4235 A1.41048,1.41048 0 0 1 23.6999,-68.8338 A1.45743,1.45743 0 0 1 24.3173,-70.0429 A5.12547,5.12547 0 0 1 25.9809,-70.8232 A64.8752,64.8752 0 0 1 28.8622,-71.5778 A15.3911,15.3911 0 0 0 32.4209,-72.847 A5.91588,5.91588 0 0 0 34.5132,-74.5877 A3.85886,3.85886 0 0 0 35.225,-76.8773" style="stroke:#000000;stroke-width:0.25;"/>
        <!-- Polylinie -->
        <path d="M43.8647,-66.6214 L43.8647,-80.1531 A5.258,5.258 0 0 0 43.8268,-80.783 A3.43274,3.43274 0 0 0 43.7283,-81.2832 A2.75805,2.75805 0 0 0 43.5018,-81.8507 A2.05111,2.05111 0 0 0 43.1958,-82.2797 A2.2162,2.2162 0 0 0 41.4979,-83.0001 A2.11429,2.11429 0 0 0 39.8258,-82.2626 A2.21548,2.21548 0 0 0 39.3763,-81.4525 A4.45586,4.45586 0 0 0 39.1826,-80.1531 L39.1826,-66.7586 A5.33124,5.33124 0 0 0 39.2187,-66.1393 A3.45255,3.45255 0 0 0 39.3124,-65.649 A2.74675,2.74675 0 0 0 39.5314,-65.0863 A1.98269,1.98269 0 0 0 39.8258,-64.6662 A2.1611,2.1611 0 0 0 41.4979,-63.963 A2.24225,2.24225 0 0 0 43.1958,-64.6662 A2.1372,2.1372 0 0 0 43.6695,-65.4474 A3.6268,3.6268 0 0 0 43.8647,-66.6214" style="stroke:#000000;stroke-width:0.25;"/>
        <!-- Polylinie -->
        <path d="M41.5494,-61.7849 A2.47104,2.47104 0 0 0 39.8772,-61.1847 A1.91339,1.91339 0 0 0 39.5612,-60.8348 A1.93244,1.93244 0 0 0 39.339,-60.4164 A2.17768,2.17768 0 0 0 39.2255,-59.9997 A3.09193,3.09193 0 0 0 39.1826,-59.4868 A2.11,2.11 0 0 0 39.8944,-57.8489 A2.39224,2.39224 0 0 0 41.5494,-57.2058 A2.4538,2.4538 0 0 0 43.1615,-57.7889 A1.83172,1.83172 0 0 0 43.4824,-58.1336 A1.88119,1.88119 0 0 0 43.7084,-58.5539 A2.15265,2.15265 0 0 0 43.8217,-58.9692 A3.13277,3.13277 0 0 0 43.8647,-59.4868 A2.14157,2.14157 0 0 0 43.1787,-61.1761 A2.373,2.373 0 0 0 41.5494,-61.7849" style="stroke:#000000;stroke-width:0.25;"/>
        <!-- Polylinie -->
        <path d="M66.2269,-73.4815 A11.0677,11.0677 0 0 0 65.5751,-77.3404 A8.5211,8.5211 0 0 0 63.6886,-80.376 A8.32954,8.32954 0 0 0 60.7387,-82.3226 A10.4294,10.4294 0 0 0 56.8798,-83.0001 A10.1317,10.1317 0 0 0 53.0553,-82.314 A8.4931,8.4931 0 0 0 50.114,-80.3503 A8.49048,8.49048 0 0 0 48.2274,-77.3318 A11.0363,11.0363 0 0 0 47.5843,-73.4815 A11.1711,11.1711 0 0 0 48.236,-69.5884 A8.4717,8.4717 0 0 0 50.1054,-66.5699 A8.24079,8.24079 0 0 0 53.0553,-64.6405 A10.4165,10.4165 0 0 0 56.8798,-63.963 A10.3982,10.3982 0 0 0 60.7387,-64.6491 A8.39387,8.39387 0 0 0 63.7057,-66.6042 A8.45073,8.45073 0 0 0 65.5837,-69.6227 A11.1082,11.1082 0 0 0 66.2269,-73.4815" style="stroke:#000000;stroke-width:0.25;"/>
        <!-- Polylinie -->
        <path d="M61.5276,-73.4815 A11.6969,11.6969 0 0 1 61.456,-72.1887 A7.91641,7.91641 0 0 1 61.2673,-71.1403 A6.47537,6.47537 0 0 1 60.8412,-69.9484 A4.79713,4.79713 0 0 1 60.2671,-69.0224 A4.50812,4.50812 0 0 1 59.5565,-68.3056 A3.81654,3.81654 0 0 1 58.7675,-67.8157 A3.93801,3.93801 0 0 1 57.9061,-67.5319 A5.09393,5.09393 0 0 1 56.8798,-67.4274 A4.19562,4.19562 0 0 1 54.4616,-68.1392 A4.50975,4.50975 0 0 1 52.8495,-70.2401 A8.5511,8.5511 0 0 1 52.2835,-73.4815 A8.48376,8.48376 0 0 1 52.8409,-76.6887 A4.5989,4.5989 0 0 1 54.4359,-78.7896 A4.14285,4.14285 0 0 1 56.8798,-79.5185 A5.06594,5.06594 0 0 1 57.907,-79.4133 A3.92349,3.92349 0 0 1 58.7695,-79.1272 A3.81123,3.81123 0 0 1 59.5569,-78.6353 A4.52373,4.52373 0 0 1 60.2671,-77.9149 A4.8834,4.8834 0 0 1 60.8408,-76.9884 A6.45741,6.45741 0 0 1 61.265,-75.8092 A7.82461,7.82461 0 0 1 61.4555,-74.7641 A11.4413,11.4413 0 0 1 61.5276,-73.4815" style="stroke:#000000;stroke-width:0.25;"/>
        <!-- Polylinie -->
        <path d="M74.1641,-66.5528 L74.1641,-67.1187 A8.19466,8.19466 0 0 0 76.8653,-64.7262 A7.19459,7.19459 0 0 0 80.2353,-63.963 A6.72504,6.72504 0 0 0 83.5454,-64.7691 A5.12148,5.12148 0 0 0 85.7235,-67.0501 A5.42451,5.42451 0 0 0 86.3238,-68.9024 A19.1917,19.1917 0 0 0 86.461,-71.4406 L86.461,-80.1531 A5.47174,5.47174 0 0 0 86.4249,-80.7805 A3.56019,3.56019 0 0 0 86.331,-81.2787 A2.83834,2.83834 0 0 0 86.112,-81.851 A2.04369,2.04369 0 0 0 85.8178,-82.2797 A2.13682,2.13682 0 0 0 84.1457,-83.0001 A2.15902,2.15902 0 0 0 82.4478,-82.2626 A2.21141,2.21141 0 0 0 81.992,-81.4509 A4.39693,4.39693 0 0 0 81.796,-80.1531 L81.796,-72.3496 A12.6769,12.6769 0 0 1 81.592,-70.0846 A4.46653,4.46653 0 0 1 81.1529,-68.808 A2.03723,2.03723 0 0 1 80.7063,-68.2353 A2.25571,2.25571 0 0 1 80.0585,-67.8299 A2.91286,2.91286 0 0 1 79.4389,-67.653 A5.10559,5.10559 0 0 1 78.5889,-67.5818 A3.79692,3.79692 0 0 1 76.3079,-68.3278 A4.28755,4.28755 0 0 1 74.7987,-70.3773 A3.94507,3.94507 0 0 1 74.6456,-71.0233 A15.1867,15.1867 0 0 1 74.5085,-72.3185 A23.687,23.687 0 0 1 74.4707,-73.1634 A41.8675,41.8675 0 0 1 74.4556,-74.2876 L74.4556,-80.1531 A5.44508,5.44508 0 0 0 74.4187,-80.7864 A3.50631,3.50631 0 0 0 74.3229,-81.2864 A2.77775,2.77775 0 0 0 74.0977,-81.8615 A1.99291,1.99291 0 0 0 73.7953,-82.2883 A2.22193,2.22193 0 0 0 72.0889,-83.0001 A2.12116,2.12116 0 0 0 70.4253,-82.2626 A2.21141,2.21141 0 0 0 69.9695,-81.4509 A4.39693,4.39693 0 0 0 69.7736,-80.1531 L69.7736,-66.6214 A4.52994,4.52994 0 0 0 69.955,-65.3523 A1.90926,1.90926 0 0 0 70.3567,-64.6233 A2.0186,2.0186 0 0 0 71.9517,-63.963 A2.16311,2.16311 0 0 0 73.0665,-64.2546 A2.08762,2.08762 0 0 0 73.864,-65.1293 A3.08248,3.08248 0 0 0 74.1641,-66.5528" style="stroke:#000000;stroke-width:0.25;"/>
        <!-- Schraffur -->
        <path d="M-36.5566,-73.4815 A11.6969,11.6969 0 0 1 -36.6282,-72.1887 A7.91641,7.91641 0 0 1 -36.8169,-71.1403 A6.47537,6.47537 0 0 1 -37.243,-69.9484 A4.79713,4.79713 0 0 1 -37.8171,-69.0224 A4.50812,4.50812 0 0 1 -38.5277,-68.3056 A3.81654,3.81654 0 0 1 -39.3167,-67.8157 A3.93801,3.93801 0 0 1 -40.1781,-67.5319 A5.09393,5.09393 0 0 1 -41.2043,-67.4274 A4.19562,4.19562 0 0 1 -43.6225,-68.1392 A4.50975,4.50975 0 0 1 -45.2347,-70.2401 A8.5511,8.5511 0 0 1 -45.8007,-73.4815 A8.48376,8.48376 0 0 1 -45.2433,-76.6887 A4.5989,4.5989 0 0 1 -43.6483,-78.7896 A4.14285,4.14285 0 0 1 -41.2043,-79.5185 A5.06594,5.06594 0 0 1 -40.1771,-79.4133 A3.92349,3.92349 0 0 1 -39.3146,-79.1272 A3.81123,3.81123 0 0 1 -38.5272,-78.6353 A4.52373,4.52373 0 0 1 -37.8171,-77.9149 A4.8834,4.8834 0 0 1 -37.2434,-76.9884 A6.45741,6.45741 0 0 1 -36.8191,-75.8092 A7.82461,7.82461 0 0 1 -36.6287,-74.7641 A11.4413,11.4413 0 0 1 -36.5566,-73.4815M74.1641,-66.5528 L74.1641,-67.1187 A8.19466,8.19466 0 0 0 76.8653,-64.7262 A7.19459,7.19459 0 0 0 80.2353,-63.963 A6.72504,6.72504 0 0 0 83.5454,-64.7691 A5.12148,5.12148 0 0 0 85.7235,-67.0501 A5.42451,5.42451 0 0 0 86.3238,-68.9024 A19.1917,19.1917 0 0 0 86.461,-71.4406 L86.461,-80.1531 A5.47174,5.47174 0 0 0 86.4249,-80.7805 A3.56019,3.56019 0 0 0 86.331,-81.2787 A2.83834,2.83834 0 0 0 86.112,-81.851 A2.04369,2.04369 0 0 0 85.8178,-82.2797 A2.13682,2.13682 0 0 0 84.1457,-83.0001 A2.15902,2.15902 0 0 0 82.4478,-82.2626 A2.21141,2.21141 0 0 0 81.992,-81.4509 A4.39693,4.39693 0 0 0 81.796,-80.1531 L81.796,-72.3496 A12.6769,12.6769 0 0 1 81.592,-70.0846 A4.46653,4.46653 0 0 1 81.1529,-68.808 A2.03723,2.03723 0 0 1 80.7063,-68.2353 A2.25571,2.25571 0 0 1 80.0585,-67.8299 A2.91286,2.91286 0 0 1 79.4389,-67.653 A5.10559,5.10559 0 0 1 78.5889,-67.5818 A3.79692,3.79692 0 0 1 76.3079,-68.3278 A4.28755,4.28755 0 0 1 74.7987,-70.3773 A3.94507,3.94507 0 0 1 74.6456,-71.0233 A15.1867,15.1867 0 0 1 74.5085,-72.3185 A23.687,23.687 0 0 1 74.4707,-73.1634 A41.8675,41.8675 0 0 1 74.4556,-74.2876 L74.4556,-80.1531 A5.44508,5.44508 0 0 0 74.4187,-80.7864 A3.50631,3.50631 0 0 0 74.3229,-81.2864 A2.77775,2.77775 0 0 0 74.0977,-81.8615 A1.99291,1.99291 0 0 0 73.7953,-82.2883 A2.22193,2.22193 0 0 0 72.0889,-83.0001 A2.12116,2.12116 0 0 0 70.4253,-82.2626 A2.21141,2.21141 0 0 0 69.9695,-81.4509 A4.39693,4.39693 0 0 0 69.7736,-80.1531 L69.7736,-66.6214 A4.52994,4.52994 0 0 0 69.955,-65.3523 A1.90926,1.90926 0 0 0 70.3567,-64.6233 A2.0186,2.0186 0 0 0 71.9517,-63.963 A2.16311,2.16311 0 0 0 73.0665,-64.2546 A2.08762,2.08762 0 0 0 73.864,-65.1293 A3.08248,3.08248 0 0 0 74.1641,-66.5528M-76.7024,-72.7784 L-81.3673,-72.7784 L-81.3673,-79.8958 A5.75808,5.75808 0 0 0 -81.4081,-80.58 A3.7733,3.7733 0 0 0 -81.5143,-81.1245 A3.03716,3.03716 0 0 0 -81.7582,-81.7426 A2.25652,2.25652 0 0 0 -82.0876,-82.2111 A2.35608,2.35608 0 0 0 -83.9055,-83.0001 A2.37385,2.37385 0 0 0 -85.7578,-82.2197 A2.22995,2.22995 0 0 0 -86.0793,-81.7563 A3.03251,3.03251 0 0 0 -86.3179,-81.1434 A3.77664,3.77664 0 0 0 -86.4213,-80.6057 A5.76825,5.76825 0 0 0 -86.461,-79.9301 L-86.461,-60.5501 A6.40128,6.40128 0 0 0 -86.4194,-59.8217 A3.85455,3.85455 0 0 0 -86.3138,-59.2655 A2.88079,2.88079 0 0 0 -86.0447,-58.6024 A1.86738,1.86738 0 0 0 -85.6892,-58.149 A2.04198,2.04198 0 0 0 -85.215,-57.8184 A3.22147,3.22147 0 0 0 -84.5339,-57.5667 A4.26125,4.26125 0 0 0 -83.9677,-57.4675 A6.90975,6.90975 0 0 0 -83.2367,-57.4287 L-76.7024,-57.4287 A28.9268,28.9268 0 0 0 -73.824,-57.5723 A9.02192,9.02192 0 0 0 -72.2432,-57.8746 A6.63954,6.63954 0 0 0 -69.5763,-59.2981 A6.41841,6.41841 0 0 0 -67.8699,-61.7335 A8.5727,8.5727 0 0 0 -67.2867,-64.9749 A11.0399,11.0399 0 0 0 -67.4304,-66.75 A7.49291,7.49291 0 0 0 -67.8069,-68.168 A6.46613,6.46613 0 0 0 -68.5723,-69.6207 A6.12421,6.12421 0 0 0 -69.6535,-70.7975 A6.64709,6.64709 0 0 0 -71.0658,-71.7034 A9.90379,9.90379 0 0 0 -72.9964,-72.3867 A12.6582,12.6582 0 0 0 -74.6335,-72.6694 A19.6865,19.6865 0 0 0 -76.7024,-72.7784M43.8647,-66.6214 L43.8647,-80.1531 A5.258,5.258 0 0 0 43.8268,-80.783 A3.43274,3.43274 0 0 0 43.7283,-81.2832 A2.75805,2.75805 0 0 0 43.5018,-81.8507 A2.05111,2.05111 0 0 0 43.1958,-82.2797 A2.2162,2.2162 0 0 0 41.4979,-83.0001 A2.11429,2.11429 0 0 0 39.8258,-82.2626 A2.21548,2.21548 0 0 0 39.3763,-81.4525 A4.45586,4.45586 0 0 0 39.1826,-80.1531 L39.1826,-66.7586 A5.33124,5.33124 0 0 0 39.2187,-66.1393 A3.45255,3.45255 0 0 0 39.3124,-65.649 A2.74675,2.74675 0 0 0 39.5314,-65.0863 A1.98269,1.98269 0 0 0 39.8258,-64.6662 A2.1611,2.1611 0 0 0 41.4979,-63.963 A2.24225,2.24225 0 0 0 43.1958,-64.6662 A2.1372,2.1372 0 0 0 43.6695,-65.4474 A3.6268,3.6268 0 0 0 43.8647,-66.6214M41.5494,-61.7849 A2.47104,2.47104 0 0 0 39.8772,-61.1847 A1.91339,1.91339 0 0 0 39.5612,-60.8348 A1.93244,1.93244 0 0 0 39.339,-60.4164 A2.17768,2.17768 0 0 0 39.2255,-59.9997 A3.09193,3.09193 0 0 0 39.1826,-59.4868 A2.11,2.11 0 0 0 39.8944,-57.8489 A2.39224,2.39224 0 0 0 41.5494,-57.2058 A2.4538,2.4538 0 0 0 43.1615,-57.7889 A1.83172,1.83172 0 0 0 43.4824,-58.1336 A1.88119,1.88119 0 0 0 43.7084,-58.5539 A2.15265,2.15265 0 0 0 43.8217,-58.9692 A3.13277,3.13277 0 0 0 43.8647,-59.4868 A2.14157,2.14157 0 0 0 43.1787,-61.1761 A2.373,2.373 0 0 0 41.5494,-61.7849M66.2269,-73.4815 A11.0677,11.0677 0 0 0 65.5751,-77.3404 A8.5211,8.5211 0 0 0 63.6886,-80.376 A8.32954,8.32954 0 0 0 60.7387,-82.3226 A10.4294,10.4294 0 0 0 56.8798,-83.0001 A10.1317,10.1317 0 0 0 53.0553,-82.314 A8.4931,8.4931 0 0 0 50.114,-80.3503 A8.49048,8.49048 0 0 0 48.2274,-77.3318 A11.0363,11.0363 0 0 0 47.5843,-73.4815 A11.1711,11.1711 0 0 0 48.236,-69.5884 A8.4717,8.4717 0 0 0 50.1054,-66.5699 A8.24079,8.24079 0 0 0 53.0553,-64.6405 A10.4165,10.4165 0 0 0 56.8798,-63.963 A10.3982,10.3982 0 0 0 60.7387,-64.6491 A8.39387,8.39387 0 0 0 63.7057,-66.6042 A8.45073,8.45073 0 0 0 65.5837,-69.6227 A11.1082,11.1082 0 0 0 66.2269,-73.4815M61.5276,-73.4815 A11.6969,11.6969 0 0 1 61.456,-72.1887 A7.91641,7.91641 0 0 1 61.2673,-71.1403 A6.47537,6.47537 0 0 1 60.8412,-69.9484 A4.79713,4.79713 0 0 1 60.2671,-69.0224 A4.50812,4.50812 0 0 1 59.5565,-68.3056 A3.81654,3.81654 0 0 1 58.7675,-67.8157 A3.93801,3.93801 0 0 1 57.9061,-67.5319 A5.09393,5.09393 0 0 1 56.8798,-67.4274 A4.19562,4.19562 0 0 1 54.4616,-68.1392 A4.50975,4.50975 0 0 1 52.8495,-70.2401 A8.5511,8.5511 0 0 1 52.2835,-73.4815 A8.48376,8.48376 0 0 1 52.8409,-76.6887 A4.5989,4.5989 0 0 1 54.4359,-78.7896 A4.14285,4.14285 0 0 1 56.8798,-79.5185 A5.06594,5.06594 0 0 1 57.907,-79.4133 A3.92349,3.92349 0 0 1 58.7695,-79.1272 A3.81123,3.81123 0 0 1 59.5569,-78.6353 A4.52373,4.52373 0 0 1 60.2671,-77.9149 A4.8834,4.8834 0 0 1 60.8408,-76.9884 A6.45741,6.45741 0 0 1 61.265,-75.8092 A7.82461,7.82461 0 0 1 61.4555,-74.7641 A11.4413,11.4413 0 0 1 61.5276,-73.4815M-27.9161,-64.3746 L-27.4016,-64.3746 L-27.4016,-61.562 A20.2376,20.2376 0 0 0 -27.3416,-59.7869 A2.62147,2.62147 0 0 0 -27.0072,-58.6807 A2.11011,2.11011 0 0 0 -26.2183,-57.9003 A2.23832,2.23832 0 0 0 -25.0692,-57.6002 A2.31225,2.31225 0 0 0 -23.457,-58.2691 A1.98121,1.98121 0 0 0 -22.8482,-59.3581 A9.89329,9.89329 0 0 0 -22.7196,-61.1847 L-22.7196,-64.3746 L-21.0045,-64.3746 A3.16746,3.16746 0 0 0 -20.0646,-64.5173 A1.54978,1.54978 0 0 0 -19.4867,-64.8463 A1.55472,1.55472 0 0 0 -18.9636,-66.0554 A2.03483,2.03483 0 0 0 -19.0121,-66.4971 A1.3155,1.3155 0 0 0 -19.1363,-66.832 A1.19245,1.19245 0 0 0 -19.3671,-67.1347 A1.44595,1.44595 0 0 0 -19.7097,-67.376 A2.79299,2.79299 0 0 0 -20.4842,-67.634 A7.81983,7.81983 0 0 0 -21.8449,-67.7533 L-22.7196,-67.7533 L-22.7196,-76.3628 A13.971,13.971 0 0 1 -22.6424,-78.0521 A1.72006,1.72006 0 0 1 -22.2308,-79.0126 A0.918421,0.918421 0 0 1 -21.845,-79.2655 A2.19302,2.19302 0 0 1 -21.1417,-79.3813 A5.82344,5.82344 0 0 1 -20.0269,-79.2355 A5.78828,5.78828 0 0 0 -18.9293,-79.0897 A1.41069,1.41069 0 0 0 -17.9089,-79.5442 A1.526,1.526 0 0 0 -17.4544,-80.6676 A1.81386,1.81386 0 0 0 -17.546,-81.2369 A1.62514,1.62514 0 0 0 -17.8019,-81.7189 A1.90395,1.90395 0 0 0 -18.1508,-82.0671 A3.13806,3.13806 0 0 0 -18.6892,-82.3998 A4.72766,4.72766 0 0 0 -19.9679,-82.8094 A13.6245,13.6245 0 0 0 -22.2393,-83.0001 A11.6787,11.6787 0 0 0 -23.1969,-82.9607 A7.496,7.496 0 0 0 -23.9578,-82.8587 A5.7388,5.7388 0 0 0 -24.8987,-82.5986 A3.36559,3.36559 0 0 0 -25.5665,-82.2626 A3.42249,3.42249 0 0 0 -27.0501,-80.2217 A8.23904,8.23904 0 0 0 -27.2927,-78.9038 A21.5346,21.5346 0 0 0 -27.4016,-76.7401 L-27.4016,-67.7533 L-28.0191,-67.7533 A3.21807,3.21807 0 0 0 -28.975,-67.608 A1.5743,1.5743 0 0 0 -29.5626,-67.2731 A1.56932,1.56932 0 0 0 -30.0943,-66.0554 A1.51254,1.51254 0 0 0 -29.5369,-64.8463 A1.6647,1.6647 0 0 0 -28.9267,-64.5187 A3.61671,3.61671 0 0 0 -27.9161,-64.3746M-11.095,-76.2428 L-11.095,-80.1531 A5.37411,5.37411 0 0 0 -11.1325,-80.7873 A3.46437,3.46437 0 0 0 -11.2298,-81.288 A2.75167,2.75167 0 0 0 -11.4575,-81.8614 A1.99602,1.99602 0 0 0 -11.7638,-82.2883 A2.22899,2.22899 0 0 0 -13.4617,-83.0001 A2.14371,2.14371 0 0 0 -15.1253,-82.2797 A2.04571,2.04571 0 0 0 -15.4235,-81.8508 A2.8109,2.8109 0 0 0 -15.645,-81.28 A3.51685,3.51685 0 0 0 -15.7404,-80.7812 A5.39876,5.39876 0 0 0 -15.7771,-80.1531 L-15.7771,-67.1187 A6.78933,6.78933 0 0 0 -15.6433,-65.7779 A2.79407,2.79407 0 0 0 -15.3436,-64.9672 A2.07436,2.07436 0 0 0 -14.9952,-64.5077 A1.7366,1.7366 0 0 0 -14.5688,-64.1969 A1.89681,1.89681 0 0 0 -14.1011,-64.0282 A2.84114,2.84114 0 0 0 -13.496,-63.963 A3.20664,3.20664 0 0 0 -12.9657,-64.0072 A2.03021,2.03021 0 0 0 -12.5577,-64.1204 A1.6863,1.6863 0 0 0 -12.1372,-64.3607 A1.57473,1.57473 0 0 0 -11.8153,-64.7005 A2.45743,2.45743 0 0 0 -11.4523,-65.4886 A6.44132,6.44132 0 0 0 -11.2493,-66.8786 A8.19454,8.19454 0 0 0 -9.5257,-64.7005 A2.80523,2.80523 0 0 0 -8.5651,-64.1765 A4.68235,4.68235 0 0 0 -7.1675,-63.963 A6.03615,6.03615 0 0 0 -4.3034,-64.7005 A3.91509,3.91509 0 0 0 -3.7061,-65.0912 A2.32965,2.32965 0 0 0 -3.3182,-65.4819 A1.90454,1.90454 0 0 0 -3.0181,-66.0347 A1.90765,1.90765 0 0 0 -2.9142,-66.6557 A1.85967,1.85967 0 0 0 -3.5059,-68.0706 A1.8357,1.8357 0 0 0 -4.7836,-68.628 A5.88644,5.88644 0 0 0 -6.027,-68.3107 A5.78152,5.78152 0 0 1 -7.7678,-67.9934 A2.54619,2.54619 0 0 1 -9.4485,-68.5336 A3.46634,3.46634 0 0 1 -10.4604,-70.1372 A11.1929,11.1929 0 0 1 -10.9578,-72.6669 A39.2885,39.2885 0 0 1 -11.095,-76.2428M11.0977,-80.3589 L11.0977,-79.7586 A10.4473,10.4473 0 0 0 9.3312,-81.5423 A6.50747,6.50747 0 0 0 7.3075,-82.6142 A8.20188,8.20188 0 0 0 4.8035,-82.9657 A6.4765,6.4765 0 0 0 1.7593,-82.2626 A5.13581,5.13581 0 0 0 -0.3245,-80.3246 A4.71174,4.71174 0 0 0 -0.7223,-79.4535 A8.05291,8.05291 0 0 0 -1.0306,-78.2402 A10.4369,10.4369 0 0 0 -1.1524,-77.2602 A16.035,16.035 0 0 0 -1.1992,-76.037 L-1.1992,-66.7586 A5.52555,5.52555 0 0 0 -1.164,-66.1359 A3.5301,3.5301 0 0 0 -1.0729,-65.6457 A2.76883,2.76883 0 0 0 -0.8552,-65.0755 A1.92569,1.92569 0 0 0 -0.5646,-64.6576 A2.16733,2.16733 0 0 0 1.1162,-63.963 A2.22842,2.22842 0 0 0 2.8312,-64.6662 A1.98545,1.98545 0 0 0 3.1295,-65.0865 A2.72048,2.72048 0 0 0 3.3511,-65.6477 A3.41059,3.41059 0 0 0 3.4463,-66.1386 A5.26009,5.26009 0 0 0 3.4829,-66.7586 L3.4829,-74.2533 A11.5671,11.5671 0 0 1 3.7573,-76.9888 A3.28566,3.28566 0 0 1 4.7435,-78.721 A2.21792,2.21792 0 0 1 5.5238,-79.1653 A3.72358,3.72358 0 0 1 6.6729,-79.347 A3.92661,3.92661 0 0 1 8.9025,-78.6438 A4.10473,4.10473 0 0 1 10.4289,-76.8087 A2.97624,2.97624 0 0 1 10.6026,-76.1722 A16.0885,16.0885 0 0 1 10.7675,-74.647 A26.9484,26.9484 0 0 1 10.8072,-73.7168 A49.6999,49.6999 0 0 1 10.8233,-72.4525 L10.8233,-66.7586 A5.25996,5.25996 0 0 0 10.86,-66.1385 A3.41023,3.41023 0 0 0 10.9552,-65.6475 A2.72024,2.72024 0 0 0 11.1767,-65.0864 A1.98544,1.98544 0 0 0 11.475,-64.6662 A2.20803,2.20803 0 0 0 13.1729,-63.963 A2.16733,2.16733 0 0 0 14.8537,-64.6576 A1.9257,1.9257 0 0 0 15.1444,-65.0756 A2.76909,2.76909 0 0 0 15.3621,-65.6459 A3.53049,3.53049 0 0 0 15.4531,-66.136 A5.5257,5.5257 0 0 0 15.4882,-66.7586 L15.4882,-80.3246 A4.35719,4.35719 0 0 0 15.3005,-81.5897 A1.93707,1.93707 0 0 0 14.8794,-82.3312 A2.02542,2.02542 0 0 0 13.3101,-83.0001 A2.04267,2.04267 0 0 0 11.7237,-82.3055 A2.10757,2.10757 0 0 0 11.2829,-81.5397 A3.85714,3.85714 0 0 0 11.0977,-80.3589M35.225,-76.8773 A5.7398,5.7398 0 0 0 34.2817,-80.1959 A4.94519,4.94519 0 0 0 33.1676,-81.3609 A6.96288,6.96288 0 0 0 31.4948,-82.2883 A9.25214,9.25214 0 0 0 29.6128,-82.7948 A16.6068,16.6068 0 0 0 27.0099,-83.0001 A14.0855,14.0855 0 0 0 24.5338,-82.7807 A8.46207,8.46207 0 0 0 22.688,-82.2283 A8.60068,8.60068 0 0 0 21.024,-81.2835 A4.59978,4.59978 0 0 0 20.0297,-80.2989 A4.90914,4.90914 0 0 0 19.3689,-79.0763 A3.18126,3.18126 0 0 0 19.1722,-77.975 A1.80032,1.80032 0 0 0 19.721,-76.6544 A1.88265,1.88265 0 0 0 21.1102,-76.1056 A1.62112,1.62112 0 0 0 22.2421,-76.4657 A3.94533,3.94533 0 0 0 22.9967,-77.4776 A5.13094,5.13094 0 0 1 24.7203,-79.347 A3.47538,3.47538 0 0 1 25.7766,-79.7773 A7.62705,7.62705 0 0 1 27.4558,-79.9644 A5.15436,5.15436 0 0 1 28.8058,-79.7845 A3.09711,3.09711 0 0 1 29.7626,-79.3384 A3.14862,3.14862 0 0 1 30.1445,-79.0257 A1.93487,1.93487 0 0 1 30.3957,-78.7313 A1.55517,1.55517 0 0 1 30.5969,-78.3249 A1.35774,1.35774 0 0 1 30.663,-77.9064 A2.83047,2.83047 0 0 1 30.6028,-77.3259 A1.91266,1.91266 0 0 1 30.4463,-76.8723 A1.74244,1.74244 0 0 1 30.1553,-76.4519 A2.01466,2.01466 0 0 1 29.7283,-76.1056 A5.23417,5.23417 0 0 1 28.7506,-75.6441 A21.4818,21.4818 0 0 1 26.6498,-75.0251 A25.5183,25.5183 0 0 0 22.7137,-73.7645 A6.4811,6.4811 0 0 0 20.2869,-72.0238 A3.98933,3.98933 0 0 0 19.378,-69.3654 A4.68848,4.68848 0 0 0 20.2183,-66.7071 A5.76447,5.76447 0 0 0 22.6966,-64.7091 A7.35104,7.35104 0 0 0 24.3805,-64.1753 A12.2367,12.2367 0 0 0 26.6498,-63.963 A12.987,12.987 0 0 0 29.9169,-64.3403 A8.14695,8.14695 0 0 0 32.3351,-65.3522 A4.99339,4.99339 0 0 0 33.8101,-66.7586 A2.75147,2.75147 0 0 0 34.316,-68.2678 A1.74308,1.74308 0 0 0 33.7758,-69.5884 A1.61676,1.61676 0 0 0 33.1746,-69.9506 A2.93815,2.93815 0 0 0 32.2408,-70.1029 A1.8808,1.8808 0 0 0 31.0146,-69.6913 A8.08622,8.08622 0 0 0 29.8569,-68.4565 A4.2322,4.2322 0 0 1 28.6049,-67.3588 A2.59728,2.59728 0 0 1 27.8514,-67.0723 A5.83275,5.83275 0 0 1 26.6498,-66.9472 A3.82871,3.82871 0 0 1 24.5403,-67.4875 A2.55029,2.55029 0 0 1 24.1767,-67.7707 A1.6319,1.6319 0 0 1 23.9377,-68.0514 A1.39247,1.39247 0 0 1 23.7609,-68.4235 A1.41048,1.41048 0 0 1 23.6999,-68.8338 A1.45743,1.45743 0 0 1 24.3173,-70.0429 A5.12547,5.12547 0 0 1 25.9809,-70.8232 A64.8752,64.8752 0 0 1 28.8622,-71.5778 A15.3911,15.3911 0 0 0 32.4209,-72.847 A5.91588,5.91588 0 0 0 34.5132,-74.5877 A3.85886,3.85886 0 0 0 35.225,-76.8773M-77.9372,-61.2533 L-81.3673,-61.2533 L-81.3673,-68.9367 L-77.9372,-68.9367 A10.246,10.246 0 0 1 -74.9273,-68.5594 A3.50809,3.50809 0 0 1 -73.0836,-67.3245 A2.84244,2.84244 0 0 1 -72.6331,-66.4063 A4.88764,4.88764 0 0 1 -72.449,-65.0778 A5.15376,5.15376 0 0 1 -72.5095,-64.2905 A3.88458,3.88458 0 0 1 -72.6736,-63.6249 A3.53668,3.53668 0 0 1 -72.9855,-62.9536 A3.46841,3.46841 0 0 1 -73.4266,-62.368 A2.36807,2.36807 0 0 1 -74.1671,-61.859 A6.30445,6.30445 0 0 1 -75.5699,-61.433 A9.85134,9.85134 0 0 1 -76.5716,-61.305 A18.0427,18.0427 0 0 1 -77.9372,-61.2533M-58.7156,-76.2428 L-58.7156,-80.1531 A5.37411,5.37411 0 0 0 -58.7532,-80.7873 A3.46437,3.46437 0 0 0 -58.8505,-81.288 A2.75167,2.75167 0 0 0 -59.0782,-81.8614 A1.99602,1.99602 0 0 0 -59.3845,-82.2883 A2.22899,2.22899 0 0 0 -61.0824,-83.0001 A2.14371,2.14371 0 0 0 -62.746,-82.2797 A2.04571,2.04571 0 0 0 -63.0441,-81.8508 A2.8109,2.8109 0 0 0 -63.2657,-81.28 A3.51685,3.51685 0 0 0 -63.361,-80.7812 A5.39876,5.39876 0 0 0 -63.3977,-80.1531 L-63.3977,-67.1187 A6.78933,6.78933 0 0 0 -63.264,-65.7779 A2.79407,2.79407 0 0 0 -62.9643,-64.9672 A2.07436,2.07436 0 0 0 -62.6158,-64.5077 A1.7366,1.7366 0 0 0 -62.1895,-64.1969 A1.89681,1.89681 0 0 0 -61.7217,-64.0282 A2.84114,2.84114 0 0 0 -61.1167,-63.963 A3.20664,3.20664 0 0 0 -60.5864,-64.0072 A2.03021,2.03021 0 0 0 -60.1783,-64.1204 A1.6863,1.6863 0 0 0 -59.7578,-64.3607 A1.57473,1.57473 0 0 0 -59.436,-64.7005 A2.45743,2.45743 0 0 0 -59.0729,-65.4886 A6.44132,6.44132 0 0 0 -58.87,-66.8786 A8.19454,8.19454 0 0 0 -57.1464,-64.7005 A2.80523,2.80523 0 0 0 -56.1857,-64.1765 A4.68235,4.68235 0 0 0 -54.7882,-63.963 A6.03615,6.03615 0 0 0 -51.9241,-64.7005 A3.91509,3.91509 0 0 0 -51.3268,-65.0912 A2.32965,2.32965 0 0 0 -50.9389,-65.4819 A1.90454,1.90454 0 0 0 -50.6387,-66.0347 A1.90765,1.90765 0 0 0 -50.5349,-66.6557 A1.85967,1.85967 0 0 0 -51.1266,-68.0706 A1.8357,1.8357 0 0 0 -52.4043,-68.628 A5.88644,5.88644 0 0 0 -53.6477,-68.3107 A5.78152,5.78152 0 0 1 -55.3884,-67.9934 A2.54619,2.54619 0 0 1 -57.0692,-68.5336 A3.46634,3.46634 0 0 1 -58.0811,-70.1372 A11.1929,11.1929 0 0 1 -58.5784,-72.6669 A39.2885,39.2885 0 0 1 -58.7156,-76.2428M-31.8573,-73.4815 A11.0677,11.0677 0 0 0 -32.509,-77.3404 A8.5211,8.5211 0 0 0 -34.3956,-80.376 A8.32954,8.32954 0 0 0 -37.3455,-82.3226 A10.4294,10.4294 0 0 0 -41.2043,-83.0001 A10.1317,10.1317 0 0 0 -45.0289,-82.314 A8.4931,8.4931 0 0 0 -47.9702,-80.3503 A8.49048,8.49048 0 0 0 -49.8567,-77.3318 A11.0363,11.0363 0 0 0 -50.4999,-73.4815 A11.1711,11.1711 0 0 0 -49.8482,-69.5884 A8.4717,8.4717 0 0 0 -47.9788,-66.5699 A8.24079,8.24079 0 0 0 -45.0289,-64.6405 A10.4165,10.4165 0 0 0 -41.2043,-63.963 A10.3982,10.3982 0 0 0 -37.3455,-64.6491 A8.39387,8.39387 0 0 0 -34.3784,-66.6042 A8.45073,8.45073 0 0 0 -32.5005,-69.6227 A11.1082,11.1082 0 0 0 -31.8573,-73.4815" style="fill:#000000;fill-rule:evenodd;"/>
    </g>
</svg>
