<?xml version="1.0" encoding="UTF-8"?>
<!-- 2020-10-25 13:24:34 Generated by QCAD 3.24.2 SVG Exporter PG -->
<svg width="210.5mm" height="210.5mm" viewBox="-105.25 -105.25 210.5 210.5" version="1.1" xmlns="http://www.w3.org/2000/svg" style="stroke-linecap:round;stroke-linejoin:round;fill:none">
    <g transform="scale(1,-1)">
        <!-- Polylinie -->
        <path d="M-90,-100 L90,-100 A10,10 0 0 1 100,-90 L100,90 A10,10 0 0 1 90,100 L-90,100 A10,10 0 0 1 -100,90 L-100,-90 A10,10 0 0 1 -90,-100" style="stroke:#000000;stroke-width:0.25;"/>
        <!-- Polylinie -->
        <path d="M-37.7968,-67.7309 A11.3666,11.3666 0 0 0 -39.6042,-74.0369 A10.6453,10.6453 0 0 0 -40.6445,-75.3938 A11.3896,11.3896 0 0 0 -41.9281,-76.6103 A12.3248,12.3248 0 0 0 -43.2754,-77.5599 A15.2241,15.2241 0 0 0 -44.8945,-78.4169 A15.3528,15.3528 0 0 0 -46.7735,-79.1267 A18.8028,18.8028 0 0 0 -48.9346,-79.6476 A21.1682,21.1682 0 0 0 -50.9082,-79.9064 A26.9674,26.9674 0 0 0 -53.153,-80 A27.8358,27.8358 0 0 0 -55.7913,-79.8747 A20.3748,20.3748 0 0 0 -58.0256,-79.5361 A17.4039,17.4039 0 0 0 -60.5305,-78.8135 A13.4001,13.4001 0 0 0 -62.5989,-77.8364 A12.5849,12.5849 0 0 0 -66.8865,-73.6807 A13.2989,13.2989 0 0 0 -67.5913,-72.4244 A10.0516,10.0516 0 0 0 -68.0729,-71.2682 A8.84525,8.84525 0 0 0 -68.4242,-69.9091 A7.42174,7.42174 0 0 0 -68.5356,-68.628 A3.37295,3.37295 0 0 0 -67.5462,-66.1873 A3.36653,3.36653 0 0 0 -65.0264,-65.1715 A2.97883,2.97883 0 0 0 -62.9288,-65.9631 A4.27748,4.27748 0 0 0 -62.2005,-66.8428 A8.85036,8.85036 0 0 0 -61.4644,-68.3113 A15.6903,15.6903 0 0 1 -59.8681,-71.3984 A6.47118,6.47118 0 0 1 -57.4538,-73.4433 A6.06948,6.06948 0 0 1 -55.8385,-74.0069 A12.8157,12.8157 0 0 1 -53.3641,-74.248 A13.6336,13.6336 0 0 1 -51.7505,-74.1522 A9.90956,9.90956 0 0 1 -50.3967,-73.8943 A8.56892,8.56892 0 0 1 -48.928,-73.3596 A7.14275,7.14275 0 0 1 -47.7045,-72.6253 A6.71074,6.71074 0 0 1 -46.7474,-71.7566 A4.81727,4.81727 0 0 1 -46.1081,-70.8675 A4.45053,4.45053 0 0 1 -45.679,-69.7892 A4.94622,4.94622 0 0 1 -45.5277,-68.5752 A5.74128,5.74128 0 0 1 -45.6009,-67.6615 A4.33377,4.33377 0 0 1 -45.7993,-66.8903 A3.97246,3.97246 0 0 1 -46.1721,-66.1216 A3.99194,3.99194 0 0 1 -46.7018,-65.4485 A7.57156,7.57156 0 0 1 -49.7361,-63.6148 A52.1803,52.1803 0 0 1 -54.7098,-62.2691 A49.6071,49.6071 0 0 0 -58.8184,-61.1185 A25.9389,25.9389 0 0 0 -61.6887,-59.9868 A11.2786,11.2786 0 0 0 -66.1478,-56.4248 A7.83483,7.83483 0 0 0 -66.8901,-55.1829 A8.66039,8.66039 0 0 0 -67.4236,-53.7583 A9.62954,9.62954 0 0 0 -67.6969,-52.3984 A12.5525,12.5525 0 0 0 -67.7968,-50.8179 A9.6286,9.6286 0 0 0 -66.0554,-45.1451 A9.46583,9.46583 0 0 0 -65.0542,-43.9439 A10.3735,10.3735 0 0 0 -63.8174,-42.8716 A11.3638,11.3638 0 0 0 -62.5458,-42.0586 A14.3082,14.3082 0 0 0 -61.0158,-41.3325 A16.4194,16.4194 0 0 0 -57.645,-40.374 A25.9107,25.9107 0 0 0 -53.2586,-40 A24.7893,24.7893 0 0 0 -49.7381,-40.2513 A14.6716,14.6716 0 0 0 -47.0976,-40.8839 A13.0204,13.0204 0 0 0 -42.7836,-43.2322 A9.80945,9.80945 0 0 0 -40.277,-46.3061 A7.08865,7.08865 0 0 0 -39.4855,-49.4459 A3.71098,3.71098 0 0 0 -40.4749,-51.9657 A3.15551,3.15551 0 0 0 -42.942,-53.0871 A4.78932,4.78932 0 0 0 -43.5492,-53.0484 A3.16478,3.16478 0 0 0 -44.0335,-52.9475 A2.58402,2.58402 0 0 0 -44.572,-52.7219 A2.02188,2.02188 0 0 0 -44.9868,-52.4142 A4.77024,4.77024 0 0 0 -45.608,-51.6824 A15.3618,15.3618 0 0 0 -46.504,-50.2111 A12.6892,12.6892 0 0 1 -47.7412,-48.1633 A7.87632,7.87632 0 0 1 -49.0369,-46.7942 A3.86105,3.86105 0 0 1 -49.9444,-46.2324 A6.88858,6.88858 0 0 1 -51.3012,-45.7948 A9.36238,9.36238 0 0 1 -52.3841,-45.6313 A15.3801,15.3801 0 0 1 -53.7863,-45.5673 A12.5752,12.5752 0 0 1 -55.1809,-45.6449 A8.98314,8.98314 0 0 1 -56.343,-45.8526 A7.63448,7.63448 0 0 1 -57.6296,-46.296 A6.05721,6.05721 0 0 1 -58.6807,-46.8997 A6.01797,6.01797 0 0 1 -59.4865,-47.5923 A3.99339,3.99339 0 0 1 -60.0198,-48.274 A3.46315,3.46315 0 0 1 -60.4079,-49.1519 A3.48473,3.48473 0 0 1 -60.5409,-50.1055 A3.2476,3.2476 0 0 1 -59.9077,-52.1108 A5.33083,5.33083 0 0 1 -58.1662,-53.562 A11.7407,11.7407 0 0 1 -55.9235,-54.5119 A95.0988,95.0988 0 0 1 -52.1768,-55.5145 A58.7904,58.7904 0 0 0 -46.2533,-57.2032 A17.9991,17.9991 0 0 0 -41.7414,-59.4459 A9.22543,9.22543 0 0 0 -38.8391,-62.7836 A8.2754,8.2754 0 0 0 -38.0944,-64.8744 A13.8568,13.8568 0 0 0 -37.7968,-67.7309" style="stroke:#000000;stroke-width:0.25;"/>
        <!-- Polylinie -->
        <path d="M-23.476,-44.7493 L-23.476,-72.9024 L-7.5921,-72.9024 A6.98089,6.98089 0 0 0 -6.7331,-72.9554 A4.66704,4.66704 0 0 0 -6.0433,-73.0944 A3.82809,3.82809 0 0 0 -5.2739,-73.4043 A2.97447,2.97447 0 0 0 -4.6765,-73.8259 A3.0049,3.0049 0 0 0 -3.6607,-76.1478 A2.9316,2.9316 0 0 0 -4.6633,-78.4565 A2.87443,2.87443 0 0 0 -5.2574,-78.8605 A3.9397,3.9397 0 0 0 -6.043,-79.1607 A4.90816,4.90816 0 0 0 -6.7302,-79.2906 A7.48126,7.48126 0 0 0 -7.5921,-79.3404 L-26.5103,-79.3404 A10.1233,10.1233 0 0 0 -27.619,-79.2795 A6.13588,6.13588 0 0 0 -28.4694,-79.1245 A4.58865,4.58865 0 0 0 -29.4912,-78.7277 A2.9108,2.9108 0 0 0 -30.191,-78.2058 A2.97566,2.97566 0 0 0 -30.7065,-77.5025 A4.63322,4.63322 0 0 0 -31.0977,-76.4872 A6.14779,6.14779 0 0 0 -31.252,-75.639 A10.0525,10.0525 0 0 0 -31.3124,-74.5383 L-31.3124,-44.7493 A9.36778,9.36778 0 0 0 -31.253,-43.6959 A6.01786,6.01786 0 0 0 -31.0991,-42.8644 A4.73962,4.73962 0 0 0 -30.733,-41.899 A3.31544,3.31544 0 0 0 -30.2438,-41.1873 A3.66711,3.66711 0 0 0 -29.6444,-40.6528 A3.34858,3.34858 0 0 0 -28.9722,-40.2823 A3.54601,3.54601 0 0 0 -28.268,-40.0759 A4.62144,4.62144 0 0 0 -27.4338,-40 A4.82509,4.82509 0 0 0 -26.5881,-40.0747 A3.69873,3.69873 0 0 0 -25.8732,-40.2778 A3.47261,3.47261 0 0 0 -25.1841,-40.6455 A3.73084,3.73084 0 0 0 -24.571,-41.1741 A3.23991,3.23991 0 0 0 -24.0691,-41.883 A4.64663,4.64663 0 0 0 -23.6935,-42.8529 A5.93431,5.93431 0 0 0 -23.5367,-43.6871 A9.32313,9.32313 0 0 0 -23.476,-44.7493" style="stroke:#000000;stroke-width:0.25;"/>
        <!-- Polylinie -->
        <path d="M15.7958,-40 A27.6552,27.6552 0 0 0 18.6361,-40.1462 A21.7352,21.7352 0 0 0 21.1249,-40.5502 A19.5264,19.5264 0 0 0 23.7882,-41.3455 A16.8396,16.8396 0 0 0 26.1256,-42.4406 A15.8197,15.8197 0 0 0 32.6559,-49.3799 A19.1825,19.1825 0 0 0 33.6485,-51.7974 A22.4667,22.4667 0 0 0 34.3713,-54.5317 A24.9096,24.9096 0 0 0 34.7397,-57.0751 A31.1812,31.1812 0 0 0 34.8723,-59.9472 A30.1037,30.1037 0 0 0 34.5442,-64.3798 A22.2869,22.2869 0 0 0 33.6586,-68.1003 A17.6387,17.6387 0 0 0 30.0174,-74.4591 A15.9078,15.9078 0 0 0 24.0544,-78.5752 A18.0093,18.0093 0 0 0 20.4428,-79.6082 A25.9107,25.9107 0 0 0 15.9541,-80 A25.1499,25.1499 0 0 0 11.494,-79.6014 A18.2874,18.2874 0 0 0 7.8274,-78.5356 A16.1201,16.1201 0 0 0 1.838,-74.4063 A17.6384,17.6384 0 0 0 -1.79,-67.9947 A25.8834,25.8834 0 0 0 -3.0169,-59.8945 A25.0075,25.0075 0 0 0 -1.7372,-51.715 A17.5471,17.5471 0 0 0 1.9699,-45.3826 A16.0329,16.0329 0 0 0 7.8802,-41.3852 A18.0303,18.0303 0 0 0 11.4356,-40.3786 A25.294,25.294 0 0 0 15.7958,-40" style="stroke:#000000;stroke-width:0.25;"/>
        <!-- Polylinie -->
        <path d="M26.9303,-59.8945 A22.7423,22.7423 0 0 1 26.5453,-55.7275 A14.5184,14.5184 0 0 1 25.5583,-52.533 A12.8317,12.8317 0 0 1 24.8053,-51.0824 A10.4392,10.4392 0 0 1 23.957,-49.8768 A9.71924,9.71924 0 0 1 22.8701,-48.744 A9.30899,9.30899 0 0 1 21.6401,-47.8232 A10.1253,10.1253 0 0 1 20.2893,-47.1122 A10.3149,10.3149 0 0 1 18.8339,-46.6066 A10.8735,10.8735 0 0 1 17.3913,-46.3262 A12.8666,12.8666 0 0 1 15.7958,-46.2269 A10.5806,10.5806 0 0 1 11.4554,-47.1108 A9.53717,9.53717 0 0 1 8.0253,-49.6834 A9.88846,9.88846 0 0 1 6.8023,-51.4911 A15.3094,15.3094 0 0 1 5.7562,-53.9974 A19.4954,19.4954 0 0 1 4.9251,-59.8945 A19.9822,19.9822 0 0 1 5.7562,-65.8575 A14.8005,14.8005 0 0 1 6.8154,-68.3956 A10.1788,10.1788 0 0 1 8.1045,-70.277 A9.86503,9.86503 0 0 1 11.5873,-72.9024 A10.533,10.533 0 0 1 15.9013,-73.7731 A10.5865,10.5865 0 0 1 21.429,-72.2691 A8.88121,8.88121 0 0 1 22.6603,-71.3834 A9.7964,9.7964 0 0 1 23.781,-70.2512 A10.7937,10.7937 0 0 1 24.6437,-69.0708 A13.7512,13.7512 0 0 1 25.4396,-67.6253 A12.9139,12.9139 0 0 1 26.1108,-65.9032 A16.9338,16.9338 0 0 1 26.6087,-63.8461 A19.6531,19.6531 0 0 1 26.844,-62.0193 A26.195,26.195 0 0 1 26.9303,-59.8945" style="stroke:#000000;stroke-width:0.25;"/>
        <!-- Polylinie -->
        <path d="M64.5251,-47.124 L55.9763,-47.124 L55.9763,-75.2243 A9.63821,9.63821 0 0 0 55.9167,-76.2939 A6.09371,6.09371 0 0 0 55.7632,-77.1318 A4.73112,4.73112 0 0 0 55.3903,-78.1152 A3.21197,3.21197 0 0 0 54.8945,-78.8259 A3.62943,3.62943 0 0 0 52.0976,-80 A3.68174,3.68174 0 0 0 49.2612,-78.8127 A3.29743,3.29743 0 0 0 48.7596,-78.0983 A4.6956,4.6956 0 0 0 48.3846,-77.1266 A5.97179,5.97179 0 0 0 48.2271,-76.2885 A9.33383,9.33383 0 0 0 48.1662,-75.2243 L48.1662,-47.124 L39.6174,-47.124 A8.05649,8.05649 0 0 0 38.7338,-47.0754 A5.10472,5.10472 0 0 0 38.0406,-46.95 A3.96491,3.96491 0 0 0 37.2255,-46.6451 A2.67847,2.67847 0 0 0 36.6359,-46.2401 A2.99868,2.99868 0 0 0 35.6596,-43.905 A3.99477,3.99477 0 0 0 35.724,-43.1908 A2.95156,2.95156 0 0 0 35.8969,-42.5992 A2.72806,2.72806 0 0 0 36.2161,-42.0276 A2.91641,2.91641 0 0 0 36.6755,-41.5303 A2.93576,2.93576 0 0 0 37.2749,-41.1326 A4.03623,4.03623 0 0 0 38.0647,-40.8369 A5.01723,5.01723 0 0 0 38.7547,-40.7087 A7.60741,7.60741 0 0 0 39.6174,-40.6596 L64.5251,-40.6596 A8.14834,8.14834 0 0 0 65.4206,-40.709 A5.16435,5.16435 0 0 0 66.1231,-40.8363 A4.01304,4.01304 0 0 0 66.9487,-41.1457 A2.71558,2.71558 0 0 0 67.5462,-41.5567 A3.02022,3.02022 0 0 0 68.5356,-43.905 A2.96135,2.96135 0 0 0 67.533,-46.2401 A2.79651,2.79651 0 0 0 66.9322,-46.6447 A4.06604,4.06604 0 0 0 66.1133,-46.9484 A5.18229,5.18229 0 0 0 65.4127,-47.0751 A8.07866,8.07866 0 0 0 64.5251,-47.124" style="stroke:#000000;stroke-width:0.25;"/>
        <!-- Schraffur -->
        <path d="M-37.7968,-67.7309 A11.3666,11.3666 0 0 0 -39.6042,-74.0369 A10.6453,10.6453 0 0 0 -40.6445,-75.3938 A11.3896,11.3896 0 0 0 -41.9281,-76.6103 A12.3248,12.3248 0 0 0 -43.2754,-77.5599 A15.2241,15.2241 0 0 0 -44.8945,-78.4169 A15.3528,15.3528 0 0 0 -46.7735,-79.1267 A18.8028,18.8028 0 0 0 -48.9346,-79.6476 A21.1682,21.1682 0 0 0 -50.9082,-79.9064 A26.9674,26.9674 0 0 0 -53.153,-80 A27.8358,27.8358 0 0 0 -55.7913,-79.8747 A20.3748,20.3748 0 0 0 -58.0256,-79.5361 A17.4039,17.4039 0 0 0 -60.5305,-78.8135 A13.4001,13.4001 0 0 0 -62.5989,-77.8364 A12.5849,12.5849 0 0 0 -66.8865,-73.6807 A13.2989,13.2989 0 0 0 -67.5913,-72.4244 A10.0516,10.0516 0 0 0 -68.0729,-71.2682 A8.84525,8.84525 0 0 0 -68.4242,-69.9091 A7.42174,7.42174 0 0 0 -68.5356,-68.628 A3.37295,3.37295 0 0 0 -67.5462,-66.1873 A3.36653,3.36653 0 0 0 -65.0264,-65.1715 A2.97883,2.97883 0 0 0 -62.9288,-65.9631 A4.27748,4.27748 0 0 0 -62.2005,-66.8428 A8.85036,8.85036 0 0 0 -61.4644,-68.3113 A15.6903,15.6903 0 0 1 -59.8681,-71.3984 A6.47118,6.47118 0 0 1 -57.4538,-73.4433 A6.06948,6.06948 0 0 1 -55.8385,-74.0069 A12.8157,12.8157 0 0 1 -53.3641,-74.248 A13.6336,13.6336 0 0 1 -51.7505,-74.1522 A9.90956,9.90956 0 0 1 -50.3967,-73.8943 A8.56892,8.56892 0 0 1 -48.928,-73.3596 A7.14275,7.14275 0 0 1 -47.7045,-72.6253 A6.71074,6.71074 0 0 1 -46.7474,-71.7566 A4.81727,4.81727 0 0 1 -46.1081,-70.8675 A4.45053,4.45053 0 0 1 -45.679,-69.7892 A4.94622,4.94622 0 0 1 -45.5277,-68.5752 A5.74128,5.74128 0 0 1 -45.6009,-67.6615 A4.33377,4.33377 0 0 1 -45.7993,-66.8903 A3.97246,3.97246 0 0 1 -46.1721,-66.1216 A3.99194,3.99194 0 0 1 -46.7018,-65.4485 A7.57156,7.57156 0 0 1 -49.7361,-63.6148 A52.1803,52.1803 0 0 1 -54.7098,-62.2691 A49.6071,49.6071 0 0 0 -58.8184,-61.1185 A25.9389,25.9389 0 0 0 -61.6887,-59.9868 A11.2786,11.2786 0 0 0 -66.1478,-56.4248 A7.83483,7.83483 0 0 0 -66.8901,-55.1829 A8.66039,8.66039 0 0 0 -67.4236,-53.7583 A9.62954,9.62954 0 0 0 -67.6969,-52.3984 A12.5525,12.5525 0 0 0 -67.7968,-50.8179 A9.6286,9.6286 0 0 0 -66.0554,-45.1451 A9.46583,9.46583 0 0 0 -65.0542,-43.9439 A10.3735,10.3735 0 0 0 -63.8174,-42.8716 A11.3638,11.3638 0 0 0 -62.5458,-42.0586 A14.3082,14.3082 0 0 0 -61.0158,-41.3325 A16.4194,16.4194 0 0 0 -57.645,-40.374 A25.9107,25.9107 0 0 0 -53.2586,-40 A24.7893,24.7893 0 0 0 -49.7381,-40.2513 A14.6716,14.6716 0 0 0 -47.0976,-40.8839 A13.0204,13.0204 0 0 0 -42.7836,-43.2322 A9.80945,9.80945 0 0 0 -40.277,-46.3061 A7.08865,7.08865 0 0 0 -39.4855,-49.4459 A3.71098,3.71098 0 0 0 -40.4749,-51.9657 A3.15551,3.15551 0 0 0 -42.942,-53.0871 A4.78932,4.78932 0 0 0 -43.5492,-53.0484 A3.16478,3.16478 0 0 0 -44.0335,-52.9475 A2.58402,2.58402 0 0 0 -44.572,-52.7219 A2.02188,2.02188 0 0 0 -44.9868,-52.4142 A4.77024,4.77024 0 0 0 -45.608,-51.6824 A15.3618,15.3618 0 0 0 -46.504,-50.2111 A12.6892,12.6892 0 0 1 -47.7412,-48.1633 A7.87632,7.87632 0 0 1 -49.0369,-46.7942 A3.86105,3.86105 0 0 1 -49.9444,-46.2324 A6.88858,6.88858 0 0 1 -51.3012,-45.7948 A9.36238,9.36238 0 0 1 -52.3841,-45.6313 A15.3801,15.3801 0 0 1 -53.7863,-45.5673 A12.5752,12.5752 0 0 1 -55.1809,-45.6449 A8.98314,8.98314 0 0 1 -56.343,-45.8526 A7.63448,7.63448 0 0 1 -57.6296,-46.296 A6.05721,6.05721 0 0 1 -58.6807,-46.8997 A6.01797,6.01797 0 0 1 -59.4865,-47.5923 A3.99339,3.99339 0 0 1 -60.0198,-48.274 A3.46315,3.46315 0 0 1 -60.4079,-49.1519 A3.48473,3.48473 0 0 1 -60.5409,-50.1055 A3.2476,3.2476 0 0 1 -59.9077,-52.1108 A5.33083,5.33083 0 0 1 -58.1662,-53.562 A11.7407,11.7407 0 0 1 -55.9235,-54.5119 A95.0988,95.0988 0 0 1 -52.1768,-55.5145 A58.7904,58.7904 0 0 0 -46.2533,-57.2032 A17.9991,17.9991 0 0 0 -41.7414,-59.4459 A9.22543,9.22543 0 0 0 -38.8391,-62.7836 A8.2754,8.2754 0 0 0 -38.0944,-64.8744 A13.8568,13.8568 0 0 0 -37.7968,-67.7309M-23.476,-44.7493 L-23.476,-72.9024 L-7.5921,-72.9024 A6.98089,6.98089 0 0 0 -6.7331,-72.9554 A4.66704,4.66704 0 0 0 -6.0433,-73.0944 A3.82809,3.82809 0 0 0 -5.2739,-73.4043 A2.97447,2.97447 0 0 0 -4.6765,-73.8259 A3.0049,3.0049 0 0 0 -3.6607,-76.1478 A2.9316,2.9316 0 0 0 -4.6633,-78.4565 A2.87443,2.87443 0 0 0 -5.2574,-78.8605 A3.9397,3.9397 0 0 0 -6.043,-79.1607 A4.90816,4.90816 0 0 0 -6.7302,-79.2906 A7.48126,7.48126 0 0 0 -7.5921,-79.3404 L-26.5103,-79.3404 A10.1233,10.1233 0 0 0 -27.619,-79.2795 A6.13588,6.13588 0 0 0 -28.4694,-79.1245 A4.58865,4.58865 0 0 0 -29.4912,-78.7277 A2.9108,2.9108 0 0 0 -30.191,-78.2058 A2.97566,2.97566 0 0 0 -30.7065,-77.5025 A4.63322,4.63322 0 0 0 -31.0977,-76.4872 A6.14779,6.14779 0 0 0 -31.252,-75.639 A10.0525,10.0525 0 0 0 -31.3124,-74.5383 L-31.3124,-44.7493 A9.36778,9.36778 0 0 0 -31.253,-43.6959 A6.01786,6.01786 0 0 0 -31.0991,-42.8644 A4.73962,4.73962 0 0 0 -30.733,-41.899 A3.31544,3.31544 0 0 0 -30.2438,-41.1873 A3.66711,3.66711 0 0 0 -29.6444,-40.6528 A3.34858,3.34858 0 0 0 -28.9722,-40.2823 A3.54601,3.54601 0 0 0 -28.268,-40.0759 A4.62144,4.62144 0 0 0 -27.4338,-40 A4.82509,4.82509 0 0 0 -26.5881,-40.0747 A3.69873,3.69873 0 0 0 -25.8732,-40.2778 A3.47261,3.47261 0 0 0 -25.1841,-40.6455 A3.73084,3.73084 0 0 0 -24.571,-41.1741 A3.23991,3.23991 0 0 0 -24.0691,-41.883 A4.64663,4.64663 0 0 0 -23.6935,-42.8529 A5.93431,5.93431 0 0 0 -23.5367,-43.6871 A9.32313,9.32313 0 0 0 -23.476,-44.7493M15.7958,-40 A27.6552,27.6552 0 0 0 18.6361,-40.1462 A21.7352,21.7352 0 0 0 21.1249,-40.5502 A19.5264,19.5264 0 0 0 23.7882,-41.3455 A16.8396,16.8396 0 0 0 26.1256,-42.4406 A15.8197,15.8197 0 0 0 32.6559,-49.3799 A19.1825,19.1825 0 0 0 33.6485,-51.7974 A22.4667,22.4667 0 0 0 34.3713,-54.5317 A24.9096,24.9096 0 0 0 34.7397,-57.0751 A31.1812,31.1812 0 0 0 34.8723,-59.9472 A30.1037,30.1037 0 0 0 34.5442,-64.3798 A22.2869,22.2869 0 0 0 33.6586,-68.1003 A17.6387,17.6387 0 0 0 30.0174,-74.4591 A15.9078,15.9078 0 0 0 24.0544,-78.5752 A18.0093,18.0093 0 0 0 20.4428,-79.6082 A25.9107,25.9107 0 0 0 15.9541,-80 A25.1499,25.1499 0 0 0 11.494,-79.6014 A18.2874,18.2874 0 0 0 7.8274,-78.5356 A16.1201,16.1201 0 0 0 1.838,-74.4063 A17.6384,17.6384 0 0 0 -1.79,-67.9947 A25.8834,25.8834 0 0 0 -3.0169,-59.8945 A25.0075,25.0075 0 0 0 -1.7372,-51.715 A17.5471,17.5471 0 0 0 1.9699,-45.3826 A16.0329,16.0329 0 0 0 7.8802,-41.3852 A18.0303,18.0303 0 0 0 11.4356,-40.3786 A25.294,25.294 0 0 0 15.7958,-40M26.9303,-59.8945 A22.7423,22.7423 0 0 1 26.5453,-55.7275 A14.5184,14.5184 0 0 1 25.5583,-52.533 A12.8317,12.8317 0 0 1 24.8053,-51.0824 A10.4392,10.4392 0 0 1 23.957,-49.8768 A9.71924,9.71924 0 0 1 22.8701,-48.744 A9.30899,9.30899 0 0 1 21.6401,-47.8232 A10.1253,10.1253 0 0 1 20.2893,-47.1122 A10.3149,10.3149 0 0 1 18.8339,-46.6066 A10.8735,10.8735 0 0 1 17.3913,-46.3262 A12.8666,12.8666 0 0 1 15.7958,-46.2269 A10.5806,10.5806 0 0 1 11.4554,-47.1108 A9.53717,9.53717 0 0 1 8.0253,-49.6834 A9.88846,9.88846 0 0 1 6.8023,-51.4911 A15.3094,15.3094 0 0 1 5.7562,-53.9974 A19.4954,19.4954 0 0 1 4.9251,-59.8945 A19.9822,19.9822 0 0 1 5.7562,-65.8575 A14.8005,14.8005 0 0 1 6.8154,-68.3956 A10.1788,10.1788 0 0 1 8.1045,-70.277 A9.86503,9.86503 0 0 1 11.5873,-72.9024 A10.533,10.533 0 0 1 15.9013,-73.7731 A10.5865,10.5865 0 0 1 21.429,-72.2691 A8.88121,8.88121 0 0 1 22.6603,-71.3834 A9.7964,9.7964 0 0 1 23.781,-70.2512 A10.7937,10.7937 0 0 1 24.6437,-69.0708 A13.7512,13.7512 0 0 1 25.4396,-67.6253 A12.9139,12.9139 0 0 1 26.1108,-65.9032 A16.9338,16.9338 0 0 1 26.6087,-63.8461 A19.6531,19.6531 0 0 1 26.844,-62.0193 A26.195,26.195 0 0 1 26.9303,-59.8945M64.5251,-47.124 L55.9763,-47.124 L55.9763,-75.2243 A9.63821,9.63821 0 0 0 55.9167,-76.2939 A6.09371,6.09371 0 0 0 55.7632,-77.1318 A4.73112,4.73112 0 0 0 55.3903,-78.1152 A3.21197,3.21197 0 0 0 54.8945,-78.8259 A3.62943,3.62943 0 0 0 52.0976,-80 A3.68174,3.68174 0 0 0 49.2612,-78.8127 A3.29743,3.29743 0 0 0 48.7596,-78.0983 A4.6956,4.6956 0 0 0 48.3846,-77.1266 A5.97179,5.97179 0 0 0 48.2271,-76.2885 A9.33383,9.33383 0 0 0 48.1662,-75.2243 L48.1662,-47.124 L39.6174,-47.124 A8.05649,8.05649 0 0 0 38.7338,-47.0754 A5.10472,5.10472 0 0 0 38.0406,-46.95 A3.96491,3.96491 0 0 0 37.2255,-46.6451 A2.67847,2.67847 0 0 0 36.6359,-46.2401 A2.99868,2.99868 0 0 0 35.6596,-43.905 A3.99477,3.99477 0 0 0 35.724,-43.1908 A2.95156,2.95156 0 0 0 35.8969,-42.5992 A2.72806,2.72806 0 0 0 36.2161,-42.0276 A2.91641,2.91641 0 0 0 36.6755,-41.5303 A2.93576,2.93576 0 0 0 37.2749,-41.1326 A4.03623,4.03623 0 0 0 38.0647,-40.8369 A5.01723,5.01723 0 0 0 38.7547,-40.7087 A7.60741,7.60741 0 0 0 39.6174,-40.6596 L64.5251,-40.6596 A8.14834,8.14834 0 0 0 65.4206,-40.709 A5.16435,5.16435 0 0 0 66.1231,-40.8363 A4.01304,4.01304 0 0 0 66.9487,-41.1457 A2.71558,2.71558 0 0 0 67.5462,-41.5567 A3.02022,3.02022 0 0 0 68.5356,-43.905 A2.96135,2.96135 0 0 0 67.533,-46.2401 A2.79651,2.79651 0 0 0 66.9322,-46.6447 A4.06604,4.06604 0 0 0 66.1133,-46.9484 A5.18229,5.18229 0 0 0 65.4127,-47.0751 A8.07866,8.07866 0 0 0 64.5251,-47.124" style="fill:#000000;fill-rule:evenodd;"/>
        <!-- Linie -->
        <line x1="-50" y1="-15" x2="-50" y2="15" style="stroke:#000000;stroke-width:0.5;"/>
        <!-- Linie -->
        <line x1="-50" y1="15" x2="-90" y2="15" style="stroke:#000000;stroke-width:0.5;"/>
        <!-- Linie -->
        <line x1="10" y1="-15" x2="10" y2="15" style="stroke:#000000;stroke-width:0.5;"/>
        <!-- Linie -->
        <line x1="10" y1="15" x2="50" y2="15" style="stroke:#000000;stroke-width:0.5;"/>
        <!-- Linie -->
        <line x1="-90" y1="15" x2="-50" y2="55" style="stroke:#000000;stroke-width:0.5;"/>
        <!-- Linie -->
        <line x1="-50" y1="15" x2="-18.9167" y2="46.0833" style="stroke:#000000;stroke-width:0.5;"/>
        <!-- Linie -->
        <line x1="10" y1="15" x2="50" y2="55" style="stroke:#000000;stroke-width:0.5;"/>
        <!-- Linie -->
        <line x1="50" y1="15" x2="90" y2="55" style="stroke:#000000;stroke-width:0.5;"/>
        <!-- Linie -->
        <line x1="-50" y1="55" x2="-20" y2="55" style="stroke:#000000;stroke-width:0.5;"/>
        <!-- Linie -->
        <line x1="50" y1="55" x2="90" y2="55" style="stroke:#000000;stroke-width:0.5;"/>
        <!-- Linie -->
        <line x1="-50" y1="-15" x2="10" y2="-15" style="stroke:#000000;stroke-width:0.5;"/>
        <!-- Linie -->
        <line x1="-10" y1="51.5" x2="-10" y2="25" style="stroke:#000000;stroke-width:0.5;"/>
        <!-- Linie -->
        <line x1="-10" y1="25" x2="20" y2="25" style="stroke:#000000;stroke-width:0.5;"/>
        <!-- Linie -->
        <line x1="-10" y1="25" x2="-14" y2="21" style="stroke:#000000;stroke-width:0.5;"/>
        <!-- Linie -->
        <line x1="-16" y1="19" x2="-50" y2="-15" style="stroke:#000000;stroke-width:0.5;"/>
        <!-- Kreisbogen -->
        <path d="M-16,4.3284 A3,3 0 1,1 -14,4.3284" style="stroke:#000000;stroke-width:0.5;"/>
        <!-- Linie -->
        <line x1="-16" y1="4.3284" x2="-16" y2="31.5" style="stroke:#000000;stroke-width:0.5;"/>
        <!-- Linie -->
        <line x1="-14" y1="31.5" x2="-14" y2="4.3284" style="stroke:#000000;stroke-width:0.5;"/>
        <!-- Linie -->
        <line x1="-16" y1="31.5" x2="-20" y2="51.5" style="stroke:#000000;stroke-width:0.5;"/>
        <!-- Linie -->
        <line x1="-10" y1="51.5" x2="-14" y2="31.5" style="stroke:#000000;stroke-width:0.5;"/>
        <!-- Linie -->
        <line x1="-20" y1="51.5" x2="-20" y2="71.5" style="stroke:#000000;stroke-width:0.5;"/>
        <!-- Linie -->
        <line x1="-20" y1="71.5" x2="-10" y2="71.5" style="stroke:#000000;stroke-width:0.5;"/>
        <!-- Linie -->
        <line x1="-10" y1="71.5" x2="-10" y2="51.5" style="stroke:#000000;stroke-width:0.5;"/>
        <!-- Linie -->
        <line x1="-90" y1="15" x2="-90" y2="-15" style="stroke:#000000;stroke-width:0.5;"/>
        <!-- Linie -->
        <line x1="50" y1="-15" x2="50" y2="15" style="stroke:#000000;stroke-width:0.5;"/>
        <!-- Linie -->
        <line x1="90" y1="55" x2="90" y2="30" style="stroke:#000000;stroke-width:0.5;"/>
        <!-- Linie -->
        <line x1="-90" y1="-15" x2="-90" y2="-20" style="stroke:#000000;stroke-width:0.5;"/>
        <!-- Linie -->
        <line x1="-90" y1="-20" x2="50" y2="-20" style="stroke:#000000;stroke-width:0.5;"/>
        <!-- Linie -->
        <line x1="50" y1="-20" x2="50" y2="-15" style="stroke:#000000;stroke-width:0.5;"/>
        <!-- Linie -->
        <line x1="50" y1="-20" x2="90" y2="20" style="stroke:#000000;stroke-width:0.5;"/>
        <!-- Linie -->
        <line x1="90" y1="30" x2="90" y2="20" style="stroke:#000000;stroke-width:0.5;"/>
        <!-- Schraffur -->
        <path d="M-16,4.3284 A3,3 0 1 1 -14,4.3284 L-14,31.5 L-10,51.5 L-10,71.5 L-20,71.5 L-20,51.5 L-16,31.5 Z" style="fill:#000000;fill-rule:evenodd;"/>
    </g>
</svg>
