<?xml version="1.0" encoding="UTF-8"?>
<!-- 2020-10-20 18:13:08 Generated by QCAD 3.24.2 SVG Exporter PG -->
<svg width="210.25mm" height="210.25mm" viewBox="-105.125 -105.125 210.25 210.25" version="1.1" xmlns="http://www.w3.org/2000/svg" style="stroke-linecap:round;stroke-linejoin:round;fill:none">
    <g transform="scale(1,-1)">
        <!-- Polylinie -->
        <path d="M-90,-100 L90,-100 A10,10 0 0 1 100,-90 L100,90 A10,10 0 0 1 90,100 L-90,100 A10,10 0 0 1 -100,90 L-100,-90 A10,10 0 0 1 -90,-100" style="stroke:#000000;stroke-width:0.25;"/>
        <!-- Polylinie -->
        <path d="M-31.8571,11.6928 L-33.0982,14.9553 L-43.6658,14.9553 L-44.907,11.6219 A24.7424,24.7424 0 0 0 -45.7107,9.7135 A4.13469,4.13469 0 0 0 -46.1481,8.9888 A1.49057,1.49057 0 0 0 -46.4707,8.6739 A1.75432,1.75432 0 0 0 -46.904,8.4473 A2.17892,2.17892 0 0 0 -47.3073,8.3459 A3.49546,3.49546 0 0 0 -47.8326,8.3062 A2.46967,2.46967 0 0 0 -49.5879,9.0332 A2.22607,2.22607 0 0 0 -50.3504,10.6821 A3.67803,3.67803 0 0 0 -50.173,11.7815 A22.3502,22.3502 0 0 0 -49.5879,13.3595 L-42.9388,30.2393 A2082.53,2082.53 0 0 0 -42.2562,31.9858 A8.83064,8.83064 0 0 0 -41.4051,33.6791 A3.45761,3.45761 0 0 0 -40.2172,34.7695 A3.64153,3.64153 0 0 0 -38.3997,35.1862 A3.68108,3.68108 0 0 0 -36.5646,34.7695 A3.52815,3.52815 0 0 0 -35.3766,33.6968 A7.52369,7.52369 0 0 0 -34.6142,32.2872 A83.2679,83.2679 0 0 0 -33.8252,30.2748 L-27.0343,13.5013 A17.7721,17.7721 0 0 0 -26.3551,11.5627 A3.06707,3.06707 0 0 0 -26.2364,10.7176 A2.3045,2.3045 0 0 0 -26.9899,9.0598 A2.47679,2.47679 0 0 0 -28.8073,8.3062 A2.35623,2.35623 0 0 0 -29.8712,8.5278 A2.1787,2.1787 0 0 0 -30.6159,9.1307 A5.54659,5.54659 0 0 0 -31.2631,10.3009 A68.5704,68.5704 0 0 0 -31.8571,11.6928" style="stroke:#000000;stroke-width:0.25;"/>
        <!-- Polylinie -->
        <path d="M-42.2828,18.9093 L-34.5167,18.9093 L-38.4352,29.6364 Z" style="stroke:#000000;stroke-width:0.25;"/>
        <!-- Polylinie -->
        <path d="M-23.7888,19.4944 L-23.7888,31.9946 A6.29515,6.29515 0 0 0 -23.7489,32.7025 A4.044,4.044 0 0 0 -23.6455,33.2613 A3.18502,3.18502 0 0 0 -23.3994,33.9101 A2.22798,2.22798 0 0 0 -23.0707,34.3883 A2.4191,2.4191 0 0 0 -21.1824,35.1862 A2.48168,2.48168 0 0 0 -19.2408,34.3883 A2.22799,2.22799 0 0 0 -18.9121,33.91 A3.18531,3.18531 0 0 0 -18.666,33.2611 A4.04443,4.04443 0 0 0 -18.5626,32.7024 A6.29531,6.29531 0 0 0 -18.5227,31.9946 L-18.5227,19.2107 A16.2667,16.2667 0 0 1 -18.379,17.0531 A8.09477,8.09477 0 0 1 -18.0351,15.567 A4.20615,4.20615 0 0 1 -16.3064,13.2974 A3.87205,3.87205 0 0 1 -15.5874,12.9305 A5.91637,5.91637 0 0 1 -14.6293,12.6517 A7.43744,7.43744 0 0 1 -13.8249,12.5351 A11.1399,11.1399 0 0 1 -12.8311,12.4907 A10.0826,10.0826 0 0 1 -11.4753,12.5823 A6.05993,6.05993 0 0 1 -10.4476,12.8141 A4.6462,4.6462 0 0 1 -9.2861,13.3725 A3.47457,3.47457 0 0 1 -8.4693,14.1308 A4.55067,4.55067 0 0 1 -7.8857,15.1146 A7.45018,7.45018 0 0 1 -7.4379,16.508 A9.76677,9.76677 0 0 1 -7.2612,17.6509 A15.4613,15.4613 0 0 1 -7.1927,19.1043 L-7.1927,31.9946 A6.50383,6.50383 0 0 0 -7.1537,32.706 A4.12845,4.12845 0 0 0 -7.053,33.2646 A3.21039,3.21039 0 0 0 -6.8084,33.9213 A2.17021,2.17021 0 0 0 -6.4835,34.3972 A2.42538,2.42538 0 0 0 -4.5863,35.1862 A2.50868,2.50868 0 0 0 -2.6625,34.3972 A2.17722,2.17722 0 0 0 -2.3252,33.9209 A3.12254,3.12254 0 0 0 -2.0728,33.2691 A3.98786,3.98786 0 0 0 -1.9674,32.7085 A6.26515,6.26515 0 0 0 -1.9266,31.9946 L-1.9266,19.4944 A26.0882,26.0882 0 0 0 -2.1026,16.4698 A12.6061,12.6061 0 0 0 -2.5206,14.4056 A7.85628,7.85628 0 0 0 -4.7636,10.824 A8.71269,8.71269 0 0 0 -8.0615,8.9091 A14.4316,14.4316 0 0 0 -12.4588,8.3062 A23.8591,23.8591 0 0 0 -15.4281,8.4917 A13.5061,13.5061 0 0 0 -17.6185,8.9534 A8.25697,8.25697 0 0 0 -21.1469,10.957 A8.07719,8.07719 0 0 0 -23.1505,14.4322 A13.1367,13.1367 0 0 0 -23.6057,16.578 A23.3113,23.3113 0 0 0 -23.7888,19.4944" style="stroke:#000000;stroke-width:0.25;"/>
        <!-- Polylinie -->
        <path d="M20.6419,30.3989 L14.8971,30.3989 L14.8971,11.5155 A6.47687,6.47687 0 0 0 14.8571,10.7967 A4.09497,4.09497 0 0 0 14.754,10.2336 A3.17931,3.17931 0 0 0 14.5034,9.5728 A2.15845,2.15845 0 0 0 14.1702,9.0952 A2.43898,2.43898 0 0 0 12.2907,8.3062 A2.47413,2.47413 0 0 0 10.3846,9.1041 A2.21587,2.21587 0 0 0 10.0475,9.5841 A3.15544,3.15544 0 0 0 9.7955,10.2372 A4.01305,4.01305 0 0 0 9.6897,10.8003 A6.27233,6.27233 0 0 0 9.6488,11.5155 L9.6488,30.3989 L3.904,30.3989 A4.48987,4.48987 0 0 0 2.6278,30.5841 A1.87992,1.87992 0 0 0 1.9004,30.9929 A2.01512,2.01512 0 0 0 1.2444,32.562 A1.99192,1.99192 0 0 0 1.927,34.1578 A2.03947,2.03947 0 0 0 2.6755,34.5649 A4.32887,4.32887 0 0 0 3.904,34.7429 L20.6419,34.7429 A5.47568,5.47568 0 0 0 21.2437,34.7098 A3.47044,3.47044 0 0 0 21.7158,34.6242 A2.69676,2.69676 0 0 0 22.2706,34.4163 A1.82487,1.82487 0 0 0 22.6721,34.1401 A2.02959,2.02959 0 0 0 23.337,32.562 A1.99003,1.99003 0 0 0 22.6632,30.9929 A1.95926,1.95926 0 0 0 21.92,30.5828 A4.53311,4.53311 0 0 0 20.6419,30.3989" style="stroke:#000000;stroke-width:0.25;"/>
        <!-- Polylinie -->
        <path d="M37.5309,35.1862 A18.5843,18.5843 0 0 0 39.4396,35.0879 A14.6061,14.6061 0 0 0 41.1121,34.8164 A13.1217,13.1217 0 0 0 42.9019,34.282 A11.3162,11.3162 0 0 0 44.4726,33.5461 A10.6308,10.6308 0 0 0 48.861,28.8829 A13.18,13.18 0 0 0 49.9373,25.7635 A19.3981,19.3981 0 0 0 50.3504,21.7817 A17.369,17.369 0 0 0 49.5347,16.3028 A11.8532,11.8532 0 0 0 47.0879,12.0297 A10.6901,10.6901 0 0 0 43.0807,9.2637 A12.1023,12.1023 0 0 0 40.6537,8.5695 A17.412,17.412 0 0 0 37.6373,8.3062 A14.3455,14.3455 0 0 0 32.1762,9.2903 A10.8327,10.8327 0 0 0 28.1513,12.0651 A11.853,11.853 0 0 0 25.7133,16.3737 A17.3937,17.3937 0 0 0 24.8888,21.8171 A16.8051,16.8051 0 0 0 25.7488,27.3137 A11.7916,11.7916 0 0 0 28.24,31.5691 A10.7741,10.7741 0 0 0 32.2117,34.2553 A14.2998,14.2998 0 0 0 37.5309,35.1862" style="stroke:#000000;stroke-width:0.25;"/>
        <!-- Polylinie -->
        <path d="M45.0134,21.8171 A15.2828,15.2828 0 0 1 44.7546,24.6173 A9.75634,9.75634 0 0 1 44.0914,26.764 A6.88356,6.88356 0 0 1 41.4583,29.929 A7.23744,7.23744 0 0 1 37.5309,31.0017 A7.11015,7.11015 0 0 1 34.6142,30.4077 A6.40898,6.40898 0 0 1 32.3092,28.679 A8.26001,8.26001 0 0 1 30.7843,25.78 A13.1009,13.1009 0 0 1 30.2258,21.8171 A13.428,13.428 0 0 1 30.7843,17.81 A8.21562,8.21562 0 0 1 32.3624,14.84 A6.6293,6.6293 0 0 1 34.7029,13.0758 A7.07818,7.07818 0 0 1 37.6019,12.4907 A7.11412,7.11412 0 0 1 41.3165,13.5013 A5.96984,5.96984 0 0 1 42.775,14.7255 A8.43926,8.43926 0 0 1 44.0116,16.622 A9.07921,9.07921 0 0 1 44.7248,18.797 A15.9506,15.9506 0 0 1 45.0134,21.8171" style="stroke:#000000;stroke-width:0.25;"/>
        <!-- Polylinie -->
        <path d="M-55.3015,-24.991 A7.63837,7.63837 0 0 0 -56.5161,-29.2286 A7.11788,7.11788 0 0 0 -57.9551,-30.848 A9.44999,9.44999 0 0 0 -60.0711,-32.172 A10.6642,10.6642 0 0 0 -62.4763,-32.9371 A16.703,16.703 0 0 0 -65.6209,-33.2358 A18.7057,18.7057 0 0 0 -67.3938,-33.1516 A13.6918,13.6918 0 0 0 -68.8952,-32.9241 A11.6954,11.6954 0 0 0 -70.5785,-32.4385 A9.0049,9.0049 0 0 0 -71.9685,-31.7819 A8.45707,8.45707 0 0 0 -74.8498,-28.9893 A8.06787,8.06787 0 0 0 -75.7073,-27.1699 A5.08001,5.08001 0 0 0 -75.958,-25.5938 A2.26662,2.26662 0 0 0 -75.2931,-23.9537 A2.26231,2.26231 0 0 0 -73.5998,-23.2711 A2.00177,2.00177 0 0 0 -72.1902,-23.803 A4.18336,4.18336 0 0 0 -71.2061,-25.381 A10.5439,10.5439 0 0 1 -70.1334,-27.4555 A4.34863,4.34863 0 0 1 -68.511,-28.8297 A4.07869,4.07869 0 0 1 -67.4255,-29.2084 A8.61212,8.61212 0 0 1 -65.7627,-29.3705 A9.16178,9.16178 0 0 1 -64.6784,-29.3061 A6.65922,6.65922 0 0 1 -63.7686,-29.1328 A5.75831,5.75831 0 0 1 -62.7817,-28.7735 A4.79993,4.79993 0 0 1 -61.9595,-28.28 A4.50962,4.50962 0 0 1 -61.3163,-27.6963 A3.2372,3.2372 0 0 1 -60.8867,-27.0988 A2.99076,2.99076 0 0 1 -60.5983,-26.3742 A3.32386,3.32386 0 0 1 -60.4967,-25.5583 A2.87717,2.87717 0 0 1 -61.2857,-23.4572 A5.08809,5.08809 0 0 1 -63.3247,-22.2249 A35.0652,35.0652 0 0 1 -66.667,-21.3207 A24.5192,24.5192 0 0 0 -71.3568,-19.7869 A7.57921,7.57921 0 0 0 -74.3533,-17.3933 A5.26501,5.26501 0 0 0 -74.8522,-16.5587 A5.81979,5.81979 0 0 0 -75.2107,-15.6014 A6.47105,6.47105 0 0 0 -75.3944,-14.6876 A8.43528,8.43528 0 0 0 -75.4615,-13.6255 A6.47042,6.47042 0 0 0 -74.2913,-9.8133 A6.36102,6.36102 0 0 0 -72.9232,-8.3957 A8.82399,8.82399 0 0 0 -70.9047,-7.2512 A11.0338,11.0338 0 0 0 -68.6395,-6.6071 A17.412,17.412 0 0 0 -65.6918,-6.3558 A12.8943,12.8943 0 0 0 -61.5517,-6.9498 A8.7497,8.7497 0 0 0 -58.6527,-8.5278 A6.59195,6.59195 0 0 0 -56.9682,-10.5935 A4.76357,4.76357 0 0 0 -56.4363,-12.7035 A2.49378,2.49378 0 0 0 -57.1012,-14.3968 A2.1205,2.1205 0 0 0 -58.759,-15.1503 A2.71768,2.71768 0 0 0 -59.6084,-15.0142 A1.37787,1.37787 0 0 0 -60.1332,-14.6982 A6.09243,6.09243 0 0 0 -61.1527,-13.2177 A6.71242,6.71242 0 0 1 -62.8549,-10.9215 A2.59463,2.59463 0 0 1 -63.4647,-10.544 A4.62913,4.62913 0 0 1 -64.3765,-10.2499 A6.29152,6.29152 0 0 1 -65.1042,-10.1401 A10.3354,10.3354 0 0 1 -66.0464,-10.097 A8.45052,8.45052 0 0 1 -66.9836,-10.1491 A6.03667,6.03667 0 0 1 -67.7645,-10.2887 A5.13037,5.13037 0 0 1 -68.6291,-10.5867 A4.07044,4.07044 0 0 1 -69.3355,-10.9924 A4.04407,4.04407 0 0 1 -69.877,-11.4578 A2.68356,2.68356 0 0 1 -70.2353,-11.9159 A2.32724,2.32724 0 0 1 -70.4961,-12.5059 A2.34174,2.34174 0 0 1 -70.5855,-13.1467 A2.18239,2.18239 0 0 1 -70.16,-14.4943 A3.58232,3.58232 0 0 1 -68.9898,-15.4695 A7.88973,7.88973 0 0 1 -67.4826,-16.1078 A63.9064,63.9064 0 0 1 -64.9648,-16.7816 A39.5072,39.5072 0 0 0 -60.9843,-17.9163 A12.0954,12.0954 0 0 0 -57.9523,-19.4235 A6.19949,6.19949 0 0 0 -56.0019,-21.6664 A5.56107,5.56107 0 0 0 -55.5015,-23.0714 A9.31174,9.31174 0 0 0 -55.3015,-24.991" style="stroke:#000000;stroke-width:0.25;"/>
        <!-- Polylinie -->
        <path d="M-29.9329,-29.5655 A29.2315,29.2315 0 0 1 -27.4151,-31.0815 A19.304,19.304 0 0 0 -26.0868,-31.8675 A3.06507,3.06507 0 0 0 -25.6066,-32.2517 A1.64728,1.64728 0 0 0 -25.1633,-33.484 A1.69104,1.69104 0 0 0 -25.6864,-34.6188 A1.66124,1.66124 0 0 0 -26.9541,-35.1862 A3.67965,3.67965 0 0 0 -28.4169,-34.7961 A16.4926,16.4926 0 0 0 -30.4382,-33.6613 A59.1824,59.1824 0 0 0 -32.9826,-31.9237 A10.2083,10.2083 0 0 0 -34.3913,-32.5143 A12.9833,12.9833 0 0 0 -36.0579,-32.9501 A14.9414,14.9414 0 0 0 -37.5562,-33.1592 A19.7721,19.7721 0 0 0 -39.2948,-33.2358 A14.4591,14.4591 0 0 0 -44.7293,-32.2695 A10.6886,10.6886 0 0 0 -48.7631,-29.4857 A12.0007,12.0007 0 0 0 -51.2188,-25.1683 A17.2873,17.2873 0 0 0 -52.0433,-19.7249 A16.8051,16.8051 0 0 0 -51.1833,-14.2283 A11.7916,11.7916 0 0 0 -48.6922,-9.9729 A10.7741,10.7741 0 0 0 -44.7204,-7.2867 A14.2998,14.2998 0 0 0 -39.4012,-6.3558 A18.5843,18.5843 0 0 0 -37.4925,-6.4541 A14.6061,14.6061 0 0 0 -35.82,-6.7256 A13.1217,13.1217 0 0 0 -34.0303,-7.26 A11.3162,11.3162 0 0 0 -32.4596,-7.9959 A10.6308,10.6308 0 0 0 -28.0712,-12.6591 A13.18,13.18 0 0 0 -26.9948,-15.7785 A19.3981,19.3981 0 0 0 -26.5818,-19.7603 A20.6083,20.6083 0 0 0 -26.7827,-22.631 A14.6605,14.6605 0 0 0 -27.3185,-24.9982 A12.7347,12.7347 0 0 0 -28.4114,-27.4943 A11.3273,11.3273 0 0 0 -29.9329,-29.5655" style="stroke:#000000;stroke-width:0.25;"/>
        <!-- Polylinie -->
        <path d="M-34.0642,-26.6931 A8.00563,8.00563 0 0 1 -32.4418,-23.7143 A13.744,13.744 0 0 1 -31.9188,-19.7249 A15.2828,15.2828 0 0 1 -32.1775,-16.9247 A9.75634,9.75634 0 0 1 -32.8408,-14.778 A6.88356,6.88356 0 0 1 -35.4738,-11.613 A7.23744,7.23744 0 0 1 -39.4012,-10.5403 A7.11015,7.11015 0 0 1 -42.3179,-11.1343 A6.40898,6.40898 0 0 1 -44.6229,-12.863 A8.26001,8.26001 0 0 1 -46.1478,-15.762 A13.1009,13.1009 0 0 1 -46.7063,-19.7249 A17.2094,17.2094 0 0 1 -46.5869,-21.7484 A11.5125,11.5125 0 0 1 -46.2739,-23.3765 A9.39746,9.39746 0 0 1 -45.5687,-25.2122 A7.10722,7.10722 0 0 1 -44.6141,-26.6311 A6.68545,6.68545 0 0 1 -39.3303,-29.0513 A7.27168,7.27168 0 0 1 -36.6352,-28.5017 A13.7403,13.7403 0 0 1 -38.7185,-27.2605 A13.3537,13.3537 0 0 0 -40.4296,-26.303 A1.11533,1.11533 0 0 0 -40.8906,-25.3456 A1.2446,1.2446 0 0 0 -40.4473,-24.4058 A1.41082,1.41082 0 0 0 -39.4721,-23.998 A2.78986,2.78986 0 0 0 -38.5152,-24.1673 A12.7348,12.7348 0 0 0 -36.6295,-25.036 A21.4391,21.4391 0 0 0 -35.5247,-25.7034 A40.0496,40.0496 0 0 0 -34.0642,-26.6931" style="stroke:#000000;stroke-width:0.25;"/>
        <!-- Polylinie -->
        <path d="M-22.0469,-22.0476 L-22.0469,-9.5474 A6.29515,6.29515 0 0 0 -22.007,-8.8395 A4.044,4.044 0 0 0 -21.9036,-8.2807 A3.18502,3.18502 0 0 0 -21.6575,-7.6319 A2.22798,2.22798 0 0 0 -21.3288,-7.1537 A2.4191,2.4191 0 0 0 -19.4405,-6.3558 A2.48168,2.48168 0 0 0 -17.499,-7.1537 A2.22799,2.22799 0 0 0 -17.1702,-7.632 A3.18531,3.18531 0 0 0 -16.9241,-8.2809 A4.04443,4.04443 0 0 0 -16.8208,-8.8396 A6.29531,6.29531 0 0 0 -16.7809,-9.5474 L-16.7809,-22.3313 A16.2667,16.2667 0 0 1 -16.6371,-24.4889 A8.09477,8.09477 0 0 1 -16.2933,-25.975 A4.20615,4.20615 0 0 1 -14.5645,-28.2446 A3.87205,3.87205 0 0 1 -13.8455,-28.6115 A5.91637,5.91637 0 0 1 -12.8874,-28.8903 A7.43744,7.43744 0 0 1 -12.083,-29.0069 A11.1399,11.1399 0 0 1 -11.0892,-29.0513 A10.0826,10.0826 0 0 1 -9.7334,-28.9597 A6.05993,6.05993 0 0 1 -8.7058,-28.7279 A4.6462,4.6462 0 0 1 -7.5442,-28.1695 A3.47457,3.47457 0 0 1 -6.7274,-27.4112 A4.55067,4.55067 0 0 1 -6.1439,-26.4274 A7.45018,7.45018 0 0 1 -5.696,-25.0341 A9.76677,9.76677 0 0 1 -5.5193,-23.8912 A15.4613,15.4613 0 0 1 -5.4508,-22.4377 L-5.4508,-9.5474 A6.50383,6.50383 0 0 0 -5.4118,-8.836 A4.12845,4.12845 0 0 0 -5.3111,-8.2774 A3.21039,3.21039 0 0 0 -5.0665,-7.6207 A2.17021,2.17021 0 0 0 -4.7416,-7.1448 A2.42538,2.42538 0 0 0 -2.8444,-6.3558 A2.50868,2.50868 0 0 0 -0.9206,-7.1448 A2.17722,2.17722 0 0 0 -0.5833,-7.6212 A3.12254,3.12254 0 0 0 -0.3309,-8.2729 A3.98786,3.98786 0 0 0 -0.2256,-8.8335 A6.26515,6.26515 0 0 0 -0.1848,-9.5474 L-0.1848,-22.0476 A26.0882,26.0882 0 0 0 -0.3607,-25.0722 A12.6061,12.6061 0 0 0 -0.7787,-27.1364 A7.85628,7.85628 0 0 0 -3.0217,-30.718 A8.71269,8.71269 0 0 0 -6.3196,-32.633 A14.4316,14.4316 0 0 0 -10.7169,-33.2358 A23.8591,23.8591 0 0 0 -13.6863,-33.0503 A13.5061,13.5061 0 0 0 -15.8766,-32.5886 A8.25697,8.25697 0 0 0 -19.405,-30.585 A8.07719,8.07719 0 0 0 -21.4086,-27.1098 A13.1367,13.1367 0 0 0 -21.8638,-24.964 A23.3113,23.3113 0 0 0 -22.0469,-22.0476" style="stroke:#000000;stroke-width:0.25;"/>
        <!-- Polylinie -->
        <path d="M20.3199,-29.8492 L19.0788,-26.5867 L8.5112,-26.5867 L7.27,-29.9201 A24.7424,24.7424 0 0 0 6.4663,-31.8285 A4.13469,4.13469 0 0 0 6.0289,-32.5532 A1.49057,1.49057 0 0 0 5.7063,-32.8681 A1.75432,1.75432 0 0 0 5.273,-33.0947 A2.17892,2.17892 0 0 0 4.8697,-33.1961 A3.49546,3.49546 0 0 0 4.3444,-33.2358 A2.46967,2.46967 0 0 0 2.5891,-32.5088 A2.22607,2.22607 0 0 0 1.8266,-30.8599 A3.67803,3.67803 0 0 0 2.0039,-29.7606 A22.3502,22.3502 0 0 0 2.5891,-28.1825 L9.2381,-11.3027 A2082.53,2082.53 0 0 0 9.9208,-9.5562 A8.83064,8.83064 0 0 0 10.7719,-7.8629 A3.45761,3.45761 0 0 0 11.9598,-6.7725 A3.64153,3.64153 0 0 0 13.7772,-6.3558 A3.68108,3.68108 0 0 0 15.6124,-6.7725 A3.52815,3.52815 0 0 0 16.8004,-7.8452 A7.52369,7.52369 0 0 0 17.5628,-9.2548 A83.2679,83.2679 0 0 0 18.3518,-11.2673 L25.1427,-28.0407 A17.7721,17.7721 0 0 0 25.8219,-29.9793 A3.06707,3.06707 0 0 0 25.9406,-30.8244 A2.3045,2.3045 0 0 0 25.1871,-32.4822 A2.47679,2.47679 0 0 0 23.3696,-33.2358 A2.35623,2.35623 0 0 0 22.3058,-33.0142 A2.1787,2.1787 0 0 0 21.5611,-32.4113 A5.54659,5.54659 0 0 0 20.9139,-31.2411 A68.5704,68.5704 0 0 0 20.3199,-29.8492" style="stroke:#000000;stroke-width:0.25;"/>
        <!-- Polylinie -->
        <path d="M9.8942,-22.6327 L17.6603,-22.6327 L13.7418,-11.9056 Z" style="stroke:#000000;stroke-width:0.25;"/>
        <!-- Polylinie -->
        <path d="M36.8799,-21.6753 L35.0358,-21.6753 L35.0358,-30.0265 A6.60532,6.60532 0 0 0 34.9962,-30.7496 A4.13247,4.13247 0 0 0 34.8941,-31.3132 A3.17555,3.17555 0 0 0 34.6423,-31.9804 A2.1051,2.1051 0 0 0 34.3089,-32.4556 A2.47337,2.47337 0 0 0 32.4117,-33.2358 A3.4638,3.4638 0 0 0 31.8212,-33.1851 A2.45826,2.45826 0 0 0 31.3404,-33.0505 A2.2023,2.2023 0 0 0 30.8633,-32.7908 A2.23259,2.23259 0 0 0 30.4613,-32.4202 A2.3247,2.3247 0 0 0 30.1452,-31.9363 A3.31891,3.31891 0 0 0 29.9086,-31.2875 A4.18086,4.18086 0 0 0 29.8083,-30.7288 A6.41816,6.41816 0 0 0 29.7698,-30.0265 L29.7698,-10.0261 A6.67502,6.67502 0 0 0 29.811,-9.2853 A4.08473,4.08473 0 0 0 29.9162,-8.7145 A3.08558,3.08558 0 0 0 30.1817,-8.0342 A2.00379,2.00379 0 0 0 30.5322,-7.5615 A2.00381,2.00381 0 0 0 31.005,-7.2109 A3.08595,3.08595 0 0 0 31.6855,-6.9455 A4.0853,4.0853 0 0 0 32.2562,-6.8403 A6.67523,6.67523 0 0 0 32.9968,-6.7991 L41.5608,-6.7991 A26.0131,26.0131 0 0 0 44.5928,-6.9498 A7.62217,7.62217 0 0 0 46.8623,-7.5615 A6.57152,6.57152 0 0 0 49.0255,-9.0332 A6.44399,6.44399 0 0 0 50.4528,-11.2584 A7.41778,7.41778 0 0 0 50.9404,-13.9446 A9.32096,9.32096 0 0 0 50.8408,-15.304 A6.75985,6.75985 0 0 0 50.5735,-16.4335 A5.97883,5.97883 0 0 0 50.0435,-17.6021 A5.55006,5.55006 0 0 0 49.3003,-18.5901 A6.23188,6.23188 0 0 0 48.3249,-19.4299 A8.74503,8.74503 0 0 0 47.0018,-20.1876 A10.6973,10.6973 0 0 0 45.814,-20.6525 A15.6076,15.6076 0 0 0 44.3268,-21.0547 A9.62681,9.62681 0 0 0 47.0042,-23.2533 A22.2972,22.2972 0 0 0 49.2826,-26.3474 A22.9229,22.9229 0 0 0 50.8429,-29.3084 A13.9592,13.9592 0 0 0 51.3291,-30.644 A1.64011,1.64011 0 0 0 51.4014,-31.1258 A1.85699,1.85699 0 0 0 51.0734,-32.1454 A2.30014,2.30014 0 0 0 50.178,-32.9432 A2.8237,2.8237 0 0 0 48.8659,-33.2358 A2.55682,2.55682 0 0 0 47.3765,-32.8191 A4.00633,4.00633 0 0 0 46.3393,-31.7641 A41.8006,41.8006 0 0 0 45.1602,-29.8847 L43.0502,-26.374 A19.3161,19.3161 0 0 1 41.02,-23.4306 A5.01068,5.01068 0 0 1 39.2026,-22.0476 A6.24777,6.24777 0 0 1 36.8799,-21.6753" style="stroke:#000000;stroke-width:0.25;"/>
        <!-- Polylinie -->
        <path d="M39.8941,-10.7531 L35.0358,-10.7531 L35.0358,-17.8986 L39.7523,-17.8986 A13.2131,13.2131 0 0 1 42.9438,-17.5706 A4.87248,4.87248 0 0 1 44.1438,-17.0896 A2.93979,2.93979 0 0 1 44.9208,-16.4535 A2.43699,2.43699 0 0 1 45.4027,-15.5897 A4.36327,4.36327 0 0 1 45.6034,-14.2815 A3.35591,3.35591 0 0 1 45.0538,-12.3754 A3.32184,3.32184 0 0 1 43.5289,-11.1431 A2.78106,2.78106 0 0 1 42.9491,-10.9694 A11.4624,11.4624 0 0 1 41.7305,-10.8118 A18.2946,18.2946 0 0 1 40.9466,-10.7699 A32.8953,32.8953 0 0 1 39.8941,-10.7531" style="stroke:#000000;stroke-width:0.25;"/>
        <!-- Polylinie -->
        <path d="M73.0501,-10.8594 L61.1882,-10.8594 L61.1882,-17.2426 L72.1104,-17.2426 A3.96411,3.96411 0 0 0 73.2512,-17.4103 A1.70944,1.70944 0 0 0 73.9101,-17.7834 A1.83802,1.83802 0 0 0 74.5041,-19.2107 A1.90821,1.90821 0 0 0 73.9189,-20.6558 A1.6562,1.6562 0 0 0 73.2641,-21.0402 A3.90982,3.90982 0 0 0 72.1104,-21.2143 L61.1882,-21.2143 L61.1882,-28.6081 L73.4579,-28.6081 A3.98284,3.98284 0 0 0 74.6305,-28.7846 A1.83285,1.83285 0 0 0 75.3285,-29.1843 A1.97904,1.97904 0 0 0 75.958,-30.718 A1.93721,1.93721 0 0 0 75.3285,-32.2163 A1.83285,1.83285 0 0 0 74.6305,-32.616 A3.98284,3.98284 0 0 0 73.4579,-32.7925 L59.1491,-32.7925 A6.80283,6.80283 0 0 0 58.4041,-32.7516 A4.12331,4.12331 0 0 0 57.8326,-32.6475 A3.08357,3.08357 0 0 0 57.146,-32.3808 A1.95605,1.95605 0 0 0 56.6757,-32.0301 A1.99964,1.99964 0 0 0 56.3293,-31.5575 A3.11353,3.11353 0 0 0 56.0664,-30.8752 A4.13132,4.13132 0 0 0 55.9627,-30.3052 A6.75525,6.75525 0 0 0 55.9221,-29.5655 L55.9221,-10.0261 A4.38187,4.38187 0 0 0 56.259,-8.1732 A2.09177,2.09177 0 0 0 57.314,-7.1271 A4.43469,4.43469 0 0 0 59.1491,-6.7991 L73.0501,-6.7991 A4.16425,4.16425 0 0 0 74.2415,-6.9731 A1.74981,1.74981 0 0 0 74.9207,-7.3576 A1.88758,1.88758 0 0 0 75.5324,-8.8204 A1.90847,1.90847 0 0 0 74.9207,-10.3009 A1.74981,1.74981 0 0 0 74.2415,-10.6854 A4.16425,4.16425 0 0 0 73.0501,-10.8594" style="stroke:#000000;stroke-width:0.25;"/>
        <!-- Schraffur -->
        <path d="M20.6419,30.3989 L14.8971,30.3989 L14.8971,11.5155 A6.47687,6.47687 0 0 0 14.8571,10.7967 A4.09497,4.09497 0 0 0 14.754,10.2336 A3.17931,3.17931 0 0 0 14.5034,9.5728 A2.15845,2.15845 0 0 0 14.1702,9.0952 A2.43898,2.43898 0 0 0 12.2907,8.3062 A2.47413,2.47413 0 0 0 10.3846,9.1041 A2.21587,2.21587 0 0 0 10.0475,9.5841 A3.15544,3.15544 0 0 0 9.7955,10.2372 A4.01305,4.01305 0 0 0 9.6897,10.8003 A6.27233,6.27233 0 0 0 9.6488,11.5155 L9.6488,30.3989 L3.904,30.3989 A4.48987,4.48987 0 0 0 2.6278,30.5841 A1.87992,1.87992 0 0 0 1.9004,30.9929 A2.01512,2.01512 0 0 0 1.2444,32.562 A1.99192,1.99192 0 0 0 1.927,34.1578 A2.03947,2.03947 0 0 0 2.6755,34.5649 A4.32887,4.32887 0 0 0 3.904,34.7429 L20.6419,34.7429 A5.47568,5.47568 0 0 0 21.2437,34.7098 A3.47044,3.47044 0 0 0 21.7158,34.6242 A2.69676,2.69676 0 0 0 22.2706,34.4163 A1.82487,1.82487 0 0 0 22.6721,34.1401 A2.02959,2.02959 0 0 0 23.337,32.562 A1.99003,1.99003 0 0 0 22.6632,30.9929 A1.95926,1.95926 0 0 0 21.92,30.5828 A4.53311,4.53311 0 0 0 20.6419,30.3989M-31.8571,11.6928 L-33.0982,14.9553 L-43.6658,14.9553 L-44.907,11.6219 A24.7424,24.7424 0 0 0 -45.7107,9.7135 A4.13469,4.13469 0 0 0 -46.1481,8.9888 A1.49057,1.49057 0 0 0 -46.4707,8.6739 A1.75432,1.75432 0 0 0 -46.904,8.4473 A2.17892,2.17892 0 0 0 -47.3073,8.3459 A3.49546,3.49546 0 0 0 -47.8326,8.3062 A2.46967,2.46967 0 0 0 -49.5879,9.0332 A2.22607,2.22607 0 0 0 -50.3504,10.6821 A3.67803,3.67803 0 0 0 -50.173,11.7815 A22.3502,22.3502 0 0 0 -49.5879,13.3595 L-42.9388,30.2393 A2082.53,2082.53 0 0 0 -42.2562,31.9858 A8.83064,8.83064 0 0 0 -41.4051,33.6791 A3.45761,3.45761 0 0 0 -40.2172,34.7695 A3.64153,3.64153 0 0 0 -38.3997,35.1862 A3.68108,3.68108 0 0 0 -36.5646,34.7695 A3.52815,3.52815 0 0 0 -35.3766,33.6968 A7.52369,7.52369 0 0 0 -34.6142,32.2872 A83.2679,83.2679 0 0 0 -33.8252,30.2748 L-27.0343,13.5013 A17.7721,17.7721 0 0 0 -26.3551,11.5627 A3.06707,3.06707 0 0 0 -26.2364,10.7176 A2.3045,2.3045 0 0 0 -26.9899,9.0598 A2.47679,2.47679 0 0 0 -28.8073,8.3062 A2.35623,2.35623 0 0 0 -29.8712,8.5278 A2.1787,2.1787 0 0 0 -30.6159,9.1307 A5.54659,5.54659 0 0 0 -31.2631,10.3009 A68.5704,68.5704 0 0 0 -31.8571,11.6928M-42.2828,18.9093 L-34.5167,18.9093 L-38.4352,29.6364 ZM73.0501,-10.8594 L61.1882,-10.8594 L61.1882,-17.2426 L72.1104,-17.2426 A3.96411,3.96411 0 0 0 73.2512,-17.4103 A1.70944,1.70944 0 0 0 73.9101,-17.7834 A1.83802,1.83802 0 0 0 74.5041,-19.2107 A1.90821,1.90821 0 0 0 73.9189,-20.6558 A1.6562,1.6562 0 0 0 73.2641,-21.0402 A3.90982,3.90982 0 0 0 72.1104,-21.2143 L61.1882,-21.2143 L61.1882,-28.6081 L73.4579,-28.6081 A3.98284,3.98284 0 0 0 74.6305,-28.7846 A1.83285,1.83285 0 0 0 75.3285,-29.1843 A1.97904,1.97904 0 0 0 75.958,-30.718 A1.93721,1.93721 0 0 0 75.3285,-32.2163 A1.83285,1.83285 0 0 0 74.6305,-32.616 A3.98284,3.98284 0 0 0 73.4579,-32.7925 L59.1491,-32.7925 A6.80283,6.80283 0 0 0 58.4041,-32.7516 A4.12331,4.12331 0 0 0 57.8326,-32.6475 A3.08357,3.08357 0 0 0 57.146,-32.3808 A1.95605,1.95605 0 0 0 56.6757,-32.0301 A1.99964,1.99964 0 0 0 56.3293,-31.5575 A3.11353,3.11353 0 0 0 56.0664,-30.8752 A4.13132,4.13132 0 0 0 55.9627,-30.3052 A6.75525,6.75525 0 0 0 55.9221,-29.5655 L55.9221,-10.0261 A4.38187,4.38187 0 0 0 56.259,-8.1732 A2.09177,2.09177 0 0 0 57.314,-7.1271 A4.43469,4.43469 0 0 0 59.1491,-6.7991 L73.0501,-6.7991 A4.16425,4.16425 0 0 0 74.2415,-6.9731 A1.74981,1.74981 0 0 0 74.9207,-7.3576 A1.88758,1.88758 0 0 0 75.5324,-8.8204 A1.90847,1.90847 0 0 0 74.9207,-10.3009 A1.74981,1.74981 0 0 0 74.2415,-10.6854 A4.16425,4.16425 0 0 0 73.0501,-10.8594M36.8799,-21.6753 L35.0358,-21.6753 L35.0358,-30.0265 A6.60532,6.60532 0 0 0 34.9962,-30.7496 A4.13247,4.13247 0 0 0 34.8941,-31.3132 A3.17555,3.17555 0 0 0 34.6423,-31.9804 A2.1051,2.1051 0 0 0 34.3089,-32.4556 A2.47337,2.47337 0 0 0 32.4117,-33.2358 A3.4638,3.4638 0 0 0 31.8212,-33.1851 A2.45826,2.45826 0 0 0 31.3404,-33.0505 A2.2023,2.2023 0 0 0 30.8633,-32.7908 A2.23259,2.23259 0 0 0 30.4613,-32.4202 A2.3247,2.3247 0 0 0 30.1452,-31.9363 A3.31891,3.31891 0 0 0 29.9086,-31.2875 A4.18086,4.18086 0 0 0 29.8083,-30.7288 A6.41816,6.41816 0 0 0 29.7698,-30.0265 L29.7698,-10.0261 A6.67502,6.67502 0 0 0 29.811,-9.2853 A4.08473,4.08473 0 0 0 29.9162,-8.7145 A3.08558,3.08558 0 0 0 30.1817,-8.0342 A2.00379,2.00379 0 0 0 30.5322,-7.5615 A2.00381,2.00381 0 0 0 31.005,-7.2109 A3.08595,3.08595 0 0 0 31.6855,-6.9455 A4.0853,4.0853 0 0 0 32.2562,-6.8403 A6.67523,6.67523 0 0 0 32.9968,-6.7991 L41.5608,-6.7991 A26.0131,26.0131 0 0 0 44.5928,-6.9498 A7.62217,7.62217 0 0 0 46.8623,-7.5615 A6.57152,6.57152 0 0 0 49.0255,-9.0332 A6.44399,6.44399 0 0 0 50.4528,-11.2584 A7.41778,7.41778 0 0 0 50.9404,-13.9446 A9.32096,9.32096 0 0 0 50.8408,-15.304 A6.75985,6.75985 0 0 0 50.5735,-16.4335 A5.97883,5.97883 0 0 0 50.0435,-17.6021 A5.55006,5.55006 0 0 0 49.3003,-18.5901 A6.23188,6.23188 0 0 0 48.3249,-19.4299 A8.74503,8.74503 0 0 0 47.0018,-20.1876 A10.6973,10.6973 0 0 0 45.814,-20.6525 A15.6076,15.6076 0 0 0 44.3268,-21.0547 A9.62681,9.62681 0 0 0 47.0042,-23.2533 A22.2972,22.2972 0 0 0 49.2826,-26.3474 A22.9229,22.9229 0 0 0 50.8429,-29.3084 A13.9592,13.9592 0 0 0 51.3291,-30.644 A1.64011,1.64011 0 0 0 51.4014,-31.1258 A1.85699,1.85699 0 0 0 51.0734,-32.1454 A2.30014,2.30014 0 0 0 50.178,-32.9432 A2.8237,2.8237 0 0 0 48.8659,-33.2358 A2.55682,2.55682 0 0 0 47.3765,-32.8191 A4.00633,4.00633 0 0 0 46.3393,-31.7641 A41.8006,41.8006 0 0 0 45.1602,-29.8847 L43.0502,-26.374 A19.3161,19.3161 0 0 1 41.02,-23.4306 A5.01068,5.01068 0 0 1 39.2026,-22.0476 A6.24777,6.24777 0 0 1 36.8799,-21.6753M39.8941,-10.7531 L35.0358,-10.7531 L35.0358,-17.8986 L39.7523,-17.8986 A13.2131,13.2131 0 0 1 42.9438,-17.5706 A4.87248,4.87248 0 0 1 44.1438,-17.0896 A2.93979,2.93979 0 0 1 44.9208,-16.4535 A2.43699,2.43699 0 0 1 45.4027,-15.5897 A4.36327,4.36327 0 0 1 45.6034,-14.2815 A3.35591,3.35591 0 0 1 45.0538,-12.3754 A3.32184,3.32184 0 0 1 43.5289,-11.1431 A2.78106,2.78106 0 0 1 42.9491,-10.9694 A11.4624,11.4624 0 0 1 41.7305,-10.8118 A18.2946,18.2946 0 0 1 40.9466,-10.7699 A32.8953,32.8953 0 0 1 39.8941,-10.7531M20.3199,-29.8492 L19.0788,-26.5867 L8.5112,-26.5867 L7.27,-29.9201 A24.7424,24.7424 0 0 0 6.4663,-31.8285 A4.13469,4.13469 0 0 0 6.0289,-32.5532 A1.49057,1.49057 0 0 0 5.7063,-32.8681 A1.75432,1.75432 0 0 0 5.273,-33.0947 A2.17892,2.17892 0 0 0 4.8697,-33.1961 A3.49546,3.49546 0 0 0 4.3444,-33.2358 A2.46967,2.46967 0 0 0 2.5891,-32.5088 A2.22607,2.22607 0 0 0 1.8266,-30.8599 A3.67803,3.67803 0 0 0 2.0039,-29.7606 A22.3502,22.3502 0 0 0 2.5891,-28.1825 L9.2381,-11.3027 A2082.53,2082.53 0 0 0 9.9208,-9.5562 A8.83064,8.83064 0 0 0 10.7719,-7.8629 A3.45761,3.45761 0 0 0 11.9598,-6.7725 A3.64153,3.64153 0 0 0 13.7772,-6.3558 A3.68108,3.68108 0 0 0 15.6124,-6.7725 A3.52815,3.52815 0 0 0 16.8004,-7.8452 A7.52369,7.52369 0 0 0 17.5628,-9.2548 A83.2679,83.2679 0 0 0 18.3518,-11.2673 L25.1427,-28.0407 A17.7721,17.7721 0 0 0 25.8219,-29.9793 A3.06707,3.06707 0 0 0 25.9406,-30.8244 A2.3045,2.3045 0 0 0 25.1871,-32.4822 A2.47679,2.47679 0 0 0 23.3696,-33.2358 A2.35623,2.35623 0 0 0 22.3058,-33.0142 A2.1787,2.1787 0 0 0 21.5611,-32.4113 A5.54659,5.54659 0 0 0 20.9139,-31.2411 A68.5704,68.5704 0 0 0 20.3199,-29.8492M9.8942,-22.6327 L17.6603,-22.6327 L13.7418,-11.9056 ZM-34.0642,-26.6931 A8.00563,8.00563 0 0 1 -32.4418,-23.7143 A13.744,13.744 0 0 1 -31.9188,-19.7249 A15.2828,15.2828 0 0 1 -32.1775,-16.9247 A9.75634,9.75634 0 0 1 -32.8408,-14.778 A6.88356,6.88356 0 0 1 -35.4738,-11.613 A7.23744,7.23744 0 0 1 -39.4012,-10.5403 A7.11015,7.11015 0 0 1 -42.3179,-11.1343 A6.40898,6.40898 0 0 1 -44.6229,-12.863 A8.26001,8.26001 0 0 1 -46.1478,-15.762 A13.1009,13.1009 0 0 1 -46.7063,-19.7249 A17.2094,17.2094 0 0 1 -46.5869,-21.7484 A11.5125,11.5125 0 0 1 -46.2739,-23.3765 A9.39746,9.39746 0 0 1 -45.5687,-25.2122 A7.10722,7.10722 0 0 1 -44.6141,-26.6311 A6.68545,6.68545 0 0 1 -39.3303,-29.0513 A7.27168,7.27168 0 0 1 -36.6352,-28.5017 A13.7403,13.7403 0 0 1 -38.7185,-27.2605 A13.3537,13.3537 0 0 0 -40.4296,-26.303 A1.11533,1.11533 0 0 0 -40.8906,-25.3456 A1.2446,1.2446 0 0 0 -40.4473,-24.4058 A1.41082,1.41082 0 0 0 -39.4721,-23.998 A2.78986,2.78986 0 0 0 -38.5152,-24.1673 A12.7348,12.7348 0 0 0 -36.6295,-25.036 A21.4391,21.4391 0 0 0 -35.5247,-25.7034 A40.0496,40.0496 0 0 0 -34.0642,-26.6931M-22.0469,-22.0476 L-22.0469,-9.5474 A6.29515,6.29515 0 0 0 -22.007,-8.8395 A4.044,4.044 0 0 0 -21.9036,-8.2807 A3.18502,3.18502 0 0 0 -21.6575,-7.6319 A2.22798,2.22798 0 0 0 -21.3288,-7.1537 A2.4191,2.4191 0 0 0 -19.4405,-6.3558 A2.48168,2.48168 0 0 0 -17.499,-7.1537 A2.22799,2.22799 0 0 0 -17.1702,-7.632 A3.18531,3.18531 0 0 0 -16.9241,-8.2809 A4.04443,4.04443 0 0 0 -16.8208,-8.8396 A6.29531,6.29531 0 0 0 -16.7809,-9.5474 L-16.7809,-22.3313 A16.2667,16.2667 0 0 1 -16.6371,-24.4889 A8.09477,8.09477 0 0 1 -16.2933,-25.975 A4.20615,4.20615 0 0 1 -14.5645,-28.2446 A3.87205,3.87205 0 0 1 -13.8455,-28.6115 A5.91637,5.91637 0 0 1 -12.8874,-28.8903 A7.43744,7.43744 0 0 1 -12.083,-29.0069 A11.1399,11.1399 0 0 1 -11.0892,-29.0513 A10.0826,10.0826 0 0 1 -9.7334,-28.9597 A6.05993,6.05993 0 0 1 -8.7058,-28.7279 A4.6462,4.6462 0 0 1 -7.5442,-28.1695 A3.47457,3.47457 0 0 1 -6.7274,-27.4112 A4.55067,4.55067 0 0 1 -6.1439,-26.4274 A7.45018,7.45018 0 0 1 -5.696,-25.0341 A9.76677,9.76677 0 0 1 -5.5193,-23.8912 A15.4613,15.4613 0 0 1 -5.4508,-22.4377 L-5.4508,-9.5474 A6.50383,6.50383 0 0 0 -5.4118,-8.836 A4.12845,4.12845 0 0 0 -5.3111,-8.2774 A3.21039,3.21039 0 0 0 -5.0665,-7.6207 A2.17021,2.17021 0 0 0 -4.7416,-7.1448 A2.42538,2.42538 0 0 0 -2.8444,-6.3558 A2.50868,2.50868 0 0 0 -0.9206,-7.1448 A2.17722,2.17722 0 0 0 -0.5833,-7.6212 A3.12254,3.12254 0 0 0 -0.3309,-8.2729 A3.98786,3.98786 0 0 0 -0.2256,-8.8335 A6.26515,6.26515 0 0 0 -0.1848,-9.5474 L-0.1848,-22.0476 A26.0882,26.0882 0 0 0 -0.3607,-25.0722 A12.6061,12.6061 0 0 0 -0.7787,-27.1364 A7.85628,7.85628 0 0 0 -3.0217,-30.718 A8.71269,8.71269 0 0 0 -6.3196,-32.633 A14.4316,14.4316 0 0 0 -10.7169,-33.2358 A23.8591,23.8591 0 0 0 -13.6863,-33.0503 A13.5061,13.5061 0 0 0 -15.8766,-32.5886 A8.25697,8.25697 0 0 0 -19.405,-30.585 A8.07719,8.07719 0 0 0 -21.4086,-27.1098 A13.1367,13.1367 0 0 0 -21.8638,-24.964 A23.3113,23.3113 0 0 0 -22.0469,-22.0476M-55.3015,-24.991 A7.63837,7.63837 0 0 0 -56.5161,-29.2286 A7.11788,7.11788 0 0 0 -57.9551,-30.848 A9.44999,9.44999 0 0 0 -60.0711,-32.172 A10.6642,10.6642 0 0 0 -62.4763,-32.9371 A16.703,16.703 0 0 0 -65.6209,-33.2358 A18.7057,18.7057 0 0 0 -67.3938,-33.1516 A13.6918,13.6918 0 0 0 -68.8952,-32.9241 A11.6954,11.6954 0 0 0 -70.5785,-32.4385 A9.0049,9.0049 0 0 0 -71.9685,-31.7819 A8.45707,8.45707 0 0 0 -74.8498,-28.9893 A8.06787,8.06787 0 0 0 -75.7073,-27.1699 A5.08001,5.08001 0 0 0 -75.958,-25.5938 A2.26662,2.26662 0 0 0 -75.2931,-23.9537 A2.26231,2.26231 0 0 0 -73.5998,-23.2711 A2.00177,2.00177 0 0 0 -72.1902,-23.803 A4.18336,4.18336 0 0 0 -71.2061,-25.381 A10.5439,10.5439 0 0 1 -70.1334,-27.4555 A4.34863,4.34863 0 0 1 -68.511,-28.8297 A4.07869,4.07869 0 0 1 -67.4255,-29.2084 A8.61212,8.61212 0 0 1 -65.7627,-29.3705 A9.16178,9.16178 0 0 1 -64.6784,-29.3061 A6.65922,6.65922 0 0 1 -63.7686,-29.1328 A5.75831,5.75831 0 0 1 -62.7817,-28.7735 A4.79993,4.79993 0 0 1 -61.9595,-28.28 A4.50962,4.50962 0 0 1 -61.3163,-27.6963 A3.2372,3.2372 0 0 1 -60.8867,-27.0988 A2.99076,2.99076 0 0 1 -60.5983,-26.3742 A3.32386,3.32386 0 0 1 -60.4967,-25.5583 A2.87717,2.87717 0 0 1 -61.2857,-23.4572 A5.08809,5.08809 0 0 1 -63.3247,-22.2249 A35.0652,35.0652 0 0 1 -66.667,-21.3207 A24.5192,24.5192 0 0 0 -71.3568,-19.7869 A7.57921,7.57921 0 0 0 -74.3533,-17.3933 A5.26501,5.26501 0 0 0 -74.8522,-16.5587 A5.81979,5.81979 0 0 0 -75.2107,-15.6014 A6.47105,6.47105 0 0 0 -75.3944,-14.6876 A8.43528,8.43528 0 0 0 -75.4615,-13.6255 A6.47042,6.47042 0 0 0 -74.2913,-9.8133 A6.36102,6.36102 0 0 0 -72.9232,-8.3957 A8.82399,8.82399 0 0 0 -70.9047,-7.2512 A11.0338,11.0338 0 0 0 -68.6395,-6.6071 A17.412,17.412 0 0 0 -65.6918,-6.3558 A12.8943,12.8943 0 0 0 -61.5517,-6.9498 A8.7497,8.7497 0 0 0 -58.6527,-8.5278 A6.59195,6.59195 0 0 0 -56.9682,-10.5935 A4.76357,4.76357 0 0 0 -56.4363,-12.7035 A2.49378,2.49378 0 0 0 -57.1012,-14.3968 A2.1205,2.1205 0 0 0 -58.759,-15.1503 A2.71768,2.71768 0 0 0 -59.6084,-15.0142 A1.37787,1.37787 0 0 0 -60.1332,-14.6982 A6.09243,6.09243 0 0 0 -61.1527,-13.2177 A6.71242,6.71242 0 0 1 -62.8549,-10.9215 A2.59463,2.59463 0 0 1 -63.4647,-10.544 A4.62913,4.62913 0 0 1 -64.3765,-10.2499 A6.29152,6.29152 0 0 1 -65.1042,-10.1401 A10.3354,10.3354 0 0 1 -66.0464,-10.097 A8.45052,8.45052 0 0 1 -66.9836,-10.1491 A6.03667,6.03667 0 0 1 -67.7645,-10.2887 A5.13037,5.13037 0 0 1 -68.6291,-10.5867 A4.07044,4.07044 0 0 1 -69.3355,-10.9924 A4.04407,4.04407 0 0 1 -69.877,-11.4578 A2.68356,2.68356 0 0 1 -70.2353,-11.9159 A2.32724,2.32724 0 0 1 -70.4961,-12.5059 A2.34174,2.34174 0 0 1 -70.5855,-13.1467 A2.18239,2.18239 0 0 1 -70.16,-14.4943 A3.58232,3.58232 0 0 1 -68.9898,-15.4695 A7.88973,7.88973 0 0 1 -67.4826,-16.1078 A63.9064,63.9064 0 0 1 -64.9648,-16.7816 A39.5072,39.5072 0 0 0 -60.9843,-17.9163 A12.0954,12.0954 0 0 0 -57.9523,-19.4235 A6.19949,6.19949 0 0 0 -56.0019,-21.6664 A5.56107,5.56107 0 0 0 -55.5015,-23.0714 A9.31174,9.31174 0 0 0 -55.3015,-24.991M-29.9329,-29.5655 A29.2315,29.2315 0 0 1 -27.4151,-31.0815 A19.304,19.304 0 0 0 -26.0868,-31.8675 A3.06507,3.06507 0 0 0 -25.6066,-32.2517 A1.64728,1.64728 0 0 0 -25.1633,-33.484 A1.69104,1.69104 0 0 0 -25.6864,-34.6188 A1.66124,1.66124 0 0 0 -26.9541,-35.1862 A3.67965,3.67965 0 0 0 -28.4169,-34.7961 A16.4926,16.4926 0 0 0 -30.4382,-33.6613 A59.1824,59.1824 0 0 0 -32.9826,-31.9237 A10.2083,10.2083 0 0 0 -34.3913,-32.5143 A12.9833,12.9833 0 0 0 -36.0579,-32.9501 A14.9414,14.9414 0 0 0 -37.5562,-33.1592 A19.7721,19.7721 0 0 0 -39.2948,-33.2358 A14.4591,14.4591 0 0 0 -44.7293,-32.2695 A10.6886,10.6886 0 0 0 -48.7631,-29.4857 A12.0007,12.0007 0 0 0 -51.2188,-25.1683 A17.2873,17.2873 0 0 0 -52.0433,-19.7249 A16.8051,16.8051 0 0 0 -51.1833,-14.2283 A11.7916,11.7916 0 0 0 -48.6922,-9.9729 A10.7741,10.7741 0 0 0 -44.7204,-7.2867 A14.2998,14.2998 0 0 0 -39.4012,-6.3558 A18.5843,18.5843 0 0 0 -37.4925,-6.4541 A14.6061,14.6061 0 0 0 -35.82,-6.7256 A13.1217,13.1217 0 0 0 -34.0303,-7.26 A11.3162,11.3162 0 0 0 -32.4596,-7.9959 A10.6308,10.6308 0 0 0 -28.0712,-12.6591 A13.18,13.18 0 0 0 -26.9948,-15.7785 A19.3981,19.3981 0 0 0 -26.5818,-19.7603 A20.6083,20.6083 0 0 0 -26.7827,-22.631 A14.6605,14.6605 0 0 0 -27.3185,-24.9982 A12.7347,12.7347 0 0 0 -28.4114,-27.4943 A11.3273,11.3273 0 0 0 -29.9329,-29.5655M37.5309,35.1862 A18.5843,18.5843 0 0 0 39.4396,35.0879 A14.6061,14.6061 0 0 0 41.1121,34.8164 A13.1217,13.1217 0 0 0 42.9019,34.282 A11.3162,11.3162 0 0 0 44.4726,33.5461 A10.6308,10.6308 0 0 0 48.861,28.8829 A13.18,13.18 0 0 0 49.9373,25.7635 A19.3981,19.3981 0 0 0 50.3504,21.7817 A17.369,17.369 0 0 0 49.5347,16.3028 A11.8532,11.8532 0 0 0 47.0879,12.0297 A10.6901,10.6901 0 0 0 43.0807,9.2637 A12.1023,12.1023 0 0 0 40.6537,8.5695 A17.412,17.412 0 0 0 37.6373,8.3062 A14.3455,14.3455 0 0 0 32.1762,9.2903 A10.8327,10.8327 0 0 0 28.1513,12.0651 A11.853,11.853 0 0 0 25.7133,16.3737 A17.3937,17.3937 0 0 0 24.8888,21.8171 A16.8051,16.8051 0 0 0 25.7488,27.3137 A11.7916,11.7916 0 0 0 28.24,31.5691 A10.7741,10.7741 0 0 0 32.2117,34.2553 A14.2998,14.2998 0 0 0 37.5309,35.1862M45.0134,21.8171 A15.2828,15.2828 0 0 1 44.7546,24.6173 A9.75634,9.75634 0 0 1 44.0914,26.764 A6.88356,6.88356 0 0 1 41.4583,29.929 A7.23744,7.23744 0 0 1 37.5309,31.0017 A7.11015,7.11015 0 0 1 34.6142,30.4077 A6.40898,6.40898 0 0 1 32.3092,28.679 A8.26001,8.26001 0 0 1 30.7843,25.78 A13.1009,13.1009 0 0 1 30.2258,21.8171 A13.428,13.428 0 0 1 30.7843,17.81 A8.21562,8.21562 0 0 1 32.3624,14.84 A6.6293,6.6293 0 0 1 34.7029,13.0758 A7.07818,7.07818 0 0 1 37.6019,12.4907 A7.11412,7.11412 0 0 1 41.3165,13.5013 A5.96984,5.96984 0 0 1 42.775,14.7255 A8.43926,8.43926 0 0 1 44.0116,16.622 A9.07921,9.07921 0 0 1 44.7248,18.797 A15.9506,15.9506 0 0 1 45.0134,21.8171M-23.7888,19.4944 L-23.7888,31.9946 A6.29515,6.29515 0 0 0 -23.7489,32.7025 A4.044,4.044 0 0 0 -23.6455,33.2613 A3.18502,3.18502 0 0 0 -23.3994,33.9101 A2.22798,2.22798 0 0 0 -23.0707,34.3883 A2.4191,2.4191 0 0 0 -21.1824,35.1862 A2.48168,2.48168 0 0 0 -19.2408,34.3883 A2.22799,2.22799 0 0 0 -18.9121,33.91 A3.18531,3.18531 0 0 0 -18.666,33.2611 A4.04443,4.04443 0 0 0 -18.5626,32.7024 A6.29531,6.29531 0 0 0 -18.5227,31.9946 L-18.5227,19.2107 A16.2667,16.2667 0 0 1 -18.379,17.0531 A8.09477,8.09477 0 0 1 -18.0351,15.567 A4.20615,4.20615 0 0 1 -16.3064,13.2974 A3.87205,3.87205 0 0 1 -15.5874,12.9305 A5.91637,5.91637 0 0 1 -14.6293,12.6517 A7.43744,7.43744 0 0 1 -13.8249,12.5351 A11.1399,11.1399 0 0 1 -12.8311,12.4907 A10.0826,10.0826 0 0 1 -11.4753,12.5823 A6.05993,6.05993 0 0 1 -10.4476,12.8141 A4.6462,4.6462 0 0 1 -9.2861,13.3725 A3.47457,3.47457 0 0 1 -8.4693,14.1308 A4.55067,4.55067 0 0 1 -7.8857,15.1146 A7.45018,7.45018 0 0 1 -7.4379,16.508 A9.76677,9.76677 0 0 1 -7.2612,17.6509 A15.4613,15.4613 0 0 1 -7.1927,19.1043 L-7.1927,31.9946 A6.50383,6.50383 0 0 0 -7.1537,32.706 A4.12845,4.12845 0 0 0 -7.053,33.2646 A3.21039,3.21039 0 0 0 -6.8084,33.9213 A2.17021,2.17021 0 0 0 -6.4835,34.3972 A2.42538,2.42538 0 0 0 -4.5863,35.1862 A2.50868,2.50868 0 0 0 -2.6625,34.3972 A2.17722,2.17722 0 0 0 -2.3252,33.9209 A3.12254,3.12254 0 0 0 -2.0728,33.2691 A3.98786,3.98786 0 0 0 -1.9674,32.7085 A6.26515,6.26515 0 0 0 -1.9266,31.9946 L-1.9266,19.4944 A26.0882,26.0882 0 0 0 -2.1026,16.4698 A12.6061,12.6061 0 0 0 -2.5206,14.4056 A7.85628,7.85628 0 0 0 -4.7636,10.824 A8.71269,8.71269 0 0 0 -8.0615,8.9091 A14.4316,14.4316 0 0 0 -12.4588,8.3062 A23.8591,23.8591 0 0 0 -15.4281,8.4917 A13.5061,13.5061 0 0 0 -17.6185,8.9534 A8.25697,8.25697 0 0 0 -21.1469,10.957 A8.07719,8.07719 0 0 0 -23.1505,14.4322 A13.1367,13.1367 0 0 0 -23.6057,16.578 A23.3113,23.3113 0 0 0 -23.7888,19.4944" style="fill:#000000;fill-rule:evenodd;"/>
    </g>
</svg>
