<?xml version="1.0" encoding="UTF-8"?>
<!-- 2020-10-25 13:28:05 Generated by QCAD 3.24.2 SVG Exporter PG -->
<svg width="210.5mm" height="210.5mm" viewBox="-105.25 -105.25 210.5 210.5" version="1.1" xmlns="http://www.w3.org/2000/svg" style="stroke-linecap:round;stroke-linejoin:round;fill:none">
    <g transform="scale(1,-1)">
        <!-- Polylinie -->
        <path d="M-90,-100 L90,-100 A10,10 0 0 1 100,-90 L100,90 A10,10 0 0 1 90,100 L-90,100 A10,10 0 0 1 -100,90 L-100,-90 A10,10 0 0 1 -90,-100" style="stroke:#000000;stroke-width:0.25;"/>
        <!-- Linie -->
        <line x1="-50" y1="-15" x2="-50" y2="15" style="stroke:#000000;stroke-width:0.5;"/>
        <!-- Linie -->
        <line x1="10" y1="-15" x2="10" y2="15" style="stroke:#000000;stroke-width:0.5;"/>
        <!-- Linie -->
        <line x1="10" y1="15" x2="50" y2="55" style="stroke:#000000;stroke-width:0.5;"/>
        <!-- Kreisbogen -->
        <path d="M-61,9.3284 A3,3 0 1,1 -59,9.3284" style="stroke:#000000;stroke-width:0.5;"/>
        <!-- Linie -->
        <line x1="-61" y1="9.3284" x2="-61" y2="36.5" style="stroke:#000000;stroke-width:0.5;"/>
        <!-- Linie -->
        <line x1="-59" y1="36.5" x2="-59" y2="9.3284" style="stroke:#000000;stroke-width:0.5;"/>
        <!-- Linie -->
        <line x1="-61" y1="36.5" x2="-65" y2="56.5" style="stroke:#000000;stroke-width:0.5;"/>
        <!-- Linie -->
        <line x1="-55" y1="56.5" x2="-59" y2="36.5" style="stroke:#000000;stroke-width:0.5;"/>
        <!-- Linie -->
        <line x1="-65" y1="56.5" x2="-65" y2="76.5" style="stroke:#000000;stroke-width:0.5;"/>
        <!-- Linie -->
        <line x1="-65" y1="76.5" x2="-55" y2="76.5" style="stroke:#000000;stroke-width:0.5;"/>
        <!-- Linie -->
        <line x1="-55" y1="76.5" x2="-55" y2="56.5" style="stroke:#000000;stroke-width:0.5;"/>
        <!-- Linie -->
        <line x1="-90" y1="-15" x2="-90" y2="-20" style="stroke:#000000;stroke-width:0.5;"/>
        <!-- Linie -->
        <line x1="-90" y1="-20" x2="50" y2="-20" style="stroke:#000000;stroke-width:0.5;"/>
        <!-- Linie -->
        <line x1="50" y1="-20" x2="50" y2="-15" style="stroke:#000000;stroke-width:0.5;"/>
        <!-- Linie -->
        <line x1="50" y1="-20" x2="90" y2="20" style="stroke:#000000;stroke-width:0.5;"/>
        <!-- Schraffur -->
        <path d="M-61,9.3284 A3,3 0 1 1 -59,9.3284 L-59,36.5 L-55,56.5 L-55,76.5 L-65,76.5 L-65,56.5 L-61,36.5 Z" style="fill:#000000;fill-rule:evenodd;"/>
        <!-- Linie -->
        <line x1="-50" y1="15" x2="10" y2="15" style="stroke:#000000;stroke-width:0.5;"/>
        <!-- Linie -->
        <line x1="-50" y1="-15" x2="-90" y2="-15" style="stroke:#000000;stroke-width:0.5;"/>
        <!-- Linie -->
        <line x1="10" y1="-15" x2="50" y2="-15" style="stroke:#000000;stroke-width:0.5;"/>
        <!-- Linie -->
        <line x1="50" y1="-15" x2="90" y2="25" style="stroke:#000000;stroke-width:0.5;"/>
        <!-- Linie -->
        <line x1="90" y1="25" x2="90" y2="20" style="stroke:#000000;stroke-width:0.5;"/>
        <!-- Linie -->
        <line x1="-90" y1="-15" x2="-50" y2="25" style="stroke:#000000;stroke-width:0.5;"/>
        <!-- Linie -->
        <line x1="-50" y1="25" x2="-40" y2="25" style="stroke:#000000;stroke-width:0.5;"/>
        <!-- Linie -->
        <line x1="50" y1="25" x2="90" y2="25" style="stroke:#000000;stroke-width:0.5;"/>
        <!-- Linie -->
        <line x1="10" y1="-15" x2="50" y2="25" style="stroke:#000000;stroke-width:0.5;"/>
        <!-- Linie -->
        <line x1="50" y1="55" x2="50" y2="25" style="stroke:#000000;stroke-width:0.5;"/>
        <!-- Linie -->
        <line x1="50" y1="55" x2="-10" y2="55" style="stroke:#000000;stroke-width:0.5;"/>
        <!-- Linie -->
        <line x1="-50" y1="15" x2="-10" y2="55" style="stroke:#000000;stroke-width:0.5;"/>
        <!-- Polylinie -->
        <path d="M-23.7477,-47.124 L-32.2965,-47.124 L-32.2965,-75.2242 A9.63818,9.63818 0 0 0 -32.356,-76.2939 A6.0937,6.0937 0 0 0 -32.5095,-77.1317 A4.73111,4.73111 0 0 0 -32.8824,-78.1151 A3.21197,3.21197 0 0 0 -33.3783,-78.8258 A3.62942,3.62942 0 0 0 -36.1751,-80 A3.68173,3.68173 0 0 0 -39.0115,-78.8126 A3.29742,3.29742 0 0 0 -39.5131,-78.0983 A4.69559,4.69559 0 0 0 -39.8882,-77.1265 A5.97178,5.97178 0 0 0 -40.0456,-76.2885 A9.33381,9.33381 0 0 0 -40.1065,-75.2242 L-40.1065,-47.124 L-48.6553,-47.124 A8.05647,8.05647 0 0 0 -49.5389,-47.0754 A5.10471,5.10471 0 0 0 -50.2321,-46.95 A3.9649,3.9649 0 0 0 -51.0472,-46.6451 A2.67846,2.67846 0 0 0 -51.6368,-46.2401 A2.99868,2.99868 0 0 0 -52.6131,-43.9051 A3.99476,3.99476 0 0 0 -52.5487,-43.1909 A2.95155,2.95155 0 0 0 -52.3758,-42.5992 A2.72805,2.72805 0 0 0 -52.0566,-42.0276 A2.91641,2.91641 0 0 0 -51.5972,-41.5304 A2.93575,2.93575 0 0 0 -50.9978,-41.1327 A4.03622,4.03622 0 0 0 -50.208,-40.8369 A5.01722,5.01722 0 0 0 -49.518,-40.7088 A7.60739,7.60739 0 0 0 -48.6553,-40.6597 L-23.7477,-40.6597 A8.14832,8.14832 0 0 0 -22.8522,-40.709 A5.16434,5.16434 0 0 0 -22.1497,-40.8364 A4.01303,4.01303 0 0 0 -21.3241,-41.1457 A2.71557,2.71557 0 0 0 -20.7266,-41.5568 A3.02022,3.02022 0 0 0 -19.7372,-43.9051 A2.96134,2.96134 0 0 0 -20.7398,-46.2401 A2.79651,2.79651 0 0 0 -21.3406,-46.6447 A4.06603,4.06603 0 0 0 -22.1594,-46.9485 A5.18228,5.18228 0 0 0 -22.8601,-47.0751 A8.07864,8.07864 0 0 0 -23.7477,-47.124" style="stroke:#000000;stroke-width:0.25;"/>
        <!-- Polylinie -->
        <path d="M6.4137,-74.9604 L4.5667,-70.1055 L-11.1588,-70.1055 L-13.0058,-75.0659 A46.5661,46.5661 0 0 0 -13.4525,-76.2175 A26.8602,26.8602 0 0 0 -13.8184,-77.0812 A17.6948,17.6948 0 0 0 -14.4414,-78.3449 A5.15091,5.15091 0 0 0 -14.8527,-78.9841 A2.21811,2.21811 0 0 0 -15.3327,-79.4527 A2.61058,2.61058 0 0 0 -15.9775,-79.7899 A3.24244,3.24244 0 0 0 -16.5777,-79.9409 A5.20157,5.20157 0 0 0 -17.3593,-80 A3.67509,3.67509 0 0 0 -19.9715,-78.9182 A4.47296,4.47296 0 0 0 -20.4664,-78.3603 A3.33806,3.33806 0 0 0 -20.8008,-77.8096 A3.06143,3.06143 0 0 0 -21.0283,-77.1583 A3.13585,3.13585 0 0 0 -21.106,-76.4643 A5.47325,5.47325 0 0 0 -20.8422,-74.8285 A33.2592,33.2592 0 0 0 -19.9715,-72.4802 L-10.077,-47.3615 A3098.99,3098.99 0 0 0 -9.0612,-44.7626 A13.1408,13.1408 0 0 0 -7.7947,-42.2428 A5.14524,5.14524 0 0 0 -6.0269,-40.6201 A5.41893,5.41893 0 0 0 -3.3224,-40.0001 A7.17626,7.17626 0 0 0 -1.7335,-40.1782 A4.20858,4.20858 0 0 0 -0.5916,-40.6201 A5.25021,5.25021 0 0 0 1.1763,-42.2164 A11.1959,11.1959 0 0 0 2.3108,-44.314 A123.91,123.91 0 0 0 3.485,-47.3087 L13.5905,-72.2691 A33.6276,33.6276 0 0 0 14.0438,-73.4159 A19.2943,19.2943 0 0 0 14.3499,-74.2983 A12.6879,12.6879 0 0 0 14.7012,-75.6474 A3.85072,3.85072 0 0 0 14.7778,-76.4116 A3.08927,3.08927 0 0 0 14.7006,-77.0978 A3.16183,3.16183 0 0 0 14.4711,-77.7576 A3.51125,3.51125 0 0 0 14.1428,-78.3093 A4.77684,4.77684 0 0 0 13.6564,-78.8786 A3.68569,3.68569 0 0 0 10.952,-80 A3.50629,3.50629 0 0 0 9.3688,-79.6701 A3.2421,3.2421 0 0 0 8.2607,-78.773 A8.25384,8.25384 0 0 0 7.2976,-77.0316 A102.039,102.039 0 0 0 6.4137,-74.9604" style="stroke:#000000;stroke-width:0.25;"/>
        <!-- Polylinie -->
        <path d="M-9.1008,-64.2216 L2.4559,-64.2216 L-3.3752,-48.2586 Z" style="stroke:#000000;stroke-width:0.25;"/>
        <!-- Polylinie -->
        <path d="M37.0458,-79.3403 L25.2253,-79.3403 A9.98412,9.98412 0 0 0 24.1193,-79.2789 A5.99908,5.99908 0 0 0 23.275,-79.123 A4.45857,4.45857 0 0 0 22.2599,-78.721 A2.81951,2.81951 0 0 0 21.5709,-78.1926 A3.03856,3.03856 0 0 0 21.0681,-77.4863 A4.72185,4.72185 0 0 0 20.6865,-76.4751 A6.23066,6.23066 0 0 0 20.5351,-75.63 A10.1039,10.1039 0 0 0 20.4759,-74.5382 L20.4759,-45.4618 A10.2446,10.2446 0 0 0 20.536,-44.3545 A6.20515,6.20515 0 0 0 20.6887,-43.5051 A4.62988,4.62988 0 0 0 21.0816,-42.4806 A2.90438,2.90438 0 0 0 21.5973,-41.781 A2.94478,2.94478 0 0 0 22.293,-41.2654 A4.54375,4.54375 0 0 0 23.2951,-40.8748 A6.01936,6.01936 0 0 0 24.135,-40.7203 A9.84108,9.84108 0 0 0 25.2253,-40.6597 L37.7582,-40.6597 A29.2451,29.2451 0 0 0 42.5603,-41.0027 A10.2323,10.2323 0 0 0 46.2015,-42.3219 A9.55293,9.55293 0 0 0 48.6289,-44.3932 A9.13909,9.13909 0 0 0 50.2384,-47.1636 A9.27107,9.27107 0 0 0 50.7925,-50.3694 A10.8267,10.8267 0 0 0 50.6968,-51.8053 A8.78685,8.78685 0 0 0 50.4306,-53.0742 A8.20154,8.20154 0 0 0 49.9395,-54.3604 A7.96586,7.96586 0 0 0 49.2488,-55.5283 A8.3129,8.3129 0 0 0 48.4086,-56.5298 A9.89768,9.89768 0 0 0 47.338,-57.4725 A11.1517,11.1517 0 0 0 46.2764,-58.187 A14.4434,14.4434 0 0 0 44.9878,-58.8654 A17.5828,17.5828 0 0 0 46.6446,-59.4863 A12.9124,12.9124 0 0 0 47.9981,-60.1698 A11.0956,11.0956 0 0 0 49.4275,-61.1577 A8.75626,8.75626 0 0 0 50.5342,-62.2338 A8.20036,8.20036 0 0 0 51.4698,-63.5677 A8.39293,8.39293 0 0 0 52.1325,-65.0769 A9.14438,9.14438 0 0 0 52.4844,-66.5699 A11.8499,11.8499 0 0 0 52.6131,-68.3113 A10.6157,10.6157 0 0 0 50.9508,-74.1556 A9.97523,9.97523 0 0 0 46.4653,-77.9947 A15.9483,15.9483 0 0 0 42.402,-79.0369 A41.4065,41.4065 0 0 0 37.0458,-79.3403" style="stroke:#000000;stroke-width:0.25;"/>
        <!-- Polylinie -->
        <path d="M36.4653,-62.1636 L28.3123,-62.1636 L28.3123,-73.4564 L36.7292,-73.4564 A19.8937,19.8937 0 0 1 38.2612,-73.3974 A13.3159,13.3159 0 0 1 39.5059,-73.242 A10.5234,10.5234 0 0 1 41.0163,-72.8637 A6.53345,6.53345 0 0 1 42.1398,-72.3708 A5.22586,5.22586 0 0 1 43.2979,-71.4963 A4.3575,4.3575 0 0 1 44.0808,-70.4272 A4.75133,4.75133 0 0 1 44.5066,-69.2516 A7.11097,7.11097 0 0 1 44.6711,-67.7309 A7.23673,7.23673 0 0 1 44.5426,-66.3732 A4.74058,4.74058 0 0 1 44.2107,-65.3204 A4.14511,4.14511 0 0 1 43.5576,-64.2989 A4.39312,4.39312 0 0 1 42.6131,-63.4828 A6.06051,6.06051 0 0 1 41.3924,-62.8818 A10.8237,10.8237 0 0 1 39.6357,-62.4126 A14.3347,14.3347 0 0 1 38.2361,-62.233 A22.6107,22.6107 0 0 1 36.4653,-62.1636" style="stroke:#000000;stroke-width:0.25;"/>
        <!-- Polylinie -->
        <path d="M28.3123,-46.5436 L28.3123,-56.5435 L35.4891,-56.5435 A23.8515,23.8515 0 0 1 38.388,-56.3667 A7.87948,7.87948 0 0 1 40.0141,-55.9895 A4.31958,4.31958 0 0 1 42.4548,-53.8786 A4.75632,4.75632 0 0 1 43.1144,-51.3984 A6.93442,6.93442 0 0 1 42.987,-50.0751 A4.0243,4.0243 0 0 1 42.6701,-49.1132 A3.28996,3.28996 0 0 1 42.0018,-48.1771 A3.46675,3.46675 0 0 1 41.03,-47.5066 A7.06963,7.06963 0 0 1 39.7963,-47.0701 A15.3006,15.3006 0 0 1 37.9038,-46.7169 A21.0105,21.0105 0 0 1 36.4816,-46.5921 A33.8124,33.8124 0 0 1 34.6712,-46.5436 Z" style="stroke:#000000;stroke-width:0.25;"/>
        <!-- Schraffur -->
        <path d="M-9.1008,-64.2216 L2.4559,-64.2216 L-3.3752,-48.2586 ZM37.0458,-79.3403 L25.2253,-79.3403 A9.98412,9.98412 0 0 0 24.1193,-79.2789 A5.99908,5.99908 0 0 0 23.275,-79.123 A4.45857,4.45857 0 0 0 22.2599,-78.721 A2.81951,2.81951 0 0 0 21.5709,-78.1926 A3.03856,3.03856 0 0 0 21.0681,-77.4863 A4.72185,4.72185 0 0 0 20.6865,-76.4751 A6.23066,6.23066 0 0 0 20.5351,-75.63 A10.1039,10.1039 0 0 0 20.4759,-74.5382 L20.4759,-45.4618 A10.2446,10.2446 0 0 0 20.536,-44.3545 A6.20515,6.20515 0 0 0 20.6887,-43.5051 A4.62988,4.62988 0 0 0 21.0816,-42.4806 A2.90438,2.90438 0 0 0 21.5973,-41.781 A2.94478,2.94478 0 0 0 22.293,-41.2654 A4.54375,4.54375 0 0 0 23.2951,-40.8748 A6.01936,6.01936 0 0 0 24.135,-40.7203 A9.84108,9.84108 0 0 0 25.2253,-40.6597 L37.7582,-40.6597 A29.2451,29.2451 0 0 0 42.5603,-41.0027 A10.2323,10.2323 0 0 0 46.2015,-42.3219 A9.55293,9.55293 0 0 0 48.6289,-44.3932 A9.13909,9.13909 0 0 0 50.2384,-47.1636 A9.27107,9.27107 0 0 0 50.7925,-50.3694 A10.8267,10.8267 0 0 0 50.6968,-51.8053 A8.78685,8.78685 0 0 0 50.4306,-53.0742 A8.20154,8.20154 0 0 0 49.9395,-54.3604 A7.96586,7.96586 0 0 0 49.2488,-55.5283 A8.3129,8.3129 0 0 0 48.4086,-56.5298 A9.89768,9.89768 0 0 0 47.338,-57.4725 A11.1517,11.1517 0 0 0 46.2764,-58.187 A14.4434,14.4434 0 0 0 44.9878,-58.8654 A17.5828,17.5828 0 0 0 46.6446,-59.4863 A12.9124,12.9124 0 0 0 47.9981,-60.1698 A11.0956,11.0956 0 0 0 49.4275,-61.1577 A8.75626,8.75626 0 0 0 50.5342,-62.2338 A8.20036,8.20036 0 0 0 51.4698,-63.5677 A8.39293,8.39293 0 0 0 52.1325,-65.0769 A9.14438,9.14438 0 0 0 52.4844,-66.5699 A11.8499,11.8499 0 0 0 52.6131,-68.3113 A10.6157,10.6157 0 0 0 50.9508,-74.1556 A9.97523,9.97523 0 0 0 46.4653,-77.9947 A15.9483,15.9483 0 0 0 42.402,-79.0369 A41.4065,41.4065 0 0 0 37.0458,-79.3403M36.4653,-62.1636 L28.3123,-62.1636 L28.3123,-73.4564 L36.7292,-73.4564 A19.8937,19.8937 0 0 1 38.2612,-73.3974 A13.3159,13.3159 0 0 1 39.5059,-73.242 A10.5234,10.5234 0 0 1 41.0163,-72.8637 A6.53345,6.53345 0 0 1 42.1398,-72.3708 A5.22586,5.22586 0 0 1 43.2979,-71.4963 A4.3575,4.3575 0 0 1 44.0808,-70.4272 A4.75133,4.75133 0 0 1 44.5066,-69.2516 A7.11097,7.11097 0 0 1 44.6711,-67.7309 A7.23673,7.23673 0 0 1 44.5426,-66.3732 A4.74058,4.74058 0 0 1 44.2107,-65.3204 A4.14511,4.14511 0 0 1 43.5576,-64.2989 A4.39312,4.39312 0 0 1 42.6131,-63.4828 A6.06051,6.06051 0 0 1 41.3924,-62.8818 A10.8237,10.8237 0 0 1 39.6357,-62.4126 A14.3347,14.3347 0 0 1 38.2361,-62.233 A22.6107,22.6107 0 0 1 36.4653,-62.1636M28.3123,-46.5436 L28.3123,-56.5435 L35.4891,-56.5435 A23.8515,23.8515 0 0 1 38.388,-56.3667 A7.87948,7.87948 0 0 1 40.0141,-55.9895 A4.31958,4.31958 0 0 1 42.4548,-53.8786 A4.75632,4.75632 0 0 1 43.1144,-51.3984 A6.93442,6.93442 0 0 1 42.987,-50.0751 A4.0243,4.0243 0 0 1 42.6701,-49.1132 A3.28996,3.28996 0 0 1 42.0018,-48.1771 A3.46675,3.46675 0 0 1 41.03,-47.5066 A7.06963,7.06963 0 0 1 39.7963,-47.0701 A15.3006,15.3006 0 0 1 37.9038,-46.7169 A21.0105,21.0105 0 0 1 36.4816,-46.5921 A33.8124,33.8124 0 0 1 34.6712,-46.5436 ZM-23.7477,-47.124 L-32.2965,-47.124 L-32.2965,-75.2242 A9.63818,9.63818 0 0 0 -32.356,-76.2939 A6.0937,6.0937 0 0 0 -32.5095,-77.1317 A4.73111,4.73111 0 0 0 -32.8824,-78.1151 A3.21197,3.21197 0 0 0 -33.3783,-78.8258 A3.62942,3.62942 0 0 0 -36.1751,-80 A3.68173,3.68173 0 0 0 -39.0115,-78.8126 A3.29742,3.29742 0 0 0 -39.5131,-78.0983 A4.69559,4.69559 0 0 0 -39.8882,-77.1265 A5.97178,5.97178 0 0 0 -40.0456,-76.2885 A9.33381,9.33381 0 0 0 -40.1065,-75.2242 L-40.1065,-47.124 L-48.6553,-47.124 A8.05647,8.05647 0 0 0 -49.5389,-47.0754 A5.10471,5.10471 0 0 0 -50.2321,-46.95 A3.9649,3.9649 0 0 0 -51.0472,-46.6451 A2.67846,2.67846 0 0 0 -51.6368,-46.2401 A2.99868,2.99868 0 0 0 -52.6131,-43.9051 A3.99476,3.99476 0 0 0 -52.5487,-43.1909 A2.95155,2.95155 0 0 0 -52.3758,-42.5992 A2.72805,2.72805 0 0 0 -52.0566,-42.0276 A2.91641,2.91641 0 0 0 -51.5972,-41.5304 A2.93575,2.93575 0 0 0 -50.9978,-41.1327 A4.03622,4.03622 0 0 0 -50.208,-40.8369 A5.01722,5.01722 0 0 0 -49.518,-40.7088 A7.60739,7.60739 0 0 0 -48.6553,-40.6597 L-23.7477,-40.6597 A8.14832,8.14832 0 0 0 -22.8522,-40.709 A5.16434,5.16434 0 0 0 -22.1497,-40.8364 A4.01303,4.01303 0 0 0 -21.3241,-41.1457 A2.71557,2.71557 0 0 0 -20.7266,-41.5568 A3.02022,3.02022 0 0 0 -19.7372,-43.9051 A2.96134,2.96134 0 0 0 -20.7398,-46.2401 A2.79651,2.79651 0 0 0 -21.3406,-46.6447 A4.06603,4.06603 0 0 0 -22.1594,-46.9485 A5.18228,5.18228 0 0 0 -22.8601,-47.0751 A8.07864,8.07864 0 0 0 -23.7477,-47.124M6.4137,-74.9604 L4.5667,-70.1055 L-11.1588,-70.1055 L-13.0058,-75.0659 A46.5661,46.5661 0 0 0 -13.4525,-76.2175 A26.8602,26.8602 0 0 0 -13.8184,-77.0812 A17.6948,17.6948 0 0 0 -14.4414,-78.3449 A5.15091,5.15091 0 0 0 -14.8527,-78.9841 A2.21811,2.21811 0 0 0 -15.3327,-79.4527 A2.61058,2.61058 0 0 0 -15.9775,-79.7899 A3.24244,3.24244 0 0 0 -16.5777,-79.9409 A5.20157,5.20157 0 0 0 -17.3593,-80 A3.67509,3.67509 0 0 0 -19.9715,-78.9182 A4.47296,4.47296 0 0 0 -20.4664,-78.3603 A3.33806,3.33806 0 0 0 -20.8008,-77.8096 A3.06143,3.06143 0 0 0 -21.0283,-77.1583 A3.13585,3.13585 0 0 0 -21.106,-76.4643 A5.47325,5.47325 0 0 0 -20.8422,-74.8285 A33.2592,33.2592 0 0 0 -19.9715,-72.4802 L-10.077,-47.3615 A3098.99,3098.99 0 0 0 -9.0612,-44.7626 A13.1408,13.1408 0 0 0 -7.7947,-42.2428 A5.14524,5.14524 0 0 0 -6.0269,-40.6201 A5.41893,5.41893 0 0 0 -3.3224,-40.0001 A7.17626,7.17626 0 0 0 -1.7335,-40.1782 A4.20858,4.20858 0 0 0 -0.5916,-40.6201 A5.25021,5.25021 0 0 0 1.1763,-42.2164 A11.1959,11.1959 0 0 0 2.3108,-44.314 A123.91,123.91 0 0 0 3.485,-47.3087 L13.5905,-72.2691 A33.6276,33.6276 0 0 0 14.0438,-73.4159 A19.2943,19.2943 0 0 0 14.3499,-74.2983 A12.6879,12.6879 0 0 0 14.7012,-75.6474 A3.85072,3.85072 0 0 0 14.7778,-76.4116 A3.08927,3.08927 0 0 0 14.7006,-77.0978 A3.16183,3.16183 0 0 0 14.4711,-77.7576 A3.51125,3.51125 0 0 0 14.1428,-78.3093 A4.77684,4.77684 0 0 0 13.6564,-78.8786 A3.68569,3.68569 0 0 0 10.952,-80 A3.50629,3.50629 0 0 0 9.3688,-79.6701 A3.2421,3.2421 0 0 0 8.2607,-78.773 A8.25384,8.25384 0 0 0 7.2976,-77.0316 A102.039,102.039 0 0 0 6.4137,-74.9604" style="fill:#000000;fill-rule:evenodd;"/>
    </g>
</svg>
