<?xml version="1.0" encoding="UTF-8"?>
<!-- 2020-10-26 14:50:04 Generated by QCAD 3.24.2 SVG Exporter PG -->
<svg width="212mm" height="212mm" viewBox="-106 -106 212 212" version="1.1" xmlns="http://www.w3.org/2000/svg" style="stroke-linecap:round;stroke-linejoin:round;fill:none">
    <g transform="scale(1,-1)">
        <!-- Schraffur -->
        <path d="M100,-85.5 L100,85.5 A14.5,14.5 0 0 1 85.5,100 L-85.5,100 A14.5,14.5 0 0 1 -100,85.5 L-100,-85.5 A14.5,14.5 0 0 1 -85.5,-100 L85.5,-100 A14.5,14.5 0 0 1 100,-85.5M-85.5,95 A9.5,9.5 0 0 1 -95,85.5 L-95,-85.5 A9.5,9.5 0 0 1 -85.5,-95 L85.5,-95 A9.5,9.5 0 0 1 95,-85.5 L95,85.5 A9.5,9.5 0 0 1 85.5,95 Z" style="fill:#000000;fill-rule:evenodd;"/>
        <!-- Kreisbogen -->
        <path d="M-0.4,18.3492 A1.6,1.6 0 1,1 0.4,18.3492" style="stroke:#000000;stroke-width:2;"/>
        <!-- Linie -->
        <line x1="-0.4" y1="18.3492" x2="-0.4" y2="32.8" style="stroke:#000000;stroke-width:2;"/>
        <!-- Linie -->
        <line x1="-0.4" y1="32.8" x2="-2.4" y2="48.8" style="stroke:#000000;stroke-width:2;"/>
        <!-- Linie -->
        <line x1="-2.4" y1="48.8" x2="-2.4" y2="64.8" style="stroke:#000000;stroke-width:2;"/>
        <!-- Linie -->
        <line x1="-2.4" y1="64.8" x2="2.4" y2="64.8" style="stroke:#000000;stroke-width:2;"/>
        <!-- Linie -->
        <line x1="2.4" y1="64.8" x2="2.4" y2="48.8" style="stroke:#000000;stroke-width:2;"/>
        <!-- Linie -->
        <line x1="2.4" y1="48.8" x2="0.4" y2="32.8" style="stroke:#000000;stroke-width:2;"/>
        <!-- Linie -->
        <line x1="0.4" y1="32.8" x2="0.4" y2="18.3492" style="stroke:#000000;stroke-width:2;"/>
        <!-- Schraffur -->
        <path d="M-2.4,64.8 L2.4,64.8 L2.4,48.8 L0.4,32.8 L0.4,18.3492 A1.6,1.6 0 1 0 -0.4,18.3492 L-0.4,32.8 L-2.4,48.8 Z" style="fill:#000000;fill-rule:evenodd;"/>
        <!-- Linie -->
        <line x1="-50" y1="-50" x2="50" y2="-50" style="stroke:#000000;stroke-width:2;"/>
        <!-- Linie -->
        <line x1="-50" y1="-50" x2="0" y2="0" style="stroke:#000000;stroke-width:2;"/>
        <!-- Linie -->
        <line x1="-50" y1="-50" x2="-50" y2="50" style="stroke:#000000;stroke-width:2;"/>
        <!-- Linie -->
        <line x1="-50" y1="50" x2="-60" y2="40" style="stroke:#000000;stroke-width:2;"/>
        <!-- Linie -->
        <line x1="-50" y1="50" x2="-40" y2="40" style="stroke:#000000;stroke-width:2;"/>
        <!-- Linie -->
        <line x1="50" y1="-50" x2="40" y2="-40" style="stroke:#000000;stroke-width:2;"/>
        <!-- Linie -->
        <line x1="50" y1="-50" x2="40" y2="-60" style="stroke:#000000;stroke-width:2;"/>
        <!-- Linie -->
        <line x1="0" y1="0" x2="-10" y2="0" style="stroke:#000000;stroke-width:2;"/>
        <!-- Linie -->
        <line x1="0" y1="0" x2="0" y2="-10" style="stroke:#000000;stroke-width:2;"/>
    </g>
</svg>
