<?xml version="1.0" encoding="UTF-8"?>
<!-- 2020-10-26 15:34:41 Generated by QCAD 3.24.2 SVG Exporter PG -->
<svg width="210.25mm" height="210.25mm" viewBox="-105.125 -105.125 210.25 210.25" version="1.1" xmlns="http://www.w3.org/2000/svg" style="stroke-linecap:round;stroke-linejoin:round;fill:none">
    <g transform="scale(1,-1)">
        <!-- Schraffur -->
        <path d="M100,-85.5 L100,85.5 A14.5,14.5 0 0 1 85.5,100 L-85.5,100 A14.5,14.5 0 0 1 -100,85.5 L-100,-85.5 A14.5,14.5 0 0 1 -85.5,-100 L85.5,-100 A14.5,14.5 0 0 1 100,-85.5M-85.5,95 A9.5,9.5 0 0 1 -95,85.5 L-95,-85.5 A9.5,9.5 0 0 1 -85.5,-95 L85.5,-95 A9.5,9.5 0 0 1 95,-85.5 L95,85.5 A9.5,9.5 0 0 1 85.5,95 Z" style="fill:#000000;fill-rule:evenodd;"/>
        <!-- Kreisbogen -->
        <path d="M48.8679,-9.9617 A9.535,9.535 0 0,0 47.8274,-14.4759" style="stroke:#000000;stroke-width:0.25;"/>
        <!-- Kreisbogen -->
        <path d="M47.8274,-14.4759 A9.5392,9.5392 0 0,0 44.92,-17.7965" style="stroke:#000000;stroke-width:0.25;"/>
        <!-- Kreisbogen -->
        <path d="M44.92,-17.7965 A13.7216,13.7216 0 0,0 40.5129,-19.847" style="stroke:#000000;stroke-width:0.25;"/>
        <!-- Kreisbogen -->
        <path d="M40.5129,-19.847 A20.5679,20.5679 0 0,0 35.0041,-20.5509" style="stroke:#000000;stroke-width:0.25;"/>
        <!-- Kreisbogen -->
        <path d="M35.0041,-20.5509 A20.4767,20.4767 0 0,0 29.2352,-19.8164" style="stroke:#000000;stroke-width:0.25;"/>
        <!-- Kreisbogen -->
        <path d="M29.2352,-19.8164 A12.3926,12.3926 0 0,0 25.0577,-17.7659" style="stroke:#000000;stroke-width:0.25;"/>
        <!-- Kreisbogen -->
        <path d="M25.0577,-17.7659 A8.641,8.641 0 0,0 22.5175,-14.6442" style="stroke:#000000;stroke-width:0.25;"/>
        <!-- Kreisbogen -->
        <path d="M22.5175,-14.6442 A9.1608,9.1608 0 0,0 21.6606,-10.6656" style="stroke:#000000;stroke-width:0.25;"/>
        <!-- Kreisbogen -->
        <path d="M21.6606,-10.6656 A12.2658,12.2658 0 0,0 21.7894,-8.8931" style="stroke:#000000;stroke-width:0.25;"/>
        <!-- Kreisbogen -->
        <path d="M21.7894,-8.8931 A10.0936,10.0936 0 0,0 22.149,-7.3215" style="stroke:#000000;stroke-width:0.25;"/>
        <!-- Kreisbogen -->
        <path d="M22.149,-7.3215 A9.575,9.575 0 0,0 22.7951,-5.7634" style="stroke:#000000;stroke-width:0.25;"/>
        <!-- Kreisbogen -->
        <path d="M22.7951,-5.7634 A9.7334,9.7334 0 0,0 23.7111,-4.3305" style="stroke:#000000;stroke-width:0.25;"/>
        <!-- Kreisbogen -->
        <path d="M23.7111,-4.3305 A11.7942,11.7942 0 0,0 24.9282,-2.9798" style="stroke:#000000;stroke-width:0.25;"/>
        <!-- Kreisbogen -->
        <path d="M24.9282,-2.9798 A17.1835,17.1835 0 0,0 26.6118,-1.5722" style="stroke:#000000;stroke-width:0.25;"/>
        <!-- Kreisbogen -->
        <path d="M26.6118,-1.5722 A20.7777,20.7777 0 0,0 28.1408,-0.5525" style="stroke:#000000;stroke-width:0.25;"/>
        <!-- Kreisbogen -->
        <path d="M28.1408,-0.5525 A29.2143,29.2143 0 0,0 30.0462,0.505" style="stroke:#000000;stroke-width:0.25;"/>
        <!-- Kreisbogen -->
        <path d="M30.0462,0.505 A26.0762,26.0762 0 0,0 28.3121,1.4703" style="stroke:#000000;stroke-width:0.25;"/>
        <!-- Kreisbogen -->
        <path d="M28.3121,1.4703 A18.3141,18.3141 0 0,0 26.9314,2.3976" style="stroke:#000000;stroke-width:0.25;"/>
        <!-- Kreisbogen -->
        <path d="M26.9314,2.3976 A15.0182,15.0182 0 0,0 25.4063,3.6913" style="stroke:#000000;stroke-width:0.25;"/>
        <!-- Kreisbogen -->
        <path d="M25.4063,3.6913 A10.1416,10.1416 0 0,0 24.3232,4.9273" style="stroke:#000000;stroke-width:0.25;"/>
        <!-- Kreisbogen -->
        <path d="M24.3232,4.9273 A9.1248,9.1248 0 0,0 22.5175,10.5126" style="stroke:#000000;stroke-width:0.25;"/>
        <!-- Kreisbogen -->
        <path d="M22.5175,10.5126 A9.1663,9.1663 0 0,0 23.3132,14.2464" style="stroke:#000000;stroke-width:0.25;"/>
        <!-- Kreisbogen -->
        <path d="M23.3132,14.2464 A9.1736,9.1736 0 0,0 25.7157,17.4598" style="stroke:#000000;stroke-width:0.25;"/>
        <!-- Kreisbogen -->
        <path d="M25.7157,17.4598 A12.0285,12.0285 0 0,0 29.7402,19.7093" style="stroke:#000000;stroke-width:0.25;"/>
        <!-- Kreisbogen -->
        <path d="M29.7402,19.7093 A13.4688,13.4688 0 0,0 32.1981,20.3131" style="stroke:#000000;stroke-width:0.25;"/>
        <!-- Kreisbogen -->
        <path d="M32.1981,20.3131 A22.1146,22.1146 0 0,0 35.4326,20.5509" style="stroke:#000000;stroke-width:0.25;"/>
        <!-- Kreisbogen -->
        <path d="M35.4326,20.5509 A20.1587,20.1587 0 0,0 40.8649,19.8929" style="stroke:#000000;stroke-width:0.25;"/>
        <!-- Kreisbogen -->
        <path d="M40.8649,19.8929 A11.4674,11.4674 0 0,0 44.7976,18.0107" style="stroke:#000000;stroke-width:0.25;"/>
        <!-- Kreisbogen -->
        <path d="M44.7976,18.0107 A7.7859,7.7859 0 0,0 47.1847,15.0421" style="stroke:#000000;stroke-width:0.25;"/>
        <!-- Kreisbogen -->
        <path d="M47.1847,15.0421 A9.2581,9.2581 0 0,0 47.9804,11.1553" style="stroke:#000000;stroke-width:0.25;"/>
        <!-- Kreisbogen -->
        <path d="M47.9804,11.1553 A11.6137,11.6137 0 0,0 47.8591,9.4814" style="stroke:#000000;stroke-width:0.25;"/>
        <!-- Kreisbogen -->
        <path d="M47.8591,9.4814 A9.3321,9.3321 0 0,0 47.523,8.0149" style="stroke:#000000;stroke-width:0.25;"/>
        <!-- Kreisbogen -->
        <path d="M47.523,8.0149 A8.7381,8.7381 0 0,0 46.9075,6.5477" style="stroke:#000000;stroke-width:0.25;"/>
        <!-- Kreisbogen -->
        <path d="M46.9075,6.5477 A8.7179,8.7179 0 0,0 46.037,5.2181" style="stroke:#000000;stroke-width:0.25;"/>
        <!-- Kreisbogen -->
        <path d="M46.037,5.2181 A12.8066,12.8066 0 0,0 43.8552,3.0605" style="stroke:#000000;stroke-width:0.25;"/>
        <!-- Kreisbogen -->
        <path d="M43.8552,3.0605 A21.3475,21.3475 0 0,0 40.5129,0.9334" style="stroke:#000000;stroke-width:0.25;"/>
        <!-- Kreisbogen -->
        <path d="M40.5129,0.9334 A26.1287,26.1287 0 0,0 43.8182,-1.0252" style="stroke:#000000;stroke-width:0.25;"/>
        <!-- Kreisbogen -->
        <path d="M43.8182,-1.0252 A14.3269,14.3269 0 0,0 46.4808,-3.4124" style="stroke:#000000;stroke-width:0.25;"/>
        <!-- Kreisbogen -->
        <path d="M46.4808,-3.4124 A10.0055,10.0055 0 0,0 48.2406,-6.3504" style="stroke:#000000;stroke-width:0.25;"/>
        <!-- Kreisbogen -->
        <path d="M48.2406,-6.3504 A9.9379,9.9379 0 0,0 48.8679,-9.9617" style="stroke:#000000;stroke-width:0.25;"/>
        <!-- Linie -->
        <line x1="14.4147" y1="-20" x2="-11.9357" y2="-20" style="stroke:#000000;stroke-width:0.25;"/>
        <!-- Linie -->
        <line x1="-11.9357" y1="-20" x2="-11.9357" y2="-15.2257" style="stroke:#000000;stroke-width:0.25;"/>
        <!-- Linie -->
        <line x1="-11.9357" y1="-15.2257" x2="-1.5914" y2="-4.9426" style="stroke:#000000;stroke-width:0.25;"/>
        <!-- Kreisbogen -->
        <path d="M-1.5914,-4.9426 A79.6752,79.6752 0 0,1 2.5402,-0.5968" style="stroke:#000000;stroke-width:0.25;"/>
        <!-- Kreisbogen -->
        <path d="M2.5402,-0.5968 A23.0749,23.0749 0 0,1 5.0191,2.7544" style="stroke:#000000;stroke-width:0.25;"/>
        <!-- Kreisbogen -->
        <path d="M5.0191,2.7544 A10.2073,10.2073 0 0,1 6.2127,5.6159" style="stroke:#000000;stroke-width:0.25;"/>
        <!-- Kreisbogen -->
        <path d="M6.2127,5.6159 A13.1053,13.1053 0 0,1 6.5187,8.5233" style="stroke:#000000;stroke-width:0.25;"/>
        <!-- Kreisbogen -->
        <path d="M6.5187,8.5233 A9.7285,9.7285 0 0,1 6.1209,11.3236" style="stroke:#000000;stroke-width:0.25;"/>
        <!-- Kreisbogen -->
        <path d="M6.1209,11.3236 A6.6668,6.6668 0 0,1 4.8967,13.6649" style="stroke:#000000;stroke-width:0.25;"/>
        <!-- Kreisbogen -->
        <path d="M4.8967,13.6649 A5.6755,5.6755 0 0,1 2.7544,15.2563" style="stroke:#000000;stroke-width:0.25;"/>
        <!-- Kreisbogen -->
        <path d="M2.7544,15.2563 A7.7643,7.7643 0 0,1 -0.3979,15.8378" style="stroke:#000000;stroke-width:0.25;"/>
        <!-- Kreisbogen -->
        <path d="M-0.3979,15.8378 A9.5098,9.5098 0 0,1 -5.0191,14.7054" style="stroke:#000000;stroke-width:0.25;"/>
        <!-- Kreisbogen -->
        <path d="M-5.0191,14.7054 A15.8302,15.8302 0 0,1 -8.8447,11.7674" style="stroke:#000000;stroke-width:0.25;"/>
        <!-- Linie -->
        <line x1="-8.8447" y1="11.7674" x2="-11.7827" y2="15.2869" style="stroke:#000000;stroke-width:0.25;"/>
        <!-- Kreisbogen -->
        <path d="M-11.7827,15.2869 A18.0019,18.0019 0 0,0 -6.5647,19.1125" style="stroke:#000000;stroke-width:0.25;"/>
        <!-- Kreisbogen -->
        <path d="M-6.5647,19.1125 A13.0695,13.0695 0 0,0 -3.52,20.1547" style="stroke:#000000;stroke-width:0.25;"/>
        <!-- Kreisbogen -->
        <path d="M-3.52,20.1547 A18.6715,18.6715 0 0,0 0.306,20.5509" style="stroke:#000000;stroke-width:0.25;"/>
        <!-- Kreisbogen -->
        <path d="M0.306,20.5509 A14.1071,14.1071 0 0,0 5.1568,19.7552" style="stroke:#000000;stroke-width:0.25;"/>
        <!-- Kreisbogen -->
        <path d="M5.1568,19.7552 A10.8385,10.8385 0 0,0 8.9365,17.4598" style="stroke:#000000;stroke-width:0.25;"/>
        <!-- Kreisbogen -->
        <path d="M8.9365,17.4598 A10.175,10.175 0 0,0 11.4002,13.7873" style="stroke:#000000;stroke-width:0.25;"/>
        <!-- Kreisbogen -->
        <path d="M11.4002,13.7873 A13.0478,13.0478 0 0,0 12.2724,8.8906" style="stroke:#000000;stroke-width:0.25;"/>
        <!-- Kreisbogen -->
        <path d="M12.2724,8.8906 A14.1965,14.1965 0 0,0 11.6603,4.6366" style="stroke:#000000;stroke-width:0.25;"/>
        <!-- Kreisbogen -->
        <path d="M11.6603,4.6366 A16.3248,16.3248 0 0,0 9.8087,0.7345" style="stroke:#000000;stroke-width:0.25;"/>
        <!-- Kreisbogen -->
        <path d="M9.8087,0.7345 A30.6113,30.6113 0 0,0 6.6871,-3.29" style="stroke:#000000;stroke-width:0.25;"/>
        <!-- Kreisbogen -->
        <path d="M6.6871,-3.29 A94.2891,94.2891 0 0,0 2.2341,-7.85" style="stroke:#000000;stroke-width:0.25;"/>
        <!-- Linie -->
        <line x1="2.2341" y1="-7.85" x2="-5.0191" y2="-14.9197" style="stroke:#000000;stroke-width:0.25;"/>
        <!-- Linie -->
        <line x1="-5.0191" y1="-14.9197" x2="14.4147" y2="-14.9197" style="stroke:#000000;stroke-width:0.25;"/>
        <!-- Linie -->
        <line x1="14.4147" y1="-14.9197" x2="14.4147" y2="-20" style="stroke:#000000;stroke-width:0.25;"/>
        <!-- Kreisbogen -->
        <path d="M43.0837,-10.3596 A6.7483,6.7483 0 0,1 42.7164,-8.1561" style="stroke:#000000;stroke-width:0.25;"/>
        <!-- Kreisbogen -->
        <path d="M42.7164,-8.1561 A6.1182,6.1182 0 0,1 41.4005,-6.0444" style="stroke:#000000;stroke-width:0.25;"/>
        <!-- Kreisbogen -->
        <path d="M41.4005,-6.0444 A13.2132,13.2132 0 0,1 38.8603,-3.9633" style="stroke:#000000;stroke-width:0.25;"/>
        <!-- Kreisbogen -->
        <path d="M38.8603,-3.9633 A29.9164,29.9164 0 0,1 34.8205,-1.821" style="stroke:#000000;stroke-width:0.25;"/>
        <!-- Kreisbogen -->
        <path d="M34.8205,-1.821 A25.9041,25.9041 0 0,1 31.3163,-3.8256" style="stroke:#000000;stroke-width:0.25;"/>
        <!-- Kreisbogen -->
        <path d="M31.3163,-3.8256 A12.08,12.08 0 0,1 29.021,-5.8454" style="stroke:#000000;stroke-width:0.25;"/>
        <!-- Kreisbogen -->
        <path d="M29.021,-5.8454 A6.4321,6.4321 0 0,1 27.7815,-7.9725" style="stroke:#000000;stroke-width:0.25;"/>
        <!-- Kreisbogen -->
        <path d="M27.7815,-7.9725 A7.3069,7.3069 0 0,1 27.4142,-10.2984" style="stroke:#000000;stroke-width:0.25;"/>
        <!-- Kreisbogen -->
        <path d="M27.4142,-10.2984 A4.859,4.859 0 0,1 28.011,-12.7314" style="stroke:#000000;stroke-width:0.25;"/>
        <!-- Kreisbogen -->
        <path d="M28.011,-12.7314 A5.474,5.474 0 0,1 29.6484,-14.5218" style="stroke:#000000;stroke-width:0.25;"/>
        <!-- Kreisbogen -->
        <path d="M29.6484,-14.5218 A7.4516,7.4516 0 0,1 32.1273,-15.6236" style="stroke:#000000;stroke-width:0.25;"/>
        <!-- Kreisbogen -->
        <path d="M32.1273,-15.6236 A12.595,12.595 0 0,1 35.249,-15.9908" style="stroke:#000000;stroke-width:0.25;"/>
        <!-- Kreisbogen -->
        <path d="M35.249,-15.9908 A13.3995,13.3995 0 0,1 38.3094,-15.6542" style="stroke:#000000;stroke-width:0.25;"/>
        <!-- Kreisbogen -->
        <path d="M38.3094,-15.6542 A7.7671,7.7671 0 0,1 40.8037,-14.6289" style="stroke:#000000;stroke-width:0.25;"/>
        <!-- Kreisbogen -->
        <path d="M40.8037,-14.6289 A5.1408,5.1408 0 0,1 42.4716,-12.8845" style="stroke:#000000;stroke-width:0.25;"/>
        <!-- Kreisbogen -->
        <path d="M42.4716,-12.8845 A4.9505,4.9505 0 0,1 43.0837,-10.3596" style="stroke:#000000;stroke-width:0.25;"/>
        <!-- Kreisbogen -->
        <path d="M42.5328,10.7269 A6.7984,6.7984 0 0,1 42.4124,12.0006" style="stroke:#000000;stroke-width:0.25;"/>
        <!-- Kreisbogen -->
        <path d="M42.4124,12.0006 A4.6304,4.6304 0 0,1 42.0977,13.0084" style="stroke:#000000;stroke-width:0.25;"/>
        <!-- Kreisbogen -->
        <path d="M42.0977,13.0084 A4.1369,4.1369 0 0,1 41.4936,13.9809" style="stroke:#000000;stroke-width:0.25;"/>
        <!-- Kreisbogen -->
        <path d="M41.4936,13.9809 A4.4335,4.4335 0 0,1 40.62,14.7819" style="stroke:#000000;stroke-width:0.25;"/>
        <!-- Kreisbogen -->
        <path d="M40.62,14.7819 A5.8412,5.8412 0 0,1 39.5095,15.388" style="stroke:#000000;stroke-width:0.25;"/>
        <!-- Kreisbogen -->
        <path d="M39.5095,15.388 A8.6396,8.6396 0 0,1 38.0404,15.8454" style="stroke:#000000;stroke-width:0.25;"/>
        <!-- Kreisbogen -->
        <path d="M38.0404,15.8454 A10.799,10.799 0 0,1 36.7923,16.0394" style="stroke:#000000;stroke-width:0.25;"/>
        <!-- Kreisbogen -->
        <path d="M36.7923,16.0394 A16.1582,16.1582 0 0,1 35.249,16.1132" style="stroke:#000000;stroke-width:0.25;"/>
        <!-- Kreisbogen -->
        <path d="M35.249,16.1132 A16.0749,16.0749 0 0,1 33.7167,16.04" style="stroke:#000000;stroke-width:0.25;"/>
        <!-- Kreisbogen -->
        <path d="M33.7167,16.04 A10.7909,10.7909 0 0,1 32.4747,15.8476" style="stroke:#000000;stroke-width:0.25;"/>
        <!-- Kreisbogen -->
        <path d="M32.4747,15.8476 A8.6619,8.6619 0 0,1 31.0162,15.396" style="stroke:#000000;stroke-width:0.25;"/>
        <!-- Kreisbogen -->
        <path d="M31.0162,15.396 A5.8917,5.8917 0 0,1 29.9085,14.7972" style="stroke:#000000;stroke-width:0.25;"/>
        <!-- Kreisbogen -->
        <path d="M29.9085,14.7972 A4.5065,4.5065 0 0,1 29.0372,14.0127" style="stroke:#000000;stroke-width:0.25;"/>
        <!-- Kreisbogen -->
        <path d="M29.0372,14.0127 A4.0399,4.0399 0 0,1 28.4387,13.0778" style="stroke:#000000;stroke-width:0.25;"/>
        <!-- Kreisbogen -->
        <path d="M28.4387,13.0778 A4.4261,4.4261 0 0,1 28.1178,12.0892" style="stroke:#000000;stroke-width:0.25;"/>
        <!-- Kreisbogen -->
        <path d="M28.1178,12.0892 A6.3592,6.3592 0 0,1 27.9957,10.8493" style="stroke:#000000;stroke-width:0.25;"/>
        <!-- Kreisbogen -->
        <path d="M27.9957,10.8493 A5.2619,5.2619 0 0,1 28.4548,8.6458" style="stroke:#000000;stroke-width:0.25;"/>
        <!-- Kreisbogen -->
        <path d="M28.4548,8.6458 A5.9405,5.9405 0 0,1 29.8779,6.7483" style="stroke:#000000;stroke-width:0.25;"/>
        <!-- Kreisbogen -->
        <path d="M29.8779,6.7483 A14.5059,14.5059 0 0,1 32.2803,5.0038" style="stroke:#000000;stroke-width:0.25;"/>
        <!-- Kreisbogen -->
        <path d="M32.2803,5.0038 A33.113,33.113 0 0,1 35.708,3.2594" style="stroke:#000000;stroke-width:0.25;"/>
        <!-- Kreisbogen -->
        <path d="M35.708,3.2594 A26.4063,26.4063 0 0,1 39.0058,5.1048" style="stroke:#000000;stroke-width:0.25;"/>
        <!-- Kreisbogen -->
        <path d="M39.0058,5.1048 A10.6504,10.6504 0 0,1 40.8496,6.6412" style="stroke:#000000;stroke-width:0.25;"/>
        <!-- Kreisbogen -->
        <path d="M40.8496,6.6412 A5.7302,5.7302 0 0,1 42.5328,10.7269" style="stroke:#000000;stroke-width:0.25;"/>
        <!-- Kreisbogen -->
        <path d="M-20.0998,13.1446 A22.6495,22.6495 0 0,1 -24.6904,14.9962" style="stroke:#000000;stroke-width:0.25;"/>
        <!-- Kreisbogen -->
        <path d="M-24.6904,14.9962 A19.068,19.068 0 0,1 -29.832,15.6542" style="stroke:#000000;stroke-width:0.25;"/>
        <!-- Kreisbogen -->
        <path d="M-29.832,15.6542 A15.8872,15.8872 0 0,1 -32.9477,15.3457" style="stroke:#000000;stroke-width:0.25;"/>
        <!-- Kreisbogen -->
        <path d="M-32.9477,15.3457 A11.6059,11.6059 0 0,1 -35.4938,14.5218" style="stroke:#000000;stroke-width:0.25;"/>
        <!-- Kreisbogen -->
        <path d="M-35.4938,14.5218 A11.5372,11.5372 0 0,1 -39.6713,11.3236" style="stroke:#000000;stroke-width:0.25;"/>
        <!-- Kreisbogen -->
        <path d="M-39.6713,11.3236 A14.5023,14.5023 0 0,1 -42.2727,6.3504" style="stroke:#000000;stroke-width:0.25;"/>
        <!-- Kreisbogen -->
        <path d="M-42.2727,6.3504 A21.6009,21.6009 0 0,1 -43.1755,-0.0765" style="stroke:#000000;stroke-width:0.25;"/>
        <!-- Kreisbogen -->
        <path d="M-43.1755,-0.0765 A26.9294,26.9294 0 0,1 -42.441,-6.6565" style="stroke:#000000;stroke-width:0.25;"/>
        <!-- Kreisbogen -->
        <path d="M-42.441,-6.6565 A13.2638,13.2638 0 0,1 -40.1457,-11.5838" style="stroke:#000000;stroke-width:0.25;"/>
        <!-- Kreisbogen -->
        <path d="M-40.1457,-11.5838 A10.0905,10.0905 0 0,1 -36.1518,-14.6748" style="stroke:#000000;stroke-width:0.25;"/>
        <!-- Kreisbogen -->
        <path d="M-36.1518,-14.6748 A11.2359,11.2359 0 0,1 -33.6549,-15.4423" style="stroke:#000000;stroke-width:0.25;"/>
        <!-- Kreisbogen -->
        <path d="M-33.6549,-15.4423 A18.4458,18.4458 0 0,1 -30.3217,-15.746" style="stroke:#000000;stroke-width:0.25;"/>
        <!-- Kreisbogen -->
        <path d="M-30.3217,-15.746 A13.9138,13.9138 0 0,1 -29.0669,-15.6848" style="stroke:#000000;stroke-width:0.25;"/>
        <!-- Kreisbogen -->
        <path d="M-29.0669,-15.6848 A20.2204,20.2204 0 0,1 -27.7203,-15.5164" style="stroke:#000000;stroke-width:0.25;"/>
        <!-- Kreisbogen -->
        <path d="M-27.7203,-15.5164 A16.2896,16.2896 0 0,1 -26.4196,-15.2563" style="stroke:#000000;stroke-width:0.25;"/>
        <!-- Kreisbogen -->
        <path d="M-26.4196,-15.2563 A9.8388,9.8388 0 0,1 -25.3025,-14.9197" style="stroke:#000000;stroke-width:0.25;"/>
        <!-- Linie -->
        <line x1="-25.3025" y1="-14.9197" x2="-25.3025" y2="-2.1882" style="stroke:#000000;stroke-width:0.25;"/>
        <!-- Linie -->
        <line x1="-25.3025" y1="-2.1882" x2="-33.4739" y2="-2.1882" style="stroke:#000000;stroke-width:0.25;"/>
        <!-- Linie -->
        <line x1="-33.4739" y1="-2.1882" x2="-33.4739" y2="2.3106" style="stroke:#000000;stroke-width:0.25;"/>
        <!-- Linie -->
        <line x1="-33.4739" y1="2.3106" x2="-19.9161" y2="2.3106" style="stroke:#000000;stroke-width:0.25;"/>
        <!-- Linie -->
        <line x1="-19.9161" y1="2.3106" x2="-19.9161" y2="-18.1331" style="stroke:#000000;stroke-width:0.25;"/>
        <!-- Kreisbogen -->
        <path d="M-19.9161,-18.1331 A24.6355,24.6355 0 0,0 -22.5634,-19.1737" style="stroke:#000000;stroke-width:0.25;"/>
        <!-- Kreisbogen -->
        <path d="M-22.5634,-19.1737 A26.5569,26.5569 0 0,0 -25.4096,-19.9388" style="stroke:#000000;stroke-width:0.25;"/>
        <!-- Kreisbogen -->
        <path d="M-25.4096,-19.9388 A28.8448,28.8448 0 0,0 -28.3018,-20.3979" style="stroke:#000000;stroke-width:0.25;"/>
        <!-- Kreisbogen -->
        <path d="M-28.3018,-20.3979 A26.3363,26.3363 0 0,0 -31.0868,-20.5509" style="stroke:#000000;stroke-width:0.25;"/>
        <!-- Kreisbogen -->
        <path d="M-31.0868,-20.5509 A23.5517,23.5517 0 0,0 -35.1221,-20.2026" style="stroke:#000000;stroke-width:0.25;"/>
        <!-- Kreisbogen -->
        <path d="M-35.1221,-20.2026 A17.4255,17.4255 0 0,0 -38.4777,-19.2655" style="stroke:#000000;stroke-width:0.25;"/>
        <!-- Kreisbogen -->
        <path d="M-38.4777,-19.2655 A14.7563,14.7563 0 0,0 -44.0783,-15.4552" style="stroke:#000000;stroke-width:0.25;"/>
        <!-- Kreisbogen -->
        <path d="M-44.0783,-15.4552 A14.829,14.829 0 0,0 -46.0525,-12.7334" style="stroke:#000000;stroke-width:0.25;"/>
        <!-- Kreisbogen -->
        <path d="M-46.0525,-12.7334 A19.9498,19.9498 0 0,0 -47.6285,-9.166" style="stroke:#000000;stroke-width:0.25;"/>
        <!-- Kreisbogen -->
        <path d="M-47.6285,-9.166 A22.2013,22.2013 0 0,0 -48.5214,-5.3461" style="stroke:#000000;stroke-width:0.25;"/>
        <!-- Kreisbogen -->
        <path d="M-48.5214,-5.3461 A34.8444,34.8444 0 0,0 -48.8679,-0.4438" style="stroke:#000000;stroke-width:0.25;"/>
        <!-- Kreisbogen -->
        <path d="M-48.8679,-0.4438 A31.5526,31.5526 0 0,0 -48.491,4.419" style="stroke:#000000;stroke-width:0.25;"/>
        <!-- Kreisbogen -->
        <path d="M-48.491,4.419 A22.1966,22.1966 0 0,0 -47.4907,8.3856" style="stroke:#000000;stroke-width:0.25;"/>
        <!-- Kreisbogen -->
        <path d="M-47.4907,8.3856 A21.4324,21.4324 0 0,0 -45.7744,12.0836" style="stroke:#000000;stroke-width:0.25;"/>
        <!-- Kreisbogen -->
        <path d="M-45.7744,12.0836 A16.9282,16.9282 0 0,0 -43.6193,14.9962" style="stroke:#000000;stroke-width:0.25;"/>
        <!-- Kreisbogen -->
        <path d="M-43.6193,14.9962 A16.4621,16.4621 0 0,0 -37.6208,19.1278" style="stroke:#000000;stroke-width:0.25;"/>
        <!-- Kreisbogen -->
        <path d="M-37.6208,19.1278 A20.3542,20.3542 0 0,0 -29.8932,20.5509" style="stroke:#000000;stroke-width:0.25;"/>
        <!-- Kreisbogen -->
        <path d="M-29.8932,20.5509 A26.7503,26.7503 0 0,0 -24.7669,20.0765" style="stroke:#000000;stroke-width:0.25;"/>
        <!-- Kreisbogen -->
        <path d="M-24.7669,20.0765 A20.1416,20.1416 0 0,0 -20.0998,18.5616" style="stroke:#000000;stroke-width:0.25;"/>
        <!-- Linie -->
        <line x1="-20.0998" y1="18.5616" x2="-20.0998" y2="13.1446" style="stroke:#000000;stroke-width:0.25;"/>
        <!-- Schraffur -->
        <path d="M33.7167,16.04 A10.7909,10.7909 0 0 1 32.4747,15.8476 A8.66187,8.66187 0 0 1 31.0162,15.396 A5.89174,5.89174 0 0 1 29.9085,14.7972 A4.50652,4.50652 0 0 1 29.0372,14.0127 A4.03987,4.03987 0 0 1 28.4387,13.0778 A4.42607,4.42607 0 0 1 28.1178,12.0892 A6.3592,6.3592 0 0 1 27.9957,10.8493 A5.26188,5.26188 0 0 1 28.4548,8.6458 A5.94049,5.94049 0 0 1 29.8779,6.7483 A14.5059,14.5059 0 0 1 32.2803,5.0038 A33.113,33.113 0 0 1 35.708,3.2594 A26.4063,26.4063 0 0 1 39.0058,5.1048 A10.6504,10.6504 0 0 1 40.8496,6.6412 A5.73022,5.73022 0 0 1 42.5328,10.7269 A6.79841,6.79841 0 0 1 42.4124,12.0006 A4.63041,4.63041 0 0 1 42.0977,13.0084 A4.13688,4.13688 0 0 1 41.4936,13.9809 A4.43347,4.43347 0 0 1 40.62,14.7819 A5.84122,5.84122 0 0 1 39.5095,15.388 A8.63963,8.63963 0 0 1 38.0404,15.8454 A10.799,10.799 0 0 1 36.7923,16.0394 A16.1582,16.1582 0 0 1 35.249,16.1132 A16.0749,16.0749 0 0 1 33.7167,16.04M28.011,-12.7314 A5.47399,5.47399 0 0 1 29.6484,-14.5218 A7.45156,7.45156 0 0 1 32.1273,-15.6236 A12.595,12.595 0 0 1 35.249,-15.9908 A13.3995,13.3995 0 0 1 38.3094,-15.6542 A7.76706,7.76706 0 0 1 40.8037,-14.6289 A5.14082,5.14082 0 0 1 42.4716,-12.8845 A4.95046,4.95046 0 0 1 43.0837,-10.3596 A6.74828,6.74828 0 0 1 42.7164,-8.1561 A6.11816,6.11816 0 0 1 41.4005,-6.0444 A13.2132,13.2132 0 0 1 38.8603,-3.9633 A29.9164,29.9164 0 0 1 34.8205,-1.821 A25.9041,25.9041 0 0 1 31.3163,-3.8256 A12.08,12.08 0 0 1 29.021,-5.8454 A6.43206,6.43206 0 0 1 27.7815,-7.9725 A7.30691,7.30691 0 0 1 27.4142,-10.2984 A4.85902,4.85902 0 0 1 28.011,-12.7314M12.2724,8.8906 A14.1965,14.1965 0 0 0 11.6603,4.6366 A16.3248,16.3248 0 0 0 9.8087,0.7345 A30.6113,30.6113 0 0 0 6.6871,-3.29 A94.2891,94.2891 0 0 0 2.2341,-7.85 L-5.0191,-14.9197 L14.4147,-14.9197 L14.4147,-20 L-11.9357,-20 L-11.9357,-15.2257 L-1.5914,-4.9426 A79.6752,79.6752 0 0 1 2.5402,-0.5968 A23.0749,23.0749 0 0 1 5.0191,2.7544 A10.2073,10.2073 0 0 1 6.2127,5.6159 A13.1053,13.1053 0 0 1 6.5187,8.5233 A9.72854,9.72854 0 0 1 6.1209,11.3236 A6.66684,6.66684 0 0 1 4.8967,13.6649 A5.67551,5.67551 0 0 1 2.7544,15.2563 A7.76432,7.76432 0 0 1 -0.3979,15.8378 A9.50983,9.50983 0 0 1 -5.0191,14.7054 A15.8302,15.8302 0 0 1 -8.8447,11.7674 L-11.7827,15.2869 A18.0019,18.0019 0 0 0 -6.5647,19.1125 A13.0695,13.0695 0 0 0 -3.52,20.1547 A18.6715,18.6715 0 0 0 0.306,20.5509 A14.1071,14.1071 0 0 0 5.1568,19.7552 A10.8385,10.8385 0 0 0 8.9365,17.4598 A10.175,10.175 0 0 0 11.4002,13.7873 A13.0478,13.0478 0 0 0 12.2724,8.8906M43.8182,-1.0252 A14.3269,14.3269 0 0 0 46.4808,-3.4124 A10.0055,10.0055 0 0 0 48.2406,-6.3504 A9.93792,9.93792 0 0 0 48.8679,-9.9617 A9.53495,9.53495 0 0 0 47.8274,-14.4759 A9.53921,9.53921 0 0 0 44.92,-17.7965 A13.7216,13.7216 0 0 0 40.5129,-19.847 A20.5679,20.5679 0 0 0 35.0041,-20.5509 A20.4767,20.4767 0 0 0 29.2352,-19.8164 A12.3926,12.3926 0 0 0 25.0577,-17.7659 A8.64103,8.64103 0 0 0 22.5175,-14.6442 A9.16076,9.16076 0 0 0 21.6606,-10.6656 A12.2658,12.2658 0 0 0 21.7894,-8.8931 A10.0936,10.0936 0 0 0 22.149,-7.3215 A9.575,9.575 0 0 0 22.7951,-5.7634 A9.73338,9.73338 0 0 0 23.7111,-4.3305 A11.7942,11.7942 0 0 0 24.9282,-2.9798 A17.1835,17.1835 0 0 0 26.6118,-1.5722 A20.7777,20.7777 0 0 0 28.1408,-0.5525 A29.2143,29.2143 0 0 0 30.0462,0.505 A26.0762,26.0762 0 0 0 28.3121,1.4703 A18.3141,18.3141 0 0 0 26.9314,2.3976 A15.0182,15.0182 0 0 0 25.4063,3.6913 A10.1416,10.1416 0 0 0 24.3232,4.9273 A9.12484,9.12484 0 0 0 22.5175,10.5126 A9.16634,9.16634 0 0 0 23.3132,14.2464 A9.1736,9.1736 0 0 0 25.7157,17.4598 A12.0285,12.0285 0 0 0 29.7402,19.7093 A13.4688,13.4688 0 0 0 32.1981,20.3131 A22.1146,22.1146 0 0 0 35.4326,20.5509 A20.1587,20.1587 0 0 0 40.8649,19.8929 A11.4674,11.4674 0 0 0 44.7976,18.0107 A7.78587,7.78587 0 0 0 47.1847,15.0421 A9.2581,9.2581 0 0 0 47.9804,11.1553 A11.6137,11.6137 0 0 0 47.8591,9.4814 A9.3321,9.3321 0 0 0 47.523,8.0149 A8.73814,8.73814 0 0 0 46.9075,6.5477 A8.71789,8.71789 0 0 0 46.037,5.2181 A12.8066,12.8066 0 0 0 43.8552,3.0605 A21.3475,21.3475 0 0 0 40.5129,0.9334 A26.1287,26.1287 0 0 0 43.8182,-1.0252M-47.4907,8.3856 A21.4324,21.4324 0 0 0 -45.7744,12.0836 A16.9282,16.9282 0 0 0 -43.6193,14.9962 A16.4621,16.4621 0 0 0 -37.6208,19.1278 A20.3542,20.3542 0 0 0 -29.8932,20.5509 A26.7503,26.7503 0 0 0 -24.7669,20.0765 A20.1416,20.1416 0 0 0 -20.0998,18.5616 L-20.0998,13.1446 A22.6495,22.6495 0 0 1 -24.6904,14.9962 A19.068,19.068 0 0 1 -29.832,15.6542 A15.8872,15.8872 0 0 1 -32.9477,15.3457 A11.6059,11.6059 0 0 1 -35.4938,14.5218 A11.5372,11.5372 0 0 1 -39.6713,11.3236 A14.5023,14.5023 0 0 1 -42.2727,6.3504 A21.6009,21.6009 0 0 1 -43.1755,-0.0765 A26.9294,26.9294 0 0 1 -42.441,-6.6565 A13.2638,13.2638 0 0 1 -40.1457,-11.5838 A10.0905,10.0905 0 0 1 -36.1518,-14.6748 A11.2359,11.2359 0 0 1 -33.6549,-15.4423 A18.4458,18.4458 0 0 1 -30.3217,-15.746 A13.9138,13.9138 0 0 1 -29.0669,-15.6848 A20.2204,20.2204 0 0 1 -27.7203,-15.5164 A16.2896,16.2896 0 0 1 -26.4196,-15.2563 A9.83877,9.83877 0 0 1 -25.3025,-14.9197 L-25.3025,-2.1882 L-33.4739,-2.1882 L-33.4739,2.3106 L-19.9161,2.3106 L-19.9161,-18.1331 A24.6355,24.6355 0 0 0 -22.5634,-19.1737 A26.5569,26.5569 0 0 0 -25.4096,-19.9388 A28.8448,28.8448 0 0 0 -28.3018,-20.3979 A26.3363,26.3363 0 0 0 -31.0868,-20.5509 A23.5517,23.5517 0 0 0 -35.1221,-20.2026 A17.4255,17.4255 0 0 0 -38.4777,-19.2655 A14.7563,14.7563 0 0 0 -44.0783,-15.4552 A14.829,14.829 0 0 0 -46.0525,-12.7334 A19.9498,19.9498 0 0 0 -47.6285,-9.166 A22.2013,22.2013 0 0 0 -48.5214,-5.3461 A34.8444,34.8444 0 0 0 -48.8679,-0.4438 A31.5526,31.5526 0 0 0 -48.491,4.419 A22.1966,22.1966 0 0 0 -47.4907,8.3856" style="fill:#000000;fill-rule:evenodd;"/>
    </g>
</svg>
