<?xml version="1.0" encoding="UTF-8"?>
<!-- 2020-10-26 15:34:06 Generated by QCAD 3.24.2 SVG Exporter PG -->
<svg width="210.25mm" height="210.25mm" viewBox="-105.125 -105.125 210.25 210.25" version="1.1" xmlns="http://www.w3.org/2000/svg" style="stroke-linecap:round;stroke-linejoin:round;fill:none">
    <g transform="scale(1,-1)">
        <!-- Schraffur -->
        <path d="M100,-85.5 L100,85.5 A14.5,14.5 0 0 1 85.5,100 L-85.5,100 A14.5,14.5 0 0 1 -100,85.5 L-100,-85.5 A14.5,14.5 0 0 1 -85.5,-100 L85.5,-100 A14.5,14.5 0 0 1 100,-85.5M-85.5,95 A9.5,9.5 0 0 1 -95,85.5 L-95,-85.5 A9.5,9.5 0 0 1 -85.5,-95 L85.5,-95 A9.5,9.5 0 0 1 95,-85.5 L95,85.5 A9.5,9.5 0 0 1 85.5,95 Z" style="fill:#000000;fill-rule:evenodd;"/>
        <!-- Kreisbogen -->
        <path d="M49.327,-0.0153 A35.4773,35.4773 0 0,0 48.4089,-8.3856" style="stroke:#000000;stroke-width:0.25;"/>
        <!-- Kreisbogen -->
        <path d="M48.4089,-8.3856 A23.0209,23.0209 0 0,0 47.1929,-12.0319" style="stroke:#000000;stroke-width:0.25;"/>
        <!-- Kreisbogen -->
        <path d="M47.1929,-12.0319 A16.4197,16.4197 0 0,0 45.6239,-14.8738" style="stroke:#000000;stroke-width:0.25;"/>
        <!-- Kreisbogen -->
        <path d="M45.6239,-14.8738 A13.0967,13.0967 0 0,0 40.9873,-19.0666" style="stroke:#000000;stroke-width:0.25;"/>
        <!-- Kreisbogen -->
        <path d="M40.9873,-19.0666 A11.3397,11.3397 0 0,0 39.4996,-19.731" style="stroke:#000000;stroke-width:0.25;"/>
        <!-- Kreisbogen -->
        <path d="M39.4996,-19.731 A12.8896,12.8896 0 0,0 37.8305,-20.2123" style="stroke:#000000;stroke-width:0.25;"/>
        <!-- Kreisbogen -->
        <path d="M37.8305,-20.2123 A14.1693,14.1693 0 0,0 36.2575,-20.4614" style="stroke:#000000;stroke-width:0.25;"/>
        <!-- Kreisbogen -->
        <path d="M36.2575,-20.4614 A17.6208,17.6208 0 0,0 34.4839,-20.5509" style="stroke:#000000;stroke-width:0.25;"/>
        <!-- Kreisbogen -->
        <path d="M34.4839,-20.5509 A13.8402,13.8402 0 0,0 28.6384,-19.342" style="stroke:#000000;stroke-width:0.25;"/>
        <!-- Kreisbogen -->
        <path d="M28.6384,-19.342 A11.6133,11.6133 0 0,0 24.1396,-15.6236" style="stroke:#000000;stroke-width:0.25;"/>
        <!-- Kreisbogen -->
        <path d="M24.1396,-15.6236 A14.2297,14.2297 0 0,0 22.5791,-12.9671" style="stroke:#000000;stroke-width:0.25;"/>
        <!-- Kreisbogen -->
        <path d="M22.5791,-12.9671 A23.5671,23.5671 0 0,0 21.2627,-9.2272" style="stroke:#000000;stroke-width:0.25;"/>
        <!-- Kreisbogen -->
        <path d="M21.2627,-9.2272 A27.5329,27.5329 0 0,0 20.5418,-5.3035" style="stroke:#000000;stroke-width:0.25;"/>
        <!-- Kreisbogen -->
        <path d="M20.5418,-5.3035 A48.5241,48.5241 0 0,0 20.2528,-0.0153" style="stroke:#000000;stroke-width:0.25;"/>
        <!-- Kreisbogen -->
        <path d="M20.2528,-0.0153 A35.1127,35.1127 0 0,0 21.1862,8.3703" style="stroke:#000000;stroke-width:0.25;"/>
        <!-- Kreisbogen -->
        <path d="M21.1862,8.3703 A23.6687,23.6687 0 0,0 22.4123,12.0345" style="stroke:#000000;stroke-width:0.25;"/>
        <!-- Kreisbogen -->
        <path d="M22.4123,12.0345 A16.6342,16.6342 0 0,0 23.9712,14.8738" style="stroke:#000000;stroke-width:0.25;"/>
        <!-- Kreisbogen -->
        <path d="M23.9712,14.8738 A12.9271,12.9271 0 0,0 28.6078,19.0666" style="stroke:#000000;stroke-width:0.25;"/>
        <!-- Kreisbogen -->
        <path d="M28.6078,19.0666 A11.6714,11.6714 0 0,0 31.4944,20.1442" style="stroke:#000000;stroke-width:0.25;"/>
        <!-- Kreisbogen -->
        <path d="M31.4944,20.1442 A16.1494,16.1494 0 0,0 35.0959,20.5509" style="stroke:#000000;stroke-width:0.25;"/>
        <!-- Kreisbogen -->
        <path d="M35.0959,20.5509 A13.8402,13.8402 0 0,0 40.9414,19.342" style="stroke:#000000;stroke-width:0.25;"/>
        <!-- Kreisbogen -->
        <path d="M40.9414,19.342 A11.5662,11.5662 0 0,0 45.4402,15.6083" style="stroke:#000000;stroke-width:0.25;"/>
        <!-- Kreisbogen -->
        <path d="M45.4402,15.6083 A14.4226,14.4226 0 0,0 47.0021,12.9378" style="stroke:#000000;stroke-width:0.25;"/>
        <!-- Kreisbogen -->
        <path d="M47.0021,12.9378 A23.6965,23.6965 0 0,0 48.3171,9.1966" style="stroke:#000000;stroke-width:0.25;"/>
        <!-- Kreisbogen -->
        <path d="M48.3171,9.1966 A27.5329,27.5329 0 0,0 49.038,5.2729" style="stroke:#000000;stroke-width:0.25;"/>
        <!-- Kreisbogen -->
        <path d="M49.038,5.2729 A48.5241,48.5241 0 0,0 49.327,-0.0153" style="stroke:#000000;stroke-width:0.25;"/>
        <!-- Kreisbogen -->
        <path d="M13.1905,-7.85 A11.6088,11.6088 0 0,0 12.1194,-12.7927" style="stroke:#000000;stroke-width:0.25;"/>
        <!-- Kreisbogen -->
        <path d="M12.1194,-12.7927 A11.2455,11.2455 0 0,0 8.9059,-16.8324" style="stroke:#000000;stroke-width:0.25;"/>
        <!-- Kreisbogen -->
        <path d="M8.9059,-16.8324 A12.8879,12.8879 0 0,0 6.6271,-18.3047" style="stroke:#000000;stroke-width:0.25;"/>
        <!-- Kreisbogen -->
        <path d="M6.6271,-18.3047 A19.6524,19.6524 0 0,0 3.5195,-19.5562" style="stroke:#000000;stroke-width:0.25;"/>
        <!-- Kreisbogen -->
        <path d="M3.5195,-19.5562 A20.1992,20.1992 0 0,0 0.2335,-20.2709" style="stroke:#000000;stroke-width:0.25;"/>
        <!-- Kreisbogen -->
        <path d="M0.2335,-20.2709 A32.7568,32.7568 0 0,0 -4.0398,-20.5509" style="stroke:#000000;stroke-width:0.25;"/>
        <!-- Kreisbogen -->
        <path d="M-4.0398,-20.5509 A53.7851,53.7851 0 0,0 -8.3244,-20.3979" style="stroke:#000000;stroke-width:0.25;"/>
        <!-- Kreisbogen -->
        <path d="M-8.3244,-20.3979 A53.7995,53.7995 0 0,0 -11.8745,-20" style="stroke:#000000;stroke-width:0.25;"/>
        <!-- Linie -->
        <line x1="-11.8745" y1="-20" x2="-11.8745" y2="-15.2257" style="stroke:#000000;stroke-width:0.25;"/>
        <!-- Kreisbogen -->
        <path d="M-11.8745,-15.2257 A45.5694,45.5694 0 0,1 -7.8653,-15.746" style="stroke:#000000;stroke-width:0.25;"/>
        <!-- Kreisbogen -->
        <path d="M-7.8653,-15.746 A49.8012,49.8012 0 0,1 -3.5501,-15.9296" style="stroke:#000000;stroke-width:0.25;"/>
        <!-- Kreisbogen -->
        <path d="M-3.5501,-15.9296 A21.2564,21.2564 0 0,1 1.5761,-15.394" style="stroke:#000000;stroke-width:0.25;"/>
        <!-- Kreisbogen -->
        <path d="M1.5761,-15.394 A12.5999,12.5999 0 0,1 3.6215,-14.6874" style="stroke:#000000;stroke-width:0.25;"/>
        <!-- Kreisbogen -->
        <path d="M3.6215,-14.6874 A7.3814,7.3814 0 0,1 5.0497,-13.8485" style="stroke:#000000;stroke-width:0.25;"/>
        <!-- Kreisbogen -->
        <path d="M5.0497,-13.8485 A5.9462,5.9462 0 0,1 7.0084,-11.4002" style="stroke:#000000;stroke-width:0.25;"/>
        <!-- Kreisbogen -->
        <path d="M7.0084,-11.4002 A8.2111,8.2111 0 0,1 7.6205,-8.1561" style="stroke:#000000;stroke-width:0.25;"/>
        <!-- Kreisbogen -->
        <path d="M7.6205,-8.1561 A5.4849,5.4849 0 0,1 6.886,-5.2793" style="stroke:#000000;stroke-width:0.25;"/>
        <!-- Kreisbogen -->
        <path d="M6.886,-5.2793 A6.1117,6.1117 0 0,1 4.8202,-3.2288" style="stroke:#000000;stroke-width:0.25;"/>
        <!-- Kreisbogen -->
        <path d="M4.8202,-3.2288 A10.2141,10.2141 0 0,1 1.6373,-1.9893" style="stroke:#000000;stroke-width:0.25;"/>
        <!-- Kreisbogen -->
        <path d="M1.6373,-1.9893 A18.626,18.626 0 0,1 -2.4178,-1.5761" style="stroke:#000000;stroke-width:0.25;"/>
        <!-- Linie -->
        <line x1="-2.4178" y1="-1.5761" x2="-6.9778" y2="-1.5761" style="stroke:#000000;stroke-width:0.25;"/>
        <!-- Linie -->
        <line x1="-6.9778" y1="-1.5761" x2="-6.9778" y2="2.8003" style="stroke:#000000;stroke-width:0.25;"/>
        <!-- Linie -->
        <line x1="-6.9778" y1="2.8003" x2="-2.3565" y2="2.8003" style="stroke:#000000;stroke-width:0.25;"/>
        <!-- Kreisbogen -->
        <path d="M-2.3565,2.8003 A10.7688,10.7688 0 0,1 0.9334,3.2747" style="stroke:#000000;stroke-width:0.25;"/>
        <!-- Kreisbogen -->
        <path d="M0.9334,3.2747 A7.3946,7.3946 0 0,1 3.4736,4.6366" style="stroke:#000000;stroke-width:0.25;"/>
        <!-- Kreisbogen -->
        <path d="M3.4736,4.6366 A5.8812,5.8812 0 0,1 5.0956,6.8248" style="stroke:#000000;stroke-width:0.25;"/>
        <!-- Kreisbogen -->
        <path d="M5.0956,6.8248 A7.3319,7.3319 0 0,1 5.6618,9.7781" style="stroke:#000000;stroke-width:0.25;"/>
        <!-- Kreisbogen -->
        <path d="M5.6618,9.7781 A9.2106,9.2106 0 0,1 5.5455,11.2376" style="stroke:#000000;stroke-width:0.25;"/>
        <!-- Kreisbogen -->
        <path d="M5.5455,11.2376 A5.8846,5.8846 0 0,1 5.246,12.3689" style="stroke:#000000;stroke-width:0.25;"/>
        <!-- Kreisbogen -->
        <path d="M5.246,12.3689 A4.8716,4.8716 0 0,1 4.6043,13.5522" style="stroke:#000000;stroke-width:0.25;"/>
        <!-- Kreisbogen -->
        <path d="M4.6043,13.5522 A4.4012,4.4012 0 0,1 3.7031,14.4606" style="stroke:#000000;stroke-width:0.25;"/>
        <!-- Kreisbogen -->
        <path d="M3.7031,14.4606 A5.6339,5.6339 0 0,1 2.5437,15.1311" style="stroke:#000000;stroke-width:0.25;"/>
        <!-- Kreisbogen -->
        <path d="M2.5437,15.1311 A8.8005,8.8005 0 0,1 0.9496,15.6417" style="stroke:#000000;stroke-width:0.25;"/>
        <!-- Kreisbogen -->
        <path d="M0.9496,15.6417 A11.3039,11.3039 0 0,1 -0.3792,15.8496" style="stroke:#000000;stroke-width:0.25;"/>
        <!-- Kreisbogen -->
        <path d="M-0.3792,15.8496 A17.4974,17.4974 0 0,1 -2.0505,15.9296" style="stroke:#000000;stroke-width:0.25;"/>
        <!-- Kreisbogen -->
        <path d="M-2.0505,15.9296 A22.7792,22.7792 0 0,1 -6.2127,15.5318" style="stroke:#000000;stroke-width:0.25;"/>
        <!-- Kreisbogen -->
        <path d="M-6.2127,15.5318 A36.4937,36.4937 0 0,1 -10.8034,14.3382" style="stroke:#000000;stroke-width:0.25;"/>
        <!-- Linie -->
        <line x1="-10.8034" y1="14.3382" x2="-10.8034" y2="18.9901" style="stroke:#000000;stroke-width:0.25;"/>
        <!-- Kreisbogen -->
        <path d="M-10.8034,18.9901 A23.8036,23.8036 0 0,0 -8.5845,19.648" style="stroke:#000000;stroke-width:0.25;"/>
        <!-- Kreisbogen -->
        <path d="M-8.5845,19.648 A32.2327,32.2327 0 0,0 -6.228,20.1377" style="stroke:#000000;stroke-width:0.25;"/>
        <!-- Kreisbogen -->
        <path d="M-6.228,20.1377 A31.3112,31.3112 0 0,0 -3.8868,20.4438" style="stroke:#000000;stroke-width:0.25;"/>
        <!-- Kreisbogen -->
        <path d="M-3.8868,20.4438 A24.3825,24.3825 0 0,0 -1.6526,20.5509" style="stroke:#000000;stroke-width:0.25;"/>
        <!-- Kreisbogen -->
        <path d="M-1.6526,20.5509 A20.5188,20.5188 0 0,0 3.948,19.8623" style="stroke:#000000;stroke-width:0.25;"/>
        <!-- Kreisbogen -->
        <path d="M3.948,19.8623 A11.4971,11.4971 0 0,0 7.9878,17.8883" style="stroke:#000000;stroke-width:0.25;"/>
        <!-- Kreisbogen -->
        <path d="M7.9878,17.8883 A8.2662,8.2662 0 0,0 10.4361,14.7666" style="stroke:#000000;stroke-width:0.25;"/>
        <!-- Kreisbogen -->
        <path d="M10.4361,14.7666 A9.9607,9.9607 0 0,0 11.2624,10.635" style="stroke:#000000;stroke-width:0.25;"/>
        <!-- Kreisbogen -->
        <path d="M11.2624,10.635 A12.3191,12.3191 0 0,0 11.1549,9.0107" style="stroke:#000000;stroke-width:0.25;"/>
        <!-- Kreisbogen -->
        <path d="M11.1549,9.0107 A9.5529,9.5529 0 0,0 10.8598,7.6078" style="stroke:#000000;stroke-width:0.25;"/>
        <!-- Kreisbogen -->
        <path d="M10.8598,7.6078 A8.6853,8.6853 0 0,0 10.294,6.1583" style="stroke:#000000;stroke-width:0.25;"/>
        <!-- Kreisbogen -->
        <path d="M10.294,6.1583 A8.0943,8.0943 0 0,0 9.5027,4.8814" style="stroke:#000000;stroke-width:0.25;"/>
        <!-- Kreisbogen -->
        <path d="M9.5027,4.8814 A10.647,10.647 0 0,0 7.4984,2.8623" style="stroke:#000000;stroke-width:0.25;"/>
        <!-- Kreisbogen -->
        <path d="M7.4984,2.8623 A14.1603,14.1603 0 0,0 4.6825,1.1783" style="stroke:#000000;stroke-width:0.25;"/>
        <!-- Kreisbogen -->
        <path d="M4.6825,1.1783 A10.899,10.899 0 0,0 7.7582,0.1989" style="stroke:#000000;stroke-width:0.25;"/>
        <!-- Kreisbogen -->
        <path d="M7.7582,0.1989 A10.7296,10.7296 0 0,0 10.482,-1.6832" style="stroke:#000000;stroke-width:0.25;"/>
        <!-- Kreisbogen -->
        <path d="M10.482,-1.6832 A9.1725,9.1725 0 0,0 12.4407,-4.3917" style="stroke:#000000;stroke-width:0.25;"/>
        <!-- Kreisbogen -->
        <path d="M12.4407,-4.3917 A7.8824,7.8824 0 0,0 13.1905,-7.85" style="stroke:#000000;stroke-width:0.25;"/>
        <!-- Kreisbogen -->
        <path d="M25.6392,0.1683 A117.6568,117.6568 0 0,1 25.6545,-1.7292" style="stroke:#000000;stroke-width:0.25;"/>
        <!-- Kreisbogen -->
        <path d="M25.6545,-1.7292 A21.1653,21.1653 0 0,1 25.7616,-3.5654" style="stroke:#000000;stroke-width:0.25;"/>
        <!-- Linie -->
        <line x1="25.7616" y1="-3.5654" x2="42.6858" y2="8.9518" style="stroke:#000000;stroke-width:0.25;"/>
        <!-- Kreisbogen -->
        <path d="M42.6858,8.9518 A14.3189,14.3189 0 0,1 41.5229,11.798" style="stroke:#000000;stroke-width:0.25;"/>
        <!-- Kreisbogen -->
        <path d="M41.5229,11.798 A9.0245,9.0245 0 0,1 39.8396,14.0168" style="stroke:#000000;stroke-width:0.25;"/>
        <!-- Kreisbogen -->
        <path d="M39.8396,14.0168 A7.2164,7.2164 0 0,1 37.6055,15.4705" style="stroke:#000000;stroke-width:0.25;"/>
        <!-- Kreisbogen -->
        <path d="M37.6055,15.4705 A7.2884,7.2884 0 0,1 34.7899,15.9908" style="stroke:#000000;stroke-width:0.25;"/>
        <!-- Kreisbogen -->
        <path d="M34.7899,15.9908 A7.2554,7.2554 0 0,1 31.0103,14.9809" style="stroke:#000000;stroke-width:0.25;"/>
        <!-- Kreisbogen -->
        <path d="M31.0103,14.9809 A8.4028,8.4028 0 0,1 28.1181,11.9663" style="stroke:#000000;stroke-width:0.25;"/>
        <!-- Kreisbogen -->
        <path d="M28.1181,11.9663 A12.6774,12.6774 0 0,1 27.1226,9.8836" style="stroke:#000000;stroke-width:0.25;"/>
        <!-- Kreisbogen -->
        <path d="M27.1226,9.8836 A21.3493,21.3493 0 0,1 26.2819,7.0084" style="stroke:#000000;stroke-width:0.25;"/>
        <!-- Kreisbogen -->
        <path d="M26.2819,7.0084 A32.4151,32.4151 0 0,1 25.6392,0.1683" style="stroke:#000000;stroke-width:0.25;"/>
        <!-- Kreisbogen -->
        <path d="M43.9406,-0.1989 A27.7496,27.7496 0 0,1 43.8641,1.8669" style="stroke:#000000;stroke-width:0.25;"/>
        <!-- Kreisbogen -->
        <path d="M43.8641,1.8669 A105.9811,105.9811 0 0,1 43.6958,3.8715" style="stroke:#000000;stroke-width:0.25;"/>
        <!-- Linie -->
        <line x1="43.6958" y1="3.8715" x2="26.7715" y2="-8.707" style="stroke:#000000;stroke-width:0.25;"/>
        <!-- Kreisbogen -->
        <path d="M26.7715,-8.707 A15.743,15.743 0 0,1 27.9345,-11.645" style="stroke:#000000;stroke-width:0.25;"/>
        <!-- Kreisbogen -->
        <path d="M27.9345,-11.645 A8.9756,8.9756 0 0,1 29.6331,-13.9556" style="stroke:#000000;stroke-width:0.25;"/>
        <!-- Kreisbogen -->
        <path d="M29.6331,-13.9556 A7.3066,7.3066 0 0,1 31.8978,-15.4552" style="stroke:#000000;stroke-width:0.25;"/>
        <!-- Kreisbogen -->
        <path d="M31.8978,-15.4552 A7.3837,7.3837 0 0,1 34.7899,-15.9908" style="stroke:#000000;stroke-width:0.25;"/>
        <!-- Kreisbogen -->
        <path d="M34.7899,-15.9908 A7.2554,7.2554 0 0,1 38.5695,-14.9809" style="stroke:#000000;stroke-width:0.25;"/>
        <!-- Kreisbogen -->
        <path d="M38.5695,-14.9809 A8.4355,8.4355 0 0,1 41.4617,-11.9816" style="stroke:#000000;stroke-width:0.25;"/>
        <!-- Kreisbogen -->
        <path d="M41.4617,-11.9816 A12.442,12.442 0 0,1 42.4559,-9.9133" style="stroke:#000000;stroke-width:0.25;"/>
        <!-- Kreisbogen -->
        <path d="M42.4559,-9.9133 A21.1939,21.1939 0 0,1 43.2979,-7.039" style="stroke:#000000;stroke-width:0.25;"/>
        <!-- Kreisbogen -->
        <path d="M43.2979,-7.039 A32.4151,32.4151 0 0,1 43.9406,-0.1989" style="stroke:#000000;stroke-width:0.25;"/>
        <!-- Kreisbogen -->
        <path d="M-20.5588,13.1446 A22.6495,22.6495 0 0,1 -25.1495,14.9962" style="stroke:#000000;stroke-width:0.25;"/>
        <!-- Kreisbogen -->
        <path d="M-25.1495,14.9962 A19.068,19.068 0 0,1 -30.291,15.6542" style="stroke:#000000;stroke-width:0.25;"/>
        <!-- Kreisbogen -->
        <path d="M-30.291,15.6542 A15.8872,15.8872 0 0,1 -33.4068,15.3457" style="stroke:#000000;stroke-width:0.25;"/>
        <!-- Kreisbogen -->
        <path d="M-33.4068,15.3457 A11.6059,11.6059 0 0,1 -35.9529,14.5218" style="stroke:#000000;stroke-width:0.25;"/>
        <!-- Kreisbogen -->
        <path d="M-35.9529,14.5218 A11.5372,11.5372 0 0,1 -40.1304,11.3236" style="stroke:#000000;stroke-width:0.25;"/>
        <!-- Kreisbogen -->
        <path d="M-40.1304,11.3236 A14.5023,14.5023 0 0,1 -42.7318,6.3504" style="stroke:#000000;stroke-width:0.25;"/>
        <!-- Kreisbogen -->
        <path d="M-42.7318,6.3504 A21.6009,21.6009 0 0,1 -43.6346,-0.0765" style="stroke:#000000;stroke-width:0.25;"/>
        <!-- Kreisbogen -->
        <path d="M-43.6346,-0.0765 A26.9294,26.9294 0 0,1 -42.9001,-6.6565" style="stroke:#000000;stroke-width:0.25;"/>
        <!-- Kreisbogen -->
        <path d="M-42.9001,-6.6565 A13.2638,13.2638 0 0,1 -40.6047,-11.5838" style="stroke:#000000;stroke-width:0.25;"/>
        <!-- Kreisbogen -->
        <path d="M-40.6047,-11.5838 A10.0905,10.0905 0 0,1 -36.6109,-14.6748" style="stroke:#000000;stroke-width:0.25;"/>
        <!-- Kreisbogen -->
        <path d="M-36.6109,-14.6748 A11.2359,11.2359 0 0,1 -34.1139,-15.4423" style="stroke:#000000;stroke-width:0.25;"/>
        <!-- Kreisbogen -->
        <path d="M-34.1139,-15.4423 A18.4458,18.4458 0 0,1 -30.7807,-15.746" style="stroke:#000000;stroke-width:0.25;"/>
        <!-- Kreisbogen -->
        <path d="M-30.7807,-15.746 A13.9138,13.9138 0 0,1 -29.5259,-15.6848" style="stroke:#000000;stroke-width:0.25;"/>
        <!-- Kreisbogen -->
        <path d="M-29.5259,-15.6848 A20.2204,20.2204 0 0,1 -28.1793,-15.5164" style="stroke:#000000;stroke-width:0.25;"/>
        <!-- Kreisbogen -->
        <path d="M-28.1793,-15.5164 A16.2896,16.2896 0 0,1 -26.8787,-15.2563" style="stroke:#000000;stroke-width:0.25;"/>
        <!-- Kreisbogen -->
        <path d="M-26.8787,-15.2563 A9.8388,9.8388 0 0,1 -25.7616,-14.9197" style="stroke:#000000;stroke-width:0.25;"/>
        <!-- Linie -->
        <line x1="-25.7616" y1="-14.9197" x2="-25.7616" y2="-2.1882" style="stroke:#000000;stroke-width:0.25;"/>
        <!-- Linie -->
        <line x1="-25.7616" y1="-2.1882" x2="-33.933" y2="-2.1882" style="stroke:#000000;stroke-width:0.25;"/>
        <!-- Linie -->
        <line x1="-33.933" y1="-2.1882" x2="-33.933" y2="2.3106" style="stroke:#000000;stroke-width:0.25;"/>
        <!-- Linie -->
        <line x1="-33.933" y1="2.3106" x2="-20.3752" y2="2.3106" style="stroke:#000000;stroke-width:0.25;"/>
        <!-- Linie -->
        <line x1="-20.3752" y1="2.3106" x2="-20.3752" y2="-18.1331" style="stroke:#000000;stroke-width:0.25;"/>
        <!-- Kreisbogen -->
        <path d="M-20.3752,-18.1331 A24.6355,24.6355 0 0,0 -23.0225,-19.1737" style="stroke:#000000;stroke-width:0.25;"/>
        <!-- Kreisbogen -->
        <path d="M-23.0225,-19.1737 A26.5569,26.5569 0 0,0 -25.8687,-19.9388" style="stroke:#000000;stroke-width:0.25;"/>
        <!-- Kreisbogen -->
        <path d="M-25.8687,-19.9388 A28.8448,28.8448 0 0,0 -28.7608,-20.3979" style="stroke:#000000;stroke-width:0.25;"/>
        <!-- Kreisbogen -->
        <path d="M-28.7608,-20.3979 A26.3363,26.3363 0 0,0 -31.5458,-20.5509" style="stroke:#000000;stroke-width:0.25;"/>
        <!-- Kreisbogen -->
        <path d="M-31.5458,-20.5509 A23.5517,23.5517 0 0,0 -35.5812,-20.2026" style="stroke:#000000;stroke-width:0.25;"/>
        <!-- Kreisbogen -->
        <path d="M-35.5812,-20.2026 A17.4255,17.4255 0 0,0 -38.9368,-19.2655" style="stroke:#000000;stroke-width:0.25;"/>
        <!-- Kreisbogen -->
        <path d="M-38.9368,-19.2655 A14.7563,14.7563 0 0,0 -44.5374,-15.4552" style="stroke:#000000;stroke-width:0.25;"/>
        <!-- Kreisbogen -->
        <path d="M-44.5374,-15.4552 A14.829,14.829 0 0,0 -46.5116,-12.7334" style="stroke:#000000;stroke-width:0.25;"/>
        <!-- Kreisbogen -->
        <path d="M-46.5116,-12.7334 A19.9498,19.9498 0 0,0 -48.0875,-9.166" style="stroke:#000000;stroke-width:0.25;"/>
        <!-- Kreisbogen -->
        <path d="M-48.0875,-9.166 A22.2013,22.2013 0 0,0 -48.9804,-5.3461" style="stroke:#000000;stroke-width:0.25;"/>
        <!-- Kreisbogen -->
        <path d="M-48.9804,-5.3461 A34.8444,34.8444 0 0,0 -49.327,-0.4438" style="stroke:#000000;stroke-width:0.25;"/>
        <!-- Kreisbogen -->
        <path d="M-49.327,-0.4438 A31.5526,31.5526 0 0,0 -48.95,4.419" style="stroke:#000000;stroke-width:0.25;"/>
        <!-- Kreisbogen -->
        <path d="M-48.95,4.419 A22.1966,22.1966 0 0,0 -47.9498,8.3856" style="stroke:#000000;stroke-width:0.25;"/>
        <!-- Kreisbogen -->
        <path d="M-47.9498,8.3856 A21.4324,21.4324 0 0,0 -46.2335,12.0836" style="stroke:#000000;stroke-width:0.25;"/>
        <!-- Kreisbogen -->
        <path d="M-46.2335,12.0836 A16.9282,16.9282 0 0,0 -44.0783,14.9962" style="stroke:#000000;stroke-width:0.25;"/>
        <!-- Kreisbogen -->
        <path d="M-44.0783,14.9962 A16.4621,16.4621 0 0,0 -38.0799,19.1278" style="stroke:#000000;stroke-width:0.25;"/>
        <!-- Kreisbogen -->
        <path d="M-38.0799,19.1278 A20.3542,20.3542 0 0,0 -30.3523,20.5509" style="stroke:#000000;stroke-width:0.25;"/>
        <!-- Kreisbogen -->
        <path d="M-30.3523,20.5509 A26.7503,26.7503 0 0,0 -25.226,20.0765" style="stroke:#000000;stroke-width:0.25;"/>
        <!-- Kreisbogen -->
        <path d="M-25.226,20.0765 A20.1416,20.1416 0 0,0 -20.5588,18.5616" style="stroke:#000000;stroke-width:0.25;"/>
        <!-- Linie -->
        <line x1="-20.5588" y1="18.5616" x2="-20.5588" y2="13.1446" style="stroke:#000000;stroke-width:0.25;"/>
        <!-- Schraffur -->
        <path d="M26.2819,7.0084 A32.4151,32.4151 0 0 1 25.6392,0.1683 A117.657,117.657 0 0 1 25.6545,-1.7292 A21.1653,21.1653 0 0 1 25.7616,-3.5654 L42.6858,8.9518 A14.3189,14.3189 0 0 1 41.5229,11.798 A9.0245,9.0245 0 0 1 39.8396,14.0168 A7.21636,7.21636 0 0 1 37.6055,15.4705 A7.28841,7.28841 0 0 1 34.7899,15.9908 A7.25543,7.25543 0 0 1 31.0103,14.9809 A8.40284,8.40284 0 0 1 28.1181,11.9663 A12.6774,12.6774 0 0 1 27.1226,9.8836 A21.3493,21.3493 0 0 1 26.2819,7.0084M43.8641,1.8669 A105.981,105.981 0 0 1 43.6958,3.8715 L26.7715,-8.707 A15.743,15.743 0 0 1 27.9345,-11.645 A8.97556,8.97556 0 0 1 29.6331,-13.9556 A7.3066,7.3066 0 0 1 31.8978,-15.4552 A7.38374,7.38374 0 0 1 34.7899,-15.9908 A7.25543,7.25543 0 0 1 38.5695,-14.9809 A8.43548,8.43548 0 0 1 41.4617,-11.9816 A12.442,12.442 0 0 1 42.4559,-9.9133 A21.1939,21.1939 0 0 1 43.2979,-7.039 A32.4151,32.4151 0 0 1 43.9406,-0.1989 A27.7496,27.7496 0 0 1 43.8641,1.8669M7.4984,2.8623 A14.1603,14.1603 0 0 0 4.6825,1.1783 A10.899,10.899 0 0 0 7.7582,0.1989 A10.7296,10.7296 0 0 0 10.482,-1.6832 A9.17247,9.17247 0 0 0 12.4407,-4.3917 A7.88236,7.88236 0 0 0 13.1905,-7.85 A11.6088,11.6088 0 0 0 12.1194,-12.7927 A11.2455,11.2455 0 0 0 8.9059,-16.8324 A12.8879,12.8879 0 0 0 6.6271,-18.3047 A19.6524,19.6524 0 0 0 3.5195,-19.5562 A20.1992,20.1992 0 0 0 0.2335,-20.2709 A32.7568,32.7568 0 0 0 -4.0398,-20.5509 A53.7851,53.7851 0 0 0 -8.3244,-20.3979 A53.7995,53.7995 0 0 0 -11.8745,-20 L-11.8745,-15.2257 A45.5694,45.5694 0 0 1 -7.8653,-15.746 A49.8012,49.8012 0 0 1 -3.5501,-15.9296 A21.2564,21.2564 0 0 1 1.5761,-15.394 A12.5999,12.5999 0 0 1 3.6215,-14.6874 A7.38136,7.38136 0 0 1 5.0497,-13.8485 A5.94623,5.94623 0 0 1 7.0084,-11.4002 A8.21107,8.21107 0 0 1 7.6205,-8.1561 A5.48485,5.48485 0 0 1 6.886,-5.2793 A6.11174,6.11174 0 0 1 4.8202,-3.2288 A10.2141,10.2141 0 0 1 1.6373,-1.9893 A18.626,18.626 0 0 1 -2.4178,-1.5761 L-6.9778,-1.5761 L-6.9778,2.8003 L-2.3565,2.8003 A10.7688,10.7688 0 0 1 0.9334,3.2747 A7.39462,7.39462 0 0 1 3.4736,4.6366 A5.88123,5.88123 0 0 1 5.0956,6.8248 A7.33186,7.33186 0 0 1 5.6618,9.7781 A9.21063,9.21063 0 0 1 5.5455,11.2376 A5.88462,5.88462 0 0 1 5.246,12.3689 A4.87156,4.87156 0 0 1 4.6043,13.5522 A4.40122,4.40122 0 0 1 3.7031,14.4606 A5.6339,5.6339 0 0 1 2.5437,15.1311 A8.80046,8.80046 0 0 1 0.9496,15.6417 A11.3039,11.3039 0 0 1 -0.3792,15.8496 A17.4974,17.4974 0 0 1 -2.0505,15.9296 A22.7792,22.7792 0 0 1 -6.2127,15.5318 A36.4937,36.4937 0 0 1 -10.8034,14.3382 L-10.8034,18.9901 A23.8036,23.8036 0 0 0 -8.5845,19.648 A32.2327,32.2327 0 0 0 -6.228,20.1377 A31.3112,31.3112 0 0 0 -3.8868,20.4438 A24.3825,24.3825 0 0 0 -1.6526,20.5509 A20.5188,20.5188 0 0 0 3.948,19.8623 A11.4971,11.4971 0 0 0 7.9878,17.8883 A8.26622,8.26622 0 0 0 10.4361,14.7666 A9.96068,9.96068 0 0 0 11.2624,10.635 A12.3191,12.3191 0 0 0 11.1549,9.0107 A9.55292,9.55292 0 0 0 10.8598,7.6078 A8.68534,8.68534 0 0 0 10.294,6.1583 A8.09432,8.09432 0 0 0 9.5027,4.8814 A10.647,10.647 0 0 0 7.4984,2.8623M40.9414,19.342 A11.5662,11.5662 0 0 0 45.4402,15.6083 A14.4226,14.4226 0 0 0 47.0021,12.9378 A23.6965,23.6965 0 0 0 48.3171,9.1966 A27.5329,27.5329 0 0 0 49.038,5.2729 A48.5241,48.5241 0 0 0 49.327,-0.0153 A35.4773,35.4773 0 0 0 48.4089,-8.3856 A23.0209,23.0209 0 0 0 47.1929,-12.0319 A16.4197,16.4197 0 0 0 45.6239,-14.8738 A13.0967,13.0967 0 0 0 40.9873,-19.0666 A11.3397,11.3397 0 0 0 39.4996,-19.731 A12.8896,12.8896 0 0 0 37.8305,-20.2123 A14.1693,14.1693 0 0 0 36.2575,-20.4614 A17.6208,17.6208 0 0 0 34.4839,-20.5509 A13.8402,13.8402 0 0 0 28.6384,-19.342 A11.6133,11.6133 0 0 0 24.1396,-15.6236 A14.2297,14.2297 0 0 0 22.5791,-12.9671 A23.5671,23.5671 0 0 0 21.2627,-9.2272 A27.5329,27.5329 0 0 0 20.5418,-5.3035 A48.5241,48.5241 0 0 0 20.2528,-0.0153 A35.1127,35.1127 0 0 0 21.1862,8.3703 A23.6687,23.6687 0 0 0 22.4123,12.0345 A16.6342,16.6342 0 0 0 23.9712,14.8738 A12.9271,12.9271 0 0 0 28.6078,19.0666 A11.6714,11.6714 0 0 0 31.4944,20.1442 A16.1494,16.1494 0 0 0 35.0959,20.5509 A13.8402,13.8402 0 0 0 40.9414,19.342M-46.2335,12.0836 A16.9282,16.9282 0 0 0 -44.0783,14.9962 A16.4621,16.4621 0 0 0 -38.0799,19.1278 A20.3542,20.3542 0 0 0 -30.3523,20.5509 A26.7503,26.7503 0 0 0 -25.226,20.0765 A20.1416,20.1416 0 0 0 -20.5588,18.5616 L-20.5588,13.1446 A22.6495,22.6495 0 0 1 -25.1495,14.9962 A19.068,19.068 0 0 1 -30.291,15.6542 A15.8872,15.8872 0 0 1 -33.4068,15.3457 A11.6059,11.6059 0 0 1 -35.9529,14.5218 A11.5372,11.5372 0 0 1 -40.1304,11.3236 A14.5023,14.5023 0 0 1 -42.7318,6.3504 A21.6009,21.6009 0 0 1 -43.6346,-0.0765 A26.9294,26.9294 0 0 1 -42.9001,-6.6565 A13.2638,13.2638 0 0 1 -40.6047,-11.5838 A10.0905,10.0905 0 0 1 -36.6109,-14.6748 A11.2359,11.2359 0 0 1 -34.1139,-15.4423 A18.4458,18.4458 0 0 1 -30.7807,-15.746 A13.9138,13.9138 0 0 1 -29.5259,-15.6848 A20.2204,20.2204 0 0 1 -28.1793,-15.5164 A16.2896,16.2896 0 0 1 -26.8787,-15.2563 A9.83877,9.83877 0 0 1 -25.7616,-14.9197 L-25.7616,-2.1882 L-33.933,-2.1882 L-33.933,2.3106 L-20.3752,2.3106 L-20.3752,-18.1331 A24.6355,24.6355 0 0 0 -23.0225,-19.1737 A26.5569,26.5569 0 0 0 -25.8687,-19.9388 A28.8448,28.8448 0 0 0 -28.7608,-20.3979 A26.3363,26.3363 0 0 0 -31.5458,-20.5509 A23.5517,23.5517 0 0 0 -35.5812,-20.2026 A17.4255,17.4255 0 0 0 -38.9368,-19.2655 A14.7563,14.7563 0 0 0 -44.5374,-15.4552 A14.829,14.829 0 0 0 -46.5116,-12.7334 A19.9498,19.9498 0 0 0 -48.0875,-9.166 A22.2013,22.2013 0 0 0 -48.9804,-5.3461 A34.8444,34.8444 0 0 0 -49.327,-0.4438 A31.5526,31.5526 0 0 0 -48.95,4.419 A22.1966,22.1966 0 0 0 -47.9498,8.3856 A21.4324,21.4324 0 0 0 -46.2335,12.0836" style="fill:#000000;fill-rule:evenodd;"/>
    </g>
</svg>
