<?xml version="1.0" encoding="UTF-8"?>
<!-- 2020-10-26 18:18:26 Generated by QCAD 3.24.2 SVG Exporter PG -->
<svg width="210.25mm" height="210.25mm" viewBox="-105.125 -105.125 210.25 210.25" version="1.1" xmlns="http://www.w3.org/2000/svg" style="stroke-linecap:round;stroke-linejoin:round;fill:none">
    <g transform="scale(1,-1)">
        <!-- Schraffur -->
        <path d="M100,-85.5 L100,85.5 A14.5,14.5 0 0 1 85.5,100 L-85.5,100 A14.5,14.5 0 0 1 -100,85.5 L-100,-85.5 A14.5,14.5 0 0 1 -85.5,-100 L85.5,-100 A14.5,14.5 0 0 1 100,-85.5M-85.5,95 A9.5,9.5 0 0 1 -95,85.5 L-95,-85.5 A9.5,9.5 0 0 1 -85.5,-95 L85.5,-95 A9.5,9.5 0 0 1 95,-85.5 L95,85.5 A9.5,9.5 0 0 1 85.5,95 Z" style="fill:#000000;fill-rule:evenodd;"/>
        <!-- Kreisbogen -->
        <path d="M43.5428,-7.6664 A11.5746,11.5746 0 0,1 43.099,-4.3458" style="stroke:#000000;stroke-width:0.25;"/>
        <!-- Kreisbogen -->
        <path d="M43.099,-4.3458 A6.2784,6.2784 0 0,1 41.7065,-1.8363" style="stroke:#000000;stroke-width:0.25;"/>
        <!-- Kreisbogen -->
        <path d="M41.7065,-1.8363 A6.3537,6.3537 0 0,1 39.3041,-0.2448" style="stroke:#000000;stroke-width:0.25;"/>
        <!-- Kreisbogen -->
        <path d="M39.3041,-0.2448 A9.5695,9.5695 0 0,1 35.8305,0.3213" style="stroke:#000000;stroke-width:0.25;"/>
        <!-- Kreisbogen -->
        <path d="M35.8305,0.3213 A13.3195,13.3195 0 0,1 33.4739,0.1071" style="stroke:#000000;stroke-width:0.25;"/>
        <!-- Kreisbogen -->
        <path d="M33.4739,0.1071 A16.7533,16.7533 0 0,1 31.1327,-0.4897" style="stroke:#000000;stroke-width:0.25;"/>
        <!-- Kreisbogen -->
        <path d="M31.1327,-0.4897 A19.9514,19.9514 0 0,1 28.9445,-1.3619" style="stroke:#000000;stroke-width:0.25;"/>
        <!-- Kreisbogen -->
        <path d="M28.9445,-1.3619 A16.4969,16.4969 0 0,1 27.047,-2.4024" style="stroke:#000000;stroke-width:0.25;"/>
        <!-- Kreisbogen -->
        <path d="M27.047,-2.4024 A47.2279,47.2279 0 0,1 27.2109,-6.3335" style="stroke:#000000;stroke-width:0.25;"/>
        <!-- Kreisbogen -->
        <path d="M27.2109,-6.3335 A22.1107,22.1107 0 0,1 27.5979,-8.9977" style="stroke:#000000;stroke-width:0.25;"/>
        <!-- Kreisbogen -->
        <path d="M27.5979,-8.9977 A16.349,16.349 0 0,1 28.3532,-11.558" style="stroke:#000000;stroke-width:0.25;"/>
        <!-- Kreisbogen -->
        <path d="M28.3532,-11.558 A8.2478,8.2478 0 0,1 29.2352,-13.2364" style="stroke:#000000;stroke-width:0.25;"/>
        <!-- Kreisbogen -->
        <path d="M29.2352,-13.2364 A6.111,6.111 0 0,1 31.9131,-15.5011" style="stroke:#000000;stroke-width:0.25;"/>
        <!-- Kreisbogen -->
        <path d="M31.9131,-15.5011 A9.3596,9.3596 0 0,1 35.5856,-16.1744" style="stroke:#000000;stroke-width:0.25;"/>
        <!-- Kreisbogen -->
        <path d="M35.5856,-16.1744 A8.7411,8.7411 0 0,1 38.7838,-15.6083" style="stroke:#000000;stroke-width:0.25;"/>
        <!-- Kreisbogen -->
        <path d="M38.7838,-15.6083 A6.8971,6.8971 0 0,1 41.2933,-13.9403" style="stroke:#000000;stroke-width:0.25;"/>
        <!-- Kreisbogen -->
        <path d="M41.2933,-13.9403 A7.8136,7.8136 0 0,1 42.946,-11.2624" style="stroke:#000000;stroke-width:0.25;"/>
        <!-- Kreisbogen -->
        <path d="M42.946,-11.2624 A10.1064,10.1064 0 0,1 43.5428,-7.6664" style="stroke:#000000;stroke-width:0.25;"/>
        <!-- Kreisbogen -->
        <path d="M49.1128,-7.3298 A13.4603,13.4603 0 0,0 48.1181,-12.5019" style="stroke:#000000;stroke-width:0.25;"/>
        <!-- Kreisbogen -->
        <path d="M48.1181,-12.5019 A12.3969,12.3969 0 0,0 45.2872,-16.71" style="stroke:#000000;stroke-width:0.25;"/>
        <!-- Kreisbogen -->
        <path d="M45.2872,-16.71 A13.237,13.237 0 0,0 40.8649,-19.5256" style="stroke:#000000;stroke-width:0.25;"/>
        <!-- Kreisbogen -->
        <path d="M40.8649,-19.5256 A15.4449,15.4449 0 0,0 35.1265,-20.5509" style="stroke:#000000;stroke-width:0.25;"/>
        <!-- Kreisbogen -->
        <path d="M35.1265,-20.5509 A18.2683,18.2683 0 0,0 31.8793,-20.26" style="stroke:#000000;stroke-width:0.25;"/>
        <!-- Kreisbogen -->
        <path d="M31.8793,-20.26 A12.6082,12.6082 0 0,0 29.2811,-19.495" style="stroke:#000000;stroke-width:0.25;"/>
        <!-- Kreisbogen -->
        <path d="M29.2811,-19.495 A10.3859,10.3859 0 0,0 25.0271,-16.251" style="stroke:#000000;stroke-width:0.25;"/>
        <!-- Kreisbogen -->
        <path d="M25.0271,-16.251 A12.2136,12.2136 0 0,0 23.5928,-13.9234" style="stroke:#000000;stroke-width:0.25;"/>
        <!-- Kreisbogen -->
        <path d="M23.5928,-13.9234 A18.9229,18.9229 0 0,0 22.4257,-10.7269" style="stroke:#000000;stroke-width:0.25;"/>
        <!-- Kreisbogen -->
        <path d="M22.4257,-10.7269 A23.1691,23.1691 0 0,0 21.7918,-7.3578" style="stroke:#000000;stroke-width:0.25;"/>
        <!-- Kreisbogen -->
        <path d="M21.7918,-7.3578 A40.5274,40.5274 0 0,0 21.5382,-2.8309" style="stroke:#000000;stroke-width:0.25;"/>
        <!-- Kreisbogen -->
        <path d="M21.5382,-2.8309 A43.3055,43.3055 0 0,0 21.936,3.1064" style="stroke:#000000;stroke-width:0.25;"/>
        <!-- Kreisbogen -->
        <path d="M21.936,3.1064 A26.6226,26.6226 0 0,0 23.252,8.5233" style="stroke:#000000;stroke-width:0.25;"/>
        <!-- Kreisbogen -->
        <path d="M23.252,8.5233 A18.7327,18.7327 0 0,0 25.7004,13.1752" style="stroke:#000000;stroke-width:0.25;"/>
        <!-- Kreisbogen -->
        <path d="M25.7004,13.1752 A14.6917,14.6917 0 0,0 29.5106,16.8018" style="stroke:#000000;stroke-width:0.25;"/>
        <!-- Kreisbogen -->
        <path d="M29.5106,16.8018 A18.3406,18.3406 0 0,0 34.8817,19.1584" style="stroke:#000000;stroke-width:0.25;"/>
        <!-- Kreisbogen -->
        <path d="M34.8817,19.1584 A21.3889,21.3889 0 0,0 38.0044,19.7635" style="stroke:#000000;stroke-width:0.25;"/>
        <!-- Kreisbogen -->
        <path d="M38.0044,19.7635 A34.6028,34.6028 0 0,0 42.0432,20" style="stroke:#000000;stroke-width:0.25;"/>
        <!-- Linie -->
        <line x1="42.0432" y1="20" x2="45.9911" y2="20" style="stroke:#000000;stroke-width:0.25;"/>
        <!-- Linie -->
        <line x1="45.9911" y1="20" x2="45.9911" y2="15.3481" style="stroke:#000000;stroke-width:0.25;"/>
        <!-- Linie -->
        <line x1="45.9911" y1="15.3481" x2="41.7065" y2="15.3481" style="stroke:#000000;stroke-width:0.25;"/>
        <!-- Kreisbogen -->
        <path d="M41.7065,15.3481 A25.9236,25.9236 0 0,1 38.1644,15.105" style="stroke:#000000;stroke-width:0.25;"/>
        <!-- Kreisbogen -->
        <path d="M38.1644,15.105 A15.4414,15.4414 0 0,1 35.4938,14.4912" style="stroke:#000000;stroke-width:0.25;"/>
        <!-- Kreisbogen -->
        <path d="M35.4938,14.4912 A12.3825,12.3825 0 0,1 31.0868,12.0735" style="stroke:#000000;stroke-width:0.25;"/>
        <!-- Kreisbogen -->
        <path d="M31.0868,12.0735 A10.4486,10.4486 0 0,1 28.363,8.3091" style="stroke:#000000;stroke-width:0.25;"/>
        <!-- Kreisbogen -->
        <path d="M28.363,8.3091 A16.016,16.016 0 0,1 27.1694,3.3818" style="stroke:#000000;stroke-width:0.25;"/>
        <!-- Linie -->
        <line x1="27.1694" y1="3.3818" x2="27.047" y2="2.127" style="stroke:#000000;stroke-width:0.25;"/>
        <!-- Kreisbogen -->
        <path d="M27.047,2.127 A18.2281,18.2281 0 0,0 31.4999,3.948" style="stroke:#000000;stroke-width:0.25;"/>
        <!-- Kreisbogen -->
        <path d="M31.4999,3.948 A20.7021,20.7021 0 0,0 36.9628,4.6366" style="stroke:#000000;stroke-width:0.25;"/>
        <!-- Kreisbogen -->
        <path d="M36.9628,4.6366 A18.0962,18.0962 0 0,0 39.9462,4.389" style="stroke:#000000;stroke-width:0.25;"/>
        <!-- Kreisbogen -->
        <path d="M39.9462,4.389 A11.7568,11.7568 0 0,0 42.2727,3.749" style="stroke:#000000;stroke-width:0.25;"/>
        <!-- Kreisbogen -->
        <path d="M42.2727,3.749 A10.4111,10.4111 0 0,0 46.0676,1.2854" style="stroke:#000000;stroke-width:0.25;"/>
        <!-- Kreisbogen -->
        <path d="M46.0676,1.2854 A10.2019,10.2019 0 0,0 48.3477,-2.4943" style="stroke:#000000;stroke-width:0.25;"/>
        <!-- Kreisbogen -->
        <path d="M48.3477,-2.4943 A14.6559,14.6559 0 0,0 49.1128,-7.3298" style="stroke:#000000;stroke-width:0.25;"/>
        <!-- Kreisbogen -->
        <path d="M13.1599,-7.2073 A11.4734,11.4734 0 0,0 11.8745,-12.6243" style="stroke:#000000;stroke-width:0.25;"/>
        <!-- Kreisbogen -->
        <path d="M11.8745,-12.6243 A12.933,12.933 0 0,0 8.3397,-16.8324" style="stroke:#000000;stroke-width:0.25;"/>
        <!-- Kreisbogen -->
        <path d="M8.3397,-16.8324 A16.8713,16.8713 0 0,0 3.0298,-19.5715" style="stroke:#000000;stroke-width:0.25;"/>
        <!-- Kreisbogen -->
        <path d="M3.0298,-19.5715 A21.5758,21.5758 0 0,0 -3.5807,-20.5509" style="stroke:#000000;stroke-width:0.25;"/>
        <!-- Kreisbogen -->
        <path d="M-3.5807,-20.5509 A42.9272,42.9272 0 0,0 -5.4935,-20.505" style="stroke:#000000;stroke-width:0.25;"/>
        <!-- Kreisbogen -->
        <path d="M-5.4935,-20.505 A66.0545,66.0545 0 0,0 -7.5287,-20.3826" style="stroke:#000000;stroke-width:0.25;"/>
        <!-- Kreisbogen -->
        <path d="M-7.5287,-20.3826 A102.4834,102.4834 0 0,0 -9.5027,-20.2142" style="stroke:#000000;stroke-width:0.25;"/>
        <!-- Kreisbogen -->
        <path d="M-9.5027,-20.2142 A27.605,27.605 0 0,0 -11.2318,-20" style="stroke:#000000;stroke-width:0.25;"/>
        <!-- Linie -->
        <line x1="-11.2318" y1="-20" x2="-11.2318" y2="-15.1645" style="stroke:#000000;stroke-width:0.25;"/>
        <!-- Kreisbogen -->
        <path d="M-11.2318,-15.1645 A25.7098,25.7098 0 0,1 -7.4522,-15.746" style="stroke:#000000;stroke-width:0.25;"/>
        <!-- Kreisbogen -->
        <path d="M-7.4522,-15.746 A49.9717,49.9717 0 0,1 -3.1523,-15.9296" style="stroke:#000000;stroke-width:0.25;"/>
        <!-- Kreisbogen -->
        <path d="M-3.1523,-15.9296 A15.4722,15.4722 0 0,1 1.2548,-15.3481" style="stroke:#000000;stroke-width:0.25;"/>
        <!-- Kreisbogen -->
        <path d="M1.2548,-15.3481 A9.8464,9.8464 0 0,1 4.5907,-13.6802" style="stroke:#000000;stroke-width:0.25;"/>
        <!-- Kreisbogen -->
        <path d="M4.5907,-13.6802 A7.318,7.318 0 0,1 6.7024,-11.0482" style="stroke:#000000;stroke-width:0.25;"/>
        <!-- Kreisbogen -->
        <path d="M6.7024,-11.0482 A7.9927,7.9927 0 0,1 7.4369,-7.5746" style="stroke:#000000;stroke-width:0.25;"/>
        <!-- Kreisbogen -->
        <path d="M7.4369,-7.5746 A9.0425,9.0425 0 0,1 7.2682,-5.8362" style="stroke:#000000;stroke-width:0.25;"/>
        <!-- Kreisbogen -->
        <path d="M7.2682,-5.8362 A5.9853,5.9853 0 0,1 6.8314,-4.484" style="stroke:#000000;stroke-width:0.25;"/>
        <!-- Kreisbogen -->
        <path d="M6.8314,-4.484 A5.298,5.298 0 0,1 5.9863,-3.1882" style="stroke:#000000;stroke-width:0.25;"/>
        <!-- Kreisbogen -->
        <path d="M5.9863,-3.1882 A5.7559,5.7559 0 0,1 4.759,-2.1423" style="stroke:#000000;stroke-width:0.25;"/>
        <!-- Kreisbogen -->
        <path d="M4.759,-2.1423 A8.2058,8.2058 0 0,1 3.1929,-1.3691" style="stroke:#000000;stroke-width:0.25;"/>
        <!-- Kreisbogen -->
        <path d="M3.1929,-1.3691 A13.4855,13.4855 0 0,1 1.0344,-0.7743" style="stroke:#000000;stroke-width:0.25;"/>
        <!-- Kreisbogen -->
        <path d="M1.0344,-0.7743 A17.3563,17.3563 0 0,1 -0.7325,-0.5354" style="stroke:#000000;stroke-width:0.25;"/>
        <!-- Kreisbogen -->
        <path d="M-0.7325,-0.5354 A26.5999,26.5999 0 0,1 -2.938,-0.4438" style="stroke:#000000;stroke-width:0.25;"/>
        <!-- Linie -->
        <line x1="-2.938" y1="-0.4438" x2="-10.5279" y2="-0.4438" style="stroke:#000000;stroke-width:0.25;"/>
        <!-- Linie -->
        <line x1="-10.5279" y1="-0.4438" x2="-10.5279" y2="20" style="stroke:#000000;stroke-width:0.25;"/>
        <!-- Linie -->
        <line x1="-10.5279" y1="20" x2="11.0176" y2="20" style="stroke:#000000;stroke-width:0.25;"/>
        <!-- Linie -->
        <line x1="11.0176" y1="20" x2="11.0176" y2="15.3481" style="stroke:#000000;stroke-width:0.25;"/>
        <!-- Linie -->
        <line x1="11.0176" y1="15.3481" x2="-5.5088" y2="15.3481" style="stroke:#000000;stroke-width:0.25;"/>
        <!-- Linie -->
        <line x1="-5.5088" y1="15.3481" x2="-5.5088" y2="4.1163" style="stroke:#000000;stroke-width:0.25;"/>
        <!-- Linie -->
        <line x1="-5.5088" y1="4.1163" x2="-2.0199" y2="4.1163" style="stroke:#000000;stroke-width:0.25;"/>
        <!-- Kreisbogen -->
        <path d="M-2.0199,4.1163 A29.7874,29.7874 0 0,0 3.5807,3.596" style="stroke:#000000;stroke-width:0.25;"/>
        <!-- Kreisbogen -->
        <path d="M3.5807,3.596 A14.3813,14.3813 0 0,0 8.4315,1.7751" style="stroke:#000000;stroke-width:0.25;"/>
        <!-- Kreisbogen -->
        <path d="M8.4315,1.7751 A10.0243,10.0243 0 0,0 11.8592,-1.7138" style="stroke:#000000;stroke-width:0.25;"/>
        <!-- Kreisbogen -->
        <path d="M11.8592,-1.7138 A7.9182,7.9182 0 0,0 12.446,-2.9248" style="stroke:#000000;stroke-width:0.25;"/>
        <!-- Kreisbogen -->
        <path d="M12.446,-2.9248 A9.9391,9.9391 0 0,0 12.8774,-4.3692" style="stroke:#000000;stroke-width:0.25;"/>
        <!-- Kreisbogen -->
        <path d="M12.8774,-4.3692 A11.4908,11.4908 0 0,0 13.0838,-5.6752" style="stroke:#000000;stroke-width:0.25;"/>
        <!-- Kreisbogen -->
        <path d="M13.0838,-5.6752 A15.4696,15.4696 0 0,0 13.1599,-7.2073" style="stroke:#000000;stroke-width:0.25;"/>
        <!-- Kreisbogen -->
        <path d="M-20.3446,13.1446 A22.6495,22.6495 0 0,1 -24.9353,14.9962" style="stroke:#000000;stroke-width:0.25;"/>
        <!-- Kreisbogen -->
        <path d="M-24.9353,14.9962 A19.068,19.068 0 0,1 -30.0768,15.6542" style="stroke:#000000;stroke-width:0.25;"/>
        <!-- Kreisbogen -->
        <path d="M-30.0768,15.6542 A15.8872,15.8872 0 0,1 -33.1926,15.3457" style="stroke:#000000;stroke-width:0.25;"/>
        <!-- Kreisbogen -->
        <path d="M-33.1926,15.3457 A11.6059,11.6059 0 0,1 -35.7386,14.5218" style="stroke:#000000;stroke-width:0.25;"/>
        <!-- Kreisbogen -->
        <path d="M-35.7386,14.5218 A11.5372,11.5372 0 0,1 -39.9161,11.3236" style="stroke:#000000;stroke-width:0.25;"/>
        <!-- Kreisbogen -->
        <path d="M-39.9161,11.3236 A14.5023,14.5023 0 0,1 -42.5175,6.3504" style="stroke:#000000;stroke-width:0.25;"/>
        <!-- Kreisbogen -->
        <path d="M-42.5175,6.3504 A21.6009,21.6009 0 0,1 -43.4204,-0.0765" style="stroke:#000000;stroke-width:0.25;"/>
        <!-- Kreisbogen -->
        <path d="M-43.4204,-0.0765 A26.9294,26.9294 0 0,1 -42.6858,-6.6565" style="stroke:#000000;stroke-width:0.25;"/>
        <!-- Kreisbogen -->
        <path d="M-42.6858,-6.6565 A13.2638,13.2638 0 0,1 -40.3905,-11.5838" style="stroke:#000000;stroke-width:0.25;"/>
        <!-- Kreisbogen -->
        <path d="M-40.3905,-11.5838 A10.0905,10.0905 0 0,1 -36.3966,-14.6748" style="stroke:#000000;stroke-width:0.25;"/>
        <!-- Kreisbogen -->
        <path d="M-36.3966,-14.6748 A11.2359,11.2359 0 0,1 -33.8997,-15.4423" style="stroke:#000000;stroke-width:0.25;"/>
        <!-- Kreisbogen -->
        <path d="M-33.8997,-15.4423 A18.4458,18.4458 0 0,1 -30.5665,-15.746" style="stroke:#000000;stroke-width:0.25;"/>
        <!-- Kreisbogen -->
        <path d="M-30.5665,-15.746 A13.9138,13.9138 0 0,1 -29.3117,-15.6848" style="stroke:#000000;stroke-width:0.25;"/>
        <!-- Kreisbogen -->
        <path d="M-29.3117,-15.6848 A20.2204,20.2204 0 0,1 -27.9651,-15.5164" style="stroke:#000000;stroke-width:0.25;"/>
        <!-- Kreisbogen -->
        <path d="M-27.9651,-15.5164 A16.2896,16.2896 0 0,1 -26.6644,-15.2563" style="stroke:#000000;stroke-width:0.25;"/>
        <!-- Kreisbogen -->
        <path d="M-26.6644,-15.2563 A9.8388,9.8388 0 0,1 -25.5474,-14.9197" style="stroke:#000000;stroke-width:0.25;"/>
        <!-- Linie -->
        <line x1="-25.5474" y1="-14.9197" x2="-25.5474" y2="-2.1882" style="stroke:#000000;stroke-width:0.25;"/>
        <!-- Linie -->
        <line x1="-25.5474" y1="-2.1882" x2="-33.7187" y2="-2.1882" style="stroke:#000000;stroke-width:0.25;"/>
        <!-- Linie -->
        <line x1="-33.7187" y1="-2.1882" x2="-33.7187" y2="2.3106" style="stroke:#000000;stroke-width:0.25;"/>
        <!-- Linie -->
        <line x1="-33.7187" y1="2.3106" x2="-20.161" y2="2.3106" style="stroke:#000000;stroke-width:0.25;"/>
        <!-- Linie -->
        <line x1="-20.161" y1="2.3106" x2="-20.161" y2="-18.1331" style="stroke:#000000;stroke-width:0.25;"/>
        <!-- Kreisbogen -->
        <path d="M-20.161,-18.1331 A24.6355,24.6355 0 0,0 -22.8083,-19.1737" style="stroke:#000000;stroke-width:0.25;"/>
        <!-- Kreisbogen -->
        <path d="M-22.8083,-19.1737 A26.5569,26.5569 0 0,0 -25.6545,-19.9388" style="stroke:#000000;stroke-width:0.25;"/>
        <!-- Kreisbogen -->
        <path d="M-25.6545,-19.9388 A28.8448,28.8448 0 0,0 -28.5466,-20.3979" style="stroke:#000000;stroke-width:0.25;"/>
        <!-- Kreisbogen -->
        <path d="M-28.5466,-20.3979 A26.3363,26.3363 0 0,0 -31.3316,-20.5509" style="stroke:#000000;stroke-width:0.25;"/>
        <!-- Kreisbogen -->
        <path d="M-31.3316,-20.5509 A23.5517,23.5517 0 0,0 -35.367,-20.2026" style="stroke:#000000;stroke-width:0.25;"/>
        <!-- Kreisbogen -->
        <path d="M-35.367,-20.2026 A17.4255,17.4255 0 0,0 -38.7226,-19.2655" style="stroke:#000000;stroke-width:0.25;"/>
        <!-- Kreisbogen -->
        <path d="M-38.7226,-19.2655 A14.7563,14.7563 0 0,0 -44.3232,-15.4552" style="stroke:#000000;stroke-width:0.25;"/>
        <!-- Kreisbogen -->
        <path d="M-44.3232,-15.4552 A14.829,14.829 0 0,0 -46.2973,-12.7334" style="stroke:#000000;stroke-width:0.25;"/>
        <!-- Kreisbogen -->
        <path d="M-46.2973,-12.7334 A19.9498,19.9498 0 0,0 -47.8733,-9.166" style="stroke:#000000;stroke-width:0.25;"/>
        <!-- Kreisbogen -->
        <path d="M-47.8733,-9.166 A22.2013,22.2013 0 0,0 -48.7662,-5.3461" style="stroke:#000000;stroke-width:0.25;"/>
        <!-- Kreisbogen -->
        <path d="M-48.7662,-5.3461 A34.8444,34.8444 0 0,0 -49.1128,-0.4438" style="stroke:#000000;stroke-width:0.25;"/>
        <!-- Kreisbogen -->
        <path d="M-49.1128,-0.4438 A31.5526,31.5526 0 0,0 -48.7358,4.419" style="stroke:#000000;stroke-width:0.25;"/>
        <!-- Kreisbogen -->
        <path d="M-48.7358,4.419 A22.1966,22.1966 0 0,0 -47.7356,8.3856" style="stroke:#000000;stroke-width:0.25;"/>
        <!-- Kreisbogen -->
        <path d="M-47.7356,8.3856 A21.4324,21.4324 0 0,0 -46.0192,12.0836" style="stroke:#000000;stroke-width:0.25;"/>
        <!-- Kreisbogen -->
        <path d="M-46.0192,12.0836 A16.9282,16.9282 0 0,0 -43.8641,14.9962" style="stroke:#000000;stroke-width:0.25;"/>
        <!-- Kreisbogen -->
        <path d="M-43.8641,14.9962 A16.4621,16.4621 0 0,0 -37.8656,19.1278" style="stroke:#000000;stroke-width:0.25;"/>
        <!-- Kreisbogen -->
        <path d="M-37.8656,19.1278 A20.3542,20.3542 0 0,0 -30.138,20.5509" style="stroke:#000000;stroke-width:0.25;"/>
        <!-- Kreisbogen -->
        <path d="M-30.138,20.5509 A26.7503,26.7503 0 0,0 -25.0118,20.0765" style="stroke:#000000;stroke-width:0.25;"/>
        <!-- Kreisbogen -->
        <path d="M-25.0118,20.0765 A20.1416,20.1416 0 0,0 -20.3446,18.5616" style="stroke:#000000;stroke-width:0.25;"/>
        <!-- Linie -->
        <line x1="-20.3446" y1="18.5616" x2="-20.3446" y2="13.1446" style="stroke:#000000;stroke-width:0.25;"/>
        <!-- Schraffur -->
        <path d="M21.5382,-2.8309 A43.3055,43.3055 0 0 0 21.936,3.1064 A26.6226,26.6226 0 0 0 23.252,8.5233 A18.7327,18.7327 0 0 0 25.7004,13.1752 A14.6917,14.6917 0 0 0 29.5106,16.8018 A18.3406,18.3406 0 0 0 34.8817,19.1584 A21.3889,21.3889 0 0 0 38.0044,19.7635 A34.6028,34.6028 0 0 0 42.0432,20 L45.9911,20 L45.9911,15.3481 L41.7065,15.3481 A25.9236,25.9236 0 0 1 38.1644,15.105 A15.4414,15.4414 0 0 1 35.4938,14.4912 A12.3825,12.3825 0 0 1 31.0868,12.0735 A10.4486,10.4486 0 0 1 28.363,8.3091 A16.016,16.016 0 0 1 27.1694,3.3818 L27.047,2.127 A18.2281,18.2281 0 0 0 31.4999,3.948 A20.7021,20.7021 0 0 0 36.9628,4.6366 A18.0962,18.0962 0 0 0 39.9462,4.389 A11.7568,11.7568 0 0 0 42.2727,3.749 A10.4111,10.4111 0 0 0 46.0676,1.2854 A10.2019,10.2019 0 0 0 48.3477,-2.4943 A14.6559,14.6559 0 0 0 49.1128,-7.3298 A13.4603,13.4603 0 0 0 48.1181,-12.5019 A12.3969,12.3969 0 0 0 45.2872,-16.71 A13.237,13.237 0 0 0 40.8649,-19.5256 A15.4449,15.4449 0 0 0 35.1265,-20.5509 A18.2683,18.2683 0 0 0 31.8793,-20.26 A12.6082,12.6082 0 0 0 29.2811,-19.495 A10.3859,10.3859 0 0 0 25.0271,-16.251 A12.2136,12.2136 0 0 0 23.5928,-13.9234 A18.9229,18.9229 0 0 0 22.4257,-10.7269 A23.1691,23.1691 0 0 0 21.7918,-7.3578 A40.5274,40.5274 0 0 0 21.5382,-2.8309M42.946,-11.2624 A10.1064,10.1064 0 0 1 43.5428,-7.6664 A11.5746,11.5746 0 0 1 43.099,-4.3458 A6.27841,6.27841 0 0 1 41.7065,-1.8363 A6.35369,6.35369 0 0 1 39.3041,-0.2448 A9.56954,9.56954 0 0 1 35.8305,0.3213 A13.3195,13.3195 0 0 1 33.4739,0.1071 A16.7533,16.7533 0 0 1 31.1327,-0.4897 A19.9514,19.9514 0 0 1 28.9445,-1.3619 A16.4969,16.4969 0 0 1 27.047,-2.4024 A47.2279,47.2279 0 0 1 27.2109,-6.3335 A22.1107,22.1107 0 0 1 27.5979,-8.9977 A16.349,16.349 0 0 1 28.3532,-11.558 A8.24778,8.24778 0 0 1 29.2352,-13.2364 A6.111,6.111 0 0 1 31.9131,-15.5011 A9.35958,9.35958 0 0 1 35.5856,-16.1744 A8.74113,8.74113 0 0 1 38.7838,-15.6083 A6.89706,6.89706 0 0 1 41.2933,-13.9403 A7.81362,7.81362 0 0 1 42.946,-11.2624M-20.3446,18.5616 L-20.3446,13.1446 A22.6495,22.6495 0 0 1 -24.9353,14.9962 A19.068,19.068 0 0 1 -30.0768,15.6542 A15.8872,15.8872 0 0 1 -33.1926,15.3457 A11.6059,11.6059 0 0 1 -35.7386,14.5218 A11.5372,11.5372 0 0 1 -39.9161,11.3236 A14.5023,14.5023 0 0 1 -42.5175,6.3504 A21.6009,21.6009 0 0 1 -43.4204,-0.0765 A26.9294,26.9294 0 0 1 -42.6858,-6.6565 A13.2638,13.2638 0 0 1 -40.3905,-11.5838 A10.0905,10.0905 0 0 1 -36.3966,-14.6748 A11.2359,11.2359 0 0 1 -33.8997,-15.4423 A18.4458,18.4458 0 0 1 -30.5665,-15.746 A13.9138,13.9138 0 0 1 -29.3117,-15.6848 A20.2204,20.2204 0 0 1 -27.9651,-15.5164 A16.2896,16.2896 0 0 1 -26.6644,-15.2563 A9.83877,9.83877 0 0 1 -25.5474,-14.9197 L-25.5474,-2.1882 L-33.7187,-2.1882 L-33.7187,2.3106 L-20.161,2.3106 L-20.161,-18.1331 A24.6355,24.6355 0 0 0 -22.8083,-19.1737 A26.5569,26.5569 0 0 0 -25.6545,-19.9388 A28.8448,28.8448 0 0 0 -28.5466,-20.3979 A26.3363,26.3363 0 0 0 -31.3316,-20.5509 A23.5517,23.5517 0 0 0 -35.367,-20.2026 A17.4255,17.4255 0 0 0 -38.7226,-19.2655 A14.7563,14.7563 0 0 0 -44.3232,-15.4552 A14.829,14.829 0 0 0 -46.2973,-12.7334 A19.9498,19.9498 0 0 0 -47.8733,-9.166 A22.2013,22.2013 0 0 0 -48.7662,-5.3461 A34.8444,34.8444 0 0 0 -49.1128,-0.4438 A31.5526,31.5526 0 0 0 -48.7358,4.419 A22.1966,22.1966 0 0 0 -47.7356,8.3856 A21.4324,21.4324 0 0 0 -46.0192,12.0836 A16.9282,16.9282 0 0 0 -43.8641,14.9962 A16.4621,16.4621 0 0 0 -37.8656,19.1278 A20.3542,20.3542 0 0 0 -30.138,20.5509 A26.7503,26.7503 0 0 0 -25.0118,20.0765 A20.1416,20.1416 0 0 0 -20.3446,18.5616M13.0838,-5.6752 A15.4696,15.4696 0 0 0 13.1599,-7.2073 A11.4734,11.4734 0 0 0 11.8745,-12.6243 A12.933,12.933 0 0 0 8.3397,-16.8324 A16.8713,16.8713 0 0 0 3.0298,-19.5715 A21.5758,21.5758 0 0 0 -3.5807,-20.5509 A42.9272,42.9272 0 0 0 -5.4935,-20.505 A66.0545,66.0545 0 0 0 -7.5287,-20.3826 A102.483,102.483 0 0 0 -9.5027,-20.2142 A27.605,27.605 0 0 0 -11.2318,-20 L-11.2318,-15.1645 A25.7098,25.7098 0 0 1 -7.4522,-15.746 A49.9717,49.9717 0 0 1 -3.1523,-15.9296 A15.4722,15.4722 0 0 1 1.2548,-15.3481 A9.84638,9.84638 0 0 1 4.5907,-13.6802 A7.31803,7.31803 0 0 1 6.7024,-11.0482 A7.99269,7.99269 0 0 1 7.4369,-7.5746 A9.04251,9.04251 0 0 1 7.2682,-5.8362 A5.98533,5.98533 0 0 1 6.8314,-4.484 A5.29797,5.29797 0 0 1 5.9863,-3.1882 A5.75588,5.75588 0 0 1 4.759,-2.1423 A8.20584,8.20584 0 0 1 3.1929,-1.3691 A13.4855,13.4855 0 0 1 1.0344,-0.7743 A17.3563,17.3563 0 0 1 -0.7325,-0.5354 A26.5999,26.5999 0 0 1 -2.938,-0.4438 L-10.5279,-0.4438 L-10.5279,20 L11.0176,20 L11.0176,15.3481 L-5.5088,15.3481 L-5.5088,4.1163 L-2.0199,4.1163 A29.7874,29.7874 0 0 0 3.5807,3.596 A14.3813,14.3813 0 0 0 8.4315,1.7751 A10.0243,10.0243 0 0 0 11.8592,-1.7138 A7.91817,7.91817 0 0 0 12.446,-2.9248 A9.9391,9.9391 0 0 0 12.8774,-4.3692 A11.4908,11.4908 0 0 0 13.0838,-5.6752" style="fill:#000000;fill-rule:evenodd;"/>
    </g>
</svg>
