<?xml version="1.0" encoding="UTF-8" standalone="no"?>
<!-- Created with Inkscape (http://www.inkscape.org/) -->

<svg
   xmlns:dc="http://purl.org/dc/elements/1.1/"
   xmlns:cc="http://creativecommons.org/ns#"
   xmlns:rdf="http://www.w3.org/1999/02/22-rdf-syntax-ns#"
   xmlns:svg="http://www.w3.org/2000/svg"
   xmlns="http://www.w3.org/2000/svg"
   xmlns:sodipodi="http://sodipodi.sourceforge.net/DTD/sodipodi-0.dtd"
   xmlns:inkscape="http://www.inkscape.org/namespaces/inkscape"
   width="210mm"
   height="297mm"
   viewBox="0 0 210 297"
   version="1.1"
   id="svg8"
   inkscape:version="0.92.5 (2060ec1f9f, 2020-04-08)"
   sodipodi:docname="g56.svg">
  <defs
     id="defs2" />
  <sodipodi:namedview
     id="base"
     pagecolor="#ffffff"
     bordercolor="#666666"
     borderopacity="1.0"
     inkscape:pageopacity="0.0"
     inkscape:pageshadow="2"
     inkscape:zoom="1.4"
     inkscape:cx="449.81851"
     inkscape:cy="528.92855"
     inkscape:document-units="mm"
     inkscape:current-layer="g1079"
     showgrid="false"
     inkscape:window-width="3840"
     inkscape:window-height="2054"
     inkscape:window-x="-9"
     inkscape:window-y="-9"
     inkscape:window-maximized="1" />
  <metadata
     id="metadata5">
    <rdf:RDF>
      <cc:Work
         rdf:about="">
        <dc:format>image/svg+xml</dc:format>
        <dc:type
           rdf:resource="http://purl.org/dc/dcmitype/StillImage" />
        <dc:title></dc:title>
      </cc:Work>
    </rdf:RDF>
  </metadata>
  <g
     inkscape:label="Layer 1"
     inkscape:groupmode="layer"
     id="layer1">
    <g
       style="fill:none;stroke-linecap:round;stroke-linejoin:round"
       id="g1222"
       transform="matrix(1.5,0,0,1.5,150,147)">
      <g
         id="g1079"
         transform="scale(1,-1)">
        <!-- Schraffur -->
        <path
           id="path815"
           style="fill:#000000;fill-rule:evenodd;stroke-width:1.0666666"
           d="m 113.33333,-84.533333 v 182.4 A 15.466667,15.466667 0 0 1 97.866667,113.33333 h -182.4 A 15.466667,15.466667 0 0 1 -100,97.866667 v -182.4 A 15.466667,15.466667 0 0 1 -84.533333,-100 h 182.4 a 15.466667,15.466667 0 0 1 15.466663,15.466667 M -84.533333,108 A 10.133333,10.133333 0 0 1 -94.666667,97.866667 v -182.4 a 10.133333,10.133333 0 0 1 10.133334,-10.133334 h 182.4 A 10.133333,10.133333 0 0 1 108,-84.533333 v 182.4 A 10.133333,10.133333 0 0 1 97.866667,108 Z"
           inkscape:connector-curvature="0" />
        <!-- Kreisbogen -->
        <!-- Kreisbogen -->
        <!-- Kreisbogen -->
        <!-- Kreisbogen -->
        <!-- Kreisbogen -->
        <!-- Kreisbogen -->
        <!-- Kreisbogen -->
        <!-- Kreisbogen -->
        <!-- Kreisbogen -->
        <!-- Kreisbogen -->
        <!-- Kreisbogen -->
        <!-- Kreisbogen -->
        <!-- Kreisbogen -->
        <!-- Kreisbogen -->
        <!-- Kreisbogen -->
        <!-- Kreisbogen -->
        <!-- Kreisbogen -->
        <!-- Kreisbogen -->
        <!-- Kreisbogen -->
        <!-- Kreisbogen -->
        <!-- Kreisbogen -->
        <!-- Kreisbogen -->
        <!-- Kreisbogen -->
        <!-- Kreisbogen -->
        <!-- Kreisbogen -->
        <!-- Kreisbogen -->
        <!-- Kreisbogen -->
        <!-- Kreisbogen -->
        <!-- Kreisbogen -->
        <!-- Kreisbogen -->
        <!-- Kreisbogen -->
        <!-- Kreisbogen -->
        <!-- Kreisbogen -->
        <!-- Kreisbogen -->
        <!-- Kreisbogen -->
        <!-- Kreisbogen -->
        <!-- Linie -->
        <!-- Linie -->
        <!-- Linie -->
        <!-- Kreisbogen -->
        <!-- Kreisbogen -->
        <!-- Kreisbogen -->
        <!-- Kreisbogen -->
        <!-- Kreisbogen -->
        <!-- Linie -->
        <!-- Kreisbogen -->
        <!-- Kreisbogen -->
        <!-- Kreisbogen -->
        <!-- Kreisbogen -->
        <!-- Kreisbogen -->
        <!-- Kreisbogen -->
        <!-- Kreisbogen -->
        <!-- Kreisbogen -->
        <!-- Kreisbogen -->
        <!-- Kreisbogen -->
        <!-- Kreisbogen -->
        <!-- Kreisbogen -->
        <!-- Kreisbogen -->
        <!-- Kreisbogen -->
        <!-- Kreisbogen -->
        <!-- Linie -->
        <!-- Kreisbogen -->
        <!-- Kreisbogen -->
        <!-- Kreisbogen -->
        <!-- Kreisbogen -->
        <!-- Kreisbogen -->
        <!-- Kreisbogen -->
        <!-- Kreisbogen -->
        <!-- Kreisbogen -->
        <!-- Kreisbogen -->
        <!-- Kreisbogen -->
        <!-- Kreisbogen -->
        <!-- Kreisbogen -->
        <!-- Kreisbogen -->
        <!-- Kreisbogen -->
        <!-- Linie -->
        <!-- Linie -->
        <!-- Linie -->
        <!-- Linie -->
        <!-- Linie -->
        <!-- Linie -->
        <!-- Linie -->
        <!-- Kreisbogen -->
        <!-- Kreisbogen -->
        <!-- Kreisbogen -->
        <!-- Kreisbogen -->
        <!-- Kreisbogen -->
        <!-- Kreisbogen -->
        <!-- Kreisbogen -->
        <!-- Kreisbogen -->
        <!-- Kreisbogen -->
        <!-- Kreisbogen -->
        <!-- Kreisbogen -->
        <!-- Kreisbogen -->
        <!-- Kreisbogen -->
        <!-- Kreisbogen -->
        <!-- Kreisbogen -->
        <!-- Kreisbogen -->
        <!-- Kreisbogen -->
        <!-- Kreisbogen -->
        <!-- Kreisbogen -->
        <!-- Kreisbogen -->
        <!-- Kreisbogen -->
        <!-- Kreisbogen -->
        <!-- Kreisbogen -->
        <!-- Linie -->
        <!-- Linie -->
        <!-- Linie -->
        <!-- Linie -->
        <!-- Linie -->
        <!-- Kreisbogen -->
        <!-- Kreisbogen -->
        <!-- Kreisbogen -->
        <!-- Kreisbogen -->
        <!-- Kreisbogen -->
        <!-- Kreisbogen -->
        <!-- Kreisbogen -->
        <!-- Kreisbogen -->
        <!-- Kreisbogen -->
        <!-- Kreisbogen -->
        <!-- Kreisbogen -->
        <!-- Kreisbogen -->
        <!-- Kreisbogen -->
        <!-- Kreisbogen -->
        <!-- Kreisbogen -->
        <!-- Kreisbogen -->
        <!-- Kreisbogen -->
        <!-- Kreisbogen -->
        <!-- Kreisbogen -->
        <!-- Linie -->
        <!-- Schraffur -->
        <g
           aria-label="G56"
           transform="scale(1,-1)"
           style="font-style:normal;font-weight:normal;font-size:94.07407379px;line-height:125%;font-family:sans-serif;letter-spacing:0px;word-spacing:0px;fill:#000000;fill-opacity:1;stroke:none;stroke-width:0.17638889px;stroke-linecap:butt;stroke-linejoin:miter;stroke-opacity:1"
           id="text1226">
          <path
             d="m -14.345083,-27.943625 q 0,1.332103 -0.137804,2.29673 -0.09187,0.964627 -0.321542,1.561777 -0.183738,0.551215 -0.50528,0.780888 -0.275608,0.229673 -0.68902,0.229673 -0.597149,0 -1.929253,-0.826823 -1.332104,-0.826823 -3.536965,-1.79145 -2.204861,-0.964626 -5.282479,-1.791449 -3.031684,-0.826823 -7.07393,-0.826823 -4.317853,0 -7.808883,1.515842 -3.49103,1.469907 -5.971499,4.225984 -2.480468,2.710141 -3.812572,6.568648 -1.332104,3.812573 -1.332104,8.4519679 0,5.0987413 1.332104,9.0031828 1.378038,3.858507 3.812572,6.4767795 2.434534,2.6182728 5.833695,3.9503758 3.445096,1.332104 7.57921,1.332104 2.021123,0 3.996311,-0.459346 1.975188,-0.459346 3.674769,-1.378038 V -2.4039842 h -11.253979 q -0.826823,0 -1.286169,-1.0105613 -0.459346,-1.056496 -0.459346,-3.5369647 0,-1.286169 0.09187,-2.1589265 0.137804,-0.8727576 0.367477,-1.3780383 0.229673,-0.551215 0.551215,-0.780888 0.321543,-0.275608 0.734954,-0.275608 h 20.073423 q 0.734954,0 1.286169,0.275608 0.59715,0.229673 1.010561,0.734953 0.459346,0.505281 0.689019,1.2402348 0.229673,0.6890191 0.229673,1.6077113 V 15.969858 q 0,1.378039 -0.50528,2.434534 -0.459346,1.010562 -1.975188,1.607712 -1.469908,0.59715 -3.674769,1.240234 -2.204861,0.643085 -4.59346,1.102431 -2.342665,0.459346 -4.7772,0.689019 -2.388599,0.229673 -4.823133,0.229673 -7.119864,0 -12.769821,-2.021123 -5.604022,-2.067057 -9.508463,-5.925564 -3.904442,-3.904442 -5.971499,-9.4625291 -2.067057,-5.60402194 -2.067057,-12.6779513 0,-7.3036026 2.204861,-13.0913626 2.204861,-5.833695 6.247106,-9.875941 4.042246,-4.08818 9.738137,-6.247106 5.741826,-2.158927 12.76982,-2.158927 3.858507,0 7.027995,0.551216 3.169488,0.50528 5.512153,1.286169 2.388599,0.734953 3.950376,1.607711 1.561777,0.872757 2.158926,1.515842 0.643085,0.643084 0.918693,1.837384 0.275607,1.148365 0.275607,3.445096 z"
             style="font-style:normal;font-variant:normal;font-weight:bold;font-stretch:normal;font-family:Calibri;-inkscape-font-specification:'Calibri Bold';stroke-width:0.17638889px"
             id="path1274" />
          <path
             d="m 34.759012,2.9703647 q 0,4.8231337 -1.69958,8.6357063 -1.653646,3.766637 -4.731265,6.38491 -3.031684,2.572338 -7.349537,3.950376 -4.271918,1.378038 -9.508463,1.378038 -2.7560766,0 -5.2365454,-0.367477 -2.4804687,-0.321542 -4.4556568,-0.826822 -1.97518806,-0.551216 -3.261357,-1.056496 -1.2402344,-0.551216 -1.6536459,-0.872758 -0.3674768,-0.367477 -0.5512152,-0.780888 -0.1837385,-0.413412 -0.3215423,-0.964627 -0.091869,-0.59715 -0.1378038,-1.469907 -0.045935,-0.872758 -0.045935,-2.067058 0,-1.286169 0.091869,-2.158926 0.091869,-0.918692 0.2756076,-1.469908 0.2296731,-0.551215 0.5052807,-0.780888 0.2756076,-0.229673 0.6430845,-0.229673 0.4593461,0 1.3780382,0.551215 0.96462672,0.505281 2.4804687,1.148366 1.5617766,0.643084 3.7666377,1.194299 2.2048612,0.505281 5.2824794,0.505281 2.664208,0 4.823134,-0.551215 2.204861,-0.551216 3.720703,-1.745515 1.515842,-1.240235 2.342665,-3.0776189 0.826823,-1.8373843 0.826823,-4.4097222 0,-2.2048611 -0.689019,-3.90444158 Q 20.565219,-1.7608997 19.095311,-2.9551995 17.625404,-4.1494992 15.282739,-4.7466491 12.940074,-5.343799 9.5868479,-5.343799 q -2.6642072,0 -4.8690683,0.2756076 -2.1589265,0.2756077 -4.08817995,0.2756077 -1.33210358,0 -1.92925345,-0.6430845 -0.5512153,-0.6890191 -0.5512153,-2.4804688 v -25.815249 q 0,-1.837384 0.6890191,-2.618272 0.7349537,-0.826823 2.2967303,-0.826823 H 29.292794 q 0.413411,0 0.780888,0.275607 0.367477,0.275608 0.59715,0.872758 0.275608,0.59715 0.367477,1.607711 0.137804,0.964627 0.137804,2.342665 0,2.756076 -0.505281,3.996311 -0.459346,1.240234 -1.378038,1.240234 H 8.1628751 v 12.723886 q 1.6077112,-0.183738 3.1694879,-0.229673 1.607711,-0.04593 3.353226,-0.04593 4.823134,0 8.543837,1.148365 3.766638,1.10243 6.293041,3.3072914 2.572338,2.1589265 3.904442,5.4202835 1.332103,3.2154224 1.332103,7.4873408 z"
             style="font-style:normal;font-variant:normal;font-weight:bold;font-stretch:normal;font-family:Calibri;-inkscape-font-specification:'Calibri Bold';stroke-width:0.17638889px"
             id="path1276" />
          <path
             d="m 84.000907,2.4191495 q 0,4.5015914 -1.378038,8.3600985 -1.378038,3.812572 -4.042245,6.614583 -2.664207,2.756077 -6.568649,4.363788 -3.904441,1.561776 -9.003183,1.561776 -4.134114,0 -7.211733,-0.964626 -3.077618,-0.918693 -5.328414,-2.664208 -2.250796,-1.791449 -3.674769,-4.317853 -1.423972,-2.526403 -2.29673,-5.6958907 -0.826823,-3.1694879 -1.148365,-6.890191 -0.321542,-3.7207031 -0.321542,-7.9007523 0,-3.4910301 0.321542,-7.303602 0.367477,-3.812573 1.332103,-7.487341 1.010562,-3.674769 2.802011,-6.98206 1.79145,-3.353227 4.593461,-5.833695 2.847946,-2.526404 6.844256,-3.996311 4.042246,-1.469908 9.554399,-1.469908 1.745515,0 3.49103,0.229673 1.791449,0.183739 3.307291,0.505281 1.515842,0.321542 2.572338,0.734954 1.056496,0.413411 1.378038,0.734954 0.367477,0.275607 0.551216,0.643084 0.183738,0.367477 0.275607,0.826823 0.137804,0.413411 0.183739,1.056496 0.04593,0.643084 0.04593,1.561777 0,1.423972 -0.09187,2.388599 -0.04593,0.918692 -0.229673,1.469907 -0.183738,0.505281 -0.505281,0.734954 -0.321542,0.229673 -0.780888,0.229673 -0.551215,0 -1.423973,-0.275607 -0.872757,-0.321543 -2.112992,-0.68902 -1.240234,-0.367476 -2.939814,-0.643084 -1.653646,-0.275608 -3.858507,-0.275608 -3.720703,0 -6.293041,1.378039 -2.572338,1.378038 -4.18005,3.766637 -1.607711,2.342665 -2.342664,5.466218 -0.734954,3.123554 -0.780889,6.614584 1.010562,-0.643085 2.296731,-1.286169 1.332103,-0.643085 2.847945,-1.102431 1.561777,-0.459346 3.353226,-0.734954 1.79145,-0.321542 3.812573,-0.321542 4.501591,0 7.717014,1.240235 3.215422,1.240234 5.236545,3.536964 2.067057,2.2967306 3.031684,5.5580877 0.964626,3.261357 0.964626,7.2576678 z M 72.149779,3.5675146 q 0,-2.3426649 -0.413411,-4.08817995 Q 71.322956,-2.312115 70.404264,-3.5064148 69.485572,-4.7466491 67.96973,-5.343799 q -1.515842,-0.6430845 -3.674769,-0.6430845 -1.286169,0 -2.526403,0.229673 -1.240234,0.2296731 -2.434534,0.6430845 -1.1943,0.4134115 -2.29673,1.0105614 -1.102431,0.5512152 -2.067058,1.1942997 0,4.9150029 0.551216,8.2222946 0.551215,3.261357 1.607711,5.1906103 1.10243,1.929254 2.710142,2.756077 1.653645,0.780888 3.812572,0.780888 2.112992,0 3.674768,-0.780888 1.607712,-0.780889 2.664208,-2.204862 1.056495,-1.4239723 1.607711,-3.3072912 0.551215,-1.9292535 0.551215,-4.1800492 z"
             style="font-style:normal;font-variant:normal;font-weight:bold;font-stretch:normal;font-family:Calibri;-inkscape-font-specification:'Calibri Bold';stroke-width:0.17638889px"
             id="path1278" />
        </g>
      </g>
    </g>
  </g>
</svg>
