<?xml version="1.0" encoding="UTF-8"?>
<!-- 2020-10-26 18:19:04 Generated by QCAD 3.24.2 SVG Exporter PG -->
<svg width="210.25mm" height="210.25mm" viewBox="-105.125 -105.125 210.25 210.25" version="1.1" xmlns="http://www.w3.org/2000/svg" style="stroke-linecap:round;stroke-linejoin:round;fill:none">
    <g transform="scale(1,-1)">
        <!-- Schraffur -->
        <path d="M100,-85.5 L100,85.5 A14.5,14.5 0 0 1 85.5,100 L-85.5,100 A14.5,14.5 0 0 1 -100,85.5 L-100,-85.5 A14.5,14.5 0 0 1 -85.5,-100 L85.5,-100 A14.5,14.5 0 0 1 100,-85.5M-85.5,95 A9.5,9.5 0 0 1 -95,85.5 L-95,-85.5 A9.5,9.5 0 0 1 -85.5,-95 L85.5,-95 A9.5,9.5 0 0 1 95,-85.5 L95,85.5 A9.5,9.5 0 0 1 85.5,95 Z" style="fill:#000000;fill-rule:evenodd;"/>
        <!-- Linie -->
        <line x1="48.7608" y1="15.0421" x2="31.9896" y2="-20" style="stroke:#000000;stroke-width:0.25;"/>
        <!-- Linie -->
        <line x1="31.9896" y1="-20" x2="25.8993" y2="-20" style="stroke:#000000;stroke-width:0.25;"/>
        <!-- Linie -->
        <line x1="25.8993" y1="-20" x2="43.3132" y2="15.0421" style="stroke:#000000;stroke-width:0.25;"/>
        <!-- Linie -->
        <line x1="43.3132" y1="15.0421" x2="21.7065" y2="15.0421" style="stroke:#000000;stroke-width:0.25;"/>
        <!-- Linie -->
        <line x1="21.7065" y1="15.0421" x2="21.7065" y2="20" style="stroke:#000000;stroke-width:0.25;"/>
        <!-- Linie -->
        <line x1="21.7065" y1="20" x2="48.7608" y2="20" style="stroke:#000000;stroke-width:0.25;"/>
        <!-- Linie -->
        <line x1="48.7608" y1="20" x2="48.7608" y2="15.0421" style="stroke:#000000;stroke-width:0.25;"/>
        <!-- Kreisbogen -->
        <path d="M13.5119,-7.2073 A11.4734,11.4734 0 0,0 12.2265,-12.6243" style="stroke:#000000;stroke-width:0.25;"/>
        <!-- Kreisbogen -->
        <path d="M12.2265,-12.6243 A12.933,12.933 0 0,0 8.6917,-16.8324" style="stroke:#000000;stroke-width:0.25;"/>
        <!-- Kreisbogen -->
        <path d="M8.6917,-16.8324 A16.8713,16.8713 0 0,0 3.3818,-19.5715" style="stroke:#000000;stroke-width:0.25;"/>
        <!-- Kreisbogen -->
        <path d="M3.3818,-19.5715 A21.5758,21.5758 0 0,0 -3.2288,-20.5509" style="stroke:#000000;stroke-width:0.25;"/>
        <!-- Kreisbogen -->
        <path d="M-3.2288,-20.5509 A42.9272,42.9272 0 0,0 -5.1415,-20.505" style="stroke:#000000;stroke-width:0.25;"/>
        <!-- Kreisbogen -->
        <path d="M-5.1415,-20.505 A66.0545,66.0545 0 0,0 -7.1767,-20.3826" style="stroke:#000000;stroke-width:0.25;"/>
        <!-- Kreisbogen -->
        <path d="M-7.1767,-20.3826 A102.4834,102.4834 0 0,0 -9.1507,-20.2142" style="stroke:#000000;stroke-width:0.25;"/>
        <!-- Kreisbogen -->
        <path d="M-9.1507,-20.2142 A27.605,27.605 0 0,0 -10.8799,-20" style="stroke:#000000;stroke-width:0.25;"/>
        <!-- Linie -->
        <line x1="-10.8799" y1="-20" x2="-10.8799" y2="-15.1645" style="stroke:#000000;stroke-width:0.25;"/>
        <!-- Kreisbogen -->
        <path d="M-10.8799,-15.1645 A25.7098,25.7098 0 0,1 -7.1002,-15.746" style="stroke:#000000;stroke-width:0.25;"/>
        <!-- Kreisbogen -->
        <path d="M-7.1002,-15.746 A49.9717,49.9717 0 0,1 -2.8003,-15.9296" style="stroke:#000000;stroke-width:0.25;"/>
        <!-- Kreisbogen -->
        <path d="M-2.8003,-15.9296 A15.4722,15.4722 0 0,1 1.6067,-15.3481" style="stroke:#000000;stroke-width:0.25;"/>
        <!-- Kreisbogen -->
        <path d="M1.6067,-15.3481 A9.8464,9.8464 0 0,1 4.9426,-13.6802" style="stroke:#000000;stroke-width:0.25;"/>
        <!-- Kreisbogen -->
        <path d="M4.9426,-13.6802 A7.318,7.318 0 0,1 7.0543,-11.0482" style="stroke:#000000;stroke-width:0.25;"/>
        <!-- Kreisbogen -->
        <path d="M7.0543,-11.0482 A7.9927,7.9927 0 0,1 7.7888,-7.5746" style="stroke:#000000;stroke-width:0.25;"/>
        <!-- Kreisbogen -->
        <path d="M7.7888,-7.5746 A9.0425,9.0425 0 0,1 7.6201,-5.8362" style="stroke:#000000;stroke-width:0.25;"/>
        <!-- Kreisbogen -->
        <path d="M7.6201,-5.8362 A5.9853,5.9853 0 0,1 7.1834,-4.484" style="stroke:#000000;stroke-width:0.25;"/>
        <!-- Kreisbogen -->
        <path d="M7.1834,-4.484 A5.298,5.298 0 0,1 6.3382,-3.1882" style="stroke:#000000;stroke-width:0.25;"/>
        <!-- Kreisbogen -->
        <path d="M6.3382,-3.1882 A5.7559,5.7559 0 0,1 5.1109,-2.1423" style="stroke:#000000;stroke-width:0.25;"/>
        <!-- Kreisbogen -->
        <path d="M5.1109,-2.1423 A8.2058,8.2058 0 0,1 3.5449,-1.3691" style="stroke:#000000;stroke-width:0.25;"/>
        <!-- Kreisbogen -->
        <path d="M3.5449,-1.3691 A13.4855,13.4855 0 0,1 1.3864,-0.7743" style="stroke:#000000;stroke-width:0.25;"/>
        <!-- Kreisbogen -->
        <path d="M1.3864,-0.7743 A17.3563,17.3563 0 0,1 -0.3806,-0.5354" style="stroke:#000000;stroke-width:0.25;"/>
        <!-- Kreisbogen -->
        <path d="M-0.3806,-0.5354 A26.5999,26.5999 0 0,1 -2.5861,-0.4438" style="stroke:#000000;stroke-width:0.25;"/>
        <!-- Linie -->
        <line x1="-2.5861" y1="-0.4438" x2="-10.176" y2="-0.4438" style="stroke:#000000;stroke-width:0.25;"/>
        <!-- Linie -->
        <line x1="-10.176" y1="-0.4438" x2="-10.176" y2="20" style="stroke:#000000;stroke-width:0.25;"/>
        <!-- Linie -->
        <line x1="-10.176" y1="20" x2="11.3695" y2="20" style="stroke:#000000;stroke-width:0.25;"/>
        <!-- Linie -->
        <line x1="11.3695" y1="20" x2="11.3695" y2="15.3481" style="stroke:#000000;stroke-width:0.25;"/>
        <!-- Linie -->
        <line x1="11.3695" y1="15.3481" x2="-5.1568" y2="15.3481" style="stroke:#000000;stroke-width:0.25;"/>
        <!-- Linie -->
        <line x1="-5.1568" y1="15.3481" x2="-5.1568" y2="4.1163" style="stroke:#000000;stroke-width:0.25;"/>
        <!-- Linie -->
        <line x1="-5.1568" y1="4.1163" x2="-1.6679" y2="4.1163" style="stroke:#000000;stroke-width:0.25;"/>
        <!-- Kreisbogen -->
        <path d="M-1.6679,4.1163 A29.7874,29.7874 0 0,0 3.9327,3.596" style="stroke:#000000;stroke-width:0.25;"/>
        <!-- Kreisbogen -->
        <path d="M3.9327,3.596 A14.3813,14.3813 0 0,0 8.7835,1.7751" style="stroke:#000000;stroke-width:0.25;"/>
        <!-- Kreisbogen -->
        <path d="M8.7835,1.7751 A10.0243,10.0243 0 0,0 12.2112,-1.7138" style="stroke:#000000;stroke-width:0.25;"/>
        <!-- Kreisbogen -->
        <path d="M12.2112,-1.7138 A7.9182,7.9182 0 0,0 12.7979,-2.9248" style="stroke:#000000;stroke-width:0.25;"/>
        <!-- Kreisbogen -->
        <path d="M12.7979,-2.9248 A9.9391,9.9391 0 0,0 13.2294,-4.3692" style="stroke:#000000;stroke-width:0.25;"/>
        <!-- Kreisbogen -->
        <path d="M13.2294,-4.3692 A11.4908,11.4908 0 0,0 13.4358,-5.6752" style="stroke:#000000;stroke-width:0.25;"/>
        <!-- Kreisbogen -->
        <path d="M13.4358,-5.6752 A15.4696,15.4696 0 0,0 13.5119,-7.2073" style="stroke:#000000;stroke-width:0.25;"/>
        <!-- Kreisbogen -->
        <path d="M-19.9927,13.1446 A22.6495,22.6495 0 0,1 -24.5833,14.9962" style="stroke:#000000;stroke-width:0.25;"/>
        <!-- Kreisbogen -->
        <path d="M-24.5833,14.9962 A19.068,19.068 0 0,1 -29.7249,15.6542" style="stroke:#000000;stroke-width:0.25;"/>
        <!-- Kreisbogen -->
        <path d="M-29.7249,15.6542 A15.8872,15.8872 0 0,1 -32.8406,15.3457" style="stroke:#000000;stroke-width:0.25;"/>
        <!-- Kreisbogen -->
        <path d="M-32.8406,15.3457 A11.6059,11.6059 0 0,1 -35.3867,14.5218" style="stroke:#000000;stroke-width:0.25;"/>
        <!-- Kreisbogen -->
        <path d="M-35.3867,14.5218 A11.5372,11.5372 0 0,1 -39.5642,11.3236" style="stroke:#000000;stroke-width:0.25;"/>
        <!-- Kreisbogen -->
        <path d="M-39.5642,11.3236 A14.5023,14.5023 0 0,1 -42.1656,6.3504" style="stroke:#000000;stroke-width:0.25;"/>
        <!-- Kreisbogen -->
        <path d="M-42.1656,6.3504 A21.6009,21.6009 0 0,1 -43.0684,-0.0765" style="stroke:#000000;stroke-width:0.25;"/>
        <!-- Kreisbogen -->
        <path d="M-43.0684,-0.0765 A26.9294,26.9294 0 0,1 -42.3339,-6.6565" style="stroke:#000000;stroke-width:0.25;"/>
        <!-- Kreisbogen -->
        <path d="M-42.3339,-6.6565 A13.2638,13.2638 0 0,1 -40.0386,-11.5838" style="stroke:#000000;stroke-width:0.25;"/>
        <!-- Kreisbogen -->
        <path d="M-40.0386,-11.5838 A10.0905,10.0905 0 0,1 -36.0447,-14.6748" style="stroke:#000000;stroke-width:0.25;"/>
        <!-- Kreisbogen -->
        <path d="M-36.0447,-14.6748 A11.2359,11.2359 0 0,1 -33.5477,-15.4423" style="stroke:#000000;stroke-width:0.25;"/>
        <!-- Kreisbogen -->
        <path d="M-33.5477,-15.4423 A18.4458,18.4458 0 0,1 -30.2145,-15.746" style="stroke:#000000;stroke-width:0.25;"/>
        <!-- Kreisbogen -->
        <path d="M-30.2145,-15.746 A13.9138,13.9138 0 0,1 -28.9598,-15.6848" style="stroke:#000000;stroke-width:0.25;"/>
        <!-- Kreisbogen -->
        <path d="M-28.9598,-15.6848 A20.2204,20.2204 0 0,1 -27.6132,-15.5164" style="stroke:#000000;stroke-width:0.25;"/>
        <!-- Kreisbogen -->
        <path d="M-27.6132,-15.5164 A16.2896,16.2896 0 0,1 -26.3125,-15.2563" style="stroke:#000000;stroke-width:0.25;"/>
        <!-- Kreisbogen -->
        <path d="M-26.3125,-15.2563 A9.8388,9.8388 0 0,1 -25.1954,-14.9197" style="stroke:#000000;stroke-width:0.25;"/>
        <!-- Linie -->
        <line x1="-25.1954" y1="-14.9197" x2="-25.1954" y2="-2.1882" style="stroke:#000000;stroke-width:0.25;"/>
        <!-- Linie -->
        <line x1="-25.1954" y1="-2.1882" x2="-33.3668" y2="-2.1882" style="stroke:#000000;stroke-width:0.25;"/>
        <!-- Linie -->
        <line x1="-33.3668" y1="-2.1882" x2="-33.3668" y2="2.3106" style="stroke:#000000;stroke-width:0.25;"/>
        <!-- Linie -->
        <line x1="-33.3668" y1="2.3106" x2="-19.809" y2="2.3106" style="stroke:#000000;stroke-width:0.25;"/>
        <!-- Linie -->
        <line x1="-19.809" y1="2.3106" x2="-19.809" y2="-18.1331" style="stroke:#000000;stroke-width:0.25;"/>
        <!-- Kreisbogen -->
        <path d="M-19.809,-18.1331 A24.6355,24.6355 0 0,0 -22.4563,-19.1737" style="stroke:#000000;stroke-width:0.25;"/>
        <!-- Kreisbogen -->
        <path d="M-22.4563,-19.1737 A26.5569,26.5569 0 0,0 -25.3025,-19.9388" style="stroke:#000000;stroke-width:0.25;"/>
        <!-- Kreisbogen -->
        <path d="M-25.3025,-19.9388 A28.8448,28.8448 0 0,0 -28.1946,-20.3979" style="stroke:#000000;stroke-width:0.25;"/>
        <!-- Kreisbogen -->
        <path d="M-28.1946,-20.3979 A26.3363,26.3363 0 0,0 -30.9796,-20.5509" style="stroke:#000000;stroke-width:0.25;"/>
        <!-- Kreisbogen -->
        <path d="M-30.9796,-20.5509 A23.5517,23.5517 0 0,0 -35.015,-20.2026" style="stroke:#000000;stroke-width:0.25;"/>
        <!-- Kreisbogen -->
        <path d="M-35.015,-20.2026 A17.4255,17.4255 0 0,0 -38.3706,-19.2655" style="stroke:#000000;stroke-width:0.25;"/>
        <!-- Kreisbogen -->
        <path d="M-38.3706,-19.2655 A14.7563,14.7563 0 0,0 -43.9712,-15.4552" style="stroke:#000000;stroke-width:0.25;"/>
        <!-- Kreisbogen -->
        <path d="M-43.9712,-15.4552 A14.829,14.829 0 0,0 -45.9454,-12.7334" style="stroke:#000000;stroke-width:0.25;"/>
        <!-- Kreisbogen -->
        <path d="M-45.9454,-12.7334 A19.9498,19.9498 0 0,0 -47.5213,-9.166" style="stroke:#000000;stroke-width:0.25;"/>
        <!-- Kreisbogen -->
        <path d="M-47.5213,-9.166 A22.2013,22.2013 0 0,0 -48.4142,-5.3461" style="stroke:#000000;stroke-width:0.25;"/>
        <!-- Kreisbogen -->
        <path d="M-48.4142,-5.3461 A34.8444,34.8444 0 0,0 -48.7608,-0.4438" style="stroke:#000000;stroke-width:0.25;"/>
        <!-- Kreisbogen -->
        <path d="M-48.7608,-0.4438 A31.5526,31.5526 0 0,0 -48.3839,4.419" style="stroke:#000000;stroke-width:0.25;"/>
        <!-- Kreisbogen -->
        <path d="M-48.3839,4.419 A22.1966,22.1966 0 0,0 -47.3836,8.3856" style="stroke:#000000;stroke-width:0.25;"/>
        <!-- Kreisbogen -->
        <path d="M-47.3836,8.3856 A21.4324,21.4324 0 0,0 -45.6673,12.0836" style="stroke:#000000;stroke-width:0.25;"/>
        <!-- Kreisbogen -->
        <path d="M-45.6673,12.0836 A16.9282,16.9282 0 0,0 -43.5122,14.9962" style="stroke:#000000;stroke-width:0.25;"/>
        <!-- Kreisbogen -->
        <path d="M-43.5122,14.9962 A16.4621,16.4621 0 0,0 -37.5137,19.1278" style="stroke:#000000;stroke-width:0.25;"/>
        <!-- Kreisbogen -->
        <path d="M-37.5137,19.1278 A20.3542,20.3542 0 0,0 -29.7861,20.5509" style="stroke:#000000;stroke-width:0.25;"/>
        <!-- Kreisbogen -->
        <path d="M-29.7861,20.5509 A26.7503,26.7503 0 0,0 -24.6598,20.0765" style="stroke:#000000;stroke-width:0.25;"/>
        <!-- Kreisbogen -->
        <path d="M-24.6598,20.0765 A20.1416,20.1416 0 0,0 -19.9927,18.5616" style="stroke:#000000;stroke-width:0.25;"/>
        <!-- Linie -->
        <line x1="-19.9927" y1="18.5616" x2="-19.9927" y2="13.1446" style="stroke:#000000;stroke-width:0.25;"/>
        <!-- Schraffur -->
        <path d="M13.4358,-5.6752 A15.4696,15.4696 0 0 0 13.5119,-7.2073 A11.4734,11.4734 0 0 0 12.2265,-12.6243 A12.933,12.933 0 0 0 8.6917,-16.8324 A16.8713,16.8713 0 0 0 3.3818,-19.5715 A21.5758,21.5758 0 0 0 -3.2288,-20.5509 A42.9272,42.9272 0 0 0 -5.1415,-20.505 A66.0545,66.0545 0 0 0 -7.1767,-20.3826 A102.483,102.483 0 0 0 -9.1507,-20.2142 A27.605,27.605 0 0 0 -10.8799,-20 L-10.8799,-15.1645 A25.7098,25.7098 0 0 1 -7.1002,-15.746 A49.9717,49.9717 0 0 1 -2.8003,-15.9296 A15.4722,15.4722 0 0 1 1.6067,-15.3481 A9.84638,9.84638 0 0 1 4.9426,-13.6802 A7.31803,7.31803 0 0 1 7.0543,-11.0482 A7.99269,7.99269 0 0 1 7.7888,-7.5746 A9.04251,9.04251 0 0 1 7.6201,-5.8362 A5.98533,5.98533 0 0 1 7.1834,-4.484 A5.29797,5.29797 0 0 1 6.3382,-3.1882 A5.75588,5.75588 0 0 1 5.1109,-2.1423 A8.20584,8.20584 0 0 1 3.5449,-1.3691 A13.4855,13.4855 0 0 1 1.3864,-0.7743 A17.3563,17.3563 0 0 1 -0.3806,-0.5354 A26.5999,26.5999 0 0 1 -2.5861,-0.4438 L-10.176,-0.4438 L-10.176,20 L11.3695,20 L11.3695,15.3481 L-5.1568,15.3481 L-5.1568,4.1163 L-1.6679,4.1163 A29.7874,29.7874 0 0 0 3.9327,3.596 A14.3813,14.3813 0 0 0 8.7835,1.7751 A10.0243,10.0243 0 0 0 12.2112,-1.7138 A7.91817,7.91817 0 0 0 12.7979,-2.9248 A9.9391,9.9391 0 0 0 13.2294,-4.3692 A11.4908,11.4908 0 0 0 13.4358,-5.6752M48.7608,20 L48.7608,15.0421 L31.9896,-20 L25.8993,-20 L43.3132,15.0421 L21.7065,15.0421 L21.7065,20 ZM-19.9927,18.5616 L-19.9927,13.1446 A22.6495,22.6495 0 0 1 -24.5833,14.9962 A19.068,19.068 0 0 1 -29.7249,15.6542 A15.8872,15.8872 0 0 1 -32.8406,15.3457 A11.6059,11.6059 0 0 1 -35.3867,14.5218 A11.5372,11.5372 0 0 1 -39.5642,11.3236 A14.5023,14.5023 0 0 1 -42.1656,6.3504 A21.6009,21.6009 0 0 1 -43.0684,-0.0765 A26.9294,26.9294 0 0 1 -42.3339,-6.6565 A13.2638,13.2638 0 0 1 -40.0386,-11.5838 A10.0905,10.0905 0 0 1 -36.0447,-14.6748 A11.2359,11.2359 0 0 1 -33.5477,-15.4423 A18.4458,18.4458 0 0 1 -30.2145,-15.746 A13.9138,13.9138 0 0 1 -28.9598,-15.6848 A20.2204,20.2204 0 0 1 -27.6132,-15.5164 A16.2896,16.2896 0 0 1 -26.3125,-15.2563 A9.83877,9.83877 0 0 1 -25.1954,-14.9197 L-25.1954,-2.1882 L-33.3668,-2.1882 L-33.3668,2.3106 L-19.809,2.3106 L-19.809,-18.1331 A24.6355,24.6355 0 0 0 -22.4563,-19.1737 A26.5569,26.5569 0 0 0 -25.3025,-19.9388 A28.8448,28.8448 0 0 0 -28.1946,-20.3979 A26.3363,26.3363 0 0 0 -30.9796,-20.5509 A23.5517,23.5517 0 0 0 -35.015,-20.2026 A17.4255,17.4255 0 0 0 -38.3706,-19.2655 A14.7563,14.7563 0 0 0 -43.9712,-15.4552 A14.829,14.829 0 0 0 -45.9454,-12.7334 A19.9498,19.9498 0 0 0 -47.5213,-9.166 A22.2013,22.2013 0 0 0 -48.4142,-5.3461 A34.8444,34.8444 0 0 0 -48.7608,-0.4438 A31.5526,31.5526 0 0 0 -48.3839,4.419 A22.1966,22.1966 0 0 0 -47.3836,8.3856 A21.4324,21.4324 0 0 0 -45.6673,12.0836 A16.9282,16.9282 0 0 0 -43.5122,14.9962 A16.4621,16.4621 0 0 0 -37.5137,19.1278 A20.3542,20.3542 0 0 0 -29.7861,20.5509 A26.7503,26.7503 0 0 0 -24.6598,20.0765 A20.1416,20.1416 0 0 0 -19.9927,18.5616" style="fill:#000000;fill-rule:evenodd;"/>
    </g>
</svg>
