<?xml version="1.0" encoding="UTF-8"?>
<!-- 2020-10-26 14:47:18 Generated by QCAD 3.24.2 SVG Exporter PG -->
<svg width="212mm" height="212mm" viewBox="-106 -106 212 212" version="1.1" xmlns="http://www.w3.org/2000/svg" style="stroke-linecap:round;stroke-linejoin:round;fill:none">
    <g transform="scale(1,-1)">
        <!-- Schraffur -->
        <path d="M100,-85.5 L100,85.5 A14.5,14.5 0 0 1 85.5,100 L-85.5,100 A14.5,14.5 0 0 1 -100,85.5 L-100,-85.5 A14.5,14.5 0 0 1 -85.5,-100 L85.5,-100 A14.5,14.5 0 0 1 100,-85.5M-85.5,95 A9.5,9.5 0 0 1 -95,85.5 L-95,-85.5 A9.5,9.5 0 0 1 -85.5,-95 L85.5,-95 A9.5,9.5 0 0 1 95,-85.5 L95,85.5 A9.5,9.5 0 0 1 85.5,95 Z" style="fill:#000000;fill-rule:evenodd;"/>
        <!-- Linie -->
        <line x1="0" y1="-60" x2="-50" y2="-60" style="stroke:#000000;stroke-width:2;"/>
        <!-- Linie -->
        <line x1="-50" y1="-60" x2="-50" y2="17.1429" style="stroke:#000000;stroke-width:2;"/>
        <!-- Linie -->
        <line x1="0" y1="-60" x2="50" y2="-60" style="stroke:#000000;stroke-width:2;"/>
        <!-- Linie -->
        <line x1="50" y1="-60" x2="50" y2="17.1429" style="stroke:#000000;stroke-width:2;"/>
        <!-- Linie -->
        <line x1="-10" y1="-60" x2="-10" y2="-20" style="stroke:#000000;stroke-width:2;"/>
        <!-- Linie -->
        <line x1="-10" y1="-20" x2="10" y2="-20" style="stroke:#000000;stroke-width:2;"/>
        <!-- Linie -->
        <line x1="10" y1="-20" x2="10" y2="-60" style="stroke:#000000;stroke-width:2;"/>
        <!-- Linie -->
        <line x1="0" y1="60" x2="-70" y2="0" style="stroke:#000000;stroke-width:2;"/>
        <!-- Linie -->
        <line x1="0" y1="60" x2="70" y2="0" style="stroke:#000000;stroke-width:2;"/>
        <!-- Linie -->
        <line x1="20" y1="42.8571" x2="20" y2="50" style="stroke:#000000;stroke-width:2;"/>
        <!-- Linie -->
        <line x1="20" y1="50" x2="30" y2="50" style="stroke:#000000;stroke-width:2;"/>
        <!-- Linie -->
        <line x1="30" y1="50" x2="30" y2="34.2857" style="stroke:#000000;stroke-width:2;"/>
        <!-- Linie -->
        <line x1="8" y1="-40" x2="5" y2="-40" style="stroke:#000000;stroke-width:2;"/>
    </g>
</svg>
