<?xml version="1.0" encoding="UTF-8"?>
<!-- 2020-10-26 15:31:55 Generated by QCAD 3.24.2 SVG Exporter PG -->
<svg width="210.25mm" height="210.25mm" viewBox="-105.125 -105.125 210.25 210.25" version="1.1" xmlns="http://www.w3.org/2000/svg" style="stroke-linecap:round;stroke-linejoin:round;fill:none">
    <g transform="scale(1,-1)">
        <!-- Schraffur -->
        <path d="M100,-85.5 L100,85.5 A14.5,14.5 0 0 1 85.5,100 L-85.5,100 A14.5,14.5 0 0 1 -100,85.5 L-100,-85.5 A14.5,14.5 0 0 1 -85.5,-100 L85.5,-100 A14.5,14.5 0 0 1 100,-85.5M-85.5,95 A9.5,9.5 0 0 1 -95,85.5 L-95,-85.5 A9.5,9.5 0 0 1 -85.5,-95 L85.5,-95 A9.5,9.5 0 0 1 95,-85.5 L95,85.5 A9.5,9.5 0 0 1 85.5,95 Z" style="fill:#000000;fill-rule:evenodd;"/>
        <!-- Linie -->
        <line x1="-17.4984" y1="5" x2="-22.8236" y2="5" style="stroke:#000000;stroke-width:0.25;"/>
        <!-- Linie -->
        <line x1="-22.8236" y1="5" x2="-23.6193" y2="29.9426" style="stroke:#000000;stroke-width:0.25;"/>
        <!-- Linie -->
        <line x1="-23.6193" y1="29.9426" x2="-23.9559" y2="39.5218" style="stroke:#000000;stroke-width:0.25;"/>
        <!-- Linie -->
        <line x1="-23.9559" y1="39.5218" x2="-25.8228" y2="33.9518" style="stroke:#000000;stroke-width:0.25;"/>
        <!-- Linie -->
        <line x1="-25.8228" y1="33.9518" x2="-31.7295" y2="18.0375" style="stroke:#000000;stroke-width:0.25;"/>
        <!-- Linie -->
        <line x1="-31.7295" y1="18.0375" x2="-35.4938" y2="18.0375" style="stroke:#000000;stroke-width:0.25;"/>
        <!-- Linie -->
        <line x1="-35.4938" y1="18.0375" x2="-41.125" y2="33.3397" style="stroke:#000000;stroke-width:0.25;"/>
        <!-- Linie -->
        <line x1="-41.125" y1="33.3397" x2="-42.9919" y2="39.5218" style="stroke:#000000;stroke-width:0.25;"/>
        <!-- Linie -->
        <line x1="-42.9919" y1="39.5218" x2="-43.1143" y2="29.5142" style="stroke:#000000;stroke-width:0.25;"/>
        <!-- Linie -->
        <line x1="-43.1143" y1="29.5142" x2="-43.8182" y2="5" style="stroke:#000000;stroke-width:0.25;"/>
        <!-- Linie -->
        <line x1="-43.8182" y1="5" x2="-48.9598" y2="5" style="stroke:#000000;stroke-width:0.25;"/>
        <!-- Linie -->
        <line x1="-48.9598" y1="5" x2="-47.0011" y2="45" style="stroke:#000000;stroke-width:0.25;"/>
        <!-- Linie -->
        <line x1="-47.0011" y1="45" x2="-40.5435" y2="45" style="stroke:#000000;stroke-width:0.25;"/>
        <!-- Linie -->
        <line x1="-40.5435" y1="45" x2="-35.1572" y2="29.9426" style="stroke:#000000;stroke-width:0.25;"/>
        <!-- Linie -->
        <line x1="-35.1572" y1="29.9426" x2="-33.4127" y2="24.8623" style="stroke:#000000;stroke-width:0.25;"/>
        <!-- Linie -->
        <line x1="-33.4127" y1="24.8623" x2="-31.7295" y2="29.9426" style="stroke:#000000;stroke-width:0.25;"/>
        <!-- Linie -->
        <line x1="-31.7295" y1="29.9426" x2="-26.0676" y2="45" style="stroke:#000000;stroke-width:0.25;"/>
        <!-- Linie -->
        <line x1="-26.0676" y1="45" x2="-19.4265" y2="45" style="stroke:#000000;stroke-width:0.25;"/>
        <!-- Linie -->
        <line x1="-19.4265" y1="45" x2="-17.4984" y2="5" style="stroke:#000000;stroke-width:0.25;"/>
        <!-- Kreisbogen -->
        <path d="M48.9598,15.834 A12.1804,12.1804 0 0,0 48.6417,13.0685" style="stroke:#000000;stroke-width:0.25;"/>
        <!-- Kreisbogen -->
        <path d="M48.6417,13.0685 A8.8905,8.8905 0 0,0 47.7968,10.8454" style="stroke:#000000;stroke-width:0.25;"/>
        <!-- Kreisbogen -->
        <path d="M47.7968,10.8454 A10.1334,10.1334 0 0,0 44.5527,7.28" style="stroke:#000000;stroke-width:0.25;"/>
        <!-- Kreisbogen -->
        <path d="M44.5527,7.28 A15.0072,15.0072 0 0,0 39.5489,5.153" style="stroke:#000000;stroke-width:0.25;"/>
        <!-- Kreisbogen -->
        <path d="M39.5489,5.153 A27.5176,27.5176 0 0,0 33.1067,4.4491" style="stroke:#000000;stroke-width:0.25;"/>
        <!-- Kreisbogen -->
        <path d="M33.1067,4.4491 A40.8899,40.8899 0 0,0 29.9391,4.5715" style="stroke:#000000;stroke-width:0.25;"/>
        <!-- Kreisbogen -->
        <path d="M29.9391,4.5715 A63.3289,63.3289 0 0,0 26.9093,4.8776" style="stroke:#000000;stroke-width:0.25;"/>
        <!-- Kreisbogen -->
        <path d="M26.9093,4.8776 A44.4109,44.4109 0 0,0 24.1702,5.306" style="stroke:#000000;stroke-width:0.25;"/>
        <!-- Kreisbogen -->
        <path d="M24.1702,5.306 A34.0225,34.0225 0 0,0 21.8442,5.8263" style="stroke:#000000;stroke-width:0.25;"/>
        <!-- Linie -->
        <line x1="21.8442" y1="5.8263" x2="21.8442" y2="11.0903" style="stroke:#000000;stroke-width:0.25;"/>
        <!-- Kreisbogen -->
        <path d="M21.8442,11.0903 A28.5089,28.5089 0 0,1 27.0011,9.7437" style="stroke:#000000;stroke-width:0.25;"/>
        <!-- Kreisbogen -->
        <path d="M27.0011,9.7437 A38.8313,38.8313 0 0,1 33.5045,9.254" style="stroke:#000000;stroke-width:0.25;"/>
        <!-- Kreisbogen -->
        <path d="M33.5045,9.254 A20.905,20.905 0 0,1 37.9881,9.6672" style="stroke:#000000;stroke-width:0.25;"/>
        <!-- Kreisbogen -->
        <path d="M37.9881,9.6672 A8.6293,8.6293 0 0,1 41.0179,10.8914" style="stroke:#000000;stroke-width:0.25;"/>
        <!-- Kreisbogen -->
        <path d="M41.0179,10.8914 A4.8574,4.8574 0 0,1 42.7318,12.8653" style="stroke:#000000;stroke-width:0.25;"/>
        <!-- Kreisbogen -->
        <path d="M42.7318,12.8653 A6.2993,6.2993 0 0,1 43.2673,15.5279" style="stroke:#000000;stroke-width:0.25;"/>
        <!-- Kreisbogen -->
        <path d="M43.2673,15.5279 A4.3427,4.3427 0 0,1 42.3645,18.2976" style="stroke:#000000;stroke-width:0.25;"/>
        <!-- Kreisbogen -->
        <path d="M42.3645,18.2976 A8.9016,8.9016 0 0,1 39.9927,20.3481" style="stroke:#000000;stroke-width:0.25;"/>
        <!-- Kreisbogen -->
        <path d="M39.9927,20.3481 A21.8208,21.8208 0 0,1 36.6415,22.0008" style="stroke:#000000;stroke-width:0.25;"/>
        <!-- Kreisbogen -->
        <path d="M36.6415,22.0008 A610.955,610.955 0 0,0 32.8006,23.5463" style="stroke:#000000;stroke-width:0.25;"/>
        <!-- Kreisbogen -->
        <path d="M32.8006,23.5463 A56.5269,56.5269 0 0,0 28.9598,25.2754" style="stroke:#000000;stroke-width:0.25;"/>
        <!-- Kreisbogen -->
        <path d="M28.9598,25.2754 A15.8811,15.8811 0 0,0 25.6086,27.479" style="stroke:#000000;stroke-width:0.25;"/>
        <!-- Kreisbogen -->
        <path d="M25.6086,27.479 A10.189,10.189 0 0,0 23.2367,30.4629" style="stroke:#000000;stroke-width:0.25;"/>
        <!-- Kreisbogen -->
        <path d="M23.2367,30.4629 A7.1174,7.1174 0 0,0 22.5853,32.2389" style="stroke:#000000;stroke-width:0.25;"/>
        <!-- Kreisbogen -->
        <path d="M22.5853,32.2389 A10.5955,10.5955 0 0,0 22.3339,34.5333" style="stroke:#000000;stroke-width:0.25;"/>
        <!-- Kreisbogen -->
        <path d="M22.3339,34.5333 A10.1248,10.1248 0 0,0 23.1908,38.5731" style="stroke:#000000;stroke-width:0.25;"/>
        <!-- Kreisbogen -->
        <path d="M23.1908,38.5731 A9.6777,9.6777 0 0,0 25.8534,42.1079" style="stroke:#000000;stroke-width:0.25;"/>
        <!-- Kreisbogen -->
        <path d="M25.8534,42.1079 A10.9429,10.9429 0 0,0 27.7849,43.4314" style="stroke:#000000;stroke-width:0.25;"/>
        <!-- Kreisbogen -->
        <path d="M27.7849,43.4314 A17.3415,17.3415 0 0,0 30.49,44.6021" style="stroke:#000000;stroke-width:0.25;"/>
        <!-- Kreisbogen -->
        <path d="M30.49,44.6021 A16.103,16.103 0 0,0 33.3651,45.2799" style="stroke:#000000;stroke-width:0.25;"/>
        <!-- Kreisbogen -->
        <path d="M33.3651,45.2799 A27.8205,27.8205 0 0,0 37.2383,45.5509" style="stroke:#000000;stroke-width:0.25;"/>
        <!-- Kreisbogen -->
        <path d="M37.2383,45.5509 A28.2908,28.2908 0 0,0 39.4265,45.4591" style="stroke:#000000;stroke-width:0.25;"/>
        <!-- Kreisbogen -->
        <path d="M39.4265,45.4591 A39.6389,39.6389 0 0,0 41.8136,45.1989" style="stroke:#000000;stroke-width:0.25;"/>
        <!-- Kreisbogen -->
        <path d="M41.8136,45.1989 A58.2538,58.2538 0 0,0 44.2008,44.8164" style="stroke:#000000;stroke-width:0.25;"/>
        <!-- Kreisbogen -->
        <path d="M44.2008,44.8164 A38.7039,38.7039 0 0,0 46.389,44.3573" style="stroke:#000000;stroke-width:0.25;"/>
        <!-- Linie -->
        <line x1="46.389" y1="44.3573" x2="46.389" y2="39.4606" style="stroke:#000000;stroke-width:0.25;"/>
        <!-- Kreisbogen -->
        <path d="M46.389,39.4606 A37.0821,37.0821 0 0,1 41.6759,40.4858" style="stroke:#000000;stroke-width:0.25;"/>
        <!-- Kreisbogen -->
        <path d="M41.6759,40.4858 A30.8711,30.8711 0 0,1 37.1158,40.8378" style="stroke:#000000;stroke-width:0.25;"/>
        <!-- Kreisbogen -->
        <path d="M37.1158,40.8378 A24.8872,24.8872 0 0,1 35.1107,40.7569" style="stroke:#000000;stroke-width:0.25;"/>
        <!-- Kreisbogen -->
        <path d="M35.1107,40.7569 A15.345,15.345 0 0,1 33.5486,40.5494" style="stroke:#000000;stroke-width:0.25;"/>
        <!-- Kreisbogen -->
        <path d="M33.5486,40.5494 A11.3144,11.3144 0 0,1 31.5613,39.9893" style="stroke:#000000;stroke-width:0.25;"/>
        <!-- Kreisbogen -->
        <path d="M31.5613,39.9893 A6.052,6.052 0 0,1 30.2298,39.277" style="stroke:#000000;stroke-width:0.25;"/>
        <!-- Kreisbogen -->
        <path d="M30.2298,39.277 A6.0439,6.0439 0 0,1 29.2466,38.4055" style="stroke:#000000;stroke-width:0.25;"/>
        <!-- Kreisbogen -->
        <path d="M29.2466,38.4055 A4.6332,4.6332 0 0,1 28.5855,37.464" style="stroke:#000000;stroke-width:0.25;"/>
        <!-- Kreisbogen -->
        <path d="M28.5855,37.464 A4.5483,4.5483 0 0,1 28.1757,36.3728" style="stroke:#000000;stroke-width:0.25;"/>
        <!-- Kreisbogen -->
        <path d="M28.1757,36.3728 A5.6342,5.6342 0 0,1 28.0263,35.0842" style="stroke:#000000;stroke-width:0.25;"/>
        <!-- Kreisbogen -->
        <path d="M28.0263,35.0842 A4.4061,4.4061 0 0,1 28.9292,32.2992" style="stroke:#000000;stroke-width:0.25;"/>
        <!-- Kreisbogen -->
        <path d="M28.9292,32.2992 A8.9847,8.9847 0 0,1 31.301,30.2181" style="stroke:#000000;stroke-width:0.25;"/>
        <!-- Kreisbogen -->
        <path d="M31.301,30.2181 A20.937,20.937 0 0,1 34.6522,28.5501" style="stroke:#000000;stroke-width:0.25;"/>
        <!-- Kreisbogen -->
        <path d="M34.6522,28.5501 A610.955,610.955 0 0,0 38.493,27.0046" style="stroke:#000000;stroke-width:0.25;"/>
        <!-- Kreisbogen -->
        <path d="M38.493,27.0046 A52.0651,52.0651 0 0,0 42.3339,25.2601" style="stroke:#000000;stroke-width:0.25;"/>
        <!-- Kreisbogen -->
        <path d="M42.3339,25.2601 A15.6495,15.6495 0 0,0 45.6851,23.0107" style="stroke:#000000;stroke-width:0.25;"/>
        <!-- Kreisbogen -->
        <path d="M45.6851,23.0107 A10.4453,10.4453 0 0,0 48.0569,19.9656" style="stroke:#000000;stroke-width:0.25;"/>
        <!-- Kreisbogen -->
        <path d="M48.0569,19.9656 A7.3352,7.3352 0 0,0 48.7086,18.16" style="stroke:#000000;stroke-width:0.25;"/>
        <!-- Kreisbogen -->
        <path d="M48.7086,18.16 A10.8956,10.8956 0 0,0 48.9598,15.834" style="stroke:#000000;stroke-width:0.25;"/>
        <!-- Linie -->
        <line x1="16.9549" y1="5" x2="11.6297" y2="5" style="stroke:#000000;stroke-width:0.25;"/>
        <!-- Linie -->
        <line x1="11.6297" y1="5" x2="10.834" y2="29.9426" style="stroke:#000000;stroke-width:0.25;"/>
        <!-- Linie -->
        <line x1="10.834" y1="29.9426" x2="10.4973" y2="39.5218" style="stroke:#000000;stroke-width:0.25;"/>
        <!-- Linie -->
        <line x1="10.4973" y1="39.5218" x2="8.6305" y2="33.9518" style="stroke:#000000;stroke-width:0.25;"/>
        <!-- Linie -->
        <line x1="8.6305" y1="33.9518" x2="2.7238" y2="18.0375" style="stroke:#000000;stroke-width:0.25;"/>
        <!-- Linie -->
        <line x1="2.7238" y1="18.0375" x2="-1.0406" y2="18.0375" style="stroke:#000000;stroke-width:0.25;"/>
        <!-- Linie -->
        <line x1="-1.0406" y1="18.0375" x2="-6.6718" y2="33.3397" style="stroke:#000000;stroke-width:0.25;"/>
        <!-- Linie -->
        <line x1="-6.6718" y1="33.3397" x2="-8.5386" y2="39.5218" style="stroke:#000000;stroke-width:0.25;"/>
        <!-- Linie -->
        <line x1="-8.5386" y1="39.5218" x2="-8.6611" y2="29.5142" style="stroke:#000000;stroke-width:0.25;"/>
        <!-- Linie -->
        <line x1="-8.6611" y1="29.5142" x2="-9.365" y2="5" style="stroke:#000000;stroke-width:0.25;"/>
        <!-- Linie -->
        <line x1="-9.365" y1="5" x2="-14.5065" y2="5" style="stroke:#000000;stroke-width:0.25;"/>
        <!-- Linie -->
        <line x1="-14.5065" y1="5" x2="-12.5478" y2="45" style="stroke:#000000;stroke-width:0.25;"/>
        <!-- Linie -->
        <line x1="-12.5478" y1="45" x2="-6.0903" y2="45" style="stroke:#000000;stroke-width:0.25;"/>
        <!-- Linie -->
        <line x1="-6.0903" y1="45" x2="-0.7039" y2="29.9426" style="stroke:#000000;stroke-width:0.25;"/>
        <!-- Linie -->
        <line x1="-0.7039" y1="29.9426" x2="1.0406" y2="24.8623" style="stroke:#000000;stroke-width:0.25;"/>
        <!-- Linie -->
        <line x1="1.0406" y1="24.8623" x2="2.7238" y2="29.9426" style="stroke:#000000;stroke-width:0.25;"/>
        <!-- Linie -->
        <line x1="2.7238" y1="29.9426" x2="8.3856" y2="45" style="stroke:#000000;stroke-width:0.25;"/>
        <!-- Linie -->
        <line x1="8.3856" y1="45" x2="15.0268" y2="45" style="stroke:#000000;stroke-width:0.25;"/>
        <!-- Linie -->
        <line x1="15.0268" y1="45" x2="16.9549" y2="5" style="stroke:#000000;stroke-width:0.25;"/>
        <!-- Kreisbogen -->
        <path d="M-22.1197,-28.0145 A48.8467,48.8467 0 0,0 -22.1503,-29.912" style="stroke:#000000;stroke-width:0.25;"/>
        <!-- Kreisbogen -->
        <path d="M-22.1503,-29.912 A28.5205,28.5205 0 0,0 -22.2421,-31.3504" style="stroke:#000000;stroke-width:0.25;"/>
        <!-- Linie -->
        <line x1="-22.2421" y1="-31.3504" x2="-43.8182" y2="-31.3504" style="stroke:#000000;stroke-width:0.25;"/>
        <!-- Kreisbogen -->
        <path d="M-43.8182,-31.3504 A15.043,15.043 0 0,1 -43.6618,-33.5138" style="stroke:#000000;stroke-width:0.25;"/>
        <!-- Kreisbogen -->
        <path d="M-43.6618,-33.5138 A10.2422,10.2422 0 0,1 -43.2507,-35.2557" style="stroke:#000000;stroke-width:0.25;"/>
        <!-- Kreisbogen -->
        <path d="M-43.2507,-35.2557 A8.6901,8.6901 0 0,1 -42.3873,-37.1043" style="stroke:#000000;stroke-width:0.25;"/>
        <!-- Kreisbogen -->
        <path d="M-42.3873,-37.1043 A7.6094,7.6094 0 0,1 -41.1862,-38.5884" style="stroke:#000000;stroke-width:0.25;"/>
        <!-- Kreisbogen -->
        <path d="M-41.1862,-38.5884 A7.7245,7.7245 0 0,1 -39.6344,-39.7417" style="stroke:#000000;stroke-width:0.25;"/>
        <!-- Kreisbogen -->
        <path d="M-39.6344,-39.7417 A9.6057,9.6057 0 0,1 -37.6494,-40.5837" style="stroke:#000000;stroke-width:0.25;"/>
        <!-- Kreisbogen -->
        <path d="M-37.6494,-40.5837 A11.624,11.624 0 0,1 -35.8455,-40.9669" style="stroke:#000000;stroke-width:0.25;"/>
        <!-- Kreisbogen -->
        <path d="M-35.8455,-40.9669 A17.363,17.363 0 0,1 -33.5963,-41.1132" style="stroke:#000000;stroke-width:0.25;"/>
        <!-- Kreisbogen -->
        <path d="M-33.5963,-41.1132 A33.951,33.951 0 0,1 -30.9031,-41.0061" style="stroke:#000000;stroke-width:0.25;"/>
        <!-- Kreisbogen -->
        <path d="M-30.9031,-41.0061 A39.7274,39.7274 0 0,1 -28.3018,-40.7154" style="stroke:#000000;stroke-width:0.25;"/>
        <!-- Kreisbogen -->
        <path d="M-28.3018,-40.7154 A46.856,46.856 0 0,1 -25.8993,-40.3022" style="stroke:#000000;stroke-width:0.25;"/>
        <!-- Kreisbogen -->
        <path d="M-25.8993,-40.3022 A28.5772,28.5772 0 0,1 -23.7723,-39.7972" style="stroke:#000000;stroke-width:0.25;"/>
        <!-- Linie -->
        <line x1="-23.7723" y1="-39.7972" x2="-23.7723" y2="-44.1737" style="stroke:#000000;stroke-width:0.25;"/>
        <!-- Kreisbogen -->
        <path d="M-23.7723,-44.1737 A37.1752,37.1752 0 0,0 -28.6843,-45.1683" style="stroke:#000000;stroke-width:0.25;"/>
        <!-- Kreisbogen -->
        <path d="M-28.6843,-45.1683 A41.0157,41.0157 0 0,0 -34.3614,-45.5509" style="stroke:#000000;stroke-width:0.25;"/>
        <!-- Kreisbogen -->
        <path d="M-34.3614,-45.5509 A24.9945,24.9945 0 0,0 -38.2539,-45.2459" style="stroke:#000000;stroke-width:0.25;"/>
        <!-- Kreisbogen -->
        <path d="M-38.2539,-45.2459 A14.7675,14.7675 0 0,0 -41.1556,-44.4797" style="stroke:#000000;stroke-width:0.25;"/>
        <!-- Kreisbogen -->
        <path d="M-41.1556,-44.4797 A11.6288,11.6288 0 0,0 -45.8228,-41.3734" style="stroke:#000000;stroke-width:0.25;"/>
        <!-- Kreisbogen -->
        <path d="M-45.8228,-41.3734 A12.7895,12.7895 0 0,0 -48.516,-36.3849" style="stroke:#000000;stroke-width:0.25;"/>
        <!-- Kreisbogen -->
        <path d="M-48.516,-36.3849 A23.6079,23.6079 0 0,0 -49.3882,-29.6978" style="stroke:#000000;stroke-width:0.25;"/>
        <!-- Kreisbogen -->
        <path d="M-49.3882,-29.6978 A19.8573,19.8573 0 0,0 -48.4548,-23.5616" style="stroke:#000000;stroke-width:0.25;"/>
        <!-- Kreisbogen -->
        <path d="M-48.4548,-23.5616 A15.4037,15.4037 0 0,0 -45.731,-18.4813" style="stroke:#000000;stroke-width:0.25;"/>
        <!-- Kreisbogen -->
        <path d="M-45.731,-18.4813 A13.0936,13.0936 0 0,0 -41.3393,-15.0077" style="stroke:#000000;stroke-width:0.25;"/>
        <!-- Kreisbogen -->
        <path d="M-41.3393,-15.0077 A11.6448,11.6448 0 0,0 -38.6569,-14.069" style="stroke:#000000;stroke-width:0.25;"/>
        <!-- Kreisbogen -->
        <path d="M-38.6569,-14.069 A15.1631,15.1631 0 0,0 -35.4326,-13.7223" style="stroke:#000000;stroke-width:0.25;"/>
        <!-- Kreisbogen -->
        <path d="M-35.4326,-13.7223 A18.0833,18.0833 0 0,0 -32.2736,-14.0003" style="stroke:#000000;stroke-width:0.25;"/>
        <!-- Kreisbogen -->
        <path d="M-32.2736,-14.0003 A12.5042,12.5042 0 0,0 -29.7402,-14.7322" style="stroke:#000000;stroke-width:0.25;"/>
        <!-- Kreisbogen -->
        <path d="M-29.7402,-14.7322 A11.4303,11.4303 0 0,0 -25.5627,-17.5937" style="stroke:#000000;stroke-width:0.25;"/>
        <!-- Kreisbogen -->
        <path d="M-25.5627,-17.5937 A12.2,12.2 0 0,0 -22.9919,-22.0926" style="stroke:#000000;stroke-width:0.25;"/>
        <!-- Kreisbogen -->
        <path d="M-22.9919,-22.0926 A18.8602,18.8602 0 0,0 -22.1197,-28.0145" style="stroke:#000000;stroke-width:0.25;"/>
        <!-- Linie -->
        <line x1="-57.2768" y1="-45" x2="-80.2914" y2="-45" style="stroke:#000000;stroke-width:0.25;"/>
        <!-- Linie -->
        <line x1="-80.2914" y1="-45" x2="-80.2914" y2="-5" style="stroke:#000000;stroke-width:0.25;"/>
        <!-- Linie -->
        <line x1="-80.2914" y1="-5" x2="-74.752" y2="-5" style="stroke:#000000;stroke-width:0.25;"/>
        <!-- Linie -->
        <line x1="-74.752" y1="-5" x2="-74.752" y2="-40.3481" style="stroke:#000000;stroke-width:0.25;"/>
        <!-- Linie -->
        <line x1="-74.752" y1="-40.3481" x2="-57.2768" y2="-40.3481" style="stroke:#000000;stroke-width:0.25;"/>
        <!-- Linie -->
        <line x1="-57.2768" y1="-40.3481" x2="-57.2768" y2="-45" style="stroke:#000000;stroke-width:0.25;"/>
        <!-- Linie -->
        <line x1="-16.4958" y1="-14.2731" x2="-10.4361" y2="-14.2731" style="stroke:#000000;stroke-width:0.25;"/>
        <!-- Linie -->
        <line x1="-10.4361" y1="-14.2731" x2="-2.9074" y2="-34.5945" style="stroke:#000000;stroke-width:0.25;"/>
        <!-- Linie -->
        <line x1="-2.9074" y1="-34.5945" x2="-1.2854" y2="-39.5524" style="stroke:#000000;stroke-width:0.25;"/>
        <!-- Linie -->
        <line x1="-1.2854" y1="-39.5524" x2="0.3979" y2="-34.4721" style="stroke:#000000;stroke-width:0.25;"/>
        <!-- Linie -->
        <line x1="0.3979" y1="-34.4721" x2="7.8653" y2="-14.2731" style="stroke:#000000;stroke-width:0.25;"/>
        <!-- Linie -->
        <line x1="7.8653" y1="-14.2731" x2="13.7108" y2="-14.2731" style="stroke:#000000;stroke-width:0.25;"/>
        <!-- Linie -->
        <line x1="13.7108" y1="-14.2731" x2="1.6526" y2="-45" style="stroke:#000000;stroke-width:0.25;"/>
        <!-- Linie -->
        <line x1="1.6526" y1="-45" x2="-4.4682" y2="-45" style="stroke:#000000;stroke-width:0.25;"/>
        <!-- Linie -->
        <line x1="-4.4682" y1="-45" x2="-16.4958" y2="-14.2731" style="stroke:#000000;stroke-width:0.25;"/>
        <!-- Kreisbogen -->
        <path d="M-27.6591,-27.2494 A11.6089,11.6089 0 0,1 -28.0569,-23.5004" style="stroke:#000000;stroke-width:0.25;"/>
        <!-- Kreisbogen -->
        <path d="M-28.0569,-23.5004 A7.8915,7.8915 0 0,1 -29.5718,-20.5777" style="stroke:#000000;stroke-width:0.25;"/>
        <!-- Kreisbogen -->
        <path d="M-29.5718,-20.5777 A7.0561,7.0561 0 0,1 -32.1273,-18.6649" style="stroke:#000000;stroke-width:0.25;"/>
        <!-- Kreisbogen -->
        <path d="M-32.1273,-18.6649 A8.577,8.577 0 0,1 -35.6774,-17.9763" style="stroke:#000000;stroke-width:0.25;"/>
        <!-- Kreisbogen -->
        <path d="M-35.6774,-17.9763 A7.4149,7.4149 0 0,1 -38.8603,-18.6496" style="stroke:#000000;stroke-width:0.25;"/>
        <!-- Kreisbogen -->
        <path d="M-38.8603,-18.6496 A7.2585,7.2585 0 0,1 -41.3393,-20.5471" style="stroke:#000000;stroke-width:0.25;"/>
        <!-- Kreisbogen -->
        <path d="M-41.3393,-20.5471 A9.8017,9.8017 0 0,1 -43.0225,-23.4851" style="stroke:#000000;stroke-width:0.25;"/>
        <!-- Kreisbogen -->
        <path d="M-43.0225,-23.4851 A13.5462,13.5462 0 0,1 -43.8182,-27.2494" style="stroke:#000000;stroke-width:0.25;"/>
        <!-- Linie -->
        <line x1="-43.8182" y1="-27.2494" x2="-27.6591" y2="-27.2494" style="stroke:#000000;stroke-width:0.25;"/>
        <!-- Kreisbogen -->
        <path d="M41.2474,-27.2494 A11.6089,11.6089 0 0,1 40.8496,-23.5004" style="stroke:#000000;stroke-width:0.25;"/>
        <!-- Kreisbogen -->
        <path d="M40.8496,-23.5004 A7.8915,7.8915 0 0,1 39.3347,-20.5777" style="stroke:#000000;stroke-width:0.25;"/>
        <!-- Kreisbogen -->
        <path d="M39.3347,-20.5777 A7.0561,7.0561 0 0,1 36.7792,-18.6649" style="stroke:#000000;stroke-width:0.25;"/>
        <!-- Kreisbogen -->
        <path d="M36.7792,-18.6649 A8.577,8.577 0 0,1 33.2291,-17.9763" style="stroke:#000000;stroke-width:0.25;"/>
        <!-- Kreisbogen -->
        <path d="M33.2291,-17.9763 A7.4149,7.4149 0 0,1 30.0462,-18.6496" style="stroke:#000000;stroke-width:0.25;"/>
        <!-- Kreisbogen -->
        <path d="M30.0462,-18.6496 A7.2585,7.2585 0 0,1 27.5673,-20.5471" style="stroke:#000000;stroke-width:0.25;"/>
        <!-- Kreisbogen -->
        <path d="M27.5673,-20.5471 A9.8017,9.8017 0 0,1 25.884,-23.4851" style="stroke:#000000;stroke-width:0.25;"/>
        <!-- Kreisbogen -->
        <path d="M25.884,-23.4851 A13.5462,13.5462 0 0,1 25.0883,-27.2494" style="stroke:#000000;stroke-width:0.25;"/>
        <!-- Linie -->
        <line x1="25.0883" y1="-27.2494" x2="41.2474" y2="-27.2494" style="stroke:#000000;stroke-width:0.25;"/>
        <!-- Kreisbogen -->
        <path d="M46.7868,-28.0145 A48.8467,48.8467 0 0,0 46.7562,-29.912" style="stroke:#000000;stroke-width:0.25;"/>
        <!-- Kreisbogen -->
        <path d="M46.7562,-29.912 A28.5205,28.5205 0 0,0 46.6644,-31.3504" style="stroke:#000000;stroke-width:0.25;"/>
        <!-- Linie -->
        <line x1="46.6644" y1="-31.3504" x2="25.0883" y2="-31.3504" style="stroke:#000000;stroke-width:0.25;"/>
        <!-- Kreisbogen -->
        <path d="M25.0883,-31.3504 A15.043,15.043 0 0,1 25.2447,-33.5138" style="stroke:#000000;stroke-width:0.25;"/>
        <!-- Kreisbogen -->
        <path d="M25.2447,-33.5138 A10.2422,10.2422 0 0,1 25.6558,-35.2557" style="stroke:#000000;stroke-width:0.25;"/>
        <!-- Kreisbogen -->
        <path d="M25.6558,-35.2557 A8.6901,8.6901 0 0,1 26.5192,-37.1043" style="stroke:#000000;stroke-width:0.25;"/>
        <!-- Kreisbogen -->
        <path d="M26.5192,-37.1043 A7.6094,7.6094 0 0,1 27.7203,-38.5884" style="stroke:#000000;stroke-width:0.25;"/>
        <!-- Kreisbogen -->
        <path d="M27.7203,-38.5884 A7.7245,7.7245 0 0,1 29.2721,-39.7417" style="stroke:#000000;stroke-width:0.25;"/>
        <!-- Kreisbogen -->
        <path d="M29.2721,-39.7417 A9.6057,9.6057 0 0,1 31.2571,-40.5837" style="stroke:#000000;stroke-width:0.25;"/>
        <!-- Kreisbogen -->
        <path d="M31.2571,-40.5837 A11.624,11.624 0 0,1 33.061,-40.9669" style="stroke:#000000;stroke-width:0.25;"/>
        <!-- Kreisbogen -->
        <path d="M33.061,-40.9669 A17.363,17.363 0 0,1 35.3102,-41.1132" style="stroke:#000000;stroke-width:0.25;"/>
        <!-- Kreisbogen -->
        <path d="M35.3102,-41.1132 A33.951,33.951 0 0,1 38.0034,-41.0061" style="stroke:#000000;stroke-width:0.25;"/>
        <!-- Kreisbogen -->
        <path d="M38.0034,-41.0061 A39.7274,39.7274 0 0,1 40.6047,-40.7154" style="stroke:#000000;stroke-width:0.25;"/>
        <!-- Kreisbogen -->
        <path d="M40.6047,-40.7154 A46.856,46.856 0 0,1 43.0072,-40.3022" style="stroke:#000000;stroke-width:0.25;"/>
        <!-- Kreisbogen -->
        <path d="M43.0072,-40.3022 A28.5772,28.5772 0 0,1 45.1342,-39.7972" style="stroke:#000000;stroke-width:0.25;"/>
        <!-- Linie -->
        <line x1="45.1342" y1="-39.7972" x2="45.1342" y2="-44.1737" style="stroke:#000000;stroke-width:0.25;"/>
        <!-- Kreisbogen -->
        <path d="M45.1342,-44.1737 A37.1752,37.1752 0 0,0 40.2222,-45.1683" style="stroke:#000000;stroke-width:0.25;"/>
        <!-- Kreisbogen -->
        <path d="M40.2222,-45.1683 A41.0157,41.0157 0 0,0 34.5451,-45.5509" style="stroke:#000000;stroke-width:0.25;"/>
        <!-- Kreisbogen -->
        <path d="M34.5451,-45.5509 A24.9945,24.9945 0 0,0 30.6526,-45.2459" style="stroke:#000000;stroke-width:0.25;"/>
        <!-- Kreisbogen -->
        <path d="M30.6526,-45.2459 A14.7675,14.7675 0 0,0 27.7509,-44.4797" style="stroke:#000000;stroke-width:0.25;"/>
        <!-- Kreisbogen -->
        <path d="M27.7509,-44.4797 A11.6288,11.6288 0 0,0 23.0837,-41.3734" style="stroke:#000000;stroke-width:0.25;"/>
        <!-- Kreisbogen -->
        <path d="M23.0837,-41.3734 A12.7895,12.7895 0 0,0 20.3905,-36.3849" style="stroke:#000000;stroke-width:0.25;"/>
        <!-- Kreisbogen -->
        <path d="M20.3905,-36.3849 A23.6079,23.6079 0 0,0 19.5183,-29.6978" style="stroke:#000000;stroke-width:0.25;"/>
        <!-- Kreisbogen -->
        <path d="M19.5183,-29.6978 A19.8573,19.8573 0 0,0 20.4517,-23.5616" style="stroke:#000000;stroke-width:0.25;"/>
        <!-- Kreisbogen -->
        <path d="M20.4517,-23.5616 A15.4037,15.4037 0 0,0 23.1755,-18.4813" style="stroke:#000000;stroke-width:0.25;"/>
        <!-- Kreisbogen -->
        <path d="M23.1755,-18.4813 A13.0936,13.0936 0 0,0 27.5673,-15.0077" style="stroke:#000000;stroke-width:0.25;"/>
        <!-- Kreisbogen -->
        <path d="M27.5673,-15.0077 A11.6448,11.6448 0 0,0 30.2496,-14.069" style="stroke:#000000;stroke-width:0.25;"/>
        <!-- Kreisbogen -->
        <path d="M30.2496,-14.069 A15.1631,15.1631 0 0,0 33.4739,-13.7223" style="stroke:#000000;stroke-width:0.25;"/>
        <!-- Kreisbogen -->
        <path d="M33.4739,-13.7223 A18.0833,18.0833 0 0,0 36.6329,-14.0003" style="stroke:#000000;stroke-width:0.25;"/>
        <!-- Kreisbogen -->
        <path d="M36.6329,-14.0003 A12.5042,12.5042 0 0,0 39.1663,-14.7322" style="stroke:#000000;stroke-width:0.25;"/>
        <!-- Kreisbogen -->
        <path d="M39.1663,-14.7322 A11.4303,11.4303 0 0,0 43.3438,-17.5937" style="stroke:#000000;stroke-width:0.25;"/>
        <!-- Kreisbogen -->
        <path d="M43.3438,-17.5937 A12.2,12.2 0 0,0 45.9146,-22.0926" style="stroke:#000000;stroke-width:0.25;"/>
        <!-- Kreisbogen -->
        <path d="M45.9146,-22.0926 A18.8602,18.8602 0 0,0 46.7868,-28.0145" style="stroke:#000000;stroke-width:0.25;"/>
        <!-- Linie -->
        <line x1="65.7542" y1="-6.1324" x2="56.6647" y2="-6.1324" style="stroke:#000000;stroke-width:0.25;"/>
        <!-- Linie -->
        <line x1="56.6647" y1="-6.1324" x2="56.6647" y2="-1.7559" style="stroke:#000000;stroke-width:0.25;"/>
        <!-- Linie -->
        <line x1="56.6647" y1="-1.7559" x2="71.1406" y2="-1.7559" style="stroke:#000000;stroke-width:0.25;"/>
        <!-- Linie -->
        <line x1="71.1406" y1="-1.7559" x2="71.1406" y2="-40.5624" style="stroke:#000000;stroke-width:0.25;"/>
        <!-- Linie -->
        <line x1="71.1406" y1="-40.5624" x2="80.2914" y2="-40.5624" style="stroke:#000000;stroke-width:0.25;"/>
        <!-- Linie -->
        <line x1="80.2914" y1="-40.5624" x2="80.2914" y2="-45" style="stroke:#000000;stroke-width:0.25;"/>
        <!-- Linie -->
        <line x1="80.2914" y1="-45" x2="55.6548" y2="-45" style="stroke:#000000;stroke-width:0.25;"/>
        <!-- Linie -->
        <line x1="55.6548" y1="-45" x2="55.6548" y2="-40.5624" style="stroke:#000000;stroke-width:0.25;"/>
        <!-- Linie -->
        <line x1="55.6548" y1="-40.5624" x2="65.7542" y2="-40.5624" style="stroke:#000000;stroke-width:0.25;"/>
        <!-- Linie -->
        <line x1="65.7542" y1="-40.5624" x2="65.7542" y2="-6.1324" style="stroke:#000000;stroke-width:0.25;"/>
        <!-- Schraffur -->
        <path d="M30.6526,-45.2459 A14.7675,14.7675 0 0 0 27.7509,-44.4797 A11.6288,11.6288 0 0 0 23.0837,-41.3734 A12.7895,12.7895 0 0 0 20.3905,-36.3849 A23.6079,23.6079 0 0 0 19.5183,-29.6978 A19.8573,19.8573 0 0 0 20.4517,-23.5616 A15.4037,15.4037 0 0 0 23.1755,-18.4813 A13.0936,13.0936 0 0 0 27.5673,-15.0077 A11.6448,11.6448 0 0 0 30.2496,-14.069 A15.1631,15.1631 0 0 0 33.4739,-13.7223 A18.0833,18.0833 0 0 0 36.6329,-14.0003 A12.5042,12.5042 0 0 0 39.1663,-14.7322 A11.4303,11.4303 0 0 0 43.3438,-17.5937 A12.2,12.2 0 0 0 45.9146,-22.0926 A18.8602,18.8602 0 0 0 46.7868,-28.0145 A48.8467,48.8467 0 0 0 46.7562,-29.912 A28.5205,28.5205 0 0 0 46.6644,-31.3504 L25.0883,-31.3504 A15.043,15.043 0 0 1 25.2447,-33.5138 A10.2422,10.2422 0 0 1 25.6558,-35.2557 A8.69008,8.69008 0 0 1 26.5192,-37.1043 A7.60943,7.60943 0 0 1 27.7203,-38.5884 A7.72449,7.72449 0 0 1 29.2721,-39.7417 A9.60574,9.60574 0 0 1 31.2571,-40.5837 A11.624,11.624 0 0 1 33.061,-40.9669 A17.363,17.363 0 0 1 35.3102,-41.1132 A33.951,33.951 0 0 1 38.0034,-41.0061 A39.7274,39.7274 0 0 1 40.6047,-40.7154 A46.856,46.856 0 0 1 43.0072,-40.3022 A28.5772,28.5772 0 0 1 45.1342,-39.7972 L45.1342,-44.1737 A37.1752,37.1752 0 0 0 40.2222,-45.1683 A41.0157,41.0157 0 0 0 34.5451,-45.5509 A24.9945,24.9945 0 0 0 30.6526,-45.2459M33.2291,-17.9763 A7.41493,7.41493 0 0 1 30.0462,-18.6496 A7.25851,7.25851 0 0 1 27.5673,-20.5471 A9.80165,9.80165 0 0 1 25.884,-23.4851 A13.5462,13.5462 0 0 1 25.0883,-27.2494 L41.2474,-27.2494 A11.6089,11.6089 0 0 1 40.8496,-23.5004 A7.89151,7.89151 0 0 1 39.3347,-20.5777 A7.05609,7.05609 0 0 1 36.7792,-18.6649 A8.57698,8.57698 0 0 1 33.2291,-17.9763M-38.8603,-18.6496 A7.25851,7.25851 0 0 1 -41.3393,-20.5471 A9.80165,9.80165 0 0 1 -43.0225,-23.4851 A13.5462,13.5462 0 0 1 -43.8182,-27.2494 L-27.6591,-27.2494 A11.6089,11.6089 0 0 1 -28.0569,-23.5004 A7.89151,7.89151 0 0 1 -29.5718,-20.5777 A7.05609,7.05609 0 0 1 -32.1273,-18.6649 A8.57698,8.57698 0 0 1 -35.6774,-17.9763 A7.41493,7.41493 0 0 1 -38.8603,-18.6496M13.7108,-14.2731 L1.6526,-45 L-4.4682,-45 L-16.4958,-14.2731 L-10.4361,-14.2731 L-2.9074,-34.5945 L-1.2854,-39.5524 L0.3979,-34.4721 L7.8653,-14.2731 ZM-74.752,-40.3481 L-57.2768,-40.3481 L-57.2768,-45 L-80.2914,-45 L-80.2914,-5 L-74.752,-5 ZM-32.2736,-14.0003 A12.5042,12.5042 0 0 0 -29.7402,-14.7322 A11.4303,11.4303 0 0 0 -25.5627,-17.5937 A12.2,12.2 0 0 0 -22.9919,-22.0926 A18.8602,18.8602 0 0 0 -22.1197,-28.0145 A48.8467,48.8467 0 0 0 -22.1503,-29.912 A28.5205,28.5205 0 0 0 -22.2421,-31.3504 L-43.8182,-31.3504 A15.043,15.043 0 0 1 -43.6618,-33.5138 A10.2422,10.2422 0 0 1 -43.2507,-35.2557 A8.69008,8.69008 0 0 1 -42.3873,-37.1043 A7.60943,7.60943 0 0 1 -41.1862,-38.5884 A7.72449,7.72449 0 0 1 -39.6344,-39.7417 A9.60574,9.60574 0 0 1 -37.6494,-40.5837 A11.624,11.624 0 0 1 -35.8455,-40.9669 A17.363,17.363 0 0 1 -33.5963,-41.1132 A33.951,33.951 0 0 1 -30.9031,-41.0061 A39.7274,39.7274 0 0 1 -28.3018,-40.7154 A46.856,46.856 0 0 1 -25.8993,-40.3022 A28.5772,28.5772 0 0 1 -23.7723,-39.7972 L-23.7723,-44.1737 A37.1752,37.1752 0 0 0 -28.6843,-45.1683 A41.0157,41.0157 0 0 0 -34.3614,-45.5509 A24.9945,24.9945 0 0 0 -38.2539,-45.2459 A14.7675,14.7675 0 0 0 -41.1556,-44.4797 A11.6288,11.6288 0 0 0 -45.8228,-41.3734 A12.7895,12.7895 0 0 0 -48.516,-36.3849 A23.6079,23.6079 0 0 0 -49.3882,-29.6978 A19.8573,19.8573 0 0 0 -48.4548,-23.5616 A15.4037,15.4037 0 0 0 -45.731,-18.4813 A13.0936,13.0936 0 0 0 -41.3393,-15.0077 A11.6448,11.6448 0 0 0 -38.6569,-14.069 A15.1631,15.1631 0 0 0 -35.4326,-13.7223 A18.0833,18.0833 0 0 0 -32.2736,-14.0003M-0.7039,29.9426 L1.0406,24.8623 L2.7238,29.9426 L8.3856,45 L15.0268,45 L16.9549,5 L11.6297,5 L10.834,29.9426 L10.4973,39.5218 L8.6305,33.9518 L2.7238,18.0375 L-1.0406,18.0375 L-6.6718,33.3397 L-8.5386,39.5218 L-8.6611,29.5142 L-9.365,5 L-14.5065,5 L-12.5478,45 L-6.0903,45 ZM48.0569,19.9656 A7.33524,7.33524 0 0 0 48.7086,18.16 A10.8956,10.8956 0 0 0 48.9598,15.834 A12.1804,12.1804 0 0 0 48.6417,13.0685 A8.89051,8.89051 0 0 0 47.7968,10.8454 A10.1334,10.1334 0 0 0 44.5527,7.28 A15.0072,15.0072 0 0 0 39.5489,5.153 A27.5176,27.5176 0 0 0 33.1067,4.4491 A40.8899,40.8899 0 0 0 29.9391,4.5715 A63.3289,63.3289 0 0 0 26.9093,4.8776 A44.4109,44.4109 0 0 0 24.1702,5.306 A34.0225,34.0225 0 0 0 21.8442,5.8263 L21.8442,11.0903 A28.5089,28.5089 0 0 1 27.0011,9.7437 A38.8313,38.8313 0 0 1 33.5045,9.254 A20.905,20.905 0 0 1 37.9881,9.6672 A8.62927,8.62927 0 0 1 41.0179,10.8914 A4.85743,4.85743 0 0 1 42.7318,12.8653 A6.29926,6.29926 0 0 1 43.2673,15.5279 A4.34265,4.34265 0 0 1 42.3645,18.2976 A8.90155,8.90155 0 0 1 39.9927,20.3481 A21.8208,21.8208 0 0 1 36.6415,22.0008 A610.955,610.955 0 0 0 32.8006,23.5463 A56.5269,56.5269 0 0 0 28.9598,25.2754 A15.8811,15.8811 0 0 0 25.6086,27.479 A10.189,10.189 0 0 0 23.2367,30.4629 A7.11744,7.11744 0 0 0 22.5853,32.2389 A10.5955,10.5955 0 0 0 22.3339,34.5333 A10.1248,10.1248 0 0 0 23.1908,38.5731 A9.67769,9.67769 0 0 0 25.8534,42.1079 A10.9429,10.9429 0 0 0 27.7849,43.4314 A17.3415,17.3415 0 0 0 30.49,44.6021 A16.103,16.103 0 0 0 33.3651,45.2799 A27.8205,27.8205 0 0 0 37.2383,45.5509 A28.2908,28.2908 0 0 0 39.4265,45.4591 A39.6389,39.6389 0 0 0 41.8136,45.1989 A58.2538,58.2538 0 0 0 44.2008,44.8164 A38.7039,38.7039 0 0 0 46.389,44.3573 L46.389,39.4606 A37.0821,37.0821 0 0 1 41.6759,40.4858 A30.8711,30.8711 0 0 1 37.1158,40.8378 A24.8872,24.8872 0 0 1 35.1107,40.7569 A15.345,15.345 0 0 1 33.5486,40.5494 A11.3144,11.3144 0 0 1 31.5613,39.9893 A6.05196,6.05196 0 0 1 30.2298,39.277 A6.04386,6.04386 0 0 1 29.2466,38.4055 A4.63323,4.63323 0 0 1 28.5855,37.464 A4.54833,4.54833 0 0 1 28.1757,36.3728 A5.63419,5.63419 0 0 1 28.0263,35.0842 A4.40607,4.40607 0 0 1 28.9292,32.2992 A8.98475,8.98475 0 0 1 31.301,30.2181 A20.937,20.937 0 0 1 34.6522,28.5501 A610.955,610.955 0 0 0 38.493,27.0046 A52.0651,52.0651 0 0 0 42.3339,25.2601 A15.6495,15.6495 0 0 0 45.6851,23.0107 A10.4453,10.4453 0 0 0 48.0569,19.9656M55.6548,-45 L55.6548,-40.5624 L65.7542,-40.5624 L65.7542,-6.1324 L56.6647,-6.1324 L56.6647,-1.7559 L71.1406,-1.7559 L71.1406,-40.5624 L80.2914,-40.5624 L80.2914,-45 ZM-19.4265,45 L-17.4984,5 L-22.8236,5 L-23.6193,29.9426 L-23.9559,39.5218 L-25.8228,33.9518 L-31.7295,18.0375 L-35.4938,18.0375 L-41.125,33.3397 L-42.9919,39.5218 L-43.1143,29.5142 L-43.8182,5 L-48.9598,5 L-47.0011,45 L-40.5435,45 L-35.1572,29.9426 L-33.4127,24.8623 L-31.7295,29.9426 L-26.0676,45 Z" style="fill:#000000;fill-rule:evenodd;"/>
    </g>
</svg>
