<?xml version="1.0" encoding="UTF-8"?>
<!-- 2020-10-26 14:46:00 Generated by QCAD 3.24.2 SVG Exporter PG -->
<svg width="212mm" height="212mm" viewBox="-106 -106 212 212" version="1.1" xmlns="http://www.w3.org/2000/svg" style="stroke-linecap:round;stroke-linejoin:round;fill:none">
    <g transform="scale(1,-1)">
        <!-- Schraffur -->
        <path d="M100,-85.5 L100,85.5 A14.5,14.5 0 0 1 85.5,100 L-85.5,100 A14.5,14.5 0 0 1 -100,85.5 L-100,-85.5 A14.5,14.5 0 0 1 -85.5,-100 L85.5,-100 A14.5,14.5 0 0 1 100,-85.5M-85.5,95 A9.5,9.5 0 0 1 -95,85.5 L-95,-85.5 A9.5,9.5 0 0 1 -85.5,-95 L85.5,-95 A9.5,9.5 0 0 1 95,-85.5 L95,85.5 A9.5,9.5 0 0 1 85.5,95 Z" style="fill:#000000;fill-rule:evenodd;"/>
        <!-- Kreisbogen -->
        <path d="M-80.4,-21.6508 A1.6,1.6 0 1,1 -79.6,-21.6508" style="stroke:#000000;stroke-width:2;"/>
        <!-- Linie -->
        <line x1="-80.4" y1="-21.6508" x2="-80.4" y2="-7.2" style="stroke:#000000;stroke-width:2;"/>
        <!-- Linie -->
        <line x1="-80.4" y1="-7.2" x2="-82.4" y2="8.8" style="stroke:#000000;stroke-width:2;"/>
        <!-- Linie -->
        <line x1="-82.4" y1="8.8" x2="-82.4" y2="24.8" style="stroke:#000000;stroke-width:2;"/>
        <!-- Linie -->
        <line x1="-82.4" y1="24.8" x2="-77.6" y2="24.8" style="stroke:#000000;stroke-width:2;"/>
        <!-- Linie -->
        <line x1="-77.6" y1="24.8" x2="-77.6" y2="8.8" style="stroke:#000000;stroke-width:2;"/>
        <!-- Linie -->
        <line x1="-77.6" y1="8.8" x2="-79.6" y2="-7.2" style="stroke:#000000;stroke-width:2;"/>
        <!-- Linie -->
        <line x1="-79.6" y1="-7.2" x2="-79.6" y2="-21.6508" style="stroke:#000000;stroke-width:2;"/>
        <!-- Schraffur -->
        <path d="M-82.4,24.8 L-77.6,24.8 L-77.6,8.8 L-79.6,-7.2 L-79.6,-21.6508 A1.6,1.6 0 1 0 -80.4,-21.6508 L-80.4,-7.2 L-82.4,8.8 Z" style="fill:#000000;fill-rule:evenodd;"/>
        <!-- Linie -->
        <line x1="80" y1="-36" x2="40" y2="44" style="stroke:#000000;stroke-width:2;"/>
        <!-- Linie -->
        <line x1="-40" y1="44" x2="-80" y2="-36" style="stroke:#000000;stroke-width:2;"/>
        <!-- Linie -->
        <line x1="-80" y1="-36" x2="-80" y2="-44" style="stroke:#000000;stroke-width:2;"/>
        <!-- Linie -->
        <line x1="-80" y1="-44" x2="80" y2="-44" style="stroke:#000000;stroke-width:2;"/>
        <!-- Linie -->
        <line x1="80" y1="-44" x2="80" y2="-36" style="stroke:#000000;stroke-width:2;"/>
        <!-- Linie -->
        <line x1="-40" y1="44" x2="40" y2="44" style="stroke:#000000;stroke-width:2;"/>
        <!-- Linie -->
        <line x1="-80" y1="-36" x2="80" y2="-36" style="stroke:#000000;stroke-width:2;"/>
    </g>
</svg>
