<?xml version="1.0" encoding="UTF-8"?>
<!-- 2020-10-26 14:45:31 Generated by QCAD 3.24.2 SVG Exporter PG -->
<svg width="212mm" height="212mm" viewBox="-106 -106 212 212" version="1.1" xmlns="http://www.w3.org/2000/svg" style="stroke-linecap:round;stroke-linejoin:round;fill:none">
    <g transform="scale(1,-1)">
        <!-- Schraffur -->
        <path d="M100,-85.5 L100,85.5 A14.5,14.5 0 0 1 85.5,100 L-85.5,100 A14.5,14.5 0 0 1 -100,85.5 L-100,-85.5 A14.5,14.5 0 0 1 -85.5,-100 L85.5,-100 A14.5,14.5 0 0 1 100,-85.5M-85.5,95 A9.5,9.5 0 0 1 -95,85.5 L-95,-85.5 A9.5,9.5 0 0 1 -85.5,-95 L85.5,-95 A9.5,9.5 0 0 1 95,-85.5 L95,85.5 A9.5,9.5 0 0 1 85.5,95 Z" style="fill:#000000;fill-rule:evenodd;"/>
        <!-- Kreisbogen -->
        <path d="M-0.4,22.3492 A1.6,1.6 0 1,1 0.4,22.3492" style="stroke:#000000;stroke-width:2;"/>
        <!-- Linie -->
        <line x1="-0.4" y1="22.3492" x2="-0.4" y2="36.8" style="stroke:#000000;stroke-width:2;"/>
        <!-- Linie -->
        <line x1="-0.4" y1="36.8" x2="-2.4" y2="52.8" style="stroke:#000000;stroke-width:2;"/>
        <!-- Linie -->
        <line x1="-2.4" y1="52.8" x2="-2.4" y2="68.8" style="stroke:#000000;stroke-width:2;"/>
        <!-- Linie -->
        <line x1="-2.4" y1="68.8" x2="2.4" y2="68.8" style="stroke:#000000;stroke-width:2;"/>
        <!-- Linie -->
        <line x1="2.4" y1="68.8" x2="2.4" y2="52.8" style="stroke:#000000;stroke-width:2;"/>
        <!-- Linie -->
        <line x1="2.4" y1="52.8" x2="0.4" y2="36.8" style="stroke:#000000;stroke-width:2;"/>
        <!-- Linie -->
        <line x1="0.4" y1="36.8" x2="0.4" y2="22.3492" style="stroke:#000000;stroke-width:2;"/>
        <!-- Schraffur -->
        <path d="M-2.4,68.8 L2.4,68.8 L2.4,52.8 L0.4,36.8 L0.4,22.3492 A1.6,1.6 0 1 0 -0.4,22.3492 L-0.4,36.8 L-2.4,52.8 Z" style="fill:#000000;fill-rule:evenodd;"/>
        <!-- Linie -->
        <line x1="80" y1="-36" x2="40" y2="44" style="stroke:#000000;stroke-width:2;"/>
        <!-- Linie -->
        <line x1="-40" y1="44" x2="-80" y2="-36" style="stroke:#000000;stroke-width:2;"/>
        <!-- Linie -->
        <line x1="-80" y1="-36" x2="-80" y2="-44" style="stroke:#000000;stroke-width:2;"/>
        <!-- Linie -->
        <line x1="-80" y1="-44" x2="80" y2="-44" style="stroke:#000000;stroke-width:2;"/>
        <!-- Linie -->
        <line x1="80" y1="-44" x2="80" y2="-36" style="stroke:#000000;stroke-width:2;"/>
        <!-- Linie -->
        <line x1="-40" y1="44" x2="40" y2="44" style="stroke:#000000;stroke-width:2;"/>
        <!-- Linie -->
        <line x1="-80" y1="-36" x2="80" y2="-36" style="stroke:#000000;stroke-width:2;"/>
        <!-- Kreisbogen -->
        <path d="M31.9998,12.0001 A8.1617,8.1617 0 0,1 31.5687,14.6175" style="stroke:#000000;stroke-width:2;"/>
        <!-- Kreisbogen -->
        <path d="M31.5687,14.6175 A8.7627,8.7627 0 0,1 31.0311,15.9072" style="stroke:#000000;stroke-width:2;"/>
        <!-- Kreisbogen -->
        <path d="M31.0311,15.9072 A10.2322,10.2322 0 0,1 30.3375,17.0899" style="stroke:#000000;stroke-width:2;"/>
        <!-- Kreisbogen -->
        <path d="M30.3375,17.0899 A11.965,11.965 0 0,1 29.4008,18.3164" style="stroke:#000000;stroke-width:2;"/>
        <!-- Kreisbogen -->
        <path d="M29.4008,18.3164 A14.3822,14.3822 0 0,1 28.0489,19.7016" style="stroke:#000000;stroke-width:2;"/>
        <!-- Kreisbogen -->
        <path d="M28.0489,19.7016 A18.0472,18.0472 0 0,1 25.8793,21.4109" style="stroke:#000000;stroke-width:2;"/>
        <!-- Kreisbogen -->
        <path d="M25.8793,21.4109 A24.3991,24.3991 0 0,1 21.6196,23.7962" style="stroke:#000000;stroke-width:2;"/>
        <!-- Kreisbogen -->
        <path d="M21.6196,23.7962 A57.6941,57.6941 0 0,1 -0.0002,28.0001" style="stroke:#000000;stroke-width:2;"/>
        <!-- Kreisbogen -->
        <path d="M-0.0002,28.0001 A57.6941,57.6941 0 0,1 -21.6199,23.7962" style="stroke:#000000;stroke-width:2;"/>
        <!-- Kreisbogen -->
        <path d="M-21.6199,23.7962 A24.3991,24.3991 0 0,1 -25.8797,21.4109" style="stroke:#000000;stroke-width:2;"/>
        <!-- Kreisbogen -->
        <path d="M-25.8797,21.4109 A18.0472,18.0472 0 0,1 -28.0492,19.7016" style="stroke:#000000;stroke-width:2;"/>
        <!-- Kreisbogen -->
        <path d="M-28.0492,19.7016 A14.3822,14.3822 0 0,1 -29.4012,18.3164" style="stroke:#000000;stroke-width:2;"/>
        <!-- Kreisbogen -->
        <path d="M-29.4012,18.3164 A11.965,11.965 0 0,1 -30.3379,17.0899" style="stroke:#000000;stroke-width:2;"/>
        <!-- Kreisbogen -->
        <path d="M-30.3379,17.0899 A10.2322,10.2322 0 0,1 -31.0314,15.9072" style="stroke:#000000;stroke-width:2;"/>
        <!-- Kreisbogen -->
        <path d="M-31.0314,15.9072 A8.7627,8.7627 0 0,1 -31.5691,14.6175" style="stroke:#000000;stroke-width:2;"/>
        <!-- Kreisbogen -->
        <path d="M-31.5691,14.6175 A8.1617,8.1617 0 0,1 -32.0002,12.0001" style="stroke:#000000;stroke-width:2;"/>
        <!-- Kreisbogen -->
        <path d="M-32.0002,12.0001 A8.1617,8.1617 0 0,1 -31.5691,9.3827" style="stroke:#000000;stroke-width:2;"/>
        <!-- Kreisbogen -->
        <path d="M-31.5691,9.3827 A8.7627,8.7627 0 0,1 -31.0314,8.093" style="stroke:#000000;stroke-width:2;"/>
        <!-- Kreisbogen -->
        <path d="M-31.0314,8.093 A10.2322,10.2322 0 0,1 -30.3379,6.9103" style="stroke:#000000;stroke-width:2;"/>
        <!-- Kreisbogen -->
        <path d="M-30.3379,6.9103 A11.965,11.965 0 0,1 -29.4012,5.6838" style="stroke:#000000;stroke-width:2;"/>
        <!-- Kreisbogen -->
        <path d="M-29.4012,5.6838 A14.3822,14.3822 0 0,1 -28.0492,4.2986" style="stroke:#000000;stroke-width:2;"/>
        <!-- Kreisbogen -->
        <path d="M-28.0492,4.2986 A18.0472,18.0472 0 0,1 -25.8797,2.5893" style="stroke:#000000;stroke-width:2;"/>
        <!-- Kreisbogen -->
        <path d="M-25.8797,2.5893 A24.3991,24.3991 0 0,1 -21.6199,0.2041" style="stroke:#000000;stroke-width:2;"/>
        <!-- Kreisbogen -->
        <path d="M-21.6199,0.2041 A57.6941,57.6941 0 0,1 -0.0002,-3.9999" style="stroke:#000000;stroke-width:2;"/>
        <!-- Kreisbogen -->
        <path d="M-0.0002,-3.9999 A57.6941,57.6941 0 0,1 21.6196,0.2041" style="stroke:#000000;stroke-width:2;"/>
        <!-- Kreisbogen -->
        <path d="M21.6196,0.2041 A24.3991,24.3991 0 0,1 25.8793,2.5893" style="stroke:#000000;stroke-width:2;"/>
        <!-- Kreisbogen -->
        <path d="M25.8793,2.5893 A18.0472,18.0472 0 0,1 28.0489,4.2986" style="stroke:#000000;stroke-width:2;"/>
        <!-- Kreisbogen -->
        <path d="M28.0489,4.2986 A14.3822,14.3822 0 0,1 29.4008,5.6838" style="stroke:#000000;stroke-width:2;"/>
        <!-- Kreisbogen -->
        <path d="M29.4008,5.6838 A11.965,11.965 0 0,1 30.3375,6.9103" style="stroke:#000000;stroke-width:2;"/>
        <!-- Kreisbogen -->
        <path d="M30.3375,6.9103 A10.2322,10.2322 0 0,1 31.0311,8.093" style="stroke:#000000;stroke-width:2;"/>
        <!-- Kreisbogen -->
        <path d="M31.0311,8.093 A8.7627,8.7627 0 0,1 31.5687,9.3827" style="stroke:#000000;stroke-width:2;"/>
        <!-- Kreisbogen -->
        <path d="M31.5687,9.3827 A8.1617,8.1617 0 0,1 31.9998,12.0001" style="stroke:#000000;stroke-width:2;"/>
        <!-- Kreisbogen -->
        <path d="M-32,4.0122 A8.1617,8.1617 0 0,1 -32,4" style="stroke:#000000;stroke-width:2;"/>
        <!-- Kreisbogen -->
        <path d="M-32,4 A8.1617,8.1617 0 0,1 -31.5689,1.3826" style="stroke:#000000;stroke-width:2;"/>
        <!-- Kreisbogen -->
        <path d="M-31.5689,1.3826 A8.7627,8.7627 0 0,1 -31.0313,0.0929" style="stroke:#000000;stroke-width:2;"/>
        <!-- Kreisbogen -->
        <path d="M-31.0313,0.0929 A10.2322,10.2322 0 0,1 -30.3377,-1.0898" style="stroke:#000000;stroke-width:2;"/>
        <!-- Kreisbogen -->
        <path d="M-30.3377,-1.0898 A11.965,11.965 0 0,1 -29.401,-2.3163" style="stroke:#000000;stroke-width:2;"/>
        <!-- Kreisbogen -->
        <path d="M-29.401,-2.3163 A14.3822,14.3822 0 0,1 -28.049,-3.7015" style="stroke:#000000;stroke-width:2;"/>
        <!-- Kreisbogen -->
        <path d="M-28.049,-3.7015 A18.0472,18.0472 0 0,1 -25.8795,-5.4108" style="stroke:#000000;stroke-width:2;"/>
        <!-- Kreisbogen -->
        <path d="M-25.8795,-5.4108 A24.3991,24.3991 0 0,1 -21.6197,-7.796" style="stroke:#000000;stroke-width:2;"/>
        <!-- Kreisbogen -->
        <path d="M-21.6197,-7.796 A57.6941,57.6941 0 0,1 0,-12" style="stroke:#000000;stroke-width:2;"/>
        <!-- Kreisbogen -->
        <path d="M0,-12 A57.6941,57.6941 0 0,1 21.6197,-7.796" style="stroke:#000000;stroke-width:2;"/>
        <!-- Kreisbogen -->
        <path d="M21.6197,-7.796 A24.3991,24.3991 0 0,1 25.8795,-5.4108" style="stroke:#000000;stroke-width:2;"/>
        <!-- Kreisbogen -->
        <path d="M25.8795,-5.4108 A18.0472,18.0472 0 0,1 28.049,-3.7015" style="stroke:#000000;stroke-width:2;"/>
        <!-- Kreisbogen -->
        <path d="M28.049,-3.7015 A14.3822,14.3822 0 0,1 29.401,-2.3163" style="stroke:#000000;stroke-width:2;"/>
        <!-- Kreisbogen -->
        <path d="M29.401,-2.3163 A11.965,11.965 0 0,1 30.3377,-1.0898" style="stroke:#000000;stroke-width:2;"/>
        <!-- Kreisbogen -->
        <path d="M30.3377,-1.0898 A10.2322,10.2322 0 0,1 31.0313,0.0929" style="stroke:#000000;stroke-width:2;"/>
        <!-- Kreisbogen -->
        <path d="M31.0313,0.0929 A8.7627,8.7627 0 0,1 31.5689,1.3826" style="stroke:#000000;stroke-width:2;"/>
        <!-- Kreisbogen -->
        <path d="M31.5689,1.3826 A8.1617,8.1617 0 0,1 32,4" style="stroke:#000000;stroke-width:2;"/>
        <!-- Kreisbogen -->
        <path d="M32,4 A8.1617,8.1617 0 0,1 32,4.0002" style="stroke:#000000;stroke-width:2;"/>
        <!-- Linie -->
        <line x1="-31.9885" y1="11.5679" x2="-32" y2="4.0122" style="stroke:#000000;stroke-width:2;"/>
        <!-- Linie -->
        <line x1="31.9998" y1="12.0001" x2="32" y2="4.0002" style="stroke:#000000;stroke-width:2;"/>
    </g>
</svg>
