<?xml version="1.0" encoding="UTF-8" standalone="no"?>
<svg
   xmlns:dc="http://purl.org/dc/elements/1.1/"
   xmlns:cc="http://creativecommons.org/ns#"
   xmlns:rdf="http://www.w3.org/1999/02/22-rdf-syntax-ns#"
   xmlns:svg="http://www.w3.org/2000/svg"
   xmlns="http://www.w3.org/2000/svg"
   xmlns:sodipodi="http://sodipodi.sourceforge.net/DTD/sodipodi-0.dtd"
   xmlns:inkscape="http://www.inkscape.org/namespaces/inkscape"
   width="212.11mm"
   height="212.11mm"
   viewBox="-106.055 -106.055 212.11 212.11"
   version="1.1"
   style="stroke-linecap:round;stroke-linejoin:round;fill:none"
   id="svg80"
   sodipodi:docname="probe_short.svg"
   inkscape:version="1.0.1 (3bc2e813f5, 2020-09-07)">
  <metadata
     id="metadata86">
    <rdf:RDF>
      <cc:Work
         rdf:about="">
        <dc:format>image/svg+xml</dc:format>
        <dc:type
           rdf:resource="http://purl.org/dc/dcmitype/StillImage" />
        <dc:title></dc:title>
      </cc:Work>
    </rdf:RDF>
  </metadata>
  <defs
     id="defs84" />
  <sodipodi:namedview
     pagecolor="#ffffff"
     bordercolor="#666666"
     borderopacity="1"
     objecttolerance="10"
     gridtolerance="10"
     guidetolerance="10"
     inkscape:pageopacity="0"
     inkscape:pageshadow="2"
     inkscape:window-width="1920"
     inkscape:window-height="1025"
     id="namedview82"
     showgrid="false"
     inkscape:zoom="1.0615266"
     inkscape:cx="400.8378"
     inkscape:cy="400.8378"
     inkscape:window-x="-8"
     inkscape:window-y="-8"
     inkscape:window-maximized="1"
     inkscape:current-layer="svg80" />
  <g
     transform="scale(1,-1)"
     id="g78">
    <!-- Kreisbogen -->
    <path
       d="M-0.4,-62.6508 A1.6,1.6 0 1,1 0.4,-62.6508"
       style="stroke:#000000;stroke-width:2;"
       id="path10" />
    <!-- Linie -->
    <line
       x1="-0.4"
       y1="-62.6508"
       x2="-0.4"
       y2="-48.2"
       style="stroke:#000000;stroke-width:2;"
       id="line12" />
    <!-- Linie -->
    <line
       x1="-0.4"
       y1="-48.2"
       x2="-2.4"
       y2="-32.2"
       style="stroke:#000000;stroke-width:2;"
       id="line14" />
    <!-- Linie -->
    <line
       x1="-2.4"
       y1="-32.2"
       x2="-2.4"
       y2="-16.2"
       style="stroke:#000000;stroke-width:2;"
       id="line16" />
    <!-- Linie -->
    <line
       x1="-2.4"
       y1="-16.2"
       x2="2.4"
       y2="-16.2"
       style="stroke:#000000;stroke-width:2;"
       id="line18" />
    <!-- Linie -->
    <line
       x1="2.4"
       y1="-16.2"
       x2="2.4"
       y2="-32.2"
       style="stroke:#000000;stroke-width:2;"
       id="line20" />
    <!-- Linie -->
    <line
       x1="2.4"
       y1="-32.2"
       x2="0.4"
       y2="-48.2"
       style="stroke:#000000;stroke-width:2;"
       id="line22" />
    <!-- Linie -->
    <line
       x1="0.4"
       y1="-48.2"
       x2="0.4"
       y2="-62.6508"
       style="stroke:#000000;stroke-width:2;"
       id="line24" />
    <!-- Schraffur -->
    <path
       d="M-2.4,-16.2 L2.4,-16.2 L2.4,-32.2 L0.4,-48.2 L0.4,-62.6508 A1.6,1.6 0 1 0 -0.4,-62.6508 L-0.4,-48.2 L-2.4,-32.2 Z"
       style="fill:#000000;fill-rule:evenodd;"
       id="path26" />
    <!-- Schraffur -->
    <path
       d="M100,-85.5 L100,85.5 A14.5,14.5 0 0 1 85.5,100 L-85.5,100 A14.5,14.5 0 0 1 -100,85.5 L-100,-85.5 A14.5,14.5 0 0 1 -85.5,-100 L85.5,-100 A14.5,14.5 0 0 1 100,-85.5M-85.5,95 A9.5,9.5 0 0 1 -95,85.5 L-95,-85.5 A9.5,9.5 0 0 1 -85.5,-95 L85.5,-95 A9.5,9.5 0 0 1 95,-85.5 L95,85.5 A9.5,9.5 0 0 1 85.5,95 Z"
       style="fill:#000000;fill-rule:evenodd;"
       id="path28" />
    <!-- Linie -->
    <line
       x1="-18.75"
       y1="37.5"
       x2="18.75"
       y2="37.5"
       style="stroke:#000000;stroke-width:2;"
       id="line30" />
    <!-- Linie -->
    <line
       x1="-33.75"
       y1="52.5"
       x2="-33.75"
       y2="58.6875"
       style="stroke:#000000;stroke-width:2;"
       id="line32" />
    <!-- Kreisbogen -->
    <path
       d="M-33.75,58.6875 A1.3125,1.3125 0 0,0 -32.4375,60"
       style="stroke:#000000;stroke-width:2;"
       id="path34" />
    <!-- Linie -->
    <line
       x1="-32.4375"
       y1="60"
       x2="32.4375"
       y2="60"
       style="stroke:#000000;stroke-width:2;"
       id="line36" />
    <!-- Kreisbogen -->
    <path
       d="M32.4375,60 A1.3125,1.3125 0 0,0 33.75,58.6875"
       style="stroke:#000000;stroke-width:2;"
       id="path38" />
    <!-- Linie -->
    <line
       x1="33.75"
       y1="58.6875"
       x2="33.75"
       y2="52.5"
       style="stroke:#000000;stroke-width:2;"
       id="line40" />
    <!-- Linie -->
    <line
       x1="33.75"
       y1="45"
       x2="33.75"
       y2="38.8125"
       style="stroke:#000000;stroke-width:2;"
       id="line42" />
    <!-- Kreisbogen -->
    <path
       d="M33.75,38.8125 A1.3125,1.3125 0 0,0 32.4375,37.5"
       style="stroke:#000000;stroke-width:2;"
       id="path44" />
    <!-- Linie -->
    <line
       x1="32.4375"
       y1="37.5"
       x2="-32.4375"
       y2="37.5"
       style="stroke:#000000;stroke-width:2;"
       id="line46" />
    <!-- Kreisbogen -->
    <path
       d="M-32.4375,37.5 A1.3125,1.3125 0 0,0 -33.75,38.8125"
       style="stroke:#000000;stroke-width:2;"
       id="path48" />
    <!-- Linie -->
    <line
       x1="-33.75"
       y1="38.8125"
       x2="-33.75"
       y2="45"
       style="stroke:#000000;stroke-width:2;"
       id="line50" />
    <!-- Linie -->
    <line
       x1="-33.75"
       y1="52.5"
       x2="-30"
       y2="52.5"
       style="stroke:#000000;stroke-width:2;"
       id="line52" />
    <!-- Linie -->
    <line
       x1="-30"
       y1="52.5"
       x2="-30"
       y2="45"
       style="stroke:#000000;stroke-width:2;"
       id="line54" />
    <!-- Linie -->
    <line
       x1="-30"
       y1="45"
       x2="-33.75"
       y2="45"
       style="stroke:#000000;stroke-width:2;"
       id="line56" />
    <!-- Linie -->
    <line
       x1="33.75"
       y1="52.5"
       x2="30"
       y2="52.5"
       style="stroke:#000000;stroke-width:2;"
       id="line58" />
    <!-- Linie -->
    <line
       x1="30"
       y1="52.5"
       x2="30"
       y2="45"
       style="stroke:#000000;stroke-width:2;"
       id="line60" />
    <!-- Linie -->
    <line
       x1="30"
       y1="45"
       x2="33.75"
       y2="45"
       style="stroke:#000000;stroke-width:2;"
       id="line62" />
    <!-- Linie -->
    <line
       x1="-30"
       y1="52.5"
       x2="30"
       y2="52.5"
       style="stroke:#000000;stroke-width:2;"
       id="line64" />
    <!-- Linie -->
    <line
       x1="30"
       y1="45"
       x2="-30"
       y2="45"
       style="stroke:#000000;stroke-width:2;"
       id="line66" />
    <!-- Linie -->
    <line
       x1="-25"
       y1="37.5"
       x2="-25"
       y2="-14"
       style="stroke:#000000;stroke-width:2;"
       id="line68" />
    <!-- Linie -->
    <line
       x1="-25"
       y1="-14"
       x2="25"
       y2="-14"
       style="stroke:#000000;stroke-width:2;"
       id="line70" />
    <!-- Linie -->
    <line
       x1="25"
       y1="-14"
       x2="25"
       y2="37.5"
       style="stroke:#000000;stroke-width:2;"
       id="line72" />
    <!-- Linie -->
    <line
       x1="-25"
       y1="-6"
       x2="25"
       y2="-6"
       style="stroke:#000000;stroke-width:2.11;"
       id="line74" />
    <!-- Linie -->
    <line
       x1="25"
       y1="-1"
       x2="-25"
       y2="-1"
       style="stroke:#000000;stroke-width:2.11;"
       id="line76" />
  </g>
  <g
     aria-label="short"
     id="text90"
     style="font-style:normal;font-weight:normal;font-size:38.8056px;line-height:1.25;font-family:sans-serif;fill:#000000;fill-opacity:1;stroke:none;stroke-width:0.264583">
    <path
       d="m -25.615579,80.263139 q 0,2.899052 -2.406402,4.75596 -2.387454,1.856909 -6.537076,1.856909 -2.349557,0 -4.320154,-0.549494 -1.951649,-0.568441 -3.278012,-1.231623 v -3.998038 h 0.18948 q 1.686376,1.26952 3.751713,2.027441 2.065337,0.738974 3.960142,0.738974 2.349558,0 3.675921,-0.757922 1.326363,-0.757921 1.326363,-2.387453 0,-1.250572 -0.720025,-1.894805 -0.720026,-0.644234 -2.766415,-1.098987 -0.757922,-0.170532 -1.989545,-0.397909 -1.212675,-0.227376 -2.216922,-0.492649 -2.785362,-0.738974 -3.960141,-2.160077 -1.155831,-1.440052 -1.155831,-3.524337 0,-1.307415 0.530545,-2.463246 0.549494,-1.155831 1.64848,-2.065337 1.061091,-0.890558 2.690623,-1.402155 1.64848,-0.530546 3.675921,-0.530546 1.894804,0 3.827505,0.473701 1.951649,0.454753 3.240116,1.117935 v 3.808557 h -0.18948 q -1.36426,-1.004246 -3.315908,-1.686376 -1.951649,-0.701077 -3.827506,-0.701077 -1.951649,0 -3.29696,0.757921 -1.345311,0.738974 -1.345311,2.216922 0,1.307415 0.814766,1.970597 0.795818,0.663181 2.576934,1.080038 0.985299,0.227377 2.197974,0.454754 1.231623,0.227376 2.046389,0.416857 2.482194,0.568441 3.827505,1.951648 1.345311,1.402156 1.345311,3.713817 z"
       style="font-size:38.8056px;stroke-width:0.264583"
       id="path101" />
    <path
       d="M -2.8210789,86.36441 H -6.3833117 V 74.313453 q 0,-1.459 -0.1705324,-2.728519 -0.1705324,-1.288467 -0.6252855,-2.008493 -0.4737012,-0.795818 -1.3642594,-1.174779 -0.8905581,-0.397909 -2.311662,-0.397909 -1.458999,0 -3.050635,0.720026 -1.591636,0.720026 -3.050636,1.837961 v 15.80267 h -3.562232 V 56.88125 h 3.562232 V 67.549 q 1.667428,-1.383207 3.448545,-2.160077 1.781116,-0.77687 3.6569728,-0.77687 3.4295964,0 5.2296609,2.065337 1.8000644,2.065337 1.8000644,5.949687 z"
       style="font-size:38.8056px;stroke-width:0.264583"
       id="path103" />
    <path
       d="m 22.076651,75.7914 q 0,5.172817 -2.652726,8.166608 -2.652727,2.993792 -7.105518,2.993792 -4.4906866,0 -7.1434131,-2.993792 -2.6337785,-2.993791 -2.6337785,-8.166608 0,-5.172816 2.6337785,-8.166608 2.6527265,-3.012739 7.1434131,-3.012739 4.452791,0 7.105518,3.012739 2.652726,2.993792 2.652726,8.166608 z m -3.675921,0 q 0,-4.111726 -1.610584,-6.101271 -1.610584,-2.008492 -4.471739,-2.008492 -2.8990507,0 -4.5096347,2.008492 -1.5916359,1.989545 -1.5916359,6.101271 0,3.97909 1.610584,6.044427 1.6105839,2.046389 4.4906866,2.046389 2.842207,0 4.452791,-2.027441 1.629532,-2.046389 1.629532,-6.063375 z"
       style="font-size:38.8056px;stroke-width:0.264583"
       id="path105" />
    <path
       d="m 40.797321,69.083792 h -0.18948 q -0.795818,-0.18948 -1.55374,-0.265273 -0.738974,-0.09474 -1.762169,-0.09474 -1.64848,0 -3.183271,0.738974 -1.534792,0.720026 -2.955896,1.875857 v 15.0258 H 27.590533 V 65.199442 h 3.562232 v 3.126428 q 2.122182,-1.705324 3.732766,-2.406402 1.629532,-0.720026 3.315908,-0.720026 0.928454,0 1.345311,0.05684 0.416857,0.0379 1.250571,0.170532 z"
       style="font-size:38.8056px;stroke-width:0.264583"
       id="path107" />
    <path
       d="m 55.140992,86.17493 q -1.004246,0.265273 -2.197973,0.435805 -1.174779,0.170532 -2.103233,0.170532 -3.240116,0 -4.926492,-1.74322 -1.686377,-1.74322 -1.686377,-5.589674 V 68.193234 h -2.406401 v -2.993792 h 2.406401 V 59.11712 h 3.562233 v 6.082322 h 7.351842 v 2.993792 H 47.78915 v 9.644555 q 0,1.667429 0.07579,2.614831 0.07579,0.928454 0.530546,1.74322 0.416857,0.757922 1.136882,1.117935 0.738974,0.341065 2.23587,0.341065 0.87161,0 1.819012,-0.246325 0.947403,-0.265273 1.36426,-0.435805 h 0.18948 z"
       style="font-size:38.8056px;stroke-width:0.264583"
       id="path109" />
  </g>
</svg>
