<?xml version="1.0" encoding="UTF-8"?>
<!-- 2020-10-26 15:29:22 Generated by QCAD 3.24.2 SVG Exporter PG -->
<svg width="210.25mm" height="210.25mm" viewBox="-105.125 -105.125 210.25 210.25" version="1.1" xmlns="http://www.w3.org/2000/svg" style="stroke-linecap:round;stroke-linejoin:round;fill:none">
    <g transform="scale(1,-1)">
        <!-- Schraffur -->
        <path d="M100,-85.5 L100,85.5 A14.5,14.5 0 0 1 85.5,100 L-85.5,100 A14.5,14.5 0 0 1 -100,85.5 L-100,-85.5 A14.5,14.5 0 0 1 -85.5,-100 L85.5,-100 A14.5,14.5 0 0 1 100,-85.5M-85.5,95 A9.5,9.5 0 0 1 -95,85.5 L-95,-85.5 A9.5,9.5 0 0 1 -85.5,-95 L85.5,-95 A9.5,9.5 0 0 1 95,-85.5 L95,85.5 A9.5,9.5 0 0 1 85.5,95 Z" style="fill:#000000;fill-rule:evenodd;"/>
        <!-- Linie -->
        <line x1="18.1189" y1="-20.0115" x2="13.0462" y2="-20.0115" style="stroke:#000000;stroke-width:0.25;"/>
        <!-- Kreisbogen -->
        <path d="M13.0462,-20.0115 A9.7263,9.7263 0 0,1 10.4754,-20.3099" style="stroke:#000000;stroke-width:0.25;"/>
        <!-- Kreisbogen -->
        <path d="M10.4754,-20.3099 A4.8791,4.8791 0 0,1 8.708,-21.1591" style="stroke:#000000;stroke-width:0.25;"/>
        <!-- Kreisbogen -->
        <path d="M8.708,-21.1591 A3.4084,3.4084 0 0,1 7.6866,-22.479" style="stroke:#000000;stroke-width:0.25;"/>
        <!-- Kreisbogen -->
        <path d="M7.6866,-22.479 A4.3215,4.3215 0 0,1 7.3538,-24.2119" style="stroke:#000000;stroke-width:0.25;"/>
        <!-- Kreisbogen -->
        <path d="M7.3538,-24.2119 A3.9341,3.9341 0 0,1 7.5604,-25.4858" style="stroke:#000000;stroke-width:0.25;"/>
        <!-- Kreisbogen -->
        <path d="M7.5604,-25.4858 A2.8334,2.8334 0 0,1 8.226,-26.5647" style="stroke:#000000;stroke-width:0.25;"/>
        <!-- Kreisbogen -->
        <path d="M8.226,-26.5647 A3.213,3.213 0 0,1 9.4196,-27.3106" style="stroke:#000000;stroke-width:0.25;"/>
        <!-- Kreisbogen -->
        <path d="M9.4196,-27.3106 A5.1204,5.1204 0 0,1 11.2099,-27.5861" style="stroke:#000000;stroke-width:0.25;"/>
        <!-- Kreisbogen -->
        <path d="M11.2099,-27.5861 A5.2155,5.2155 0 0,1 12.5481,-27.4115" style="stroke:#000000;stroke-width:0.25;"/>
        <!-- Kreisbogen -->
        <path d="M12.5481,-27.4115 A10.7247,10.7247 0 0,1 14.366,-26.7483" style="stroke:#000000;stroke-width:0.25;"/>
        <!-- Kreisbogen -->
        <path d="M14.366,-26.7483 A11.1527,11.1527 0 0,1 16.049,-25.7677" style="stroke:#000000;stroke-width:0.25;"/>
        <!-- Kreisbogen -->
        <path d="M16.049,-25.7677 A20.7987,20.7987 0 0,1 18.1189,-24.0972" style="stroke:#000000;stroke-width:0.25;"/>
        <!-- Linie -->
        <line x1="18.1189" y1="-24.0972" x2="18.1189" y2="-20.0115" style="stroke:#000000;stroke-width:0.25;"/>
        <!-- Linie -->
        <line x1="18.555" y1="-30.5011" x2="18.4632" y2="-27.4024" style="stroke:#000000;stroke-width:0.25;"/>
        <!-- Kreisbogen -->
        <path d="M18.4632,-27.4024 A15.692,15.692 0 0,0 16.4576,-29.0777" style="stroke:#000000;stroke-width:0.25;"/>
        <!-- Kreisbogen -->
        <path d="M16.4576,-29.0777 A9.9243,9.9243 0 0,0 14.6415,-30.088" style="stroke:#000000;stroke-width:0.25;"/>
        <!-- Kreisbogen -->
        <path d="M14.6415,-30.088 A10.2885,10.2885 0 0,0 10.5673,-30.9143" style="stroke:#000000;stroke-width:0.25;"/>
        <!-- Kreisbogen -->
        <path d="M10.5673,-30.9143 A9.9816,9.9816 0 0,0 7.1931,-30.4093" style="stroke:#000000;stroke-width:0.25;"/>
        <!-- Kreisbogen -->
        <path d="M7.1931,-30.4093 A6.3221,6.3221 0 0,0 4.8863,-29.0207" style="stroke:#000000;stroke-width:0.25;"/>
        <!-- Kreisbogen -->
        <path d="M4.8863,-29.0207 A5.3832,5.3832 0 0,0 3.555,-26.9434" style="stroke:#000000;stroke-width:0.25;"/>
        <!-- Kreisbogen -->
        <path d="M3.555,-26.9434 A7.6855,7.6855 0 0,0 3.1304,-24.3497" style="stroke:#000000;stroke-width:0.25;"/>
        <!-- Kreisbogen -->
        <path d="M3.1304,-24.3497 A8.3013,8.3013 0 0,0 3.2985,-22.6873" style="stroke:#000000;stroke-width:0.25;"/>
        <!-- Kreisbogen -->
        <path d="M3.2985,-22.6873 A6.2322,6.2322 0 0,0 3.7512,-21.3122" style="stroke:#000000;stroke-width:0.25;"/>
        <!-- Kreisbogen -->
        <path d="M3.7512,-21.3122 A5.9478,5.9478 0 0,0 4.548,-20.0433" style="stroke:#000000;stroke-width:0.25;"/>
        <!-- Kreisbogen -->
        <path d="M4.548,-20.0433 A6.9298,6.9298 0 0,0 5.7126,-18.9212" style="stroke:#000000;stroke-width:0.25;"/>
        <!-- Kreisbogen -->
        <path d="M5.7126,-18.9212 A7.3682,7.3682 0 0,0 7.2453,-18.025" style="stroke:#000000;stroke-width:0.25;"/>
        <!-- Kreisbogen -->
        <path d="M7.2453,-18.025 A11.567,11.567 0 0,0 9.3623,-17.3422" style="stroke:#000000;stroke-width:0.25;"/>
        <!-- Kreisbogen -->
        <path d="M9.3623,-17.3422 A14.9044,14.9044 0 0,0 11.1239,-17.0654" style="stroke:#000000;stroke-width:0.25;"/>
        <!-- Kreisbogen -->
        <path d="M11.1239,-17.0654 A23.1671,23.1671 0 0,0 13.3446,-16.9587" style="stroke:#000000;stroke-width:0.25;"/>
        <!-- Linie -->
        <line x1="13.3446" y1="-16.9587" x2="18.1189" y2="-16.9587" style="stroke:#000000;stroke-width:0.25;"/>
        <!-- Linie -->
        <line x1="18.1189" y1="-16.9587" x2="18.1189" y2="-14.9388" style="stroke:#000000;stroke-width:0.25;"/>
        <!-- Kreisbogen -->
        <path d="M18.1189,-14.9388 A5.7598,5.7598 0 0,1 18.0368,-13.9698" style="stroke:#000000;stroke-width:0.25;"/>
        <!-- Kreisbogen -->
        <path d="M18.0368,-13.9698 A4.2967,4.2967 0 0,1 17.8152,-13.1596" style="stroke:#000000;stroke-width:0.25;"/>
        <!-- Kreisbogen -->
        <path d="M17.8152,-13.1596 A3.948,3.948 0 0,1 17.4016,-12.3627" style="stroke:#000000;stroke-width:0.25;"/>
        <!-- Kreisbogen -->
        <path d="M17.4016,-12.3627 A4.0749,4.0749 0 0,1 16.8106,-11.6679" style="stroke:#000000;stroke-width:0.25;"/>
        <!-- Kreisbogen -->
        <path d="M16.8106,-11.6679 A3.6037,3.6037 0 0,1 16.0198,-11.105" style="stroke:#000000;stroke-width:0.25;"/>
        <!-- Kreisbogen -->
        <path d="M16.0198,-11.105 A5.1687,5.1687 0 0,1 14.9363,-10.6837" style="stroke:#000000;stroke-width:0.25;"/>
        <!-- Kreisbogen -->
        <path d="M14.9363,-10.6837 A6.6069,6.6069 0 0,1 14.0043,-10.508" style="stroke:#000000;stroke-width:0.25;"/>
        <!-- Kreisbogen -->
        <path d="M14.0043,-10.508 A10.3955,10.3955 0 0,1 12.8167,-10.4399" style="stroke:#000000;stroke-width:0.25;"/>
        <!-- Kreisbogen -->
        <path d="M12.8167,-10.4399 A17.076,17.076 0 0,1 8.972,-10.8761" style="stroke:#000000;stroke-width:0.25;"/>
        <!-- Kreisbogen -->
        <path d="M8.972,-10.8761 A27.0246,27.0246 0 0,1 5.0585,-12.1155" style="stroke:#000000;stroke-width:0.25;"/>
        <!-- Linie -->
        <line x1="5.0585" y1="-12.1155" x2="5.0585" y2="-8.5119" style="stroke:#000000;stroke-width:0.25;"/>
        <!-- Kreisbogen -->
        <path d="M5.0585,-8.5119 A24.7145,24.7145 0 0,0 6.7455,-7.9725" style="stroke:#000000;stroke-width:0.25;"/>
        <!-- Kreisbogen -->
        <path d="M6.7455,-7.9725 A25.4902,25.4902 0 0,0 8.708,-7.5019" style="stroke:#000000;stroke-width:0.25;"/>
        <!-- Kreisbogen -->
        <path d="M8.708,-7.5019 A25.5191,25.5191 0 0,0 10.8656,-7.1691" style="stroke:#000000;stroke-width:0.25;"/>
        <!-- Kreisbogen -->
        <path d="M10.8656,-7.1691 A20.3564,20.3564 0 0,0 13.138,-7.0428" style="stroke:#000000;stroke-width:0.25;"/>
        <!-- Kreisbogen -->
        <path d="M13.138,-7.0428 A14.2512,14.2512 0 0,0 16.9024,-7.5019" style="stroke:#000000;stroke-width:0.25;"/>
        <!-- Kreisbogen -->
        <path d="M16.9024,-7.5019 A7.6338,7.6338 0 0,0 19.7371,-8.9021" style="stroke:#000000;stroke-width:0.25;"/>
        <!-- Kreisbogen -->
        <path d="M19.7371,-8.9021 A6.1615,6.1615 0 0,0 21.516,-11.2663" style="stroke:#000000;stroke-width:0.25;"/>
        <!-- Kreisbogen -->
        <path d="M21.516,-11.2663 A8.3434,8.3434 0 0,0 22.1357,-14.6174" style="stroke:#000000;stroke-width:0.25;"/>
        <!-- Linie -->
        <line x1="22.1357" y1="-14.6174" x2="22.1357" y2="-30.5011" style="stroke:#000000;stroke-width:0.25;"/>
        <!-- Linie -->
        <line x1="22.1357" y1="-30.5011" x2="18.555" y2="-30.5011" style="stroke:#000000;stroke-width:0.25;"/>
        <!-- Kreisbogen -->
        <path d="M74.8944,-17.7621 A36.635,36.635 0 0,0 74.8715,-19.1852" style="stroke:#000000;stroke-width:0.25;"/>
        <!-- Kreisbogen -->
        <path d="M74.8715,-19.1852 A21.3904,21.3904 0 0,0 74.8026,-20.264" style="stroke:#000000;stroke-width:0.25;"/>
        <!-- Linie -->
        <line x1="74.8026" y1="-20.264" x2="58.6205" y2="-20.264" style="stroke:#000000;stroke-width:0.25;"/>
        <!-- Kreisbogen -->
        <path d="M58.6205,-20.264 A11.2822,11.2822 0 0,1 58.7378,-21.8865" style="stroke:#000000;stroke-width:0.25;"/>
        <!-- Kreisbogen -->
        <path d="M58.7378,-21.8865 A7.6816,7.6816 0 0,1 59.0462,-23.1929" style="stroke:#000000;stroke-width:0.25;"/>
        <!-- Kreisbogen -->
        <path d="M59.0462,-23.1929 A6.5176,6.5176 0 0,1 59.6937,-24.5794" style="stroke:#000000;stroke-width:0.25;"/>
        <!-- Kreisbogen -->
        <path d="M59.6937,-24.5794 A5.7071,5.7071 0 0,1 60.5945,-25.6924" style="stroke:#000000;stroke-width:0.25;"/>
        <!-- Kreisbogen -->
        <path d="M60.5945,-25.6924 A5.7934,5.7934 0 0,1 61.7584,-26.5574" style="stroke:#000000;stroke-width:0.25;"/>
        <!-- Kreisbogen -->
        <path d="M61.7584,-26.5574 A7.2043,7.2043 0 0,1 63.2471,-27.189" style="stroke:#000000;stroke-width:0.25;"/>
        <!-- Kreisbogen -->
        <path d="M63.2471,-27.189 A8.718,8.718 0 0,1 64.6,-27.4764" style="stroke:#000000;stroke-width:0.25;"/>
        <!-- Kreisbogen -->
        <path d="M64.6,-27.4764 A13.0223,13.0223 0 0,1 66.2869,-27.5861" style="stroke:#000000;stroke-width:0.25;"/>
        <!-- Kreisbogen -->
        <path d="M66.2869,-27.5861 A25.4632,25.4632 0 0,1 68.3068,-27.5057" style="stroke:#000000;stroke-width:0.25;"/>
        <!-- Kreisbogen -->
        <path d="M68.3068,-27.5057 A29.7956,29.7956 0 0,1 70.2578,-27.2877" style="stroke:#000000;stroke-width:0.25;"/>
        <!-- Kreisbogen -->
        <path d="M70.2578,-27.2877 A35.142,35.142 0 0,1 72.0597,-26.9778" style="stroke:#000000;stroke-width:0.25;"/>
        <!-- Kreisbogen -->
        <path d="M72.0597,-26.9778 A21.4329,21.4329 0 0,1 73.6549,-26.5991" style="stroke:#000000;stroke-width:0.25;"/>
        <!-- Linie -->
        <line x1="73.6549" y1="-26.5991" x2="73.6549" y2="-29.8814" style="stroke:#000000;stroke-width:0.25;"/>
        <!-- Kreisbogen -->
        <path d="M73.6549,-29.8814 A27.8814,27.8814 0 0,0 69.9709,-30.6274" style="stroke:#000000;stroke-width:0.25;"/>
        <!-- Kreisbogen -->
        <path d="M69.9709,-30.6274 A30.7617,30.7617 0 0,0 65.7131,-30.9143" style="stroke:#000000;stroke-width:0.25;"/>
        <!-- Kreisbogen -->
        <path d="M65.7131,-30.9143 A18.7458,18.7458 0 0,0 62.7937,-30.6856" style="stroke:#000000;stroke-width:0.25;"/>
        <!-- Kreisbogen -->
        <path d="M62.7937,-30.6856 A11.0756,11.0756 0 0,0 60.6174,-30.1109" style="stroke:#000000;stroke-width:0.25;"/>
        <!-- Kreisbogen -->
        <path d="M60.6174,-30.1109 A8.7216,8.7216 0 0,0 57.1171,-27.7812" style="stroke:#000000;stroke-width:0.25;"/>
        <!-- Kreisbogen -->
        <path d="M57.1171,-27.7812 A9.5922,9.5922 0 0,0 55.0972,-24.0398" style="stroke:#000000;stroke-width:0.25;"/>
        <!-- Kreisbogen -->
        <path d="M55.0972,-24.0398 A17.7059,17.7059 0 0,0 54.443,-19.0245" style="stroke:#000000;stroke-width:0.25;"/>
        <!-- Kreisbogen -->
        <path d="M54.443,-19.0245 A14.893,14.893 0 0,0 55.1431,-14.4223" style="stroke:#000000;stroke-width:0.25;"/>
        <!-- Kreisbogen -->
        <path d="M55.1431,-14.4223 A11.5528,11.5528 0 0,0 57.1859,-10.6121" style="stroke:#000000;stroke-width:0.25;"/>
        <!-- Kreisbogen -->
        <path d="M57.1859,-10.6121 A9.8202,9.8202 0 0,0 60.4797,-8.0069" style="stroke:#000000;stroke-width:0.25;"/>
        <!-- Kreisbogen -->
        <path d="M60.4797,-8.0069 A9.8689,9.8689 0 0,0 64.9097,-7.0428" style="stroke:#000000;stroke-width:0.25;"/>
        <!-- Kreisbogen -->
        <path d="M64.9097,-7.0428 A11.2445,11.2445 0 0,0 69.179,-7.8003" style="stroke:#000000;stroke-width:0.25;"/>
        <!-- Kreisbogen -->
        <path d="M69.179,-7.8003 A8.5727,8.5727 0 0,0 72.3122,-9.9464" style="stroke:#000000;stroke-width:0.25;"/>
        <!-- Kreisbogen -->
        <path d="M72.3122,-9.9464 A9.15,9.15 0 0,0 74.2402,-13.3206" style="stroke:#000000;stroke-width:0.25;"/>
        <!-- Kreisbogen -->
        <path d="M74.2402,-13.3206 A14.1451,14.1451 0 0,0 74.8944,-17.7621" style="stroke:#000000;stroke-width:0.25;"/>
        <!-- Linie -->
        <line x1="30.5311" y1="-7.456" x2="34.1807" y2="-7.456" style="stroke:#000000;stroke-width:0.25;"/>
        <!-- Linie -->
        <line x1="34.1807" y1="-7.456" x2="34.2955" y2="-11.7024" style="stroke:#000000;stroke-width:0.25;"/>
        <!-- Kreisbogen -->
        <path d="M34.2955,-11.7024 A20.5929,20.5929 0 0,0 36.4955,-9.4361" style="stroke:#000000;stroke-width:0.25;"/>
        <!-- Kreisbogen -->
        <path d="M36.4955,-9.4361 A10.3431,10.3431 0 0,0 38.3238,-8.1446" style="stroke:#000000;stroke-width:0.25;"/>
        <!-- Kreisbogen -->
        <path d="M38.3238,-8.1446 A8.1795,8.1795 0 0,0 42.3292,-7.0428" style="stroke:#000000;stroke-width:0.25;"/>
        <!-- Kreisbogen -->
        <path d="M42.3292,-7.0428 A9.7805,9.7805 0 0,0 43.9949,-7.1857" style="stroke:#000000;stroke-width:0.25;"/>
        <!-- Kreisbogen -->
        <path d="M43.9949,-7.1857 A6.7103,6.7103 0 0,0 45.3278,-7.5611" style="stroke:#000000;stroke-width:0.25;"/>
        <!-- Kreisbogen -->
        <path d="M45.3278,-7.5611 A5.8943,5.8943 0 0,0 46.6617,-8.3033" style="stroke:#000000;stroke-width:0.25;"/>
        <!-- Kreisbogen -->
        <path d="M46.6617,-8.3033 A5.8685,5.8685 0 0,0 47.7576,-9.3611" style="stroke:#000000;stroke-width:0.25;"/>
        <!-- Kreisbogen -->
        <path d="M47.7576,-9.3611 A6.2614,6.2614 0 0,0 48.5935,-10.7446" style="stroke:#000000;stroke-width:0.25;"/>
        <!-- Kreisbogen -->
        <path d="M48.5935,-10.7446 A9.5378,9.5378 0 0,0 49.2007,-12.6449" style="stroke:#000000;stroke-width:0.25;"/>
        <!-- Kreisbogen -->
        <path d="M49.2007,-12.6449 A12.3081,12.3081 0 0,0 49.4235,-14.2349" style="stroke:#000000;stroke-width:0.25;"/>
        <!-- Kreisbogen -->
        <path d="M49.4235,-14.2349 A19.341,19.341 0 0,0 49.4676,-16.2471" style="stroke:#000000;stroke-width:0.25;"/>
        <!-- Linie -->
        <line x1="49.4676" y1="-16.2471" x2="45.4279" y2="-16.2471" style="stroke:#000000;stroke-width:0.25;"/>
        <!-- Kreisbogen -->
        <path d="M45.4279,-16.2471 A16.4681,16.4681 0 0,1 45.4071,-14.9654" style="stroke:#000000;stroke-width:0.25;"/>
        <!-- Kreisbogen -->
        <path d="M45.4071,-14.9654 A9.9123,9.9123 0 0,1 45.3025,-13.9764" style="stroke:#000000;stroke-width:0.25;"/>
        <!-- Kreisbogen -->
        <path d="M45.3025,-13.9764 A7.1205,7.1205 0 0,1 44.9741,-12.6857" style="stroke:#000000;stroke-width:0.25;"/>
        <!-- Kreisbogen -->
        <path d="M44.9741,-12.6857 A3.5356,3.5356 0 0,1 44.5441,-11.8516" style="stroke:#000000;stroke-width:0.25;"/>
        <!-- Kreisbogen -->
        <path d="M44.5441,-11.8516 A3.3281,3.3281 0 0,1 43.9839,-11.2317" style="stroke:#000000;stroke-width:0.25;"/>
        <!-- Kreisbogen -->
        <path d="M43.9839,-11.2317 A2.898,2.898 0 0,1 43.3297,-10.8076" style="stroke:#000000;stroke-width:0.25;"/>
        <!-- Kreisbogen -->
        <path d="M43.3297,-10.8076 A3.1113,3.1113 0 0,1 42.6269,-10.574" style="stroke:#000000;stroke-width:0.25;"/>
        <!-- Kreisbogen -->
        <path d="M42.6269,-10.574 A4.3528,4.3528 0 0,1 41.7553,-10.4858" style="stroke:#000000;stroke-width:0.25;"/>
        <!-- Kreisbogen -->
        <path d="M41.7553,-10.4858 A4.8478,4.8478 0 0,1 40.1371,-10.7728" style="stroke:#000000;stroke-width:0.25;"/>
        <!-- Kreisbogen -->
        <path d="M40.1371,-10.7728 A6.5379,6.5379 0 0,1 38.4615,-11.6909" style="stroke:#000000;stroke-width:0.25;"/>
        <!-- Kreisbogen -->
        <path d="M38.4615,-11.6909 A15.0103,15.0103 0 0,1 36.6367,-13.3091" style="stroke:#000000;stroke-width:0.25;"/>
        <!-- Kreisbogen -->
        <path d="M36.6367,-13.3091 A29.8769,29.8769 0 0,1 34.5709,-15.6963" style="stroke:#000000;stroke-width:0.25;"/>
        <!-- Linie -->
        <line x1="34.5709" y1="-15.6963" x2="34.5709" y2="-30.5011" style="stroke:#000000;stroke-width:0.25;"/>
        <!-- Linie -->
        <line x1="34.5709" y1="-30.5011" x2="30.5311" y2="-30.5011" style="stroke:#000000;stroke-width:0.25;"/>
        <!-- Linie -->
        <line x1="30.5311" y1="-30.5011" x2="30.5311" y2="-7.456" style="stroke:#000000;stroke-width:0.25;"/>
        <!-- Kreisbogen -->
        <path d="M70.7399,-17.1882 A8.7067,8.7067 0 0,1 70.4415,-14.3764" style="stroke:#000000;stroke-width:0.25;"/>
        <!-- Kreisbogen -->
        <path d="M70.4415,-14.3764 A5.9186,5.9186 0 0,1 69.3053,-12.1844" style="stroke:#000000;stroke-width:0.25;"/>
        <!-- Kreisbogen -->
        <path d="M69.3053,-12.1844 A5.2921,5.2921 0 0,1 67.3887,-10.7498" style="stroke:#000000;stroke-width:0.25;"/>
        <!-- Kreisbogen -->
        <path d="M67.3887,-10.7498 A6.4327,6.4327 0 0,1 64.7261,-10.2334" style="stroke:#000000;stroke-width:0.25;"/>
        <!-- Kreisbogen -->
        <path d="M64.7261,-10.2334 A5.5612,5.5612 0 0,1 62.3389,-10.7383" style="stroke:#000000;stroke-width:0.25;"/>
        <!-- Kreisbogen -->
        <path d="M62.3389,-10.7383 A5.4439,5.4439 0 0,1 60.4797,-12.1614" style="stroke:#000000;stroke-width:0.25;"/>
        <!-- Kreisbogen -->
        <path d="M60.4797,-12.1614 A7.3512,7.3512 0 0,1 59.2173,-14.365" style="stroke:#000000;stroke-width:0.25;"/>
        <!-- Kreisbogen -->
        <path d="M59.2173,-14.365 A10.1597,10.1597 0 0,1 58.6205,-17.1882" style="stroke:#000000;stroke-width:0.25;"/>
        <!-- Linie -->
        <line x1="58.6205" y1="-17.1882" x2="70.7399" y2="-17.1882" style="stroke:#000000;stroke-width:0.25;"/>
        <!-- Kreisbogen -->
        <path d="M-49.1004,-19.4606 A16.6098,16.6098 0 0,0 -48.4462,-14.7552" style="stroke:#000000;stroke-width:0.25;"/>
        <!-- Kreisbogen -->
        <path d="M-48.4462,-14.7552 A11.1309,11.1309 0 0,0 -46.4263,-10.8416" style="stroke:#000000;stroke-width:0.25;"/>
        <!-- Kreisbogen -->
        <path d="M-46.4263,-10.8416 A9.6063,9.6063 0 0,0 -42.9259,-8.1676" style="stroke:#000000;stroke-width:0.25;"/>
        <!-- Kreisbogen -->
        <path d="M-42.9259,-8.1676 A9.5673,9.5673 0 0,0 -40.7301,-7.4588" style="stroke:#000000;stroke-width:0.25;"/>
        <!-- Kreisbogen -->
        <path d="M-40.7301,-7.4588 A15.2491,15.2491 0 0,0 -37.8303,-7.1806" style="stroke:#000000;stroke-width:0.25;"/>
        <!-- Kreisbogen -->
        <path d="M-37.8303,-7.1806 A14.6504,14.6504 0 0,0 -35.512,-7.3642" style="stroke:#000000;stroke-width:0.25;"/>
        <!-- Kreisbogen -->
        <path d="M-35.512,-7.3642 A18.4361,18.4361 0 0,0 -33.079,-7.938" style="stroke:#000000;stroke-width:0.25;"/>
        <!-- Linie -->
        <line x1="-33.079" y1="-7.938" x2="-29.5441" y2="-7.0428" style="stroke:#000000;stroke-width:0.25;"/>
        <!-- Linie -->
        <line x1="-29.5441" y1="-7.0428" x2="-29.5441" y2="-39.912" style="stroke:#000000;stroke-width:0.25;"/>
        <!-- Linie -->
        <line x1="-29.5441" y1="-39.912" x2="-33.561" y2="-39.912" style="stroke:#000000;stroke-width:0.25;"/>
        <!-- Linie -->
        <line x1="-33.561" y1="-39.912" x2="-33.561" y2="-31.2127" style="stroke:#000000;stroke-width:0.25;"/>
        <!-- Linie -->
        <line x1="-33.561" y1="-31.2127" x2="-33.3544" y2="-26.2777" style="stroke:#000000;stroke-width:0.25;"/>
        <!-- Kreisbogen -->
        <path d="M-33.3544,-26.2777 A15.2159,15.2159 0 0,0 -35.0315,-28.2749" style="stroke:#000000;stroke-width:0.25;"/>
        <!-- Kreisbogen -->
        <path d="M-35.0315,-28.2749 A9.837,9.837 0 0,0 -36.6624,-29.5929" style="stroke:#000000;stroke-width:0.25;"/>
        <!-- Kreisbogen -->
        <path d="M-36.6624,-29.5929 A8.3406,8.3406 0 0,0 -38.8095,-30.5796" style="stroke:#000000;stroke-width:0.25;"/>
        <!-- Kreisbogen -->
        <path d="M-38.8095,-30.5796 A8.0911,8.0911 0 0,0 -41.1126,-30.9143" style="stroke:#000000;stroke-width:0.25;"/>
        <!-- Kreisbogen -->
        <path d="M-41.1126,-30.9143 A7.1355,7.1355 0 0,0 -44.6245,-30.088" style="stroke:#000000;stroke-width:0.25;"/>
        <!-- Kreisbogen -->
        <path d="M-44.6245,-30.088 A7.06,7.06 0 0,0 -47.1149,-27.7467" style="stroke:#000000;stroke-width:0.25;"/>
        <!-- Kreisbogen -->
        <path d="M-47.1149,-27.7467 A11.1425,11.1425 0 0,0 -48.6069,-24.1201" style="stroke:#000000;stroke-width:0.25;"/>
        <!-- Kreisbogen -->
        <path d="M-48.6069,-24.1201 A20.4874,20.4874 0 0,0 -49.1004,-19.4606" style="stroke:#000000;stroke-width:0.25;"/>
        <!-- Kreisbogen -->
        <path d="M-54.5578,-22.3757 A7.7217,7.7217 0 0,0 -55.43,-26.1171" style="stroke:#000000;stroke-width:0.25;"/>
        <!-- Kreisbogen -->
        <path d="M-55.43,-26.1171 A7.6,7.6 0 0,0 -57.863,-28.7911" style="stroke:#000000;stroke-width:0.25;"/>
        <!-- Kreisbogen -->
        <path d="M-57.863,-28.7911 A11.2554,11.2554 0 0,0 -61.6159,-30.3864" style="stroke:#000000;stroke-width:0.25;"/>
        <!-- Kreisbogen -->
        <path d="M-61.6159,-30.3864 A20.6382,20.6382 0 0,0 -66.4476,-30.9143" style="stroke:#000000;stroke-width:0.25;"/>
        <!-- Kreisbogen -->
        <path d="M-66.4476,-30.9143 A30.6675,30.6675 0 0,0 -68.8233,-30.8225" style="stroke:#000000;stroke-width:0.25;"/>
        <!-- Kreisbogen -->
        <path d="M-68.8233,-30.8225 A47.4967,47.4967 0 0,0 -71.0956,-30.593" style="stroke:#000000;stroke-width:0.25;"/>
        <!-- Kreisbogen -->
        <path d="M-71.0956,-30.593 A33.3082,33.3082 0 0,0 -73.15,-30.2716" style="stroke:#000000;stroke-width:0.25;"/>
        <!-- Kreisbogen -->
        <path d="M-73.15,-30.2716 A25.5169,25.5169 0 0,0 -74.8944,-29.8814" style="stroke:#000000;stroke-width:0.25;"/>
        <!-- Linie -->
        <line x1="-74.8944" y1="-29.8814" x2="-74.8944" y2="-25.9334" style="stroke:#000000;stroke-width:0.25;"/>
        <!-- Kreisbogen -->
        <path d="M-74.8944,-25.9334 A21.3817,21.3817 0 0,1 -71.0268,-26.9434" style="stroke:#000000;stroke-width:0.25;"/>
        <!-- Kreisbogen -->
        <path d="M-71.0268,-26.9434 A29.1235,29.1235 0 0,1 -66.1492,-27.3106" style="stroke:#000000;stroke-width:0.25;"/>
        <!-- Kreisbogen -->
        <path d="M-66.1492,-27.3106 A15.6788,15.6788 0 0,1 -62.7865,-27.0008" style="stroke:#000000;stroke-width:0.25;"/>
        <!-- Kreisbogen -->
        <path d="M-62.7865,-27.0008 A6.472,6.472 0 0,1 -60.5142,-26.0826" style="stroke:#000000;stroke-width:0.25;"/>
        <!-- Kreisbogen -->
        <path d="M-60.5142,-26.0826 A3.6431,3.6431 0 0,1 -59.2288,-24.6021" style="stroke:#000000;stroke-width:0.25;"/>
        <!-- Kreisbogen -->
        <path d="M-59.2288,-24.6021 A4.7244,4.7244 0 0,1 -58.8271,-22.6052" style="stroke:#000000;stroke-width:0.25;"/>
        <!-- Kreisbogen -->
        <path d="M-58.8271,-22.6052 A3.257,3.257 0 0,1 -59.5042,-20.5279" style="stroke:#000000;stroke-width:0.25;"/>
        <!-- Kreisbogen -->
        <path d="M-59.5042,-20.5279 A6.6762,6.6762 0 0,1 -61.2831,-18.9901" style="stroke:#000000;stroke-width:0.25;"/>
        <!-- Kreisbogen -->
        <path d="M-61.2831,-18.9901 A16.3656,16.3656 0 0,1 -63.7965,-17.7506" style="stroke:#000000;stroke-width:0.25;"/>
        <!-- Kreisbogen -->
        <path d="M-63.7965,-17.7506 A458.2162,458.2162 0 0,0 -66.6771,-16.5914" style="stroke:#000000;stroke-width:0.25;"/>
        <!-- Kreisbogen -->
        <path d="M-66.6771,-16.5914 A42.3952,42.3952 0 0,0 -69.5578,-15.2946" style="stroke:#000000;stroke-width:0.25;"/>
        <!-- Kreisbogen -->
        <path d="M-69.5578,-15.2946 A11.9108,11.9108 0 0,0 -72.0712,-13.6419" style="stroke:#000000;stroke-width:0.25;"/>
        <!-- Kreisbogen -->
        <path d="M-72.0712,-13.6419 A7.6417,7.6417 0 0,0 -73.85,-11.404" style="stroke:#000000;stroke-width:0.25;"/>
        <!-- Kreisbogen -->
        <path d="M-73.85,-11.404 A6.4663,6.4663 0 0,0 -74.5272,-8.3512" style="stroke:#000000;stroke-width:0.25;"/>
        <!-- Kreisbogen -->
        <path d="M-74.5272,-8.3512 A7.5936,7.5936 0 0,0 -73.8845,-5.3213" style="stroke:#000000;stroke-width:0.25;"/>
        <!-- Kreisbogen -->
        <path d="M-73.8845,-5.3213 A7.2583,7.2583 0 0,0 -71.8875,-2.6702" style="stroke:#000000;stroke-width:0.25;"/>
        <!-- Kreisbogen -->
        <path d="M-71.8875,-2.6702 A10.3385,10.3385 0 0,0 -68.4101,-0.7995" style="stroke:#000000;stroke-width:0.25;"/>
        <!-- Kreisbogen -->
        <path d="M-68.4101,-0.7995 A12.0773,12.0773 0 0,0 -66.2538,-0.2912" style="stroke:#000000;stroke-width:0.25;"/>
        <!-- Kreisbogen -->
        <path d="M-66.2538,-0.2912 A20.8653,20.8653 0 0,0 -63.3489,-0.088" style="stroke:#000000;stroke-width:0.25;"/>
        <!-- Kreisbogen -->
        <path d="M-63.3489,-0.088 A21.2181,21.2181 0 0,0 -61.7077,-0.1568" style="stroke:#000000;stroke-width:0.25;"/>
        <!-- Kreisbogen -->
        <path d="M-61.7077,-0.1568 A29.7292,29.7292 0 0,0 -59.9174,-0.352" style="stroke:#000000;stroke-width:0.25;"/>
        <!-- Kreisbogen -->
        <path d="M-59.9174,-0.352 A43.6904,43.6904 0 0,0 -58.127,-0.6389" style="stroke:#000000;stroke-width:0.25;"/>
        <!-- Kreisbogen -->
        <path d="M-58.127,-0.6389 A29.0279,29.0279 0 0,0 -56.4858,-0.9832" style="stroke:#000000;stroke-width:0.25;"/>
        <!-- Linie -->
        <line x1="-56.4858" y1="-0.9832" x2="-56.4858" y2="-4.6557" style="stroke:#000000;stroke-width:0.25;"/>
        <!-- Kreisbogen -->
        <path d="M-56.4858,-4.6557 A27.8116,27.8116 0 0,1 -60.0207,-3.8868" style="stroke:#000000;stroke-width:0.25;"/>
        <!-- Kreisbogen -->
        <path d="M-60.0207,-3.8868 A23.1533,23.1533 0 0,1 -63.4407,-3.6228" style="stroke:#000000;stroke-width:0.25;"/>
        <!-- Kreisbogen -->
        <path d="M-63.4407,-3.6228 A18.6654,18.6654 0 0,1 -64.9446,-3.6835" style="stroke:#000000;stroke-width:0.25;"/>
        <!-- Kreisbogen -->
        <path d="M-64.9446,-3.6835 A11.5087,11.5087 0 0,1 -66.1161,-3.8391" style="stroke:#000000;stroke-width:0.25;"/>
        <!-- Kreisbogen -->
        <path d="M-66.1161,-3.8391 A8.4858,8.4858 0 0,1 -67.6066,-4.2592" style="stroke:#000000;stroke-width:0.25;"/>
        <!-- Kreisbogen -->
        <path d="M-67.6066,-4.2592 A4.539,4.539 0 0,1 -68.6052,-4.7934" style="stroke:#000000;stroke-width:0.25;"/>
        <!-- Kreisbogen -->
        <path d="M-68.6052,-4.7934 A3.6649,3.6649 0 0,1 -70.2578,-7.938" style="stroke:#000000;stroke-width:0.25;"/>
        <!-- Kreisbogen -->
        <path d="M-70.2578,-7.938 A3.3046,3.3046 0 0,1 -69.5807,-10.0268" style="stroke:#000000;stroke-width:0.25;"/>
        <!-- Kreisbogen -->
        <path d="M-69.5807,-10.0268 A6.7386,6.7386 0 0,1 -67.8018,-11.5876" style="stroke:#000000;stroke-width:0.25;"/>
        <!-- Kreisbogen -->
        <path d="M-67.8018,-11.5876 A15.7028,15.7028 0 0,1 -65.2884,-12.8386" style="stroke:#000000;stroke-width:0.25;"/>
        <!-- Kreisbogen -->
        <path d="M-65.2884,-12.8386 A458.2162,458.2162 0 0,0 -62.4078,-13.9977" style="stroke:#000000;stroke-width:0.25;"/>
        <!-- Kreisbogen -->
        <path d="M-62.4078,-13.9977 A39.0488,39.0488 0 0,0 -59.5272,-15.306" style="stroke:#000000;stroke-width:0.25;"/>
        <!-- Kreisbogen -->
        <path d="M-59.5272,-15.306 A11.7371,11.7371 0 0,0 -57.0138,-16.9931" style="stroke:#000000;stroke-width:0.25;"/>
        <!-- Kreisbogen -->
        <path d="M-57.0138,-16.9931 A7.834,7.834 0 0,0 -55.2349,-19.277" style="stroke:#000000;stroke-width:0.25;"/>
        <!-- Kreisbogen -->
        <path d="M-55.2349,-19.277 A6.6591,6.6591 0 0,0 -54.5578,-22.3757" style="stroke:#000000;stroke-width:0.25;"/>
        <!-- Linie -->
        <line x1="-3.5665" y1="-30.5011" x2="-7.1472" y2="-30.5011" style="stroke:#000000;stroke-width:0.25;"/>
        <!-- Linie -->
        <line x1="-7.1472" y1="-30.5011" x2="-7.2849" y2="-26.7827" style="stroke:#000000;stroke-width:0.25;"/>
        <!-- Kreisbogen -->
        <path d="M-7.2849,-26.7827 A18.6017,18.6017 0 0,0 -9.2474,-28.7682" style="stroke:#000000;stroke-width:0.25;"/>
        <!-- Kreisbogen -->
        <path d="M-9.2474,-28.7682 A10.1446,10.1446 0 0,0 -11.0952,-30.0421" style="stroke:#000000;stroke-width:0.25;"/>
        <!-- Kreisbogen -->
        <path d="M-11.0952,-30.0421 A7.1144,7.1144 0 0,0 -12.9429,-30.7192" style="stroke:#000000;stroke-width:0.25;"/>
        <!-- Kreisbogen -->
        <path d="M-12.9429,-30.7192 A9.5374,9.5374 0 0,0 -14.9054,-30.9143" style="stroke:#000000;stroke-width:0.25;"/>
        <!-- Kreisbogen -->
        <path d="M-14.9054,-30.9143 A10.7256,10.7256 0 0,0 -16.5365,-30.7896" style="stroke:#000000;stroke-width:0.25;"/>
        <!-- Kreisbogen -->
        <path d="M-16.5365,-30.7896 A7.1734,7.1734 0 0,0 -17.8339,-30.4637" style="stroke:#000000;stroke-width:0.25;"/>
        <!-- Kreisbogen -->
        <path d="M-17.8339,-30.4637 A6.0716,6.0716 0 0,0 -19.1943,-29.7811" style="stroke:#000000;stroke-width:0.25;"/>
        <!-- Kreisbogen -->
        <path d="M-19.1943,-29.7811 A5.4617,5.4617 0 0,0 -20.2765,-28.8256" style="stroke:#000000;stroke-width:0.25;"/>
        <!-- Kreisbogen -->
        <path d="M-20.2765,-28.8256 A5.7807,5.7807 0 0,0 -21.1066,-27.5707" style="stroke:#000000;stroke-width:0.25;"/>
        <!-- Kreisbogen -->
        <path d="M-21.1066,-27.5707 A8.6494,8.6494 0 0,0 -21.7331,-25.8401" style="stroke:#000000;stroke-width:0.25;"/>
        <!-- Kreisbogen -->
        <path d="M-21.7331,-25.8401 A11.1211,11.1211 0 0,0 -21.9903,-24.3747" style="stroke:#000000;stroke-width:0.25;"/>
        <!-- Kreisbogen -->
        <path d="M-21.9903,-24.3747 A17.4556,17.4556 0 0,0 -22.0898,-22.5134" style="stroke:#000000;stroke-width:0.25;"/>
        <!-- Linie -->
        <line x1="-22.0898" y1="-22.5134" x2="-22.0898" y2="-7.456" style="stroke:#000000;stroke-width:0.25;"/>
        <!-- Linie -->
        <line x1="-22.0898" y1="-7.456" x2="-18.0959" y2="-7.456" style="stroke:#000000;stroke-width:0.25;"/>
        <!-- Linie -->
        <line x1="-18.0959" y1="-7.456" x2="-18.0959" y2="-22.192" style="stroke:#000000;stroke-width:0.25;"/>
        <!-- Kreisbogen -->
        <path d="M-18.0959,-22.192 A12.6851,12.6851 0 0,1 -18.0531,-23.2339" style="stroke:#000000;stroke-width:0.25;"/>
        <!-- Kreisbogen -->
        <path d="M-18.0531,-23.2339 A8.4476,8.4476 0 0,1 -17.9406,-24.0773" style="stroke:#000000;stroke-width:0.25;"/>
        <!-- Kreisbogen -->
        <path d="M-17.9406,-24.0773 A6.6718,6.6718 0 0,1 -17.6674,-25.0955" style="stroke:#000000;stroke-width:0.25;"/>
        <!-- Kreisbogen -->
        <path d="M-17.6674,-25.0955 A4.2016,4.2016 0 0,1 -17.3104,-25.8522" style="stroke:#000000;stroke-width:0.25;"/>
        <!-- Kreisbogen -->
        <path d="M-17.3104,-25.8522 A3.4402,3.4402 0 0,1 -16.699,-26.6051" style="stroke:#000000;stroke-width:0.25;"/>
        <!-- Kreisbogen -->
        <path d="M-16.699,-26.6051 A3.0673,3.0673 0 0,1 -15.9419,-27.1202" style="stroke:#000000;stroke-width:0.25;"/>
        <!-- Kreisbogen -->
        <path d="M-15.9419,-27.1202 A3.4366,3.4366 0 0,1 -15.1391,-27.3899" style="stroke:#000000;stroke-width:0.25;"/>
        <!-- Kreisbogen -->
        <path d="M-15.1391,-27.3899 A5.2053,5.2053 0 0,1 -14.1021,-27.4943" style="stroke:#000000;stroke-width:0.25;"/>
        <!-- Kreisbogen -->
        <path d="M-14.1021,-27.4943 A4.7966,4.7966 0 0,1 -12.6675,-27.2762" style="stroke:#000000;stroke-width:0.25;"/>
        <!-- Kreisbogen -->
        <path d="M-12.6675,-27.2762 A5.3869,5.3869 0 0,1 -11.1985,-26.5187" style="stroke:#000000;stroke-width:0.25;"/>
        <!-- Kreisbogen -->
        <path d="M-11.1985,-26.5187 A11.6231,11.6231 0 0,1 -9.5458,-25.0612" style="stroke:#000000;stroke-width:0.25;"/>
        <!-- Kreisbogen -->
        <path d="M-9.5458,-25.0612 A31.2911,31.2911 0 0,1 -7.5604,-22.7429" style="stroke:#000000;stroke-width:0.25;"/>
        <!-- Linie -->
        <line x1="-7.5604" y1="-22.7429" x2="-7.5604" y2="-7.456" style="stroke:#000000;stroke-width:0.25;"/>
        <!-- Linie -->
        <line x1="-7.5604" y1="-7.456" x2="-3.5665" y2="-7.456" style="stroke:#000000;stroke-width:0.25;"/>
        <!-- Linie -->
        <line x1="-3.5665" y1="-7.456" x2="-3.5665" y2="-30.5011" style="stroke:#000000;stroke-width:0.25;"/>
        <!-- Kreisbogen -->
        <path d="M-45.0147,-19.2081 A18.9973,18.9973 0 0,1 -44.7278,-22.6741" style="stroke:#000000;stroke-width:0.25;"/>
        <!-- Kreisbogen -->
        <path d="M-44.7278,-22.6741 A8.7478,8.7478 0 0,1 -43.8555,-25.2793" style="stroke:#000000;stroke-width:0.25;"/>
        <!-- Kreisbogen -->
        <path d="M-43.8555,-25.2793 A4.4613,4.4613 0 0,1 -42.3865,-26.9204" style="stroke:#000000;stroke-width:0.25;"/>
        <!-- Kreisbogen -->
        <path d="M-42.3865,-26.9204 A3.7288,3.7288 0 0,1 -40.3093,-27.4943" style="stroke:#000000;stroke-width:0.25;"/>
        <!-- Kreisbogen -->
        <path d="M-40.3093,-27.4943 A3.5019,3.5019 0 0,1 -39.5007,-27.3996" style="stroke:#000000;stroke-width:0.25;"/>
        <!-- Kreisbogen -->
        <path d="M-39.5007,-27.3996 A4.8075,4.8075 0 0,1 -38.5991,-27.0884" style="stroke:#000000;stroke-width:0.25;"/>
        <!-- Kreisbogen -->
        <path d="M-38.5991,-27.0884 A5.9271,5.9271 0 0,1 -37.8992,-26.707" style="stroke:#000000;stroke-width:0.25;"/>
        <!-- Kreisbogen -->
        <path d="M-37.8992,-26.707 A8.8506,8.8506 0 0,1 -37.1073,-26.14" style="stroke:#000000;stroke-width:0.25;"/>
        <!-- Kreisbogen -->
        <path d="M-37.1073,-26.14 A12.5489,12.5489 0 0,1 -35.5554,-24.6593" style="stroke:#000000;stroke-width:0.25;"/>
        <!-- Kreisbogen -->
        <path d="M-35.5554,-24.6593 A28.393,28.393 0 0,1 -33.561,-22.1232" style="stroke:#000000;stroke-width:0.25;"/>
        <!-- Linie -->
        <line x1="-33.561" y1="-22.1232" x2="-33.561" y2="-11.4269" style="stroke:#000000;stroke-width:0.25;"/>
        <!-- Kreisbogen -->
        <path d="M-33.561,-11.4269 A10.4886,10.4886 0 0,1 -35.6383,-10.7154" style="stroke:#000000;stroke-width:0.25;"/>
        <!-- Kreisbogen -->
        <path d="M-35.6383,-10.7154 A10.6479,10.6479 0 0,1 -38.1057,-10.4399" style="stroke:#000000;stroke-width:0.25;"/>
        <!-- Kreisbogen -->
        <path d="M-38.1057,-10.4399 A9.0553,9.0553 0 0,1 -39.6824,-10.5783" style="stroke:#000000;stroke-width:0.25;"/>
        <!-- Kreisbogen -->
        <path d="M-39.6824,-10.5783 A6.2896,6.2896 0 0,1 -40.9501,-10.9429" style="stroke:#000000;stroke-width:0.25;"/>
        <!-- Kreisbogen -->
        <path d="M-40.9501,-10.9429 A5.5893,5.5893 0 0,1 -42.2048,-11.652" style="stroke:#000000;stroke-width:0.25;"/>
        <!-- Kreisbogen -->
        <path d="M-42.2048,-11.652 A5.6943,5.6943 0 0,1 -43.2473,-12.6664" style="stroke:#000000;stroke-width:0.25;"/>
        <!-- Kreisbogen -->
        <path d="M-43.2473,-12.6664 A6.3578,6.3578 0 0,1 -44.0546,-13.9861" style="stroke:#000000;stroke-width:0.25;"/>
        <!-- Kreisbogen -->
        <path d="M-44.0546,-13.9861 A9.5541,9.5541 0 0,1 -44.6648,-15.7818" style="stroke:#000000;stroke-width:0.25;"/>
        <!-- Kreisbogen -->
        <path d="M-44.6648,-15.7818 A12.1756,12.1756 0 0,1 -44.9175,-17.2993" style="stroke:#000000;stroke-width:0.25;"/>
        <!-- Kreisbogen -->
        <path d="M-44.9175,-17.2993 A18.7909,18.7909 0 0,1 -45.0147,-19.2081" style="stroke:#000000;stroke-width:0.25;"/>
        <!-- Linie -->
        <line x1="-32.8379" y1="19.6901" x2="-37.9106" y2="35.7345" style="stroke:#000000;stroke-width:0.25;"/>
        <!-- Linie -->
        <line x1="-37.9106" y1="35.7345" x2="-42.9833" y2="19.6901" style="stroke:#000000;stroke-width:0.25;"/>
        <!-- Linie -->
        <line x1="-42.9833" y1="19.6901" x2="-32.8379" y2="19.6901" style="stroke:#000000;stroke-width:0.25;"/>
        <!-- Linie -->
        <line x1="-25.1256" y1="9.4989" x2="-29.5786" y2="9.4989" style="stroke:#000000;stroke-width:0.25;"/>
        <!-- Linie -->
        <line x1="-29.5786" y1="9.4989" x2="-31.6673" y2="16.0406" style="stroke:#000000;stroke-width:0.25;"/>
        <!-- Linie -->
        <line x1="-31.6673" y1="16.0406" x2="-44.1539" y2="16.0406" style="stroke:#000000;stroke-width:0.25;"/>
        <!-- Linie -->
        <line x1="-44.1539" y1="16.0406" x2="-46.2656" y2="9.4989" style="stroke:#000000;stroke-width:0.25;"/>
        <!-- Linie -->
        <line x1="-46.2656" y1="9.4989" x2="-50.512" y2="9.4989" style="stroke:#000000;stroke-width:0.25;"/>
        <!-- Linie -->
        <line x1="-50.512" y1="9.4989" x2="-40.5503" y2="39.4989" style="stroke:#000000;stroke-width:0.25;"/>
        <!-- Linie -->
        <line x1="-40.5503" y1="39.4989" x2="-34.9497" y2="39.4989" style="stroke:#000000;stroke-width:0.25;"/>
        <!-- Linie -->
        <line x1="-34.9497" y1="39.4989" x2="-25.1256" y2="9.4989" style="stroke:#000000;stroke-width:0.25;"/>
        <!-- Kreisbogen -->
        <path d="M23.1801,9.8202 A19.4526,19.4526 0 0,0 20.3798,9.3267" style="stroke:#000000;stroke-width:0.25;"/>
        <!-- Kreisbogen -->
        <path d="M20.3798,9.3267 A28.6112,28.6112 0 0,0 17.4418,9.1775" style="stroke:#000000;stroke-width:0.25;"/>
        <!-- Kreisbogen -->
        <path d="M17.4418,9.1775 A16.9939,16.9939 0 0,0 15.5217,9.2863" style="stroke:#000000;stroke-width:0.25;"/>
        <!-- Kreisbogen -->
        <path d="M15.5217,9.2863 A10.8403,10.8403 0 0,0 14.0116,9.5676" style="stroke:#000000;stroke-width:0.25;"/>
        <!-- Kreisbogen -->
        <path d="M14.0116,9.5676 A8.4948,8.4948 0 0,0 12.2547,10.241" style="stroke:#000000;stroke-width:0.25;"/>
        <!-- Kreisbogen -->
        <path d="M12.2547,10.241 A5.9065,5.9065 0 0,0 10.9689,11.14" style="stroke:#000000;stroke-width:0.25;"/>
        <!-- Kreisbogen -->
        <path d="M10.9689,11.14 A5.5557,5.5557 0 0,0 9.989,12.3321" style="stroke:#000000;stroke-width:0.25;"/>
        <!-- Kreisbogen -->
        <path d="M9.989,12.3321 A7.0428,7.0428 0 0,0 9.2725,13.9149" style="stroke:#000000;stroke-width:0.25;"/>
        <!-- Kreisbogen -->
        <path d="M9.2725,13.9149 A8.7485,8.7485 0 0,0 8.9566,15.3431" style="stroke:#000000;stroke-width:0.25;"/>
        <!-- Kreisbogen -->
        <path d="M8.9566,15.3431 A13.6381,13.6381 0 0,0 8.8343,17.1653" style="stroke:#000000;stroke-width:0.25;"/>
        <!-- Linie -->
        <line x1="8.8343" y1="17.1653" x2="8.8343" y2="29.1928" style="stroke:#000000;stroke-width:0.25;"/>
        <!-- Linie -->
        <line x1="8.8343" y1="29.1928" x2="2.3844" y2="29.1928" style="stroke:#000000;stroke-width:0.25;"/>
        <!-- Linie -->
        <line x1="2.3844" y1="29.1928" x2="2.3844" y2="32.544" style="stroke:#000000;stroke-width:0.25;"/>
        <!-- Linie -->
        <line x1="2.3844" y1="32.544" x2="8.8343" y2="32.544" style="stroke:#000000;stroke-width:0.25;"/>
        <!-- Linie -->
        <line x1="8.8343" y1="32.544" x2="8.8343" y2="38.8791" style="stroke:#000000;stroke-width:0.25;"/>
        <!-- Linie -->
        <line x1="8.8343" y1="38.8791" x2="12.8282" y2="39.912" style="stroke:#000000;stroke-width:0.25;"/>
        <!-- Linie -->
        <line x1="12.8282" y1="39.912" x2="12.8282" y2="32.544" style="stroke:#000000;stroke-width:0.25;"/>
        <!-- Linie -->
        <line x1="12.8282" y1="32.544" x2="23.1801" y2="32.544" style="stroke:#000000;stroke-width:0.25;"/>
        <!-- Linie -->
        <line x1="23.1801" y1="32.544" x2="23.1801" y2="29.1928" style="stroke:#000000;stroke-width:0.25;"/>
        <!-- Linie -->
        <line x1="23.1801" y1="29.1928" x2="12.8282" y2="29.1928" style="stroke:#000000;stroke-width:0.25;"/>
        <!-- Linie -->
        <line x1="12.8282" y1="29.1928" x2="12.8282" y2="17.4866" style="stroke:#000000;stroke-width:0.25;"/>
        <!-- Kreisbogen -->
        <path d="M12.8282,17.4866 A8.232,8.232 0 0,1 12.9044,16.3685" style="stroke:#000000;stroke-width:0.25;"/>
        <!-- Kreisbogen -->
        <path d="M12.9044,16.3685 A5.3521,5.3521 0 0,1 13.1023,15.4868" style="stroke:#000000;stroke-width:0.25;"/>
        <!-- Kreisbogen -->
        <path d="M13.1023,15.4868 A4.3619,4.3619 0 0,1 13.5429,14.5195" style="stroke:#000000;stroke-width:0.25;"/>
        <!-- Kreisbogen -->
        <path d="M13.5429,14.5195 A3.5266,3.5266 0 0,1 14.148,13.7796" style="stroke:#000000;stroke-width:0.25;"/>
        <!-- Kreisbogen -->
        <path d="M14.148,13.7796 A3.7653,3.7653 0 0,1 14.9337,13.2178" style="stroke:#000000;stroke-width:0.25;"/>
        <!-- Kreisbogen -->
        <path d="M14.9337,13.2178 A5.0379,5.0379 0 0,1 15.9708,12.8024" style="stroke:#000000;stroke-width:0.25;"/>
        <!-- Kreisbogen -->
        <path d="M15.9708,12.8024 A6.2593,6.2593 0 0,1 16.8864,12.6212" style="stroke:#000000;stroke-width:0.25;"/>
        <!-- Kreisbogen -->
        <path d="M16.8864,12.6212 A9.572,9.572 0 0,1 18.0386,12.5516" style="stroke:#000000;stroke-width:0.25;"/>
        <!-- Kreisbogen -->
        <path d="M18.0386,12.5516 A18.5755,18.5755 0 0,1 20.4487,12.7238" style="stroke:#000000;stroke-width:0.25;"/>
        <!-- Kreisbogen -->
        <path d="M20.4487,12.7238 A22.9153,22.9153 0 0,1 23.1801,13.2632" style="stroke:#000000;stroke-width:0.25;"/>
        <!-- Linie -->
        <line x1="23.1801" y1="13.2632" x2="23.1801" y2="9.8202" style="stroke:#000000;stroke-width:0.25;"/>
        <!-- Linie -->
        <line x1="-2.7057" y1="9.4989" x2="-6.2865" y2="9.4989" style="stroke:#000000;stroke-width:0.25;"/>
        <!-- Linie -->
        <line x1="-6.2865" y1="9.4989" x2="-6.4242" y2="13.2173" style="stroke:#000000;stroke-width:0.25;"/>
        <!-- Kreisbogen -->
        <path d="M-6.4242,13.2173 A18.6017,18.6017 0 0,0 -8.3867,11.2318" style="stroke:#000000;stroke-width:0.25;"/>
        <!-- Kreisbogen -->
        <path d="M-8.3867,11.2318 A10.1446,10.1446 0 0,0 -10.2344,9.9579" style="stroke:#000000;stroke-width:0.25;"/>
        <!-- Kreisbogen -->
        <path d="M-10.2344,9.9579 A7.1144,7.1144 0 0,0 -12.0822,9.2808" style="stroke:#000000;stroke-width:0.25;"/>
        <!-- Kreisbogen -->
        <path d="M-12.0822,9.2808 A9.5374,9.5374 0 0,0 -14.0447,9.0857" style="stroke:#000000;stroke-width:0.25;"/>
        <!-- Kreisbogen -->
        <path d="M-14.0447,9.0857 A10.7256,10.7256 0 0,0 -15.6757,9.2104" style="stroke:#000000;stroke-width:0.25;"/>
        <!-- Kreisbogen -->
        <path d="M-15.6757,9.2104 A7.1734,7.1734 0 0,0 -16.9732,9.5363" style="stroke:#000000;stroke-width:0.25;"/>
        <!-- Kreisbogen -->
        <path d="M-16.9732,9.5363 A6.0716,6.0716 0 0,0 -18.3336,10.2189" style="stroke:#000000;stroke-width:0.25;"/>
        <!-- Kreisbogen -->
        <path d="M-18.3336,10.2189 A5.4617,5.4617 0 0,0 -19.4158,11.1744" style="stroke:#000000;stroke-width:0.25;"/>
        <!-- Kreisbogen -->
        <path d="M-19.4158,11.1744 A5.7807,5.7807 0 0,0 -20.2459,12.4293" style="stroke:#000000;stroke-width:0.25;"/>
        <!-- Kreisbogen -->
        <path d="M-20.2459,12.4293 A8.6494,8.6494 0 0,0 -20.8723,14.1599" style="stroke:#000000;stroke-width:0.25;"/>
        <!-- Kreisbogen -->
        <path d="M-20.8723,14.1599 A11.1211,11.1211 0 0,0 -21.1296,15.6253" style="stroke:#000000;stroke-width:0.25;"/>
        <!-- Kreisbogen -->
        <path d="M-21.1296,15.6253 A17.4556,17.4556 0 0,0 -21.2291,17.4866" style="stroke:#000000;stroke-width:0.25;"/>
        <!-- Linie -->
        <line x1="-21.2291" y1="17.4866" x2="-21.2291" y2="32.544" style="stroke:#000000;stroke-width:0.25;"/>
        <!-- Linie -->
        <line x1="-21.2291" y1="32.544" x2="-17.2352" y2="32.544" style="stroke:#000000;stroke-width:0.25;"/>
        <!-- Linie -->
        <line x1="-17.2352" y1="32.544" x2="-17.2352" y2="17.808" style="stroke:#000000;stroke-width:0.25;"/>
        <!-- Kreisbogen -->
        <path d="M-17.2352,17.808 A12.6851,12.6851 0 0,1 -17.1923,16.7661" style="stroke:#000000;stroke-width:0.25;"/>
        <!-- Kreisbogen -->
        <path d="M-17.1923,16.7661 A8.4476,8.4476 0 0,1 -17.0798,15.9227" style="stroke:#000000;stroke-width:0.25;"/>
        <!-- Kreisbogen -->
        <path d="M-17.0798,15.9227 A6.6718,6.6718 0 0,1 -16.8067,14.9045" style="stroke:#000000;stroke-width:0.25;"/>
        <!-- Kreisbogen -->
        <path d="M-16.8067,14.9045 A4.2016,4.2016 0 0,1 -16.4497,14.1478" style="stroke:#000000;stroke-width:0.25;"/>
        <!-- Kreisbogen -->
        <path d="M-16.4497,14.1478 A3.4402,3.4402 0 0,1 -15.8383,13.3949" style="stroke:#000000;stroke-width:0.25;"/>
        <!-- Kreisbogen -->
        <path d="M-15.8383,13.3949 A3.0673,3.0673 0 0,1 -15.0811,12.8798" style="stroke:#000000;stroke-width:0.25;"/>
        <!-- Kreisbogen -->
        <path d="M-15.0811,12.8798 A3.4366,3.4366 0 0,1 -14.2783,12.6101" style="stroke:#000000;stroke-width:0.25;"/>
        <!-- Kreisbogen -->
        <path d="M-14.2783,12.6101 A5.2053,5.2053 0 0,1 -13.2413,12.5057" style="stroke:#000000;stroke-width:0.25;"/>
        <!-- Kreisbogen -->
        <path d="M-13.2413,12.5057 A4.7966,4.7966 0 0,1 -11.8067,12.7238" style="stroke:#000000;stroke-width:0.25;"/>
        <!-- Kreisbogen -->
        <path d="M-11.8067,12.7238 A5.3869,5.3869 0 0,1 -10.3377,13.4813" style="stroke:#000000;stroke-width:0.25;"/>
        <!-- Kreisbogen -->
        <path d="M-10.3377,13.4813 A11.6231,11.6231 0 0,1 -8.6851,14.9388" style="stroke:#000000;stroke-width:0.25;"/>
        <!-- Kreisbogen -->
        <path d="M-8.6851,14.9388 A31.2911,31.2911 0 0,1 -6.6996,17.2571" style="stroke:#000000;stroke-width:0.25;"/>
        <!-- Linie -->
        <line x1="-6.6996" y1="17.2571" x2="-6.6996" y2="32.544" style="stroke:#000000;stroke-width:0.25;"/>
        <!-- Linie -->
        <line x1="-6.6996" y1="32.544" x2="-2.7057" y2="32.544" style="stroke:#000000;stroke-width:0.25;"/>
        <!-- Linie -->
        <line x1="-2.7057" y1="32.544" x2="-2.7057" y2="9.4989" style="stroke:#000000;stroke-width:0.25;"/>
        <!-- Kreisbogen -->
        <path d="M46.4263,21.0214 A13.2392,13.2392 0 0,1 45.9558,24.7513" style="stroke:#000000;stroke-width:0.25;"/>
        <!-- Kreisbogen -->
        <path d="M45.9558,24.7513 A7.5126,7.5126 0 0,1 44.613,27.4139" style="stroke:#000000;stroke-width:0.25;"/>
        <!-- Kreisbogen -->
        <path d="M44.613,27.4139 A5.5387,5.5387 0 0,1 42.4898,29.0207" style="stroke:#000000;stroke-width:0.25;"/>
        <!-- Kreisbogen -->
        <path d="M42.4898,29.0207 A6.9734,6.9734 0 0,1 39.701,29.5601" style="stroke:#000000;stroke-width:0.25;"/>
        <!-- Kreisbogen -->
        <path d="M39.701,29.5601 A6.2755,6.2755 0 0,1 36.6367,28.86" style="stroke:#000000;stroke-width:0.25;"/>
        <!-- Kreisbogen -->
        <path d="M36.6367,28.86 A6.0675,6.0675 0 0,1 34.548,26.9893" style="stroke:#000000;stroke-width:0.25;"/>
        <!-- Kreisbogen -->
        <path d="M34.548,26.9893 A8.0608,8.0608 0 0,1 33.3544,24.2693" style="stroke:#000000;stroke-width:0.25;"/>
        <!-- Kreisbogen -->
        <path d="M33.3544,24.2693 A13.6332,13.6332 0 0,1 32.9757,21.0214" style="stroke:#000000;stroke-width:0.25;"/>
        <!-- Kreisbogen -->
        <path d="M32.9757,21.0214 A13.3619,13.3619 0 0,1 33.4462,17.28" style="stroke:#000000;stroke-width:0.25;"/>
        <!-- Kreisbogen -->
        <path d="M33.4462,17.28 A7.5052,7.5052 0 0,1 34.789,14.606" style="stroke:#000000;stroke-width:0.25;"/>
        <!-- Kreisbogen -->
        <path d="M34.789,14.606 A5.5593,5.5593 0 0,1 36.9007,12.9992" style="stroke:#000000;stroke-width:0.25;"/>
        <!-- Kreisbogen -->
        <path d="M36.9007,12.9992 A6.9512,6.9512 0 0,1 39.701,12.4598" style="stroke:#000000;stroke-width:0.25;"/>
        <!-- Kreisbogen -->
        <path d="M39.701,12.4598 A6.2755,6.2755 0 0,1 42.7653,13.1599" style="stroke:#000000;stroke-width:0.25;"/>
        <!-- Kreisbogen -->
        <path d="M42.7653,13.1599 A6.0675,6.0675 0 0,1 44.854,15.0306" style="stroke:#000000;stroke-width:0.25;"/>
        <!-- Kreisbogen -->
        <path d="M44.854,15.0306 A8.0608,8.0608 0 0,1 46.0476,17.7506" style="stroke:#000000;stroke-width:0.25;"/>
        <!-- Kreisbogen -->
        <path d="M46.0476,17.7506 A13.7331,13.7331 0 0,1 46.4263,21.0214" style="stroke:#000000;stroke-width:0.25;"/>
        <!-- Kreisbogen -->
        <path d="M50.512,21.205 A15.2776,15.2776 0 0,0 49.7546,16.2816" style="stroke:#000000;stroke-width:0.25;"/>
        <!-- Kreisbogen -->
        <path d="M49.7546,16.2816 A10.9533,10.9533 0 0,0 47.574,12.4484" style="stroke:#000000;stroke-width:0.25;"/>
        <!-- Kreisbogen -->
        <path d="M47.574,12.4484 A9.7822,9.7822 0 0,0 44.108,9.9694" style="stroke:#000000;stroke-width:0.25;"/>
        <!-- Kreisbogen -->
        <path d="M44.108,9.9694 A11.5731,11.5731 0 0,0 39.4715,9.0857" style="stroke:#000000;stroke-width:0.25;"/>
        <!-- Kreisbogen -->
        <path d="M39.4715,9.0857 A12.0965,12.0965 0 0,0 35.03,9.8546" style="stroke:#000000;stroke-width:0.25;"/>
        <!-- Kreisbogen -->
        <path d="M35.03,9.8546 A8.7874,8.7874 0 0,0 31.7018,12.1155" style="stroke:#000000;stroke-width:0.25;"/>
        <!-- Kreisbogen -->
        <path d="M31.7018,12.1155 A10.0062,10.0062 0 0,0 29.613,15.811" style="stroke:#000000;stroke-width:0.25;"/>
        <!-- Kreisbogen -->
        <path d="M29.613,15.811 A16.2662,16.2662 0 0,0 28.89,20.8837" style="stroke:#000000;stroke-width:0.25;"/>
        <!-- Kreisbogen -->
        <path d="M28.89,20.8837 A15.0693,15.0693 0 0,0 29.6474,25.7842" style="stroke:#000000;stroke-width:0.25;"/>
        <!-- Kreisbogen -->
        <path d="M29.6474,25.7842 A10.9866,10.9866 0 0,0 31.828,29.5945" style="stroke:#000000;stroke-width:0.25;"/>
        <!-- Kreisbogen -->
        <path d="M31.828,29.5945 A9.7822,9.7822 0 0,0 35.294,32.0735" style="stroke:#000000;stroke-width:0.25;"/>
        <!-- Kreisbogen -->
        <path d="M35.294,32.0735 A11.5731,11.5731 0 0,0 39.9305,32.9572" style="stroke:#000000;stroke-width:0.25;"/>
        <!-- Kreisbogen -->
        <path d="M39.9305,32.9572 A12.0965,12.0965 0 0,0 44.372,32.1882" style="stroke:#000000;stroke-width:0.25;"/>
        <!-- Kreisbogen -->
        <path d="M44.372,32.1882 A8.8491,8.8491 0 0,0 47.7002,29.9388" style="stroke:#000000;stroke-width:0.25;"/>
        <!-- Kreisbogen -->
        <path d="M47.7002,29.9388 A9.8945,9.8945 0 0,0 49.789,26.2548" style="stroke:#000000;stroke-width:0.25;"/>
        <!-- Kreisbogen -->
        <path d="M49.789,26.2548 A16.1838,16.1838 0 0,0 50.512,21.205" style="stroke:#000000;stroke-width:0.25;"/>
        <!-- Schraffur -->
        <path d="M-35.5554,-24.6593 A28.393,28.393 0 0 1 -33.561,-22.1232 L-33.561,-11.4269 A10.4886,10.4886 0 0 1 -35.6383,-10.7154 A10.6479,10.6479 0 0 1 -38.1057,-10.4399 A9.05528,9.05528 0 0 1 -39.6824,-10.5783 A6.28955,6.28955 0 0 1 -40.9501,-10.9429 A5.58932,5.58932 0 0 1 -42.2048,-11.652 A5.69428,5.69428 0 0 1 -43.2473,-12.6664 A6.35784,6.35784 0 0 1 -44.0546,-13.9861 A9.55413,9.55413 0 0 1 -44.6648,-15.7818 A12.1756,12.1756 0 0 1 -44.9175,-17.2993 A18.7909,18.7909 0 0 1 -45.0147,-19.2081 A18.9973,18.9973 0 0 1 -44.7278,-22.6741 A8.74776,8.74776 0 0 1 -43.8555,-25.2793 A4.4613,4.4613 0 0 1 -42.3865,-26.9204 A3.72882,3.72882 0 0 1 -40.3093,-27.4943 A3.50192,3.50192 0 0 1 -39.5007,-27.3996 A4.80755,4.80755 0 0 1 -38.5991,-27.0884 A5.9271,5.9271 0 0 1 -37.8992,-26.707 A8.85057,8.85057 0 0 1 -37.1073,-26.14 A12.5489,12.5489 0 0 1 -35.5554,-24.6593M-7.5604,-22.7429 L-7.5604,-7.456 L-3.5665,-7.456 L-3.5665,-30.5011 L-7.1472,-30.5011 L-7.2849,-26.7827 A18.6017,18.6017 0 0 0 -9.2474,-28.7682 A10.1446,10.1446 0 0 0 -11.0952,-30.0421 A7.11445,7.11445 0 0 0 -12.9429,-30.7192 A9.53741,9.53741 0 0 0 -14.9054,-30.9143 A10.7256,10.7256 0 0 0 -16.5365,-30.7896 A7.17344,7.17344 0 0 0 -17.8339,-30.4637 A6.07157,6.07157 0 0 0 -19.1943,-29.7811 A5.46167,5.46167 0 0 0 -20.2765,-28.8256 A5.7807,5.7807 0 0 0 -21.1066,-27.5707 A8.64939,8.64939 0 0 0 -21.7331,-25.8401 A11.1211,11.1211 0 0 0 -21.9903,-24.3747 A17.4556,17.4556 0 0 0 -22.0898,-22.5134 L-22.0898,-7.456 L-18.0959,-7.456 L-18.0959,-22.192 A12.6851,12.6851 0 0 1 -18.0531,-23.2339 A8.44763,8.44763 0 0 1 -17.9406,-24.0773 A6.67178,6.67178 0 0 1 -17.6674,-25.0955 A4.20159,4.20159 0 0 1 -17.3104,-25.8522 A3.44021,3.44021 0 0 1 -16.699,-26.6051 A3.06731,3.06731 0 0 1 -15.9419,-27.1202 A3.4366,3.4366 0 0 1 -15.1391,-27.3899 A5.20525,5.20525 0 0 1 -14.1021,-27.4943 A4.79664,4.79664 0 0 1 -12.6675,-27.2762 A5.38689,5.38689 0 0 1 -11.1985,-26.5187 A11.6231,11.6231 0 0 1 -9.5458,-25.0612 A31.2911,31.2911 0 0 1 -7.5604,-22.7429M14.9363,-10.6837 A6.60689,6.60689 0 0 1 14.0043,-10.508 A10.3955,10.3955 0 0 1 12.8167,-10.4399 A17.076,17.076 0 0 1 8.972,-10.8761 A27.0246,27.0246 0 0 1 5.0585,-12.1155 L5.0585,-8.5119 A24.7145,24.7145 0 0 0 6.7455,-7.9725 A25.4902,25.4902 0 0 0 8.708,-7.5019 A25.5191,25.5191 0 0 0 10.8656,-7.1691 A20.3564,20.3564 0 0 0 13.138,-7.0428 A14.2512,14.2512 0 0 0 16.9024,-7.5019 A7.63376,7.63376 0 0 0 19.7371,-8.9021 A6.16153,6.16153 0 0 0 21.516,-11.2663 A8.34342,8.34342 0 0 0 22.1357,-14.6174 L22.1357,-30.5011 L18.555,-30.5011 L18.4632,-27.4024 A15.692,15.692 0 0 0 16.4576,-29.0777 A9.92432,9.92432 0 0 0 14.6415,-30.088 A10.2885,10.2885 0 0 0 10.5673,-30.9143 A9.98157,9.98157 0 0 0 7.1931,-30.4093 A6.32215,6.32215 0 0 0 4.8863,-29.0207 A5.38324,5.38324 0 0 0 3.555,-26.9434 A7.68554,7.68554 0 0 0 3.1304,-24.3497 A8.30127,8.30127 0 0 0 3.2985,-22.6873 A6.23215,6.23215 0 0 0 3.7512,-21.3122 A5.94778,5.94778 0 0 0 4.548,-20.0433 A6.92984,6.92984 0 0 0 5.7126,-18.9212 A7.36818,7.36818 0 0 0 7.2453,-18.025 A11.567,11.567 0 0 0 9.3623,-17.3422 A14.9044,14.9044 0 0 0 11.1239,-17.0654 A23.1671,23.1671 0 0 0 13.3446,-16.9587 L18.1189,-16.9587 L18.1189,-14.9388 A5.75984,5.75984 0 0 1 18.0368,-13.9698 A4.29669,4.29669 0 0 1 17.8152,-13.1596 A3.94803,3.94803 0 0 1 17.4016,-12.3627 A4.07494,4.07494 0 0 1 16.8106,-11.6679 A3.6037,3.6037 0 0 1 16.0198,-11.105 A5.16873,5.16873 0 0 1 14.9363,-10.6837M18.1189,-24.0972 L18.1189,-20.0115 L13.0462,-20.0115 A9.72631,9.72631 0 0 1 10.4754,-20.3099 A4.87913,4.87913 0 0 1 8.708,-21.1591 A3.40842,3.40842 0 0 1 7.6866,-22.479 A4.32146,4.32146 0 0 1 7.3538,-24.2119 A3.93413,3.93413 0 0 1 7.5604,-25.4858 A2.83341,2.83341 0 0 1 8.226,-26.5647 A3.21295,3.21295 0 0 1 9.4196,-27.3106 A5.1204,5.1204 0 0 1 11.2099,-27.5861 A5.21554,5.21554 0 0 1 12.5481,-27.4115 A10.7247,10.7247 0 0 1 14.366,-26.7483 A11.1527,11.1527 0 0 1 16.049,-25.7677 A20.7987,20.7987 0 0 1 18.1189,-24.0972M-6.2865,9.4989 L-6.4242,13.2173 A18.6017,18.6017 0 0 0 -8.3867,11.2318 A10.1446,10.1446 0 0 0 -10.2344,9.9579 A7.11445,7.11445 0 0 0 -12.0822,9.2808 A9.53741,9.53741 0 0 0 -14.0447,9.0857 A10.7256,10.7256 0 0 0 -15.6757,9.2104 A7.17344,7.17344 0 0 0 -16.9732,9.5363 A6.07157,6.07157 0 0 0 -18.3336,10.2189 A5.46167,5.46167 0 0 0 -19.4158,11.1744 A5.7807,5.7807 0 0 0 -20.2459,12.4293 A8.64939,8.64939 0 0 0 -20.8723,14.1599 A11.1211,11.1211 0 0 0 -21.1296,15.6253 A17.4556,17.4556 0 0 0 -21.2291,17.4866 L-21.2291,32.544 L-17.2352,32.544 L-17.2352,17.808 A12.6851,12.6851 0 0 1 -17.1923,16.7661 A8.44763,8.44763 0 0 1 -17.0798,15.9227 A6.67178,6.67178 0 0 1 -16.8067,14.9045 A4.20159,4.20159 0 0 1 -16.4497,14.1478 A3.44021,3.44021 0 0 1 -15.8383,13.3949 A3.06731,3.06731 0 0 1 -15.0811,12.8798 A3.4366,3.4366 0 0 1 -14.2783,12.6101 A5.20525,5.20525 0 0 1 -13.2413,12.5057 A4.79664,4.79664 0 0 1 -11.8067,12.7238 A5.38689,5.38689 0 0 1 -10.3377,13.4813 A11.6231,11.6231 0 0 1 -8.6851,14.9388 A31.2911,31.2911 0 0 1 -6.6996,17.2571 L-6.6996,32.544 L-2.7057,32.544 L-2.7057,9.4989 ZM14.148,13.7796 A3.76525,3.76525 0 0 1 14.9337,13.2178 A5.03787,5.03787 0 0 1 15.9708,12.8024 A6.25931,6.25931 0 0 1 16.8864,12.6212 A9.57196,9.57196 0 0 1 18.0386,12.5516 A18.5755,18.5755 0 0 1 20.4487,12.7238 A22.9153,22.9153 0 0 1 23.1801,13.2632 L23.1801,9.8202 A19.4526,19.4526 0 0 0 20.3798,9.3267 A28.6112,28.6112 0 0 0 17.4418,9.1775 A16.9939,16.9939 0 0 0 15.5217,9.2863 A10.8403,10.8403 0 0 0 14.0116,9.5676 A8.49479,8.49479 0 0 0 12.2547,10.241 A5.90653,5.90653 0 0 0 10.9689,11.14 A5.5557,5.5557 0 0 0 9.989,12.3321 A7.04282,7.04282 0 0 0 9.2725,13.9149 A8.74852,8.74852 0 0 0 8.9566,15.3431 A13.6381,13.6381 0 0 0 8.8343,17.1653 L8.8343,29.1928 L2.3844,29.1928 L2.3844,32.544 L8.8343,32.544 L8.8343,38.8791 L12.8282,39.912 L12.8282,32.544 L23.1801,32.544 L23.1801,29.1928 L12.8282,29.1928 L12.8282,17.4866 A8.23203,8.23203 0 0 1 12.9044,16.3685 A5.35207,5.35207 0 0 1 13.1023,15.4868 A4.36193,4.36193 0 0 1 13.5429,14.5195 A3.52658,3.52658 0 0 1 14.148,13.7796M-29.5786,9.4989 L-31.6673,16.0406 L-44.1539,16.0406 L-46.2656,9.4989 L-50.512,9.4989 L-40.5503,39.4989 L-34.9497,39.4989 L-25.1256,9.4989 ZM62.3389,-10.7383 A5.44388,5.44388 0 0 1 60.4797,-12.1614 A7.35124,7.35124 0 0 1 59.2173,-14.365 A10.1597,10.1597 0 0 1 58.6205,-17.1882 L70.7399,-17.1882 A8.70668,8.70668 0 0 1 70.4415,-14.3764 A5.91863,5.91863 0 0 1 69.3053,-12.1844 A5.29207,5.29207 0 0 1 67.3887,-10.7498 A6.43273,6.43273 0 0 1 64.7261,-10.2334 A5.56119,5.56119 0 0 1 62.3389,-10.7383M-32.8379,19.6901 L-37.9106,35.7345 L-42.9833,19.6901 ZM34.5709,-15.6963 L34.5709,-30.5011 L30.5311,-30.5011 L30.5311,-7.456 L34.1807,-7.456 L34.2955,-11.7024 A20.5929,20.5929 0 0 0 36.4955,-9.4361 A10.3431,10.3431 0 0 0 38.3238,-8.1446 A8.17946,8.17946 0 0 0 42.3292,-7.0428 A9.78045,9.78045 0 0 0 43.9949,-7.1857 A6.71029,6.71029 0 0 0 45.3278,-7.5611 A5.89426,5.89426 0 0 0 46.6617,-8.3033 A5.86853,5.86853 0 0 0 47.7576,-9.3611 A6.26139,6.26139 0 0 0 48.5935,-10.7446 A9.53782,9.53782 0 0 0 49.2007,-12.6449 A12.3081,12.3081 0 0 0 49.4235,-14.2349 A19.341,19.341 0 0 0 49.4676,-16.2471 L45.4279,-16.2471 A16.4681,16.4681 0 0 1 45.4071,-14.9654 A9.91226,9.91226 0 0 1 45.3025,-13.9764 A7.12052,7.12052 0 0 1 44.9741,-12.6857 A3.53561,3.53561 0 0 1 44.5441,-11.8516 A3.32813,3.32813 0 0 1 43.9839,-11.2317 A2.89803,2.89803 0 0 1 43.3297,-10.8076 A3.11129,3.11129 0 0 1 42.6269,-10.574 A4.3528,4.3528 0 0 1 41.7553,-10.4858 A4.84777,4.84777 0 0 1 40.1371,-10.7728 A6.53791,6.53791 0 0 1 38.4615,-11.6909 A15.0103,15.0103 0 0 1 36.6367,-13.3091 A29.8769,29.8769 0 0 1 34.5709,-15.6963M57.1859,-10.6121 A9.82019,9.82019 0 0 0 60.4797,-8.0069 A9.86888,9.86888 0 0 0 64.9097,-7.0428 A11.2445,11.2445 0 0 0 69.179,-7.8003 A8.57269,8.57269 0 0 0 72.3122,-9.9464 A9.15003,9.15003 0 0 0 74.2402,-13.3206 A14.1451,14.1451 0 0 0 74.8944,-17.7621 A36.635,36.635 0 0 0 74.8715,-19.1852 A21.3904,21.3904 0 0 0 74.8026,-20.264 L58.6205,-20.264 A11.2822,11.2822 0 0 1 58.7378,-21.8865 A7.68165,7.68165 0 0 1 59.0462,-23.1929 A6.51756,6.51756 0 0 1 59.6937,-24.5794 A5.70707,5.70707 0 0 1 60.5945,-25.6924 A5.79337,5.79337 0 0 1 61.7584,-26.5574 A7.20431,7.20431 0 0 1 63.2471,-27.189 A8.71798,8.71798 0 0 1 64.6,-27.4764 A13.0223,13.0223 0 0 1 66.2869,-27.5861 A25.4632,25.4632 0 0 1 68.3068,-27.5057 A29.7956,29.7956 0 0 1 70.2578,-27.2877 A35.142,35.142 0 0 1 72.0597,-26.9778 A21.4329,21.4329 0 0 1 73.6549,-26.5991 L73.6549,-29.8814 A27.8814,27.8814 0 0 0 69.9709,-30.6274 A30.7617,30.7617 0 0 0 65.7131,-30.9143 A18.7458,18.7458 0 0 0 62.7937,-30.6856 A11.0756,11.0756 0 0 0 60.6174,-30.1109 A8.72163,8.72163 0 0 0 57.1171,-27.7812 A9.59216,9.59216 0 0 0 55.0972,-24.0398 A17.7059,17.7059 0 0 0 54.443,-19.0245 A14.893,14.893 0 0 0 55.1431,-14.4223 A11.5528,11.5528 0 0 0 57.1859,-10.6121M-59.5272,-15.306 A11.7371,11.7371 0 0 0 -57.0138,-16.9931 A7.83395,7.83395 0 0 0 -55.2349,-19.277 A6.65911,6.65911 0 0 0 -54.5578,-22.3757 A7.72173,7.72173 0 0 0 -55.43,-26.1171 A7.60004,7.60004 0 0 0 -57.863,-28.7911 A11.2554,11.2554 0 0 0 -61.6159,-30.3864 A20.6382,20.6382 0 0 0 -66.4476,-30.9143 A30.6675,30.6675 0 0 0 -68.8233,-30.8225 A47.4967,47.4967 0 0 0 -71.0956,-30.593 A33.3082,33.3082 0 0 0 -73.15,-30.2716 A25.5169,25.5169 0 0 0 -74.8944,-29.8814 L-74.8944,-25.9334 A21.3817,21.3817 0 0 1 -71.0268,-26.9434 A29.1235,29.1235 0 0 1 -66.1492,-27.3106 A15.6788,15.6788 0 0 1 -62.7865,-27.0008 A6.47196,6.47196 0 0 1 -60.5142,-26.0826 A3.64307,3.64307 0 0 1 -59.2288,-24.6021 A4.72444,4.72444 0 0 1 -58.8271,-22.6052 A3.25699,3.25699 0 0 1 -59.5042,-20.5279 A6.67616,6.67616 0 0 1 -61.2831,-18.9901 A16.3656,16.3656 0 0 1 -63.7965,-17.7506 A458.216,458.216 0 0 0 -66.6771,-16.5914 A42.3952,42.3952 0 0 0 -69.5578,-15.2946 A11.9108,11.9108 0 0 0 -72.0712,-13.6419 A7.64172,7.64172 0 0 0 -73.85,-11.404 A6.46629,6.46629 0 0 0 -74.5272,-8.3512 A7.59358,7.59358 0 0 0 -73.8845,-5.3213 A7.25827,7.25827 0 0 0 -71.8875,-2.6702 A10.3385,10.3385 0 0 0 -68.4101,-0.7995 A12.0773,12.0773 0 0 0 -66.2538,-0.2912 A20.8653,20.8653 0 0 0 -63.3489,-0.088 A21.2181,21.2181 0 0 0 -61.7077,-0.1568 A29.7292,29.7292 0 0 0 -59.9174,-0.352 A43.6904,43.6904 0 0 0 -58.127,-0.6389 A29.0279,29.0279 0 0 0 -56.4858,-0.9832 L-56.4858,-4.6557 A27.8116,27.8116 0 0 1 -60.0207,-3.8868 A23.1533,23.1533 0 0 1 -63.4407,-3.6228 A18.6654,18.6654 0 0 1 -64.9446,-3.6835 A11.5087,11.5087 0 0 1 -66.1161,-3.8391 A8.4858,8.4858 0 0 1 -67.6066,-4.2592 A4.53897,4.53897 0 0 1 -68.6052,-4.7934 A3.66492,3.66492 0 0 1 -70.2578,-7.938 A3.30456,3.30456 0 0 1 -69.5807,-10.0268 A6.73856,6.73856 0 0 1 -67.8018,-11.5876 A15.7028,15.7028 0 0 1 -65.2884,-12.8386 A458.216,458.216 0 0 0 -62.4078,-13.9977 A39.0488,39.0488 0 0 0 -59.5272,-15.306M-44.6245,-30.088 A7.05997,7.05997 0 0 0 -47.1149,-27.7467 A11.1425,11.1425 0 0 0 -48.6069,-24.1201 A20.4874,20.4874 0 0 0 -49.1004,-19.4606 A16.6098,16.6098 0 0 0 -48.4462,-14.7552 A11.1309,11.1309 0 0 0 -46.4263,-10.8416 A9.60626,9.60626 0 0 0 -42.9259,-8.1676 A9.56734,9.56734 0 0 0 -40.7301,-7.4588 A15.2491,15.2491 0 0 0 -37.8303,-7.1806 A14.6504,14.6504 0 0 0 -35.512,-7.3642 A18.4361,18.4361 0 0 0 -33.079,-7.938 L-29.5441,-7.0428 L-29.5441,-39.912 L-33.561,-39.912 L-33.561,-31.2127 L-33.3544,-26.2777 A15.2159,15.2159 0 0 0 -35.0315,-28.2749 A9.837,9.837 0 0 0 -36.6624,-29.5929 A8.34056,8.34056 0 0 0 -38.8095,-30.5796 A8.09109,8.09109 0 0 0 -41.1126,-30.9143 A7.13549,7.13549 0 0 0 -44.6245,-30.088M29.6474,25.7842 A10.9866,10.9866 0 0 0 31.828,29.5945 A9.78223,9.78223 0 0 0 35.294,32.0735 A11.5731,11.5731 0 0 0 39.9305,32.9572 A12.0965,12.0965 0 0 0 44.372,32.1882 A8.84913,8.84913 0 0 0 47.7002,29.9388 A9.8945,9.8945 0 0 0 49.789,26.2548 A16.1838,16.1838 0 0 0 50.512,21.205 A15.2776,15.2776 0 0 0 49.7546,16.2816 A10.9533,10.9533 0 0 0 47.574,12.4484 A9.78223,9.78223 0 0 0 44.108,9.9694 A11.5731,11.5731 0 0 0 39.4715,9.0857 A12.0965,12.0965 0 0 0 35.03,9.8546 A8.78736,8.78736 0 0 0 31.7018,12.1155 A10.0062,10.0062 0 0 0 29.613,15.811 A16.2662,16.2662 0 0 0 28.89,20.8837 A15.0693,15.0693 0 0 0 29.6474,25.7842M33.4462,17.28 A7.50523,7.50523 0 0 1 34.789,14.606 A5.55931,5.55931 0 0 1 36.9007,12.9992 A6.95122,6.95122 0 0 1 39.701,12.4598 A6.27548,6.27548 0 0 1 42.7653,13.1599 A6.06747,6.06747 0 0 1 44.854,15.0306 A8.06076,8.06076 0 0 1 46.0476,17.7506 A13.7331,13.7331 0 0 1 46.4263,21.0214 A13.2392,13.2392 0 0 1 45.9558,24.7513 A7.51257,7.51257 0 0 1 44.613,27.4139 A5.53868,5.53868 0 0 1 42.4898,29.0207 A6.9734,6.9734 0 0 1 39.701,29.5601 A6.27548,6.27548 0 0 1 36.6367,28.86 A6.06747,6.06747 0 0 1 34.548,26.9893 A8.06076,8.06076 0 0 1 33.3544,24.2693 A13.6332,13.6332 0 0 1 32.9757,21.0214 A13.3619,13.3619 0 0 1 33.4462,17.28" style="fill:#000000;fill-rule:evenodd;"/>
    </g>
</svg>
