<?xml version="1.0" encoding="UTF-8"?>
<!-- 2020-10-26 22:25:01 Generated by QCAD 3.24.2 SVG Exporter PG -->
<svg width="212mm" height="212mm" viewBox="-106 -106 212 212" version="1.1" xmlns="http://www.w3.org/2000/svg" style="stroke-linecap:round;stroke-linejoin:round;fill:none">
    <g transform="scale(1,-1)">
        <!-- Linie -->
        <line x1="-67.5" y1="0" x2="-52.5" y2="10" style="stroke:#000000;stroke-width:2;"/>
        <!-- Linie -->
        <line x1="-7.5" y1="0" x2="7.5" y2="10" style="stroke:#000000;stroke-width:2;"/>
        <!-- Linie -->
        <line x1="52.5" y1="0" x2="67.5" y2="10" style="stroke:#000000;stroke-width:2;"/>
        <!-- Linie -->
        <line x1="-67.5" y1="-90" x2="-52.5" y2="-80" style="stroke:#000000;stroke-width:2;"/>
        <!-- Linie -->
        <line x1="-7.5" y1="-90" x2="7.5" y2="-80" style="stroke:#000000;stroke-width:2;"/>
        <!-- Linie -->
        <line x1="52.5" y1="-90" x2="67.5" y2="-80" style="stroke:#000000;stroke-width:2;"/>
        <!-- Linie -->
        <line x1="-67.5" y1="5" x2="-52.5" y2="15" style="stroke:#000000;stroke-width:2;"/>
        <!-- Linie -->
        <line x1="-7.5" y1="5" x2="7.5" y2="15" style="stroke:#000000;stroke-width:2;"/>
        <!-- Linie -->
        <line x1="52.5" y1="5" x2="67.5" y2="15" style="stroke:#000000;stroke-width:2;"/>
        <!-- Linie -->
        <line x1="-67.5" y1="-85" x2="-52.5" y2="-75" style="stroke:#000000;stroke-width:2;"/>
        <!-- Linie -->
        <line x1="-7.5" y1="-85" x2="7.5" y2="-75" style="stroke:#000000;stroke-width:2;"/>
        <!-- Linie -->
        <line x1="52.5" y1="-85" x2="67.5" y2="-75" style="stroke:#000000;stroke-width:2;"/>
        <!-- Linie -->
        <line x1="-67.5" y1="10" x2="-52.5" y2="20" style="stroke:#000000;stroke-width:2;"/>
        <!-- Linie -->
        <line x1="-7.5" y1="10" x2="7.5" y2="20" style="stroke:#000000;stroke-width:2;"/>
        <!-- Linie -->
        <line x1="52.5" y1="10" x2="67.5" y2="20" style="stroke:#000000;stroke-width:2;"/>
        <!-- Linie -->
        <line x1="-67.5" y1="-80" x2="-52.5" y2="-70" style="stroke:#000000;stroke-width:2;"/>
        <!-- Linie -->
        <line x1="-7.5" y1="-80" x2="7.5" y2="-70" style="stroke:#000000;stroke-width:2;"/>
        <!-- Linie -->
        <line x1="52.5" y1="-80" x2="67.5" y2="-70" style="stroke:#000000;stroke-width:2;"/>
        <!-- Linie -->
        <line x1="-60" y1="0" x2="-52.5" y2="5" style="stroke:#000000;stroke-width:2;"/>
        <!-- Linie -->
        <line x1="0" y1="0" x2="7.5" y2="5" style="stroke:#000000;stroke-width:2;"/>
        <!-- Linie -->
        <line x1="60" y1="0" x2="67.5" y2="5" style="stroke:#000000;stroke-width:2;"/>
        <!-- Linie -->
        <line x1="-60" y1="-90" x2="-52.5" y2="-85" style="stroke:#000000;stroke-width:2;"/>
        <!-- Linie -->
        <line x1="0" y1="-90" x2="7.5" y2="-85" style="stroke:#000000;stroke-width:2;"/>
        <!-- Linie -->
        <line x1="60" y1="-90" x2="67.5" y2="-85" style="stroke:#000000;stroke-width:2;"/>
        <!-- Schraffur -->
        <path d="M100,-85.5 L100,85.5 A14.5,14.5 0 0 1 85.5,100 L-85.5,100 A14.5,14.5 0 0 1 -100,85.5 L-100,-85.5 A14.5,14.5 0 0 1 -85.5,-100 L85.5,-100 A14.5,14.5 0 0 1 100,-85.5M-85.5,95 A9.5,9.5 0 0 1 -95,85.5 L-95,-85.5 A9.5,9.5 0 0 1 -85.5,-95 L85.5,-95 A9.5,9.5 0 0 1 95,-85.5 L95,85.5 A9.5,9.5 0 0 1 85.5,95 Z" style="fill:#000000;fill-rule:evenodd;"/>
        <!-- Linie -->
        <line x1="-67.5" y1="20" x2="-63.75" y2="22.5" style="stroke:#000000;stroke-width:2;"/>
        <!-- Linie -->
        <line x1="-7.5" y1="20" x2="-3.75" y2="22.5" style="stroke:#000000;stroke-width:2;"/>
        <!-- Linie -->
        <line x1="52.5" y1="20" x2="56.25" y2="22.5" style="stroke:#000000;stroke-width:2;"/>
        <!-- Linie -->
        <line x1="-67.5" y1="-70" x2="-63.75" y2="-67.5" style="stroke:#000000;stroke-width:2;"/>
        <!-- Linie -->
        <line x1="-7.5" y1="-70" x2="-3.75" y2="-67.5" style="stroke:#000000;stroke-width:2;"/>
        <!-- Linie -->
        <line x1="52.5" y1="-70" x2="56.25" y2="-67.5" style="stroke:#000000;stroke-width:2;"/>
        <!-- Linie -->
        <line x1="-67.5" y1="15" x2="-56.25" y2="22.5" style="stroke:#000000;stroke-width:2;"/>
        <!-- Linie -->
        <line x1="-7.5" y1="15" x2="3.75" y2="22.5" style="stroke:#000000;stroke-width:2;"/>
        <!-- Linie -->
        <line x1="52.5" y1="15" x2="63.75" y2="22.5" style="stroke:#000000;stroke-width:2;"/>
        <!-- Linie -->
        <line x1="-67.5" y1="-75" x2="-56.25" y2="-67.5" style="stroke:#000000;stroke-width:2;"/>
        <!-- Linie -->
        <line x1="-7.5" y1="-75" x2="3.75" y2="-67.5" style="stroke:#000000;stroke-width:2;"/>
        <!-- Linie -->
        <line x1="52.5" y1="-75" x2="63.75" y2="-67.5" style="stroke:#000000;stroke-width:2;"/>
        <!-- Linie -->
        <line x1="-67.5" y1="0" x2="-52.5" y2="0" style="stroke:#000000;stroke-width:2;"/>
        <!-- Linie -->
        <line x1="-7.5" y1="0" x2="7.5" y2="0" style="stroke:#000000;stroke-width:2;"/>
        <!-- Linie -->
        <line x1="52.5" y1="0" x2="67.5" y2="0" style="stroke:#000000;stroke-width:2;"/>
        <!-- Linie -->
        <line x1="-67.5" y1="-90" x2="-52.5" y2="-90" style="stroke:#000000;stroke-width:2;"/>
        <!-- Linie -->
        <line x1="-7.5" y1="-90" x2="7.5" y2="-90" style="stroke:#000000;stroke-width:2;"/>
        <!-- Linie -->
        <line x1="52.5" y1="-90" x2="67.5" y2="-90" style="stroke:#000000;stroke-width:2;"/>
        <!-- Linie -->
        <line x1="-67.5" y1="0" x2="-67.5" y2="22.5" style="stroke:#000000;stroke-width:2;"/>
        <!-- Linie -->
        <line x1="-7.5" y1="0" x2="-7.5" y2="22.5" style="stroke:#000000;stroke-width:2;"/>
        <!-- Linie -->
        <line x1="52.5" y1="0" x2="52.5" y2="22.5" style="stroke:#000000;stroke-width:2;"/>
        <!-- Linie -->
        <line x1="-67.5" y1="-90" x2="-67.5" y2="-67.5" style="stroke:#000000;stroke-width:2;"/>
        <!-- Linie -->
        <line x1="-7.5" y1="-90" x2="-7.5" y2="-67.5" style="stroke:#000000;stroke-width:2;"/>
        <!-- Linie -->
        <line x1="52.5" y1="-90" x2="52.5" y2="-67.5" style="stroke:#000000;stroke-width:2;"/>
        <!-- Linie -->
        <line x1="-52.5" y1="0" x2="-52.5" y2="22.5" style="stroke:#000000;stroke-width:2;"/>
        <!-- Linie -->
        <line x1="7.5" y1="0" x2="7.5" y2="22.5" style="stroke:#000000;stroke-width:2;"/>
        <!-- Linie -->
        <line x1="67.5" y1="0" x2="67.5" y2="22.5" style="stroke:#000000;stroke-width:2;"/>
        <!-- Linie -->
        <line x1="-52.5" y1="-90" x2="-52.5" y2="-67.5" style="stroke:#000000;stroke-width:2;"/>
        <!-- Linie -->
        <line x1="7.5" y1="-90" x2="7.5" y2="-67.5" style="stroke:#000000;stroke-width:2;"/>
        <!-- Linie -->
        <line x1="67.5" y1="-90" x2="67.5" y2="-67.5" style="stroke:#000000;stroke-width:2;"/>
        <!-- Linie -->
        <line x1="-67.5" y1="22.5" x2="-67.5" y2="30" style="stroke:#000000;stroke-width:2;"/>
        <!-- Linie -->
        <line x1="-7.5" y1="22.5" x2="-7.5" y2="30" style="stroke:#000000;stroke-width:2;"/>
        <!-- Linie -->
        <line x1="52.5" y1="22.5" x2="52.5" y2="30" style="stroke:#000000;stroke-width:2;"/>
        <!-- Linie -->
        <line x1="-67.5" y1="-67.5" x2="-67.5" y2="-60" style="stroke:#000000;stroke-width:2;"/>
        <!-- Linie -->
        <line x1="-7.5" y1="-67.5" x2="-7.5" y2="-60" style="stroke:#000000;stroke-width:2;"/>
        <!-- Linie -->
        <line x1="52.5" y1="-67.5" x2="52.5" y2="-60" style="stroke:#000000;stroke-width:2;"/>
        <!-- Linie -->
        <line x1="-52.5" y1="22.5" x2="-52.5" y2="30" style="stroke:#000000;stroke-width:2;"/>
        <!-- Linie -->
        <line x1="7.5" y1="22.5" x2="7.5" y2="30" style="stroke:#000000;stroke-width:2;"/>
        <!-- Linie -->
        <line x1="67.5" y1="22.5" x2="67.5" y2="30" style="stroke:#000000;stroke-width:2;"/>
        <!-- Linie -->
        <line x1="-52.5" y1="-67.5" x2="-52.5" y2="-60" style="stroke:#000000;stroke-width:2;"/>
        <!-- Linie -->
        <line x1="7.5" y1="-67.5" x2="7.5" y2="-60" style="stroke:#000000;stroke-width:2;"/>
        <!-- Linie -->
        <line x1="67.5" y1="-67.5" x2="67.5" y2="-60" style="stroke:#000000;stroke-width:2;"/>
        <!-- Linie -->
        <line x1="-70" y1="30" x2="-50" y2="30" style="stroke:#000000;stroke-width:2;"/>
        <!-- Linie -->
        <line x1="-10" y1="30" x2="10" y2="30" style="stroke:#000000;stroke-width:2;"/>
        <!-- Linie -->
        <line x1="50" y1="30" x2="70" y2="30" style="stroke:#000000;stroke-width:2;"/>
        <!-- Linie -->
        <line x1="-70" y1="-60" x2="-50" y2="-60" style="stroke:#000000;stroke-width:2;"/>
        <!-- Linie -->
        <line x1="-10" y1="-60" x2="10" y2="-60" style="stroke:#000000;stroke-width:2;"/>
        <!-- Linie -->
        <line x1="50" y1="-60" x2="70" y2="-60" style="stroke:#000000;stroke-width:2;"/>
        <!-- Linie -->
        <line x1="-50" y1="30" x2="-47.5" y2="47.5" style="stroke:#000000;stroke-width:2;"/>
        <!-- Linie -->
        <line x1="10" y1="30" x2="12.5" y2="47.5" style="stroke:#000000;stroke-width:2;"/>
        <!-- Linie -->
        <line x1="70" y1="30" x2="72.5" y2="47.5" style="stroke:#000000;stroke-width:2;"/>
        <!-- Linie -->
        <line x1="-50" y1="-60" x2="-47.5" y2="-42.5" style="stroke:#000000;stroke-width:2;"/>
        <!-- Linie -->
        <line x1="10" y1="-60" x2="12.5" y2="-42.5" style="stroke:#000000;stroke-width:2;"/>
        <!-- Linie -->
        <line x1="70" y1="-60" x2="72.5" y2="-42.5" style="stroke:#000000;stroke-width:2;"/>
        <!-- Linie -->
        <line x1="-70" y1="30" x2="-72.5" y2="47.5" style="stroke:#000000;stroke-width:2;"/>
        <!-- Linie -->
        <line x1="-10" y1="30" x2="-12.5" y2="47.5" style="stroke:#000000;stroke-width:2;"/>
        <!-- Linie -->
        <line x1="50" y1="30" x2="47.5" y2="47.5" style="stroke:#000000;stroke-width:2;"/>
        <!-- Linie -->
        <line x1="-70" y1="-60" x2="-72.5" y2="-42.5" style="stroke:#000000;stroke-width:2;"/>
        <!-- Linie -->
        <line x1="-10" y1="-60" x2="-12.5" y2="-42.5" style="stroke:#000000;stroke-width:2;"/>
        <!-- Linie -->
        <line x1="50" y1="-60" x2="47.5" y2="-42.5" style="stroke:#000000;stroke-width:2;"/>
        <!-- Linie -->
        <line x1="-72.5" y1="47.5" x2="-72.5" y2="65" style="stroke:#000000;stroke-width:2;"/>
        <!-- Linie -->
        <line x1="-12.5" y1="47.5" x2="-12.5" y2="65" style="stroke:#000000;stroke-width:2;"/>
        <!-- Linie -->
        <line x1="47.5" y1="47.5" x2="47.5" y2="65" style="stroke:#000000;stroke-width:2;"/>
        <!-- Linie -->
        <line x1="-72.5" y1="-42.5" x2="-72.5" y2="-25" style="stroke:#000000;stroke-width:2;"/>
        <!-- Linie -->
        <line x1="-12.5" y1="-42.5" x2="-12.5" y2="-25" style="stroke:#000000;stroke-width:2;"/>
        <!-- Linie -->
        <line x1="47.5" y1="-42.5" x2="47.5" y2="-25" style="stroke:#000000;stroke-width:2;"/>
        <!-- Linie -->
        <line x1="-72.5" y1="65" x2="-47.5" y2="65" style="stroke:#000000;stroke-width:2;"/>
        <!-- Linie -->
        <line x1="-12.5" y1="65" x2="12.5" y2="65" style="stroke:#000000;stroke-width:2;"/>
        <!-- Linie -->
        <line x1="47.5" y1="65" x2="72.5" y2="65" style="stroke:#000000;stroke-width:2;"/>
        <!-- Linie -->
        <line x1="-72.5" y1="-25" x2="-47.5" y2="-25" style="stroke:#000000;stroke-width:2;"/>
        <!-- Linie -->
        <line x1="-12.5" y1="-25" x2="12.5" y2="-25" style="stroke:#000000;stroke-width:2;"/>
        <!-- Linie -->
        <line x1="47.5" y1="-25" x2="72.5" y2="-25" style="stroke:#000000;stroke-width:2;"/>
        <!-- Linie -->
        <line x1="-47.5" y1="65" x2="-47.5" y2="47.5" style="stroke:#000000;stroke-width:2;"/>
        <!-- Linie -->
        <line x1="12.5" y1="65" x2="12.5" y2="47.5" style="stroke:#000000;stroke-width:2;"/>
        <!-- Linie -->
        <line x1="72.5" y1="65" x2="72.5" y2="47.5" style="stroke:#000000;stroke-width:2;"/>
        <!-- Linie -->
        <line x1="-47.5" y1="-25" x2="-47.5" y2="-42.5" style="stroke:#000000;stroke-width:2;"/>
        <!-- Linie -->
        <line x1="12.5" y1="-25" x2="12.5" y2="-42.5" style="stroke:#000000;stroke-width:2;"/>
        <!-- Linie -->
        <line x1="72.5" y1="-25" x2="72.5" y2="-42.5" style="stroke:#000000;stroke-width:2;"/>
        <!-- Linie -->
        <line x1="-82.5" y1="75" x2="-82.5" y2="79.125" style="stroke:#000000;stroke-width:2;"/>
        <!-- Kreisbogen -->
        <path d="M-82.5,79.125 A0.875,0.875 0 0,0 -81.625,80" style="stroke:#000000;stroke-width:2;"/>
        <!-- Linie -->
        <line x1="-81.625" y1="80" x2="-38.375" y2="80" style="stroke:#000000;stroke-width:2;"/>
        <!-- Kreisbogen -->
        <path d="M-38.375,80 A0.875,0.875 0 0,0 -37.5,79.125" style="stroke:#000000;stroke-width:2;"/>
        <!-- Linie -->
        <line x1="-37.5" y1="79.125" x2="-37.5" y2="75" style="stroke:#000000;stroke-width:2;"/>
        <!-- Linie -->
        <line x1="-22.5" y1="75" x2="-22.5" y2="79.125" style="stroke:#000000;stroke-width:2;"/>
        <!-- Kreisbogen -->
        <path d="M-22.5,79.125 A0.875,0.875 0 0,0 -21.625,80" style="stroke:#000000;stroke-width:2;"/>
        <!-- Linie -->
        <line x1="-21.625" y1="80" x2="21.625" y2="80" style="stroke:#000000;stroke-width:2;"/>
        <!-- Kreisbogen -->
        <path d="M21.625,80 A0.875,0.875 0 0,0 22.5,79.125" style="stroke:#000000;stroke-width:2;"/>
        <!-- Linie -->
        <line x1="22.5" y1="79.125" x2="22.5" y2="75" style="stroke:#000000;stroke-width:2;"/>
        <!-- Linie -->
        <line x1="37.5" y1="75" x2="37.5" y2="79.125" style="stroke:#000000;stroke-width:2;"/>
        <!-- Kreisbogen -->
        <path d="M37.5,79.125 A0.875,0.875 0 0,0 38.375,80" style="stroke:#000000;stroke-width:2;"/>
        <!-- Linie -->
        <line x1="38.375" y1="80" x2="81.625" y2="80" style="stroke:#000000;stroke-width:2;"/>
        <!-- Kreisbogen -->
        <path d="M81.625,80 A0.875,0.875 0 0,0 82.5,79.125" style="stroke:#000000;stroke-width:2;"/>
        <!-- Linie -->
        <line x1="82.5" y1="79.125" x2="82.5" y2="75" style="stroke:#000000;stroke-width:2;"/>
        <!-- Linie -->
        <line x1="-82.5" y1="-15" x2="-82.5" y2="-10.875" style="stroke:#000000;stroke-width:2;"/>
        <!-- Kreisbogen -->
        <path d="M-82.5,-10.875 A0.875,0.875 0 0,0 -81.625,-10" style="stroke:#000000;stroke-width:2;"/>
        <!-- Linie -->
        <line x1="-81.625" y1="-10" x2="-38.375" y2="-10" style="stroke:#000000;stroke-width:2;"/>
        <!-- Kreisbogen -->
        <path d="M-38.375,-10 A0.875,0.875 0 0,0 -37.5,-10.875" style="stroke:#000000;stroke-width:2;"/>
        <!-- Linie -->
        <line x1="-37.5" y1="-10.875" x2="-37.5" y2="-15" style="stroke:#000000;stroke-width:2;"/>
        <!-- Linie -->
        <line x1="-22.5" y1="-15" x2="-22.5" y2="-10.875" style="stroke:#000000;stroke-width:2;"/>
        <!-- Kreisbogen -->
        <path d="M-22.5,-10.875 A0.875,0.875 0 0,0 -21.625,-10" style="stroke:#000000;stroke-width:2;"/>
        <!-- Linie -->
        <line x1="-21.625" y1="-10" x2="21.625" y2="-10" style="stroke:#000000;stroke-width:2;"/>
        <!-- Kreisbogen -->
        <path d="M21.625,-10 A0.875,0.875 0 0,0 22.5,-10.875" style="stroke:#000000;stroke-width:2;"/>
        <!-- Linie -->
        <line x1="22.5" y1="-10.875" x2="22.5" y2="-15" style="stroke:#000000;stroke-width:2;"/>
        <!-- Linie -->
        <line x1="37.5" y1="-15" x2="37.5" y2="-10.875" style="stroke:#000000;stroke-width:2;"/>
        <!-- Kreisbogen -->
        <path d="M37.5,-10.875 A0.875,0.875 0 0,0 38.375,-10" style="stroke:#000000;stroke-width:2;"/>
        <!-- Linie -->
        <line x1="38.375" y1="-10" x2="81.625" y2="-10" style="stroke:#000000;stroke-width:2;"/>
        <!-- Kreisbogen -->
        <path d="M81.625,-10 A0.875,0.875 0 0,0 82.5,-10.875" style="stroke:#000000;stroke-width:2;"/>
        <!-- Linie -->
        <line x1="82.5" y1="-10.875" x2="82.5" y2="-15" style="stroke:#000000;stroke-width:2;"/>
        <!-- Linie -->
        <line x1="-37.5" y1="70" x2="-37.5" y2="65.875" style="stroke:#000000;stroke-width:2;"/>
        <!-- Kreisbogen -->
        <path d="M-37.5,65.875 A0.875,0.875 0 0,0 -38.375,65" style="stroke:#000000;stroke-width:2;"/>
        <!-- Linie -->
        <line x1="-38.375" y1="65" x2="-81.625" y2="65" style="stroke:#000000;stroke-width:2;"/>
        <!-- Kreisbogen -->
        <path d="M-81.625,65 A0.875,0.875 0 0,0 -82.5,65.875" style="stroke:#000000;stroke-width:2;"/>
        <!-- Linie -->
        <line x1="-82.5" y1="65.875" x2="-82.5" y2="70" style="stroke:#000000;stroke-width:2;"/>
        <!-- Linie -->
        <line x1="22.5" y1="70" x2="22.5" y2="65.875" style="stroke:#000000;stroke-width:2;"/>
        <!-- Kreisbogen -->
        <path d="M22.5,65.875 A0.875,0.875 0 0,0 21.625,65" style="stroke:#000000;stroke-width:2;"/>
        <!-- Linie -->
        <line x1="21.625" y1="65" x2="-21.625" y2="65" style="stroke:#000000;stroke-width:2;"/>
        <!-- Kreisbogen -->
        <path d="M-21.625,65 A0.875,0.875 0 0,0 -22.5,65.875" style="stroke:#000000;stroke-width:2;"/>
        <!-- Linie -->
        <line x1="-22.5" y1="65.875" x2="-22.5" y2="70" style="stroke:#000000;stroke-width:2;"/>
        <!-- Linie -->
        <line x1="82.5" y1="70" x2="82.5" y2="65.875" style="stroke:#000000;stroke-width:2;"/>
        <!-- Kreisbogen -->
        <path d="M82.5,65.875 A0.875,0.875 0 0,0 81.625,65" style="stroke:#000000;stroke-width:2;"/>
        <!-- Linie -->
        <line x1="81.625" y1="65" x2="38.375" y2="65" style="stroke:#000000;stroke-width:2;"/>
        <!-- Kreisbogen -->
        <path d="M38.375,65 A0.875,0.875 0 0,0 37.5,65.875" style="stroke:#000000;stroke-width:2;"/>
        <!-- Linie -->
        <line x1="37.5" y1="65.875" x2="37.5" y2="70" style="stroke:#000000;stroke-width:2;"/>
        <!-- Linie -->
        <line x1="-37.5" y1="-20" x2="-37.5" y2="-24.125" style="stroke:#000000;stroke-width:2;"/>
        <!-- Kreisbogen -->
        <path d="M-37.5,-24.125 A0.875,0.875 0 0,0 -38.375,-25" style="stroke:#000000;stroke-width:2;"/>
        <!-- Linie -->
        <line x1="-38.375" y1="-25" x2="-81.625" y2="-25" style="stroke:#000000;stroke-width:2;"/>
        <!-- Kreisbogen -->
        <path d="M-81.625,-25 A0.875,0.875 0 0,0 -82.5,-24.125" style="stroke:#000000;stroke-width:2;"/>
        <!-- Linie -->
        <line x1="-82.5" y1="-24.125" x2="-82.5" y2="-20" style="stroke:#000000;stroke-width:2;"/>
        <!-- Linie -->
        <line x1="22.5" y1="-20" x2="22.5" y2="-24.125" style="stroke:#000000;stroke-width:2;"/>
        <!-- Kreisbogen -->
        <path d="M22.5,-24.125 A0.875,0.875 0 0,0 21.625,-25" style="stroke:#000000;stroke-width:2;"/>
        <!-- Linie -->
        <line x1="21.625" y1="-25" x2="-21.625" y2="-25" style="stroke:#000000;stroke-width:2;"/>
        <!-- Kreisbogen -->
        <path d="M-21.625,-25 A0.875,0.875 0 0,0 -22.5,-24.125" style="stroke:#000000;stroke-width:2;"/>
        <!-- Linie -->
        <line x1="-22.5" y1="-24.125" x2="-22.5" y2="-20" style="stroke:#000000;stroke-width:2;"/>
        <!-- Linie -->
        <line x1="82.5" y1="-20" x2="82.5" y2="-24.125" style="stroke:#000000;stroke-width:2;"/>
        <!-- Kreisbogen -->
        <path d="M82.5,-24.125 A0.875,0.875 0 0,0 81.625,-25" style="stroke:#000000;stroke-width:2;"/>
        <!-- Linie -->
        <line x1="81.625" y1="-25" x2="38.375" y2="-25" style="stroke:#000000;stroke-width:2;"/>
        <!-- Kreisbogen -->
        <path d="M38.375,-25 A0.875,0.875 0 0,0 37.5,-24.125" style="stroke:#000000;stroke-width:2;"/>
        <!-- Linie -->
        <line x1="37.5" y1="-24.125" x2="37.5" y2="-20" style="stroke:#000000;stroke-width:2;"/>
        <!-- Linie -->
        <line x1="-82.5" y1="75" x2="-80" y2="75" style="stroke:#000000;stroke-width:2;"/>
        <!-- Linie -->
        <line x1="-22.5" y1="75" x2="-20" y2="75" style="stroke:#000000;stroke-width:2;"/>
        <!-- Linie -->
        <line x1="37.5" y1="75" x2="40" y2="75" style="stroke:#000000;stroke-width:2;"/>
        <!-- Linie -->
        <line x1="-82.5" y1="-15" x2="-80" y2="-15" style="stroke:#000000;stroke-width:2;"/>
        <!-- Linie -->
        <line x1="-22.5" y1="-15" x2="-20" y2="-15" style="stroke:#000000;stroke-width:2;"/>
        <!-- Linie -->
        <line x1="37.5" y1="-15" x2="40" y2="-15" style="stroke:#000000;stroke-width:2;"/>
        <!-- Linie -->
        <line x1="-80" y1="75" x2="-80" y2="70" style="stroke:#000000;stroke-width:2;"/>
        <!-- Linie -->
        <line x1="-20" y1="75" x2="-20" y2="70" style="stroke:#000000;stroke-width:2;"/>
        <!-- Linie -->
        <line x1="40" y1="75" x2="40" y2="70" style="stroke:#000000;stroke-width:2;"/>
        <!-- Linie -->
        <line x1="-80" y1="-15" x2="-80" y2="-20" style="stroke:#000000;stroke-width:2;"/>
        <!-- Linie -->
        <line x1="-20" y1="-15" x2="-20" y2="-20" style="stroke:#000000;stroke-width:2;"/>
        <!-- Linie -->
        <line x1="40" y1="-15" x2="40" y2="-20" style="stroke:#000000;stroke-width:2;"/>
        <!-- Linie -->
        <line x1="-80" y1="70" x2="-82.5" y2="70" style="stroke:#000000;stroke-width:2;"/>
        <!-- Linie -->
        <line x1="-20" y1="70" x2="-22.5" y2="70" style="stroke:#000000;stroke-width:2;"/>
        <!-- Linie -->
        <line x1="40" y1="70" x2="37.5" y2="70" style="stroke:#000000;stroke-width:2;"/>
        <!-- Linie -->
        <line x1="-80" y1="-20" x2="-82.5" y2="-20" style="stroke:#000000;stroke-width:2;"/>
        <!-- Linie -->
        <line x1="-20" y1="-20" x2="-22.5" y2="-20" style="stroke:#000000;stroke-width:2;"/>
        <!-- Linie -->
        <line x1="40" y1="-20" x2="37.5" y2="-20" style="stroke:#000000;stroke-width:2;"/>
        <!-- Linie -->
        <line x1="-37.5" y1="75" x2="-40" y2="75" style="stroke:#000000;stroke-width:2;"/>
        <!-- Linie -->
        <line x1="22.5" y1="75" x2="20" y2="75" style="stroke:#000000;stroke-width:2;"/>
        <!-- Linie -->
        <line x1="82.5" y1="75" x2="80" y2="75" style="stroke:#000000;stroke-width:2;"/>
        <!-- Linie -->
        <line x1="-37.5" y1="-15" x2="-40" y2="-15" style="stroke:#000000;stroke-width:2;"/>
        <!-- Linie -->
        <line x1="22.5" y1="-15" x2="20" y2="-15" style="stroke:#000000;stroke-width:2;"/>
        <!-- Linie -->
        <line x1="82.5" y1="-15" x2="80" y2="-15" style="stroke:#000000;stroke-width:2;"/>
        <!-- Linie -->
        <line x1="-40" y1="75" x2="-40" y2="70" style="stroke:#000000;stroke-width:2;"/>
        <!-- Linie -->
        <line x1="20" y1="75" x2="20" y2="70" style="stroke:#000000;stroke-width:2;"/>
        <!-- Linie -->
        <line x1="80" y1="75" x2="80" y2="70" style="stroke:#000000;stroke-width:2;"/>
        <!-- Linie -->
        <line x1="-40" y1="-15" x2="-40" y2="-20" style="stroke:#000000;stroke-width:2;"/>
        <!-- Linie -->
        <line x1="20" y1="-15" x2="20" y2="-20" style="stroke:#000000;stroke-width:2;"/>
        <!-- Linie -->
        <line x1="80" y1="-15" x2="80" y2="-20" style="stroke:#000000;stroke-width:2;"/>
        <!-- Linie -->
        <line x1="-40" y1="70" x2="-37.5" y2="70" style="stroke:#000000;stroke-width:2;"/>
        <!-- Linie -->
        <line x1="20" y1="70" x2="22.5" y2="70" style="stroke:#000000;stroke-width:2;"/>
        <!-- Linie -->
        <line x1="80" y1="70" x2="82.5" y2="70" style="stroke:#000000;stroke-width:2;"/>
        <!-- Linie -->
        <line x1="-40" y1="-20" x2="-37.5" y2="-20" style="stroke:#000000;stroke-width:2;"/>
        <!-- Linie -->
        <line x1="20" y1="-20" x2="22.5" y2="-20" style="stroke:#000000;stroke-width:2;"/>
        <!-- Linie -->
        <line x1="80" y1="-20" x2="82.5" y2="-20" style="stroke:#000000;stroke-width:2;"/>
        <!-- Linie -->
        <line x1="-80" y1="75" x2="-40" y2="75" style="stroke:#000000;stroke-width:2;"/>
        <!-- Linie -->
        <line x1="-20" y1="75" x2="20" y2="75" style="stroke:#000000;stroke-width:2;"/>
        <!-- Linie -->
        <line x1="40" y1="75" x2="80" y2="75" style="stroke:#000000;stroke-width:2;"/>
        <!-- Linie -->
        <line x1="-80" y1="-15" x2="-40" y2="-15" style="stroke:#000000;stroke-width:2;"/>
        <!-- Linie -->
        <line x1="-20" y1="-15" x2="20" y2="-15" style="stroke:#000000;stroke-width:2;"/>
        <!-- Linie -->
        <line x1="40" y1="-15" x2="80" y2="-15" style="stroke:#000000;stroke-width:2;"/>
        <!-- Linie -->
        <line x1="-40" y1="70" x2="-80" y2="70" style="stroke:#000000;stroke-width:2;"/>
        <!-- Linie -->
        <line x1="20" y1="70" x2="-20" y2="70" style="stroke:#000000;stroke-width:2;"/>
        <!-- Linie -->
        <line x1="80" y1="70" x2="40" y2="70" style="stroke:#000000;stroke-width:2;"/>
        <!-- Linie -->
        <line x1="-40" y1="-20" x2="-80" y2="-20" style="stroke:#000000;stroke-width:2;"/>
        <!-- Linie -->
        <line x1="20" y1="-20" x2="-20" y2="-20" style="stroke:#000000;stroke-width:2;"/>
        <!-- Linie -->
        <line x1="80" y1="-20" x2="40" y2="-20" style="stroke:#000000;stroke-width:2;"/>
    </g>
</svg>
