<?xml version="1.0" encoding="UTF-8"?>
<!-- 2020-10-26 14:35:54 Generated by QCAD 3.24.2 SVG Exporter PG -->
<svg width="212mm" height="212mm" viewBox="-106 -106 212 212" version="1.1" xmlns="http://www.w3.org/2000/svg" style="stroke-linecap:round;stroke-linejoin:round;fill:none">
    <g transform="scale(1,-1)">
        <!-- Linie -->
        <line x1="26.875" y1="-60" x2="49.375" y2="-45" style="stroke:#000000;stroke-width:1;"/>
        <!-- Linie -->
        <line x1="26.875" y1="-52.5" x2="49.375" y2="-37.5" style="stroke:#000000;stroke-width:1;"/>
        <!-- Linie -->
        <line x1="26.875" y1="-45" x2="49.375" y2="-30" style="stroke:#000000;stroke-width:1;"/>
        <!-- Linie -->
        <line x1="38.125" y1="-60" x2="49.375" y2="-52.5" style="stroke:#000000;stroke-width:1;"/>
        <!-- Linie -->
        <line x1="26.875" y1="-30" x2="32.5" y2="-26.25" style="stroke:#000000;stroke-width:1;"/>
        <!-- Linie -->
        <line x1="26.875" y1="-37.5" x2="43.75" y2="-26.25" style="stroke:#000000;stroke-width:1;"/>
        <!-- Linie -->
        <line x1="26.875" y1="-60" x2="49.375" y2="-60" style="stroke:#000000;stroke-width:1;"/>
        <!-- Linie -->
        <line x1="26.875" y1="-60" x2="26.875" y2="-26.25" style="stroke:#000000;stroke-width:1;"/>
        <!-- Linie -->
        <line x1="49.375" y1="-60" x2="49.375" y2="-26.25" style="stroke:#000000;stroke-width:1;"/>
        <!-- Linie -->
        <line x1="26.875" y1="-26.25" x2="26.875" y2="-15" style="stroke:#000000;stroke-width:1;"/>
        <!-- Linie -->
        <line x1="49.375" y1="-26.25" x2="49.375" y2="-15" style="stroke:#000000;stroke-width:1;"/>
        <!-- Linie -->
        <line x1="23.125" y1="-15" x2="53.125" y2="-15" style="stroke:#000000;stroke-width:1;"/>
        <!-- Linie -->
        <line x1="53.125" y1="-15" x2="56.875" y2="11.25" style="stroke:#000000;stroke-width:1;"/>
        <!-- Linie -->
        <line x1="23.125" y1="-15" x2="19.375" y2="11.25" style="stroke:#000000;stroke-width:1;"/>
        <!-- Linie -->
        <line x1="-61.875" y1="70" x2="-21.875" y2="70" style="stroke:#000000;stroke-width:2;"/>
        <!-- Linie -->
        <line x1="-21.875" y1="70" x2="-21.875" y2="-70" style="stroke:#000000;stroke-width:2;"/>
        <!-- Linie -->
        <line x1="-21.875" y1="-70" x2="-61.875" y2="-70" style="stroke:#000000;stroke-width:2;"/>
        <!-- Linie -->
        <line x1="-21.875" y1="0" x2="-41.875" y2="0" style="stroke:#000000;stroke-width:2;"/>
        <!-- Linie -->
        <line x1="-21.875" y1="20" x2="-41.875" y2="20" style="stroke:#000000;stroke-width:2;"/>
        <!-- Linie -->
        <line x1="-21.875" y1="40" x2="-41.875" y2="40" style="stroke:#000000;stroke-width:2;"/>
        <!-- Linie -->
        <line x1="-21.875" y1="60" x2="-41.875" y2="60" style="stroke:#000000;stroke-width:2;"/>
        <!-- Linie -->
        <line x1="-21.875" y1="50" x2="-31.875" y2="50" style="stroke:#000000;stroke-width:2;"/>
        <!-- Linie -->
        <line x1="-21.875" y1="30" x2="-31.875" y2="30" style="stroke:#000000;stroke-width:2;"/>
        <!-- Linie -->
        <line x1="-21.875" y1="10" x2="-31.875" y2="10" style="stroke:#000000;stroke-width:2;"/>
        <!-- Linie -->
        <line x1="19.375" y1="11.25" x2="19.375" y2="37.5" style="stroke:#000000;stroke-width:1;"/>
        <!-- Linie -->
        <line x1="-21.875" y1="-10" x2="-31.875" y2="-10" style="stroke:#000000;stroke-width:2;"/>
        <!-- Linie -->
        <line x1="-21.875" y1="-20" x2="-41.875" y2="-20" style="stroke:#000000;stroke-width:2;"/>
        <!-- Linie -->
        <line x1="-21.875" y1="-30" x2="-31.875" y2="-30" style="stroke:#000000;stroke-width:2;"/>
        <!-- Linie -->
        <line x1="-21.875" y1="-40" x2="-41.875" y2="-40" style="stroke:#000000;stroke-width:2;"/>
        <!-- Linie -->
        <line x1="-21.875" y1="-50" x2="-31.875" y2="-50" style="stroke:#000000;stroke-width:2;"/>
        <!-- Linie -->
        <line x1="-21.875" y1="-60" x2="-41.875" y2="-60" style="stroke:#000000;stroke-width:2;"/>
        <!-- Schraffur -->
        <path d="M100,-85.5 L100,85.5 A14.5,14.5 0 0 1 85.5,100 L-85.5,100 A14.5,14.5 0 0 1 -100,85.5 L-100,-85.5 A14.5,14.5 0 0 1 -85.5,-100 L85.5,-100 A14.5,14.5 0 0 1 100,-85.5M-85.5,95 A9.5,9.5 0 0 1 -95,85.5 L-95,-85.5 A9.5,9.5 0 0 1 -85.5,-95 L85.5,-95 A9.5,9.5 0 0 1 95,-85.5 L95,85.5 A9.5,9.5 0 0 1 85.5,95 Z" style="fill:#000000;fill-rule:evenodd;"/>
        <!-- Linie -->
        <line x1="19.375" y1="37.5" x2="56.875" y2="37.5" style="stroke:#000000;stroke-width:1;"/>
        <!-- Linie -->
        <line x1="56.875" y1="37.5" x2="56.875" y2="11.25" style="stroke:#000000;stroke-width:1;"/>
        <!-- Linie -->
        <line x1="4.375" y1="52.5" x2="4.375" y2="58.6875" style="stroke:#000000;stroke-width:1;"/>
        <!-- Kreisbogen -->
        <path d="M4.375,58.6875 A1.3125,1.3125 0 0,0 5.6875,60" style="stroke:#000000;stroke-width:1;"/>
        <!-- Linie -->
        <line x1="5.6875" y1="60" x2="70.5625" y2="60" style="stroke:#000000;stroke-width:1;"/>
        <!-- Kreisbogen -->
        <path d="M70.5625,60 A1.3125,1.3125 0 0,0 71.875,58.6875" style="stroke:#000000;stroke-width:1;"/>
        <!-- Linie -->
        <line x1="71.875" y1="58.6875" x2="71.875" y2="52.5" style="stroke:#000000;stroke-width:1;"/>
        <!-- Linie -->
        <line x1="71.875" y1="45" x2="71.875" y2="38.8125" style="stroke:#000000;stroke-width:1;"/>
        <!-- Kreisbogen -->
        <path d="M71.875,38.8125 A1.3125,1.3125 0 0,0 70.5625,37.5" style="stroke:#000000;stroke-width:1;"/>
        <!-- Linie -->
        <line x1="70.5625" y1="37.5" x2="5.6875" y2="37.5" style="stroke:#000000;stroke-width:1;"/>
        <!-- Kreisbogen -->
        <path d="M5.6875,37.5 A1.3125,1.3125 0 0,0 4.375,38.8125" style="stroke:#000000;stroke-width:1;"/>
        <!-- Linie -->
        <line x1="4.375" y1="38.8125" x2="4.375" y2="45" style="stroke:#000000;stroke-width:1;"/>
        <!-- Linie -->
        <line x1="4.375" y1="52.5" x2="8.125" y2="52.5" style="stroke:#000000;stroke-width:1;"/>
        <!-- Linie -->
        <line x1="8.125" y1="52.5" x2="8.125" y2="45" style="stroke:#000000;stroke-width:1;"/>
        <!-- Linie -->
        <line x1="8.125" y1="45" x2="4.375" y2="45" style="stroke:#000000;stroke-width:1;"/>
        <!-- Linie -->
        <line x1="71.875" y1="52.5" x2="68.125" y2="52.5" style="stroke:#000000;stroke-width:1;"/>
        <!-- Linie -->
        <line x1="68.125" y1="52.5" x2="68.125" y2="45" style="stroke:#000000;stroke-width:1;"/>
        <!-- Linie -->
        <line x1="68.125" y1="45" x2="71.875" y2="45" style="stroke:#000000;stroke-width:1;"/>
        <!-- Linie -->
        <line x1="8.125" y1="52.5" x2="68.125" y2="52.5" style="stroke:#000000;stroke-width:1;"/>
        <!-- Linie -->
        <line x1="68.125" y1="45" x2="8.125" y2="45" style="stroke:#000000;stroke-width:1;"/>
        <!-- Linie -->
        <line x1="-61.875" y1="-70" x2="-71.875" y2="-70" style="stroke:#000000;stroke-width:2;"/>
        <!-- Linie -->
        <line x1="-71.875" y1="-70" x2="-71.875" y2="70" style="stroke:#000000;stroke-width:2;"/>
        <!-- Linie -->
        <line x1="-71.875" y1="70" x2="-61.875" y2="70" style="stroke:#000000;stroke-width:2;"/>
    </g>
</svg>
