<?xml version="1.0" encoding="UTF-8"?>
<!-- 2020-10-26 15:39:50 Generated by QCAD 3.24.2 SVG Exporter PG -->
<svg width="212mm" height="212mm" viewBox="-106 -106 212 212" version="1.1" xmlns="http://www.w3.org/2000/svg" style="stroke-linecap:round;stroke-linejoin:round;fill:none">
    <g transform="scale(1,-1)">
        <!-- Linie -->
        <line x1="-80" y1="0" x2="-30" y2="0" style="stroke:#000000;stroke-width:2;"/>
        <!-- Linie -->
        <line x1="30" y1="0" x2="80" y2="0" style="stroke:#000000;stroke-width:2;"/>
        <!-- Linie -->
        <line x1="0" y1="80" x2="0" y2="30" style="stroke:#000000;stroke-width:2;"/>
        <!-- Linie -->
        <line x1="0" y1="-30" x2="0" y2="-80" style="stroke:#000000;stroke-width:2;"/>
        <!-- Linie -->
        <line x1="63.785" y1="-70.856" x2="46.4645" y2="-53.5355" style="stroke:#000000;stroke-width:2;"/>
        <!-- Linie -->
        <line x1="53.5355" y1="-46.4645" x2="70.856" y2="-63.785" style="stroke:#000000;stroke-width:2;"/>
        <!-- Linie -->
        <line x1="63.785" y1="-70.856" x2="70.856" y2="-63.785" style="stroke:#000000;stroke-width:2;"/>
        <!-- Linie -->
        <line x1="32.3223" y1="-32.3223" x2="32.3223" y2="-67.6777" style="stroke:#000000;stroke-width:2;"/>
        <!-- Linie -->
        <line x1="32.3223" y1="-32.3223" x2="67.6777" y2="-32.3223" style="stroke:#000000;stroke-width:2;"/>
        <!-- Linie -->
        <line x1="67.6777" y1="-32.3223" x2="53.5355" y2="-46.4645" style="stroke:#000000;stroke-width:2;"/>
        <!-- Linie -->
        <line x1="32.3223" y1="-67.6777" x2="46.4645" y2="-53.5355" style="stroke:#000000;stroke-width:2;"/>
        <!-- Schraffur -->
        <path d="M100,-85.5 L100,85.5 A14.5,14.5 0 0 1 85.5,100 L-85.5,100 A14.5,14.5 0 0 1 -100,85.5 L-100,-85.5 A14.5,14.5 0 0 1 -85.5,-100 L85.5,-100 A14.5,14.5 0 0 1 100,-85.5M-85.5,95 A9.5,9.5 0 0 1 -95,85.5 L-95,-85.5 A9.5,9.5 0 0 1 -85.5,-95 L85.5,-95 A9.5,9.5 0 0 1 95,-85.5 L95,85.5 A9.5,9.5 0 0 1 85.5,95 Z" style="fill:#000000;fill-rule:evenodd;"/>
        <!-- Kreisbogen -->
        <path d="M9.1507,-0.1989 A27.7496,27.7496 0 0,1 9.0742,1.8669" style="stroke:#000000;stroke-width:0.25;"/>
        <!-- Kreisbogen -->
        <path d="M9.0742,1.8669 A105.9811,105.9811 0 0,1 8.9059,3.8715" style="stroke:#000000;stroke-width:0.25;"/>
        <!-- Linie -->
        <line x1="8.9059" y1="3.8715" x2="-8.0184" y2="-8.707" style="stroke:#000000;stroke-width:0.25;"/>
        <!-- Kreisbogen -->
        <path d="M-8.0184,-8.707 A15.743,15.743 0 0,1 -6.8554,-11.645" style="stroke:#000000;stroke-width:0.25;"/>
        <!-- Kreisbogen -->
        <path d="M-6.8554,-11.645 A8.9756,8.9756 0 0,1 -5.1568,-13.9556" style="stroke:#000000;stroke-width:0.25;"/>
        <!-- Kreisbogen -->
        <path d="M-5.1568,-13.9556 A7.3066,7.3066 0 0,1 -2.8921,-15.4552" style="stroke:#000000;stroke-width:0.25;"/>
        <!-- Kreisbogen -->
        <path d="M-2.8921,-15.4552 A7.3837,7.3837 0 0,1 0,-15.9908" style="stroke:#000000;stroke-width:0.25;"/>
        <!-- Kreisbogen -->
        <path d="M0,-15.9908 A7.2554,7.2554 0 0,1 3.7796,-14.9809" style="stroke:#000000;stroke-width:0.25;"/>
        <!-- Kreisbogen -->
        <path d="M3.7796,-14.9809 A8.4355,8.4355 0 0,1 6.6718,-11.9816" style="stroke:#000000;stroke-width:0.25;"/>
        <!-- Kreisbogen -->
        <path d="M6.6718,-11.9816 A12.442,12.442 0 0,1 7.6659,-9.9133" style="stroke:#000000;stroke-width:0.25;"/>
        <!-- Kreisbogen -->
        <path d="M7.6659,-9.9133 A21.1939,21.1939 0 0,1 8.508,-7.039" style="stroke:#000000;stroke-width:0.25;"/>
        <!-- Kreisbogen -->
        <path d="M8.508,-7.039 A32.4151,32.4151 0 0,1 9.1507,-0.1989" style="stroke:#000000;stroke-width:0.25;"/>
        <!-- Kreisbogen -->
        <path d="M14.5371,-0.0153 A35.4773,35.4773 0 0,0 13.619,-8.3856" style="stroke:#000000;stroke-width:0.25;"/>
        <!-- Kreisbogen -->
        <path d="M13.619,-8.3856 A23.0209,23.0209 0 0,0 12.403,-12.0319" style="stroke:#000000;stroke-width:0.25;"/>
        <!-- Kreisbogen -->
        <path d="M12.403,-12.0319 A16.4197,16.4197 0 0,0 10.834,-14.8738" style="stroke:#000000;stroke-width:0.25;"/>
        <!-- Kreisbogen -->
        <path d="M10.834,-14.8738 A13.0967,13.0967 0 0,0 6.1974,-19.0666" style="stroke:#000000;stroke-width:0.25;"/>
        <!-- Kreisbogen -->
        <path d="M6.1974,-19.0666 A11.3397,11.3397 0 0,0 4.7097,-19.731" style="stroke:#000000;stroke-width:0.25;"/>
        <!-- Kreisbogen -->
        <path d="M4.7097,-19.731 A12.8896,12.8896 0 0,0 3.0406,-20.2123" style="stroke:#000000;stroke-width:0.25;"/>
        <!-- Kreisbogen -->
        <path d="M3.0406,-20.2123 A14.1693,14.1693 0 0,0 1.4676,-20.4614" style="stroke:#000000;stroke-width:0.25;"/>
        <!-- Kreisbogen -->
        <path d="M1.4676,-20.4614 A17.6208,17.6208 0 0,0 -0.306,-20.5509" style="stroke:#000000;stroke-width:0.25;"/>
        <!-- Kreisbogen -->
        <path d="M-0.306,-20.5509 A13.8402,13.8402 0 0,0 -6.1515,-19.342" style="stroke:#000000;stroke-width:0.25;"/>
        <!-- Kreisbogen -->
        <path d="M-6.1515,-19.342 A11.6133,11.6133 0 0,0 -10.6503,-15.6236" style="stroke:#000000;stroke-width:0.25;"/>
        <!-- Kreisbogen -->
        <path d="M-10.6503,-15.6236 A14.2297,14.2297 0 0,0 -12.2108,-12.9671" style="stroke:#000000;stroke-width:0.25;"/>
        <!-- Kreisbogen -->
        <path d="M-12.2108,-12.9671 A23.5671,23.5671 0 0,0 -13.5272,-9.2272" style="stroke:#000000;stroke-width:0.25;"/>
        <!-- Kreisbogen -->
        <path d="M-13.5272,-9.2272 A27.5329,27.5329 0 0,0 -14.2481,-5.3035" style="stroke:#000000;stroke-width:0.25;"/>
        <!-- Kreisbogen -->
        <path d="M-14.2481,-5.3035 A48.5241,48.5241 0 0,0 -14.5371,-0.0153" style="stroke:#000000;stroke-width:0.25;"/>
        <!-- Kreisbogen -->
        <path d="M-14.5371,-0.0153 A35.1127,35.1127 0 0,0 -13.6037,8.3703" style="stroke:#000000;stroke-width:0.25;"/>
        <!-- Kreisbogen -->
        <path d="M-13.6037,8.3703 A23.6687,23.6687 0 0,0 -12.3776,12.0345" style="stroke:#000000;stroke-width:0.25;"/>
        <!-- Kreisbogen -->
        <path d="M-12.3776,12.0345 A16.6342,16.6342 0 0,0 -10.8187,14.8738" style="stroke:#000000;stroke-width:0.25;"/>
        <!-- Kreisbogen -->
        <path d="M-10.8187,14.8738 A12.9271,12.9271 0 0,0 -6.1821,19.0666" style="stroke:#000000;stroke-width:0.25;"/>
        <!-- Kreisbogen -->
        <path d="M-6.1821,19.0666 A11.6714,11.6714 0 0,0 -3.2955,20.1442" style="stroke:#000000;stroke-width:0.25;"/>
        <!-- Kreisbogen -->
        <path d="M-3.2955,20.1442 A16.1494,16.1494 0 0,0 0.306,20.5509" style="stroke:#000000;stroke-width:0.25;"/>
        <!-- Kreisbogen -->
        <path d="M0.306,20.5509 A13.8402,13.8402 0 0,0 6.1515,19.342" style="stroke:#000000;stroke-width:0.25;"/>
        <!-- Kreisbogen -->
        <path d="M6.1515,19.342 A11.5662,11.5662 0 0,0 10.6503,15.6083" style="stroke:#000000;stroke-width:0.25;"/>
        <!-- Kreisbogen -->
        <path d="M10.6503,15.6083 A14.4226,14.4226 0 0,0 12.2122,12.9378" style="stroke:#000000;stroke-width:0.25;"/>
        <!-- Kreisbogen -->
        <path d="M12.2122,12.9378 A23.6965,23.6965 0 0,0 13.5272,9.1966" style="stroke:#000000;stroke-width:0.25;"/>
        <!-- Kreisbogen -->
        <path d="M13.5272,9.1966 A27.5329,27.5329 0 0,0 14.2481,5.2729" style="stroke:#000000;stroke-width:0.25;"/>
        <!-- Kreisbogen -->
        <path d="M14.2481,5.2729 A48.5241,48.5241 0 0,0 14.5371,-0.0153" style="stroke:#000000;stroke-width:0.25;"/>
        <!-- Kreisbogen -->
        <path d="M-9.1507,0.1683 A117.6568,117.6568 0 0,1 -9.1354,-1.7292" style="stroke:#000000;stroke-width:0.25;"/>
        <!-- Kreisbogen -->
        <path d="M-9.1354,-1.7292 A21.1653,21.1653 0 0,1 -9.0283,-3.5654" style="stroke:#000000;stroke-width:0.25;"/>
        <!-- Linie -->
        <line x1="-9.0283" y1="-3.5654" x2="7.8959" y2="8.9518" style="stroke:#000000;stroke-width:0.25;"/>
        <!-- Kreisbogen -->
        <path d="M7.8959,8.9518 A14.3189,14.3189 0 0,1 6.733,11.798" style="stroke:#000000;stroke-width:0.25;"/>
        <!-- Kreisbogen -->
        <path d="M6.733,11.798 A9.0245,9.0245 0 0,1 5.0497,14.0168" style="stroke:#000000;stroke-width:0.25;"/>
        <!-- Kreisbogen -->
        <path d="M5.0497,14.0168 A7.2164,7.2164 0 0,1 2.8156,15.4705" style="stroke:#000000;stroke-width:0.25;"/>
        <!-- Kreisbogen -->
        <path d="M2.8156,15.4705 A7.2884,7.2884 0 0,1 0,15.9908" style="stroke:#000000;stroke-width:0.25;"/>
        <!-- Kreisbogen -->
        <path d="M0,15.9908 A7.2554,7.2554 0 0,1 -3.7796,14.9809" style="stroke:#000000;stroke-width:0.25;"/>
        <!-- Kreisbogen -->
        <path d="M-3.7796,14.9809 A8.4028,8.4028 0 0,1 -6.6718,11.9663" style="stroke:#000000;stroke-width:0.25;"/>
        <!-- Kreisbogen -->
        <path d="M-6.6718,11.9663 A12.6774,12.6774 0 0,1 -7.6673,9.8836" style="stroke:#000000;stroke-width:0.25;"/>
        <!-- Kreisbogen -->
        <path d="M-7.6673,9.8836 A21.3493,21.3493 0 0,1 -8.508,7.0084" style="stroke:#000000;stroke-width:0.25;"/>
        <!-- Kreisbogen -->
        <path d="M-8.508,7.0084 A32.4151,32.4151 0 0,1 -9.1507,0.1683" style="stroke:#000000;stroke-width:0.25;"/>
        <!-- Schraffur -->
        <path d="M3.7796,-14.9809 A8.43548,8.43548 0 0 1 6.6718,-11.9816 A12.442,12.442 0 0 1 7.6659,-9.9133 A21.1939,21.1939 0 0 1 8.508,-7.039 A32.4151,32.4151 0 0 1 9.1507,-0.1989 A27.7496,27.7496 0 0 1 9.0742,1.8669 A105.981,105.981 0 0 1 8.9059,3.8715 L-8.0184,-8.707 A15.743,15.743 0 0 1 -6.8554,-11.645 A8.97556,8.97556 0 0 1 -5.1568,-13.9556 A7.3066,7.3066 0 0 1 -2.8921,-15.4552 A7.38374,7.38374 0 0 1 0,-15.9908 A7.25543,7.25543 0 0 1 3.7796,-14.9809M2.8156,15.4705 A7.28841,7.28841 0 0 1 0,15.9908 A7.25543,7.25543 0 0 1 -3.7796,14.9809 A8.40284,8.40284 0 0 1 -6.6718,11.9663 A12.6774,12.6774 0 0 1 -7.6673,9.8836 A21.3493,21.3493 0 0 1 -8.508,7.0084 A32.4151,32.4151 0 0 1 -9.1507,0.1683 A117.657,117.657 0 0 1 -9.1354,-1.7292 A21.1653,21.1653 0 0 1 -9.0283,-3.5654 L7.8959,8.9518 A14.3189,14.3189 0 0 1 6.733,11.798 A9.0245,9.0245 0 0 1 5.0497,14.0168 A7.21636,7.21636 0 0 1 2.8156,15.4705M13.5272,9.1966 A27.5329,27.5329 0 0 0 14.2481,5.2729 A48.5241,48.5241 0 0 0 14.5371,-0.0153 A35.4773,35.4773 0 0 0 13.619,-8.3856 A23.0209,23.0209 0 0 0 12.403,-12.0319 A16.4197,16.4197 0 0 0 10.834,-14.8738 A13.0967,13.0967 0 0 0 6.1974,-19.0666 A11.3397,11.3397 0 0 0 4.7097,-19.731 A12.8896,12.8896 0 0 0 3.0406,-20.2123 A14.1693,14.1693 0 0 0 1.4676,-20.4614 A17.6208,17.6208 0 0 0 -0.306,-20.5509 A13.8402,13.8402 0 0 0 -6.1515,-19.342 A11.6133,11.6133 0 0 0 -10.6503,-15.6236 A14.2297,14.2297 0 0 0 -12.2108,-12.9671 A23.5671,23.5671 0 0 0 -13.5272,-9.2272 A27.5329,27.5329 0 0 0 -14.2481,-5.3035 A48.5241,48.5241 0 0 0 -14.5371,-0.0153 A35.1127,35.1127 0 0 0 -13.6037,8.3703 A23.6687,23.6687 0 0 0 -12.3776,12.0345 A16.6342,16.6342 0 0 0 -10.8187,14.8738 A12.9271,12.9271 0 0 0 -6.1821,19.0666 A11.6714,11.6714 0 0 0 -3.2955,20.1442 A16.1494,16.1494 0 0 0 0.306,20.5509 A13.8402,13.8402 0 0 0 6.1515,19.342 A11.5662,11.5662 0 0 0 10.6503,15.6083 A14.4226,14.4226 0 0 0 12.2122,12.9378 A23.6965,23.6965 0 0 0 13.5272,9.1966" style="fill:#000000;fill-rule:evenodd;"/>
    </g>
</svg>
