<?xml version="1.0" encoding="UTF-8"?>
<!-- 2020-10-26 14:33:23 Generated by QCAD 3.24.2 SVG Exporter PG -->
<svg width="212mm" height="212mm" viewBox="-106 -106 212 212" version="1.1" xmlns="http://www.w3.org/2000/svg" style="stroke-linecap:round;stroke-linejoin:round;fill:none">
    <g transform="scale(1,-1)">
        <!-- Linie -->
        <line x1="-57.5" y1="70" x2="-17.5" y2="70" style="stroke:#000000;stroke-width:2;"/>
        <!-- Linie -->
        <line x1="-17.5" y1="70" x2="-17.5" y2="-70" style="stroke:#000000;stroke-width:2;"/>
        <!-- Linie -->
        <line x1="-17.5" y1="-70" x2="-57.5" y2="-70" style="stroke:#000000;stroke-width:2;"/>
        <!-- Linie -->
        <line x1="-17.5" y1="0" x2="-37.5" y2="0" style="stroke:#000000;stroke-width:2;"/>
        <!-- Linie -->
        <line x1="-17.5" y1="20" x2="-37.5" y2="20" style="stroke:#000000;stroke-width:2;"/>
        <!-- Linie -->
        <line x1="-17.5" y1="40" x2="-37.5" y2="40" style="stroke:#000000;stroke-width:2;"/>
        <!-- Linie -->
        <line x1="-17.5" y1="60" x2="-37.5" y2="60" style="stroke:#000000;stroke-width:2;"/>
        <!-- Linie -->
        <line x1="-17.5" y1="50" x2="-27.5" y2="50" style="stroke:#000000;stroke-width:2;"/>
        <!-- Linie -->
        <line x1="-17.5" y1="30" x2="-27.5" y2="30" style="stroke:#000000;stroke-width:2;"/>
        <!-- Linie -->
        <line x1="-17.5" y1="10" x2="-27.5" y2="10" style="stroke:#000000;stroke-width:2;"/>
        <!-- Linie -->
        <line x1="-17.5" y1="-10" x2="-27.5" y2="-10" style="stroke:#000000;stroke-width:2;"/>
        <!-- Linie -->
        <line x1="-17.5" y1="-20" x2="-37.5" y2="-20" style="stroke:#000000;stroke-width:2;"/>
        <!-- Linie -->
        <line x1="-17.5" y1="-30" x2="-27.5" y2="-30" style="stroke:#000000;stroke-width:2;"/>
        <!-- Linie -->
        <line x1="-17.5" y1="-40" x2="-37.5" y2="-40" style="stroke:#000000;stroke-width:2;"/>
        <!-- Linie -->
        <line x1="-17.5" y1="-50" x2="-27.5" y2="-50" style="stroke:#000000;stroke-width:2;"/>
        <!-- Linie -->
        <line x1="-17.5" y1="-60" x2="-37.5" y2="-60" style="stroke:#000000;stroke-width:2;"/>
        <!-- Linie -->
        <line x1="42.5" y1="-60" x2="42.5" y2="60" style="stroke:#000000;stroke-width:2;"/>
        <!-- Linie -->
        <line x1="42.5" y1="60" x2="22.5" y2="30" style="stroke:#000000;stroke-width:2;"/>
        <!-- Linie -->
        <line x1="42.5" y1="60" x2="62.5" y2="30" style="stroke:#000000;stroke-width:2;"/>
        <!-- Linie -->
        <line x1="-57.5" y1="70" x2="-67.5" y2="70" style="stroke:#000000;stroke-width:2;"/>
        <!-- Linie -->
        <line x1="-67.5" y1="70" x2="-67.5" y2="-70" style="stroke:#000000;stroke-width:2;"/>
        <!-- Linie -->
        <line x1="-67.5" y1="-70" x2="-57.5" y2="-70" style="stroke:#000000;stroke-width:2;"/>
        <!-- Linie -->
        <line x1="17.5" y1="70" x2="67.5" y2="70" style="stroke:#000000;stroke-width:2;"/>
        <!-- Linie -->
        <line x1="17.5" y1="-70" x2="67.5" y2="-70" style="stroke:#000000;stroke-width:2;"/>
        <!-- Schraffur -->
        <path d="M100,-85.5 L100,85.5 A14.5,14.5 0 0 1 85.5,100 L-85.5,100 A14.5,14.5 0 0 1 -100,85.5 L-100,-85.5 A14.5,14.5 0 0 1 -85.5,-100 L85.5,-100 A14.5,14.5 0 0 1 100,-85.5M-85.5,95 A9.5,9.5 0 0 1 -95,85.5 L-95,-85.5 A9.5,9.5 0 0 1 -85.5,-95 L85.5,-95 A9.5,9.5 0 0 1 95,-85.5 L95,85.5 A9.5,9.5 0 0 1 85.5,95 Z" style="fill:#000000;fill-rule:evenodd;"/>
    </g>
</svg>
