<?xml version="1.0" encoding="UTF-8"?>
<!-- 2020-10-26 22:41:04 Generated by QCAD 3.24.2 SVG Exporter PG -->
<svg width="212mm" height="212mm" viewBox="-106 -106 212 212" version="1.1" xmlns="http://www.w3.org/2000/svg" style="stroke-linecap:round;stroke-linejoin:round;fill:none">
    <g transform="scale(1,-1)">
        <!-- Schraffur -->
        <path d="M100,-85.5 L100,85.5 A14.5,14.5 0 0 1 85.5,100 L-85.5,100 A14.5,14.5 0 0 1 -100,85.5 L-100,-85.5 A14.5,14.5 0 0 1 -85.5,-100 L85.5,-100 A14.5,14.5 0 0 1 100,-85.5M-85.5,95 A9.5,9.5 0 0 1 -95,85.5 L-95,-85.5 A9.5,9.5 0 0 1 -85.5,-95 L85.5,-95 A9.5,9.5 0 0 1 95,-85.5 L95,85.5 A9.5,9.5 0 0 1 85.5,95 Z" style="fill:#000000;fill-rule:evenodd;"/>
        <!-- Linie -->
        <line x1="-25.8668" y1="-8.3332" x2="-15.0668" y2="-1.1332" style="stroke:#000000;stroke-width:1;"/>
        <!-- Linie -->
        <line x1="-25.8668" y1="-4.7332" x2="-15.0668" y2="2.4668" style="stroke:#000000;stroke-width:1;"/>
        <!-- Linie -->
        <line x1="67.9215" y1="-60.8504" x2="60.8504" y2="-67.9215" style="stroke:#000000;stroke-width:2;"/>
        <!-- Linie -->
        <line x1="18.424" y1="-25.4951" x2="11.8794" y2="-18.9504" style="stroke:#000000;stroke-width:2;"/>
        <!-- Linie -->
        <line x1="18.9504" y1="-11.8794" x2="25.4951" y2="-18.424" style="stroke:#000000;stroke-width:2;"/>
        <!-- Linie -->
        <line x1="-25.8668" y1="-1.1332" x2="-15.0668" y2="6.0668" style="stroke:#000000;stroke-width:1;"/>
        <!-- Linie -->
        <line x1="14.8885" y1="-29.0306" x2="29.0306" y2="-14.8885" style="stroke:#000000;stroke-width:2;"/>
        <!-- Linie -->
        <line x1="29.0306" y1="-14.8885" x2="71.457" y2="-57.3149" style="stroke:#000000;stroke-width:2;"/>
        <!-- Linie -->
        <line x1="71.457" y1="-57.3149" x2="57.3149" y2="-71.457" style="stroke:#000000;stroke-width:2;"/>
        <!-- Linie -->
        <line x1="57.3149" y1="-71.457" x2="14.8885" y2="-29.0306" style="stroke:#000000;stroke-width:2;"/>
        <!-- Linie -->
        <line x1="-20.4668" y1="-8.3332" x2="-15.0668" y2="-4.7332" style="stroke:#000000;stroke-width:1;"/>
        <!-- Linie -->
        <line x1="-25.8668" y1="6.0668" x2="-23.1668" y2="7.8668" style="stroke:#000000;stroke-width:1;"/>
        <!-- Linie -->
        <line x1="-25.8668" y1="2.4668" x2="-17.7668" y2="7.8668" style="stroke:#000000;stroke-width:1;"/>
        <!-- Linie -->
        <line x1="-25.8668" y1="-8.3332" x2="-15.0668" y2="-8.3332" style="stroke:#000000;stroke-width:1;"/>
        <!-- Linie -->
        <line x1="-25.8668" y1="-8.3332" x2="-25.8668" y2="7.8668" style="stroke:#000000;stroke-width:1;"/>
        <!-- Linie -->
        <line x1="-15.0668" y1="-8.3332" x2="-15.0668" y2="7.8668" style="stroke:#000000;stroke-width:1;"/>
        <!-- Linie -->
        <line x1="-25.8668" y1="7.8668" x2="-25.8668" y2="13.2668" style="stroke:#000000;stroke-width:1;"/>
        <!-- Linie -->
        <line x1="-15.0668" y1="7.8668" x2="-15.0668" y2="13.2668" style="stroke:#000000;stroke-width:1;"/>
        <!-- Linie -->
        <line x1="-27.6668" y1="13.2668" x2="-13.2668" y2="13.2668" style="stroke:#000000;stroke-width:1;"/>
        <!-- Schraffur -->
        <path d="M31.9664,20.4668 A52.4332,52.4332 0 0 1 -72.9,20.4668 A52.4332,52.4332 0 0 1 31.9664,20.4668M29.0685,20.4668 A49.5354,49.5354 0 0 1 -70.0022,20.4668 A49.5354,49.5354 0 0 1 29.0685,20.4668" style="fill:#000000;fill-rule:evenodd;"/>
        <!-- Linie -->
        <line x1="-13.2668" y1="13.2668" x2="-11.4668" y2="25.8668" style="stroke:#000000;stroke-width:1;"/>
        <!-- Linie -->
        <line x1="-27.6668" y1="13.2668" x2="-29.4668" y2="25.8668" style="stroke:#000000;stroke-width:1;"/>
        <!-- Linie -->
        <line x1="-29.4668" y1="25.8668" x2="-29.4668" y2="38.4668" style="stroke:#000000;stroke-width:1;"/>
        <!-- Linie -->
        <line x1="-29.4668" y1="38.4668" x2="-11.4668" y2="38.4668" style="stroke:#000000;stroke-width:1;"/>
        <!-- Linie -->
        <line x1="-11.4668" y1="38.4668" x2="-11.4668" y2="25.8668" style="stroke:#000000;stroke-width:1;"/>
        <!-- Linie -->
        <line x1="-36.6668" y1="45.6668" x2="-36.6668" y2="48.6368" style="stroke:#000000;stroke-width:1;"/>
        <!-- Kreisbogen -->
        <path d="M-36.6668,48.6368 A0.63,0.63 0 0,0 -36.0368,49.2668" style="stroke:#000000;stroke-width:1;"/>
        <!-- Linie -->
        <line x1="-36.0368" y1="49.2668" x2="-4.8968" y2="49.2668" style="stroke:#000000;stroke-width:1;"/>
        <!-- Kreisbogen -->
        <path d="M-4.8968,49.2668 A0.63,0.63 0 0,0 -4.2668,48.6368" style="stroke:#000000;stroke-width:1;"/>
        <!-- Linie -->
        <line x1="-4.2668" y1="48.6368" x2="-4.2668" y2="45.6668" style="stroke:#000000;stroke-width:1;"/>
        <!-- Linie -->
        <line x1="-4.2668" y1="42.0668" x2="-4.2668" y2="39.0968" style="stroke:#000000;stroke-width:1;"/>
        <!-- Kreisbogen -->
        <path d="M-4.2668,39.0968 A0.63,0.63 0 0,0 -4.8968,38.4668" style="stroke:#000000;stroke-width:1;"/>
        <!-- Linie -->
        <line x1="-4.8968" y1="38.4668" x2="-36.0368" y2="38.4668" style="stroke:#000000;stroke-width:1;"/>
        <!-- Kreisbogen -->
        <path d="M-36.0368,38.4668 A0.63,0.63 0 0,0 -36.6668,39.0968" style="stroke:#000000;stroke-width:1;"/>
        <!-- Linie -->
        <line x1="-36.6668" y1="39.0968" x2="-36.6668" y2="42.0668" style="stroke:#000000;stroke-width:1;"/>
        <!-- Linie -->
        <line x1="-36.6668" y1="45.6668" x2="-34.8668" y2="45.6668" style="stroke:#000000;stroke-width:1;"/>
        <!-- Linie -->
        <line x1="-34.8668" y1="45.6668" x2="-34.8668" y2="42.0668" style="stroke:#000000;stroke-width:1;"/>
        <!-- Linie -->
        <line x1="-34.8668" y1="42.0668" x2="-36.6668" y2="42.0668" style="stroke:#000000;stroke-width:1;"/>
        <!-- Linie -->
        <line x1="-4.2668" y1="45.6668" x2="-6.0668" y2="45.6668" style="stroke:#000000;stroke-width:1;"/>
        <!-- Linie -->
        <line x1="-6.0668" y1="45.6668" x2="-6.0668" y2="42.0668" style="stroke:#000000;stroke-width:1;"/>
        <!-- Linie -->
        <line x1="-6.0668" y1="42.0668" x2="-4.2668" y2="42.0668" style="stroke:#000000;stroke-width:1;"/>
        <!-- Linie -->
        <line x1="-34.8668" y1="45.6668" x2="-6.0668" y2="45.6668" style="stroke:#000000;stroke-width:1;"/>
        <!-- Linie -->
        <line x1="-6.0668" y1="42.0668" x2="-34.8668" y2="42.0668" style="stroke:#000000;stroke-width:1;"/>
    </g>
</svg>
